%TF.GenerationSoftware,KiCad,Pcbnew,8.0.6-8.0.6-0~ubuntu22.04.1*%
%TF.CreationDate,2024-11-01T23:26:47+09:00*%
%TF.ProjectId,blmd_hardware,626c6d64-5f68-4617-9264-776172652e6b,rev?*%
%TF.SameCoordinates,Original*%
%TF.FileFunction,Legend,Bot*%
%TF.FilePolarity,Positive*%
%FSLAX46Y46*%
G04 Gerber Fmt 4.6, Leading zero omitted, Abs format (unit mm)*
G04 Created by KiCad (PCBNEW 8.0.6-8.0.6-0~ubuntu22.04.1) date 2024-11-01 23:26:47*
%MOMM*%
%LPD*%
G01*
G04 APERTURE LIST*
%ADD10C,0.150000*%
%ADD11C,0.508000*%
%ADD12C,0.120000*%
G04 APERTURE END LIST*
D10*
X76654819Y-59833333D02*
X76178628Y-59500000D01*
X76654819Y-59261905D02*
X75654819Y-59261905D01*
X75654819Y-59261905D02*
X75654819Y-59642857D01*
X75654819Y-59642857D02*
X75702438Y-59738095D01*
X75702438Y-59738095D02*
X75750057Y-59785714D01*
X75750057Y-59785714D02*
X75845295Y-59833333D01*
X75845295Y-59833333D02*
X75988152Y-59833333D01*
X75988152Y-59833333D02*
X76083390Y-59785714D01*
X76083390Y-59785714D02*
X76131009Y-59738095D01*
X76131009Y-59738095D02*
X76178628Y-59642857D01*
X76178628Y-59642857D02*
X76178628Y-59261905D01*
X76654819Y-60785714D02*
X76654819Y-60214286D01*
X76654819Y-60500000D02*
X75654819Y-60500000D01*
X75654819Y-60500000D02*
X75797676Y-60404762D01*
X75797676Y-60404762D02*
X75892914Y-60309524D01*
X75892914Y-60309524D02*
X75940533Y-60214286D01*
X71768094Y-77554819D02*
X71768094Y-76554819D01*
X71768094Y-76554819D02*
X71529999Y-76554819D01*
X71529999Y-76554819D02*
X71387142Y-76602438D01*
X71387142Y-76602438D02*
X71291904Y-76697676D01*
X71291904Y-76697676D02*
X71244285Y-76792914D01*
X71244285Y-76792914D02*
X71196666Y-76983390D01*
X71196666Y-76983390D02*
X71196666Y-77126247D01*
X71196666Y-77126247D02*
X71244285Y-77316723D01*
X71244285Y-77316723D02*
X71291904Y-77411961D01*
X71291904Y-77411961D02*
X71387142Y-77507200D01*
X71387142Y-77507200D02*
X71529999Y-77554819D01*
X71529999Y-77554819D02*
X71768094Y-77554819D01*
X70244285Y-77554819D02*
X70815713Y-77554819D01*
X70529999Y-77554819D02*
X70529999Y-76554819D01*
X70529999Y-76554819D02*
X70625237Y-76697676D01*
X70625237Y-76697676D02*
X70720475Y-76792914D01*
X70720475Y-76792914D02*
X70815713Y-76840533D01*
X87459580Y-65457142D02*
X87507200Y-65409523D01*
X87507200Y-65409523D02*
X87554819Y-65266666D01*
X87554819Y-65266666D02*
X87554819Y-65171428D01*
X87554819Y-65171428D02*
X87507200Y-65028571D01*
X87507200Y-65028571D02*
X87411961Y-64933333D01*
X87411961Y-64933333D02*
X87316723Y-64885714D01*
X87316723Y-64885714D02*
X87126247Y-64838095D01*
X87126247Y-64838095D02*
X86983390Y-64838095D01*
X86983390Y-64838095D02*
X86792914Y-64885714D01*
X86792914Y-64885714D02*
X86697676Y-64933333D01*
X86697676Y-64933333D02*
X86602438Y-65028571D01*
X86602438Y-65028571D02*
X86554819Y-65171428D01*
X86554819Y-65171428D02*
X86554819Y-65266666D01*
X86554819Y-65266666D02*
X86602438Y-65409523D01*
X86602438Y-65409523D02*
X86650057Y-65457142D01*
X87554819Y-66409523D02*
X87554819Y-65838095D01*
X87554819Y-66123809D02*
X86554819Y-66123809D01*
X86554819Y-66123809D02*
X86697676Y-66028571D01*
X86697676Y-66028571D02*
X86792914Y-65933333D01*
X86792914Y-65933333D02*
X86840533Y-65838095D01*
X86554819Y-67028571D02*
X86554819Y-67123809D01*
X86554819Y-67123809D02*
X86602438Y-67219047D01*
X86602438Y-67219047D02*
X86650057Y-67266666D01*
X86650057Y-67266666D02*
X86745295Y-67314285D01*
X86745295Y-67314285D02*
X86935771Y-67361904D01*
X86935771Y-67361904D02*
X87173866Y-67361904D01*
X87173866Y-67361904D02*
X87364342Y-67314285D01*
X87364342Y-67314285D02*
X87459580Y-67266666D01*
X87459580Y-67266666D02*
X87507200Y-67219047D01*
X87507200Y-67219047D02*
X87554819Y-67123809D01*
X87554819Y-67123809D02*
X87554819Y-67028571D01*
X87554819Y-67028571D02*
X87507200Y-66933333D01*
X87507200Y-66933333D02*
X87459580Y-66885714D01*
X87459580Y-66885714D02*
X87364342Y-66838095D01*
X87364342Y-66838095D02*
X87173866Y-66790476D01*
X87173866Y-66790476D02*
X86935771Y-66790476D01*
X86935771Y-66790476D02*
X86745295Y-66838095D01*
X86745295Y-66838095D02*
X86650057Y-66885714D01*
X86650057Y-66885714D02*
X86602438Y-66933333D01*
X86602438Y-66933333D02*
X86554819Y-67028571D01*
X82866666Y-65659580D02*
X82914285Y-65707200D01*
X82914285Y-65707200D02*
X83057142Y-65754819D01*
X83057142Y-65754819D02*
X83152380Y-65754819D01*
X83152380Y-65754819D02*
X83295237Y-65707200D01*
X83295237Y-65707200D02*
X83390475Y-65611961D01*
X83390475Y-65611961D02*
X83438094Y-65516723D01*
X83438094Y-65516723D02*
X83485713Y-65326247D01*
X83485713Y-65326247D02*
X83485713Y-65183390D01*
X83485713Y-65183390D02*
X83438094Y-64992914D01*
X83438094Y-64992914D02*
X83390475Y-64897676D01*
X83390475Y-64897676D02*
X83295237Y-64802438D01*
X83295237Y-64802438D02*
X83152380Y-64754819D01*
X83152380Y-64754819D02*
X83057142Y-64754819D01*
X83057142Y-64754819D02*
X82914285Y-64802438D01*
X82914285Y-64802438D02*
X82866666Y-64850057D01*
X82009523Y-64754819D02*
X82199999Y-64754819D01*
X82199999Y-64754819D02*
X82295237Y-64802438D01*
X82295237Y-64802438D02*
X82342856Y-64850057D01*
X82342856Y-64850057D02*
X82438094Y-64992914D01*
X82438094Y-64992914D02*
X82485713Y-65183390D01*
X82485713Y-65183390D02*
X82485713Y-65564342D01*
X82485713Y-65564342D02*
X82438094Y-65659580D01*
X82438094Y-65659580D02*
X82390475Y-65707200D01*
X82390475Y-65707200D02*
X82295237Y-65754819D01*
X82295237Y-65754819D02*
X82104761Y-65754819D01*
X82104761Y-65754819D02*
X82009523Y-65707200D01*
X82009523Y-65707200D02*
X81961904Y-65659580D01*
X81961904Y-65659580D02*
X81914285Y-65564342D01*
X81914285Y-65564342D02*
X81914285Y-65326247D01*
X81914285Y-65326247D02*
X81961904Y-65231009D01*
X81961904Y-65231009D02*
X82009523Y-65183390D01*
X82009523Y-65183390D02*
X82104761Y-65135771D01*
X82104761Y-65135771D02*
X82295237Y-65135771D01*
X82295237Y-65135771D02*
X82390475Y-65183390D01*
X82390475Y-65183390D02*
X82438094Y-65231009D01*
X82438094Y-65231009D02*
X82485713Y-65326247D01*
X95242857Y-66059580D02*
X95290476Y-66107200D01*
X95290476Y-66107200D02*
X95433333Y-66154819D01*
X95433333Y-66154819D02*
X95528571Y-66154819D01*
X95528571Y-66154819D02*
X95671428Y-66107200D01*
X95671428Y-66107200D02*
X95766666Y-66011961D01*
X95766666Y-66011961D02*
X95814285Y-65916723D01*
X95814285Y-65916723D02*
X95861904Y-65726247D01*
X95861904Y-65726247D02*
X95861904Y-65583390D01*
X95861904Y-65583390D02*
X95814285Y-65392914D01*
X95814285Y-65392914D02*
X95766666Y-65297676D01*
X95766666Y-65297676D02*
X95671428Y-65202438D01*
X95671428Y-65202438D02*
X95528571Y-65154819D01*
X95528571Y-65154819D02*
X95433333Y-65154819D01*
X95433333Y-65154819D02*
X95290476Y-65202438D01*
X95290476Y-65202438D02*
X95242857Y-65250057D01*
X94861904Y-65250057D02*
X94814285Y-65202438D01*
X94814285Y-65202438D02*
X94719047Y-65154819D01*
X94719047Y-65154819D02*
X94480952Y-65154819D01*
X94480952Y-65154819D02*
X94385714Y-65202438D01*
X94385714Y-65202438D02*
X94338095Y-65250057D01*
X94338095Y-65250057D02*
X94290476Y-65345295D01*
X94290476Y-65345295D02*
X94290476Y-65440533D01*
X94290476Y-65440533D02*
X94338095Y-65583390D01*
X94338095Y-65583390D02*
X94909523Y-66154819D01*
X94909523Y-66154819D02*
X94290476Y-66154819D01*
X93338095Y-66154819D02*
X93909523Y-66154819D01*
X93623809Y-66154819D02*
X93623809Y-65154819D01*
X93623809Y-65154819D02*
X93719047Y-65297676D01*
X93719047Y-65297676D02*
X93814285Y-65392914D01*
X93814285Y-65392914D02*
X93909523Y-65440533D01*
X73489580Y-54457142D02*
X73537200Y-54409523D01*
X73537200Y-54409523D02*
X73584819Y-54266666D01*
X73584819Y-54266666D02*
X73584819Y-54171428D01*
X73584819Y-54171428D02*
X73537200Y-54028571D01*
X73537200Y-54028571D02*
X73441961Y-53933333D01*
X73441961Y-53933333D02*
X73346723Y-53885714D01*
X73346723Y-53885714D02*
X73156247Y-53838095D01*
X73156247Y-53838095D02*
X73013390Y-53838095D01*
X73013390Y-53838095D02*
X72822914Y-53885714D01*
X72822914Y-53885714D02*
X72727676Y-53933333D01*
X72727676Y-53933333D02*
X72632438Y-54028571D01*
X72632438Y-54028571D02*
X72584819Y-54171428D01*
X72584819Y-54171428D02*
X72584819Y-54266666D01*
X72584819Y-54266666D02*
X72632438Y-54409523D01*
X72632438Y-54409523D02*
X72680057Y-54457142D01*
X73584819Y-55409523D02*
X73584819Y-54838095D01*
X73584819Y-55123809D02*
X72584819Y-55123809D01*
X72584819Y-55123809D02*
X72727676Y-55028571D01*
X72727676Y-55028571D02*
X72822914Y-54933333D01*
X72822914Y-54933333D02*
X72870533Y-54838095D01*
X73584819Y-55885714D02*
X73584819Y-56076190D01*
X73584819Y-56076190D02*
X73537200Y-56171428D01*
X73537200Y-56171428D02*
X73489580Y-56219047D01*
X73489580Y-56219047D02*
X73346723Y-56314285D01*
X73346723Y-56314285D02*
X73156247Y-56361904D01*
X73156247Y-56361904D02*
X72775295Y-56361904D01*
X72775295Y-56361904D02*
X72680057Y-56314285D01*
X72680057Y-56314285D02*
X72632438Y-56266666D01*
X72632438Y-56266666D02*
X72584819Y-56171428D01*
X72584819Y-56171428D02*
X72584819Y-55980952D01*
X72584819Y-55980952D02*
X72632438Y-55885714D01*
X72632438Y-55885714D02*
X72680057Y-55838095D01*
X72680057Y-55838095D02*
X72775295Y-55790476D01*
X72775295Y-55790476D02*
X73013390Y-55790476D01*
X73013390Y-55790476D02*
X73108628Y-55838095D01*
X73108628Y-55838095D02*
X73156247Y-55885714D01*
X73156247Y-55885714D02*
X73203866Y-55980952D01*
X73203866Y-55980952D02*
X73203866Y-56171428D01*
X73203866Y-56171428D02*
X73156247Y-56266666D01*
X73156247Y-56266666D02*
X73108628Y-56314285D01*
X73108628Y-56314285D02*
X73013390Y-56361904D01*
X64742857Y-68259580D02*
X64790476Y-68307200D01*
X64790476Y-68307200D02*
X64933333Y-68354819D01*
X64933333Y-68354819D02*
X65028571Y-68354819D01*
X65028571Y-68354819D02*
X65171428Y-68307200D01*
X65171428Y-68307200D02*
X65266666Y-68211961D01*
X65266666Y-68211961D02*
X65314285Y-68116723D01*
X65314285Y-68116723D02*
X65361904Y-67926247D01*
X65361904Y-67926247D02*
X65361904Y-67783390D01*
X65361904Y-67783390D02*
X65314285Y-67592914D01*
X65314285Y-67592914D02*
X65266666Y-67497676D01*
X65266666Y-67497676D02*
X65171428Y-67402438D01*
X65171428Y-67402438D02*
X65028571Y-67354819D01*
X65028571Y-67354819D02*
X64933333Y-67354819D01*
X64933333Y-67354819D02*
X64790476Y-67402438D01*
X64790476Y-67402438D02*
X64742857Y-67450057D01*
X63790476Y-68354819D02*
X64361904Y-68354819D01*
X64076190Y-68354819D02*
X64076190Y-67354819D01*
X64076190Y-67354819D02*
X64171428Y-67497676D01*
X64171428Y-67497676D02*
X64266666Y-67592914D01*
X64266666Y-67592914D02*
X64361904Y-67640533D01*
X62885714Y-67354819D02*
X63361904Y-67354819D01*
X63361904Y-67354819D02*
X63409523Y-67831009D01*
X63409523Y-67831009D02*
X63361904Y-67783390D01*
X63361904Y-67783390D02*
X63266666Y-67735771D01*
X63266666Y-67735771D02*
X63028571Y-67735771D01*
X63028571Y-67735771D02*
X62933333Y-67783390D01*
X62933333Y-67783390D02*
X62885714Y-67831009D01*
X62885714Y-67831009D02*
X62838095Y-67926247D01*
X62838095Y-67926247D02*
X62838095Y-68164342D01*
X62838095Y-68164342D02*
X62885714Y-68259580D01*
X62885714Y-68259580D02*
X62933333Y-68307200D01*
X62933333Y-68307200D02*
X63028571Y-68354819D01*
X63028571Y-68354819D02*
X63266666Y-68354819D01*
X63266666Y-68354819D02*
X63361904Y-68307200D01*
X63361904Y-68307200D02*
X63409523Y-68259580D01*
X62742857Y-53289580D02*
X62790476Y-53337200D01*
X62790476Y-53337200D02*
X62933333Y-53384819D01*
X62933333Y-53384819D02*
X63028571Y-53384819D01*
X63028571Y-53384819D02*
X63171428Y-53337200D01*
X63171428Y-53337200D02*
X63266666Y-53241961D01*
X63266666Y-53241961D02*
X63314285Y-53146723D01*
X63314285Y-53146723D02*
X63361904Y-52956247D01*
X63361904Y-52956247D02*
X63361904Y-52813390D01*
X63361904Y-52813390D02*
X63314285Y-52622914D01*
X63314285Y-52622914D02*
X63266666Y-52527676D01*
X63266666Y-52527676D02*
X63171428Y-52432438D01*
X63171428Y-52432438D02*
X63028571Y-52384819D01*
X63028571Y-52384819D02*
X62933333Y-52384819D01*
X62933333Y-52384819D02*
X62790476Y-52432438D01*
X62790476Y-52432438D02*
X62742857Y-52480057D01*
X61790476Y-53384819D02*
X62361904Y-53384819D01*
X62076190Y-53384819D02*
X62076190Y-52384819D01*
X62076190Y-52384819D02*
X62171428Y-52527676D01*
X62171428Y-52527676D02*
X62266666Y-52622914D01*
X62266666Y-52622914D02*
X62361904Y-52670533D01*
X61219047Y-52813390D02*
X61314285Y-52765771D01*
X61314285Y-52765771D02*
X61361904Y-52718152D01*
X61361904Y-52718152D02*
X61409523Y-52622914D01*
X61409523Y-52622914D02*
X61409523Y-52575295D01*
X61409523Y-52575295D02*
X61361904Y-52480057D01*
X61361904Y-52480057D02*
X61314285Y-52432438D01*
X61314285Y-52432438D02*
X61219047Y-52384819D01*
X61219047Y-52384819D02*
X61028571Y-52384819D01*
X61028571Y-52384819D02*
X60933333Y-52432438D01*
X60933333Y-52432438D02*
X60885714Y-52480057D01*
X60885714Y-52480057D02*
X60838095Y-52575295D01*
X60838095Y-52575295D02*
X60838095Y-52622914D01*
X60838095Y-52622914D02*
X60885714Y-52718152D01*
X60885714Y-52718152D02*
X60933333Y-52765771D01*
X60933333Y-52765771D02*
X61028571Y-52813390D01*
X61028571Y-52813390D02*
X61219047Y-52813390D01*
X61219047Y-52813390D02*
X61314285Y-52861009D01*
X61314285Y-52861009D02*
X61361904Y-52908628D01*
X61361904Y-52908628D02*
X61409523Y-53003866D01*
X61409523Y-53003866D02*
X61409523Y-53194342D01*
X61409523Y-53194342D02*
X61361904Y-53289580D01*
X61361904Y-53289580D02*
X61314285Y-53337200D01*
X61314285Y-53337200D02*
X61219047Y-53384819D01*
X61219047Y-53384819D02*
X61028571Y-53384819D01*
X61028571Y-53384819D02*
X60933333Y-53337200D01*
X60933333Y-53337200D02*
X60885714Y-53289580D01*
X60885714Y-53289580D02*
X60838095Y-53194342D01*
X60838095Y-53194342D02*
X60838095Y-53003866D01*
X60838095Y-53003866D02*
X60885714Y-52908628D01*
X60885714Y-52908628D02*
X60933333Y-52861009D01*
X60933333Y-52861009D02*
X61028571Y-52813390D01*
X89159580Y-65457142D02*
X89207200Y-65409523D01*
X89207200Y-65409523D02*
X89254819Y-65266666D01*
X89254819Y-65266666D02*
X89254819Y-65171428D01*
X89254819Y-65171428D02*
X89207200Y-65028571D01*
X89207200Y-65028571D02*
X89111961Y-64933333D01*
X89111961Y-64933333D02*
X89016723Y-64885714D01*
X89016723Y-64885714D02*
X88826247Y-64838095D01*
X88826247Y-64838095D02*
X88683390Y-64838095D01*
X88683390Y-64838095D02*
X88492914Y-64885714D01*
X88492914Y-64885714D02*
X88397676Y-64933333D01*
X88397676Y-64933333D02*
X88302438Y-65028571D01*
X88302438Y-65028571D02*
X88254819Y-65171428D01*
X88254819Y-65171428D02*
X88254819Y-65266666D01*
X88254819Y-65266666D02*
X88302438Y-65409523D01*
X88302438Y-65409523D02*
X88350057Y-65457142D01*
X88350057Y-65838095D02*
X88302438Y-65885714D01*
X88302438Y-65885714D02*
X88254819Y-65980952D01*
X88254819Y-65980952D02*
X88254819Y-66219047D01*
X88254819Y-66219047D02*
X88302438Y-66314285D01*
X88302438Y-66314285D02*
X88350057Y-66361904D01*
X88350057Y-66361904D02*
X88445295Y-66409523D01*
X88445295Y-66409523D02*
X88540533Y-66409523D01*
X88540533Y-66409523D02*
X88683390Y-66361904D01*
X88683390Y-66361904D02*
X89254819Y-65790476D01*
X89254819Y-65790476D02*
X89254819Y-66409523D01*
X88350057Y-66790476D02*
X88302438Y-66838095D01*
X88302438Y-66838095D02*
X88254819Y-66933333D01*
X88254819Y-66933333D02*
X88254819Y-67171428D01*
X88254819Y-67171428D02*
X88302438Y-67266666D01*
X88302438Y-67266666D02*
X88350057Y-67314285D01*
X88350057Y-67314285D02*
X88445295Y-67361904D01*
X88445295Y-67361904D02*
X88540533Y-67361904D01*
X88540533Y-67361904D02*
X88683390Y-67314285D01*
X88683390Y-67314285D02*
X89254819Y-66742857D01*
X89254819Y-66742857D02*
X89254819Y-67361904D01*
X62442857Y-70254819D02*
X62776190Y-69778628D01*
X63014285Y-70254819D02*
X63014285Y-69254819D01*
X63014285Y-69254819D02*
X62633333Y-69254819D01*
X62633333Y-69254819D02*
X62538095Y-69302438D01*
X62538095Y-69302438D02*
X62490476Y-69350057D01*
X62490476Y-69350057D02*
X62442857Y-69445295D01*
X62442857Y-69445295D02*
X62442857Y-69588152D01*
X62442857Y-69588152D02*
X62490476Y-69683390D01*
X62490476Y-69683390D02*
X62538095Y-69731009D01*
X62538095Y-69731009D02*
X62633333Y-69778628D01*
X62633333Y-69778628D02*
X63014285Y-69778628D01*
X62061904Y-69350057D02*
X62014285Y-69302438D01*
X62014285Y-69302438D02*
X61919047Y-69254819D01*
X61919047Y-69254819D02*
X61680952Y-69254819D01*
X61680952Y-69254819D02*
X61585714Y-69302438D01*
X61585714Y-69302438D02*
X61538095Y-69350057D01*
X61538095Y-69350057D02*
X61490476Y-69445295D01*
X61490476Y-69445295D02*
X61490476Y-69540533D01*
X61490476Y-69540533D02*
X61538095Y-69683390D01*
X61538095Y-69683390D02*
X62109523Y-70254819D01*
X62109523Y-70254819D02*
X61490476Y-70254819D01*
X61157142Y-69254819D02*
X60538095Y-69254819D01*
X60538095Y-69254819D02*
X60871428Y-69635771D01*
X60871428Y-69635771D02*
X60728571Y-69635771D01*
X60728571Y-69635771D02*
X60633333Y-69683390D01*
X60633333Y-69683390D02*
X60585714Y-69731009D01*
X60585714Y-69731009D02*
X60538095Y-69826247D01*
X60538095Y-69826247D02*
X60538095Y-70064342D01*
X60538095Y-70064342D02*
X60585714Y-70159580D01*
X60585714Y-70159580D02*
X60633333Y-70207200D01*
X60633333Y-70207200D02*
X60728571Y-70254819D01*
X60728571Y-70254819D02*
X61014285Y-70254819D01*
X61014285Y-70254819D02*
X61109523Y-70207200D01*
X61109523Y-70207200D02*
X61157142Y-70159580D01*
X67638094Y-58454819D02*
X67638094Y-57454819D01*
X67638094Y-57454819D02*
X67399999Y-57454819D01*
X67399999Y-57454819D02*
X67257142Y-57502438D01*
X67257142Y-57502438D02*
X67161904Y-57597676D01*
X67161904Y-57597676D02*
X67114285Y-57692914D01*
X67114285Y-57692914D02*
X67066666Y-57883390D01*
X67066666Y-57883390D02*
X67066666Y-58026247D01*
X67066666Y-58026247D02*
X67114285Y-58216723D01*
X67114285Y-58216723D02*
X67161904Y-58311961D01*
X67161904Y-58311961D02*
X67257142Y-58407200D01*
X67257142Y-58407200D02*
X67399999Y-58454819D01*
X67399999Y-58454819D02*
X67638094Y-58454819D01*
X66161904Y-57454819D02*
X66638094Y-57454819D01*
X66638094Y-57454819D02*
X66685713Y-57931009D01*
X66685713Y-57931009D02*
X66638094Y-57883390D01*
X66638094Y-57883390D02*
X66542856Y-57835771D01*
X66542856Y-57835771D02*
X66304761Y-57835771D01*
X66304761Y-57835771D02*
X66209523Y-57883390D01*
X66209523Y-57883390D02*
X66161904Y-57931009D01*
X66161904Y-57931009D02*
X66114285Y-58026247D01*
X66114285Y-58026247D02*
X66114285Y-58264342D01*
X66114285Y-58264342D02*
X66161904Y-58359580D01*
X66161904Y-58359580D02*
X66209523Y-58407200D01*
X66209523Y-58407200D02*
X66304761Y-58454819D01*
X66304761Y-58454819D02*
X66542856Y-58454819D01*
X66542856Y-58454819D02*
X66638094Y-58407200D01*
X66638094Y-58407200D02*
X66685713Y-58359580D01*
X86089580Y-67533333D02*
X86137200Y-67485714D01*
X86137200Y-67485714D02*
X86184819Y-67342857D01*
X86184819Y-67342857D02*
X86184819Y-67247619D01*
X86184819Y-67247619D02*
X86137200Y-67104762D01*
X86137200Y-67104762D02*
X86041961Y-67009524D01*
X86041961Y-67009524D02*
X85946723Y-66961905D01*
X85946723Y-66961905D02*
X85756247Y-66914286D01*
X85756247Y-66914286D02*
X85613390Y-66914286D01*
X85613390Y-66914286D02*
X85422914Y-66961905D01*
X85422914Y-66961905D02*
X85327676Y-67009524D01*
X85327676Y-67009524D02*
X85232438Y-67104762D01*
X85232438Y-67104762D02*
X85184819Y-67247619D01*
X85184819Y-67247619D02*
X85184819Y-67342857D01*
X85184819Y-67342857D02*
X85232438Y-67485714D01*
X85232438Y-67485714D02*
X85280057Y-67533333D01*
X85613390Y-68104762D02*
X85565771Y-68009524D01*
X85565771Y-68009524D02*
X85518152Y-67961905D01*
X85518152Y-67961905D02*
X85422914Y-67914286D01*
X85422914Y-67914286D02*
X85375295Y-67914286D01*
X85375295Y-67914286D02*
X85280057Y-67961905D01*
X85280057Y-67961905D02*
X85232438Y-68009524D01*
X85232438Y-68009524D02*
X85184819Y-68104762D01*
X85184819Y-68104762D02*
X85184819Y-68295238D01*
X85184819Y-68295238D02*
X85232438Y-68390476D01*
X85232438Y-68390476D02*
X85280057Y-68438095D01*
X85280057Y-68438095D02*
X85375295Y-68485714D01*
X85375295Y-68485714D02*
X85422914Y-68485714D01*
X85422914Y-68485714D02*
X85518152Y-68438095D01*
X85518152Y-68438095D02*
X85565771Y-68390476D01*
X85565771Y-68390476D02*
X85613390Y-68295238D01*
X85613390Y-68295238D02*
X85613390Y-68104762D01*
X85613390Y-68104762D02*
X85661009Y-68009524D01*
X85661009Y-68009524D02*
X85708628Y-67961905D01*
X85708628Y-67961905D02*
X85803866Y-67914286D01*
X85803866Y-67914286D02*
X85994342Y-67914286D01*
X85994342Y-67914286D02*
X86089580Y-67961905D01*
X86089580Y-67961905D02*
X86137200Y-68009524D01*
X86137200Y-68009524D02*
X86184819Y-68104762D01*
X86184819Y-68104762D02*
X86184819Y-68295238D01*
X86184819Y-68295238D02*
X86137200Y-68390476D01*
X86137200Y-68390476D02*
X86089580Y-68438095D01*
X86089580Y-68438095D02*
X85994342Y-68485714D01*
X85994342Y-68485714D02*
X85803866Y-68485714D01*
X85803866Y-68485714D02*
X85708628Y-68438095D01*
X85708628Y-68438095D02*
X85661009Y-68390476D01*
X85661009Y-68390476D02*
X85613390Y-68295238D01*
X86089580Y-62333333D02*
X86137200Y-62285714D01*
X86137200Y-62285714D02*
X86184819Y-62142857D01*
X86184819Y-62142857D02*
X86184819Y-62047619D01*
X86184819Y-62047619D02*
X86137200Y-61904762D01*
X86137200Y-61904762D02*
X86041961Y-61809524D01*
X86041961Y-61809524D02*
X85946723Y-61761905D01*
X85946723Y-61761905D02*
X85756247Y-61714286D01*
X85756247Y-61714286D02*
X85613390Y-61714286D01*
X85613390Y-61714286D02*
X85422914Y-61761905D01*
X85422914Y-61761905D02*
X85327676Y-61809524D01*
X85327676Y-61809524D02*
X85232438Y-61904762D01*
X85232438Y-61904762D02*
X85184819Y-62047619D01*
X85184819Y-62047619D02*
X85184819Y-62142857D01*
X85184819Y-62142857D02*
X85232438Y-62285714D01*
X85232438Y-62285714D02*
X85280057Y-62333333D01*
X86184819Y-62809524D02*
X86184819Y-63000000D01*
X86184819Y-63000000D02*
X86137200Y-63095238D01*
X86137200Y-63095238D02*
X86089580Y-63142857D01*
X86089580Y-63142857D02*
X85946723Y-63238095D01*
X85946723Y-63238095D02*
X85756247Y-63285714D01*
X85756247Y-63285714D02*
X85375295Y-63285714D01*
X85375295Y-63285714D02*
X85280057Y-63238095D01*
X85280057Y-63238095D02*
X85232438Y-63190476D01*
X85232438Y-63190476D02*
X85184819Y-63095238D01*
X85184819Y-63095238D02*
X85184819Y-62904762D01*
X85184819Y-62904762D02*
X85232438Y-62809524D01*
X85232438Y-62809524D02*
X85280057Y-62761905D01*
X85280057Y-62761905D02*
X85375295Y-62714286D01*
X85375295Y-62714286D02*
X85613390Y-62714286D01*
X85613390Y-62714286D02*
X85708628Y-62761905D01*
X85708628Y-62761905D02*
X85756247Y-62809524D01*
X85756247Y-62809524D02*
X85803866Y-62904762D01*
X85803866Y-62904762D02*
X85803866Y-63095238D01*
X85803866Y-63095238D02*
X85756247Y-63190476D01*
X85756247Y-63190476D02*
X85708628Y-63238095D01*
X85708628Y-63238095D02*
X85613390Y-63285714D01*
X82866666Y-69059580D02*
X82914285Y-69107200D01*
X82914285Y-69107200D02*
X83057142Y-69154819D01*
X83057142Y-69154819D02*
X83152380Y-69154819D01*
X83152380Y-69154819D02*
X83295237Y-69107200D01*
X83295237Y-69107200D02*
X83390475Y-69011961D01*
X83390475Y-69011961D02*
X83438094Y-68916723D01*
X83438094Y-68916723D02*
X83485713Y-68726247D01*
X83485713Y-68726247D02*
X83485713Y-68583390D01*
X83485713Y-68583390D02*
X83438094Y-68392914D01*
X83438094Y-68392914D02*
X83390475Y-68297676D01*
X83390475Y-68297676D02*
X83295237Y-68202438D01*
X83295237Y-68202438D02*
X83152380Y-68154819D01*
X83152380Y-68154819D02*
X83057142Y-68154819D01*
X83057142Y-68154819D02*
X82914285Y-68202438D01*
X82914285Y-68202438D02*
X82866666Y-68250057D01*
X81961904Y-68154819D02*
X82438094Y-68154819D01*
X82438094Y-68154819D02*
X82485713Y-68631009D01*
X82485713Y-68631009D02*
X82438094Y-68583390D01*
X82438094Y-68583390D02*
X82342856Y-68535771D01*
X82342856Y-68535771D02*
X82104761Y-68535771D01*
X82104761Y-68535771D02*
X82009523Y-68583390D01*
X82009523Y-68583390D02*
X81961904Y-68631009D01*
X81961904Y-68631009D02*
X81914285Y-68726247D01*
X81914285Y-68726247D02*
X81914285Y-68964342D01*
X81914285Y-68964342D02*
X81961904Y-69059580D01*
X81961904Y-69059580D02*
X82009523Y-69107200D01*
X82009523Y-69107200D02*
X82104761Y-69154819D01*
X82104761Y-69154819D02*
X82342856Y-69154819D01*
X82342856Y-69154819D02*
X82438094Y-69107200D01*
X82438094Y-69107200D02*
X82485713Y-69059580D01*
X55342857Y-51954819D02*
X55676190Y-51478628D01*
X55914285Y-51954819D02*
X55914285Y-50954819D01*
X55914285Y-50954819D02*
X55533333Y-50954819D01*
X55533333Y-50954819D02*
X55438095Y-51002438D01*
X55438095Y-51002438D02*
X55390476Y-51050057D01*
X55390476Y-51050057D02*
X55342857Y-51145295D01*
X55342857Y-51145295D02*
X55342857Y-51288152D01*
X55342857Y-51288152D02*
X55390476Y-51383390D01*
X55390476Y-51383390D02*
X55438095Y-51431009D01*
X55438095Y-51431009D02*
X55533333Y-51478628D01*
X55533333Y-51478628D02*
X55914285Y-51478628D01*
X54961904Y-51050057D02*
X54914285Y-51002438D01*
X54914285Y-51002438D02*
X54819047Y-50954819D01*
X54819047Y-50954819D02*
X54580952Y-50954819D01*
X54580952Y-50954819D02*
X54485714Y-51002438D01*
X54485714Y-51002438D02*
X54438095Y-51050057D01*
X54438095Y-51050057D02*
X54390476Y-51145295D01*
X54390476Y-51145295D02*
X54390476Y-51240533D01*
X54390476Y-51240533D02*
X54438095Y-51383390D01*
X54438095Y-51383390D02*
X55009523Y-51954819D01*
X55009523Y-51954819D02*
X54390476Y-51954819D01*
X53533333Y-51288152D02*
X53533333Y-51954819D01*
X53771428Y-50907200D02*
X54009523Y-51621485D01*
X54009523Y-51621485D02*
X53390476Y-51621485D01*
X82866666Y-62259580D02*
X82914285Y-62307200D01*
X82914285Y-62307200D02*
X83057142Y-62354819D01*
X83057142Y-62354819D02*
X83152380Y-62354819D01*
X83152380Y-62354819D02*
X83295237Y-62307200D01*
X83295237Y-62307200D02*
X83390475Y-62211961D01*
X83390475Y-62211961D02*
X83438094Y-62116723D01*
X83438094Y-62116723D02*
X83485713Y-61926247D01*
X83485713Y-61926247D02*
X83485713Y-61783390D01*
X83485713Y-61783390D02*
X83438094Y-61592914D01*
X83438094Y-61592914D02*
X83390475Y-61497676D01*
X83390475Y-61497676D02*
X83295237Y-61402438D01*
X83295237Y-61402438D02*
X83152380Y-61354819D01*
X83152380Y-61354819D02*
X83057142Y-61354819D01*
X83057142Y-61354819D02*
X82914285Y-61402438D01*
X82914285Y-61402438D02*
X82866666Y-61450057D01*
X82533332Y-61354819D02*
X81866666Y-61354819D01*
X81866666Y-61354819D02*
X82295237Y-62354819D01*
X55442857Y-68729580D02*
X55490476Y-68777200D01*
X55490476Y-68777200D02*
X55633333Y-68824819D01*
X55633333Y-68824819D02*
X55728571Y-68824819D01*
X55728571Y-68824819D02*
X55871428Y-68777200D01*
X55871428Y-68777200D02*
X55966666Y-68681961D01*
X55966666Y-68681961D02*
X56014285Y-68586723D01*
X56014285Y-68586723D02*
X56061904Y-68396247D01*
X56061904Y-68396247D02*
X56061904Y-68253390D01*
X56061904Y-68253390D02*
X56014285Y-68062914D01*
X56014285Y-68062914D02*
X55966666Y-67967676D01*
X55966666Y-67967676D02*
X55871428Y-67872438D01*
X55871428Y-67872438D02*
X55728571Y-67824819D01*
X55728571Y-67824819D02*
X55633333Y-67824819D01*
X55633333Y-67824819D02*
X55490476Y-67872438D01*
X55490476Y-67872438D02*
X55442857Y-67920057D01*
X54490476Y-68824819D02*
X55061904Y-68824819D01*
X54776190Y-68824819D02*
X54776190Y-67824819D01*
X54776190Y-67824819D02*
X54871428Y-67967676D01*
X54871428Y-67967676D02*
X54966666Y-68062914D01*
X54966666Y-68062914D02*
X55061904Y-68110533D01*
X54157142Y-67824819D02*
X53490476Y-67824819D01*
X53490476Y-67824819D02*
X53919047Y-68824819D01*
X76854819Y-55138095D02*
X77664342Y-55138095D01*
X77664342Y-55138095D02*
X77759580Y-55185714D01*
X77759580Y-55185714D02*
X77807200Y-55233333D01*
X77807200Y-55233333D02*
X77854819Y-55328571D01*
X77854819Y-55328571D02*
X77854819Y-55519047D01*
X77854819Y-55519047D02*
X77807200Y-55614285D01*
X77807200Y-55614285D02*
X77759580Y-55661904D01*
X77759580Y-55661904D02*
X77664342Y-55709523D01*
X77664342Y-55709523D02*
X76854819Y-55709523D01*
X77854819Y-56233333D02*
X77854819Y-56423809D01*
X77854819Y-56423809D02*
X77807200Y-56519047D01*
X77807200Y-56519047D02*
X77759580Y-56566666D01*
X77759580Y-56566666D02*
X77616723Y-56661904D01*
X77616723Y-56661904D02*
X77426247Y-56709523D01*
X77426247Y-56709523D02*
X77045295Y-56709523D01*
X77045295Y-56709523D02*
X76950057Y-56661904D01*
X76950057Y-56661904D02*
X76902438Y-56614285D01*
X76902438Y-56614285D02*
X76854819Y-56519047D01*
X76854819Y-56519047D02*
X76854819Y-56328571D01*
X76854819Y-56328571D02*
X76902438Y-56233333D01*
X76902438Y-56233333D02*
X76950057Y-56185714D01*
X76950057Y-56185714D02*
X77045295Y-56138095D01*
X77045295Y-56138095D02*
X77283390Y-56138095D01*
X77283390Y-56138095D02*
X77378628Y-56185714D01*
X77378628Y-56185714D02*
X77426247Y-56233333D01*
X77426247Y-56233333D02*
X77473866Y-56328571D01*
X77473866Y-56328571D02*
X77473866Y-56519047D01*
X77473866Y-56519047D02*
X77426247Y-56614285D01*
X77426247Y-56614285D02*
X77378628Y-56661904D01*
X77378628Y-56661904D02*
X77283390Y-56709523D01*
X53742857Y-53559580D02*
X53790476Y-53607200D01*
X53790476Y-53607200D02*
X53933333Y-53654819D01*
X53933333Y-53654819D02*
X54028571Y-53654819D01*
X54028571Y-53654819D02*
X54171428Y-53607200D01*
X54171428Y-53607200D02*
X54266666Y-53511961D01*
X54266666Y-53511961D02*
X54314285Y-53416723D01*
X54314285Y-53416723D02*
X54361904Y-53226247D01*
X54361904Y-53226247D02*
X54361904Y-53083390D01*
X54361904Y-53083390D02*
X54314285Y-52892914D01*
X54314285Y-52892914D02*
X54266666Y-52797676D01*
X54266666Y-52797676D02*
X54171428Y-52702438D01*
X54171428Y-52702438D02*
X54028571Y-52654819D01*
X54028571Y-52654819D02*
X53933333Y-52654819D01*
X53933333Y-52654819D02*
X53790476Y-52702438D01*
X53790476Y-52702438D02*
X53742857Y-52750057D01*
X52790476Y-53654819D02*
X53361904Y-53654819D01*
X53076190Y-53654819D02*
X53076190Y-52654819D01*
X53076190Y-52654819D02*
X53171428Y-52797676D01*
X53171428Y-52797676D02*
X53266666Y-52892914D01*
X53266666Y-52892914D02*
X53361904Y-52940533D01*
X51933333Y-52654819D02*
X52123809Y-52654819D01*
X52123809Y-52654819D02*
X52219047Y-52702438D01*
X52219047Y-52702438D02*
X52266666Y-52750057D01*
X52266666Y-52750057D02*
X52361904Y-52892914D01*
X52361904Y-52892914D02*
X52409523Y-53083390D01*
X52409523Y-53083390D02*
X52409523Y-53464342D01*
X52409523Y-53464342D02*
X52361904Y-53559580D01*
X52361904Y-53559580D02*
X52314285Y-53607200D01*
X52314285Y-53607200D02*
X52219047Y-53654819D01*
X52219047Y-53654819D02*
X52028571Y-53654819D01*
X52028571Y-53654819D02*
X51933333Y-53607200D01*
X51933333Y-53607200D02*
X51885714Y-53559580D01*
X51885714Y-53559580D02*
X51838095Y-53464342D01*
X51838095Y-53464342D02*
X51838095Y-53226247D01*
X51838095Y-53226247D02*
X51885714Y-53131009D01*
X51885714Y-53131009D02*
X51933333Y-53083390D01*
X51933333Y-53083390D02*
X52028571Y-53035771D01*
X52028571Y-53035771D02*
X52219047Y-53035771D01*
X52219047Y-53035771D02*
X52314285Y-53083390D01*
X52314285Y-53083390D02*
X52361904Y-53131009D01*
X52361904Y-53131009D02*
X52409523Y-53226247D01*
X88842857Y-51154819D02*
X89176190Y-50678628D01*
X89414285Y-51154819D02*
X89414285Y-50154819D01*
X89414285Y-50154819D02*
X89033333Y-50154819D01*
X89033333Y-50154819D02*
X88938095Y-50202438D01*
X88938095Y-50202438D02*
X88890476Y-50250057D01*
X88890476Y-50250057D02*
X88842857Y-50345295D01*
X88842857Y-50345295D02*
X88842857Y-50488152D01*
X88842857Y-50488152D02*
X88890476Y-50583390D01*
X88890476Y-50583390D02*
X88938095Y-50631009D01*
X88938095Y-50631009D02*
X89033333Y-50678628D01*
X89033333Y-50678628D02*
X89414285Y-50678628D01*
X87890476Y-51154819D02*
X88461904Y-51154819D01*
X88176190Y-51154819D02*
X88176190Y-50154819D01*
X88176190Y-50154819D02*
X88271428Y-50297676D01*
X88271428Y-50297676D02*
X88366666Y-50392914D01*
X88366666Y-50392914D02*
X88461904Y-50440533D01*
X87414285Y-51154819D02*
X87223809Y-51154819D01*
X87223809Y-51154819D02*
X87128571Y-51107200D01*
X87128571Y-51107200D02*
X87080952Y-51059580D01*
X87080952Y-51059580D02*
X86985714Y-50916723D01*
X86985714Y-50916723D02*
X86938095Y-50726247D01*
X86938095Y-50726247D02*
X86938095Y-50345295D01*
X86938095Y-50345295D02*
X86985714Y-50250057D01*
X86985714Y-50250057D02*
X87033333Y-50202438D01*
X87033333Y-50202438D02*
X87128571Y-50154819D01*
X87128571Y-50154819D02*
X87319047Y-50154819D01*
X87319047Y-50154819D02*
X87414285Y-50202438D01*
X87414285Y-50202438D02*
X87461904Y-50250057D01*
X87461904Y-50250057D02*
X87509523Y-50345295D01*
X87509523Y-50345295D02*
X87509523Y-50583390D01*
X87509523Y-50583390D02*
X87461904Y-50678628D01*
X87461904Y-50678628D02*
X87414285Y-50726247D01*
X87414285Y-50726247D02*
X87319047Y-50773866D01*
X87319047Y-50773866D02*
X87128571Y-50773866D01*
X87128571Y-50773866D02*
X87033333Y-50726247D01*
X87033333Y-50726247D02*
X86985714Y-50678628D01*
X86985714Y-50678628D02*
X86938095Y-50583390D01*
X98311469Y-52297667D02*
X98311469Y-52365011D01*
X98311469Y-52365011D02*
X98378813Y-52499698D01*
X98378813Y-52499698D02*
X98446156Y-52567041D01*
X98446156Y-52567041D02*
X98580843Y-52634385D01*
X98580843Y-52634385D02*
X98715530Y-52634385D01*
X98715530Y-52634385D02*
X98816545Y-52600713D01*
X98816545Y-52600713D02*
X98984904Y-52499698D01*
X98984904Y-52499698D02*
X99085919Y-52398683D01*
X99085919Y-52398683D02*
X99186935Y-52230324D01*
X99186935Y-52230324D02*
X99220606Y-52129309D01*
X99220606Y-52129309D02*
X99220606Y-51994622D01*
X99220606Y-51994622D02*
X99153263Y-51859935D01*
X99153263Y-51859935D02*
X99085919Y-51792591D01*
X99085919Y-51792591D02*
X98951232Y-51725248D01*
X98951232Y-51725248D02*
X98883889Y-51725248D01*
X97570691Y-51691576D02*
X97974752Y-52095637D01*
X97772721Y-51893606D02*
X98479828Y-51186500D01*
X98479828Y-51186500D02*
X98446156Y-51354858D01*
X98446156Y-51354858D02*
X98446156Y-51489545D01*
X98446156Y-51489545D02*
X98479828Y-51590561D01*
X98042095Y-50748767D02*
X97604362Y-50311034D01*
X97604362Y-50311034D02*
X97570690Y-50816110D01*
X97570690Y-50816110D02*
X97469675Y-50715095D01*
X97469675Y-50715095D02*
X97368660Y-50681423D01*
X97368660Y-50681423D02*
X97301316Y-50681423D01*
X97301316Y-50681423D02*
X97200301Y-50715095D01*
X97200301Y-50715095D02*
X97031942Y-50883454D01*
X97031942Y-50883454D02*
X96998271Y-50984469D01*
X96998271Y-50984469D02*
X96998271Y-51051812D01*
X96998271Y-51051812D02*
X97031942Y-51152828D01*
X97031942Y-51152828D02*
X97233973Y-51354858D01*
X97233973Y-51354858D02*
X97334988Y-51388530D01*
X97334988Y-51388530D02*
X97402332Y-51388530D01*
X65359580Y-54457142D02*
X65407200Y-54409523D01*
X65407200Y-54409523D02*
X65454819Y-54266666D01*
X65454819Y-54266666D02*
X65454819Y-54171428D01*
X65454819Y-54171428D02*
X65407200Y-54028571D01*
X65407200Y-54028571D02*
X65311961Y-53933333D01*
X65311961Y-53933333D02*
X65216723Y-53885714D01*
X65216723Y-53885714D02*
X65026247Y-53838095D01*
X65026247Y-53838095D02*
X64883390Y-53838095D01*
X64883390Y-53838095D02*
X64692914Y-53885714D01*
X64692914Y-53885714D02*
X64597676Y-53933333D01*
X64597676Y-53933333D02*
X64502438Y-54028571D01*
X64502438Y-54028571D02*
X64454819Y-54171428D01*
X64454819Y-54171428D02*
X64454819Y-54266666D01*
X64454819Y-54266666D02*
X64502438Y-54409523D01*
X64502438Y-54409523D02*
X64550057Y-54457142D01*
X64550057Y-54838095D02*
X64502438Y-54885714D01*
X64502438Y-54885714D02*
X64454819Y-54980952D01*
X64454819Y-54980952D02*
X64454819Y-55219047D01*
X64454819Y-55219047D02*
X64502438Y-55314285D01*
X64502438Y-55314285D02*
X64550057Y-55361904D01*
X64550057Y-55361904D02*
X64645295Y-55409523D01*
X64645295Y-55409523D02*
X64740533Y-55409523D01*
X64740533Y-55409523D02*
X64883390Y-55361904D01*
X64883390Y-55361904D02*
X65454819Y-54790476D01*
X65454819Y-54790476D02*
X65454819Y-55409523D01*
X64454819Y-56028571D02*
X64454819Y-56123809D01*
X64454819Y-56123809D02*
X64502438Y-56219047D01*
X64502438Y-56219047D02*
X64550057Y-56266666D01*
X64550057Y-56266666D02*
X64645295Y-56314285D01*
X64645295Y-56314285D02*
X64835771Y-56361904D01*
X64835771Y-56361904D02*
X65073866Y-56361904D01*
X65073866Y-56361904D02*
X65264342Y-56314285D01*
X65264342Y-56314285D02*
X65359580Y-56266666D01*
X65359580Y-56266666D02*
X65407200Y-56219047D01*
X65407200Y-56219047D02*
X65454819Y-56123809D01*
X65454819Y-56123809D02*
X65454819Y-56028571D01*
X65454819Y-56028571D02*
X65407200Y-55933333D01*
X65407200Y-55933333D02*
X65359580Y-55885714D01*
X65359580Y-55885714D02*
X65264342Y-55838095D01*
X65264342Y-55838095D02*
X65073866Y-55790476D01*
X65073866Y-55790476D02*
X64835771Y-55790476D01*
X64835771Y-55790476D02*
X64645295Y-55838095D01*
X64645295Y-55838095D02*
X64550057Y-55885714D01*
X64550057Y-55885714D02*
X64502438Y-55933333D01*
X64502438Y-55933333D02*
X64454819Y-56028571D01*
X76654819Y-51033333D02*
X76178628Y-50700000D01*
X76654819Y-50461905D02*
X75654819Y-50461905D01*
X75654819Y-50461905D02*
X75654819Y-50842857D01*
X75654819Y-50842857D02*
X75702438Y-50938095D01*
X75702438Y-50938095D02*
X75750057Y-50985714D01*
X75750057Y-50985714D02*
X75845295Y-51033333D01*
X75845295Y-51033333D02*
X75988152Y-51033333D01*
X75988152Y-51033333D02*
X76083390Y-50985714D01*
X76083390Y-50985714D02*
X76131009Y-50938095D01*
X76131009Y-50938095D02*
X76178628Y-50842857D01*
X76178628Y-50842857D02*
X76178628Y-50461905D01*
X75750057Y-51414286D02*
X75702438Y-51461905D01*
X75702438Y-51461905D02*
X75654819Y-51557143D01*
X75654819Y-51557143D02*
X75654819Y-51795238D01*
X75654819Y-51795238D02*
X75702438Y-51890476D01*
X75702438Y-51890476D02*
X75750057Y-51938095D01*
X75750057Y-51938095D02*
X75845295Y-51985714D01*
X75845295Y-51985714D02*
X75940533Y-51985714D01*
X75940533Y-51985714D02*
X76083390Y-51938095D01*
X76083390Y-51938095D02*
X76654819Y-51366667D01*
X76654819Y-51366667D02*
X76654819Y-51985714D01*
D11*
%TO.C,J6*%
X100963000Y-52335000D02*
G75*
G02*
X100201000Y-52335000I-381000J0D01*
G01*
X100201000Y-52335000D02*
G75*
G02*
X100963000Y-52335000I381000J0D01*
G01*
D12*
%TO.C,R1*%
X75677500Y-57445276D02*
X75677500Y-57954724D01*
X76722500Y-57445276D02*
X76722500Y-57954724D01*
%TO.C,D1*%
X70090000Y-76500000D02*
X68130000Y-76500000D01*
X70090000Y-77700000D02*
X68130000Y-77700000D01*
X70090000Y-77700000D02*
X70090000Y-76500000D01*
%TO.C,C10*%
X86590000Y-63053733D02*
X86590000Y-63346267D01*
X87610000Y-63053733D02*
X87610000Y-63346267D01*
%TO.C,U8*%
X67400000Y-55900000D02*
X67400000Y-54300000D01*
X70600000Y-55900000D02*
X70600000Y-54300000D01*
X67550000Y-53850000D02*
X67220000Y-54090000D01*
X67220000Y-53610000D01*
X67550000Y-53850000D01*
G36*
X67550000Y-53850000D02*
G01*
X67220000Y-54090000D01*
X67220000Y-53610000D01*
X67550000Y-53850000D01*
G37*
%TO.C,C6*%
X80246267Y-64790000D02*
X79953733Y-64790000D01*
X80246267Y-65810000D02*
X79953733Y-65810000D01*
%TO.C,C21*%
X94453733Y-63890000D02*
X94746267Y-63890000D01*
X94453733Y-64910000D02*
X94746267Y-64910000D01*
%TO.C,C19*%
X71190000Y-54953733D02*
X71190000Y-55246267D01*
X72210000Y-54953733D02*
X72210000Y-55246267D01*
%TO.C,C3*%
X75746267Y-64390000D02*
X75453733Y-64390000D01*
X75746267Y-65410000D02*
X75453733Y-65410000D01*
%TO.C,C15*%
X61246267Y-67390000D02*
X60953733Y-67390000D01*
X61246267Y-68410000D02*
X60953733Y-68410000D01*
%TO.C,R12*%
X91677500Y-69654724D02*
X91677500Y-69145276D01*
X92722500Y-69654724D02*
X92722500Y-69145276D01*
%TO.C,R16*%
X96777500Y-68245276D02*
X96777500Y-68754724D01*
X97822500Y-68245276D02*
X97822500Y-68754724D01*
%TO.C,C18*%
X62246267Y-50990000D02*
X61953733Y-50990000D01*
X62246267Y-52010000D02*
X61953733Y-52010000D01*
%TO.C,C22*%
X88290000Y-63053733D02*
X88290000Y-63346267D01*
X89310000Y-63053733D02*
X89310000Y-63346267D01*
%TO.C,R18*%
X93377500Y-68245276D02*
X93377500Y-68754724D01*
X94422500Y-68245276D02*
X94422500Y-68754724D01*
%TO.C,R23*%
X59054724Y-69277500D02*
X58545276Y-69277500D01*
X59054724Y-70322500D02*
X58545276Y-70322500D01*
%TO.C,R17*%
X95077500Y-68245276D02*
X95077500Y-68754724D01*
X96122500Y-68245276D02*
X96122500Y-68754724D01*
%TO.C,D5*%
X70260000Y-57400000D02*
X68300000Y-57400000D01*
X70260000Y-58600000D02*
X68300000Y-58600000D01*
X70260000Y-58600000D02*
X70260000Y-57400000D01*
%TO.C,C2*%
X75746267Y-67790000D02*
X75453733Y-67790000D01*
X75746267Y-68810000D02*
X75453733Y-68810000D01*
%TO.C,C8*%
X83790000Y-67553733D02*
X83790000Y-67846267D01*
X84810000Y-67553733D02*
X84810000Y-67846267D01*
%TO.C,D4*%
X74550000Y-62350000D02*
X77210000Y-62350000D01*
X74550000Y-64050000D02*
X77210000Y-64050000D01*
X77210000Y-64050000D02*
X77210000Y-62350000D01*
%TO.C,C9*%
X83790000Y-62353733D02*
X83790000Y-62646267D01*
X84810000Y-62353733D02*
X84810000Y-62646267D01*
%TO.C,C5*%
X80246267Y-68190000D02*
X79953733Y-68190000D01*
X80246267Y-69210000D02*
X79953733Y-69210000D01*
%TO.C,R24*%
X57845276Y-50977500D02*
X58354724Y-50977500D01*
X57845276Y-52022500D02*
X58354724Y-52022500D01*
%TO.C,R11*%
X79845276Y-63077500D02*
X80354724Y-63077500D01*
X79845276Y-64122500D02*
X80354724Y-64122500D01*
%TO.C,D3*%
X74550000Y-65750000D02*
X77210000Y-65750000D01*
X74550000Y-67450000D02*
X77210000Y-67450000D01*
X77210000Y-67450000D02*
X77210000Y-65750000D01*
%TO.C,D2*%
X74550000Y-69150000D02*
X77210000Y-69150000D01*
X74550000Y-70850000D02*
X77210000Y-70850000D01*
X77210000Y-70850000D02*
X77210000Y-69150000D01*
%TO.C,C7*%
X80246267Y-61390000D02*
X79953733Y-61390000D01*
X80246267Y-62410000D02*
X79953733Y-62410000D01*
%TO.C,C4*%
X75746267Y-60990000D02*
X75453733Y-60990000D01*
X75746267Y-62010000D02*
X75453733Y-62010000D01*
%TO.C,C17*%
X54653733Y-69290000D02*
X54946267Y-69290000D01*
X54653733Y-70310000D02*
X54946267Y-70310000D01*
%TO.C,U9*%
X77940000Y-53950000D02*
X77940000Y-55900000D01*
X77940000Y-57850000D02*
X77940000Y-55900000D01*
X83060000Y-53950000D02*
X83060000Y-55900000D01*
X83060000Y-57850000D02*
X83060000Y-55900000D01*
X78035000Y-53200000D02*
X77705000Y-53440000D01*
X77705000Y-52960000D01*
X78035000Y-53200000D01*
G36*
X78035000Y-53200000D02*
G01*
X77705000Y-53440000D01*
X77705000Y-52960000D01*
X78035000Y-53200000D01*
G37*
%TO.C,C14*%
X83790000Y-56046267D02*
X83790000Y-55753733D01*
X84810000Y-56046267D02*
X84810000Y-55753733D01*
%TO.C,C16*%
X55953733Y-52690000D02*
X56246267Y-52690000D01*
X55953733Y-53710000D02*
X56246267Y-53710000D01*
%TO.C,R10*%
X79845276Y-66477500D02*
X80354724Y-66477500D01*
X79845276Y-67522500D02*
X80354724Y-67522500D01*
%TO.C,R19*%
X87945276Y-51477500D02*
X88454724Y-51477500D01*
X87945276Y-52522500D02*
X88454724Y-52522500D01*
%TO.C,R14*%
X89977500Y-65654724D02*
X89977500Y-65145276D01*
X91022500Y-65654724D02*
X91022500Y-65145276D01*
%TO.C,C13*%
X96635949Y-52857198D02*
X96842802Y-53064051D01*
X97357198Y-52135949D02*
X97564051Y-52342802D01*
%TO.C,C20*%
X65790000Y-54953733D02*
X65790000Y-55246267D01*
X66810000Y-54953733D02*
X66810000Y-55246267D01*
%TO.C,R9*%
X79845276Y-69877500D02*
X80354724Y-69877500D01*
X79845276Y-70922500D02*
X80354724Y-70922500D01*
%TO.C,R15*%
X98477500Y-68245276D02*
X98477500Y-68754724D01*
X99522500Y-68245276D02*
X99522500Y-68754724D01*
%TO.C,R2*%
X75677500Y-53954724D02*
X75677500Y-53445276D01*
X76722500Y-53954724D02*
X76722500Y-53445276D01*
%TO.C,U10*%
X88094689Y-57600000D02*
X88306821Y-57387868D01*
X88306821Y-57812132D02*
X88094689Y-57600000D01*
X92987868Y-62493179D02*
X93200000Y-62705311D01*
X93200000Y-52494689D02*
X92987868Y-52706821D01*
X93200000Y-62705311D02*
X93412132Y-62493179D01*
X93412132Y-52706821D02*
X93200000Y-52494689D01*
X98093179Y-57387868D02*
X98305311Y-57600000D01*
X98305311Y-57600000D02*
X98093179Y-57812132D01*
X93838164Y-52280789D02*
X93265407Y-52188865D01*
X93746240Y-51708033D01*
X93838164Y-52280789D01*
G36*
X93838164Y-52280789D02*
G01*
X93265407Y-52188865D01*
X93746240Y-51708033D01*
X93838164Y-52280789D01*
G37*
%TO.C,C11*%
X89990000Y-69253733D02*
X89990000Y-69546267D01*
X91010000Y-69253733D02*
X91010000Y-69546267D01*
%TO.C,R13*%
X88277500Y-69654724D02*
X88277500Y-69145276D01*
X89322500Y-69654724D02*
X89322500Y-69145276D01*
%TD*%
M02*
