%TF.GenerationSoftware,KiCad,Pcbnew,8.0.6-8.0.6-0~ubuntu22.04.1*%
%TF.CreationDate,2024-11-01T23:26:47+09:00*%
%TF.ProjectId,blmd_hardware,626c6d64-5f68-4617-9264-776172652e6b,rev?*%
%TF.SameCoordinates,Original*%
%TF.FileFunction,Copper,L1,Top*%
%TF.FilePolarity,Positive*%
%FSLAX46Y46*%
G04 Gerber Fmt 4.6, Leading zero omitted, Abs format (unit mm)*
G04 Created by KiCad (PCBNEW 8.0.6-8.0.6-0~ubuntu22.04.1) date 2024-11-01 23:26:47*
%MOMM*%
%LPD*%
G01*
G04 APERTURE LIST*
G04 Aperture macros list*
%AMRoundRect*
0 Rectangle with rounded corners*
0 $1 Rounding radius*
0 $2 $3 $4 $5 $6 $7 $8 $9 X,Y pos of 4 corners*
0 Add a 4 corners polygon primitive as box body*
4,1,4,$2,$3,$4,$5,$6,$7,$8,$9,$2,$3,0*
0 Add four circle primitives for the rounded corners*
1,1,$1+$1,$2,$3*
1,1,$1+$1,$4,$5*
1,1,$1+$1,$6,$7*
1,1,$1+$1,$8,$9*
0 Add four rect primitives between the rounded corners*
20,1,$1+$1,$2,$3,$4,$5,0*
20,1,$1+$1,$4,$5,$6,$7,0*
20,1,$1+$1,$6,$7,$8,$9,0*
20,1,$1+$1,$8,$9,$2,$3,0*%
%AMFreePoly0*
4,1,21,-0.300000,0.107500,-0.291817,0.148638,-0.268514,0.183514,-0.233638,0.206817,-0.192500,0.215000,0.192500,0.215000,0.233638,0.206817,0.268514,0.183514,0.291817,0.148638,0.300000,0.107500,0.300000,-0.107500,0.291817,-0.148638,0.268514,-0.183514,0.233638,-0.206817,0.192500,-0.215000,-0.192500,-0.215000,-0.233638,-0.206817,-0.268514,-0.183514,-0.291817,-0.148638,-0.300000,-0.107500,
-0.300000,0.107500,-0.300000,0.107500,$1*%
G04 Aperture macros list end*
%TA.AperFunction,SMDPad,CuDef*%
%ADD10RoundRect,0.150000X0.825000X0.150000X-0.825000X0.150000X-0.825000X-0.150000X0.825000X-0.150000X0*%
%TD*%
%TA.AperFunction,SMDPad,CuDef*%
%ADD11RoundRect,0.237500X0.250000X0.237500X-0.250000X0.237500X-0.250000X-0.237500X0.250000X-0.237500X0*%
%TD*%
%TA.AperFunction,SMDPad,CuDef*%
%ADD12FreePoly0,270.000000*%
%TD*%
%TA.AperFunction,SMDPad,CuDef*%
%ADD13RoundRect,0.107500X-0.107500X0.192500X-0.107500X-0.192500X0.107500X-0.192500X0.107500X0.192500X0*%
%TD*%
%TA.AperFunction,SMDPad,CuDef*%
%ADD14R,0.430000X0.450000*%
%TD*%
%TA.AperFunction,SMDPad,CuDef*%
%ADD15R,3.000000X2.000000*%
%TD*%
%TA.AperFunction,ComponentPad*%
%ADD16R,1.700000X1.700000*%
%TD*%
%TA.AperFunction,ComponentPad*%
%ADD17O,1.700000X1.700000*%
%TD*%
%TA.AperFunction,SMDPad,CuDef*%
%ADD18R,0.760000X1.600000*%
%TD*%
%TA.AperFunction,SMDPad,CuDef*%
%ADD19RoundRect,0.237500X0.237500X-0.250000X0.237500X0.250000X-0.237500X0.250000X-0.237500X-0.250000X0*%
%TD*%
%TA.AperFunction,SMDPad,CuDef*%
%ADD20R,1.100000X0.250000*%
%TD*%
%TA.AperFunction,SMDPad,CuDef*%
%ADD21R,0.500000X1.600000*%
%TD*%
%TA.AperFunction,SMDPad,CuDef*%
%ADD22R,0.900000X0.600000*%
%TD*%
%TA.AperFunction,SMDPad,CuDef*%
%ADD23R,1.800000X1.700000*%
%TD*%
%TA.AperFunction,SMDPad,CuDef*%
%ADD24RoundRect,0.237500X-0.237500X0.287500X-0.237500X-0.287500X0.237500X-0.287500X0.237500X0.287500X0*%
%TD*%
%TA.AperFunction,SMDPad,CuDef*%
%ADD25FreePoly0,90.000000*%
%TD*%
%TA.AperFunction,SMDPad,CuDef*%
%ADD26RoundRect,0.107500X0.107500X-0.192500X0.107500X0.192500X-0.107500X0.192500X-0.107500X-0.192500X0*%
%TD*%
%TA.AperFunction,ComponentPad*%
%ADD27R,2.000000X2.000000*%
%TD*%
%TA.AperFunction,ComponentPad*%
%ADD28C,2.000000*%
%TD*%
%TA.AperFunction,ComponentPad*%
%ADD29C,1.400000*%
%TD*%
%TA.AperFunction,ComponentPad*%
%ADD30R,3.000000X3.000000*%
%TD*%
%TA.AperFunction,ComponentPad*%
%ADD31C,3.000000*%
%TD*%
%TA.AperFunction,SMDPad,CuDef*%
%ADD32RoundRect,0.162500X-0.362500X-0.162500X0.362500X-0.162500X0.362500X0.162500X-0.362500X0.162500X0*%
%TD*%
%TA.AperFunction,SMDPad,CuDef*%
%ADD33RoundRect,0.237500X0.300000X0.237500X-0.300000X0.237500X-0.300000X-0.237500X0.300000X-0.237500X0*%
%TD*%
%TA.AperFunction,SMDPad,CuDef*%
%ADD34R,0.660400X2.768600*%
%TD*%
%TA.AperFunction,ViaPad*%
%ADD35C,0.600000*%
%TD*%
%TA.AperFunction,Conductor*%
%ADD36C,0.200000*%
%TD*%
G04 APERTURE END LIST*
D10*
%TO.P,U5,1,VDD1*%
%TO.N,+3V3*%
X91075000Y-64905000D03*
%TO.P,U5,2,VIA*%
%TO.N,SIGC*%
X91075000Y-63635000D03*
%TO.P,U5,3,VIB*%
%TO.N,GNDD*%
X91075000Y-62365000D03*
%TO.P,U5,4,GND1*%
X91075000Y-61095000D03*
%TO.P,U5,5,GND2*%
%TO.N,GND*%
X86125000Y-61095000D03*
%TO.P,U5,6,VOB*%
%TO.N,unconnected-(U5-VOB-Pad6)*%
X86125000Y-62365000D03*
%TO.P,U5,7,VOA*%
%TO.N,PWMC*%
X86125000Y-63635000D03*
%TO.P,U5,8,VDD2*%
%TO.N,+5V*%
X86125000Y-64905000D03*
%TD*%
D11*
%TO.P,R6,1*%
%TO.N,LOA*%
X76412500Y-68200000D03*
%TO.P,R6,2*%
%TO.N,Net-(Q4-G)*%
X74587500Y-68200000D03*
%TD*%
D12*
%TO.P,Q1,1,S*%
%TO.N,HSA*%
X72085000Y-66900000D03*
D13*
%TO.P,Q1,2,S*%
X71435000Y-66900000D03*
%TO.P,Q1,3,S*%
X70785000Y-66900000D03*
%TO.P,Q1,4,G*%
%TO.N,Net-(Q1-G)*%
X70135000Y-66900000D03*
D14*
%TO.P,Q1,5,D*%
%TO.N,+12VA*%
X70135000Y-70075000D03*
%TO.P,Q1,6,D*%
X70785000Y-70075000D03*
%TO.P,Q1,7,D*%
X71435000Y-70074000D03*
%TO.P,Q1,8,D*%
X72085000Y-70075000D03*
D15*
X71110000Y-68849500D03*
%TD*%
D16*
%TO.P,J4,1,Pin_1*%
%TO.N,+12VA*%
X85340000Y-72400000D03*
D17*
%TO.P,J4,2,Pin_2*%
X85340000Y-74940000D03*
%TO.P,J4,3,Pin_3*%
X82800000Y-72400000D03*
%TO.P,J4,4,Pin_4*%
X82800000Y-74940000D03*
%TO.P,J4,5,Pin_5*%
X80260000Y-72400000D03*
%TO.P,J4,6,Pin_6*%
X80260000Y-74940000D03*
%TO.P,J4,7,Pin_7*%
X77720000Y-72400000D03*
%TO.P,J4,8,Pin_8*%
X77720000Y-74940000D03*
%TO.P,J4,9,Pin_9*%
X75180000Y-72400000D03*
%TO.P,J4,10,Pin_10*%
X75180000Y-74940000D03*
%TO.P,J4,11,Pin_11*%
X72640000Y-72400000D03*
%TO.P,J4,12,Pin_12*%
X72640000Y-74940000D03*
%TO.P,J4,13,Pin_13*%
X70100000Y-72400000D03*
%TO.P,J4,14,Pin_14*%
X70100000Y-74940000D03*
%TD*%
D18*
%TO.P,SW2,1*%
%TO.N,ID1*%
X98605000Y-62090000D03*
%TO.P,SW2,2*%
%TO.N,ID2*%
X97335000Y-62090000D03*
%TO.P,SW2,3*%
%TO.N,ID3*%
X96065000Y-62090000D03*
%TO.P,SW2,4*%
%TO.N,ID4*%
X94795000Y-62090000D03*
%TO.P,SW2,5*%
%TO.N,GNDD*%
X94795000Y-69710000D03*
%TO.P,SW2,6*%
X96065000Y-69710000D03*
%TO.P,SW2,7*%
X97335000Y-69710000D03*
%TO.P,SW2,8*%
X98605000Y-69710000D03*
%TD*%
D11*
%TO.P,R3,1*%
%TO.N,HOA*%
X76412500Y-69900000D03*
%TO.P,R3,2*%
%TO.N,Net-(Q1-G)*%
X74587500Y-69900000D03*
%TD*%
D12*
%TO.P,Q3,1,S*%
%TO.N,HSC*%
X67485000Y-54600000D03*
D13*
%TO.P,Q3,2,S*%
X66835000Y-54600000D03*
%TO.P,Q3,3,S*%
X66185000Y-54600000D03*
%TO.P,Q3,4,G*%
%TO.N,Net-(Q3-G)*%
X65535000Y-54600000D03*
D14*
%TO.P,Q3,5,D*%
%TO.N,+12VA*%
X65535000Y-57775000D03*
%TO.P,Q3,6,D*%
X66185000Y-57775000D03*
%TO.P,Q3,7,D*%
X66835000Y-57774000D03*
%TO.P,Q3,8,D*%
X67485000Y-57775000D03*
D15*
X66510000Y-56549500D03*
%TD*%
D19*
%TO.P,R21,1*%
%TO.N,ID_DISP*%
X81500000Y-57012500D03*
%TO.P,R21,2*%
%TO.N,Net-(D7-A)*%
X81500000Y-55187500D03*
%TD*%
D20*
%TO.P,U1,1,VDD*%
%TO.N,+12V*%
X78650000Y-68050000D03*
%TO.P,U1,2,HB*%
%TO.N,Net-(D2-K)*%
X78650000Y-68550000D03*
%TO.P,U1,3,HO*%
%TO.N,HOA*%
X78650000Y-69050000D03*
%TO.P,U1,4,HS*%
%TO.N,HSA*%
X78650000Y-69550000D03*
%TO.P,U1,5,NC*%
%TO.N,unconnected-(U1-NC-Pad5)*%
X78650000Y-70050000D03*
%TO.P,U1,6,RDT*%
%TO.N,Net-(U1-RDT)*%
X82950000Y-70050000D03*
%TO.P,U1,7,EN*%
%TO.N,+5V*%
X82950000Y-69550000D03*
%TO.P,U1,8,IN*%
%TO.N,PWMA*%
X82950000Y-69050000D03*
%TO.P,U1,9,VSS*%
%TO.N,GND*%
X82950000Y-68550000D03*
%TO.P,U1,10,LO*%
%TO.N,LOA*%
X82950000Y-68050000D03*
%TD*%
D11*
%TO.P,R7,1*%
%TO.N,LOB*%
X76412500Y-64800000D03*
%TO.P,R7,2*%
%TO.N,Net-(Q5-G)*%
X74587500Y-64800000D03*
%TD*%
D21*
%TO.P,U6,1,VCC*%
%TO.N,+3V3*%
X60300000Y-70150000D03*
%TO.P,U6,2,GND*%
%TO.N,GNDD*%
X61900000Y-70150000D03*
%TO.P,U6,3,VOUT*%
%TO.N,Net-(U6-VOUT)*%
X63500000Y-70150000D03*
D22*
%TO.P,U6,4,NC*%
%TO.N,GNDD*%
X64700000Y-67650000D03*
D23*
%TO.P,U6,5,IP+*%
%TO.N,HSA*%
X63400000Y-65300000D03*
%TO.P,U6,6,IP-*%
%TO.N,SOA*%
X60400000Y-65300000D03*
D22*
%TO.P,U6,7,NC*%
%TO.N,GNDD*%
X59100000Y-67650000D03*
%TD*%
D11*
%TO.P,R8,1*%
%TO.N,LOC*%
X76412500Y-61400000D03*
%TO.P,R8,2*%
%TO.N,Net-(Q6-G)*%
X74587500Y-61400000D03*
%TD*%
D24*
%TO.P,D7,1,K*%
%TO.N,GNDD*%
X81500000Y-51225000D03*
%TO.P,D7,2,A*%
%TO.N,Net-(D7-A)*%
X81500000Y-52975000D03*
%TD*%
D20*
%TO.P,U2,1,VDD*%
%TO.N,+12V*%
X78650000Y-64650000D03*
%TO.P,U2,2,HB*%
%TO.N,Net-(D3-K)*%
X78650000Y-65150000D03*
%TO.P,U2,3,HO*%
%TO.N,HOB*%
X78650000Y-65650000D03*
%TO.P,U2,4,HS*%
%TO.N,HSB*%
X78650000Y-66150000D03*
%TO.P,U2,5,NC*%
%TO.N,unconnected-(U2-NC-Pad5)*%
X78650000Y-66650000D03*
%TO.P,U2,6,RDT*%
%TO.N,Net-(U2-RDT)*%
X82950000Y-66650000D03*
%TO.P,U2,7,EN*%
%TO.N,+5V*%
X82950000Y-66150000D03*
%TO.P,U2,8,IN*%
%TO.N,PWMB*%
X82950000Y-65650000D03*
%TO.P,U2,9,VSS*%
%TO.N,GND*%
X82950000Y-65150000D03*
%TO.P,U2,10,LO*%
%TO.N,LOB*%
X82950000Y-64650000D03*
%TD*%
D25*
%TO.P,Q2,1,S*%
%TO.N,HSB*%
X65515000Y-62200000D03*
D26*
%TO.P,Q2,2,S*%
X66165000Y-62200000D03*
%TO.P,Q2,3,S*%
X66815000Y-62200000D03*
%TO.P,Q2,4,G*%
%TO.N,Net-(Q2-G)*%
X67465000Y-62200000D03*
D14*
%TO.P,Q2,5,D*%
%TO.N,+12VA*%
X67465000Y-59025000D03*
%TO.P,Q2,6,D*%
X66815000Y-59025000D03*
%TO.P,Q2,7,D*%
X66165000Y-59026000D03*
%TO.P,Q2,8,D*%
X65515000Y-59025000D03*
D15*
X66490000Y-60250500D03*
%TD*%
D11*
%TO.P,R4,1*%
%TO.N,HOB*%
X76412500Y-66500000D03*
%TO.P,R4,2*%
%TO.N,Net-(Q2-G)*%
X74587500Y-66500000D03*
%TD*%
D10*
%TO.P,U4,1,VDD1*%
%TO.N,+3V3*%
X91075000Y-70105000D03*
%TO.P,U4,2,VIA*%
%TO.N,SIGA*%
X91075000Y-68835000D03*
%TO.P,U4,3,VIB*%
%TO.N,SIGB*%
X91075000Y-67565000D03*
%TO.P,U4,4,GND1*%
%TO.N,GNDD*%
X91075000Y-66295000D03*
%TO.P,U4,5,GND2*%
%TO.N,GND*%
X86125000Y-66295000D03*
%TO.P,U4,6,VOB*%
%TO.N,PWMB*%
X86125000Y-67565000D03*
%TO.P,U4,7,VOA*%
%TO.N,PWMA*%
X86125000Y-68835000D03*
%TO.P,U4,8,VDD2*%
%TO.N,+5V*%
X86125000Y-70105000D03*
%TD*%
D12*
%TO.P,Q5,1,S*%
%TO.N,GNDPWR*%
X63685000Y-59800000D03*
D13*
%TO.P,Q5,2,S*%
X63035000Y-59800000D03*
%TO.P,Q5,3,S*%
X62385000Y-59800000D03*
%TO.P,Q5,4,G*%
%TO.N,Net-(Q5-G)*%
X61735000Y-59800000D03*
D14*
%TO.P,Q5,5,D*%
%TO.N,HSB*%
X61735000Y-62975000D03*
%TO.P,Q5,6,D*%
X62385000Y-62975000D03*
%TO.P,Q5,7,D*%
X63035000Y-62974000D03*
%TO.P,Q5,8,D*%
X63685000Y-62975000D03*
D15*
X62710000Y-61749500D03*
%TD*%
D16*
%TO.P,J3,1,Pin_1*%
%TO.N,GNDPWR*%
X67560000Y-72400000D03*
D17*
%TO.P,J3,2,Pin_2*%
X67560000Y-74940000D03*
%TO.P,J3,3,Pin_3*%
X65020000Y-72400000D03*
%TO.P,J3,4,Pin_4*%
X65020000Y-74940000D03*
%TO.P,J3,5,Pin_5*%
X62480000Y-72400000D03*
%TO.P,J3,6,Pin_6*%
X62480000Y-74940000D03*
%TO.P,J3,7,Pin_7*%
X59940000Y-72400000D03*
%TO.P,J3,8,Pin_8*%
X59940000Y-74940000D03*
%TO.P,J3,9,Pin_9*%
X57400000Y-72400000D03*
%TO.P,J3,10,Pin_10*%
X57400000Y-74940000D03*
%TO.P,J3,11,Pin_11*%
X54860000Y-72400000D03*
%TO.P,J3,12,Pin_12*%
X54860000Y-74940000D03*
%TO.P,J3,13,Pin_13*%
X52320000Y-72400000D03*
%TO.P,J3,14,Pin_14*%
X52320000Y-74940000D03*
%TD*%
D25*
%TO.P,Q4,1,S*%
%TO.N,GNDPWR*%
X66315000Y-68300000D03*
D26*
%TO.P,Q4,2,S*%
X66965000Y-68300000D03*
%TO.P,Q4,3,S*%
X67615000Y-68300000D03*
%TO.P,Q4,4,G*%
%TO.N,Net-(Q4-G)*%
X68265000Y-68300000D03*
D14*
%TO.P,Q4,5,D*%
%TO.N,HSA*%
X68265000Y-65125000D03*
%TO.P,Q4,6,D*%
X67615000Y-65125000D03*
%TO.P,Q4,7,D*%
X66965000Y-65126000D03*
%TO.P,Q4,8,D*%
X66315000Y-65125000D03*
D15*
X67290000Y-66350500D03*
%TD*%
D19*
%TO.P,R22,1*%
%TO.N,STATUS*%
X83200000Y-57012500D03*
%TO.P,R22,2*%
%TO.N,Net-(D8-A)*%
X83200000Y-55187500D03*
%TD*%
D27*
%TO.P,C1,1*%
%TO.N,+12VA*%
X73863200Y-57866677D03*
D28*
%TO.P,C1,2*%
%TO.N,GNDPWR*%
X73863200Y-52866677D03*
%TD*%
D19*
%TO.P,R20,1*%
%TO.N,+5V*%
X79800000Y-57012500D03*
%TO.P,R20,2*%
%TO.N,Net-(D6-A)*%
X79800000Y-55187500D03*
%TD*%
D24*
%TO.P,D8,1,K*%
%TO.N,GNDD*%
X83200000Y-51225000D03*
%TO.P,D8,2,A*%
%TO.N,Net-(D8-A)*%
X83200000Y-52975000D03*
%TD*%
D25*
%TO.P,Q6,1,S*%
%TO.N,GNDPWR*%
X61715000Y-56600000D03*
D26*
%TO.P,Q6,2,S*%
X62365000Y-56600000D03*
%TO.P,Q6,3,S*%
X63015000Y-56600000D03*
%TO.P,Q6,4,G*%
%TO.N,Net-(Q6-G)*%
X63665000Y-56600000D03*
D14*
%TO.P,Q6,5,D*%
%TO.N,HSC*%
X63665000Y-53425000D03*
%TO.P,Q6,6,D*%
X63015000Y-53425000D03*
%TO.P,Q6,7,D*%
X62365000Y-53426000D03*
%TO.P,Q6,8,D*%
X61715000Y-53425000D03*
D15*
X62690000Y-54650500D03*
%TD*%
D21*
%TO.P,U7,1,VCC*%
%TO.N,+3V3*%
X58900000Y-51350000D03*
%TO.P,U7,2,GND*%
%TO.N,GNDD*%
X57300000Y-51350000D03*
%TO.P,U7,3,VOUT*%
%TO.N,Net-(U7-VOUT)*%
X55700000Y-51350000D03*
D22*
%TO.P,U7,4,NC*%
%TO.N,GNDD*%
X54500000Y-53850000D03*
D23*
%TO.P,U7,5,IP+*%
%TO.N,SOC*%
X55800000Y-56200000D03*
%TO.P,U7,6,IP-*%
%TO.N,HSC*%
X58800000Y-56200000D03*
D22*
%TO.P,U7,7,NC*%
%TO.N,unconnected-(U7-NC-Pad7)*%
X60100000Y-53850000D03*
%TD*%
D11*
%TO.P,R5,1*%
%TO.N,HOC*%
X76412500Y-63100000D03*
%TO.P,R5,2*%
%TO.N,Net-(Q3-G)*%
X74587500Y-63100000D03*
%TD*%
D29*
%TO.P,J1,*%
%TO.N,*%
X51500000Y-69200000D03*
X51500000Y-56200000D03*
D30*
%TO.P,J1,1,Pin_1*%
%TO.N,SOC*%
X56500000Y-59200000D03*
D31*
%TO.P,J1,2,Pin_2*%
%TO.N,HSB*%
X56500000Y-62700000D03*
%TO.P,J1,3,Pin_3*%
%TO.N,SOA*%
X56500000Y-66200000D03*
%TD*%
D32*
%TO.P,SW1,1,1*%
%TO.N,GNDD*%
X94825000Y-58175000D03*
X98975000Y-58175000D03*
%TO.P,SW1,2,2*%
%TO.N,NRST*%
X94825000Y-60325000D03*
X98975000Y-60325000D03*
%TD*%
D33*
%TO.P,C12,1*%
%TO.N,NRST*%
X92862500Y-59200000D03*
%TO.P,C12,2*%
%TO.N,GNDD*%
X91137500Y-59200000D03*
%TD*%
D34*
%TO.P,J6,1,Pin_1*%
%TO.N,+3V3*%
X96010000Y-52335000D03*
%TO.P,J6,2,Pin_2*%
%TO.N,unconnected-(J6-Pin_2-Pad2)*%
X96010000Y-55865000D03*
%TO.P,J6,3,Pin_3*%
%TO.N,+3V3*%
X94740000Y-52335000D03*
%TO.P,J6,4,Pin_4*%
%TO.N,SWDIO*%
X94740000Y-55865000D03*
%TO.P,J6,5,Pin_5*%
%TO.N,GNDD*%
X93470000Y-52335000D03*
%TO.P,J6,6,Pin_6*%
%TO.N,SWCLK*%
X93470000Y-55865000D03*
%TO.P,J6,7,Pin_7*%
%TO.N,GNDD*%
X92200000Y-52335000D03*
%TO.P,J6,8,Pin_8*%
%TO.N,SWO*%
X92200000Y-55865000D03*
%TO.P,J6,9,Pin_9*%
%TO.N,unconnected-(J6-Pin_9-Pad9)*%
X90930000Y-52335000D03*
%TO.P,J6,10,Pin_10*%
%TO.N,unconnected-(J6-Pin_10-Pad10)*%
X90930000Y-55865000D03*
%TO.P,J6,11,Pin_11*%
%TO.N,GNDD*%
X89660000Y-52335000D03*
%TO.P,J6,12,Pin_12*%
%TO.N,NRST*%
X89660000Y-55865000D03*
%TO.P,J6,13,Pin_13*%
%TO.N,USART_TX*%
X88390000Y-52335000D03*
%TO.P,J6,14,Pin_14*%
%TO.N,USART_RX*%
X88390000Y-55865000D03*
%TD*%
D24*
%TO.P,D6,1,K*%
%TO.N,GND*%
X79800000Y-51225000D03*
%TO.P,D6,2,A*%
%TO.N,Net-(D6-A)*%
X79800000Y-52975000D03*
%TD*%
D16*
%TO.P,J2,1,Pin_1*%
%TO.N,+3V3*%
X98100000Y-72400000D03*
D17*
%TO.P,J2,2,Pin_2*%
%TO.N,+5VD*%
X98100000Y-74940000D03*
%TO.P,J2,3,Pin_3*%
%TO.N,SPD2*%
X95560000Y-72400000D03*
%TO.P,J2,4,Pin_4*%
%TO.N,GNDD*%
X95560000Y-74940000D03*
%TO.P,J2,5,Pin_5*%
%TO.N,SPD1*%
X93020000Y-72400000D03*
%TO.P,J2,6,Pin_6*%
%TO.N,unconnected-(J2-Pin_6-Pad6)*%
X93020000Y-74940000D03*
%TO.P,J2,7,Pin_7*%
%TO.N,CANH*%
X90480000Y-72400000D03*
%TO.P,J2,8,Pin_8*%
%TO.N,CANL*%
X90480000Y-74940000D03*
%TD*%
D20*
%TO.P,U3,1,VDD*%
%TO.N,+12V*%
X78650000Y-61250000D03*
%TO.P,U3,2,HB*%
%TO.N,Net-(D4-K)*%
X78650000Y-61750000D03*
%TO.P,U3,3,HO*%
%TO.N,HOC*%
X78650000Y-62250000D03*
%TO.P,U3,4,HS*%
%TO.N,HSC*%
X78650000Y-62750000D03*
%TO.P,U3,5,NC*%
%TO.N,unconnected-(U3-NC-Pad5)*%
X78650000Y-63250000D03*
%TO.P,U3,6,RDT*%
%TO.N,Net-(U3-RDT)*%
X82950000Y-63250000D03*
%TO.P,U3,7,EN*%
%TO.N,+5V*%
X82950000Y-62750000D03*
%TO.P,U3,8,IN*%
%TO.N,PWMC*%
X82950000Y-62250000D03*
%TO.P,U3,9,VSS*%
%TO.N,GND*%
X82950000Y-61750000D03*
%TO.P,U3,10,LO*%
%TO.N,LOC*%
X82950000Y-61250000D03*
%TD*%
D35*
%TO.N,GNDPWR*%
X65405000Y-69850000D03*
X60325000Y-58420000D03*
X67310000Y-70485000D03*
X54610000Y-77470000D03*
X67945000Y-71120000D03*
X66040000Y-71120000D03*
X63500000Y-57785000D03*
X62230000Y-59055000D03*
X66675000Y-70485000D03*
X69215000Y-52070000D03*
X66675000Y-71120000D03*
X60960000Y-59055000D03*
X64770000Y-77470000D03*
X66040000Y-70485000D03*
X60325000Y-59055000D03*
X59690000Y-58420000D03*
X67310000Y-77470000D03*
X72390000Y-77470000D03*
X66675000Y-69850000D03*
X80010000Y-77470000D03*
X62230000Y-58420000D03*
X61595000Y-58420000D03*
X65405000Y-71120000D03*
X67310000Y-71120000D03*
X60960000Y-59690000D03*
X60960000Y-57150000D03*
X62865000Y-59055000D03*
X77470000Y-77470000D03*
X64135000Y-59055000D03*
X59690000Y-59690000D03*
X65405000Y-70485000D03*
X82550000Y-77470000D03*
X62865000Y-58420000D03*
X59690000Y-77470000D03*
X59690000Y-59055000D03*
X65405000Y-69215000D03*
X66040000Y-69850000D03*
X71755000Y-52070000D03*
X62865000Y-57785000D03*
X60960000Y-58420000D03*
X63500000Y-59055000D03*
X66040000Y-69215000D03*
X85725000Y-77470000D03*
X62230000Y-57785000D03*
X52070000Y-77470000D03*
X74930000Y-77470000D03*
X57150000Y-77470000D03*
X62230000Y-77470000D03*
X60960000Y-57785000D03*
X60325000Y-57785000D03*
X63500000Y-58420000D03*
X64135000Y-58420000D03*
X61595000Y-57785000D03*
X59690000Y-57785000D03*
X60325000Y-59690000D03*
%TO.N,+12VA*%
X69215000Y-59055000D03*
X72390000Y-57150000D03*
X71120000Y-58420000D03*
X71755000Y-58420000D03*
X71755000Y-57150000D03*
X65355000Y-58420000D03*
X69850000Y-59055000D03*
X72390000Y-59055000D03*
X71120000Y-57785000D03*
X71755000Y-59055000D03*
X72390000Y-57785000D03*
X71120000Y-59055000D03*
X70485000Y-59055000D03*
X70485000Y-59690000D03*
X73600000Y-66598800D03*
X71755000Y-57785000D03*
X69850000Y-59690000D03*
X71755000Y-59690000D03*
X72390000Y-58420000D03*
X73600000Y-63200000D03*
X71120000Y-57150000D03*
X72390000Y-59690000D03*
X73600000Y-70000000D03*
X71120000Y-59690000D03*
%TO.N,Net-(D2-K)*%
X77550000Y-68550000D03*
%TO.N,HSA*%
X62230000Y-65405000D03*
X65405000Y-66675000D03*
X71755000Y-66040000D03*
X69850000Y-66040000D03*
X62230000Y-66040000D03*
X64770000Y-64770000D03*
X75500000Y-69150000D03*
X69850000Y-64770000D03*
X64770000Y-66040000D03*
X62230000Y-64770000D03*
%TO.N,Net-(D3-K)*%
X77550000Y-65150000D03*
%TO.N,HSB*%
X60960000Y-63500000D03*
X75500000Y-65750000D03*
X64770000Y-63500000D03*
X59690000Y-62230000D03*
X59690000Y-60960000D03*
X64770000Y-62230000D03*
X53975000Y-62230000D03*
X66040000Y-63500000D03*
X53975000Y-63500000D03*
X59690000Y-63500000D03*
%TO.N,HSC*%
X60325000Y-55880000D03*
X66040000Y-52070000D03*
X66040000Y-52705000D03*
X58420000Y-54610000D03*
X59055000Y-53975000D03*
X59055000Y-54610000D03*
X66675000Y-52070000D03*
X67310000Y-52705000D03*
X75500000Y-62350000D03*
X66675000Y-52705000D03*
%TO.N,Net-(D4-K)*%
X77550000Y-61750000D03*
%TO.N,GND*%
X77200000Y-54612500D03*
X80543400Y-61163200D03*
X83464400Y-60579000D03*
X84505800Y-65506600D03*
X81889600Y-62382400D03*
X84300000Y-70560000D03*
%TO.N,+12V*%
X79700000Y-61150000D03*
X79700000Y-67955000D03*
X79700000Y-64550000D03*
%TO.N,+5V*%
X84300000Y-69700000D03*
X84300000Y-64500000D03*
X76200000Y-55700000D03*
%TO.N,+3V3*%
X92900000Y-69412500D03*
X96926400Y-53209880D03*
X89535000Y-63700000D03*
X95462500Y-63500000D03*
X58115200Y-53111400D03*
X60200000Y-68800000D03*
%TO.N,GNDD*%
X53975000Y-50800000D03*
X51435000Y-66675000D03*
X51435000Y-57785000D03*
X51435000Y-53340000D03*
X63500000Y-67945000D03*
X89560400Y-66319400D03*
X51435000Y-52070000D03*
X53340000Y-53975000D03*
X64363600Y-51257200D03*
X61800000Y-68880000D03*
X90017600Y-52730400D03*
X52705000Y-52070000D03*
X51435000Y-67945000D03*
X51435000Y-64135000D03*
X51435000Y-61595000D03*
X51435000Y-62865000D03*
X78740000Y-55245000D03*
X85090000Y-52070000D03*
X89738200Y-62357000D03*
X85725000Y-52705000D03*
X85725000Y-52070000D03*
X92837000Y-51866800D03*
X51435000Y-65405000D03*
X51435000Y-59055000D03*
X78740000Y-55880000D03*
X53340000Y-54610000D03*
X85090000Y-52705000D03*
X51435000Y-60325000D03*
X96520000Y-57785000D03*
X51435000Y-54610000D03*
X93141800Y-63144400D03*
X85725000Y-53340000D03*
X96520000Y-58420000D03*
%TO.N,NRST*%
X94046900Y-59546900D03*
%TO.N,SOA*%
X59055000Y-66675000D03*
X53975000Y-65405000D03*
X60960000Y-66675000D03*
X59055000Y-64770000D03*
X57785000Y-67945000D03*
%TO.N,SOC*%
X53975000Y-59055000D03*
X53975000Y-57785000D03*
X54610000Y-55880000D03*
X55880000Y-55245000D03*
X54610000Y-55245000D03*
X53975000Y-60325000D03*
X56515000Y-55245000D03*
X55245000Y-55245000D03*
%TO.N,SPD2*%
X86700000Y-54100000D03*
%TO.N,SPD1*%
X87600000Y-54100000D03*
%TO.N,SWCLK*%
X92800000Y-57800000D03*
%TO.N,SWDIO*%
X93700000Y-57800000D03*
%TO.N,SWO*%
X91900000Y-57800000D03*
%TO.N,USART_TX*%
X98577800Y-55050627D03*
%TO.N,USART_RX*%
X99177800Y-55584400D03*
%TO.N,Net-(Q3-G)*%
X73600000Y-60400000D03*
X64900000Y-54800000D03*
%TO.N,Net-(Q4-G)*%
X68500000Y-69000000D03*
X73600000Y-68200000D03*
%TO.N,Net-(Q6-G)*%
X64194600Y-56600000D03*
X73600000Y-61400000D03*
%TO.N,Net-(U1-RDT)*%
X82000000Y-70050000D03*
%TO.N,Net-(U2-RDT)*%
X82000000Y-66650000D03*
%TO.N,Net-(U3-RDT)*%
X82000000Y-63250000D03*
%TO.N,SIGA*%
X92800000Y-67500000D03*
%TO.N,SIGB*%
X89600000Y-67565000D03*
%TO.N,SIGC*%
X92600000Y-65175000D03*
%TO.N,ID1*%
X98605000Y-66700000D03*
%TO.N,ID2*%
X97335000Y-66700000D03*
%TO.N,ID3*%
X96065000Y-66700000D03*
X92700000Y-61300000D03*
%TO.N,ID4*%
X94795000Y-66700000D03*
X93600000Y-61300000D03*
%TO.N,ID_DISP*%
X86614000Y-56100000D03*
%TO.N,STATUS*%
X86614000Y-55200000D03*
%TO.N,Net-(U6-VOUT)*%
X62700000Y-69800000D03*
%TO.N,Net-(U7-VOUT)*%
X56300000Y-51500000D03*
%TD*%
D36*
%TO.N,Net-(D2-K)*%
X78650000Y-68550000D02*
X77550000Y-68550000D01*
%TO.N,HSA*%
X75920600Y-70675000D02*
X75500000Y-70254400D01*
X76891722Y-70675000D02*
X75920600Y-70675000D01*
X75500000Y-70254400D02*
X75500000Y-69150000D01*
X78016722Y-69550000D02*
X76891722Y-70675000D01*
X78650000Y-69550000D02*
X78016722Y-69550000D01*
%TO.N,Net-(D3-K)*%
X78650000Y-65150000D02*
X77550000Y-65150000D01*
%TO.N,HSB*%
X76891722Y-67275000D02*
X75933278Y-67275000D01*
X78016722Y-66150000D02*
X76891722Y-67275000D01*
X75500000Y-66841722D02*
X75500000Y-65750000D01*
X78650000Y-66150000D02*
X78016722Y-66150000D01*
X75933278Y-67275000D02*
X75500000Y-66841722D01*
%TO.N,HSC*%
X78650000Y-62750000D02*
X78016722Y-62750000D01*
X75500000Y-63460400D02*
X75500000Y-62350000D01*
X75914600Y-63875000D02*
X75500000Y-63460400D01*
X78016722Y-62750000D02*
X76891722Y-63875000D01*
X76891722Y-63875000D02*
X75914600Y-63875000D01*
%TO.N,Net-(D4-K)*%
X78650000Y-61750000D02*
X77550000Y-61750000D01*
%TO.N,+12V*%
X78650000Y-68050000D02*
X79605000Y-68050000D01*
X78650000Y-61250000D02*
X79600000Y-61250000D01*
X79600000Y-64650000D02*
X79700000Y-64550000D01*
X78650000Y-64650000D02*
X79600000Y-64650000D01*
X79605000Y-68050000D02*
X79700000Y-67955000D01*
X79600000Y-61250000D02*
X79700000Y-61150000D01*
%TO.N,+5V*%
X82950000Y-62750000D02*
X83725000Y-62750000D01*
X87400000Y-68494448D02*
X87400000Y-69826000D01*
X84150000Y-69550000D02*
X84300000Y-69700000D01*
X85109448Y-68235000D02*
X87140552Y-68235000D01*
X83725000Y-62750000D02*
X84300000Y-63325000D01*
X84850000Y-67340686D02*
X84850000Y-67975552D01*
X87140552Y-68235000D02*
X87400000Y-68494448D01*
X86125000Y-64905000D02*
X84705000Y-64905000D01*
X77512500Y-57012500D02*
X79800000Y-57012500D01*
X84300000Y-63325000D02*
X84300000Y-64500000D01*
X82950000Y-69550000D02*
X84150000Y-69550000D01*
X83659314Y-66150000D02*
X84850000Y-67340686D01*
X82950000Y-66150000D02*
X83659314Y-66150000D01*
X87121000Y-70105000D02*
X86125000Y-70105000D01*
X84705000Y-70105000D02*
X84300000Y-69700000D01*
X86125000Y-70105000D02*
X84705000Y-70105000D01*
X84850000Y-67975552D02*
X85109448Y-68235000D01*
X76200000Y-55700000D02*
X77512500Y-57012500D01*
X87400000Y-69826000D02*
X87121000Y-70105000D01*
X84705000Y-64905000D02*
X84300000Y-64500000D01*
%TO.N,+3V3*%
X91075000Y-70105000D02*
X92207500Y-70105000D01*
X60200000Y-70250000D02*
X60200000Y-68800000D01*
X96051520Y-52335000D02*
X96926400Y-53209880D01*
X89535000Y-64339999D02*
X89535000Y-63700000D01*
X91075000Y-64905000D02*
X90100001Y-64905000D01*
X58900000Y-51350000D02*
X58900000Y-52326600D01*
X96010000Y-52335000D02*
X96051520Y-52335000D01*
X90100001Y-64905000D02*
X89535000Y-64339999D01*
X94740000Y-52335000D02*
X96010000Y-52335000D01*
X58900000Y-52326600D02*
X58115200Y-53111400D01*
X92207500Y-70105000D02*
X92900000Y-69412500D01*
%TO.N,GNDD*%
X92837000Y-51866800D02*
X92668200Y-51866800D01*
X93001800Y-51866800D02*
X93470000Y-52335000D01*
X92837000Y-51866800D02*
X93001800Y-51866800D01*
X92668200Y-51866800D02*
X92200000Y-52335000D01*
%TO.N,NRST*%
X92087500Y-58425000D02*
X91165900Y-58425000D01*
X94825000Y-60325000D02*
X98975000Y-60325000D01*
X94046900Y-59546900D02*
X94825000Y-60325000D01*
X91165900Y-58425000D02*
X89660000Y-56919100D01*
X92862500Y-59200000D02*
X92087500Y-58425000D01*
X92862500Y-59200000D02*
X93700000Y-59200000D01*
X93700000Y-59200000D02*
X94046900Y-59546900D01*
X89660000Y-56919100D02*
X89660000Y-55865000D01*
%TO.N,Net-(D6-A)*%
X79800000Y-52975000D02*
X79800000Y-55187500D01*
%TO.N,Net-(D7-A)*%
X81500000Y-52975000D02*
X81500000Y-55187500D01*
%TO.N,Net-(D8-A)*%
X83200000Y-52975000D02*
X83200000Y-55187500D01*
%TO.N,SPD2*%
X89893762Y-71105000D02*
X90813600Y-71105000D01*
X91870000Y-72161400D02*
X91870000Y-72876346D01*
X90813600Y-71105000D02*
X91870000Y-72161400D01*
X94410000Y-73550000D02*
X95560000Y-72400000D01*
X92543654Y-73550000D02*
X94410000Y-73550000D01*
X87359800Y-54759800D02*
X87359800Y-57914986D01*
X88535000Y-59090186D02*
X88535000Y-69746238D01*
X86700000Y-54100000D02*
X87359800Y-54759800D01*
X87359800Y-57914986D02*
X88535000Y-59090186D01*
X88535000Y-69746238D02*
X89893762Y-71105000D01*
X91870000Y-72876346D02*
X92543654Y-73550000D01*
%TO.N,SPD1*%
X87759800Y-57749300D02*
X88935000Y-58924500D01*
X91325000Y-70705000D02*
X93020000Y-72400000D01*
X90059448Y-70705000D02*
X91325000Y-70705000D01*
X87600000Y-54100000D02*
X87759800Y-54259800D01*
X88935000Y-69580552D02*
X90059448Y-70705000D01*
X87759800Y-54259800D02*
X87759800Y-57749300D01*
X88935000Y-58924500D02*
X88935000Y-69580552D01*
%TO.N,SWCLK*%
X93470000Y-57130000D02*
X92800000Y-57800000D01*
X93470000Y-55865000D02*
X93470000Y-57130000D01*
%TO.N,SWDIO*%
X94740000Y-55865000D02*
X94740000Y-56760000D01*
X94740000Y-56760000D02*
X93700000Y-57800000D01*
%TO.N,SWO*%
X92200000Y-57500000D02*
X91900000Y-57800000D01*
X92200000Y-55865000D02*
X92200000Y-57500000D01*
%TO.N,USART_TX*%
X98577800Y-52606900D02*
X98577800Y-55050627D01*
X96621600Y-50650700D02*
X89029800Y-50650700D01*
X89029800Y-50650700D02*
X88390000Y-51290500D01*
X88390000Y-51290500D02*
X88390000Y-52335000D01*
X96621600Y-50650700D02*
X98577800Y-52606900D01*
%TO.N,USART_RX*%
X88390000Y-55865000D02*
X88390000Y-54688200D01*
X99111573Y-55650627D02*
X99177800Y-55584400D01*
X88897500Y-54180700D02*
X96640200Y-54180700D01*
X98110127Y-55650627D02*
X99111573Y-55650627D01*
X96640200Y-54180700D02*
X98110127Y-55650627D01*
X88390000Y-54688200D02*
X88897500Y-54180700D01*
%TO.N,Net-(Q1-G)*%
X74451471Y-69900000D02*
X74587500Y-69900000D01*
X70135000Y-67129270D02*
X70505730Y-67500000D01*
X70135000Y-66900000D02*
X70135000Y-67129270D01*
X70505730Y-67500000D02*
X72744400Y-67500000D01*
X72910000Y-67665600D02*
X72910000Y-68358529D01*
X72744400Y-67500000D02*
X72910000Y-67665600D01*
X72910000Y-68358529D02*
X74451471Y-69900000D01*
%TO.N,Net-(Q2-G)*%
X74587500Y-66500000D02*
X70287500Y-62200000D01*
X70287500Y-62200000D02*
X67465000Y-62200000D01*
%TO.N,Net-(Q3-G)*%
X65535000Y-54600000D02*
X65100000Y-54600000D01*
X73000000Y-61000000D02*
X73000000Y-61648529D01*
X65100000Y-54600000D02*
X64900000Y-54800000D01*
X74451471Y-63100000D02*
X74587500Y-63100000D01*
X73000000Y-61648529D02*
X74451471Y-63100000D01*
X73000000Y-61000000D02*
X73600000Y-60400000D01*
%TO.N,Net-(Q4-G)*%
X68265000Y-68300000D02*
X68265000Y-68765000D01*
X68265000Y-68765000D02*
X68500000Y-69000000D01*
X74587500Y-68200000D02*
X73600000Y-68200000D01*
%TO.N,Net-(Q5-G)*%
X73453186Y-64800000D02*
X74587500Y-64800000D01*
X64510000Y-61370500D02*
X64739500Y-61600000D01*
X61735000Y-59800000D02*
X61735000Y-60029270D01*
X64286200Y-60400000D02*
X64510000Y-60623800D01*
X70253186Y-61600000D02*
X73453186Y-64800000D01*
X64510000Y-60623800D02*
X64510000Y-61370500D01*
X64739500Y-61600000D02*
X70253186Y-61600000D01*
X62105730Y-60400000D02*
X64286200Y-60400000D01*
X61735000Y-60029270D02*
X62105730Y-60400000D01*
%TO.N,Net-(Q6-G)*%
X63665000Y-56600000D02*
X64194600Y-56600000D01*
X64194600Y-56600000D02*
X64211200Y-56616600D01*
X74587500Y-61400000D02*
X73600000Y-61400000D01*
%TO.N,HOA*%
X78650000Y-69050000D02*
X77924729Y-69050000D01*
X77074729Y-69900000D02*
X76412500Y-69900000D01*
X77924729Y-69050000D02*
X77074729Y-69900000D01*
%TO.N,HOB*%
X77048529Y-66500000D02*
X76412500Y-66500000D01*
X78650000Y-65650000D02*
X77898529Y-65650000D01*
X77898529Y-65650000D02*
X77048529Y-66500000D01*
%TO.N,HOC*%
X78650000Y-62250000D02*
X77898529Y-62250000D01*
X77898529Y-62250000D02*
X77048529Y-63100000D01*
X77048529Y-63100000D02*
X76412500Y-63100000D01*
%TO.N,LOA*%
X82255000Y-67355000D02*
X82950000Y-68050000D01*
X77051471Y-68200000D02*
X77896471Y-67355000D01*
X77896471Y-67355000D02*
X82255000Y-67355000D01*
X76412500Y-68200000D02*
X77051471Y-68200000D01*
%TO.N,LOB*%
X76412500Y-64800000D02*
X77051471Y-64800000D01*
X77901471Y-63950000D02*
X82250000Y-63950000D01*
X82250000Y-63950000D02*
X82950000Y-64650000D01*
X77051471Y-64800000D02*
X77901471Y-63950000D01*
%TO.N,LOC*%
X76412500Y-61400000D02*
X77262500Y-60550000D01*
X82250000Y-60550000D02*
X82950000Y-61250000D01*
X77262500Y-60550000D02*
X82250000Y-60550000D01*
%TO.N,Net-(U1-RDT)*%
X82950000Y-70050000D02*
X82000000Y-70050000D01*
%TO.N,Net-(U2-RDT)*%
X82950000Y-66650000D02*
X82000000Y-66650000D01*
%TO.N,Net-(U3-RDT)*%
X82950000Y-63250000D02*
X82000000Y-63250000D01*
%TO.N,SIGA*%
X91075000Y-68835000D02*
X91465000Y-68835000D01*
X91465000Y-68835000D02*
X92800000Y-67500000D01*
%TO.N,SIGB*%
X91075000Y-67565000D02*
X89600000Y-67565000D01*
%TO.N,SIGC*%
X92049999Y-63635000D02*
X92600000Y-64185001D01*
X91075000Y-63635000D02*
X92049999Y-63635000D01*
X92600000Y-64185001D02*
X92600000Y-65175000D01*
%TO.N,ID1*%
X98605000Y-62090000D02*
X98605000Y-66700000D01*
%TO.N,ID2*%
X97335000Y-62090000D02*
X97335000Y-66700000D01*
%TO.N,ID3*%
X95356200Y-60990000D02*
X96065000Y-61698800D01*
X96065000Y-61698800D02*
X96065000Y-62090000D01*
X92700000Y-61300000D02*
X93300000Y-60700000D01*
X93970686Y-60700000D02*
X94260686Y-60990000D01*
X94260686Y-60990000D02*
X95356200Y-60990000D01*
X93300000Y-60700000D02*
X93970686Y-60700000D01*
X96065000Y-62090000D02*
X96065000Y-66700000D01*
%TO.N,ID4*%
X93600000Y-61300000D02*
X94005000Y-61300000D01*
X94005000Y-61300000D02*
X94795000Y-62090000D01*
X94795000Y-62090000D02*
X94795000Y-66700000D01*
%TO.N,ID_DISP*%
X82287500Y-57800000D02*
X81500000Y-57012500D01*
X86614000Y-56100000D02*
X84914000Y-57800000D01*
X84914000Y-57800000D02*
X82287500Y-57800000D01*
%TO.N,STATUS*%
X86614000Y-55200000D02*
X84801500Y-57012500D01*
X84801500Y-57012500D02*
X83200000Y-57012500D01*
%TO.N,Net-(U6-VOUT)*%
X62700000Y-69800000D02*
X62950000Y-69800000D01*
X62950000Y-69800000D02*
X63400000Y-70250000D01*
%TO.N,Net-(U7-VOUT)*%
X56300000Y-51500000D02*
X55850000Y-51500000D01*
X55850000Y-51500000D02*
X55700000Y-51350000D01*
%TO.N,PWMA*%
X82950000Y-69050000D02*
X83654800Y-69050000D01*
X83870800Y-68834000D02*
X83871800Y-68835000D01*
X83871800Y-68835000D02*
X86125000Y-68835000D01*
X83654800Y-69050000D02*
X83870800Y-68834000D01*
%TO.N,PWMB*%
X85640000Y-67565000D02*
X86125000Y-67565000D01*
X82950000Y-65650000D02*
X83725000Y-65650000D01*
X83725000Y-65650000D02*
X85640000Y-67565000D01*
%TO.N,PWMC*%
X85779448Y-63635000D02*
X86125000Y-63635000D01*
X82950000Y-62250000D02*
X84394448Y-62250000D01*
X84394448Y-62250000D02*
X85779448Y-63635000D01*
%TD*%
%TA.AperFunction,Conductor*%
%TO.N,HSB*%
G36*
X61799236Y-60522485D02*
G01*
X61819878Y-60539119D01*
X61865270Y-60584511D01*
X61921219Y-60640460D01*
X61921221Y-60640461D01*
X61921225Y-60640464D01*
X61940202Y-60651420D01*
X61989741Y-60680021D01*
X62066168Y-60700500D01*
X62145292Y-60700500D01*
X64085500Y-60700500D01*
X64152539Y-60720185D01*
X64198294Y-60772989D01*
X64209500Y-60824500D01*
X64209500Y-61410062D01*
X64229979Y-61486489D01*
X64259447Y-61537529D01*
X64269540Y-61555011D01*
X64499040Y-61784511D01*
X64554989Y-61840460D01*
X64554991Y-61840461D01*
X64554995Y-61840464D01*
X64604235Y-61868892D01*
X64623511Y-61880021D01*
X64699938Y-61900500D01*
X66925500Y-61900500D01*
X66992539Y-61920185D01*
X67038294Y-61972989D01*
X67049500Y-62024500D01*
X67049500Y-62438485D01*
X67052488Y-62464238D01*
X67052488Y-62464240D01*
X67098997Y-62569573D01*
X67099000Y-62569578D01*
X67172081Y-62642659D01*
X67205566Y-62703982D01*
X67208400Y-62730340D01*
X67208400Y-62855198D01*
X67207139Y-62872840D01*
X67206900Y-62874502D01*
X67206900Y-63884000D01*
X67187215Y-63951039D01*
X67134411Y-63996794D01*
X67082900Y-64008000D01*
X58775599Y-64008000D01*
X58507119Y-64276481D01*
X58445796Y-64309966D01*
X58419438Y-64312800D01*
X53489400Y-64312800D01*
X53422361Y-64293115D01*
X53376606Y-64240311D01*
X53365400Y-64188800D01*
X53365400Y-61211000D01*
X53385085Y-61143961D01*
X53437889Y-61098206D01*
X53489400Y-61087000D01*
X58826400Y-61087000D01*
X59374281Y-60539119D01*
X59435604Y-60505634D01*
X59461962Y-60502800D01*
X61732197Y-60502800D01*
X61799236Y-60522485D01*
G37*
%TD.AperFunction*%
%TD*%
%TA.AperFunction,Conductor*%
%TO.N,HSC*%
G36*
X64061323Y-51657885D02*
G01*
X64153544Y-51717152D01*
X64153549Y-51717154D01*
X64291636Y-51757699D01*
X64291638Y-51757700D01*
X64291639Y-51757700D01*
X64435562Y-51757700D01*
X64435562Y-51757699D01*
X64544534Y-51725703D01*
X64573650Y-51717154D01*
X64573651Y-51717153D01*
X64573653Y-51717153D01*
X64573655Y-51717152D01*
X64665877Y-51657885D01*
X64732916Y-51638200D01*
X67870300Y-51638200D01*
X67937339Y-51657885D01*
X67983094Y-51710689D01*
X67994300Y-51762200D01*
X67994300Y-54968600D01*
X67974615Y-55035639D01*
X67921811Y-55081394D01*
X67870300Y-55092600D01*
X66036982Y-55092600D01*
X65969943Y-55072915D01*
X65924188Y-55020111D01*
X65914244Y-54950953D01*
X65923547Y-54918514D01*
X65947512Y-54864238D01*
X65950500Y-54838484D01*
X65950500Y-54361516D01*
X65947512Y-54335762D01*
X65901001Y-54230423D01*
X65819577Y-54148999D01*
X65819574Y-54148997D01*
X65819573Y-54148997D01*
X65714239Y-54102488D01*
X65688485Y-54099500D01*
X65688484Y-54099500D01*
X65381516Y-54099500D01*
X65381514Y-54099500D01*
X65355761Y-54102488D01*
X65355759Y-54102488D01*
X65250426Y-54148997D01*
X65250421Y-54149000D01*
X65169000Y-54230421D01*
X65162503Y-54239906D01*
X65160307Y-54238402D01*
X65126053Y-54278959D01*
X65068266Y-54296723D01*
X65068492Y-54298440D01*
X65060434Y-54299500D01*
X65047798Y-54302886D01*
X64980774Y-54302087D01*
X64971963Y-54299500D01*
X64971961Y-54299500D01*
X64828039Y-54299500D01*
X64828036Y-54299500D01*
X64689949Y-54340045D01*
X64568873Y-54417856D01*
X64474623Y-54526626D01*
X64474622Y-54526628D01*
X64414834Y-54657543D01*
X64394353Y-54800000D01*
X64414834Y-54942456D01*
X64418715Y-54950953D01*
X64474623Y-55073373D01*
X64568872Y-55182143D01*
X64641368Y-55228733D01*
X64677443Y-55251917D01*
X64723198Y-55304721D01*
X64733142Y-55373880D01*
X64704117Y-55437436D01*
X64698085Y-55443914D01*
X64298319Y-55843681D01*
X64236996Y-55877166D01*
X64210638Y-55880000D01*
X61239399Y-55880000D01*
X59929519Y-57189881D01*
X59868196Y-57223366D01*
X59841838Y-57226200D01*
X57963362Y-57226200D01*
X57896323Y-57206515D01*
X57875681Y-57189881D01*
X57440319Y-56754519D01*
X57406834Y-56693196D01*
X57404000Y-56666838D01*
X57404000Y-54686762D01*
X57423685Y-54619723D01*
X57440319Y-54599081D01*
X58509153Y-53530247D01*
X59449500Y-53530247D01*
X59449500Y-54169752D01*
X59461131Y-54228229D01*
X59461132Y-54228230D01*
X59505447Y-54294552D01*
X59571769Y-54338867D01*
X59571770Y-54338868D01*
X59630247Y-54350499D01*
X59630250Y-54350500D01*
X59630252Y-54350500D01*
X60569750Y-54350500D01*
X60569751Y-54350499D01*
X60584568Y-54347552D01*
X60628229Y-54338868D01*
X60628229Y-54338867D01*
X60628231Y-54338867D01*
X60694552Y-54294552D01*
X60738867Y-54228231D01*
X60738867Y-54228229D01*
X60738868Y-54228229D01*
X60750499Y-54169752D01*
X60750500Y-54169750D01*
X60750500Y-53530249D01*
X60750499Y-53530247D01*
X60738868Y-53471770D01*
X60738867Y-53471769D01*
X60694552Y-53405447D01*
X60628230Y-53361132D01*
X60628229Y-53361131D01*
X60569752Y-53349500D01*
X60569748Y-53349500D01*
X59630252Y-53349500D01*
X59630247Y-53349500D01*
X59571770Y-53361131D01*
X59571769Y-53361132D01*
X59505447Y-53405447D01*
X59461132Y-53471769D01*
X59461131Y-53471770D01*
X59449500Y-53530247D01*
X58509153Y-53530247D01*
X60364881Y-51674519D01*
X60426204Y-51641034D01*
X60452562Y-51638200D01*
X63994284Y-51638200D01*
X64061323Y-51657885D01*
G37*
%TD.AperFunction*%
%TD*%
%TA.AperFunction,Conductor*%
%TO.N,SOA*%
G36*
X61536539Y-64283185D02*
G01*
X61582294Y-64335989D01*
X61593500Y-64387500D01*
X61593500Y-66778100D01*
X61573815Y-66845139D01*
X61521011Y-66890894D01*
X61469500Y-66902100D01*
X61110751Y-66902100D01*
X61103831Y-66902594D01*
X61096174Y-66903142D01*
X61087302Y-66903457D01*
X60831629Y-66903386D01*
X60822821Y-66903070D01*
X60809259Y-66902100D01*
X60809249Y-66902100D01*
X59919163Y-66902100D01*
X59917528Y-66902187D01*
X59903257Y-66902949D01*
X59896614Y-66903125D01*
X59766201Y-66903088D01*
X59678235Y-66991080D01*
X59664733Y-67002766D01*
X59651195Y-67012875D01*
X59651193Y-67012876D01*
X59650221Y-67013846D01*
X59649683Y-67014383D01*
X59630720Y-67037692D01*
X59622233Y-67047097D01*
X59606175Y-67063162D01*
X59544859Y-67096660D01*
X59518475Y-67099500D01*
X58625323Y-67099500D01*
X58552264Y-67114032D01*
X58552260Y-67114033D01*
X58469399Y-67169399D01*
X58414033Y-67252260D01*
X58414032Y-67252264D01*
X58399500Y-67325321D01*
X58399500Y-67974678D01*
X58414032Y-68047735D01*
X58414035Y-68047742D01*
X58438524Y-68084394D01*
X58459401Y-68151072D01*
X58440915Y-68218452D01*
X58423102Y-68240964D01*
X58096485Y-68567582D01*
X58035164Y-68601066D01*
X58008806Y-68603900D01*
X55579994Y-68603900D01*
X55512955Y-68584215D01*
X55492313Y-68567581D01*
X53403225Y-66478493D01*
X53369740Y-66417170D01*
X53366906Y-66390807D01*
X53366979Y-64692295D01*
X53386666Y-64625256D01*
X53439472Y-64579503D01*
X53490979Y-64568300D01*
X58419439Y-64568300D01*
X58423771Y-64568067D01*
X58444107Y-64566977D01*
X58450736Y-64566800D01*
X58572400Y-64566800D01*
X58658724Y-64480475D01*
X58672083Y-64468900D01*
X58687785Y-64457146D01*
X58845112Y-64299817D01*
X58906434Y-64266334D01*
X58932792Y-64263500D01*
X61469500Y-64263500D01*
X61536539Y-64283185D01*
G37*
%TD.AperFunction*%
%TD*%
%TA.AperFunction,Conductor*%
%TO.N,GNDPWR*%
G36*
X72798403Y-65207030D02*
G01*
X72804881Y-65213062D01*
X73465072Y-65873253D01*
X73498557Y-65934576D01*
X73493573Y-66004268D01*
X73451701Y-66060201D01*
X73424844Y-66075495D01*
X73322376Y-66117938D01*
X73207379Y-66206179D01*
X73119137Y-66321177D01*
X73063671Y-66455087D01*
X73063670Y-66455091D01*
X73044750Y-66598799D01*
X73044750Y-66598800D01*
X73063670Y-66742508D01*
X73063671Y-66742512D01*
X73119137Y-66876422D01*
X73119138Y-66876424D01*
X73119139Y-66876425D01*
X73207379Y-66991421D01*
X73322375Y-67079661D01*
X73456291Y-67135130D01*
X73583280Y-67151848D01*
X73599999Y-67154050D01*
X73600000Y-67154050D01*
X73600001Y-67154050D01*
X73614977Y-67152078D01*
X73743709Y-67135130D01*
X73877625Y-67079661D01*
X73877627Y-67079659D01*
X73878463Y-67079313D01*
X73947933Y-67071844D01*
X74000225Y-67094606D01*
X74101222Y-67170212D01*
X74193594Y-67204665D01*
X74232700Y-67219251D01*
X74290809Y-67225499D01*
X74290826Y-67225500D01*
X74884174Y-67225500D01*
X74884187Y-67225499D01*
X74922052Y-67221427D01*
X74942299Y-67219251D01*
X74942299Y-67219250D01*
X74945143Y-67218945D01*
X75013903Y-67231349D01*
X75065041Y-67278959D01*
X75082400Y-67342234D01*
X75082400Y-67357765D01*
X75062715Y-67424804D01*
X75009911Y-67470559D01*
X74945145Y-67481055D01*
X74942289Y-67480748D01*
X74884174Y-67474500D01*
X74290826Y-67474500D01*
X74290809Y-67474500D01*
X74232700Y-67480748D01*
X74101219Y-67529789D01*
X73988882Y-67613885D01*
X73960130Y-67652293D01*
X73904196Y-67694163D01*
X73834504Y-67699146D01*
X73813414Y-67692542D01*
X73778646Y-67678141D01*
X73743709Y-67663670D01*
X73657294Y-67652293D01*
X73600001Y-67644750D01*
X73599999Y-67644750D01*
X73456291Y-67663670D01*
X73456287Y-67663671D01*
X73421354Y-67678141D01*
X73351885Y-67685610D01*
X73289406Y-67654334D01*
X73254127Y-67595673D01*
X73251660Y-67586466D01*
X73236614Y-67530312D01*
X73236312Y-67529789D01*
X73213462Y-67490211D01*
X73190472Y-67450391D01*
X73190468Y-67450386D01*
X72959613Y-67219531D01*
X72959608Y-67219527D01*
X72879689Y-67173386D01*
X72875353Y-67172224D01*
X72867842Y-67170212D01*
X72867841Y-67170211D01*
X72807525Y-67154050D01*
X72790544Y-67149500D01*
X72790543Y-67149500D01*
X72717200Y-67149500D01*
X72650161Y-67129815D01*
X72604406Y-67077011D01*
X72593200Y-67025500D01*
X72593200Y-65300743D01*
X72612885Y-65233704D01*
X72665689Y-65187949D01*
X72734847Y-65178005D01*
X72798403Y-65207030D01*
G37*
%TD.AperFunction*%
%TA.AperFunction,Conductor*%
G36*
X74899950Y-65545185D02*
G01*
X74945705Y-65597989D01*
X74955860Y-65665605D01*
X74955728Y-65666608D01*
X74927504Y-65730521D01*
X74869204Y-65769030D01*
X74832780Y-65774500D01*
X74409043Y-65774500D01*
X74342004Y-65754815D01*
X74321362Y-65738181D01*
X74320362Y-65737181D01*
X74286877Y-65675858D01*
X74291861Y-65606166D01*
X74333733Y-65550233D01*
X74399197Y-65525816D01*
X74408043Y-65525500D01*
X74832911Y-65525500D01*
X74899950Y-65545185D01*
G37*
%TD.AperFunction*%
%TA.AperFunction,Conductor*%
G36*
X72568834Y-61239280D02*
G01*
X72624767Y-61281152D01*
X72649184Y-61346616D01*
X72649500Y-61355462D01*
X72649500Y-61694672D01*
X72664459Y-61750501D01*
X72664459Y-61750502D01*
X72673384Y-61783814D01*
X72673385Y-61783815D01*
X72719527Y-61863737D01*
X72719531Y-61863742D01*
X73369732Y-62513943D01*
X73403217Y-62575266D01*
X73398233Y-62644958D01*
X73356361Y-62700891D01*
X73329511Y-62716182D01*
X73322378Y-62719136D01*
X73207379Y-62807379D01*
X73119137Y-62922377D01*
X73063671Y-63056287D01*
X73063670Y-63056291D01*
X73044750Y-63199999D01*
X73044750Y-63200000D01*
X73063670Y-63343708D01*
X73063671Y-63343712D01*
X73119137Y-63477622D01*
X73119138Y-63477624D01*
X73119139Y-63477625D01*
X73207379Y-63592621D01*
X73322375Y-63680861D01*
X73456291Y-63736330D01*
X73583280Y-63753048D01*
X73599999Y-63755250D01*
X73600000Y-63755250D01*
X73600001Y-63755250D01*
X73614977Y-63753278D01*
X73743709Y-63736330D01*
X73877625Y-63680861D01*
X73877629Y-63680857D01*
X73879495Y-63680085D01*
X73948964Y-63672616D01*
X74001259Y-63695380D01*
X74101217Y-63770209D01*
X74101218Y-63770209D01*
X74101222Y-63770212D01*
X74200181Y-63807121D01*
X74232700Y-63819251D01*
X74290809Y-63825499D01*
X74290826Y-63825500D01*
X74884174Y-63825500D01*
X74884187Y-63825499D01*
X74922052Y-63821427D01*
X74942299Y-63819251D01*
X74942299Y-63819250D01*
X74945143Y-63818945D01*
X75013903Y-63831349D01*
X75065041Y-63878959D01*
X75082400Y-63942234D01*
X75082400Y-63957765D01*
X75062715Y-64024804D01*
X75009911Y-64070559D01*
X74945145Y-64081055D01*
X74942289Y-64080748D01*
X74884174Y-64074500D01*
X74290826Y-64074500D01*
X74290809Y-64074500D01*
X74232700Y-64080748D01*
X74101219Y-64129789D01*
X73988884Y-64213884D01*
X73904787Y-64326222D01*
X73904785Y-64326226D01*
X73888895Y-64368832D01*
X73847024Y-64424766D01*
X73781560Y-64449184D01*
X73772713Y-64449500D01*
X73649729Y-64449500D01*
X73582690Y-64429815D01*
X73562048Y-64413181D01*
X71006349Y-61857481D01*
X70972864Y-61796158D01*
X70977848Y-61726466D01*
X71019720Y-61670533D01*
X71085184Y-61646116D01*
X71094030Y-61645800D01*
X72059800Y-61645800D01*
X72437819Y-61267781D01*
X72499142Y-61234296D01*
X72568834Y-61239280D01*
G37*
%TD.AperFunction*%
%TA.AperFunction,Conductor*%
G36*
X70157995Y-62570185D02*
G01*
X70178637Y-62586819D01*
X71388137Y-63796319D01*
X71421622Y-63857642D01*
X71416638Y-63927334D01*
X71374766Y-63983267D01*
X71309302Y-64007684D01*
X71300456Y-64008000D01*
X67586400Y-64008000D01*
X67519361Y-63988315D01*
X67473606Y-63935511D01*
X67462400Y-63884000D01*
X67462400Y-62874500D01*
X67482085Y-62807461D01*
X67534889Y-62761706D01*
X67586400Y-62750500D01*
X67606469Y-62750500D01*
X67606474Y-62750500D01*
X67676063Y-62740361D01*
X67783402Y-62687886D01*
X67867886Y-62603402D01*
X67867887Y-62603399D01*
X67868569Y-62602446D01*
X67869839Y-62601449D01*
X67875152Y-62596137D01*
X67875793Y-62596778D01*
X67923545Y-62559324D01*
X67969486Y-62550500D01*
X70090956Y-62550500D01*
X70157995Y-62570185D01*
G37*
%TD.AperFunction*%
%TA.AperFunction,Conductor*%
G36*
X74283807Y-62124746D02*
G01*
X74290812Y-62125499D01*
X74290826Y-62125500D01*
X74832911Y-62125500D01*
X74899950Y-62145185D01*
X74945705Y-62197989D01*
X74955860Y-62265605D01*
X74955728Y-62266608D01*
X74927504Y-62330521D01*
X74869204Y-62369030D01*
X74832780Y-62374500D01*
X74290808Y-62374500D01*
X74287346Y-62374873D01*
X74218587Y-62362464D01*
X74186417Y-62339264D01*
X74182869Y-62335716D01*
X74149384Y-62274393D01*
X74154368Y-62204701D01*
X74196240Y-62148768D01*
X74261704Y-62124351D01*
X74283807Y-62124746D01*
G37*
%TD.AperFunction*%
%TA.AperFunction,Conductor*%
G36*
X75025439Y-59912885D02*
G01*
X75071194Y-59965689D01*
X75082400Y-60017200D01*
X75082400Y-60557765D01*
X75062715Y-60624804D01*
X75009911Y-60670559D01*
X74945145Y-60681055D01*
X74884174Y-60674500D01*
X74290826Y-60674500D01*
X74290820Y-60674500D01*
X74273418Y-60676371D01*
X74204659Y-60663964D01*
X74153522Y-60616353D01*
X74136244Y-60548653D01*
X74137223Y-60536919D01*
X74155250Y-60400000D01*
X74136330Y-60256291D01*
X74080861Y-60122375D01*
X74058080Y-60092686D01*
X74032886Y-60027517D01*
X74046924Y-59959072D01*
X74095739Y-59909083D01*
X74156456Y-59893200D01*
X74958400Y-59893200D01*
X75025439Y-59912885D01*
G37*
%TD.AperFunction*%
%TD*%
%TA.AperFunction,Conductor*%
%TO.N,HSA*%
G36*
X67584743Y-64263262D02*
G01*
X67585798Y-64263413D01*
X67586400Y-64263500D01*
X67586403Y-64263500D01*
X71222538Y-64263500D01*
X71289577Y-64283185D01*
X71310219Y-64299819D01*
X72301381Y-65290981D01*
X72334866Y-65352304D01*
X72337700Y-65378662D01*
X72337700Y-67025500D01*
X72338490Y-67032848D01*
X72339200Y-67046103D01*
X72339200Y-67075500D01*
X72319515Y-67142539D01*
X72266711Y-67188294D01*
X72215200Y-67199500D01*
X70681563Y-67199500D01*
X70614524Y-67179815D01*
X70593882Y-67163181D01*
X70586819Y-67156118D01*
X70553334Y-67094795D01*
X70550500Y-67068437D01*
X70550500Y-66661517D01*
X70550500Y-66661516D01*
X70547512Y-66635762D01*
X70531191Y-66598799D01*
X70501002Y-66530426D01*
X70501001Y-66530423D01*
X70419577Y-66448999D01*
X70419574Y-66448997D01*
X70419573Y-66448997D01*
X70314239Y-66402488D01*
X70288485Y-66399500D01*
X70288484Y-66399500D01*
X69981516Y-66399500D01*
X69981514Y-66399500D01*
X69955761Y-66402488D01*
X69955759Y-66402488D01*
X69850426Y-66448997D01*
X69850421Y-66449000D01*
X69769000Y-66530421D01*
X69768997Y-66530426D01*
X69722488Y-66635759D01*
X69722488Y-66635761D01*
X69719500Y-66661514D01*
X69719500Y-67138485D01*
X69722488Y-67164238D01*
X69722488Y-67164240D01*
X69743627Y-67212115D01*
X69752698Y-67281393D01*
X69722874Y-67344578D01*
X69663624Y-67381608D01*
X69630192Y-67386200D01*
X69062599Y-67386200D01*
X68870319Y-67578481D01*
X68808996Y-67611966D01*
X68782638Y-67614800D01*
X65474500Y-67614800D01*
X65407461Y-67595115D01*
X65361706Y-67542311D01*
X65350500Y-67490800D01*
X65350500Y-67330249D01*
X65350499Y-67330247D01*
X65338868Y-67271770D01*
X65338867Y-67271769D01*
X65294552Y-67205447D01*
X65228230Y-67161132D01*
X65228229Y-67161131D01*
X65169752Y-67149500D01*
X65169748Y-67149500D01*
X64889462Y-67149500D01*
X64822423Y-67129815D01*
X64801781Y-67113181D01*
X64592200Y-66903600D01*
X61973000Y-66903600D01*
X61905961Y-66883915D01*
X61860206Y-66831111D01*
X61849000Y-66779600D01*
X61849000Y-64386000D01*
X61868685Y-64318961D01*
X61921489Y-64273206D01*
X61973000Y-64262000D01*
X67567099Y-64262000D01*
X67584743Y-64263262D01*
G37*
%TD.AperFunction*%
%TD*%
%TA.AperFunction,Conductor*%
%TO.N,GNDPWR*%
G36*
X63218312Y-56153685D02*
G01*
X63264067Y-56206489D01*
X63274011Y-56275647D01*
X63264708Y-56308085D01*
X63252488Y-56335759D01*
X63252488Y-56335761D01*
X63249500Y-56361514D01*
X63249500Y-56838485D01*
X63252488Y-56864238D01*
X63252488Y-56864240D01*
X63271847Y-56908083D01*
X63298999Y-56969577D01*
X63380423Y-57051001D01*
X63485762Y-57097512D01*
X63511516Y-57100500D01*
X63511517Y-57100500D01*
X63818483Y-57100500D01*
X63818484Y-57100500D01*
X63844238Y-57097512D01*
X63909870Y-57068532D01*
X63979148Y-57059461D01*
X63994887Y-57062989D01*
X64051983Y-57079753D01*
X64122638Y-57100500D01*
X64122639Y-57100500D01*
X64266561Y-57100500D01*
X64382465Y-57066468D01*
X64452335Y-57066468D01*
X64511113Y-57104242D01*
X64540138Y-57167798D01*
X64541400Y-57185445D01*
X64541400Y-59995680D01*
X64521715Y-60062719D01*
X64468911Y-60108474D01*
X64399753Y-60118418D01*
X64385307Y-60115455D01*
X64325762Y-60099500D01*
X62281563Y-60099500D01*
X62214524Y-60079815D01*
X62193882Y-60063181D01*
X62186819Y-60056118D01*
X62153334Y-59994795D01*
X62150500Y-59968437D01*
X62150500Y-59561517D01*
X62150500Y-59561516D01*
X62147512Y-59535762D01*
X62101001Y-59430423D01*
X62019577Y-59348999D01*
X62019574Y-59348997D01*
X62019573Y-59348997D01*
X61914239Y-59302488D01*
X61888485Y-59299500D01*
X61888484Y-59299500D01*
X61581516Y-59299500D01*
X61581514Y-59299500D01*
X61555761Y-59302488D01*
X61555759Y-59302488D01*
X61450426Y-59348997D01*
X61450421Y-59349000D01*
X61369000Y-59430421D01*
X61368997Y-59430426D01*
X61322488Y-59535759D01*
X61322488Y-59535761D01*
X61319500Y-59561514D01*
X61319500Y-60038485D01*
X61322488Y-60064238D01*
X61322488Y-60064239D01*
X61327113Y-60074713D01*
X61336185Y-60143991D01*
X61306362Y-60207176D01*
X61247113Y-60244208D01*
X61213679Y-60248800D01*
X59308999Y-60248800D01*
X58834881Y-60722919D01*
X58773558Y-60756404D01*
X58703866Y-60751420D01*
X58647933Y-60709548D01*
X58623516Y-60644084D01*
X58623200Y-60635238D01*
X58623200Y-57604200D01*
X58642885Y-57537161D01*
X58695689Y-57491406D01*
X58747200Y-57480200D01*
X59994800Y-57480200D01*
X61304681Y-56170319D01*
X61366004Y-56136834D01*
X61392362Y-56134000D01*
X63151273Y-56134000D01*
X63218312Y-56153685D01*
G37*
%TD.AperFunction*%
%TD*%
%TA.AperFunction,Conductor*%
%TO.N,GNDPWR*%
G36*
X76143039Y-51657885D02*
G01*
X76188794Y-51710689D01*
X76200000Y-51762200D01*
X76200000Y-54968600D01*
X76180315Y-55035639D01*
X76127511Y-55081394D01*
X76076000Y-55092600D01*
X68373800Y-55092600D01*
X68306761Y-55072915D01*
X68261006Y-55020111D01*
X68249800Y-54968600D01*
X68249800Y-51762200D01*
X68269485Y-51695161D01*
X68322289Y-51649406D01*
X68373800Y-51638200D01*
X76076000Y-51638200D01*
X76143039Y-51657885D01*
G37*
%TD.AperFunction*%
%TD*%
%TA.AperFunction,Conductor*%
%TO.N,GNDD*%
G36*
X87002339Y-56531543D02*
G01*
X87048094Y-56584347D01*
X87059300Y-56635858D01*
X87059300Y-57954548D01*
X87066128Y-57980030D01*
X87079779Y-58030977D01*
X87079781Y-58030980D01*
X87108095Y-58080020D01*
X87108097Y-58080022D01*
X87119342Y-58099500D01*
X87119343Y-58099501D01*
X88198181Y-59178338D01*
X88231666Y-59239661D01*
X88234500Y-59266019D01*
X88234500Y-69785800D01*
X88238946Y-69802393D01*
X88254979Y-69862229D01*
X88254981Y-69862232D01*
X88289336Y-69921735D01*
X88289337Y-69921739D01*
X88289338Y-69921739D01*
X88294539Y-69930749D01*
X88294541Y-69930751D01*
X89029231Y-70665440D01*
X89709251Y-71345460D01*
X89774809Y-71383310D01*
X89784813Y-71389086D01*
X89783712Y-71390991D01*
X89829156Y-71427605D01*
X89851227Y-71493897D01*
X89833953Y-71561598D01*
X89805971Y-71594187D01*
X89733590Y-71653589D01*
X89602317Y-71813547D01*
X89504769Y-71996043D01*
X89444699Y-72194067D01*
X89424417Y-72400000D01*
X89444699Y-72605932D01*
X89444700Y-72605934D01*
X89504768Y-72803954D01*
X89602315Y-72986450D01*
X89630481Y-73020771D01*
X89733589Y-73146410D01*
X89814951Y-73213181D01*
X89893550Y-73277685D01*
X90076046Y-73375232D01*
X90274066Y-73435300D01*
X90274065Y-73435300D01*
X90292529Y-73437118D01*
X90480000Y-73455583D01*
X90685934Y-73435300D01*
X90883954Y-73375232D01*
X91066450Y-73277685D01*
X91226410Y-73146410D01*
X91357685Y-72986450D01*
X91363597Y-72975388D01*
X91412558Y-72925545D01*
X91480696Y-72910084D01*
X91546376Y-72933915D01*
X91587517Y-72986391D01*
X91589979Y-72992336D01*
X91606397Y-73020771D01*
X91606398Y-73020775D01*
X91629535Y-73060850D01*
X91629539Y-73060855D01*
X91629540Y-73060857D01*
X92359143Y-73790460D01*
X92427666Y-73830022D01*
X92427668Y-73830023D01*
X92433607Y-73832483D01*
X92488011Y-73876322D01*
X92510078Y-73942616D01*
X92492800Y-74010316D01*
X92444612Y-74056402D01*
X92433548Y-74062315D01*
X92273589Y-74193589D01*
X92142317Y-74353547D01*
X92044769Y-74536043D01*
X91984699Y-74734067D01*
X91964417Y-74940000D01*
X91984699Y-75145932D01*
X91984700Y-75145934D01*
X92044768Y-75343954D01*
X92142315Y-75526450D01*
X92142317Y-75526452D01*
X92273589Y-75686410D01*
X92370209Y-75765702D01*
X92433550Y-75817685D01*
X92616046Y-75915232D01*
X92814066Y-75975300D01*
X92814065Y-75975300D01*
X92832529Y-75977118D01*
X93020000Y-75995583D01*
X93225934Y-75975300D01*
X93423954Y-75915232D01*
X93606450Y-75817685D01*
X93766410Y-75686410D01*
X93897685Y-75526450D01*
X93995232Y-75343954D01*
X94055300Y-75145934D01*
X94075583Y-74940000D01*
X94055300Y-74734066D01*
X94041933Y-74689999D01*
X94487471Y-74689999D01*
X94487472Y-74690000D01*
X95126988Y-74690000D01*
X95094075Y-74747007D01*
X95060000Y-74874174D01*
X95060000Y-75005826D01*
X95094075Y-75132993D01*
X95126988Y-75190000D01*
X94487472Y-75190000D01*
X94529885Y-75339065D01*
X94529890Y-75339078D01*
X94620754Y-75521556D01*
X94743608Y-75684242D01*
X94894260Y-75821578D01*
X95067584Y-75928897D01*
X95257678Y-76002539D01*
X95310000Y-76012320D01*
X95310000Y-75373012D01*
X95367007Y-75405925D01*
X95494174Y-75440000D01*
X95625826Y-75440000D01*
X95752993Y-75405925D01*
X95810000Y-75373012D01*
X95810000Y-76012320D01*
X95862321Y-76002539D01*
X96052415Y-75928897D01*
X96225739Y-75821578D01*
X96376391Y-75684242D01*
X96499245Y-75521556D01*
X96590109Y-75339078D01*
X96590114Y-75339065D01*
X96632528Y-75190000D01*
X95993012Y-75190000D01*
X96025925Y-75132993D01*
X96060000Y-75005826D01*
X96060000Y-74940000D01*
X97044417Y-74940000D01*
X97064699Y-75145932D01*
X97064700Y-75145934D01*
X97124768Y-75343954D01*
X97222315Y-75526450D01*
X97222317Y-75526452D01*
X97353589Y-75686410D01*
X97450209Y-75765702D01*
X97513550Y-75817685D01*
X97696046Y-75915232D01*
X97894066Y-75975300D01*
X97894065Y-75975300D01*
X97912529Y-75977118D01*
X98100000Y-75995583D01*
X98305934Y-75975300D01*
X98503954Y-75915232D01*
X98686450Y-75817685D01*
X98846410Y-75686410D01*
X98977685Y-75526450D01*
X99075232Y-75343954D01*
X99135300Y-75145934D01*
X99155583Y-74940000D01*
X99135300Y-74734066D01*
X99075232Y-74536046D01*
X98977685Y-74353550D01*
X98925702Y-74290209D01*
X98846410Y-74193589D01*
X98728677Y-74096969D01*
X98686450Y-74062315D01*
X98503954Y-73964768D01*
X98305934Y-73904700D01*
X98305932Y-73904699D01*
X98305934Y-73904699D01*
X98100000Y-73884417D01*
X97894067Y-73904699D01*
X97696043Y-73964769D01*
X97610832Y-74010316D01*
X97513550Y-74062315D01*
X97513548Y-74062316D01*
X97513547Y-74062317D01*
X97353589Y-74193589D01*
X97222317Y-74353547D01*
X97124769Y-74536043D01*
X97064699Y-74734067D01*
X97044417Y-74940000D01*
X96060000Y-74940000D01*
X96060000Y-74874174D01*
X96025925Y-74747007D01*
X95993012Y-74690000D01*
X96632528Y-74690000D01*
X96632528Y-74689999D01*
X96590114Y-74540934D01*
X96590109Y-74540921D01*
X96499245Y-74358443D01*
X96376391Y-74195757D01*
X96225739Y-74058421D01*
X96052413Y-73951101D01*
X95862315Y-73877458D01*
X95862309Y-73877456D01*
X95810001Y-73867677D01*
X95810000Y-73867679D01*
X95810000Y-74506988D01*
X95752993Y-74474075D01*
X95625826Y-74440000D01*
X95494174Y-74440000D01*
X95367007Y-74474075D01*
X95310000Y-74506988D01*
X95310000Y-73867679D01*
X95309998Y-73867677D01*
X95257690Y-73877456D01*
X95257684Y-73877458D01*
X95067586Y-73951101D01*
X94894260Y-74058421D01*
X94743608Y-74195757D01*
X94620754Y-74358443D01*
X94529890Y-74540921D01*
X94529885Y-74540934D01*
X94487471Y-74689999D01*
X94041933Y-74689999D01*
X93995232Y-74536046D01*
X93897685Y-74353550D01*
X93845702Y-74290209D01*
X93766410Y-74193589D01*
X93616246Y-74070354D01*
X93576911Y-74012608D01*
X93575040Y-73942763D01*
X93611227Y-73882995D01*
X93673983Y-73852279D01*
X93694910Y-73850500D01*
X94449560Y-73850500D01*
X94449562Y-73850500D01*
X94525989Y-73830021D01*
X94594511Y-73790460D01*
X94650460Y-73734511D01*
X94995672Y-73389297D01*
X95056995Y-73355813D01*
X95126686Y-73360797D01*
X95141805Y-73367620D01*
X95156046Y-73375232D01*
X95354066Y-73435300D01*
X95354065Y-73435300D01*
X95372529Y-73437118D01*
X95560000Y-73455583D01*
X95765934Y-73435300D01*
X95963954Y-73375232D01*
X96146450Y-73277685D01*
X96306410Y-73146410D01*
X96437685Y-72986450D01*
X96535232Y-72803954D01*
X96595300Y-72605934D01*
X96615583Y-72400000D01*
X96595300Y-72194066D01*
X96535232Y-71996046D01*
X96437685Y-71813550D01*
X96385702Y-71750209D01*
X96306410Y-71653589D01*
X96156121Y-71530252D01*
X96156115Y-71530247D01*
X97049500Y-71530247D01*
X97049500Y-73269752D01*
X97061131Y-73328229D01*
X97061132Y-73328230D01*
X97105447Y-73394552D01*
X97171769Y-73438867D01*
X97171770Y-73438868D01*
X97230247Y-73450499D01*
X97230250Y-73450500D01*
X97230252Y-73450500D01*
X98969750Y-73450500D01*
X98969751Y-73450499D01*
X98984568Y-73447552D01*
X99028229Y-73438868D01*
X99028229Y-73438867D01*
X99028231Y-73438867D01*
X99094552Y-73394552D01*
X99138867Y-73328231D01*
X99138867Y-73328229D01*
X99138868Y-73328229D01*
X99150499Y-73269752D01*
X99150500Y-73269750D01*
X99150500Y-71530249D01*
X99150499Y-71530247D01*
X99138868Y-71471770D01*
X99138867Y-71471769D01*
X99094552Y-71405447D01*
X99028230Y-71361132D01*
X99028229Y-71361131D01*
X98969752Y-71349500D01*
X98969748Y-71349500D01*
X97230252Y-71349500D01*
X97230247Y-71349500D01*
X97171770Y-71361131D01*
X97171769Y-71361132D01*
X97105447Y-71405447D01*
X97061132Y-71471769D01*
X97061131Y-71471770D01*
X97049500Y-71530247D01*
X96156115Y-71530247D01*
X96146450Y-71522315D01*
X95963954Y-71424768D01*
X95765934Y-71364700D01*
X95765932Y-71364699D01*
X95765934Y-71364699D01*
X95560000Y-71344417D01*
X95354067Y-71364699D01*
X95156043Y-71424769D01*
X95054577Y-71479005D01*
X94973550Y-71522315D01*
X94973548Y-71522316D01*
X94973547Y-71522317D01*
X94813589Y-71653589D01*
X94682317Y-71813547D01*
X94584769Y-71996043D01*
X94524699Y-72194067D01*
X94504417Y-72400000D01*
X94524699Y-72605932D01*
X94584769Y-72803956D01*
X94592379Y-72818193D01*
X94606620Y-72886596D01*
X94581619Y-72951840D01*
X94570702Y-72964326D01*
X94321846Y-73213182D01*
X94260526Y-73246666D01*
X94234167Y-73249500D01*
X93943982Y-73249500D01*
X93876943Y-73229815D01*
X93831188Y-73177011D01*
X93821244Y-73107853D01*
X93848129Y-73046835D01*
X93869519Y-73020771D01*
X93897685Y-72986450D01*
X93995232Y-72803954D01*
X94055300Y-72605934D01*
X94075583Y-72400000D01*
X94055300Y-72194066D01*
X93995232Y-71996046D01*
X93897685Y-71813550D01*
X93845702Y-71750209D01*
X93766410Y-71653589D01*
X93616121Y-71530252D01*
X93606450Y-71522315D01*
X93423954Y-71424768D01*
X93225934Y-71364700D01*
X93225932Y-71364699D01*
X93225934Y-71364699D01*
X93020000Y-71344417D01*
X92814067Y-71364699D01*
X92616039Y-71424770D01*
X92601800Y-71432381D01*
X92533397Y-71446620D01*
X92468154Y-71421616D01*
X92455672Y-71410701D01*
X91861186Y-70816215D01*
X91827701Y-70754892D01*
X91832685Y-70685200D01*
X91874557Y-70629267D01*
X91930991Y-70605829D01*
X91933249Y-70605500D01*
X91933260Y-70605500D01*
X92001393Y-70595573D01*
X92106483Y-70544198D01*
X92116053Y-70534628D01*
X94165000Y-70534628D01*
X94179503Y-70607540D01*
X94179505Y-70607544D01*
X94234760Y-70690239D01*
X94317455Y-70745494D01*
X94317459Y-70745496D01*
X94390371Y-70759999D01*
X94390374Y-70760000D01*
X94545000Y-70760000D01*
X95045000Y-70760000D01*
X95199626Y-70760000D01*
X95199628Y-70759999D01*
X95272540Y-70745496D01*
X95272544Y-70745494D01*
X95361109Y-70686318D01*
X95427787Y-70665440D01*
X95495167Y-70683925D01*
X95498891Y-70686318D01*
X95587455Y-70745494D01*
X95587459Y-70745496D01*
X95660371Y-70759999D01*
X95660374Y-70760000D01*
X95815000Y-70760000D01*
X96315000Y-70760000D01*
X96469626Y-70760000D01*
X96469628Y-70759999D01*
X96542540Y-70745496D01*
X96542544Y-70745494D01*
X96631109Y-70686318D01*
X96697787Y-70665440D01*
X96765167Y-70683925D01*
X96768891Y-70686318D01*
X96857455Y-70745494D01*
X96857459Y-70745496D01*
X96930371Y-70759999D01*
X96930374Y-70760000D01*
X97085000Y-70760000D01*
X97585000Y-70760000D01*
X97739626Y-70760000D01*
X97739628Y-70759999D01*
X97812540Y-70745496D01*
X97812544Y-70745494D01*
X97901109Y-70686318D01*
X97967787Y-70665440D01*
X98035167Y-70683925D01*
X98038891Y-70686318D01*
X98127455Y-70745494D01*
X98127459Y-70745496D01*
X98200371Y-70759999D01*
X98200374Y-70760000D01*
X98355000Y-70760000D01*
X98855000Y-70760000D01*
X99009626Y-70760000D01*
X99009628Y-70759999D01*
X99082540Y-70745496D01*
X99082544Y-70745494D01*
X99165239Y-70690239D01*
X99220494Y-70607544D01*
X99220496Y-70607540D01*
X99234999Y-70534628D01*
X99235000Y-70534626D01*
X99235000Y-69960000D01*
X98855000Y-69960000D01*
X98855000Y-70760000D01*
X98355000Y-70760000D01*
X98355000Y-69960000D01*
X97585000Y-69960000D01*
X97585000Y-70760000D01*
X97085000Y-70760000D01*
X97085000Y-69960000D01*
X96315000Y-69960000D01*
X96315000Y-70760000D01*
X95815000Y-70760000D01*
X95815000Y-69960000D01*
X95045000Y-69960000D01*
X95045000Y-70760000D01*
X94545000Y-70760000D01*
X94545000Y-69960000D01*
X94165000Y-69960000D01*
X94165000Y-70534628D01*
X92116053Y-70534628D01*
X92189198Y-70461483D01*
X92189198Y-70461481D01*
X92195168Y-70453122D01*
X92197240Y-70454601D01*
X92234297Y-70414033D01*
X92266483Y-70400295D01*
X92323489Y-70385021D01*
X92392011Y-70345460D01*
X92447960Y-70289511D01*
X92788151Y-69949318D01*
X92849474Y-69915834D01*
X92875832Y-69913000D01*
X92971962Y-69913000D01*
X92971962Y-69912999D01*
X93110053Y-69872453D01*
X93231128Y-69794643D01*
X93325377Y-69685873D01*
X93385165Y-69554957D01*
X93405647Y-69412500D01*
X93385165Y-69270043D01*
X93325377Y-69139127D01*
X93231128Y-69030357D01*
X93110053Y-68952547D01*
X93110051Y-68952546D01*
X93110049Y-68952545D01*
X93110050Y-68952545D01*
X92971963Y-68912000D01*
X92971961Y-68912000D01*
X92828039Y-68912000D01*
X92828036Y-68912000D01*
X92689949Y-68952545D01*
X92568873Y-69030356D01*
X92474623Y-69139126D01*
X92471595Y-69143839D01*
X92418790Y-69189593D01*
X92388218Y-69193988D01*
X92411128Y-69233773D01*
X92413328Y-69280516D01*
X92394353Y-69412499D01*
X92394353Y-69412501D01*
X92395661Y-69421603D01*
X92385713Y-69490761D01*
X92360603Y-69526924D01*
X92246489Y-69641038D01*
X92185166Y-69674523D01*
X92115474Y-69669539D01*
X92104348Y-69664758D01*
X92001391Y-69614426D01*
X91933261Y-69604500D01*
X91933260Y-69604500D01*
X90216740Y-69604500D01*
X90216739Y-69604500D01*
X90148608Y-69614426D01*
X90043514Y-69665803D01*
X89960803Y-69748514D01*
X89909425Y-69853609D01*
X89906584Y-69862807D01*
X89904470Y-69862153D01*
X89880760Y-69913807D01*
X89821909Y-69951467D01*
X89752039Y-69951332D01*
X89699523Y-69920104D01*
X89271819Y-69492400D01*
X89238334Y-69431077D01*
X89235500Y-69404719D01*
X89235500Y-68145248D01*
X89255185Y-68078209D01*
X89307989Y-68032454D01*
X89377147Y-68022510D01*
X89394435Y-68026271D01*
X89528038Y-68065500D01*
X89528039Y-68065500D01*
X89671962Y-68065500D01*
X89671962Y-68065499D01*
X89800309Y-68027814D01*
X89810050Y-68024954D01*
X89810051Y-68024954D01*
X89842348Y-68004198D01*
X89880752Y-67979517D01*
X89947789Y-67959833D01*
X90014829Y-67979517D01*
X90035474Y-67996155D01*
X90043517Y-68004198D01*
X90148607Y-68055573D01*
X90161229Y-68057412D01*
X90216739Y-68065500D01*
X90216740Y-68065500D01*
X91510167Y-68065500D01*
X91577206Y-68085185D01*
X91622961Y-68137989D01*
X91632905Y-68207147D01*
X91603880Y-68270703D01*
X91597848Y-68277181D01*
X91576848Y-68298181D01*
X91515525Y-68331666D01*
X91489167Y-68334500D01*
X90216739Y-68334500D01*
X90148608Y-68344426D01*
X90043514Y-68395803D01*
X89960803Y-68478514D01*
X89909426Y-68583608D01*
X89899500Y-68651739D01*
X89899500Y-69018260D01*
X89909426Y-69086391D01*
X89909427Y-69086393D01*
X89960143Y-69190136D01*
X89960803Y-69191485D01*
X90043514Y-69274196D01*
X90043515Y-69274196D01*
X90043517Y-69274198D01*
X90148607Y-69325573D01*
X90182416Y-69330499D01*
X90216739Y-69335500D01*
X90216740Y-69335500D01*
X91933261Y-69335500D01*
X91955971Y-69332191D01*
X92001393Y-69325573D01*
X92106483Y-69274198D01*
X92189198Y-69191483D01*
X92189202Y-69191472D01*
X92189664Y-69190828D01*
X92190545Y-69190136D01*
X92196464Y-69184218D01*
X92197178Y-69184932D01*
X92244635Y-69147700D01*
X92269886Y-69145317D01*
X92248303Y-69111732D01*
X92244576Y-69058920D01*
X92250500Y-69018260D01*
X92250500Y-68885371D01*
X94165000Y-68885371D01*
X94165000Y-69460000D01*
X94545000Y-69460000D01*
X95045000Y-69460000D01*
X95815000Y-69460000D01*
X96315000Y-69460000D01*
X97085000Y-69460000D01*
X97585000Y-69460000D01*
X98355000Y-69460000D01*
X98855000Y-69460000D01*
X99235000Y-69460000D01*
X99235000Y-68885373D01*
X99234999Y-68885371D01*
X99220496Y-68812459D01*
X99220494Y-68812455D01*
X99165239Y-68729760D01*
X99082544Y-68674505D01*
X99082540Y-68674503D01*
X99009627Y-68660000D01*
X98855000Y-68660000D01*
X98855000Y-69460000D01*
X98355000Y-69460000D01*
X98355000Y-68660000D01*
X98200373Y-68660000D01*
X98127459Y-68674503D01*
X98127456Y-68674504D01*
X98038890Y-68733682D01*
X97972212Y-68754559D01*
X97904832Y-68736074D01*
X97901110Y-68733682D01*
X97812543Y-68674504D01*
X97812540Y-68674503D01*
X97739627Y-68660000D01*
X97585000Y-68660000D01*
X97585000Y-69460000D01*
X97085000Y-69460000D01*
X97085000Y-68660000D01*
X96930373Y-68660000D01*
X96857459Y-68674503D01*
X96857456Y-68674504D01*
X96768890Y-68733682D01*
X96702212Y-68754559D01*
X96634832Y-68736074D01*
X96631110Y-68733682D01*
X96542543Y-68674504D01*
X96542540Y-68674503D01*
X96469627Y-68660000D01*
X96315000Y-68660000D01*
X96315000Y-69460000D01*
X95815000Y-69460000D01*
X95815000Y-68660000D01*
X95660373Y-68660000D01*
X95587459Y-68674503D01*
X95587456Y-68674504D01*
X95498890Y-68733682D01*
X95432212Y-68754559D01*
X95364832Y-68736074D01*
X95361110Y-68733682D01*
X95272543Y-68674504D01*
X95272540Y-68674503D01*
X95199627Y-68660000D01*
X95045000Y-68660000D01*
X95045000Y-69460000D01*
X94545000Y-69460000D01*
X94545000Y-68660000D01*
X94390373Y-68660000D01*
X94317459Y-68674503D01*
X94317455Y-68674505D01*
X94234760Y-68729760D01*
X94179505Y-68812455D01*
X94179503Y-68812459D01*
X94165000Y-68885371D01*
X92250500Y-68885371D01*
X92250500Y-68651745D01*
X92250500Y-68651740D01*
X92240573Y-68583607D01*
X92240572Y-68583604D01*
X92239225Y-68579245D01*
X92238238Y-68509383D01*
X92270014Y-68454955D01*
X92688151Y-68036819D01*
X92749474Y-68003334D01*
X92775832Y-68000500D01*
X92871962Y-68000500D01*
X92871962Y-68000499D01*
X93010053Y-67959953D01*
X93131128Y-67882143D01*
X93225377Y-67773373D01*
X93285165Y-67642457D01*
X93305647Y-67500000D01*
X93285165Y-67357543D01*
X93225377Y-67226627D01*
X93131128Y-67117857D01*
X93010053Y-67040047D01*
X93010051Y-67040046D01*
X93010049Y-67040045D01*
X93010050Y-67040045D01*
X92871963Y-66999500D01*
X92871961Y-66999500D01*
X92728039Y-66999500D01*
X92728036Y-66999500D01*
X92589949Y-67040045D01*
X92468873Y-67117856D01*
X92383177Y-67216754D01*
X92324398Y-67254528D01*
X92254529Y-67254528D01*
X92195751Y-67216753D01*
X92189508Y-67208826D01*
X92106485Y-67125803D01*
X92001389Y-67074425D01*
X91996517Y-67072920D01*
X91938276Y-67034322D01*
X91910150Y-66970363D01*
X91921066Y-66901352D01*
X91967561Y-66849198D01*
X92013728Y-66831973D01*
X92025149Y-66830164D01*
X92025155Y-66830162D01*
X92138041Y-66772643D01*
X92138050Y-66772636D01*
X92227636Y-66683050D01*
X92227639Y-66683046D01*
X92285166Y-66570143D01*
X92289149Y-66545000D01*
X89860851Y-66545000D01*
X89864833Y-66570143D01*
X89922360Y-66683046D01*
X89922363Y-66683050D01*
X90011949Y-66772636D01*
X90011953Y-66772639D01*
X90124853Y-66830164D01*
X90136270Y-66831973D01*
X90199406Y-66861902D01*
X90236337Y-66921213D01*
X90235341Y-66991076D01*
X90196731Y-67049309D01*
X90153486Y-67072919D01*
X90148609Y-67074426D01*
X90043513Y-67125803D01*
X90035468Y-67133849D01*
X89974144Y-67167332D01*
X89904453Y-67162345D01*
X89880752Y-67150481D01*
X89810053Y-67105046D01*
X89810050Y-67105045D01*
X89671963Y-67064500D01*
X89671961Y-67064500D01*
X89528039Y-67064500D01*
X89528035Y-67064500D01*
X89394434Y-67103728D01*
X89324564Y-67103728D01*
X89265786Y-67065953D01*
X89236762Y-67002397D01*
X89235500Y-66984751D01*
X89235500Y-66045000D01*
X89860851Y-66045000D01*
X90825000Y-66045000D01*
X91325000Y-66045000D01*
X92289148Y-66045000D01*
X92285166Y-66019856D01*
X92227639Y-65906953D01*
X92227636Y-65906949D01*
X92138050Y-65817363D01*
X92138046Y-65817360D01*
X92025144Y-65759833D01*
X91931486Y-65745000D01*
X91325000Y-65745000D01*
X91325000Y-66045000D01*
X90825000Y-66045000D01*
X90825000Y-65745000D01*
X90218520Y-65745000D01*
X90124850Y-65759835D01*
X90124844Y-65759837D01*
X90011958Y-65817356D01*
X90011949Y-65817363D01*
X89922363Y-65906949D01*
X89922360Y-65906953D01*
X89864833Y-66019856D01*
X89860851Y-66045000D01*
X89235500Y-66045000D01*
X89235500Y-64764832D01*
X89255185Y-64697793D01*
X89307989Y-64652038D01*
X89377147Y-64642094D01*
X89440703Y-64671119D01*
X89447181Y-64677151D01*
X89880103Y-65110073D01*
X89903359Y-65148640D01*
X89905198Y-65147742D01*
X89909426Y-65156392D01*
X89909427Y-65156393D01*
X89915302Y-65168411D01*
X89960803Y-65261485D01*
X90043514Y-65344196D01*
X90043515Y-65344196D01*
X90043517Y-65344198D01*
X90148607Y-65395573D01*
X90178772Y-65399968D01*
X90216739Y-65405500D01*
X90216740Y-65405500D01*
X91933261Y-65405500D01*
X91971228Y-65399968D01*
X92001393Y-65395573D01*
X92008919Y-65391893D01*
X92077790Y-65380131D01*
X92142089Y-65407470D01*
X92168484Y-65441776D01*
X92169829Y-65440913D01*
X92174622Y-65448371D01*
X92174623Y-65448373D01*
X92268872Y-65557143D01*
X92389947Y-65634953D01*
X92389950Y-65634954D01*
X92389949Y-65634954D01*
X92528036Y-65675499D01*
X92528038Y-65675500D01*
X92528039Y-65675500D01*
X92671962Y-65675500D01*
X92671962Y-65675499D01*
X92810053Y-65634953D01*
X92931128Y-65557143D01*
X93025377Y-65448373D01*
X93085165Y-65317457D01*
X93105647Y-65175000D01*
X93085165Y-65032543D01*
X93025377Y-64901627D01*
X93025375Y-64901625D01*
X93025374Y-64901622D01*
X92930787Y-64792462D01*
X92901762Y-64728906D01*
X92900500Y-64711260D01*
X92900500Y-64145440D01*
X92900500Y-64145439D01*
X92880021Y-64069012D01*
X92876984Y-64063752D01*
X92840464Y-64000496D01*
X92840458Y-64000488D01*
X92269895Y-63429925D01*
X92246645Y-63391357D01*
X92244802Y-63392259D01*
X92240573Y-63383608D01*
X92240573Y-63383607D01*
X92189198Y-63278517D01*
X92189196Y-63278515D01*
X92189196Y-63278514D01*
X92106485Y-63195803D01*
X92001389Y-63144425D01*
X91996517Y-63142920D01*
X91938276Y-63104322D01*
X91910150Y-63040363D01*
X91921066Y-62971352D01*
X91967561Y-62919198D01*
X92013728Y-62901973D01*
X92025149Y-62900164D01*
X92025155Y-62900162D01*
X92138041Y-62842643D01*
X92138050Y-62842636D01*
X92227636Y-62753050D01*
X92227639Y-62753046D01*
X92285166Y-62640143D01*
X92289149Y-62615000D01*
X89860851Y-62615000D01*
X89864833Y-62640143D01*
X89922360Y-62753046D01*
X89922363Y-62753050D01*
X90011949Y-62842636D01*
X90011953Y-62842639D01*
X90124853Y-62900164D01*
X90136270Y-62901973D01*
X90199406Y-62931902D01*
X90236337Y-62991213D01*
X90235341Y-63061076D01*
X90196731Y-63119309D01*
X90153486Y-63142919D01*
X90148609Y-63144426D01*
X90043516Y-63195802D01*
X89970471Y-63268847D01*
X89909147Y-63302331D01*
X89839456Y-63297346D01*
X89815752Y-63285481D01*
X89745053Y-63240046D01*
X89745050Y-63240045D01*
X89606963Y-63199500D01*
X89606961Y-63199500D01*
X89463039Y-63199500D01*
X89463035Y-63199500D01*
X89394434Y-63219643D01*
X89324564Y-63219643D01*
X89265786Y-63181868D01*
X89236762Y-63118312D01*
X89235500Y-63100666D01*
X89235500Y-60845000D01*
X89860851Y-60845000D01*
X90825000Y-60845000D01*
X90825000Y-60545000D01*
X90218520Y-60545000D01*
X90124850Y-60559835D01*
X90124844Y-60559837D01*
X90011958Y-60617356D01*
X90011949Y-60617363D01*
X89922363Y-60706949D01*
X89922360Y-60706953D01*
X89864833Y-60819856D01*
X89860851Y-60845000D01*
X89235500Y-60845000D01*
X89235500Y-59484146D01*
X90350000Y-59484146D01*
X90356241Y-59542187D01*
X90405232Y-59673537D01*
X90489241Y-59785758D01*
X90601462Y-59869767D01*
X90732812Y-59918758D01*
X90790853Y-59924999D01*
X90790870Y-59925000D01*
X90887500Y-59925000D01*
X90887500Y-59450000D01*
X90350000Y-59450000D01*
X90350000Y-59484146D01*
X89235500Y-59484146D01*
X89235500Y-58884940D01*
X89235499Y-58884936D01*
X89232554Y-58873946D01*
X89226065Y-58849726D01*
X89215022Y-58808512D01*
X89175460Y-58739989D01*
X88096952Y-57661481D01*
X88063467Y-57600158D01*
X88068451Y-57530466D01*
X88110323Y-57474533D01*
X88175787Y-57450116D01*
X88184633Y-57449800D01*
X88739950Y-57449800D01*
X88739951Y-57449799D01*
X88755025Y-57446801D01*
X88798429Y-57438168D01*
X88798429Y-57438167D01*
X88798431Y-57438167D01*
X88864752Y-57393852D01*
X88909067Y-57327531D01*
X88909068Y-57327525D01*
X88910439Y-57324218D01*
X88915366Y-57318103D01*
X88915852Y-57317377D01*
X88915916Y-57317420D01*
X88954281Y-57269815D01*
X89020575Y-57247751D01*
X89088274Y-57265031D01*
X89135884Y-57316168D01*
X89139561Y-57324218D01*
X89140934Y-57327533D01*
X89185247Y-57393852D01*
X89251569Y-57438167D01*
X89251570Y-57438168D01*
X89310047Y-57449799D01*
X89310050Y-57449800D01*
X89310052Y-57449800D01*
X89714367Y-57449800D01*
X89781406Y-57469485D01*
X89802048Y-57486119D01*
X90643252Y-58327323D01*
X90676737Y-58388646D01*
X90671753Y-58458338D01*
X90629881Y-58514271D01*
X90609059Y-58525642D01*
X90609246Y-58525983D01*
X90601463Y-58530232D01*
X90489241Y-58614241D01*
X90405232Y-58726462D01*
X90356241Y-58857812D01*
X90350000Y-58915853D01*
X90350000Y-58950000D01*
X91263500Y-58950000D01*
X91330539Y-58969685D01*
X91376294Y-59022489D01*
X91387500Y-59074000D01*
X91387500Y-59925000D01*
X91484130Y-59925000D01*
X91484146Y-59924999D01*
X91542187Y-59918758D01*
X91673537Y-59869767D01*
X91785758Y-59785758D01*
X91869767Y-59673536D01*
X91869767Y-59673535D01*
X91910473Y-59564401D01*
X91952345Y-59508467D01*
X92017809Y-59484050D01*
X92086082Y-59498902D01*
X92135487Y-59548307D01*
X92143696Y-59566778D01*
X92170884Y-59644476D01*
X92249288Y-59750710D01*
X92249289Y-59750711D01*
X92355523Y-59829115D01*
X92355524Y-59829115D01*
X92355525Y-59829116D01*
X92480151Y-59872725D01*
X92480150Y-59872725D01*
X92509740Y-59875500D01*
X92509744Y-59875500D01*
X93215260Y-59875500D01*
X93244849Y-59872725D01*
X93253302Y-59869767D01*
X93369475Y-59829116D01*
X93438059Y-59778498D01*
X93503685Y-59754529D01*
X93571855Y-59769844D01*
X93615207Y-59813790D01*
X93616729Y-59812813D01*
X93621523Y-59820273D01*
X93715772Y-59929043D01*
X93836847Y-60006853D01*
X93836850Y-60006854D01*
X93836849Y-60006854D01*
X93974936Y-60047399D01*
X93974938Y-60047400D01*
X93974939Y-60047400D01*
X93975500Y-60047400D01*
X93976039Y-60047558D01*
X93983716Y-60048662D01*
X93983557Y-60049765D01*
X94042539Y-60067085D01*
X94088294Y-60119889D01*
X94099500Y-60171400D01*
X94099500Y-60275500D01*
X94079815Y-60342539D01*
X94027011Y-60388294D01*
X93975500Y-60399500D01*
X93260438Y-60399500D01*
X93209486Y-60413152D01*
X93184010Y-60419979D01*
X93144519Y-60442779D01*
X93123355Y-60454999D01*
X93115485Y-60459542D01*
X92811847Y-60763181D01*
X92750524Y-60796666D01*
X92724166Y-60799500D01*
X92628036Y-60799500D01*
X92489950Y-60840045D01*
X92458731Y-60860108D01*
X92391691Y-60879791D01*
X92324652Y-60860105D01*
X92281208Y-60812086D01*
X92227640Y-60706954D01*
X92227636Y-60706949D01*
X92138050Y-60617363D01*
X92138046Y-60617360D01*
X92025144Y-60559833D01*
X91931486Y-60545000D01*
X91325000Y-60545000D01*
X91325000Y-61221000D01*
X91305315Y-61288039D01*
X91252511Y-61333794D01*
X91201000Y-61345000D01*
X89860851Y-61345000D01*
X89864833Y-61370143D01*
X89922360Y-61483046D01*
X89922363Y-61483050D01*
X90011949Y-61572636D01*
X90011956Y-61572641D01*
X90103950Y-61619514D01*
X90154747Y-61667488D01*
X90171542Y-61735309D01*
X90149005Y-61801444D01*
X90103952Y-61840483D01*
X90011956Y-61887358D01*
X90011949Y-61887363D01*
X89922363Y-61976949D01*
X89922360Y-61976953D01*
X89864833Y-62089856D01*
X89860851Y-62115000D01*
X92289148Y-62115000D01*
X92285166Y-62089856D01*
X92227639Y-61976953D01*
X92227636Y-61976949D01*
X92138050Y-61887363D01*
X92138046Y-61887360D01*
X92046048Y-61840485D01*
X91995252Y-61792511D01*
X91978457Y-61724690D01*
X92000994Y-61658555D01*
X92046048Y-61619515D01*
X92145889Y-61568643D01*
X92214558Y-61555747D01*
X92279298Y-61582023D01*
X92295897Y-61597925D01*
X92368872Y-61682143D01*
X92489947Y-61759953D01*
X92489950Y-61759954D01*
X92489949Y-61759954D01*
X92628036Y-61800499D01*
X92628038Y-61800500D01*
X92628039Y-61800500D01*
X92771962Y-61800500D01*
X92771962Y-61800499D01*
X92898743Y-61763274D01*
X92910050Y-61759954D01*
X92910050Y-61759953D01*
X92910053Y-61759953D01*
X93031128Y-61682143D01*
X93056288Y-61653106D01*
X93115065Y-61615333D01*
X93184935Y-61615333D01*
X93243711Y-61653106D01*
X93268872Y-61682143D01*
X93389947Y-61759953D01*
X93389950Y-61759954D01*
X93389949Y-61759954D01*
X93528036Y-61800499D01*
X93528038Y-61800500D01*
X93528039Y-61800500D01*
X93671962Y-61800500D01*
X93671962Y-61800499D01*
X93810053Y-61759953D01*
X93865966Y-61724019D01*
X93933002Y-61704336D01*
X94000041Y-61724020D01*
X94020684Y-61740655D01*
X94178181Y-61898152D01*
X94211666Y-61959475D01*
X94214500Y-61985833D01*
X94214500Y-62909752D01*
X94226131Y-62968229D01*
X94226132Y-62968230D01*
X94270447Y-63034552D01*
X94336769Y-63078867D01*
X94336770Y-63078868D01*
X94394691Y-63090389D01*
X94456602Y-63122773D01*
X94491176Y-63183489D01*
X94494500Y-63212006D01*
X94494500Y-66236260D01*
X94474815Y-66303299D01*
X94464213Y-66317462D01*
X94369625Y-66426622D01*
X94369622Y-66426628D01*
X94309834Y-66557543D01*
X94289353Y-66700000D01*
X94309834Y-66842456D01*
X94345802Y-66921213D01*
X94369623Y-66973373D01*
X94463872Y-67082143D01*
X94584947Y-67159953D01*
X94584950Y-67159954D01*
X94584949Y-67159954D01*
X94692107Y-67191417D01*
X94713506Y-67197701D01*
X94723036Y-67200499D01*
X94723038Y-67200500D01*
X94723039Y-67200500D01*
X94866962Y-67200500D01*
X94866962Y-67200499D01*
X95005053Y-67159953D01*
X95126128Y-67082143D01*
X95220377Y-66973373D01*
X95280165Y-66842457D01*
X95300647Y-66700000D01*
X95280165Y-66557543D01*
X95220377Y-66426627D01*
X95220375Y-66426625D01*
X95220374Y-66426622D01*
X95125787Y-66317462D01*
X95096762Y-66253906D01*
X95095500Y-66236260D01*
X95095500Y-64079514D01*
X95115185Y-64012475D01*
X95167989Y-63966720D01*
X95237147Y-63956776D01*
X95254434Y-63960537D01*
X95363337Y-63992513D01*
X95390525Y-64000496D01*
X95390536Y-64000499D01*
X95390538Y-64000500D01*
X95390539Y-64000500D01*
X95534461Y-64000500D01*
X95605566Y-63979622D01*
X95675435Y-63979622D01*
X95734213Y-64017396D01*
X95763238Y-64080952D01*
X95764500Y-64098599D01*
X95764500Y-66236260D01*
X95744815Y-66303299D01*
X95734213Y-66317462D01*
X95639625Y-66426622D01*
X95639622Y-66426628D01*
X95579834Y-66557543D01*
X95559353Y-66700000D01*
X95579834Y-66842456D01*
X95615802Y-66921213D01*
X95639623Y-66973373D01*
X95733872Y-67082143D01*
X95854947Y-67159953D01*
X95854950Y-67159954D01*
X95854949Y-67159954D01*
X95962107Y-67191417D01*
X95983506Y-67197701D01*
X95993036Y-67200499D01*
X95993038Y-67200500D01*
X95993039Y-67200500D01*
X96136962Y-67200500D01*
X96136962Y-67200499D01*
X96275053Y-67159953D01*
X96396128Y-67082143D01*
X96490377Y-66973373D01*
X96550165Y-66842457D01*
X96570647Y-66700000D01*
X96550165Y-66557543D01*
X96490377Y-66426627D01*
X96490375Y-66426625D01*
X96490374Y-66426622D01*
X96395787Y-66317462D01*
X96366762Y-66253906D01*
X96365500Y-66236260D01*
X96365500Y-63212006D01*
X96385185Y-63144967D01*
X96437989Y-63099212D01*
X96465309Y-63090389D01*
X96523229Y-63078868D01*
X96523229Y-63078867D01*
X96523231Y-63078867D01*
X96589552Y-63034552D01*
X96596897Y-63023558D01*
X96650509Y-62978754D01*
X96719834Y-62970045D01*
X96782862Y-63000200D01*
X96803103Y-63023559D01*
X96810448Y-63034552D01*
X96876769Y-63078867D01*
X96876770Y-63078868D01*
X96934691Y-63090389D01*
X96996602Y-63122773D01*
X97031176Y-63183489D01*
X97034500Y-63212006D01*
X97034500Y-66236260D01*
X97014815Y-66303299D01*
X97004213Y-66317462D01*
X96909625Y-66426622D01*
X96909622Y-66426628D01*
X96849834Y-66557543D01*
X96829353Y-66700000D01*
X96849834Y-66842456D01*
X96885802Y-66921213D01*
X96909623Y-66973373D01*
X97003872Y-67082143D01*
X97124947Y-67159953D01*
X97124950Y-67159954D01*
X97124949Y-67159954D01*
X97232107Y-67191417D01*
X97253506Y-67197701D01*
X97263036Y-67200499D01*
X97263038Y-67200500D01*
X97263039Y-67200500D01*
X97406962Y-67200500D01*
X97406962Y-67200499D01*
X97545053Y-67159953D01*
X97666128Y-67082143D01*
X97760377Y-66973373D01*
X97820165Y-66842457D01*
X97840647Y-66700000D01*
X97820165Y-66557543D01*
X97760377Y-66426627D01*
X97760375Y-66426625D01*
X97760374Y-66426622D01*
X97665787Y-66317462D01*
X97636762Y-66253906D01*
X97635500Y-66236260D01*
X97635500Y-63212006D01*
X97655185Y-63144967D01*
X97707989Y-63099212D01*
X97735309Y-63090389D01*
X97793229Y-63078868D01*
X97793229Y-63078867D01*
X97793231Y-63078867D01*
X97859552Y-63034552D01*
X97866897Y-63023558D01*
X97920509Y-62978754D01*
X97989834Y-62970045D01*
X98052862Y-63000200D01*
X98073103Y-63023559D01*
X98080448Y-63034552D01*
X98146769Y-63078867D01*
X98146770Y-63078868D01*
X98204691Y-63090389D01*
X98266602Y-63122773D01*
X98301176Y-63183489D01*
X98304500Y-63212006D01*
X98304500Y-66236260D01*
X98284815Y-66303299D01*
X98274213Y-66317462D01*
X98179625Y-66426622D01*
X98179622Y-66426628D01*
X98119834Y-66557543D01*
X98099353Y-66700000D01*
X98119834Y-66842456D01*
X98155802Y-66921213D01*
X98179623Y-66973373D01*
X98273872Y-67082143D01*
X98394947Y-67159953D01*
X98394950Y-67159954D01*
X98394949Y-67159954D01*
X98502107Y-67191417D01*
X98523506Y-67197701D01*
X98533036Y-67200499D01*
X98533038Y-67200500D01*
X98533039Y-67200500D01*
X98676962Y-67200500D01*
X98676962Y-67200499D01*
X98815053Y-67159953D01*
X98936128Y-67082143D01*
X99030377Y-66973373D01*
X99090165Y-66842457D01*
X99110647Y-66700000D01*
X99090165Y-66557543D01*
X99030377Y-66426627D01*
X99030375Y-66426625D01*
X99030374Y-66426622D01*
X98935787Y-66317462D01*
X98906762Y-66253906D01*
X98905500Y-66236260D01*
X98905500Y-63212006D01*
X98925185Y-63144967D01*
X98977989Y-63099212D01*
X99005309Y-63090389D01*
X99063229Y-63078868D01*
X99063229Y-63078867D01*
X99063231Y-63078867D01*
X99129552Y-63034552D01*
X99173867Y-62968231D01*
X99173867Y-62968229D01*
X99173868Y-62968229D01*
X99185499Y-62909752D01*
X99185500Y-62909750D01*
X99185500Y-61270249D01*
X99185499Y-61270247D01*
X99173868Y-61211770D01*
X99173867Y-61211769D01*
X99129552Y-61145447D01*
X99063230Y-61101132D01*
X99038013Y-61096116D01*
X98976102Y-61063731D01*
X98941528Y-61003015D01*
X98945269Y-60933245D01*
X98986135Y-60876574D01*
X99051154Y-60850992D01*
X99062196Y-60850499D01*
X99371948Y-60850499D01*
X99375500Y-60850499D01*
X99442539Y-60870184D01*
X99488294Y-60922988D01*
X99499500Y-60974499D01*
X99499500Y-76495572D01*
X99499184Y-76504417D01*
X99497799Y-76523779D01*
X99484869Y-76704557D01*
X99482351Y-76722068D01*
X99440646Y-76913787D01*
X99435662Y-76930763D01*
X99367090Y-77114609D01*
X99359740Y-77130701D01*
X99265711Y-77302904D01*
X99256146Y-77317789D01*
X99138558Y-77474867D01*
X99126972Y-77488237D01*
X98988237Y-77626972D01*
X98974867Y-77638558D01*
X98817789Y-77756146D01*
X98802904Y-77765711D01*
X98630701Y-77859740D01*
X98614609Y-77867090D01*
X98430763Y-77935662D01*
X98413787Y-77940646D01*
X98222068Y-77982351D01*
X98204557Y-77984869D01*
X98023779Y-77997799D01*
X98004417Y-77999184D01*
X97995572Y-77999500D01*
X87144400Y-77999500D01*
X87077361Y-77979815D01*
X87031606Y-77927011D01*
X87020400Y-77875500D01*
X87020400Y-74940000D01*
X89424417Y-74940000D01*
X89444699Y-75145932D01*
X89444700Y-75145934D01*
X89504768Y-75343954D01*
X89602315Y-75526450D01*
X89602317Y-75526452D01*
X89733589Y-75686410D01*
X89830209Y-75765702D01*
X89893550Y-75817685D01*
X90076046Y-75915232D01*
X90274066Y-75975300D01*
X90274065Y-75975300D01*
X90292529Y-75977118D01*
X90480000Y-75995583D01*
X90685934Y-75975300D01*
X90883954Y-75915232D01*
X91066450Y-75817685D01*
X91226410Y-75686410D01*
X91357685Y-75526450D01*
X91455232Y-75343954D01*
X91515300Y-75145934D01*
X91535583Y-74940000D01*
X91515300Y-74734066D01*
X91455232Y-74536046D01*
X91357685Y-74353550D01*
X91305702Y-74290209D01*
X91226410Y-74193589D01*
X91108677Y-74096969D01*
X91066450Y-74062315D01*
X90883954Y-73964768D01*
X90685934Y-73904700D01*
X90685932Y-73904699D01*
X90685934Y-73904699D01*
X90480000Y-73884417D01*
X90274067Y-73904699D01*
X90076043Y-73964769D01*
X89990832Y-74010316D01*
X89893550Y-74062315D01*
X89893548Y-74062316D01*
X89893547Y-74062317D01*
X89733589Y-74193589D01*
X89602317Y-74353547D01*
X89504769Y-74536043D01*
X89444699Y-74734067D01*
X89424417Y-74940000D01*
X87020400Y-74940000D01*
X87020400Y-71574200D01*
X87040085Y-71507161D01*
X87092889Y-71461406D01*
X87144400Y-71450200D01*
X87934800Y-71450200D01*
X87934800Y-60756800D01*
X85775800Y-58597800D01*
X81610762Y-58597800D01*
X81543723Y-58578115D01*
X81523081Y-58561481D01*
X80808319Y-57846719D01*
X80774834Y-57785396D01*
X80772000Y-57759038D01*
X80772000Y-57690495D01*
X80791685Y-57623456D01*
X80844489Y-57577701D01*
X80913647Y-57567757D01*
X80969630Y-57590723D01*
X81055525Y-57654116D01*
X81180151Y-57697725D01*
X81180150Y-57697725D01*
X81209740Y-57700500D01*
X81209744Y-57700500D01*
X81711667Y-57700500D01*
X81778706Y-57720185D01*
X81799348Y-57736819D01*
X82047040Y-57984511D01*
X82102989Y-58040460D01*
X82102991Y-58040461D01*
X82102995Y-58040464D01*
X82159996Y-58073373D01*
X82171511Y-58080021D01*
X82247938Y-58100500D01*
X82247940Y-58100500D01*
X84953560Y-58100500D01*
X84953562Y-58100500D01*
X85029989Y-58080021D01*
X85098511Y-58040460D01*
X85154460Y-57984511D01*
X86502151Y-56636818D01*
X86563474Y-56603334D01*
X86589832Y-56600500D01*
X86685962Y-56600500D01*
X86685962Y-56600499D01*
X86824053Y-56559953D01*
X86824055Y-56559952D01*
X86868261Y-56531543D01*
X86935300Y-56511858D01*
X87002339Y-56531543D01*
G37*
%TD.AperFunction*%
%TA.AperFunction,Conductor*%
G36*
X96745903Y-54711820D02*
G01*
X96752381Y-54717852D01*
X97925616Y-55891087D01*
X97994139Y-55930649D01*
X98070565Y-55951127D01*
X98149689Y-55951127D01*
X98786274Y-55951127D01*
X98853313Y-55970811D01*
X98967747Y-56044353D01*
X98967750Y-56044354D01*
X98967749Y-56044354D01*
X99105836Y-56084899D01*
X99105838Y-56084900D01*
X99105839Y-56084900D01*
X99249761Y-56084900D01*
X99340565Y-56058238D01*
X99410435Y-56058238D01*
X99469213Y-56096012D01*
X99498238Y-56159568D01*
X99499500Y-56177215D01*
X99499500Y-57476052D01*
X99479815Y-57543091D01*
X99427011Y-57588846D01*
X99374837Y-57598074D01*
X99374837Y-57600000D01*
X98753552Y-57600000D01*
X98975000Y-57821447D01*
X99240871Y-58087318D01*
X99274356Y-58148641D01*
X99269372Y-58218333D01*
X99240871Y-58262680D01*
X98753552Y-58749998D01*
X98753553Y-58749999D01*
X99374836Y-58749999D01*
X99374836Y-58752261D01*
X99434027Y-58764627D01*
X99483838Y-58813623D01*
X99499500Y-58873946D01*
X99499500Y-59675500D01*
X99479815Y-59742539D01*
X99427011Y-59788294D01*
X99375500Y-59799500D01*
X98578049Y-59799500D01*
X98507493Y-59809779D01*
X98398650Y-59862989D01*
X98312990Y-59948650D01*
X98312988Y-59948652D01*
X98309903Y-59954963D01*
X98262774Y-60006544D01*
X98198504Y-60024500D01*
X95601496Y-60024500D01*
X95534457Y-60004815D01*
X95490097Y-59954963D01*
X95489313Y-59953360D01*
X95487012Y-59948653D01*
X95487011Y-59948652D01*
X95487010Y-59948650D01*
X95401348Y-59862988D01*
X95292511Y-59809780D01*
X95274869Y-59807210D01*
X95221949Y-59799500D01*
X95221943Y-59799500D01*
X94775833Y-59799500D01*
X94708794Y-59779815D01*
X94688152Y-59763181D01*
X94586295Y-59661324D01*
X94552810Y-59600001D01*
X94551239Y-59555994D01*
X94552547Y-59546900D01*
X94532065Y-59404443D01*
X94472277Y-59273527D01*
X94378028Y-59164757D01*
X94256953Y-59086947D01*
X94256951Y-59086946D01*
X94256949Y-59086945D01*
X94256950Y-59086945D01*
X94118863Y-59046400D01*
X94118861Y-59046400D01*
X94022733Y-59046400D01*
X93955694Y-59026715D01*
X93935052Y-59010081D01*
X93884512Y-58959541D01*
X93884504Y-58959535D01*
X93815995Y-58919982D01*
X93815990Y-58919979D01*
X93777792Y-58909744D01*
X93739562Y-58899500D01*
X93739560Y-58899500D01*
X93692478Y-58899500D01*
X93625439Y-58879815D01*
X93579684Y-58827011D01*
X93575437Y-58816455D01*
X93554116Y-58755524D01*
X93554115Y-58755523D01*
X93550038Y-58749999D01*
X94603553Y-58749999D01*
X95046446Y-58749999D01*
X95046446Y-58749998D01*
X94825001Y-58528553D01*
X94603553Y-58749999D01*
X93550038Y-58749999D01*
X93475711Y-58649289D01*
X93475710Y-58649288D01*
X93369476Y-58570884D01*
X93244848Y-58527274D01*
X93244849Y-58527274D01*
X93215260Y-58524500D01*
X93215256Y-58524500D01*
X92971528Y-58524500D01*
X92904489Y-58504815D01*
X92858734Y-58452011D01*
X92848790Y-58382853D01*
X92877815Y-58319297D01*
X92936593Y-58281523D01*
X92936594Y-58281523D01*
X93010050Y-58259954D01*
X93010050Y-58259953D01*
X93010053Y-58259953D01*
X93131128Y-58182143D01*
X93156288Y-58153106D01*
X93215065Y-58115333D01*
X93284935Y-58115333D01*
X93343711Y-58153106D01*
X93368872Y-58182143D01*
X93489947Y-58259953D01*
X93489950Y-58259954D01*
X93489949Y-58259954D01*
X93628036Y-58300499D01*
X93628038Y-58300500D01*
X93628039Y-58300500D01*
X93771961Y-58300500D01*
X93891809Y-58265310D01*
X93961679Y-58265310D01*
X94020457Y-58303084D01*
X94048831Y-58365216D01*
X94049238Y-58365152D01*
X94049469Y-58366612D01*
X94049482Y-58366640D01*
X94049502Y-58366819D01*
X94065298Y-58466556D01*
X94065299Y-58466560D01*
X94103976Y-58542469D01*
X94471447Y-58174999D01*
X95178553Y-58174999D01*
X95178553Y-58175001D01*
X95546021Y-58542469D01*
X95584702Y-58466555D01*
X95584702Y-58466554D01*
X95599999Y-58369965D01*
X95599999Y-57980034D01*
X98200000Y-57980034D01*
X98200000Y-58369969D01*
X98215298Y-58466556D01*
X98215299Y-58466560D01*
X98253976Y-58542469D01*
X98253977Y-58542469D01*
X98621447Y-58175000D01*
X98253976Y-57807529D01*
X98215298Y-57883442D01*
X98200000Y-57980034D01*
X95599999Y-57980034D01*
X95599999Y-57980030D01*
X95584702Y-57883446D01*
X95584701Y-57883442D01*
X95546021Y-57807529D01*
X95178553Y-58174999D01*
X94471447Y-58174999D01*
X94825000Y-57821447D01*
X95048888Y-57597557D01*
X95042630Y-57539353D01*
X95073904Y-57476873D01*
X95133993Y-57441220D01*
X95140466Y-57439751D01*
X95148431Y-57438167D01*
X95214752Y-57393852D01*
X95259067Y-57327531D01*
X95259068Y-57327525D01*
X95260439Y-57324218D01*
X95265366Y-57318103D01*
X95265852Y-57317377D01*
X95265916Y-57317420D01*
X95304281Y-57269815D01*
X95370575Y-57247751D01*
X95438274Y-57265031D01*
X95485884Y-57316168D01*
X95489561Y-57324218D01*
X95490934Y-57327533D01*
X95535247Y-57393852D01*
X95601569Y-57438167D01*
X95601570Y-57438168D01*
X95660047Y-57449799D01*
X95660050Y-57449800D01*
X95660052Y-57449800D01*
X96359950Y-57449800D01*
X96359951Y-57449799D01*
X96375025Y-57446801D01*
X96418429Y-57438168D01*
X96418429Y-57438167D01*
X96418431Y-57438167D01*
X96484752Y-57393852D01*
X96529067Y-57327531D01*
X96529067Y-57327529D01*
X96529068Y-57327529D01*
X96540699Y-57269052D01*
X96540700Y-57269050D01*
X96540700Y-54805533D01*
X96560385Y-54738494D01*
X96613189Y-54692739D01*
X96682347Y-54682795D01*
X96745903Y-54711820D01*
G37*
%TD.AperFunction*%
%TA.AperFunction,Conductor*%
G36*
X82499990Y-50520185D02*
G01*
X82545745Y-50572989D01*
X82555689Y-50642147D01*
X82534369Y-50693616D01*
X82534483Y-50693679D01*
X82533904Y-50694738D01*
X82532218Y-50698810D01*
X82530234Y-50701459D01*
X82530233Y-50701462D01*
X82481241Y-50832812D01*
X82475000Y-50890853D01*
X82475000Y-50975000D01*
X83925000Y-50975000D01*
X83925000Y-50890870D01*
X83924999Y-50890853D01*
X83918758Y-50832812D01*
X83869766Y-50701462D01*
X83869765Y-50701459D01*
X83867782Y-50698810D01*
X83866625Y-50695708D01*
X83865517Y-50693679D01*
X83865808Y-50693519D01*
X83843365Y-50633346D01*
X83858217Y-50565073D01*
X83907622Y-50515668D01*
X83967049Y-50500500D01*
X88455667Y-50500500D01*
X88522706Y-50520185D01*
X88568461Y-50572989D01*
X88578405Y-50642147D01*
X88549380Y-50705703D01*
X88543348Y-50712181D01*
X88541648Y-50713881D01*
X88480325Y-50747366D01*
X88453967Y-50750200D01*
X88040047Y-50750200D01*
X87981570Y-50761831D01*
X87981569Y-50761832D01*
X87915247Y-50806147D01*
X87870932Y-50872469D01*
X87870931Y-50872470D01*
X87859300Y-50930947D01*
X87859300Y-53488862D01*
X87839615Y-53555901D01*
X87786811Y-53601656D01*
X87717653Y-53611600D01*
X87700368Y-53607840D01*
X87671962Y-53599500D01*
X87671961Y-53599500D01*
X87528039Y-53599500D01*
X87528036Y-53599500D01*
X87389949Y-53640045D01*
X87268872Y-53717856D01*
X87243712Y-53746893D01*
X87184933Y-53784667D01*
X87115064Y-53784666D01*
X87056288Y-53746893D01*
X87031127Y-53717856D01*
X86959300Y-53671696D01*
X86910053Y-53640047D01*
X86910051Y-53640046D01*
X86910049Y-53640045D01*
X86910050Y-53640045D01*
X86771963Y-53599500D01*
X86771961Y-53599500D01*
X86628039Y-53599500D01*
X86628036Y-53599500D01*
X86489949Y-53640045D01*
X86368873Y-53717856D01*
X86274623Y-53826626D01*
X86274622Y-53826628D01*
X86214834Y-53957543D01*
X86194353Y-54100000D01*
X86214834Y-54242456D01*
X86274622Y-54373371D01*
X86274623Y-54373373D01*
X86368872Y-54482143D01*
X86427001Y-54519500D01*
X86472755Y-54572303D01*
X86482699Y-54641461D01*
X86453674Y-54705017D01*
X86411478Y-54736607D01*
X86403949Y-54740045D01*
X86282873Y-54817856D01*
X86188623Y-54926626D01*
X86188622Y-54926628D01*
X86128834Y-55057543D01*
X86108353Y-55200000D01*
X86108353Y-55200001D01*
X86109661Y-55209103D01*
X86099713Y-55278261D01*
X86074603Y-55314424D01*
X84713348Y-56675681D01*
X84652025Y-56709166D01*
X84625667Y-56712000D01*
X83971852Y-56712000D01*
X83904813Y-56692315D01*
X83859058Y-56639511D01*
X83854811Y-56628955D01*
X83839201Y-56584347D01*
X83829116Y-56555525D01*
X83750711Y-56449289D01*
X83745363Y-56445342D01*
X83644476Y-56370884D01*
X83519848Y-56327274D01*
X83519849Y-56327274D01*
X83490260Y-56324500D01*
X83490256Y-56324500D01*
X82909744Y-56324500D01*
X82909740Y-56324500D01*
X82880150Y-56327274D01*
X82755523Y-56370884D01*
X82649289Y-56449288D01*
X82649288Y-56449289D01*
X82570884Y-56555523D01*
X82527274Y-56680150D01*
X82524500Y-56709739D01*
X82524500Y-57312667D01*
X82504815Y-57379706D01*
X82452011Y-57425461D01*
X82382853Y-57435405D01*
X82319297Y-57406380D01*
X82312819Y-57400348D01*
X82211819Y-57299348D01*
X82178334Y-57238025D01*
X82175500Y-57211667D01*
X82175500Y-56709739D01*
X82172725Y-56680150D01*
X82129115Y-56555523D01*
X82050711Y-56449289D01*
X82050710Y-56449288D01*
X81944476Y-56370884D01*
X81819848Y-56327274D01*
X81819849Y-56327274D01*
X81790260Y-56324500D01*
X81790256Y-56324500D01*
X81209744Y-56324500D01*
X81209740Y-56324500D01*
X81180150Y-56327274D01*
X81055523Y-56370884D01*
X80969633Y-56434274D01*
X80904004Y-56458245D01*
X80835834Y-56442929D01*
X80786766Y-56393189D01*
X80772000Y-56334504D01*
X80772000Y-55865495D01*
X80791685Y-55798456D01*
X80844489Y-55752701D01*
X80913647Y-55742757D01*
X80969630Y-55765723D01*
X81055525Y-55829116D01*
X81180151Y-55872725D01*
X81180150Y-55872725D01*
X81209740Y-55875500D01*
X81209744Y-55875500D01*
X81790260Y-55875500D01*
X81819849Y-55872725D01*
X81859795Y-55858747D01*
X81944475Y-55829116D01*
X82050711Y-55750711D01*
X82129116Y-55644475D01*
X82172725Y-55519849D01*
X82175500Y-55490256D01*
X82175500Y-54884744D01*
X82172725Y-54855151D01*
X82159394Y-54817055D01*
X82132447Y-54740045D01*
X82129116Y-54730525D01*
X82115311Y-54711820D01*
X82050711Y-54624289D01*
X82050710Y-54624288D01*
X81944476Y-54545884D01*
X81944475Y-54545883D01*
X81883545Y-54524563D01*
X81826769Y-54483841D01*
X81801022Y-54418888D01*
X81800500Y-54407522D01*
X81800500Y-53792477D01*
X81820185Y-53725438D01*
X81872989Y-53679683D01*
X81883522Y-53675444D01*
X81944475Y-53654116D01*
X82050711Y-53575711D01*
X82129116Y-53469475D01*
X82172725Y-53344849D01*
X82175500Y-53315256D01*
X82175500Y-52634744D01*
X82175500Y-52634739D01*
X82524500Y-52634739D01*
X82524500Y-53315260D01*
X82527274Y-53344849D01*
X82570884Y-53469476D01*
X82649288Y-53575710D01*
X82649289Y-53575711D01*
X82748442Y-53648889D01*
X82755525Y-53654116D01*
X82816457Y-53675437D01*
X82873230Y-53716157D01*
X82898978Y-53781109D01*
X82899500Y-53792477D01*
X82899500Y-54407522D01*
X82879815Y-54474561D01*
X82827011Y-54520316D01*
X82816455Y-54524563D01*
X82755524Y-54545883D01*
X82755523Y-54545884D01*
X82649289Y-54624288D01*
X82649288Y-54624289D01*
X82570884Y-54730523D01*
X82527274Y-54855150D01*
X82524500Y-54884739D01*
X82524500Y-55490260D01*
X82527274Y-55519849D01*
X82570884Y-55644476D01*
X82649288Y-55750710D01*
X82649289Y-55750711D01*
X82755523Y-55829115D01*
X82755524Y-55829115D01*
X82755525Y-55829116D01*
X82880151Y-55872725D01*
X82880150Y-55872725D01*
X82909740Y-55875500D01*
X82909744Y-55875500D01*
X83490260Y-55875500D01*
X83519849Y-55872725D01*
X83559795Y-55858747D01*
X83644475Y-55829116D01*
X83750711Y-55750711D01*
X83829116Y-55644475D01*
X83872725Y-55519849D01*
X83875500Y-55490256D01*
X83875500Y-54884744D01*
X83872725Y-54855151D01*
X83859394Y-54817055D01*
X83832447Y-54740045D01*
X83829116Y-54730525D01*
X83815311Y-54711820D01*
X83750711Y-54624289D01*
X83750710Y-54624288D01*
X83644476Y-54545884D01*
X83644475Y-54545883D01*
X83583545Y-54524563D01*
X83526769Y-54483841D01*
X83501022Y-54418888D01*
X83500500Y-54407522D01*
X83500500Y-53792477D01*
X83520185Y-53725438D01*
X83572989Y-53679683D01*
X83583522Y-53675444D01*
X83644475Y-53654116D01*
X83750711Y-53575711D01*
X83829116Y-53469475D01*
X83872725Y-53344849D01*
X83875500Y-53315256D01*
X83875500Y-52634744D01*
X83872725Y-52605151D01*
X83829116Y-52480525D01*
X83786212Y-52422392D01*
X83750711Y-52374289D01*
X83750710Y-52374288D01*
X83644476Y-52295884D01*
X83519848Y-52252274D01*
X83519849Y-52252274D01*
X83490260Y-52249500D01*
X83490256Y-52249500D01*
X82909744Y-52249500D01*
X82909740Y-52249500D01*
X82880150Y-52252274D01*
X82755523Y-52295884D01*
X82649289Y-52374288D01*
X82649288Y-52374289D01*
X82570884Y-52480523D01*
X82527274Y-52605150D01*
X82524500Y-52634739D01*
X82175500Y-52634739D01*
X82172725Y-52605151D01*
X82129116Y-52480525D01*
X82086212Y-52422392D01*
X82050711Y-52374289D01*
X82050710Y-52374288D01*
X81944476Y-52295884D01*
X81819848Y-52252274D01*
X81819849Y-52252274D01*
X81790260Y-52249500D01*
X81790256Y-52249500D01*
X81209744Y-52249500D01*
X81209740Y-52249500D01*
X81180150Y-52252274D01*
X81055523Y-52295884D01*
X80969633Y-52359274D01*
X80904004Y-52383245D01*
X80835834Y-52367929D01*
X80786766Y-52318189D01*
X80772000Y-52259504D01*
X80772000Y-52001999D01*
X80791685Y-51934960D01*
X80844489Y-51889205D01*
X80913647Y-51879261D01*
X80970311Y-51902732D01*
X81026462Y-51944767D01*
X81157812Y-51993758D01*
X81215853Y-51999999D01*
X81215870Y-52000000D01*
X81250000Y-52000000D01*
X81750000Y-52000000D01*
X81784130Y-52000000D01*
X81784146Y-51999999D01*
X81842187Y-51993758D01*
X81973537Y-51944767D01*
X82085758Y-51860758D01*
X82169767Y-51748537D01*
X82218758Y-51617187D01*
X82224999Y-51559146D01*
X82475000Y-51559146D01*
X82481241Y-51617187D01*
X82530232Y-51748537D01*
X82614241Y-51860758D01*
X82726462Y-51944767D01*
X82857812Y-51993758D01*
X82915853Y-51999999D01*
X82915870Y-52000000D01*
X82950000Y-52000000D01*
X83450000Y-52000000D01*
X83484130Y-52000000D01*
X83484146Y-51999999D01*
X83542187Y-51993758D01*
X83673537Y-51944767D01*
X83785758Y-51860758D01*
X83869767Y-51748537D01*
X83918758Y-51617187D01*
X83924999Y-51559146D01*
X83925000Y-51559129D01*
X83925000Y-51475000D01*
X83450000Y-51475000D01*
X83450000Y-52000000D01*
X82950000Y-52000000D01*
X82950000Y-51475000D01*
X82475000Y-51475000D01*
X82475000Y-51559146D01*
X82224999Y-51559146D01*
X82225000Y-51559129D01*
X82225000Y-51475000D01*
X81750000Y-51475000D01*
X81750000Y-52000000D01*
X81250000Y-52000000D01*
X81250000Y-51099000D01*
X81269685Y-51031961D01*
X81322489Y-50986206D01*
X81374000Y-50975000D01*
X82225000Y-50975000D01*
X82225000Y-50890870D01*
X82224999Y-50890853D01*
X82218758Y-50832812D01*
X82169766Y-50701462D01*
X82169765Y-50701459D01*
X82167782Y-50698810D01*
X82166625Y-50695708D01*
X82165517Y-50693679D01*
X82165808Y-50693519D01*
X82143365Y-50633346D01*
X82158217Y-50565073D01*
X82207622Y-50515668D01*
X82267049Y-50500500D01*
X82432951Y-50500500D01*
X82499990Y-50520185D01*
G37*
%TD.AperFunction*%
%TD*%
%TA.AperFunction,Conductor*%
%TO.N,GNDD*%
G36*
X55192539Y-50520185D02*
G01*
X55238294Y-50572989D01*
X55249500Y-50624500D01*
X55249500Y-52169752D01*
X55261131Y-52228229D01*
X55261132Y-52228230D01*
X55305447Y-52294552D01*
X55371769Y-52338867D01*
X55371770Y-52338868D01*
X55430247Y-52350499D01*
X55430250Y-52350500D01*
X55430252Y-52350500D01*
X55969750Y-52350500D01*
X55969751Y-52350499D01*
X55984568Y-52347552D01*
X56028229Y-52338868D01*
X56028229Y-52338867D01*
X56028231Y-52338867D01*
X56094552Y-52294552D01*
X56138867Y-52228231D01*
X56138867Y-52228229D01*
X56138868Y-52228229D01*
X56150499Y-52169752D01*
X56150500Y-52169750D01*
X56150500Y-52124500D01*
X56170185Y-52057461D01*
X56222989Y-52011706D01*
X56274500Y-52000500D01*
X56371962Y-52000500D01*
X56371962Y-52000499D01*
X56510050Y-51959954D01*
X56510051Y-51959954D01*
X56526797Y-51949192D01*
X56608961Y-51896388D01*
X56676000Y-51876704D01*
X56743039Y-51896388D01*
X56788794Y-51949192D01*
X56800000Y-52000704D01*
X56800000Y-52174628D01*
X56814503Y-52247540D01*
X56814505Y-52247544D01*
X56869760Y-52330239D01*
X56952455Y-52385494D01*
X56952459Y-52385496D01*
X57025371Y-52399999D01*
X57025374Y-52400000D01*
X57050000Y-52400000D01*
X57550000Y-52400000D01*
X57574626Y-52400000D01*
X57574628Y-52399999D01*
X57647540Y-52385496D01*
X57647544Y-52385494D01*
X57730239Y-52330239D01*
X57785494Y-52247544D01*
X57785496Y-52247540D01*
X57799999Y-52174628D01*
X57800000Y-52174626D01*
X57800000Y-51600000D01*
X57550000Y-51600000D01*
X57550000Y-52400000D01*
X57050000Y-52400000D01*
X57050000Y-51224000D01*
X57069685Y-51156961D01*
X57122489Y-51111206D01*
X57174000Y-51100000D01*
X57800000Y-51100000D01*
X57800000Y-50624500D01*
X57819685Y-50557461D01*
X57872489Y-50511706D01*
X57924000Y-50500500D01*
X58325500Y-50500500D01*
X58392539Y-50520185D01*
X58438294Y-50572989D01*
X58449500Y-50624500D01*
X58449500Y-52169752D01*
X58461131Y-52228227D01*
X58462307Y-52231065D01*
X58463025Y-52237750D01*
X58463515Y-52240210D01*
X58463294Y-52240253D01*
X58469776Y-52300535D01*
X58438502Y-52363014D01*
X58435427Y-52366200D01*
X58227047Y-52574581D01*
X58165724Y-52608066D01*
X58139366Y-52610900D01*
X58043236Y-52610900D01*
X57905149Y-52651445D01*
X57784073Y-52729256D01*
X57689823Y-52838026D01*
X57689822Y-52838028D01*
X57630034Y-52968943D01*
X57609553Y-53111400D01*
X57630034Y-53253856D01*
X57651108Y-53300000D01*
X57689823Y-53384773D01*
X57784072Y-53493543D01*
X57784074Y-53493544D01*
X57784073Y-53493544D01*
X57901897Y-53569265D01*
X57947651Y-53622069D01*
X57957595Y-53691227D01*
X57928570Y-53754783D01*
X57922538Y-53761261D01*
X57338719Y-54345081D01*
X57277396Y-54378566D01*
X57251038Y-54381400D01*
X55309964Y-54381400D01*
X55242925Y-54361715D01*
X55197170Y-54308911D01*
X55187226Y-54239753D01*
X55188347Y-54233208D01*
X55200000Y-54174626D01*
X55200000Y-54100000D01*
X53800000Y-54100000D01*
X53800000Y-54174628D01*
X53814503Y-54247540D01*
X53814505Y-54247544D01*
X53869760Y-54330240D01*
X53929241Y-54369984D01*
X53974047Y-54423596D01*
X53982754Y-54492921D01*
X53952600Y-54555948D01*
X53948032Y-54560767D01*
X53111877Y-55396922D01*
X53111876Y-55396924D01*
X53111400Y-66547999D01*
X53111400Y-66548000D01*
X55422800Y-68859400D01*
X58166000Y-68859400D01*
X58789081Y-68236319D01*
X58843271Y-68206728D01*
X58850000Y-68200000D01*
X59350000Y-68200000D01*
X59574626Y-68200000D01*
X59574628Y-68199999D01*
X59647540Y-68185496D01*
X59647544Y-68185494D01*
X59730239Y-68130239D01*
X59785494Y-68047544D01*
X59785496Y-68047540D01*
X59799999Y-67974628D01*
X59800000Y-67974626D01*
X59800000Y-67900000D01*
X59350000Y-67900000D01*
X59350000Y-68200000D01*
X58850000Y-68200000D01*
X58850000Y-68175400D01*
X59625400Y-67400000D01*
X59800000Y-67400000D01*
X59800000Y-67325377D01*
X59796343Y-67306996D01*
X59802569Y-67237405D01*
X59830350Y-67195049D01*
X59830953Y-67194446D01*
X59831555Y-67193846D01*
X59892906Y-67160412D01*
X59919163Y-67157600D01*
X60809249Y-67157600D01*
X60844182Y-67162622D01*
X60888039Y-67175500D01*
X61031960Y-67175500D01*
X61031961Y-67175500D01*
X61075817Y-67162622D01*
X61110751Y-67157600D01*
X63882278Y-67157600D01*
X63949317Y-67177285D01*
X63995072Y-67230089D01*
X64005016Y-67299247D01*
X64003895Y-67305791D01*
X64000000Y-67325371D01*
X64000000Y-67400000D01*
X64733000Y-67400000D01*
X64950000Y-67617000D01*
X64950000Y-67776000D01*
X64930315Y-67843039D01*
X64877511Y-67888794D01*
X64826000Y-67900000D01*
X64000000Y-67900000D01*
X64000000Y-67974628D01*
X64014503Y-68047540D01*
X64014505Y-68047544D01*
X64069760Y-68130239D01*
X64152455Y-68185494D01*
X64152459Y-68185496D01*
X64225371Y-68199999D01*
X64225374Y-68200000D01*
X64596631Y-68200000D01*
X64663670Y-68219685D01*
X64709425Y-68272489D01*
X64719369Y-68341647D01*
X64690344Y-68405203D01*
X64684312Y-68411682D01*
X63962208Y-69133774D01*
X63900884Y-69167258D01*
X63840327Y-69162926D01*
X63840210Y-69163515D01*
X63835523Y-69162582D01*
X63831192Y-69162273D01*
X63828355Y-69161156D01*
X63769752Y-69149500D01*
X63769748Y-69149500D01*
X63230252Y-69149500D01*
X63230247Y-69149500D01*
X63171770Y-69161131D01*
X63171769Y-69161132D01*
X63105447Y-69205447D01*
X63054348Y-69281923D01*
X63052808Y-69280894D01*
X63018316Y-69323694D01*
X62952022Y-69345757D01*
X62912665Y-69340813D01*
X62771963Y-69299500D01*
X62771961Y-69299500D01*
X62628039Y-69299500D01*
X62628035Y-69299500D01*
X62536039Y-69326512D01*
X62466169Y-69326512D01*
X62407391Y-69288737D01*
X62386545Y-69254989D01*
X62385496Y-69252457D01*
X62330239Y-69169760D01*
X62247544Y-69114505D01*
X62247540Y-69114503D01*
X62174627Y-69100000D01*
X62150000Y-69100000D01*
X62150000Y-70276000D01*
X62130315Y-70343039D01*
X62077511Y-70388794D01*
X62026000Y-70400000D01*
X61400000Y-70400000D01*
X61400000Y-70894400D01*
X61380315Y-70961439D01*
X61327511Y-71007194D01*
X61276000Y-71018400D01*
X60874500Y-71018400D01*
X60807461Y-70998715D01*
X60761706Y-70945911D01*
X60750500Y-70894400D01*
X60750500Y-69330249D01*
X60750499Y-69330247D01*
X60749529Y-69325371D01*
X61400000Y-69325371D01*
X61400000Y-69900000D01*
X61650000Y-69900000D01*
X61650000Y-69100000D01*
X61625373Y-69100000D01*
X61552459Y-69114503D01*
X61552455Y-69114505D01*
X61469760Y-69169760D01*
X61414505Y-69252455D01*
X61414503Y-69252459D01*
X61400000Y-69325371D01*
X60749529Y-69325371D01*
X60738868Y-69271770D01*
X60738867Y-69271769D01*
X60694552Y-69205447D01*
X60683075Y-69197779D01*
X60638270Y-69144167D01*
X60629563Y-69074842D01*
X60639170Y-69043169D01*
X60685165Y-68942457D01*
X60705647Y-68800000D01*
X60685165Y-68657543D01*
X60625377Y-68526627D01*
X60531128Y-68417857D01*
X60410053Y-68340047D01*
X60410051Y-68340046D01*
X60410049Y-68340045D01*
X60410050Y-68340045D01*
X60271963Y-68299500D01*
X60271961Y-68299500D01*
X60128039Y-68299500D01*
X60128036Y-68299500D01*
X59989949Y-68340045D01*
X59868873Y-68417856D01*
X59774623Y-68526626D01*
X59774622Y-68526628D01*
X59714834Y-68657543D01*
X59694353Y-68800000D01*
X59714834Y-68942456D01*
X59774622Y-69073371D01*
X59774625Y-69073377D01*
X59838592Y-69147199D01*
X59867617Y-69210755D01*
X59861509Y-69259391D01*
X59863515Y-69259790D01*
X59849500Y-69330247D01*
X59849500Y-70894400D01*
X59829815Y-70961439D01*
X59777011Y-71007194D01*
X59725500Y-71018400D01*
X50624500Y-71018400D01*
X50557461Y-70998715D01*
X50511706Y-70945911D01*
X50500500Y-70894400D01*
X50500500Y-69732589D01*
X50520185Y-69665550D01*
X50572989Y-69619795D01*
X50642147Y-69609851D01*
X50705703Y-69638876D01*
X50731885Y-69670587D01*
X50753222Y-69707543D01*
X50767467Y-69732216D01*
X50894129Y-69872888D01*
X51047265Y-69984148D01*
X51047270Y-69984151D01*
X51220192Y-70061142D01*
X51220197Y-70061144D01*
X51405354Y-70100500D01*
X51405355Y-70100500D01*
X51594644Y-70100500D01*
X51594646Y-70100500D01*
X51779803Y-70061144D01*
X51952730Y-69984151D01*
X52105871Y-69872888D01*
X52232533Y-69732216D01*
X52327179Y-69568284D01*
X52385674Y-69388256D01*
X52405460Y-69200000D01*
X52385674Y-69011744D01*
X52327179Y-68831716D01*
X52232533Y-68667784D01*
X52105871Y-68527112D01*
X52105205Y-68526628D01*
X51952734Y-68415851D01*
X51952729Y-68415848D01*
X51779807Y-68338857D01*
X51779802Y-68338855D01*
X51634001Y-68307865D01*
X51594646Y-68299500D01*
X51405354Y-68299500D01*
X51372897Y-68306398D01*
X51220197Y-68338855D01*
X51220192Y-68338857D01*
X51047270Y-68415848D01*
X51047265Y-68415851D01*
X50894129Y-68527111D01*
X50767466Y-68667785D01*
X50731887Y-68729410D01*
X50681320Y-68777626D01*
X50612713Y-68790849D01*
X50547848Y-68764881D01*
X50507320Y-68707967D01*
X50500500Y-68667410D01*
X50500500Y-56732589D01*
X50520185Y-56665550D01*
X50572989Y-56619795D01*
X50642147Y-56609851D01*
X50705703Y-56638876D01*
X50731885Y-56670587D01*
X50736056Y-56677810D01*
X50767467Y-56732216D01*
X50894129Y-56872888D01*
X51047265Y-56984148D01*
X51047270Y-56984151D01*
X51220192Y-57061142D01*
X51220197Y-57061144D01*
X51405354Y-57100500D01*
X51405355Y-57100500D01*
X51594644Y-57100500D01*
X51594646Y-57100500D01*
X51779803Y-57061144D01*
X51952730Y-56984151D01*
X52105871Y-56872888D01*
X52232533Y-56732216D01*
X52327179Y-56568284D01*
X52385674Y-56388256D01*
X52405460Y-56200000D01*
X52385674Y-56011744D01*
X52327179Y-55831716D01*
X52232533Y-55667784D01*
X52105871Y-55527112D01*
X52065605Y-55497857D01*
X51952734Y-55415851D01*
X51952729Y-55415848D01*
X51779807Y-55338857D01*
X51779802Y-55338855D01*
X51634001Y-55307865D01*
X51594646Y-55299500D01*
X51405354Y-55299500D01*
X51372897Y-55306398D01*
X51220197Y-55338855D01*
X51220192Y-55338857D01*
X51047270Y-55415848D01*
X51047265Y-55415851D01*
X50894129Y-55527111D01*
X50767466Y-55667785D01*
X50731887Y-55729410D01*
X50681320Y-55777626D01*
X50612713Y-55790849D01*
X50547848Y-55764881D01*
X50507320Y-55707967D01*
X50500500Y-55667410D01*
X50500500Y-53525371D01*
X53800000Y-53525371D01*
X53800000Y-53600000D01*
X54250000Y-53600000D01*
X54750000Y-53600000D01*
X55200000Y-53600000D01*
X55200000Y-53525373D01*
X55199999Y-53525371D01*
X55185496Y-53452459D01*
X55185494Y-53452455D01*
X55130239Y-53369760D01*
X55047544Y-53314505D01*
X55047540Y-53314503D01*
X54974627Y-53300000D01*
X54750000Y-53300000D01*
X54750000Y-53600000D01*
X54250000Y-53600000D01*
X54250000Y-53300000D01*
X54025373Y-53300000D01*
X53952459Y-53314503D01*
X53952455Y-53314505D01*
X53869760Y-53369760D01*
X53814505Y-53452455D01*
X53814503Y-53452459D01*
X53800000Y-53525371D01*
X50500500Y-53525371D01*
X50500500Y-53003750D01*
X50500726Y-52996263D01*
X50510297Y-52838027D01*
X50518271Y-52706201D01*
X50520076Y-52691340D01*
X50565662Y-52442589D01*
X50571780Y-52409197D01*
X50575364Y-52394663D01*
X50578221Y-52385496D01*
X50660696Y-52120822D01*
X50665998Y-52106841D01*
X50783731Y-51845249D01*
X50790676Y-51832016D01*
X50939080Y-51586526D01*
X50947567Y-51574230D01*
X51124480Y-51348417D01*
X51134395Y-51337226D01*
X51337226Y-51134395D01*
X51348417Y-51124480D01*
X51574230Y-50947567D01*
X51586526Y-50939080D01*
X51832016Y-50790676D01*
X51845249Y-50783731D01*
X52106841Y-50665998D01*
X52120822Y-50660696D01*
X52394668Y-50575362D01*
X52409197Y-50571780D01*
X52691344Y-50520075D01*
X52706201Y-50518271D01*
X52996264Y-50500726D01*
X53003751Y-50500500D01*
X53065892Y-50500500D01*
X55125500Y-50500500D01*
X55192539Y-50520185D01*
G37*
%TD.AperFunction*%
%TA.AperFunction,Conductor*%
G36*
X76143039Y-50520185D02*
G01*
X76188794Y-50572989D01*
X76200000Y-50624500D01*
X76200000Y-51258700D01*
X76180315Y-51325739D01*
X76127511Y-51371494D01*
X76076000Y-51382700D01*
X68373797Y-51382700D01*
X68366451Y-51383490D01*
X68353197Y-51384200D01*
X60299599Y-51384200D01*
X59562181Y-52121618D01*
X59500858Y-52155103D01*
X59431166Y-52150119D01*
X59375233Y-52108247D01*
X59350816Y-52042783D01*
X59350500Y-52033937D01*
X59350500Y-50624500D01*
X59370185Y-50557461D01*
X59422989Y-50511706D01*
X59474500Y-50500500D01*
X76076000Y-50500500D01*
X76143039Y-50520185D01*
G37*
%TD.AperFunction*%
%TD*%
%TA.AperFunction,Conductor*%
%TO.N,+12VA*%
G36*
X70236636Y-67659885D02*
G01*
X70257278Y-67676519D01*
X70265270Y-67684511D01*
X70321219Y-67740460D01*
X70321221Y-67740461D01*
X70321225Y-67740464D01*
X70347312Y-67755525D01*
X70389741Y-67780021D01*
X70466168Y-67800500D01*
X72485500Y-67800500D01*
X72552539Y-67820185D01*
X72598294Y-67872989D01*
X72609500Y-67924500D01*
X72609500Y-68398091D01*
X72629979Y-68474518D01*
X72666910Y-68538484D01*
X72669540Y-68543040D01*
X72669542Y-68543043D01*
X73863181Y-69736681D01*
X73896666Y-69798004D01*
X73899500Y-69824362D01*
X73899500Y-70190260D01*
X73902274Y-70219849D01*
X73945884Y-70344476D01*
X74024288Y-70450710D01*
X74024289Y-70450711D01*
X74130523Y-70529115D01*
X74130524Y-70529115D01*
X74130525Y-70529116D01*
X74255151Y-70572725D01*
X74255150Y-70572725D01*
X74284740Y-70575500D01*
X74284744Y-70575500D01*
X74890260Y-70575500D01*
X74919849Y-70572725D01*
X74927223Y-70571115D01*
X74927644Y-70573046D01*
X74987222Y-70570004D01*
X75047850Y-70604732D01*
X75080078Y-70666725D01*
X75082400Y-70690608D01*
X75082400Y-71450200D01*
X86642400Y-71450200D01*
X86709439Y-71469885D01*
X86755194Y-71522689D01*
X86766400Y-71574200D01*
X86766400Y-76076000D01*
X86746715Y-76143039D01*
X86693911Y-76188794D01*
X86642400Y-76200000D01*
X69059600Y-76200000D01*
X68992561Y-76180315D01*
X68946806Y-76127511D01*
X68935600Y-76076000D01*
X68935600Y-69277962D01*
X68946806Y-69226450D01*
X68985165Y-69142456D01*
X68986165Y-69135500D01*
X69005647Y-69000000D01*
X68985165Y-68857543D01*
X68985164Y-68857539D01*
X68946806Y-68773548D01*
X68935600Y-68722036D01*
X68935600Y-67920162D01*
X68955285Y-67853123D01*
X68971919Y-67832481D01*
X69127881Y-67676519D01*
X69189204Y-67643034D01*
X69215562Y-67640200D01*
X70169597Y-67640200D01*
X70236636Y-67659885D01*
G37*
%TD.AperFunction*%
%TD*%
%TA.AperFunction,Conductor*%
%TO.N,SOC*%
G36*
X55308307Y-54636662D02*
G01*
X55309362Y-54636813D01*
X55309964Y-54636900D01*
X57024500Y-54636900D01*
X57091539Y-54656585D01*
X57137294Y-54709389D01*
X57148500Y-54760900D01*
X57148500Y-56666841D01*
X57149822Y-56691508D01*
X57150000Y-56698144D01*
X57150000Y-56821818D01*
X57241356Y-56912896D01*
X57253072Y-56926395D01*
X57259645Y-56935175D01*
X57259648Y-56935178D01*
X57259653Y-56935185D01*
X57695015Y-57370547D01*
X57695032Y-57370563D01*
X57695036Y-57370566D01*
X57715359Y-57388821D01*
X57727898Y-57398926D01*
X57737637Y-57407661D01*
X57810399Y-57480200D01*
X57810400Y-57480200D01*
X57944061Y-57480200D01*
X57961705Y-57481462D01*
X57962760Y-57481613D01*
X57963362Y-57481700D01*
X58243700Y-57481700D01*
X58310739Y-57501385D01*
X58356494Y-57554189D01*
X58367700Y-57605700D01*
X58367700Y-60635241D01*
X58367863Y-60644356D01*
X58368179Y-60653205D01*
X58368366Y-60654809D01*
X58369200Y-60669166D01*
X58369200Y-60707500D01*
X58349515Y-60774539D01*
X58296711Y-60820294D01*
X58245200Y-60831500D01*
X53491148Y-60831500D01*
X53424109Y-60811815D01*
X53378354Y-60759011D01*
X53367148Y-60707495D01*
X53367150Y-60654809D01*
X53367368Y-55554115D01*
X53387055Y-55487079D01*
X53403682Y-55466447D01*
X54128698Y-54741433D01*
X54133462Y-54736539D01*
X54138030Y-54731720D01*
X54143366Y-54723960D01*
X54157848Y-54706551D01*
X54192684Y-54671716D01*
X54254008Y-54638233D01*
X54280363Y-54635400D01*
X55290663Y-54635400D01*
X55308307Y-54636662D01*
G37*
%TD.AperFunction*%
%TD*%
%TA.AperFunction,Conductor*%
%TO.N,+12VA*%
G36*
X68372143Y-55347862D02*
G01*
X68373198Y-55348013D01*
X68373800Y-55348100D01*
X75617537Y-55348100D01*
X75684576Y-55367785D01*
X75730331Y-55420589D01*
X75740275Y-55489747D01*
X75730331Y-55523612D01*
X75714834Y-55557543D01*
X75694353Y-55700000D01*
X75714834Y-55842456D01*
X75753149Y-55926353D01*
X75774623Y-55973373D01*
X75868872Y-56082143D01*
X75989947Y-56159953D01*
X75989950Y-56159954D01*
X75989949Y-56159954D01*
X76110934Y-56195478D01*
X76169713Y-56233252D01*
X76198738Y-56296807D01*
X76200000Y-56314455D01*
X76200000Y-58571838D01*
X76180315Y-58638877D01*
X76163681Y-58659519D01*
X75220319Y-59602881D01*
X75158996Y-59636366D01*
X75132638Y-59639200D01*
X74977701Y-59639200D01*
X74960057Y-59637938D01*
X74958405Y-59637700D01*
X74958400Y-59637700D01*
X74156456Y-59637700D01*
X74156450Y-59637700D01*
X74156446Y-59637701D01*
X74152668Y-59638187D01*
X74136851Y-59639200D01*
X73710800Y-59639200D01*
X73575724Y-59774276D01*
X73440647Y-59909352D01*
X73397397Y-59935016D01*
X73398013Y-59936364D01*
X73389945Y-59940048D01*
X73268873Y-60017856D01*
X73174623Y-60126626D01*
X73174621Y-60126629D01*
X73142936Y-60196007D01*
X73117824Y-60232174D01*
X72286223Y-61063775D01*
X72272858Y-61075357D01*
X72257162Y-61087108D01*
X72257145Y-61087122D01*
X71990287Y-61353981D01*
X71928964Y-61387466D01*
X71902606Y-61390300D01*
X71094026Y-61390300D01*
X71089469Y-61390381D01*
X71084909Y-61390463D01*
X71083602Y-61390509D01*
X71076068Y-61390778D01*
X71074464Y-61390966D01*
X71060104Y-61391800D01*
X70521319Y-61391800D01*
X70454280Y-61372115D01*
X70444398Y-61364152D01*
X70444142Y-61364486D01*
X70437690Y-61359535D01*
X70417759Y-61348028D01*
X70417759Y-61348027D01*
X70417756Y-61348027D01*
X70369180Y-61319981D01*
X70369177Y-61319979D01*
X70330961Y-61309739D01*
X70292748Y-61299500D01*
X70292746Y-61299500D01*
X64934500Y-61299500D01*
X64867461Y-61279815D01*
X64821706Y-61227011D01*
X64810500Y-61175500D01*
X64810500Y-60584239D01*
X64810500Y-60584238D01*
X64799625Y-60543652D01*
X64795400Y-60511559D01*
X64795400Y-55753562D01*
X64815085Y-55686523D01*
X64831719Y-55665881D01*
X65114681Y-55382919D01*
X65176004Y-55349434D01*
X65202362Y-55346600D01*
X68354499Y-55346600D01*
X68372143Y-55347862D01*
G37*
%TD.AperFunction*%
%TD*%
%TA.AperFunction,Conductor*%
%TO.N,GNDPWR*%
G36*
X67802947Y-67888485D02*
G01*
X67848702Y-67941289D01*
X67858646Y-68010447D01*
X67854035Y-68026515D01*
X67854937Y-68026761D01*
X67852488Y-68035761D01*
X67849500Y-68061514D01*
X67849500Y-68538485D01*
X67852488Y-68564238D01*
X67852488Y-68564240D01*
X67898997Y-68669573D01*
X67899000Y-68669578D01*
X67928181Y-68698759D01*
X67961666Y-68760082D01*
X67964500Y-68786440D01*
X67964500Y-68804562D01*
X67974739Y-68842775D01*
X67984979Y-68880991D01*
X67988090Y-68888500D01*
X67986785Y-68889040D01*
X68001196Y-68948454D01*
X68000075Y-68960193D01*
X67994353Y-68999997D01*
X67994353Y-68999999D01*
X68014834Y-69142456D01*
X68054578Y-69229481D01*
X68074623Y-69273373D01*
X68168872Y-69382143D01*
X68289947Y-69459953D01*
X68289950Y-69459954D01*
X68289949Y-69459954D01*
X68428036Y-69500499D01*
X68428038Y-69500500D01*
X68557600Y-69500500D01*
X68624639Y-69520185D01*
X68670394Y-69572989D01*
X68681600Y-69624500D01*
X68681600Y-76454000D01*
X86642400Y-76454000D01*
X86709439Y-76473685D01*
X86755194Y-76526489D01*
X86766400Y-76578000D01*
X86766400Y-77875500D01*
X86746715Y-77942539D01*
X86693911Y-77988294D01*
X86642400Y-77999500D01*
X52004428Y-77999500D01*
X51995582Y-77999184D01*
X51973622Y-77997613D01*
X51795442Y-77984869D01*
X51777931Y-77982351D01*
X51586212Y-77940646D01*
X51569236Y-77935662D01*
X51385390Y-77867090D01*
X51369298Y-77859740D01*
X51197095Y-77765711D01*
X51182210Y-77756146D01*
X51025132Y-77638558D01*
X51011762Y-77626972D01*
X50873027Y-77488237D01*
X50861441Y-77474867D01*
X50743849Y-77317784D01*
X50734288Y-77302904D01*
X50640259Y-77130701D01*
X50632909Y-77114609D01*
X50572091Y-76951551D01*
X50564334Y-76930755D01*
X50559355Y-76913797D01*
X50517647Y-76722063D01*
X50515130Y-76704556D01*
X50500816Y-76504418D01*
X50500500Y-76495572D01*
X50500500Y-71396400D01*
X50520185Y-71329361D01*
X50572989Y-71283606D01*
X50624500Y-71272400D01*
X64185800Y-71272400D01*
X64185800Y-69317162D01*
X64205485Y-69250123D01*
X64222119Y-69229481D01*
X65546481Y-67905119D01*
X65607804Y-67871634D01*
X65634162Y-67868800D01*
X67735908Y-67868800D01*
X67802947Y-67888485D01*
G37*
%TD.AperFunction*%
%TD*%
%TA.AperFunction,Conductor*%
%TO.N,GND*%
G36*
X82146206Y-67675185D02*
G01*
X82166848Y-67691819D01*
X82184959Y-67709930D01*
X82218444Y-67771253D01*
X82213460Y-67840945D01*
X82211838Y-67845065D01*
X82211132Y-67846768D01*
X82199500Y-67905247D01*
X82199500Y-68194749D01*
X82201793Y-68206278D01*
X82195564Y-68275870D01*
X82183279Y-68299356D01*
X82164504Y-68327455D01*
X82150000Y-68400373D01*
X82150000Y-68425000D01*
X82951000Y-68425000D01*
X83018039Y-68444685D01*
X83063794Y-68497489D01*
X83075000Y-68549000D01*
X83075000Y-68551000D01*
X83055315Y-68618039D01*
X83002511Y-68663794D01*
X82951000Y-68675000D01*
X82150000Y-68675000D01*
X82150000Y-68699628D01*
X82164503Y-68772540D01*
X82164505Y-68772546D01*
X82183278Y-68800642D01*
X82204155Y-68867320D01*
X82201793Y-68893717D01*
X82199500Y-68905244D01*
X82199500Y-69194752D01*
X82213515Y-69265209D01*
X82212239Y-69265462D01*
X82218317Y-69322023D01*
X82211303Y-69345910D01*
X82199500Y-69405247D01*
X82199500Y-69425500D01*
X82179815Y-69492539D01*
X82127011Y-69538294D01*
X82075500Y-69549500D01*
X81928036Y-69549500D01*
X81789949Y-69590045D01*
X81668873Y-69667856D01*
X81574623Y-69776626D01*
X81574622Y-69776628D01*
X81514834Y-69907543D01*
X81494353Y-70050000D01*
X81514834Y-70192456D01*
X81572878Y-70319552D01*
X81574623Y-70323373D01*
X81668872Y-70432143D01*
X81789947Y-70509953D01*
X81789950Y-70509954D01*
X81789949Y-70509954D01*
X81928036Y-70550499D01*
X81928038Y-70550500D01*
X81928039Y-70550500D01*
X82071962Y-70550500D01*
X82071962Y-70550499D01*
X82210053Y-70509953D01*
X82331128Y-70432143D01*
X82343125Y-70418296D01*
X82401903Y-70380523D01*
X82436838Y-70375500D01*
X83519750Y-70375500D01*
X83519751Y-70375499D01*
X83547434Y-70369993D01*
X83578229Y-70363868D01*
X83578229Y-70363867D01*
X83578231Y-70363867D01*
X83644552Y-70319552D01*
X83688867Y-70253231D01*
X83688867Y-70253229D01*
X83688868Y-70253229D01*
X83699517Y-70199690D01*
X83700500Y-70194748D01*
X83700500Y-70104881D01*
X83720185Y-70037842D01*
X83772989Y-69992087D01*
X83842147Y-69982143D01*
X83905703Y-70011168D01*
X83918213Y-70023679D01*
X83968872Y-70082143D01*
X84089947Y-70159953D01*
X84089950Y-70159954D01*
X84089949Y-70159954D01*
X84164529Y-70181852D01*
X84225280Y-70199690D01*
X84228036Y-70200499D01*
X84228038Y-70200500D01*
X84324167Y-70200500D01*
X84391206Y-70220185D01*
X84411848Y-70236819D01*
X84464540Y-70289511D01*
X84520489Y-70345460D01*
X84520491Y-70345461D01*
X84520495Y-70345464D01*
X84572506Y-70375492D01*
X84589011Y-70385021D01*
X84665438Y-70405500D01*
X84907003Y-70405500D01*
X84974042Y-70425185D01*
X85007923Y-70457450D01*
X85010805Y-70461487D01*
X85093514Y-70544196D01*
X85093515Y-70544196D01*
X85093517Y-70544198D01*
X85198607Y-70595573D01*
X85232673Y-70600536D01*
X85266739Y-70605500D01*
X85266740Y-70605500D01*
X86983261Y-70605500D01*
X87015497Y-70600803D01*
X87051393Y-70595573D01*
X87156483Y-70544198D01*
X87239198Y-70461483D01*
X87277656Y-70382814D01*
X87301374Y-70349597D01*
X87469119Y-70181852D01*
X87530442Y-70148367D01*
X87600134Y-70153351D01*
X87656067Y-70195223D01*
X87680484Y-70260687D01*
X87680800Y-70269533D01*
X87680800Y-71072200D01*
X87661115Y-71139239D01*
X87608311Y-71184994D01*
X87556800Y-71196200D01*
X77048843Y-71196200D01*
X76981804Y-71176515D01*
X76936049Y-71123711D01*
X76926105Y-71054553D01*
X76955130Y-70990997D01*
X77001391Y-70957638D01*
X77007699Y-70955024D01*
X77007711Y-70955021D01*
X77076233Y-70915460D01*
X77132182Y-70859511D01*
X77735132Y-70256560D01*
X77796453Y-70223077D01*
X77866144Y-70228061D01*
X77922078Y-70269932D01*
X77925912Y-70275351D01*
X77955446Y-70319551D01*
X78021769Y-70363867D01*
X78021770Y-70363868D01*
X78080247Y-70375499D01*
X78080250Y-70375500D01*
X78080252Y-70375500D01*
X79219750Y-70375500D01*
X79219751Y-70375499D01*
X79247434Y-70369993D01*
X79278229Y-70363868D01*
X79278229Y-70363867D01*
X79278231Y-70363867D01*
X79344552Y-70319552D01*
X79388867Y-70253231D01*
X79388867Y-70253229D01*
X79388868Y-70253229D01*
X79399517Y-70199690D01*
X79400500Y-70194748D01*
X79400500Y-69905252D01*
X79400500Y-69905249D01*
X79400499Y-69905247D01*
X79386485Y-69834790D01*
X79387762Y-69834535D01*
X79381680Y-69777991D01*
X79388694Y-69754100D01*
X79400499Y-69694752D01*
X79400500Y-69694750D01*
X79400500Y-69405249D01*
X79400499Y-69405247D01*
X79386485Y-69334790D01*
X79387762Y-69334535D01*
X79381680Y-69277991D01*
X79388694Y-69254100D01*
X79392222Y-69236362D01*
X79400500Y-69194748D01*
X79400500Y-68905252D01*
X79400500Y-68905249D01*
X79400499Y-68905247D01*
X79386485Y-68834790D01*
X79387762Y-68834535D01*
X79381680Y-68777991D01*
X79388694Y-68754100D01*
X79395072Y-68722036D01*
X79400500Y-68694748D01*
X79400500Y-68554333D01*
X79420185Y-68487294D01*
X79472989Y-68441539D01*
X79542147Y-68431595D01*
X79559431Y-68435355D01*
X79580492Y-68441539D01*
X79628038Y-68455500D01*
X79628039Y-68455500D01*
X79771962Y-68455500D01*
X79771962Y-68455499D01*
X79894530Y-68419511D01*
X79910050Y-68414954D01*
X79910050Y-68414953D01*
X79910053Y-68414953D01*
X80031128Y-68337143D01*
X80125377Y-68228373D01*
X80185165Y-68097457D01*
X80205647Y-67955000D01*
X80185165Y-67812543D01*
X80183903Y-67803765D01*
X80185720Y-67803503D01*
X80185722Y-67744562D01*
X80223498Y-67685785D01*
X80287055Y-67656762D01*
X80304698Y-67655500D01*
X82079167Y-67655500D01*
X82146206Y-67675185D01*
G37*
%TD.AperFunction*%
%TA.AperFunction,Conductor*%
G36*
X76659203Y-56584620D02*
G01*
X76665681Y-56590652D01*
X77272040Y-57197011D01*
X77327989Y-57252960D01*
X77327991Y-57252961D01*
X77327995Y-57252964D01*
X77355854Y-57269048D01*
X77396511Y-57292521D01*
X77472938Y-57313000D01*
X77552062Y-57313000D01*
X79028148Y-57313000D01*
X79095187Y-57332685D01*
X79140942Y-57385489D01*
X79145189Y-57396045D01*
X79170884Y-57469475D01*
X79170884Y-57469476D01*
X79249288Y-57575710D01*
X79249289Y-57575711D01*
X79355523Y-57654115D01*
X79355524Y-57654115D01*
X79355525Y-57654116D01*
X79480151Y-57697725D01*
X79480150Y-57697725D01*
X79509740Y-57700500D01*
X79509744Y-57700500D01*
X80090260Y-57700500D01*
X80119849Y-57697725D01*
X80244475Y-57654116D01*
X80317355Y-57600327D01*
X80382982Y-57576358D01*
X80451152Y-57591673D01*
X80500221Y-57641413D01*
X80514987Y-57700147D01*
X80514904Y-57911999D01*
X80514904Y-57912000D01*
X81330381Y-58724799D01*
X81457800Y-58851800D01*
X85622838Y-58851800D01*
X85689877Y-58871485D01*
X85710519Y-58888119D01*
X87170171Y-60347771D01*
X87203656Y-60409094D01*
X87198672Y-60478786D01*
X87156800Y-60534719D01*
X87091336Y-60559136D01*
X87063092Y-60557925D01*
X86981486Y-60545000D01*
X86375000Y-60545000D01*
X86375000Y-60845000D01*
X87339148Y-60845000D01*
X87337075Y-60831908D01*
X87346030Y-60762614D01*
X87391026Y-60709162D01*
X87457778Y-60688523D01*
X87525091Y-60707248D01*
X87547229Y-60724829D01*
X87644481Y-60822081D01*
X87677966Y-60883404D01*
X87680800Y-60909762D01*
X87680800Y-68050915D01*
X87661115Y-68117954D01*
X87608311Y-68163709D01*
X87539153Y-68173653D01*
X87475597Y-68144628D01*
X87469119Y-68138596D01*
X87325064Y-67994541D01*
X87318612Y-67989590D01*
X87320467Y-67987172D01*
X87282251Y-67947079D01*
X87269041Y-67878469D01*
X87281075Y-67835819D01*
X87290573Y-67816393D01*
X87300500Y-67748260D01*
X87300500Y-67381740D01*
X87290573Y-67313607D01*
X87239198Y-67208517D01*
X87239196Y-67208515D01*
X87239196Y-67208514D01*
X87156485Y-67125803D01*
X87051389Y-67074425D01*
X87046517Y-67072920D01*
X86988276Y-67034322D01*
X86960150Y-66970363D01*
X86971066Y-66901352D01*
X87017561Y-66849198D01*
X87063728Y-66831973D01*
X87075149Y-66830164D01*
X87075155Y-66830162D01*
X87188041Y-66772643D01*
X87188050Y-66772636D01*
X87277636Y-66683050D01*
X87277639Y-66683046D01*
X87335166Y-66570143D01*
X87339149Y-66545000D01*
X85999000Y-66545000D01*
X85931961Y-66525315D01*
X85886206Y-66472511D01*
X85875000Y-66421000D01*
X85875000Y-66045000D01*
X86375000Y-66045000D01*
X87339148Y-66045000D01*
X87335166Y-66019856D01*
X87277639Y-65906953D01*
X87277636Y-65906949D01*
X87188050Y-65817363D01*
X87188046Y-65817360D01*
X87075144Y-65759833D01*
X86981486Y-65745000D01*
X86375000Y-65745000D01*
X86375000Y-66045000D01*
X85875000Y-66045000D01*
X85875000Y-65745000D01*
X85268520Y-65745000D01*
X85174850Y-65759835D01*
X85174844Y-65759837D01*
X85061958Y-65817356D01*
X85061949Y-65817363D01*
X84972363Y-65906949D01*
X84972360Y-65906953D01*
X84914833Y-66019855D01*
X84899237Y-66118331D01*
X84897509Y-66118057D01*
X84875289Y-66176299D01*
X84819044Y-66217751D01*
X84749317Y-66222214D01*
X84688900Y-66188929D01*
X83909512Y-65409541D01*
X83909504Y-65409535D01*
X83885319Y-65395572D01*
X83885319Y-65395571D01*
X83885316Y-65395571D01*
X83840994Y-65369981D01*
X83833483Y-65366870D01*
X83834071Y-65365449D01*
X83782246Y-65333859D01*
X83757106Y-65282106D01*
X83750000Y-65275000D01*
X82150000Y-65275000D01*
X82150000Y-65299628D01*
X82164503Y-65372540D01*
X82164505Y-65372546D01*
X82183278Y-65400642D01*
X82204155Y-65467320D01*
X82201793Y-65493717D01*
X82199500Y-65505244D01*
X82199500Y-65794752D01*
X82213515Y-65865209D01*
X82212239Y-65865462D01*
X82218317Y-65922023D01*
X82211303Y-65945910D01*
X82199500Y-66005247D01*
X82199500Y-66025500D01*
X82179815Y-66092539D01*
X82127011Y-66138294D01*
X82075500Y-66149500D01*
X81928036Y-66149500D01*
X81789949Y-66190045D01*
X81668873Y-66267856D01*
X81574623Y-66376626D01*
X81574622Y-66376628D01*
X81514834Y-66507543D01*
X81494353Y-66650000D01*
X81514834Y-66792456D01*
X81554353Y-66878988D01*
X81564297Y-66948146D01*
X81535272Y-67011702D01*
X81476494Y-67049477D01*
X81441559Y-67054500D01*
X79486371Y-67054500D01*
X79419332Y-67034815D01*
X79373577Y-66982011D01*
X79363633Y-66912853D01*
X79383270Y-66861608D01*
X79388867Y-66853231D01*
X79388868Y-66853229D01*
X79400499Y-66794752D01*
X79400500Y-66794750D01*
X79400500Y-66505249D01*
X79400499Y-66505247D01*
X79386485Y-66434790D01*
X79387762Y-66434535D01*
X79381680Y-66377991D01*
X79388694Y-66354100D01*
X79388867Y-66353231D01*
X79400500Y-66294748D01*
X79400500Y-66005252D01*
X79400500Y-66005249D01*
X79400499Y-66005247D01*
X79386485Y-65934790D01*
X79387762Y-65934535D01*
X79381680Y-65877991D01*
X79388694Y-65854100D01*
X79394582Y-65824500D01*
X79400500Y-65794748D01*
X79400500Y-65505252D01*
X79400500Y-65505249D01*
X79400499Y-65505247D01*
X79386485Y-65434790D01*
X79387762Y-65434535D01*
X79381680Y-65377991D01*
X79388694Y-65354100D01*
X79394582Y-65324500D01*
X79400500Y-65294748D01*
X79400500Y-65149333D01*
X79420185Y-65082294D01*
X79472989Y-65036539D01*
X79542147Y-65026595D01*
X79559431Y-65030355D01*
X79593007Y-65040214D01*
X79628038Y-65050500D01*
X79628039Y-65050500D01*
X79771962Y-65050500D01*
X79771962Y-65050499D01*
X79910053Y-65009953D01*
X80031128Y-64932143D01*
X80125377Y-64823373D01*
X80185165Y-64692457D01*
X80205647Y-64550000D01*
X80185165Y-64407543D01*
X80183903Y-64398765D01*
X80185720Y-64398503D01*
X80185722Y-64339562D01*
X80223498Y-64280785D01*
X80287055Y-64251762D01*
X80304698Y-64250500D01*
X82074167Y-64250500D01*
X82141206Y-64270185D01*
X82161848Y-64286819D01*
X82184959Y-64309930D01*
X82218444Y-64371253D01*
X82213460Y-64440945D01*
X82211838Y-64445065D01*
X82211132Y-64446768D01*
X82199500Y-64505247D01*
X82199500Y-64794749D01*
X82201793Y-64806278D01*
X82195564Y-64875870D01*
X82183279Y-64899356D01*
X82164504Y-64927455D01*
X82150000Y-65000373D01*
X82150000Y-65025000D01*
X83750000Y-65025000D01*
X83750000Y-65000374D01*
X83745630Y-64978407D01*
X83751857Y-64908815D01*
X83794719Y-64853637D01*
X83860608Y-64830392D01*
X83928605Y-64846459D01*
X83960957Y-64873009D01*
X83968872Y-64882143D01*
X83968873Y-64882144D01*
X83995656Y-64899356D01*
X84089947Y-64959953D01*
X84089950Y-64959954D01*
X84089949Y-64959954D01*
X84152796Y-64978407D01*
X84227606Y-65000373D01*
X84228036Y-65000499D01*
X84228038Y-65000500D01*
X84324167Y-65000500D01*
X84391206Y-65020185D01*
X84411848Y-65036819D01*
X84464540Y-65089511D01*
X84520489Y-65145460D01*
X84520491Y-65145461D01*
X84520495Y-65145464D01*
X84575137Y-65177011D01*
X84589011Y-65185021D01*
X84665438Y-65205500D01*
X84744562Y-65205500D01*
X84907003Y-65205500D01*
X84974042Y-65225185D01*
X85007923Y-65257450D01*
X85010805Y-65261487D01*
X85093514Y-65344196D01*
X85093515Y-65344196D01*
X85093517Y-65344198D01*
X85198607Y-65395573D01*
X85228991Y-65400000D01*
X85266739Y-65405500D01*
X85266740Y-65405500D01*
X86983261Y-65405500D01*
X87016602Y-65400642D01*
X87051393Y-65395573D01*
X87156483Y-65344198D01*
X87239198Y-65261483D01*
X87290573Y-65156393D01*
X87300500Y-65088260D01*
X87300500Y-64721740D01*
X87290573Y-64653607D01*
X87239198Y-64548517D01*
X87239196Y-64548515D01*
X87239196Y-64548514D01*
X87156485Y-64465803D01*
X87051391Y-64414426D01*
X86983261Y-64404500D01*
X86983260Y-64404500D01*
X85266740Y-64404500D01*
X85266739Y-64404500D01*
X85198608Y-64414426D01*
X85093516Y-64465802D01*
X85012699Y-64546619D01*
X84951375Y-64580103D01*
X84881684Y-64575119D01*
X84825750Y-64533247D01*
X84802280Y-64476583D01*
X84797993Y-64446769D01*
X84785165Y-64357543D01*
X84725377Y-64226627D01*
X84725375Y-64226625D01*
X84725374Y-64226622D01*
X84630787Y-64117462D01*
X84601762Y-64053906D01*
X84600500Y-64036260D01*
X84600500Y-63285439D01*
X84598645Y-63278517D01*
X84580021Y-63209011D01*
X84574941Y-63200213D01*
X84558469Y-63132314D01*
X84581321Y-63066287D01*
X84636242Y-63023097D01*
X84705796Y-63016455D01*
X84767898Y-63048471D01*
X84770010Y-63050533D01*
X84943993Y-63224516D01*
X84977478Y-63285839D01*
X84972494Y-63355531D01*
X84967714Y-63366654D01*
X84959428Y-63383603D01*
X84959425Y-63383611D01*
X84949500Y-63451739D01*
X84949500Y-63818260D01*
X84959426Y-63886391D01*
X85010803Y-63991485D01*
X85093514Y-64074196D01*
X85093515Y-64074196D01*
X85093517Y-64074198D01*
X85198607Y-64125573D01*
X85232673Y-64130536D01*
X85266739Y-64135500D01*
X85266740Y-64135500D01*
X86983261Y-64135500D01*
X87005971Y-64132191D01*
X87051393Y-64125573D01*
X87156483Y-64074198D01*
X87239198Y-63991483D01*
X87290573Y-63886393D01*
X87300500Y-63818260D01*
X87300500Y-63451740D01*
X87300169Y-63449471D01*
X87292197Y-63394752D01*
X87290573Y-63383607D01*
X87239198Y-63278517D01*
X87239196Y-63278515D01*
X87239196Y-63278514D01*
X87156485Y-63195803D01*
X87051391Y-63144426D01*
X86983261Y-63134500D01*
X86983260Y-63134500D01*
X85755281Y-63134500D01*
X85688242Y-63114815D01*
X85667600Y-63098181D01*
X85646600Y-63077181D01*
X85613115Y-63015858D01*
X85618099Y-62946166D01*
X85659971Y-62890233D01*
X85725435Y-62865816D01*
X85734281Y-62865500D01*
X86983261Y-62865500D01*
X87005971Y-62862191D01*
X87051393Y-62855573D01*
X87156483Y-62804198D01*
X87239198Y-62721483D01*
X87290573Y-62616393D01*
X87300500Y-62548260D01*
X87300500Y-62181740D01*
X87300261Y-62180103D01*
X87290573Y-62113608D01*
X87290573Y-62113607D01*
X87239198Y-62008517D01*
X87239196Y-62008515D01*
X87239196Y-62008514D01*
X87156485Y-61925803D01*
X87051389Y-61874425D01*
X87046517Y-61872920D01*
X86988276Y-61834322D01*
X86960150Y-61770363D01*
X86971066Y-61701352D01*
X87017561Y-61649198D01*
X87063728Y-61631973D01*
X87075149Y-61630164D01*
X87075155Y-61630162D01*
X87188041Y-61572643D01*
X87188050Y-61572636D01*
X87277636Y-61483050D01*
X87277639Y-61483046D01*
X87335166Y-61370143D01*
X87339149Y-61345000D01*
X84910851Y-61345000D01*
X84914833Y-61370143D01*
X84972360Y-61483046D01*
X84972363Y-61483050D01*
X85061949Y-61572636D01*
X85061953Y-61572639D01*
X85174853Y-61630164D01*
X85186270Y-61631973D01*
X85249406Y-61661902D01*
X85286337Y-61721213D01*
X85285341Y-61791076D01*
X85246731Y-61849309D01*
X85203486Y-61872919D01*
X85198609Y-61874426D01*
X85093514Y-61925803D01*
X85010803Y-62008514D01*
X84959425Y-62113609D01*
X84956584Y-62122807D01*
X84954469Y-62122153D01*
X84930758Y-62173808D01*
X84871906Y-62211467D01*
X84802037Y-62211331D01*
X84749523Y-62180103D01*
X84578962Y-62009542D01*
X84578959Y-62009540D01*
X84577184Y-62008515D01*
X84510439Y-61969980D01*
X84510438Y-61969979D01*
X84484961Y-61963152D01*
X84434010Y-61949500D01*
X84434008Y-61949500D01*
X83874000Y-61949500D01*
X83806961Y-61929815D01*
X83788791Y-61908846D01*
X83786319Y-61911319D01*
X83750000Y-61875000D01*
X82150000Y-61875000D01*
X82150000Y-61899628D01*
X82164503Y-61972540D01*
X82164505Y-61972546D01*
X82183278Y-62000642D01*
X82204155Y-62067320D01*
X82201793Y-62093717D01*
X82199500Y-62105244D01*
X82199500Y-62394752D01*
X82213515Y-62465209D01*
X82212239Y-62465462D01*
X82218317Y-62522023D01*
X82211303Y-62545910D01*
X82199500Y-62605247D01*
X82199500Y-62625500D01*
X82179815Y-62692539D01*
X82127011Y-62738294D01*
X82075500Y-62749500D01*
X81928036Y-62749500D01*
X81789949Y-62790045D01*
X81668873Y-62867856D01*
X81574623Y-62976626D01*
X81574622Y-62976628D01*
X81514834Y-63107543D01*
X81494353Y-63250000D01*
X81514834Y-63392457D01*
X81514835Y-63392458D01*
X81552069Y-63473989D01*
X81562013Y-63543147D01*
X81532988Y-63606703D01*
X81474210Y-63644477D01*
X81439275Y-63649500D01*
X79489712Y-63649500D01*
X79422673Y-63629815D01*
X79376918Y-63577011D01*
X79366974Y-63507853D01*
X79386609Y-63456609D01*
X79388867Y-63453231D01*
X79395770Y-63418530D01*
X79400499Y-63394752D01*
X79400500Y-63394750D01*
X79400500Y-63105249D01*
X79400499Y-63105247D01*
X79386485Y-63034790D01*
X79387762Y-63034535D01*
X79381680Y-62977991D01*
X79388694Y-62954100D01*
X79394898Y-62922912D01*
X79400500Y-62894748D01*
X79400500Y-62605252D01*
X79400500Y-62605249D01*
X79400499Y-62605247D01*
X79386485Y-62534790D01*
X79387762Y-62534535D01*
X79381680Y-62477991D01*
X79388694Y-62454100D01*
X79398231Y-62406153D01*
X79400500Y-62394748D01*
X79400500Y-62105252D01*
X79400500Y-62105249D01*
X79400499Y-62105247D01*
X79386485Y-62034790D01*
X79387762Y-62034535D01*
X79381680Y-61977991D01*
X79388694Y-61954100D01*
X79400499Y-61894752D01*
X79400500Y-61894750D01*
X79400500Y-61749333D01*
X79420185Y-61682294D01*
X79472989Y-61636539D01*
X79542147Y-61626595D01*
X79559431Y-61630355D01*
X79580492Y-61636539D01*
X79628038Y-61650500D01*
X79628039Y-61650500D01*
X79771962Y-61650500D01*
X79771962Y-61650499D01*
X79879121Y-61619035D01*
X79910050Y-61609954D01*
X79910050Y-61609953D01*
X79910053Y-61609953D01*
X80031128Y-61532143D01*
X80125377Y-61423373D01*
X80185165Y-61292457D01*
X80205647Y-61150000D01*
X80185165Y-61007543D01*
X80183903Y-60998765D01*
X80185720Y-60998503D01*
X80185722Y-60939562D01*
X80223498Y-60880785D01*
X80287055Y-60851762D01*
X80304698Y-60850500D01*
X82074167Y-60850500D01*
X82141206Y-60870185D01*
X82161848Y-60886819D01*
X82184959Y-60909930D01*
X82218444Y-60971253D01*
X82213460Y-61040945D01*
X82211838Y-61045065D01*
X82211132Y-61046768D01*
X82199500Y-61105247D01*
X82199500Y-61394749D01*
X82201793Y-61406278D01*
X82195564Y-61475870D01*
X82183279Y-61499356D01*
X82164504Y-61527455D01*
X82150000Y-61600373D01*
X82150000Y-61625000D01*
X83750000Y-61625000D01*
X83750000Y-61600373D01*
X83749999Y-61600371D01*
X83735496Y-61527459D01*
X83735495Y-61527455D01*
X83716722Y-61499360D01*
X83695844Y-61432683D01*
X83698207Y-61406276D01*
X83700500Y-61394749D01*
X83700500Y-61105249D01*
X83700499Y-61105247D01*
X83688868Y-61046770D01*
X83688867Y-61046769D01*
X83644552Y-60980447D01*
X83578230Y-60936132D01*
X83578229Y-60936131D01*
X83519752Y-60924500D01*
X83519748Y-60924500D01*
X83100833Y-60924500D01*
X83033794Y-60904815D01*
X83013152Y-60888181D01*
X82969971Y-60845000D01*
X84910851Y-60845000D01*
X85875000Y-60845000D01*
X85875000Y-60545000D01*
X85268520Y-60545000D01*
X85174850Y-60559835D01*
X85174844Y-60559837D01*
X85061958Y-60617356D01*
X85061949Y-60617363D01*
X84972363Y-60706949D01*
X84972360Y-60706953D01*
X84914833Y-60819856D01*
X84910851Y-60845000D01*
X82969971Y-60845000D01*
X82434512Y-60309541D01*
X82434504Y-60309535D01*
X82365995Y-60269982D01*
X82365990Y-60269979D01*
X82340513Y-60263152D01*
X82289562Y-60249500D01*
X77302062Y-60249500D01*
X77222938Y-60249500D01*
X77146510Y-60269978D01*
X77077989Y-60309540D01*
X77077986Y-60309542D01*
X76699348Y-60688181D01*
X76638025Y-60721666D01*
X76611667Y-60724500D01*
X76109740Y-60724500D01*
X76080150Y-60727274D01*
X75955523Y-60770884D01*
X75849289Y-60849288D01*
X75849288Y-60849289D01*
X75770884Y-60955523D01*
X75727274Y-61080150D01*
X75724921Y-61105252D01*
X75724500Y-61109744D01*
X75724500Y-61690256D01*
X75727101Y-61717991D01*
X75713760Y-61786576D01*
X75665458Y-61837060D01*
X75597530Y-61853416D01*
X75580765Y-61850582D01*
X75580740Y-61850762D01*
X75571962Y-61849500D01*
X75571961Y-61849500D01*
X75460400Y-61849500D01*
X75393361Y-61829815D01*
X75347606Y-61777011D01*
X75336400Y-61725500D01*
X75336400Y-60577066D01*
X75337662Y-60559419D01*
X75337703Y-60559136D01*
X75337900Y-60557765D01*
X75337900Y-60017200D01*
X75337110Y-60009851D01*
X75336400Y-59996597D01*
X75336400Y-59893762D01*
X75356085Y-59826723D01*
X75372719Y-59806081D01*
X76454000Y-58724800D01*
X76454000Y-56678333D01*
X76473685Y-56611294D01*
X76526489Y-56565539D01*
X76595647Y-56555595D01*
X76659203Y-56584620D01*
G37*
%TD.AperFunction*%
%TA.AperFunction,Conductor*%
G36*
X79099990Y-50520185D02*
G01*
X79145745Y-50572989D01*
X79155689Y-50642147D01*
X79134369Y-50693616D01*
X79134483Y-50693679D01*
X79133904Y-50694738D01*
X79132218Y-50698810D01*
X79130234Y-50701459D01*
X79130233Y-50701462D01*
X79081241Y-50832812D01*
X79075000Y-50890853D01*
X79075000Y-50975000D01*
X79926000Y-50975000D01*
X79993039Y-50994685D01*
X80038794Y-51047489D01*
X80050000Y-51099000D01*
X80050000Y-52000000D01*
X80084130Y-52000000D01*
X80084146Y-51999999D01*
X80142187Y-51993758D01*
X80273537Y-51944767D01*
X80318898Y-51910810D01*
X80384362Y-51886393D01*
X80452635Y-51901244D01*
X80502041Y-51950650D01*
X80517209Y-52010126D01*
X80517114Y-52251519D01*
X80497403Y-52318551D01*
X80444581Y-52364285D01*
X80375419Y-52374201D01*
X80319481Y-52351240D01*
X80244476Y-52295884D01*
X80119848Y-52252274D01*
X80119849Y-52252274D01*
X80090260Y-52249500D01*
X80090256Y-52249500D01*
X79509744Y-52249500D01*
X79509740Y-52249500D01*
X79480150Y-52252274D01*
X79355523Y-52295884D01*
X79249289Y-52374288D01*
X79249288Y-52374289D01*
X79170884Y-52480523D01*
X79127274Y-52605150D01*
X79124500Y-52634739D01*
X79124500Y-53315260D01*
X79127274Y-53344849D01*
X79170884Y-53469476D01*
X79249288Y-53575710D01*
X79249289Y-53575711D01*
X79336750Y-53640260D01*
X79355525Y-53654116D01*
X79416457Y-53675437D01*
X79473230Y-53716157D01*
X79498978Y-53781109D01*
X79499500Y-53792477D01*
X79499500Y-54407522D01*
X79479815Y-54474561D01*
X79427011Y-54520316D01*
X79416455Y-54524563D01*
X79355524Y-54545883D01*
X79355523Y-54545884D01*
X79249289Y-54624288D01*
X79249288Y-54624289D01*
X79170884Y-54730523D01*
X79166660Y-54742595D01*
X79125936Y-54799369D01*
X79060983Y-54825114D01*
X78992422Y-54811656D01*
X78982580Y-54805951D01*
X78950051Y-54785045D01*
X78811963Y-54744500D01*
X78811961Y-54744500D01*
X78668039Y-54744500D01*
X78668036Y-54744500D01*
X78529949Y-54785045D01*
X78408873Y-54862856D01*
X78314623Y-54971626D01*
X78314622Y-54971628D01*
X78254834Y-55102543D01*
X78234353Y-55245000D01*
X78254834Y-55387456D01*
X78311250Y-55510988D01*
X78321194Y-55580147D01*
X78311250Y-55614012D01*
X78254834Y-55737543D01*
X78234353Y-55880000D01*
X78254834Y-56022456D01*
X78282093Y-56082143D01*
X78314623Y-56153373D01*
X78408872Y-56262143D01*
X78529947Y-56339953D01*
X78529950Y-56339954D01*
X78529949Y-56339954D01*
X78668036Y-56380499D01*
X78668038Y-56380500D01*
X78668039Y-56380500D01*
X78811962Y-56380500D01*
X78811962Y-56380499D01*
X78919121Y-56349035D01*
X78950050Y-56339954D01*
X78950050Y-56339953D01*
X78950053Y-56339953D01*
X79071128Y-56262143D01*
X79165377Y-56153373D01*
X79225165Y-56022457D01*
X79236428Y-55944114D01*
X79265452Y-55880560D01*
X79324230Y-55842785D01*
X79394100Y-55842784D01*
X79400110Y-55844717D01*
X79480151Y-55872725D01*
X79480150Y-55872725D01*
X79509740Y-55875500D01*
X79509744Y-55875500D01*
X80090260Y-55875500D01*
X80119849Y-55872725D01*
X80126919Y-55870251D01*
X80244475Y-55829116D01*
X80318068Y-55774802D01*
X80383695Y-55750832D01*
X80451865Y-55766147D01*
X80500934Y-55815887D01*
X80515700Y-55874621D01*
X80515524Y-56325344D01*
X80495813Y-56392376D01*
X80442991Y-56438110D01*
X80373829Y-56448027D01*
X80317891Y-56425067D01*
X80244474Y-56370883D01*
X80119848Y-56327274D01*
X80119849Y-56327274D01*
X80090260Y-56324500D01*
X80090256Y-56324500D01*
X79509744Y-56324500D01*
X79509740Y-56324500D01*
X79480150Y-56327274D01*
X79355523Y-56370884D01*
X79249289Y-56449288D01*
X79249288Y-56449289D01*
X79170884Y-56555523D01*
X79170884Y-56555524D01*
X79145189Y-56628955D01*
X79104467Y-56685731D01*
X79039514Y-56711478D01*
X79028148Y-56712000D01*
X77688333Y-56712000D01*
X77621294Y-56692315D01*
X77600652Y-56675681D01*
X76739395Y-55814424D01*
X76705910Y-55753101D01*
X76704339Y-55709094D01*
X76705647Y-55700000D01*
X76685165Y-55557543D01*
X76625377Y-55426627D01*
X76625375Y-55426625D01*
X76625374Y-55426622D01*
X76531133Y-55317862D01*
X76531127Y-55317856D01*
X76510958Y-55304894D01*
X76465204Y-55252089D01*
X76454000Y-55200580D01*
X76454000Y-54987901D01*
X76455262Y-54970254D01*
X76455500Y-54968600D01*
X76455500Y-51762200D01*
X76454710Y-51754851D01*
X76454000Y-51741597D01*
X76454000Y-51559146D01*
X79075000Y-51559146D01*
X79081241Y-51617187D01*
X79130232Y-51748537D01*
X79214241Y-51860758D01*
X79326462Y-51944767D01*
X79457812Y-51993758D01*
X79515853Y-51999999D01*
X79515870Y-52000000D01*
X79550000Y-52000000D01*
X79550000Y-51475000D01*
X79075000Y-51475000D01*
X79075000Y-51559146D01*
X76454000Y-51559146D01*
X76454000Y-50624500D01*
X76473685Y-50557461D01*
X76526489Y-50511706D01*
X76578000Y-50500500D01*
X79032951Y-50500500D01*
X79099990Y-50520185D01*
G37*
%TD.AperFunction*%
%TD*%
M02*
