M48
; DRILL file {KiCad 8.0.6-8.0.6-0~ubuntu22.04.1} date 2024-11-01T23:24:54+0900
; FORMAT={-:-/ absolute / metric / decimal}
; #@! TF.CreationDate,2024-11-01T23:24:54+09:00
; #@! TF.GenerationSoftware,Kicad,Pcbnew,8.0.6-8.0.6-0~ubuntu22.04.1
; #@! TF.FileFunction,MixedPlating,1,4
FMAT,2
METRIC
; #@! TA.AperFunction,Plated,PTH,ViaDrill
T1C0.300
; #@! TA.AperFunction,Plated,PTH,ComponentDrill
T2C1.000
; #@! TA.AperFunction,Plated,PTH,ComponentDrill
T3C1.900
%
G90
G05
T1
X51.435Y-52.07
X51.435Y-53.34
X51.435Y-54.61
X51.435Y-57.785
X51.435Y-59.055
X51.435Y-60.325
X51.435Y-61.595
X51.435Y-62.865
X51.435Y-64.135
X51.435Y-65.405
X51.435Y-66.675
X51.435Y-67.945
X52.07Y-77.47
X52.705Y-52.07
X53.34Y-53.975
X53.34Y-54.61
X53.975Y-50.8
X53.975Y-57.785
X53.975Y-59.055
X53.975Y-60.325
X53.975Y-62.23
X53.975Y-63.5
X53.975Y-65.405
X54.61Y-55.245
X54.61Y-55.88
X54.61Y-77.47
X55.245Y-55.245
X55.88Y-55.245
X56.3Y-51.5
X56.515Y-55.245
X57.15Y-77.47
X57.785Y-67.945
X58.115Y-53.111
X58.42Y-54.61
X59.055Y-53.975
X59.055Y-54.61
X59.055Y-64.77
X59.055Y-66.675
X59.69Y-57.785
X59.69Y-58.42
X59.69Y-59.055
X59.69Y-59.69
X59.69Y-60.96
X59.69Y-62.23
X59.69Y-63.5
X59.69Y-77.47
X60.2Y-68.8
X60.325Y-55.88
X60.325Y-57.785
X60.325Y-58.42
X60.325Y-59.055
X60.325Y-59.69
X60.96Y-57.15
X60.96Y-57.785
X60.96Y-58.42
X60.96Y-59.055
X60.96Y-59.69
X60.96Y-63.5
X60.96Y-66.675
X61.595Y-57.785
X61.595Y-58.42
X61.8Y-68.88
X62.23Y-57.785
X62.23Y-58.42
X62.23Y-59.055
X62.23Y-64.77
X62.23Y-65.405
X62.23Y-66.04
X62.23Y-77.47
X62.7Y-69.8
X62.865Y-57.785
X62.865Y-58.42
X62.865Y-59.055
X63.5Y-57.785
X63.5Y-58.42
X63.5Y-59.055
X63.5Y-67.945
X64.135Y-58.42
X64.135Y-59.055
X64.195Y-56.6
X64.364Y-51.257
X64.77Y-62.23
X64.77Y-63.5
X64.77Y-64.77
X64.77Y-66.04
X64.77Y-77.47
X64.9Y-54.8
X65.355Y-58.42
X65.405Y-66.675
X65.405Y-69.215
X65.405Y-69.85
X65.405Y-70.485
X65.405Y-71.12
X66.04Y-52.07
X66.04Y-52.705
X66.04Y-63.5
X66.04Y-69.215
X66.04Y-69.85
X66.04Y-70.485
X66.04Y-71.12
X66.675Y-52.07
X66.675Y-52.705
X66.675Y-69.85
X66.675Y-70.485
X66.675Y-71.12
X67.31Y-52.705
X67.31Y-70.485
X67.31Y-71.12
X67.31Y-77.47
X67.945Y-71.12
X68.5Y-69.0
X69.215Y-52.07
X69.215Y-59.055
X69.85Y-59.055
X69.85Y-59.69
X69.85Y-64.77
X69.85Y-66.04
X70.485Y-59.055
X70.485Y-59.69
X71.12Y-57.15
X71.12Y-57.785
X71.12Y-58.42
X71.12Y-59.055
X71.12Y-59.69
X71.755Y-52.07
X71.755Y-57.15
X71.755Y-57.785
X71.755Y-58.42
X71.755Y-59.055
X71.755Y-59.69
X71.755Y-66.04
X72.39Y-57.15
X72.39Y-57.785
X72.39Y-58.42
X72.39Y-59.055
X72.39Y-59.69
X72.39Y-77.47
X73.6Y-60.4
X73.6Y-61.4
X73.6Y-63.2
X73.6Y-66.599
X73.6Y-68.2
X73.6Y-70.0
X74.93Y-77.47
X75.5Y-62.35
X75.5Y-65.75
X75.5Y-69.15
X76.2Y-55.7
X77.2Y-54.612
X77.47Y-77.47
X77.55Y-61.75
X77.55Y-65.15
X77.55Y-68.55
X78.74Y-55.245
X78.74Y-55.88
X79.7Y-61.15
X79.7Y-64.55
X79.7Y-67.955
X80.01Y-77.47
X80.543Y-61.163
X81.89Y-62.382
X82.0Y-63.25
X82.0Y-66.65
X82.0Y-70.05
X82.55Y-77.47
X83.464Y-60.579
X84.3Y-64.5
X84.3Y-69.7
X84.3Y-70.56
X84.506Y-65.507
X85.09Y-52.07
X85.09Y-52.705
X85.725Y-52.07
X85.725Y-52.705
X85.725Y-53.34
X85.725Y-77.47
X86.614Y-55.2
X86.614Y-56.1
X86.7Y-54.1
X87.6Y-54.1
X89.535Y-63.7
X89.56Y-66.319
X89.6Y-67.565
X89.738Y-62.357
X90.018Y-52.73
X91.9Y-57.8
X92.6Y-65.175
X92.7Y-61.3
X92.8Y-57.8
X92.8Y-67.5
X92.837Y-51.867
X92.9Y-69.412
X93.142Y-63.144
X93.6Y-61.3
X93.7Y-57.8
X94.047Y-59.547
X94.795Y-66.7
X95.462Y-63.5
X96.065Y-66.7
X96.52Y-57.785
X96.52Y-58.42
X96.926Y-53.21
X97.335Y-66.7
X98.578Y-55.051
X98.605Y-66.7
X99.178Y-55.584
T2
X51.5Y-56.2
X51.5Y-69.2
X52.32Y-72.4
X52.32Y-74.94
X54.86Y-72.4
X54.86Y-74.94
X57.4Y-72.4
X57.4Y-74.94
X59.94Y-72.4
X59.94Y-74.94
X62.48Y-72.4
X62.48Y-74.94
X65.02Y-72.4
X65.02Y-74.94
X67.56Y-72.4
X67.56Y-74.94
X70.1Y-72.4
X70.1Y-74.94
X72.64Y-72.4
X72.64Y-74.94
X73.863Y-52.867
X73.863Y-57.867
X75.18Y-72.4
X75.18Y-74.94
X77.72Y-72.4
X77.72Y-74.94
X80.26Y-72.4
X80.26Y-74.94
X82.8Y-72.4
X82.8Y-74.94
X85.34Y-72.4
X85.34Y-74.94
X90.48Y-72.4
X90.48Y-74.94
X93.02Y-72.4
X93.02Y-74.94
X95.56Y-72.4
X95.56Y-74.94
X98.1Y-72.4
X98.1Y-74.94
T3
X56.5Y-59.2
X56.5Y-62.7
X56.5Y-66.2
M30
