%TF.GenerationSoftware,KiCad,Pcbnew,8.0.6-8.0.6-0~ubuntu22.04.1*%
%TF.CreationDate,2024-11-01T23:26:47+09:00*%
%TF.ProjectId,blmd_hardware,626c6d64-5f68-4617-9264-776172652e6b,rev?*%
%TF.SameCoordinates,Original*%
%TF.FileFunction,Paste,Bot*%
%TF.FilePolarity,Positive*%
%FSLAX46Y46*%
G04 Gerber Fmt 4.6, Leading zero omitted, Abs format (unit mm)*
G04 Created by KiCad (PCBNEW 8.0.6-8.0.6-0~ubuntu22.04.1) date 2024-11-01 23:26:47*
%MOMM*%
%LPD*%
G01*
G04 APERTURE LIST*
G04 Aperture macros list*
%AMRoundRect*
0 Rectangle with rounded corners*
0 $1 Rounding radius*
0 $2 $3 $4 $5 $6 $7 $8 $9 X,Y pos of 4 corners*
0 Add a 4 corners polygon primitive as box body*
4,1,4,$2,$3,$4,$5,$6,$7,$8,$9,$2,$3,0*
0 Add four circle primitives for the rounded corners*
1,1,$1+$1,$2,$3*
1,1,$1+$1,$4,$5*
1,1,$1+$1,$6,$7*
1,1,$1+$1,$8,$9*
0 Add four rect primitives between the rounded corners*
20,1,$1+$1,$2,$3,$4,$5,0*
20,1,$1+$1,$4,$5,$6,$7,0*
20,1,$1+$1,$6,$7,$8,$9,0*
20,1,$1+$1,$8,$9,$2,$3,0*%
G04 Aperture macros list end*
%ADD10RoundRect,0.237500X0.237500X-0.250000X0.237500X0.250000X-0.237500X0.250000X-0.237500X-0.250000X0*%
%ADD11RoundRect,0.150000X-0.150000X-0.200000X0.150000X-0.200000X0.150000X0.200000X-0.150000X0.200000X0*%
%ADD12RoundRect,0.237500X0.237500X-0.300000X0.237500X0.300000X-0.237500X0.300000X-0.237500X-0.300000X0*%
%ADD13R,0.510000X0.700000*%
%ADD14RoundRect,0.237500X-0.300000X-0.237500X0.300000X-0.237500X0.300000X0.237500X-0.300000X0.237500X0*%
%ADD15RoundRect,0.237500X0.300000X0.237500X-0.300000X0.237500X-0.300000X-0.237500X0.300000X-0.237500X0*%
%ADD16RoundRect,0.237500X-0.237500X0.250000X-0.237500X-0.250000X0.237500X-0.250000X0.237500X0.250000X0*%
%ADD17RoundRect,0.237500X-0.250000X-0.237500X0.250000X-0.237500X0.250000X0.237500X-0.250000X0.237500X0*%
%ADD18RoundRect,0.125000X0.125000X0.125000X-0.125000X0.125000X-0.125000X-0.125000X0.125000X-0.125000X0*%
%ADD19RoundRect,0.237500X0.250000X0.237500X-0.250000X0.237500X-0.250000X-0.237500X0.250000X-0.237500X0*%
%ADD20RoundRect,0.150000X-0.150000X0.825000X-0.150000X-0.825000X0.150000X-0.825000X0.150000X0.825000X0*%
%ADD21RoundRect,0.237500X-0.237500X0.300000X-0.237500X-0.300000X0.237500X-0.300000X0.237500X0.300000X0*%
%ADD22RoundRect,0.237500X0.380070X-0.044194X-0.044194X0.380070X-0.380070X0.044194X0.044194X-0.380070X0*%
%ADD23RoundRect,0.125000X0.353553X0.530330X-0.530330X-0.353553X-0.353553X-0.530330X0.530330X0.353553X0*%
%ADD24RoundRect,0.125000X-0.353553X0.530330X-0.530330X0.353553X0.353553X-0.530330X0.530330X-0.353553X0*%
G04 APERTURE END LIST*
D10*
%TO.C,R1*%
X76200000Y-58612500D03*
X76200000Y-56787500D03*
%TD*%
D11*
%TO.C,D1*%
X69530000Y-77100000D03*
X68130000Y-77100000D03*
%TD*%
D12*
%TO.C,C10*%
X87100000Y-64062500D03*
X87100000Y-62337500D03*
%TD*%
D13*
%TO.C,U8*%
X68050000Y-53940000D03*
X69000000Y-53940000D03*
X69950000Y-53940000D03*
X69950000Y-56260000D03*
X68050000Y-56260000D03*
%TD*%
D14*
%TO.C,C6*%
X79237500Y-65300000D03*
X80962500Y-65300000D03*
%TD*%
D15*
%TO.C,C21*%
X95462500Y-64400000D03*
X93737500Y-64400000D03*
%TD*%
D12*
%TO.C,C19*%
X71700000Y-55962500D03*
X71700000Y-54237500D03*
%TD*%
D14*
%TO.C,C3*%
X74737500Y-64900000D03*
X76462500Y-64900000D03*
%TD*%
%TO.C,C15*%
X60237500Y-67900000D03*
X61962500Y-67900000D03*
%TD*%
D16*
%TO.C,R12*%
X92200000Y-68487500D03*
X92200000Y-70312500D03*
%TD*%
D10*
%TO.C,R16*%
X97300000Y-69412500D03*
X97300000Y-67587500D03*
%TD*%
D14*
%TO.C,C18*%
X61237500Y-51500000D03*
X62962500Y-51500000D03*
%TD*%
D12*
%TO.C,C22*%
X88800000Y-64062500D03*
X88800000Y-62337500D03*
%TD*%
D10*
%TO.C,R18*%
X93900000Y-69412500D03*
X93900000Y-67587500D03*
%TD*%
D17*
%TO.C,R23*%
X57887500Y-69800000D03*
X59712500Y-69800000D03*
%TD*%
D10*
%TO.C,R17*%
X95600000Y-69412500D03*
X95600000Y-67587500D03*
%TD*%
D11*
%TO.C,D5*%
X69700000Y-58000000D03*
X68300000Y-58000000D03*
%TD*%
D14*
%TO.C,C2*%
X74737500Y-68300000D03*
X76462500Y-68300000D03*
%TD*%
D12*
%TO.C,C8*%
X84300000Y-68562500D03*
X84300000Y-66837500D03*
%TD*%
D18*
%TO.C,D4*%
X76700000Y-63200000D03*
X74500000Y-63200000D03*
%TD*%
D12*
%TO.C,C9*%
X84300000Y-63362500D03*
X84300000Y-61637500D03*
%TD*%
D14*
%TO.C,C5*%
X79237500Y-68700000D03*
X80962500Y-68700000D03*
%TD*%
D19*
%TO.C,R24*%
X59012500Y-51500000D03*
X57187500Y-51500000D03*
%TD*%
%TO.C,R11*%
X81012500Y-63600000D03*
X79187500Y-63600000D03*
%TD*%
D18*
%TO.C,D3*%
X76700000Y-66600000D03*
X74500000Y-66600000D03*
%TD*%
%TO.C,D2*%
X76700000Y-70000000D03*
X74500000Y-70000000D03*
%TD*%
D14*
%TO.C,C7*%
X79237500Y-61900000D03*
X80962500Y-61900000D03*
%TD*%
%TO.C,C4*%
X74737500Y-61500000D03*
X76462500Y-61500000D03*
%TD*%
D15*
%TO.C,C17*%
X55662500Y-69800000D03*
X53937500Y-69800000D03*
%TD*%
D20*
%TO.C,U9*%
X78595000Y-53425000D03*
X79865000Y-53425000D03*
X81135000Y-53425000D03*
X82405000Y-53425000D03*
X82405000Y-58375000D03*
X81135000Y-58375000D03*
X79865000Y-58375000D03*
X78595000Y-58375000D03*
%TD*%
D21*
%TO.C,C14*%
X84300000Y-55037500D03*
X84300000Y-56762500D03*
%TD*%
D15*
%TO.C,C16*%
X56962500Y-53200000D03*
X55237500Y-53200000D03*
%TD*%
D19*
%TO.C,R10*%
X81012500Y-67000000D03*
X79187500Y-67000000D03*
%TD*%
%TO.C,R19*%
X89112500Y-52000000D03*
X87287500Y-52000000D03*
%TD*%
D16*
%TO.C,R14*%
X90500000Y-64487500D03*
X90500000Y-66312500D03*
%TD*%
D22*
%TO.C,C13*%
X97709880Y-53209880D03*
X96490120Y-51990120D03*
%TD*%
D12*
%TO.C,C20*%
X66300000Y-55962500D03*
X66300000Y-54237500D03*
%TD*%
D19*
%TO.C,R9*%
X81012500Y-70400000D03*
X79187500Y-70400000D03*
%TD*%
D10*
%TO.C,R15*%
X99000000Y-69412500D03*
X99000000Y-67587500D03*
%TD*%
D16*
%TO.C,R2*%
X76200000Y-52787500D03*
X76200000Y-54612500D03*
%TD*%
D23*
%TO.C,U10*%
X94172272Y-52667930D03*
X94737957Y-53233616D03*
X95303643Y-53799301D03*
X95869328Y-54364986D03*
X96435014Y-54930672D03*
X97000699Y-55496357D03*
X97566384Y-56062043D03*
X98132070Y-56627728D03*
D24*
X98132070Y-58572272D03*
X97566384Y-59137957D03*
X97000699Y-59703643D03*
X96435014Y-60269328D03*
X95869328Y-60835014D03*
X95303643Y-61400699D03*
X94737957Y-61966384D03*
X94172272Y-62532070D03*
D23*
X92227728Y-62532070D03*
X91662043Y-61966384D03*
X91096357Y-61400699D03*
X90530672Y-60835014D03*
X89964986Y-60269328D03*
X89399301Y-59703643D03*
X88833616Y-59137957D03*
X88267930Y-58572272D03*
D24*
X88267930Y-56627728D03*
X88833616Y-56062043D03*
X89399301Y-55496357D03*
X89964986Y-54930672D03*
X90530672Y-54364986D03*
X91096357Y-53799301D03*
X91662043Y-53233616D03*
X92227728Y-52667930D03*
%TD*%
D12*
%TO.C,C11*%
X90500000Y-70262500D03*
X90500000Y-68537500D03*
%TD*%
D16*
%TO.C,R13*%
X88800000Y-68487500D03*
X88800000Y-70312500D03*
%TD*%
M02*
