%TF.GenerationSoftware,KiCad,Pcbnew,8.0.6-8.0.6-0~ubuntu22.04.1*%
%TF.CreationDate,2024-11-01T23:26:47+09:00*%
%TF.ProjectId,blmd_hardware,626c6d64-5f68-4617-9264-776172652e6b,rev?*%
%TF.SameCoordinates,Original*%
%TF.FileFunction,Paste,Top*%
%TF.FilePolarity,Positive*%
%FSLAX46Y46*%
G04 Gerber Fmt 4.6, Leading zero omitted, Abs format (unit mm)*
G04 Created by KiCad (PCBNEW 8.0.6-8.0.6-0~ubuntu22.04.1) date 2024-11-01 23:26:47*
%MOMM*%
%LPD*%
G01*
G04 APERTURE LIST*
G04 Aperture macros list*
%AMRoundRect*
0 Rectangle with rounded corners*
0 $1 Rounding radius*
0 $2 $3 $4 $5 $6 $7 $8 $9 X,Y pos of 4 corners*
0 Add a 4 corners polygon primitive as box body*
4,1,4,$2,$3,$4,$5,$6,$7,$8,$9,$2,$3,0*
0 Add four circle primitives for the rounded corners*
1,1,$1+$1,$2,$3*
1,1,$1+$1,$4,$5*
1,1,$1+$1,$6,$7*
1,1,$1+$1,$8,$9*
0 Add four rect primitives between the rounded corners*
20,1,$1+$1,$2,$3,$4,$5,0*
20,1,$1+$1,$4,$5,$6,$7,0*
20,1,$1+$1,$6,$7,$8,$9,0*
20,1,$1+$1,$8,$9,$2,$3,0*%
%AMFreePoly0*
4,1,21,-0.300000,0.107500,-0.291817,0.148638,-0.268514,0.183514,-0.233638,0.206817,-0.192500,0.215000,0.192500,0.215000,0.233638,0.206817,0.268514,0.183514,0.291817,0.148638,0.300000,0.107500,0.300000,-0.107500,0.291817,-0.148638,0.268514,-0.183514,0.233638,-0.206817,0.192500,-0.215000,-0.192500,-0.215000,-0.233638,-0.206817,-0.268514,-0.183514,-0.291817,-0.148638,-0.300000,-0.107500,
-0.300000,0.107500,-0.300000,0.107500,$1*%
G04 Aperture macros list end*
%ADD10RoundRect,0.150000X0.825000X0.150000X-0.825000X0.150000X-0.825000X-0.150000X0.825000X-0.150000X0*%
%ADD11RoundRect,0.237500X0.250000X0.237500X-0.250000X0.237500X-0.250000X-0.237500X0.250000X-0.237500X0*%
%ADD12FreePoly0,270.000000*%
%ADD13RoundRect,0.107500X-0.107500X0.192500X-0.107500X-0.192500X0.107500X-0.192500X0.107500X0.192500X0*%
%ADD14R,0.430000X0.450000*%
%ADD15R,3.000000X2.000000*%
%ADD16R,0.760000X1.600000*%
%ADD17RoundRect,0.237500X0.237500X-0.250000X0.237500X0.250000X-0.237500X0.250000X-0.237500X-0.250000X0*%
%ADD18R,1.100000X0.250000*%
%ADD19R,0.500000X1.600000*%
%ADD20R,0.900000X0.600000*%
%ADD21R,1.800000X1.700000*%
%ADD22RoundRect,0.237500X-0.237500X0.287500X-0.237500X-0.287500X0.237500X-0.287500X0.237500X0.287500X0*%
%ADD23FreePoly0,90.000000*%
%ADD24RoundRect,0.107500X0.107500X-0.192500X0.107500X0.192500X-0.107500X0.192500X-0.107500X-0.192500X0*%
%ADD25RoundRect,0.162500X-0.362500X-0.162500X0.362500X-0.162500X0.362500X0.162500X-0.362500X0.162500X0*%
%ADD26RoundRect,0.237500X0.300000X0.237500X-0.300000X0.237500X-0.300000X-0.237500X0.300000X-0.237500X0*%
%ADD27R,0.660400X2.768600*%
G04 APERTURE END LIST*
D10*
%TO.C,U5*%
X91075000Y-64905000D03*
X91075000Y-63635000D03*
X91075000Y-62365000D03*
X91075000Y-61095000D03*
X86125000Y-61095000D03*
X86125000Y-62365000D03*
X86125000Y-63635000D03*
X86125000Y-64905000D03*
%TD*%
D11*
%TO.C,R6*%
X76412500Y-68200000D03*
X74587500Y-68200000D03*
%TD*%
D12*
%TO.C,Q1*%
X72085000Y-66900000D03*
D13*
X71435000Y-66900000D03*
X70785000Y-66900000D03*
X70135000Y-66900000D03*
D14*
X70135000Y-70075000D03*
X70785000Y-70075000D03*
X71435000Y-70074000D03*
X72085000Y-70075000D03*
D15*
X71110000Y-68849500D03*
%TD*%
D16*
%TO.C,SW2*%
X98605000Y-62090000D03*
X97335000Y-62090000D03*
X96065000Y-62090000D03*
X94795000Y-62090000D03*
X94795000Y-69710000D03*
X96065000Y-69710000D03*
X97335000Y-69710000D03*
X98605000Y-69710000D03*
%TD*%
D11*
%TO.C,R3*%
X76412500Y-69900000D03*
X74587500Y-69900000D03*
%TD*%
D12*
%TO.C,Q3*%
X67485000Y-54600000D03*
D13*
X66835000Y-54600000D03*
X66185000Y-54600000D03*
X65535000Y-54600000D03*
D14*
X65535000Y-57775000D03*
X66185000Y-57775000D03*
X66835000Y-57774000D03*
X67485000Y-57775000D03*
D15*
X66510000Y-56549500D03*
%TD*%
D17*
%TO.C,R21*%
X81500000Y-57012500D03*
X81500000Y-55187500D03*
%TD*%
D18*
%TO.C,U1*%
X78650000Y-68050000D03*
X78650000Y-68550000D03*
X78650000Y-69050000D03*
X78650000Y-69550000D03*
X78650000Y-70050000D03*
X82950000Y-70050000D03*
X82950000Y-69550000D03*
X82950000Y-69050000D03*
X82950000Y-68550000D03*
X82950000Y-68050000D03*
%TD*%
D11*
%TO.C,R7*%
X76412500Y-64800000D03*
X74587500Y-64800000D03*
%TD*%
D19*
%TO.C,U6*%
X60300000Y-70150000D03*
X61900000Y-70150000D03*
X63500000Y-70150000D03*
D20*
X64700000Y-67650000D03*
D21*
X63400000Y-65300000D03*
X60400000Y-65300000D03*
D20*
X59100000Y-67650000D03*
%TD*%
D11*
%TO.C,R8*%
X76412500Y-61400000D03*
X74587500Y-61400000D03*
%TD*%
D22*
%TO.C,D7*%
X81500000Y-51225000D03*
X81500000Y-52975000D03*
%TD*%
D18*
%TO.C,U2*%
X78650000Y-64650000D03*
X78650000Y-65150000D03*
X78650000Y-65650000D03*
X78650000Y-66150000D03*
X78650000Y-66650000D03*
X82950000Y-66650000D03*
X82950000Y-66150000D03*
X82950000Y-65650000D03*
X82950000Y-65150000D03*
X82950000Y-64650000D03*
%TD*%
D23*
%TO.C,Q2*%
X65515000Y-62200000D03*
D24*
X66165000Y-62200000D03*
X66815000Y-62200000D03*
X67465000Y-62200000D03*
D14*
X67465000Y-59025000D03*
X66815000Y-59025000D03*
X66165000Y-59026000D03*
X65515000Y-59025000D03*
D15*
X66490000Y-60250500D03*
%TD*%
D11*
%TO.C,R4*%
X76412500Y-66500000D03*
X74587500Y-66500000D03*
%TD*%
D10*
%TO.C,U4*%
X91075000Y-70105000D03*
X91075000Y-68835000D03*
X91075000Y-67565000D03*
X91075000Y-66295000D03*
X86125000Y-66295000D03*
X86125000Y-67565000D03*
X86125000Y-68835000D03*
X86125000Y-70105000D03*
%TD*%
D12*
%TO.C,Q5*%
X63685000Y-59800000D03*
D13*
X63035000Y-59800000D03*
X62385000Y-59800000D03*
X61735000Y-59800000D03*
D14*
X61735000Y-62975000D03*
X62385000Y-62975000D03*
X63035000Y-62974000D03*
X63685000Y-62975000D03*
D15*
X62710000Y-61749500D03*
%TD*%
D23*
%TO.C,Q4*%
X66315000Y-68300000D03*
D24*
X66965000Y-68300000D03*
X67615000Y-68300000D03*
X68265000Y-68300000D03*
D14*
X68265000Y-65125000D03*
X67615000Y-65125000D03*
X66965000Y-65126000D03*
X66315000Y-65125000D03*
D15*
X67290000Y-66350500D03*
%TD*%
D17*
%TO.C,R22*%
X83200000Y-57012500D03*
X83200000Y-55187500D03*
%TD*%
%TO.C,R20*%
X79800000Y-57012500D03*
X79800000Y-55187500D03*
%TD*%
D22*
%TO.C,D8*%
X83200000Y-51225000D03*
X83200000Y-52975000D03*
%TD*%
D23*
%TO.C,Q6*%
X61715000Y-56600000D03*
D24*
X62365000Y-56600000D03*
X63015000Y-56600000D03*
X63665000Y-56600000D03*
D14*
X63665000Y-53425000D03*
X63015000Y-53425000D03*
X62365000Y-53426000D03*
X61715000Y-53425000D03*
D15*
X62690000Y-54650500D03*
%TD*%
D19*
%TO.C,U7*%
X58900000Y-51350000D03*
X57300000Y-51350000D03*
X55700000Y-51350000D03*
D20*
X54500000Y-53850000D03*
D21*
X55800000Y-56200000D03*
X58800000Y-56200000D03*
D20*
X60100000Y-53850000D03*
%TD*%
D11*
%TO.C,R5*%
X76412500Y-63100000D03*
X74587500Y-63100000D03*
%TD*%
D25*
%TO.C,SW1*%
X94825000Y-58175000D03*
X98975000Y-58175000D03*
X94825000Y-60325000D03*
X98975000Y-60325000D03*
%TD*%
D26*
%TO.C,C12*%
X92862500Y-59200000D03*
X91137500Y-59200000D03*
%TD*%
D27*
%TO.C,J6*%
X96010000Y-52335000D03*
X96010000Y-55865000D03*
X94740000Y-52335000D03*
X94740000Y-55865000D03*
X93470000Y-52335000D03*
X93470000Y-55865000D03*
X92200000Y-52335000D03*
X92200000Y-55865000D03*
X90930000Y-52335000D03*
X90930000Y-55865000D03*
X89660000Y-52335000D03*
X89660000Y-55865000D03*
X88390000Y-52335000D03*
X88390000Y-55865000D03*
%TD*%
D22*
%TO.C,D6*%
X79800000Y-51225000D03*
X79800000Y-52975000D03*
%TD*%
D18*
%TO.C,U3*%
X78650000Y-61250000D03*
X78650000Y-61750000D03*
X78650000Y-62250000D03*
X78650000Y-62750000D03*
X78650000Y-63250000D03*
X82950000Y-63250000D03*
X82950000Y-62750000D03*
X82950000Y-62250000D03*
X82950000Y-61750000D03*
X82950000Y-61250000D03*
%TD*%
M02*
