%TF.GenerationSoftware,KiCad,Pcbnew,8.0.6-8.0.6-0~ubuntu22.04.1*%
%TF.CreationDate,2024-11-01T23:26:47+09:00*%
%TF.ProjectId,blmd_hardware,626c6d64-5f68-4617-9264-776172652e6b,rev?*%
%TF.SameCoordinates,Original*%
%TF.FileFunction,Copper,L4,Bot*%
%TF.FilePolarity,Positive*%
%FSLAX46Y46*%
G04 Gerber Fmt 4.6, Leading zero omitted, Abs format (unit mm)*
G04 Created by KiCad (PCBNEW 8.0.6-8.0.6-0~ubuntu22.04.1) date 2024-11-01 23:26:47*
%MOMM*%
%LPD*%
G01*
G04 APERTURE LIST*
G04 Aperture macros list*
%AMRoundRect*
0 Rectangle with rounded corners*
0 $1 Rounding radius*
0 $2 $3 $4 $5 $6 $7 $8 $9 X,Y pos of 4 corners*
0 Add a 4 corners polygon primitive as box body*
4,1,4,$2,$3,$4,$5,$6,$7,$8,$9,$2,$3,0*
0 Add four circle primitives for the rounded corners*
1,1,$1+$1,$2,$3*
1,1,$1+$1,$4,$5*
1,1,$1+$1,$6,$7*
1,1,$1+$1,$8,$9*
0 Add four rect primitives between the rounded corners*
20,1,$1+$1,$2,$3,$4,$5,0*
20,1,$1+$1,$4,$5,$6,$7,0*
20,1,$1+$1,$6,$7,$8,$9,0*
20,1,$1+$1,$8,$9,$2,$3,0*%
G04 Aperture macros list end*
%TA.AperFunction,ComponentPad*%
%ADD10R,1.700000X1.700000*%
%TD*%
%TA.AperFunction,ComponentPad*%
%ADD11O,1.700000X1.700000*%
%TD*%
%TA.AperFunction,ComponentPad*%
%ADD12R,2.000000X2.000000*%
%TD*%
%TA.AperFunction,ComponentPad*%
%ADD13C,2.000000*%
%TD*%
%TA.AperFunction,ComponentPad*%
%ADD14C,1.400000*%
%TD*%
%TA.AperFunction,ComponentPad*%
%ADD15R,3.000000X3.000000*%
%TD*%
%TA.AperFunction,ComponentPad*%
%ADD16C,3.000000*%
%TD*%
%TA.AperFunction,SMDPad,CuDef*%
%ADD17RoundRect,0.237500X0.237500X-0.250000X0.237500X0.250000X-0.237500X0.250000X-0.237500X-0.250000X0*%
%TD*%
%TA.AperFunction,SMDPad,CuDef*%
%ADD18RoundRect,0.150000X-0.150000X-0.200000X0.150000X-0.200000X0.150000X0.200000X-0.150000X0.200000X0*%
%TD*%
%TA.AperFunction,SMDPad,CuDef*%
%ADD19RoundRect,0.237500X0.237500X-0.300000X0.237500X0.300000X-0.237500X0.300000X-0.237500X-0.300000X0*%
%TD*%
%TA.AperFunction,SMDPad,CuDef*%
%ADD20R,0.510000X0.700000*%
%TD*%
%TA.AperFunction,SMDPad,CuDef*%
%ADD21RoundRect,0.237500X-0.300000X-0.237500X0.300000X-0.237500X0.300000X0.237500X-0.300000X0.237500X0*%
%TD*%
%TA.AperFunction,SMDPad,CuDef*%
%ADD22RoundRect,0.237500X0.300000X0.237500X-0.300000X0.237500X-0.300000X-0.237500X0.300000X-0.237500X0*%
%TD*%
%TA.AperFunction,SMDPad,CuDef*%
%ADD23RoundRect,0.237500X-0.237500X0.250000X-0.237500X-0.250000X0.237500X-0.250000X0.237500X0.250000X0*%
%TD*%
%TA.AperFunction,SMDPad,CuDef*%
%ADD24RoundRect,0.237500X-0.250000X-0.237500X0.250000X-0.237500X0.250000X0.237500X-0.250000X0.237500X0*%
%TD*%
%TA.AperFunction,SMDPad,CuDef*%
%ADD25RoundRect,0.125000X0.125000X0.125000X-0.125000X0.125000X-0.125000X-0.125000X0.125000X-0.125000X0*%
%TD*%
%TA.AperFunction,SMDPad,CuDef*%
%ADD26RoundRect,0.237500X0.250000X0.237500X-0.250000X0.237500X-0.250000X-0.237500X0.250000X-0.237500X0*%
%TD*%
%TA.AperFunction,SMDPad,CuDef*%
%ADD27RoundRect,0.150000X-0.150000X0.825000X-0.150000X-0.825000X0.150000X-0.825000X0.150000X0.825000X0*%
%TD*%
%TA.AperFunction,SMDPad,CuDef*%
%ADD28RoundRect,0.237500X-0.237500X0.300000X-0.237500X-0.300000X0.237500X-0.300000X0.237500X0.300000X0*%
%TD*%
%TA.AperFunction,SMDPad,CuDef*%
%ADD29RoundRect,0.237500X0.380070X-0.044194X-0.044194X0.380070X-0.380070X0.044194X0.044194X-0.380070X0*%
%TD*%
%TA.AperFunction,SMDPad,CuDef*%
%ADD30RoundRect,0.125000X0.353553X0.530330X-0.530330X-0.353553X-0.353553X-0.530330X0.530330X0.353553X0*%
%TD*%
%TA.AperFunction,SMDPad,CuDef*%
%ADD31RoundRect,0.125000X-0.353553X0.530330X-0.530330X0.353553X0.353553X-0.530330X0.530330X-0.353553X0*%
%TD*%
%TA.AperFunction,ViaPad*%
%ADD32C,0.600000*%
%TD*%
%TA.AperFunction,Conductor*%
%ADD33C,1.000000*%
%TD*%
%TA.AperFunction,Conductor*%
%ADD34C,0.200000*%
%TD*%
G04 APERTURE END LIST*
D10*
%TO.P,J4,1,Pin_1*%
%TO.N,+12VA*%
X85340000Y-72400000D03*
D11*
%TO.P,J4,2,Pin_2*%
X85340000Y-74940000D03*
%TO.P,J4,3,Pin_3*%
X82800000Y-72400000D03*
%TO.P,J4,4,Pin_4*%
X82800000Y-74940000D03*
%TO.P,J4,5,Pin_5*%
X80260000Y-72400000D03*
%TO.P,J4,6,Pin_6*%
X80260000Y-74940000D03*
%TO.P,J4,7,Pin_7*%
X77720000Y-72400000D03*
%TO.P,J4,8,Pin_8*%
X77720000Y-74940000D03*
%TO.P,J4,9,Pin_9*%
X75180000Y-72400000D03*
%TO.P,J4,10,Pin_10*%
X75180000Y-74940000D03*
%TO.P,J4,11,Pin_11*%
X72640000Y-72400000D03*
%TO.P,J4,12,Pin_12*%
X72640000Y-74940000D03*
%TO.P,J4,13,Pin_13*%
X70100000Y-72400000D03*
%TO.P,J4,14,Pin_14*%
X70100000Y-74940000D03*
%TD*%
D10*
%TO.P,J3,1,Pin_1*%
%TO.N,GNDPWR*%
X67560000Y-72400000D03*
D11*
%TO.P,J3,2,Pin_2*%
X67560000Y-74940000D03*
%TO.P,J3,3,Pin_3*%
X65020000Y-72400000D03*
%TO.P,J3,4,Pin_4*%
X65020000Y-74940000D03*
%TO.P,J3,5,Pin_5*%
X62480000Y-72400000D03*
%TO.P,J3,6,Pin_6*%
X62480000Y-74940000D03*
%TO.P,J3,7,Pin_7*%
X59940000Y-72400000D03*
%TO.P,J3,8,Pin_8*%
X59940000Y-74940000D03*
%TO.P,J3,9,Pin_9*%
X57400000Y-72400000D03*
%TO.P,J3,10,Pin_10*%
X57400000Y-74940000D03*
%TO.P,J3,11,Pin_11*%
X54860000Y-72400000D03*
%TO.P,J3,12,Pin_12*%
X54860000Y-74940000D03*
%TO.P,J3,13,Pin_13*%
X52320000Y-72400000D03*
%TO.P,J3,14,Pin_14*%
X52320000Y-74940000D03*
%TD*%
D12*
%TO.P,C1,1*%
%TO.N,+12VA*%
X73863200Y-57866677D03*
D13*
%TO.P,C1,2*%
%TO.N,GNDPWR*%
X73863200Y-52866677D03*
%TD*%
D14*
%TO.P,J1,*%
%TO.N,*%
X51500000Y-69200000D03*
X51500000Y-56200000D03*
D15*
%TO.P,J1,1,Pin_1*%
%TO.N,SOC*%
X56500000Y-59200000D03*
D16*
%TO.P,J1,2,Pin_2*%
%TO.N,HSB*%
X56500000Y-62700000D03*
%TO.P,J1,3,Pin_3*%
%TO.N,SOA*%
X56500000Y-66200000D03*
%TD*%
D10*
%TO.P,J2,1,Pin_1*%
%TO.N,+3V3*%
X98100000Y-72400000D03*
D11*
%TO.P,J2,2,Pin_2*%
%TO.N,+5VD*%
X98100000Y-74940000D03*
%TO.P,J2,3,Pin_3*%
%TO.N,SPD2*%
X95560000Y-72400000D03*
%TO.P,J2,4,Pin_4*%
%TO.N,GNDD*%
X95560000Y-74940000D03*
%TO.P,J2,5,Pin_5*%
%TO.N,SPD1*%
X93020000Y-72400000D03*
%TO.P,J2,6,Pin_6*%
%TO.N,unconnected-(J2-Pin_6-Pad6)*%
X93020000Y-74940000D03*
%TO.P,J2,7,Pin_7*%
%TO.N,CANH*%
X90480000Y-72400000D03*
%TO.P,J2,8,Pin_8*%
%TO.N,CANL*%
X90480000Y-74940000D03*
%TD*%
D17*
%TO.P,R1,1*%
%TO.N,+12VA*%
X76200000Y-58612500D03*
%TO.P,R1,2*%
%TO.N,+12V*%
X76200000Y-56787500D03*
%TD*%
D18*
%TO.P,D1,1,K*%
%TO.N,+12VA*%
X69530000Y-77100000D03*
%TO.P,D1,2,A*%
%TO.N,GNDPWR*%
X68130000Y-77100000D03*
%TD*%
D19*
%TO.P,C10,1*%
%TO.N,+3V3*%
X87100000Y-64062500D03*
%TO.P,C10,2*%
%TO.N,GNDD*%
X87100000Y-62337500D03*
%TD*%
D20*
%TO.P,U8,1,NC*%
%TO.N,unconnected-(U8-NC-Pad1)*%
X68050000Y-53940000D03*
%TO.P,U8,2,GND*%
%TO.N,GND*%
X69000000Y-53940000D03*
%TO.P,U8,3,NC*%
%TO.N,unconnected-(U8-NC-Pad3)*%
X69950000Y-53940000D03*
%TO.P,U8,4,VIN*%
%TO.N,+12V*%
X69950000Y-56260000D03*
%TO.P,U8,5,VOUT*%
%TO.N,+5V*%
X68050000Y-56260000D03*
%TD*%
D21*
%TO.P,C6,1*%
%TO.N,+12V*%
X79237500Y-65300000D03*
%TO.P,C6,2*%
%TO.N,GND*%
X80962500Y-65300000D03*
%TD*%
D22*
%TO.P,C21,1*%
%TO.N,+3V3*%
X95462500Y-64400000D03*
%TO.P,C21,2*%
%TO.N,GNDD*%
X93737500Y-64400000D03*
%TD*%
D19*
%TO.P,C19,1*%
%TO.N,+12V*%
X71700000Y-55962500D03*
%TO.P,C19,2*%
%TO.N,GND*%
X71700000Y-54237500D03*
%TD*%
D21*
%TO.P,C3,1*%
%TO.N,HSB*%
X74737500Y-64900000D03*
%TO.P,C3,2*%
%TO.N,Net-(D3-K)*%
X76462500Y-64900000D03*
%TD*%
%TO.P,C15,1*%
%TO.N,+3V3*%
X60237500Y-67900000D03*
%TO.P,C15,2*%
%TO.N,GNDD*%
X61962500Y-67900000D03*
%TD*%
D23*
%TO.P,R12,1*%
%TO.N,SIGA*%
X92200000Y-68487500D03*
%TO.P,R12,2*%
%TO.N,GNDD*%
X92200000Y-70312500D03*
%TD*%
D17*
%TO.P,R16,1*%
%TO.N,+3V3*%
X97300000Y-69412500D03*
%TO.P,R16,2*%
%TO.N,ID2*%
X97300000Y-67587500D03*
%TD*%
D21*
%TO.P,C18,1*%
%TO.N,SCC*%
X61237500Y-51500000D03*
%TO.P,C18,2*%
%TO.N,GNDD*%
X62962500Y-51500000D03*
%TD*%
D19*
%TO.P,C22,1*%
%TO.N,+3V3*%
X88800000Y-64062500D03*
%TO.P,C22,2*%
%TO.N,GNDD*%
X88800000Y-62337500D03*
%TD*%
D17*
%TO.P,R18,1*%
%TO.N,+3V3*%
X93900000Y-69412500D03*
%TO.P,R18,2*%
%TO.N,ID4*%
X93900000Y-67587500D03*
%TD*%
D24*
%TO.P,R23,1*%
%TO.N,SCA*%
X57887500Y-69800000D03*
%TO.P,R23,2*%
%TO.N,Net-(U6-VOUT)*%
X59712500Y-69800000D03*
%TD*%
D17*
%TO.P,R17,1*%
%TO.N,+3V3*%
X95600000Y-69412500D03*
%TO.P,R17,2*%
%TO.N,ID3*%
X95600000Y-67587500D03*
%TD*%
D18*
%TO.P,D5,1,K*%
%TO.N,+12V*%
X69700000Y-58000000D03*
%TO.P,D5,2,A*%
%TO.N,+5V*%
X68300000Y-58000000D03*
%TD*%
D21*
%TO.P,C2,1*%
%TO.N,HSA*%
X74737500Y-68300000D03*
%TO.P,C2,2*%
%TO.N,Net-(D2-K)*%
X76462500Y-68300000D03*
%TD*%
D19*
%TO.P,C8,1*%
%TO.N,+5V*%
X84300000Y-68562500D03*
%TO.P,C8,2*%
%TO.N,GND*%
X84300000Y-66837500D03*
%TD*%
D25*
%TO.P,D4,1,K*%
%TO.N,Net-(D4-K)*%
X76700000Y-63200000D03*
%TO.P,D4,2,A*%
%TO.N,+12VA*%
X74500000Y-63200000D03*
%TD*%
D19*
%TO.P,C9,1*%
%TO.N,+5V*%
X84300000Y-63362500D03*
%TO.P,C9,2*%
%TO.N,GND*%
X84300000Y-61637500D03*
%TD*%
D21*
%TO.P,C5,1*%
%TO.N,+12V*%
X79237500Y-68700000D03*
%TO.P,C5,2*%
%TO.N,GND*%
X80962500Y-68700000D03*
%TD*%
D26*
%TO.P,R24,1*%
%TO.N,SCC*%
X59012500Y-51500000D03*
%TO.P,R24,2*%
%TO.N,Net-(U7-VOUT)*%
X57187500Y-51500000D03*
%TD*%
%TO.P,R11,1*%
%TO.N,Net-(U3-RDT)*%
X81012500Y-63600000D03*
%TO.P,R11,2*%
%TO.N,GND*%
X79187500Y-63600000D03*
%TD*%
D25*
%TO.P,D3,1,K*%
%TO.N,Net-(D3-K)*%
X76700000Y-66600000D03*
%TO.P,D3,2,A*%
%TO.N,+12VA*%
X74500000Y-66600000D03*
%TD*%
%TO.P,D2,1,K*%
%TO.N,Net-(D2-K)*%
X76700000Y-70000000D03*
%TO.P,D2,2,A*%
%TO.N,+12VA*%
X74500000Y-70000000D03*
%TD*%
D21*
%TO.P,C7,1*%
%TO.N,+12V*%
X79237500Y-61900000D03*
%TO.P,C7,2*%
%TO.N,GND*%
X80962500Y-61900000D03*
%TD*%
%TO.P,C4,1*%
%TO.N,HSC*%
X74737500Y-61500000D03*
%TO.P,C4,2*%
%TO.N,Net-(D4-K)*%
X76462500Y-61500000D03*
%TD*%
D22*
%TO.P,C17,1*%
%TO.N,SCA*%
X55662500Y-69800000D03*
%TO.P,C17,2*%
%TO.N,GNDD*%
X53937500Y-69800000D03*
%TD*%
D27*
%TO.P,U9,1,TXD*%
%TO.N,TXD*%
X78595000Y-53425000D03*
%TO.P,U9,2,VSS*%
%TO.N,GNDD*%
X79865000Y-53425000D03*
%TO.P,U9,3,VDD*%
%TO.N,+5VD*%
X81135000Y-53425000D03*
%TO.P,U9,4,RXD*%
%TO.N,RXD*%
X82405000Y-53425000D03*
%TO.P,U9,5,SPLIT*%
%TO.N,unconnected-(U9-SPLIT-Pad5)*%
X82405000Y-58375000D03*
%TO.P,U9,6,CANL*%
%TO.N,CANL*%
X81135000Y-58375000D03*
%TO.P,U9,7,CANH*%
%TO.N,CANH*%
X79865000Y-58375000D03*
%TO.P,U9,8,STBY*%
%TO.N,GNDD*%
X78595000Y-58375000D03*
%TD*%
D28*
%TO.P,C14,1*%
%TO.N,+5VD*%
X84300000Y-55037500D03*
%TO.P,C14,2*%
%TO.N,GNDD*%
X84300000Y-56762500D03*
%TD*%
D22*
%TO.P,C16,1*%
%TO.N,+3V3*%
X56962500Y-53200000D03*
%TO.P,C16,2*%
%TO.N,GNDD*%
X55237500Y-53200000D03*
%TD*%
D26*
%TO.P,R10,1*%
%TO.N,Net-(U2-RDT)*%
X81012500Y-67000000D03*
%TO.P,R10,2*%
%TO.N,GND*%
X79187500Y-67000000D03*
%TD*%
%TO.P,R19,1*%
%TO.N,Net-(U10-PB8)*%
X89112500Y-52000000D03*
%TO.P,R19,2*%
%TO.N,GNDD*%
X87287500Y-52000000D03*
%TD*%
D23*
%TO.P,R14,1*%
%TO.N,SIGC*%
X90500000Y-64487500D03*
%TO.P,R14,2*%
%TO.N,GNDD*%
X90500000Y-66312500D03*
%TD*%
D29*
%TO.P,C13,1*%
%TO.N,+3V3*%
X97709880Y-53209880D03*
%TO.P,C13,2*%
%TO.N,GNDD*%
X96490120Y-51990120D03*
%TD*%
D19*
%TO.P,C20,1*%
%TO.N,+5V*%
X66300000Y-55962500D03*
%TO.P,C20,2*%
%TO.N,GND*%
X66300000Y-54237500D03*
%TD*%
D26*
%TO.P,R9,1*%
%TO.N,Net-(U1-RDT)*%
X81012500Y-70400000D03*
%TO.P,R9,2*%
%TO.N,GND*%
X79187500Y-70400000D03*
%TD*%
D17*
%TO.P,R15,1*%
%TO.N,+3V3*%
X99000000Y-69412500D03*
%TO.P,R15,2*%
%TO.N,ID1*%
X99000000Y-67587500D03*
%TD*%
D23*
%TO.P,R2,1*%
%TO.N,GNDPWR*%
X76200000Y-52787500D03*
%TO.P,R2,2*%
%TO.N,GND*%
X76200000Y-54612500D03*
%TD*%
D30*
%TO.P,U10,1,VDD*%
%TO.N,+3V3*%
X94172272Y-52667930D03*
%TO.P,U10,2,PF0*%
%TO.N,unconnected-(U10-PF0-Pad2)*%
X94737957Y-53233616D03*
%TO.P,U10,3,PF1*%
%TO.N,unconnected-(U10-PF1-Pad3)*%
X95303643Y-53799301D03*
%TO.P,U10,4,PG10*%
%TO.N,NRST*%
X95869328Y-54364986D03*
%TO.P,U10,5,PA0*%
%TO.N,SCA*%
X96435014Y-54930672D03*
%TO.P,U10,6,PA1*%
%TO.N,SCC*%
X97000699Y-55496357D03*
%TO.P,U10,7,PA2*%
%TO.N,USART_TX*%
X97566384Y-56062043D03*
%TO.P,U10,8,PA3*%
%TO.N,USART_RX*%
X98132070Y-56627728D03*
D31*
%TO.P,U10,9,PA4*%
%TO.N,ID1*%
X98132070Y-58572272D03*
%TO.P,U10,10,PA5*%
%TO.N,ID2*%
X97566384Y-59137957D03*
%TO.P,U10,11,PA6*%
%TO.N,SIGA*%
X97000699Y-59703643D03*
%TO.P,U10,12,PA7*%
%TO.N,SIGB*%
X96435014Y-60269328D03*
%TO.P,U10,13,PB0*%
%TO.N,SIGC*%
X95869328Y-60835014D03*
%TO.P,U10,14,VSSA*%
%TO.N,GNDD*%
X95303643Y-61400699D03*
%TO.P,U10,15,VDDA*%
%TO.N,+3V3*%
X94737957Y-61966384D03*
%TO.P,U10,16,VSS*%
%TO.N,GNDD*%
X94172272Y-62532070D03*
D30*
%TO.P,U10,17,VDD*%
%TO.N,+3V3*%
X92227728Y-62532070D03*
%TO.P,U10,18,PA8*%
%TO.N,ID3*%
X91662043Y-61966384D03*
%TO.P,U10,19,PA9*%
%TO.N,ID4*%
X91096357Y-61400699D03*
%TO.P,U10,20,PA10*%
%TO.N,unconnected-(U10-PA10-Pad20)*%
X90530672Y-60835014D03*
%TO.P,U10,21,PA11*%
%TO.N,RXD*%
X89964986Y-60269328D03*
%TO.P,U10,22,PA12*%
%TO.N,TXD*%
X89399301Y-59703643D03*
%TO.P,U10,23,PA13*%
%TO.N,SWDIO*%
X88833616Y-59137957D03*
%TO.P,U10,24,PA14*%
%TO.N,SWCLK*%
X88267930Y-58572272D03*
D31*
%TO.P,U10,25,PA15*%
%TO.N,unconnected-(U10-PA15-Pad25)*%
X88267930Y-56627728D03*
%TO.P,U10,26,PB3*%
%TO.N,SWO*%
X88833616Y-56062043D03*
%TO.P,U10,27,PB4*%
%TO.N,ID_DISP*%
X89399301Y-55496357D03*
%TO.P,U10,28,PB5*%
%TO.N,STATUS*%
X89964986Y-54930672D03*
%TO.P,U10,29,PB6*%
%TO.N,SPD1*%
X90530672Y-54364986D03*
%TO.P,U10,30,PB7*%
%TO.N,SPD2*%
X91096357Y-53799301D03*
%TO.P,U10,31,PB8*%
%TO.N,Net-(U10-PB8)*%
X91662043Y-53233616D03*
%TO.P,U10,32,VSS*%
%TO.N,GNDD*%
X92227728Y-52667930D03*
%TD*%
D19*
%TO.P,C11,1*%
%TO.N,+3V3*%
X90500000Y-70262500D03*
%TO.P,C11,2*%
%TO.N,GNDD*%
X90500000Y-68537500D03*
%TD*%
D23*
%TO.P,R13,1*%
%TO.N,SIGB*%
X88800000Y-68487500D03*
%TO.P,R13,2*%
%TO.N,GNDD*%
X88800000Y-70312500D03*
%TD*%
D32*
%TO.N,GNDPWR*%
X65405000Y-69850000D03*
X60325000Y-58420000D03*
X67310000Y-70485000D03*
X54610000Y-77470000D03*
X67945000Y-71120000D03*
X66040000Y-71120000D03*
X63500000Y-57785000D03*
X62230000Y-59055000D03*
X66675000Y-70485000D03*
X69215000Y-52070000D03*
X66675000Y-71120000D03*
X60960000Y-59055000D03*
X64770000Y-77470000D03*
X66040000Y-70485000D03*
X60325000Y-59055000D03*
X59690000Y-58420000D03*
X67310000Y-77470000D03*
X72390000Y-77470000D03*
X66675000Y-69850000D03*
X80010000Y-77470000D03*
X62230000Y-58420000D03*
X61595000Y-58420000D03*
X65405000Y-71120000D03*
X67310000Y-71120000D03*
X60960000Y-59690000D03*
X60960000Y-57150000D03*
X62865000Y-59055000D03*
X77470000Y-77470000D03*
X64135000Y-59055000D03*
X59690000Y-59690000D03*
X65405000Y-70485000D03*
X82550000Y-77470000D03*
X62865000Y-58420000D03*
X59690000Y-77470000D03*
X59690000Y-59055000D03*
X65405000Y-69215000D03*
X66040000Y-69850000D03*
X71755000Y-52070000D03*
X62865000Y-57785000D03*
X60960000Y-58420000D03*
X63500000Y-59055000D03*
X66040000Y-69215000D03*
X85725000Y-77470000D03*
X62230000Y-57785000D03*
X52070000Y-77470000D03*
X74930000Y-77470000D03*
X57150000Y-77470000D03*
X62230000Y-77470000D03*
X60960000Y-57785000D03*
X60325000Y-57785000D03*
X63500000Y-58420000D03*
X64135000Y-58420000D03*
X61595000Y-57785000D03*
X59690000Y-57785000D03*
X60325000Y-59690000D03*
%TO.N,+12VA*%
X69215000Y-59055000D03*
X72390000Y-57150000D03*
X71120000Y-58420000D03*
X71755000Y-58420000D03*
X71755000Y-57150000D03*
X65355000Y-58420000D03*
X69850000Y-59055000D03*
X72390000Y-59055000D03*
X71120000Y-57785000D03*
X71755000Y-59055000D03*
X72390000Y-57785000D03*
X71120000Y-59055000D03*
X70485000Y-59055000D03*
X70485000Y-59690000D03*
X73600000Y-66598800D03*
X71755000Y-57785000D03*
X69850000Y-59690000D03*
X71755000Y-59690000D03*
X72390000Y-58420000D03*
X73600000Y-63200000D03*
X71120000Y-57150000D03*
X72390000Y-59690000D03*
X73600000Y-70000000D03*
X71120000Y-59690000D03*
%TO.N,Net-(D2-K)*%
X77550000Y-68550000D03*
%TO.N,HSA*%
X62230000Y-65405000D03*
X65405000Y-66675000D03*
X71755000Y-66040000D03*
X69850000Y-66040000D03*
X62230000Y-66040000D03*
X64770000Y-64770000D03*
X75500000Y-69150000D03*
X69850000Y-64770000D03*
X64770000Y-66040000D03*
X62230000Y-64770000D03*
%TO.N,Net-(D3-K)*%
X77550000Y-65150000D03*
%TO.N,HSB*%
X60960000Y-63500000D03*
X75500000Y-65750000D03*
X64770000Y-63500000D03*
X59690000Y-62230000D03*
X59690000Y-60960000D03*
X64770000Y-62230000D03*
X53975000Y-62230000D03*
X66040000Y-63500000D03*
X53975000Y-63500000D03*
X59690000Y-63500000D03*
%TO.N,HSC*%
X60325000Y-55880000D03*
X66040000Y-52070000D03*
X66040000Y-52705000D03*
X58420000Y-54610000D03*
X59055000Y-53975000D03*
X59055000Y-54610000D03*
X66675000Y-52070000D03*
X67310000Y-52705000D03*
X75500000Y-62350000D03*
X66675000Y-52705000D03*
%TO.N,Net-(D4-K)*%
X77550000Y-61750000D03*
%TO.N,GND*%
X77200000Y-54612500D03*
X80543400Y-61163200D03*
X83464400Y-60579000D03*
X84505800Y-65506600D03*
X81889600Y-62382400D03*
X84300000Y-70560000D03*
%TO.N,+12V*%
X79700000Y-61150000D03*
X79700000Y-67955000D03*
X79700000Y-64550000D03*
%TO.N,+5V*%
X84300000Y-69700000D03*
X84300000Y-64500000D03*
X76200000Y-55700000D03*
%TO.N,+3V3*%
X92900000Y-69412500D03*
X96926400Y-53209880D03*
X89535000Y-63700000D03*
X95462500Y-63500000D03*
X58115200Y-53111400D03*
X60200000Y-68800000D03*
%TO.N,GNDD*%
X53975000Y-50800000D03*
X51435000Y-66675000D03*
X51435000Y-57785000D03*
X51435000Y-53340000D03*
X63500000Y-67945000D03*
X89560400Y-66319400D03*
X51435000Y-52070000D03*
X53340000Y-53975000D03*
X64363600Y-51257200D03*
X61800000Y-68880000D03*
X90017600Y-52730400D03*
X52705000Y-52070000D03*
X51435000Y-67945000D03*
X51435000Y-64135000D03*
X51435000Y-61595000D03*
X51435000Y-62865000D03*
X78740000Y-55245000D03*
X85090000Y-52070000D03*
X89738200Y-62357000D03*
X85725000Y-52705000D03*
X85725000Y-52070000D03*
X92837000Y-51866800D03*
X51435000Y-65405000D03*
X51435000Y-59055000D03*
X78740000Y-55880000D03*
X53340000Y-54610000D03*
X85090000Y-52705000D03*
X51435000Y-60325000D03*
X96520000Y-57785000D03*
X51435000Y-54610000D03*
X93141800Y-63144400D03*
X85725000Y-53340000D03*
X96520000Y-58420000D03*
%TO.N,NRST*%
X94046900Y-59546900D03*
%TO.N,SOA*%
X59055000Y-66675000D03*
X53975000Y-65405000D03*
X60960000Y-66675000D03*
X59055000Y-64770000D03*
X57785000Y-67945000D03*
%TO.N,SOC*%
X53975000Y-59055000D03*
X53975000Y-57785000D03*
X54610000Y-55880000D03*
X55880000Y-55245000D03*
X54610000Y-55245000D03*
X53975000Y-60325000D03*
X56515000Y-55245000D03*
X55245000Y-55245000D03*
%TO.N,SPD2*%
X86700000Y-54100000D03*
%TO.N,SPD1*%
X87600000Y-54100000D03*
%TO.N,SWCLK*%
X92800000Y-57800000D03*
%TO.N,SWDIO*%
X93700000Y-57800000D03*
%TO.N,SWO*%
X91900000Y-57800000D03*
%TO.N,USART_TX*%
X98577800Y-55050627D03*
%TO.N,USART_RX*%
X99177800Y-55584400D03*
%TO.N,Net-(Q3-G)*%
X73600000Y-60400000D03*
X64900000Y-54800000D03*
%TO.N,Net-(Q4-G)*%
X68500000Y-69000000D03*
X73600000Y-68200000D03*
%TO.N,Net-(Q6-G)*%
X64194600Y-56600000D03*
X73600000Y-61400000D03*
%TO.N,Net-(U1-RDT)*%
X82000000Y-70050000D03*
%TO.N,Net-(U2-RDT)*%
X82000000Y-66650000D03*
%TO.N,Net-(U3-RDT)*%
X82000000Y-63250000D03*
%TO.N,SIGA*%
X92800000Y-67500000D03*
%TO.N,SIGB*%
X89600000Y-67565000D03*
%TO.N,SIGC*%
X92600000Y-65175000D03*
%TO.N,ID1*%
X98605000Y-66700000D03*
%TO.N,ID2*%
X97335000Y-66700000D03*
%TO.N,ID3*%
X96065000Y-66700000D03*
X92700000Y-61300000D03*
%TO.N,ID4*%
X94795000Y-66700000D03*
X93600000Y-61300000D03*
%TO.N,ID_DISP*%
X86614000Y-56100000D03*
%TO.N,STATUS*%
X86614000Y-55200000D03*
%TO.N,Net-(U6-VOUT)*%
X62700000Y-69800000D03*
%TO.N,Net-(U7-VOUT)*%
X56300000Y-51500000D03*
%TD*%
D33*
%TO.N,+12VA*%
X70100000Y-74940000D02*
X70100000Y-76530000D01*
D34*
X74500000Y-66600000D02*
X73601200Y-66600000D01*
X74500000Y-63200000D02*
X73600000Y-63200000D01*
X76200000Y-58612500D02*
X74609023Y-58612500D01*
X74609023Y-58612500D02*
X73863200Y-57866677D01*
X74500000Y-70000000D02*
X73600000Y-70000000D01*
D33*
X70100000Y-76530000D02*
X69530000Y-77100000D01*
D34*
X73601200Y-66600000D02*
X73600000Y-66598800D01*
%TO.N,Net-(D2-K)*%
X76462500Y-68300000D02*
X77300000Y-68300000D01*
X77300000Y-68300000D02*
X77550000Y-68550000D01*
X76700000Y-70000000D02*
X76700000Y-68537500D01*
X76700000Y-68537500D02*
X76462500Y-68300000D01*
%TO.N,HSA*%
X71008800Y-67198800D02*
X69850000Y-66040000D01*
X73636300Y-67198800D02*
X71008800Y-67198800D01*
X74737500Y-68300000D02*
X74737500Y-68387500D01*
X74737500Y-68300000D02*
X73636300Y-67198800D01*
X74737500Y-68387500D02*
X75500000Y-69150000D01*
%TO.N,Net-(D3-K)*%
X76700000Y-65137500D02*
X76462500Y-64900000D01*
X77300000Y-64900000D02*
X77550000Y-65150000D01*
X76700000Y-66600000D02*
X76700000Y-65137500D01*
X76462500Y-64900000D02*
X77300000Y-64900000D01*
%TO.N,HSB*%
X66040000Y-63500000D02*
X72796400Y-63500000D01*
X74737500Y-64987500D02*
X75500000Y-65750000D01*
X72796400Y-63500000D02*
X74196400Y-64900000D01*
X74196400Y-64900000D02*
X74737500Y-64900000D01*
X74737500Y-64900000D02*
X74737500Y-64987500D01*
X74737500Y-64900000D02*
X74737500Y-65034700D01*
%TO.N,HSC*%
X74237500Y-62000000D02*
X73351471Y-62000000D01*
X74737500Y-61587500D02*
X75500000Y-62350000D01*
X74737500Y-61500000D02*
X74737500Y-61587500D01*
X64983529Y-57200000D02*
X63946071Y-57200000D01*
X63946071Y-57200000D02*
X63594600Y-56848529D01*
X63594600Y-56848529D02*
X63594600Y-54363000D01*
X74737500Y-61500000D02*
X74237500Y-62000000D01*
X72551471Y-61200000D02*
X68983529Y-61200000D01*
X68983529Y-61200000D02*
X64983529Y-57200000D01*
X63594600Y-54363000D02*
X65252600Y-52705000D01*
X73351471Y-62000000D02*
X72551471Y-61200000D01*
X65252600Y-52705000D02*
X66675000Y-52705000D01*
%TO.N,Net-(D4-K)*%
X77300000Y-61500000D02*
X77550000Y-61750000D01*
X76700000Y-63200000D02*
X76700000Y-61737500D01*
X76700000Y-61737500D02*
X76462500Y-61500000D01*
X76462500Y-61500000D02*
X77300000Y-61500000D01*
%TO.N,GND*%
X71700000Y-54237500D02*
X71839700Y-54237500D01*
X69296600Y-54590000D02*
X69000000Y-54293400D01*
X69000000Y-54293400D02*
X69000000Y-53940000D01*
X76200000Y-54612500D02*
X72214700Y-54612500D01*
X66652500Y-54590000D02*
X69296600Y-54590000D01*
X77200000Y-54612500D02*
X76200000Y-54612500D01*
X66300000Y-54237500D02*
X66652500Y-54590000D01*
X71347500Y-54590000D02*
X69296600Y-54590000D01*
X71839700Y-54237500D02*
X72214700Y-54612500D01*
X71700000Y-54237500D02*
X71347500Y-54590000D01*
%TO.N,+12V*%
X78400000Y-67862500D02*
X79237500Y-68700000D01*
X76975000Y-60326471D02*
X78174265Y-61525735D01*
X79237500Y-68700000D02*
X79237500Y-68417500D01*
X78548529Y-61900000D02*
X79237500Y-61900000D01*
X78400000Y-64462500D02*
X79237500Y-65300000D01*
X78400000Y-61751470D02*
X78400000Y-64462500D01*
X71700000Y-55962500D02*
X70247500Y-55962500D01*
X69700000Y-58000000D02*
X69700000Y-56510000D01*
X78174265Y-61525735D02*
X78548529Y-61900000D01*
X76200000Y-56787500D02*
X76975000Y-57562500D01*
X79237500Y-65012500D02*
X79700000Y-64550000D01*
X78174265Y-61525735D02*
X78400000Y-61751470D01*
X79237500Y-68417500D02*
X79700000Y-67955000D01*
X71700000Y-55962500D02*
X75375000Y-55962500D01*
X78400000Y-64462500D02*
X78400000Y-67862500D01*
X79237500Y-61900000D02*
X79237500Y-61612500D01*
X70247500Y-55962500D02*
X69950000Y-56260000D01*
X76975000Y-57562500D02*
X76975000Y-60326471D01*
X69700000Y-56510000D02*
X69950000Y-56260000D01*
X79237500Y-61612500D02*
X79700000Y-61150000D01*
X75375000Y-55962500D02*
X76200000Y-56787500D01*
X79237500Y-65300000D02*
X79237500Y-65012500D01*
%TO.N,+5V*%
X77375000Y-60160785D02*
X77606207Y-60391992D01*
X80758714Y-60391992D02*
X83221061Y-62854339D01*
X76366722Y-55700000D02*
X77375000Y-56708278D01*
X84300000Y-63362500D02*
X84300000Y-64500000D01*
X67187500Y-55075000D02*
X75053185Y-55075000D01*
X68300000Y-58000000D02*
X68300000Y-56510000D01*
X84300000Y-68562500D02*
X84300000Y-69700000D01*
X75053185Y-55075000D02*
X75678185Y-55700000D01*
X75678185Y-55700000D02*
X76200000Y-55700000D01*
X83729222Y-63362500D02*
X84300000Y-63362500D01*
X76200000Y-55700000D02*
X76366722Y-55700000D01*
X67752500Y-55962500D02*
X68050000Y-56260000D01*
X66300000Y-55962500D02*
X67187500Y-55075000D01*
X66300000Y-55962500D02*
X67752500Y-55962500D01*
X77606207Y-60391992D02*
X80758714Y-60391992D01*
X68300000Y-56510000D02*
X68050000Y-56260000D01*
X77375000Y-56708278D02*
X77375000Y-60160785D01*
X83525000Y-67787500D02*
X83525000Y-63158278D01*
X84300000Y-68562500D02*
X83525000Y-67787500D01*
X83525000Y-63158278D02*
X83221061Y-62854339D01*
X83221061Y-62854339D02*
X83729222Y-63362500D01*
%TO.N,+3V3*%
X91350000Y-69412500D02*
X90500000Y-70262500D01*
X96926400Y-53209880D02*
X97709880Y-53209880D01*
X95211665Y-52222400D02*
X96199145Y-53209880D01*
X91059798Y-63700000D02*
X89535000Y-63700000D01*
X96199145Y-53209880D02*
X96926400Y-53209880D01*
X95462500Y-62690927D02*
X95462500Y-63474600D01*
X94737957Y-61966384D02*
X95462500Y-62690927D01*
X94617802Y-52222400D02*
X95211665Y-52222400D01*
X92227728Y-62532070D02*
X91059798Y-63700000D01*
X99000000Y-69412500D02*
X93900000Y-69412500D01*
X95462500Y-63474600D02*
X95462500Y-64400000D01*
X58026600Y-53200000D02*
X58115200Y-53111400D01*
X89162500Y-63700000D02*
X88800000Y-64062500D01*
X93900000Y-69412500D02*
X92938600Y-69412500D01*
X92938600Y-69412500D02*
X91350000Y-69412500D01*
X89535000Y-63700000D02*
X89162500Y-63700000D01*
X88800000Y-64062500D02*
X87100000Y-64062500D01*
X60237500Y-67900000D02*
X60237500Y-68762500D01*
X56962500Y-53200000D02*
X58026600Y-53200000D01*
X94172272Y-52667930D02*
X94617802Y-52222400D01*
X60237500Y-68762500D02*
X60200000Y-68800000D01*
%TO.N,GNDD*%
X96110050Y-51610050D02*
X93093750Y-51610050D01*
X96490120Y-51990120D02*
X96110050Y-51610050D01*
X93093750Y-51610050D02*
X92837000Y-51866800D01*
%TO.N,NRST*%
X95477235Y-54757079D02*
X95477235Y-58116565D01*
X95869328Y-54364986D02*
X95477235Y-54757079D01*
X95477235Y-58116565D02*
X94046900Y-59546900D01*
%TO.N,+5VD*%
X86226600Y-60880780D02*
X85075000Y-59729180D01*
X81772501Y-55037500D02*
X81135000Y-54399999D01*
X91630000Y-72636346D02*
X91630000Y-71923654D01*
X84300000Y-55037500D02*
X81772501Y-55037500D01*
X85075000Y-55812500D02*
X84300000Y-55037500D01*
X86226600Y-68993322D02*
X86226600Y-60880780D01*
X96950000Y-73790000D02*
X92783654Y-73790000D01*
X90806346Y-71100000D02*
X88333278Y-71100000D01*
X92783654Y-73790000D02*
X91630000Y-72636346D01*
X91630000Y-71923654D02*
X90806346Y-71100000D01*
X81135000Y-54399999D02*
X81135000Y-53425000D01*
X85075000Y-59729180D02*
X85075000Y-55812500D01*
X98100000Y-74940000D02*
X96950000Y-73790000D01*
X88333278Y-71100000D02*
X86226600Y-68993322D01*
X81135000Y-53899999D02*
X81135000Y-52925000D01*
%TO.N,SCA*%
X98632103Y-52966103D02*
X98632103Y-53488497D01*
X55662500Y-69800000D02*
X52603400Y-66740900D01*
X52603400Y-66740900D02*
X52603400Y-53517800D01*
X96720000Y-51054000D02*
X98632103Y-52966103D01*
X64408600Y-52425000D02*
X65786000Y-51047600D01*
X53696200Y-52425000D02*
X64408600Y-52425000D01*
X97233583Y-54132103D02*
X96435014Y-54930672D01*
X65792400Y-51054000D02*
X96720000Y-51054000D01*
X65786000Y-51047600D02*
X65792400Y-51054000D01*
X97988497Y-54132103D02*
X97233583Y-54132103D01*
X52603400Y-53517800D02*
X53696200Y-52425000D01*
X57887500Y-69800000D02*
X55662500Y-69800000D01*
X98632103Y-53488497D02*
X97988497Y-54132103D01*
%TO.N,SCC*%
X59012500Y-51500000D02*
X61237500Y-51500000D01*
X97000699Y-55496357D02*
X97964953Y-54532103D01*
X99032103Y-52800417D02*
X96879286Y-50647600D01*
X62089900Y-50647600D02*
X61237500Y-51500000D01*
X99032103Y-53654183D02*
X99032103Y-52800417D01*
X97964953Y-54532103D02*
X98154183Y-54532103D01*
X96879286Y-50647600D02*
X62089900Y-50647600D01*
X98154183Y-54532103D02*
X99032103Y-53654183D01*
%TO.N,CANH*%
X79865000Y-57447400D02*
X79865000Y-58375000D01*
X83005000Y-58224866D02*
X83005000Y-57359448D01*
X82745552Y-57100000D02*
X80212400Y-57100000D01*
X90480000Y-72400000D02*
X89580000Y-71500000D01*
X80212400Y-57100000D02*
X79865000Y-57447400D01*
X88167592Y-71500000D02*
X85826600Y-69159008D01*
X83005000Y-57359448D02*
X82745552Y-57100000D01*
X89580000Y-71500000D02*
X88167592Y-71500000D01*
X85826600Y-61046466D02*
X83005000Y-58224866D01*
X85826600Y-69159008D02*
X85826600Y-61046466D01*
%TO.N,SPD2*%
X91096357Y-53799301D02*
X90704263Y-53407207D01*
X87392793Y-53407207D02*
X86700000Y-54100000D01*
X90704263Y-53407207D02*
X87392793Y-53407207D01*
%TO.N,CANL*%
X81135000Y-58275000D02*
X81135000Y-57875000D01*
X88353654Y-71900000D02*
X90480000Y-74026346D01*
X81135000Y-58375000D02*
X81135000Y-58986200D01*
X83864448Y-59650000D02*
X85426600Y-61212152D01*
X85426600Y-61212152D02*
X85426600Y-69324694D01*
X81798800Y-59650000D02*
X83864448Y-59650000D01*
X88001906Y-71900000D02*
X88353654Y-71900000D01*
X90480000Y-74026346D02*
X90480000Y-74940000D01*
X85426600Y-69324694D02*
X88001906Y-71900000D01*
X81135000Y-58986200D02*
X81798800Y-59650000D01*
%TO.N,SPD1*%
X87727107Y-53972893D02*
X87600000Y-54100000D01*
X90138579Y-53972893D02*
X87727107Y-53972893D01*
X90530672Y-54364986D02*
X90138579Y-53972893D01*
%TO.N,SWCLK*%
X88267930Y-58572272D02*
X88660024Y-58180178D01*
X88660024Y-58180178D02*
X89953514Y-58180178D01*
X92200000Y-58400000D02*
X92800000Y-57800000D01*
X90173336Y-58400000D02*
X92200000Y-58400000D01*
X89953514Y-58180178D02*
X90173336Y-58400000D01*
%TO.N,SWDIO*%
X90007650Y-58800000D02*
X92700000Y-58800000D01*
X89787828Y-58580178D02*
X90007650Y-58800000D01*
X92700000Y-58800000D02*
X93700000Y-57800000D01*
X89391395Y-58580178D02*
X89787828Y-58580178D01*
X88833616Y-59137957D02*
X89391395Y-58580178D01*
%TO.N,SWO*%
X88833616Y-56062043D02*
X90571573Y-57800000D01*
X90571573Y-57800000D02*
X91900000Y-57800000D01*
%TO.N,USART_TX*%
X97566384Y-56062043D02*
X98577800Y-55050627D01*
%TO.N,USART_RX*%
X98134472Y-56627728D02*
X99177800Y-55584400D01*
X98132070Y-56627728D02*
X98134472Y-56627728D01*
%TO.N,Net-(Q3-G)*%
X64900000Y-55942622D02*
X69357378Y-60400000D01*
X64900000Y-54800000D02*
X64900000Y-55942622D01*
X73600000Y-60400000D02*
X73600000Y-60300000D01*
X69357378Y-60400000D02*
X73600000Y-60400000D01*
%TO.N,Net-(Q4-G)*%
X72800000Y-69000000D02*
X73600000Y-68200000D01*
X68500000Y-69000000D02*
X72800000Y-69000000D01*
%TO.N,Net-(Q6-G)*%
X69191692Y-60800000D02*
X73000000Y-60800000D01*
X64194600Y-56600000D02*
X64991692Y-56600000D01*
X64991692Y-56600000D02*
X69191692Y-60800000D01*
X73000000Y-60800000D02*
X73600000Y-61400000D01*
%TO.N,Net-(U1-RDT)*%
X81012500Y-70400000D02*
X81650000Y-70400000D01*
X81650000Y-70400000D02*
X82000000Y-70050000D01*
%TO.N,Net-(U2-RDT)*%
X81650000Y-67000000D02*
X82000000Y-66650000D01*
X81012500Y-67000000D02*
X81650000Y-67000000D01*
%TO.N,Net-(U3-RDT)*%
X81650000Y-63600000D02*
X82000000Y-63250000D01*
X81012500Y-63600000D02*
X81650000Y-63600000D01*
%TO.N,SIGA*%
X92200000Y-68487500D02*
X92200000Y-68100000D01*
X96323094Y-65975000D02*
X93561486Y-65975000D01*
X92800000Y-66736486D02*
X92800000Y-67500000D01*
X97392793Y-64905301D02*
X96323094Y-65975000D01*
X97392793Y-60095737D02*
X97392793Y-64905301D01*
X97000699Y-59703643D02*
X97392793Y-60095737D01*
X93561486Y-65975000D02*
X92800000Y-66736486D01*
X92200000Y-68100000D02*
X92800000Y-67500000D01*
%TO.N,SIGB*%
X88800000Y-68365000D02*
X89600000Y-67565000D01*
X96157408Y-65575000D02*
X93395800Y-65575000D01*
X96850200Y-60684514D02*
X96850200Y-64882208D01*
X91405800Y-67565000D02*
X89600000Y-67565000D01*
X88800000Y-68487500D02*
X88800000Y-68365000D01*
X96435014Y-60269328D02*
X96850200Y-60684514D01*
X96850200Y-64882208D02*
X96157408Y-65575000D01*
X93395800Y-65575000D02*
X91405800Y-67565000D01*
%TO.N,SIGC*%
X95869328Y-60835014D02*
X96300000Y-61265686D01*
X92659200Y-65175000D02*
X91187500Y-65175000D01*
X96300000Y-61265686D02*
X96300000Y-64866722D01*
X95991722Y-65175000D02*
X92659200Y-65175000D01*
X96300000Y-64866722D02*
X95991722Y-65175000D01*
X91187500Y-65175000D02*
X90500000Y-64487500D01*
%TO.N,ID1*%
X98524163Y-58964365D02*
X98524163Y-66619163D01*
X98132070Y-58572272D02*
X98524163Y-58964365D01*
X98605000Y-66700000D02*
X98605000Y-67192500D01*
X98605000Y-67192500D02*
X99000000Y-67587500D01*
X98524163Y-66619163D02*
X98605000Y-66700000D01*
%TO.N,ID2*%
X97958478Y-66076522D02*
X97335000Y-66700000D01*
X97300000Y-67587500D02*
X97300000Y-66735000D01*
X97958478Y-59530051D02*
X97958478Y-66076522D01*
X97566384Y-59137957D02*
X97958478Y-59530051D01*
X97300000Y-66735000D02*
X97335000Y-66700000D01*
X97335000Y-67552500D02*
X97300000Y-67587500D01*
%TO.N,ID3*%
X91662043Y-61966384D02*
X92328427Y-61300000D01*
X92328427Y-61300000D02*
X92700000Y-61300000D01*
X96065000Y-66700000D02*
X96065000Y-67122500D01*
X91662043Y-61966384D02*
X91662043Y-61937957D01*
X96065000Y-67122500D02*
X95600000Y-67587500D01*
%TO.N,ID4*%
X94795000Y-66700000D02*
X94787500Y-66700000D01*
X91797056Y-60700000D02*
X93000000Y-60700000D01*
X94787500Y-66700000D02*
X93900000Y-67587500D01*
X93000000Y-60700000D02*
X93600000Y-61300000D01*
X91096357Y-61400699D02*
X91797056Y-60700000D01*
%TO.N,ID_DISP*%
X88911952Y-55009008D02*
X88105207Y-55009008D01*
X87014215Y-56100000D02*
X86614000Y-56100000D01*
X89399301Y-55496357D02*
X88911952Y-55009008D01*
X88105207Y-55009008D02*
X87014215Y-56100000D01*
%TO.N,STATUS*%
X89964986Y-54930672D02*
X89572892Y-54538578D01*
X89572892Y-54538578D02*
X88009951Y-54538578D01*
X88009951Y-54538578D02*
X87348529Y-55200000D01*
X87348529Y-55200000D02*
X86614000Y-55200000D01*
%TO.N,Net-(U6-VOUT)*%
X59712500Y-69800000D02*
X62700000Y-69800000D01*
%TO.N,Net-(U7-VOUT)*%
X57187500Y-51500000D02*
X56300000Y-51500000D01*
%TO.N,RXD*%
X85475000Y-54908278D02*
X85475000Y-59563494D01*
X86577800Y-60666294D02*
X89568020Y-60666294D01*
X83991722Y-53425000D02*
X85475000Y-54908278D01*
X82405000Y-53425000D02*
X83991722Y-53425000D01*
X85475000Y-59563494D02*
X86577800Y-60666294D01*
X89568020Y-60666294D02*
X89964986Y-60269328D01*
%TO.N,TXD*%
X86743486Y-60266294D02*
X88836650Y-60266294D01*
X78898801Y-52146200D02*
X83278608Y-52146200D01*
X83278608Y-52146200D02*
X85875000Y-54742592D01*
X78595000Y-52450001D02*
X78898801Y-52146200D01*
X78595000Y-53425000D02*
X78595000Y-52450001D01*
X85875000Y-54742592D02*
X85875000Y-59397808D01*
X85875000Y-59397808D02*
X86743486Y-60266294D01*
X88836650Y-60266294D02*
X89399301Y-59703643D01*
%TO.N,Net-(U10-PB8)*%
X90428427Y-52000000D02*
X91662043Y-53233616D01*
X89112500Y-52000000D02*
X90428427Y-52000000D01*
%TD*%
%TA.AperFunction,Conductor*%
%TO.N,GNDPWR*%
G36*
X73414455Y-67518985D02*
G01*
X73460210Y-67571789D01*
X73470154Y-67640947D01*
X73441129Y-67704503D01*
X73396551Y-67733151D01*
X73398017Y-67736361D01*
X73389950Y-67740045D01*
X73268873Y-67817856D01*
X73268872Y-67817856D01*
X73268872Y-67817857D01*
X73260896Y-67827062D01*
X73174623Y-67926626D01*
X73174622Y-67926628D01*
X73114834Y-68057543D01*
X73094353Y-68200000D01*
X73094353Y-68200001D01*
X73095661Y-68209103D01*
X73085713Y-68278261D01*
X73060603Y-68314424D01*
X72711848Y-68663181D01*
X72650525Y-68696666D01*
X72624167Y-68699500D01*
X68958501Y-68699500D01*
X68891462Y-68679815D01*
X68864788Y-68656703D01*
X68831128Y-68617857D01*
X68710053Y-68540047D01*
X68710051Y-68540046D01*
X68710049Y-68540045D01*
X68710050Y-68540045D01*
X68571963Y-68499500D01*
X68571961Y-68499500D01*
X68428039Y-68499500D01*
X68428036Y-68499500D01*
X68289949Y-68540045D01*
X68168873Y-68617856D01*
X68074623Y-68726626D01*
X68074622Y-68726628D01*
X68014834Y-68857543D01*
X67994353Y-69000000D01*
X68014834Y-69142456D01*
X68068494Y-69259953D01*
X68074623Y-69273373D01*
X68168872Y-69382143D01*
X68289947Y-69459953D01*
X68289950Y-69459954D01*
X68289949Y-69459954D01*
X68388611Y-69488923D01*
X68424633Y-69499500D01*
X68428036Y-69500499D01*
X68428038Y-69500500D01*
X68428039Y-69500500D01*
X68571962Y-69500500D01*
X68571962Y-69500499D01*
X68710053Y-69459953D01*
X68831128Y-69382143D01*
X68864788Y-69343296D01*
X68923567Y-69305523D01*
X68958501Y-69300500D01*
X72839560Y-69300500D01*
X72839562Y-69300500D01*
X72915989Y-69280021D01*
X72984511Y-69240460D01*
X73040460Y-69184511D01*
X73488151Y-68736818D01*
X73549474Y-68703334D01*
X73575832Y-68700500D01*
X73671962Y-68700500D01*
X73671962Y-68700499D01*
X73810053Y-68659953D01*
X73846259Y-68636684D01*
X73913294Y-68617001D01*
X73980334Y-68636685D01*
X74026090Y-68689488D01*
X74030337Y-68700045D01*
X74045884Y-68744476D01*
X74124288Y-68850710D01*
X74124289Y-68850711D01*
X74230523Y-68929115D01*
X74230524Y-68929115D01*
X74230525Y-68929116D01*
X74355151Y-68972725D01*
X74355150Y-68972725D01*
X74384740Y-68975500D01*
X74384744Y-68975500D01*
X74849167Y-68975500D01*
X74916206Y-68995185D01*
X74936848Y-69011819D01*
X74960604Y-69035575D01*
X74994089Y-69096898D01*
X74995661Y-69140902D01*
X74994353Y-69149999D01*
X75014834Y-69292456D01*
X75047625Y-69364256D01*
X75058585Y-69388256D01*
X75071194Y-69415864D01*
X75082400Y-69467376D01*
X75082400Y-69572712D01*
X75062715Y-69639751D01*
X75009911Y-69685506D01*
X74940753Y-69695450D01*
X74877197Y-69666425D01*
X74870719Y-69660393D01*
X74814579Y-69604253D01*
X74714409Y-69557543D01*
X74710545Y-69555741D01*
X74710543Y-69555740D01*
X74710544Y-69555740D01*
X74663140Y-69549500D01*
X74336867Y-69549500D01*
X74321839Y-69551478D01*
X74289455Y-69555741D01*
X74289453Y-69555742D01*
X74289451Y-69555742D01*
X74185420Y-69604253D01*
X74137040Y-69652633D01*
X74075717Y-69686117D01*
X74006025Y-69681132D01*
X73955647Y-69646154D01*
X73950099Y-69639751D01*
X73931128Y-69617857D01*
X73810053Y-69540047D01*
X73810051Y-69540046D01*
X73810049Y-69540045D01*
X73810050Y-69540045D01*
X73671963Y-69499500D01*
X73671961Y-69499500D01*
X73528039Y-69499500D01*
X73528036Y-69499500D01*
X73389949Y-69540045D01*
X73268873Y-69617856D01*
X73174623Y-69726626D01*
X73174622Y-69726628D01*
X73114834Y-69857543D01*
X73094353Y-70000000D01*
X73114834Y-70142456D01*
X73168494Y-70259953D01*
X73174623Y-70273373D01*
X73268872Y-70382143D01*
X73389947Y-70459953D01*
X73389950Y-70459954D01*
X73389949Y-70459954D01*
X73528036Y-70500499D01*
X73528038Y-70500500D01*
X73528039Y-70500500D01*
X73671962Y-70500500D01*
X73671962Y-70500499D01*
X73810053Y-70459953D01*
X73931128Y-70382143D01*
X73955649Y-70353843D01*
X74014424Y-70316071D01*
X74084294Y-70316070D01*
X74137041Y-70347367D01*
X74185421Y-70395747D01*
X74289455Y-70444259D01*
X74336861Y-70450500D01*
X74663138Y-70450499D01*
X74710545Y-70444259D01*
X74814579Y-70395747D01*
X74870719Y-70339607D01*
X74932042Y-70306122D01*
X75001734Y-70311106D01*
X75057667Y-70352978D01*
X75082084Y-70418442D01*
X75082400Y-70427288D01*
X75082400Y-71241642D01*
X75062715Y-71308681D01*
X75009911Y-71354436D01*
X74979849Y-71362543D01*
X74980042Y-71363511D01*
X74974069Y-71364699D01*
X74776043Y-71424769D01*
X74691639Y-71469885D01*
X74593550Y-71522315D01*
X74593548Y-71522316D01*
X74593547Y-71522317D01*
X74433589Y-71653589D01*
X74302317Y-71813547D01*
X74204769Y-71996043D01*
X74144699Y-72194067D01*
X74124417Y-72400000D01*
X74144699Y-72605932D01*
X74144700Y-72605934D01*
X74204768Y-72803954D01*
X74302315Y-72986450D01*
X74302317Y-72986452D01*
X74433589Y-73146410D01*
X74530209Y-73225702D01*
X74593550Y-73277685D01*
X74776046Y-73375232D01*
X74974066Y-73435300D01*
X74974065Y-73435300D01*
X74992529Y-73437118D01*
X75180000Y-73455583D01*
X75385934Y-73435300D01*
X75583954Y-73375232D01*
X75766450Y-73277685D01*
X75926410Y-73146410D01*
X76057685Y-72986450D01*
X76155232Y-72803954D01*
X76215300Y-72605934D01*
X76235583Y-72400000D01*
X76215300Y-72194066D01*
X76155232Y-71996046D01*
X76057685Y-71813550D01*
X75997702Y-71740460D01*
X75925815Y-71652864D01*
X75898503Y-71588554D01*
X75910294Y-71519687D01*
X75957447Y-71468127D01*
X76021669Y-71450200D01*
X76878331Y-71450200D01*
X76945370Y-71469885D01*
X76991125Y-71522689D01*
X77001069Y-71591847D01*
X76974185Y-71652864D01*
X76842317Y-71813547D01*
X76744769Y-71996043D01*
X76684699Y-72194067D01*
X76664417Y-72400000D01*
X76684699Y-72605932D01*
X76684700Y-72605934D01*
X76744768Y-72803954D01*
X76842315Y-72986450D01*
X76842317Y-72986452D01*
X76973589Y-73146410D01*
X77070209Y-73225702D01*
X77133550Y-73277685D01*
X77316046Y-73375232D01*
X77514066Y-73435300D01*
X77514065Y-73435300D01*
X77532529Y-73437118D01*
X77720000Y-73455583D01*
X77925934Y-73435300D01*
X78123954Y-73375232D01*
X78306450Y-73277685D01*
X78466410Y-73146410D01*
X78597685Y-72986450D01*
X78695232Y-72803954D01*
X78755300Y-72605934D01*
X78775583Y-72400000D01*
X78755300Y-72194066D01*
X78695232Y-71996046D01*
X78597685Y-71813550D01*
X78537702Y-71740460D01*
X78465815Y-71652864D01*
X78438503Y-71588554D01*
X78450294Y-71519687D01*
X78497447Y-71468127D01*
X78561669Y-71450200D01*
X79418331Y-71450200D01*
X79485370Y-71469885D01*
X79531125Y-71522689D01*
X79541069Y-71591847D01*
X79514185Y-71652864D01*
X79382317Y-71813547D01*
X79284769Y-71996043D01*
X79224699Y-72194067D01*
X79204417Y-72400000D01*
X79224699Y-72605932D01*
X79224700Y-72605934D01*
X79284768Y-72803954D01*
X79382315Y-72986450D01*
X79382317Y-72986452D01*
X79513589Y-73146410D01*
X79610209Y-73225702D01*
X79673550Y-73277685D01*
X79856046Y-73375232D01*
X80054066Y-73435300D01*
X80054065Y-73435300D01*
X80072529Y-73437118D01*
X80260000Y-73455583D01*
X80465934Y-73435300D01*
X80663954Y-73375232D01*
X80846450Y-73277685D01*
X81006410Y-73146410D01*
X81137685Y-72986450D01*
X81235232Y-72803954D01*
X81295300Y-72605934D01*
X81315583Y-72400000D01*
X81295300Y-72194066D01*
X81235232Y-71996046D01*
X81137685Y-71813550D01*
X81077702Y-71740460D01*
X81005815Y-71652864D01*
X80978503Y-71588554D01*
X80990294Y-71519687D01*
X81037447Y-71468127D01*
X81101669Y-71450200D01*
X81958331Y-71450200D01*
X82025370Y-71469885D01*
X82071125Y-71522689D01*
X82081069Y-71591847D01*
X82054185Y-71652864D01*
X81922317Y-71813547D01*
X81824769Y-71996043D01*
X81764699Y-72194067D01*
X81744417Y-72400000D01*
X81764699Y-72605932D01*
X81764700Y-72605934D01*
X81824768Y-72803954D01*
X81922315Y-72986450D01*
X81922317Y-72986452D01*
X82053589Y-73146410D01*
X82150209Y-73225702D01*
X82213550Y-73277685D01*
X82396046Y-73375232D01*
X82594066Y-73435300D01*
X82594065Y-73435300D01*
X82612529Y-73437118D01*
X82800000Y-73455583D01*
X83005934Y-73435300D01*
X83203954Y-73375232D01*
X83386450Y-73277685D01*
X83546410Y-73146410D01*
X83677685Y-72986450D01*
X83775232Y-72803954D01*
X83835300Y-72605934D01*
X83855583Y-72400000D01*
X83835300Y-72194066D01*
X83775232Y-71996046D01*
X83677685Y-71813550D01*
X83617702Y-71740460D01*
X83545815Y-71652864D01*
X83518503Y-71588554D01*
X83530294Y-71519687D01*
X83577447Y-71468127D01*
X83641669Y-71450200D01*
X84165500Y-71450200D01*
X84232539Y-71469885D01*
X84278294Y-71522689D01*
X84289500Y-71574200D01*
X84289500Y-73269752D01*
X84301131Y-73328229D01*
X84301132Y-73328230D01*
X84345447Y-73394552D01*
X84411769Y-73438867D01*
X84411770Y-73438868D01*
X84470247Y-73450499D01*
X84470250Y-73450500D01*
X84470252Y-73450500D01*
X86209750Y-73450500D01*
X86209751Y-73450499D01*
X86224568Y-73447552D01*
X86268229Y-73438868D01*
X86268229Y-73438867D01*
X86268231Y-73438867D01*
X86334552Y-73394552D01*
X86378867Y-73328231D01*
X86378867Y-73328229D01*
X86378868Y-73328229D01*
X86390499Y-73269752D01*
X86390500Y-73269750D01*
X86390500Y-71574200D01*
X86410185Y-71507161D01*
X86462989Y-71461406D01*
X86514500Y-71450200D01*
X86642400Y-71450200D01*
X86709439Y-71469885D01*
X86755194Y-71522689D01*
X86766400Y-71574200D01*
X86766400Y-77875500D01*
X86746715Y-77942539D01*
X86693911Y-77988294D01*
X86642400Y-77999500D01*
X69812299Y-77999500D01*
X69745260Y-77979815D01*
X69699505Y-77927011D01*
X69689561Y-77857853D01*
X69718586Y-77794297D01*
X69764847Y-77760939D01*
X69861807Y-77720777D01*
X69861808Y-77720776D01*
X69861811Y-77720775D01*
X69976543Y-77644114D01*
X70644114Y-76976543D01*
X70720775Y-76861811D01*
X70773580Y-76734328D01*
X70782389Y-76690040D01*
X70800500Y-76598996D01*
X70800500Y-75782734D01*
X70820185Y-75715695D01*
X70842275Y-75690881D01*
X70842107Y-75690713D01*
X70845003Y-75687816D01*
X70845838Y-75686879D01*
X70846410Y-75686410D01*
X70977685Y-75526450D01*
X71075232Y-75343954D01*
X71135300Y-75145934D01*
X71155583Y-74940000D01*
X71584417Y-74940000D01*
X71604699Y-75145932D01*
X71604700Y-75145934D01*
X71664768Y-75343954D01*
X71762315Y-75526450D01*
X71762317Y-75526452D01*
X71893589Y-75686410D01*
X71964517Y-75744618D01*
X72053550Y-75817685D01*
X72236046Y-75915232D01*
X72434066Y-75975300D01*
X72434065Y-75975300D01*
X72452529Y-75977118D01*
X72640000Y-75995583D01*
X72845934Y-75975300D01*
X73043954Y-75915232D01*
X73226450Y-75817685D01*
X73386410Y-75686410D01*
X73517685Y-75526450D01*
X73615232Y-75343954D01*
X73675300Y-75145934D01*
X73695583Y-74940000D01*
X74124417Y-74940000D01*
X74144699Y-75145932D01*
X74144700Y-75145934D01*
X74204768Y-75343954D01*
X74302315Y-75526450D01*
X74302317Y-75526452D01*
X74433589Y-75686410D01*
X74504517Y-75744618D01*
X74593550Y-75817685D01*
X74776046Y-75915232D01*
X74974066Y-75975300D01*
X74974065Y-75975300D01*
X74992529Y-75977118D01*
X75180000Y-75995583D01*
X75385934Y-75975300D01*
X75583954Y-75915232D01*
X75766450Y-75817685D01*
X75926410Y-75686410D01*
X76057685Y-75526450D01*
X76155232Y-75343954D01*
X76215300Y-75145934D01*
X76235583Y-74940000D01*
X76664417Y-74940000D01*
X76684699Y-75145932D01*
X76684700Y-75145934D01*
X76744768Y-75343954D01*
X76842315Y-75526450D01*
X76842317Y-75526452D01*
X76973589Y-75686410D01*
X77044517Y-75744618D01*
X77133550Y-75817685D01*
X77316046Y-75915232D01*
X77514066Y-75975300D01*
X77514065Y-75975300D01*
X77532529Y-75977118D01*
X77720000Y-75995583D01*
X77925934Y-75975300D01*
X78123954Y-75915232D01*
X78306450Y-75817685D01*
X78466410Y-75686410D01*
X78597685Y-75526450D01*
X78695232Y-75343954D01*
X78755300Y-75145934D01*
X78775583Y-74940000D01*
X79204417Y-74940000D01*
X79224699Y-75145932D01*
X79224700Y-75145934D01*
X79284768Y-75343954D01*
X79382315Y-75526450D01*
X79382317Y-75526452D01*
X79513589Y-75686410D01*
X79584517Y-75744618D01*
X79673550Y-75817685D01*
X79856046Y-75915232D01*
X80054066Y-75975300D01*
X80054065Y-75975300D01*
X80072529Y-75977118D01*
X80260000Y-75995583D01*
X80465934Y-75975300D01*
X80663954Y-75915232D01*
X80846450Y-75817685D01*
X81006410Y-75686410D01*
X81137685Y-75526450D01*
X81235232Y-75343954D01*
X81295300Y-75145934D01*
X81315583Y-74940000D01*
X81744417Y-74940000D01*
X81764699Y-75145932D01*
X81764700Y-75145934D01*
X81824768Y-75343954D01*
X81922315Y-75526450D01*
X81922317Y-75526452D01*
X82053589Y-75686410D01*
X82124517Y-75744618D01*
X82213550Y-75817685D01*
X82396046Y-75915232D01*
X82594066Y-75975300D01*
X82594065Y-75975300D01*
X82612529Y-75977118D01*
X82800000Y-75995583D01*
X83005934Y-75975300D01*
X83203954Y-75915232D01*
X83386450Y-75817685D01*
X83546410Y-75686410D01*
X83677685Y-75526450D01*
X83775232Y-75343954D01*
X83835300Y-75145934D01*
X83855583Y-74940000D01*
X84284417Y-74940000D01*
X84304699Y-75145932D01*
X84304700Y-75145934D01*
X84364768Y-75343954D01*
X84462315Y-75526450D01*
X84462317Y-75526452D01*
X84593589Y-75686410D01*
X84664517Y-75744618D01*
X84753550Y-75817685D01*
X84936046Y-75915232D01*
X85134066Y-75975300D01*
X85134065Y-75975300D01*
X85152529Y-75977118D01*
X85340000Y-75995583D01*
X85545934Y-75975300D01*
X85743954Y-75915232D01*
X85926450Y-75817685D01*
X86086410Y-75686410D01*
X86217685Y-75526450D01*
X86315232Y-75343954D01*
X86375300Y-75145934D01*
X86395583Y-74940000D01*
X86375300Y-74734066D01*
X86315232Y-74536046D01*
X86217685Y-74353550D01*
X86165702Y-74290209D01*
X86086410Y-74193589D01*
X85926452Y-74062317D01*
X85926453Y-74062317D01*
X85926450Y-74062315D01*
X85743954Y-73964768D01*
X85545934Y-73904700D01*
X85545932Y-73904699D01*
X85545934Y-73904699D01*
X85340000Y-73884417D01*
X85134067Y-73904699D01*
X84936043Y-73964769D01*
X84825898Y-74023643D01*
X84753550Y-74062315D01*
X84753548Y-74062316D01*
X84753547Y-74062317D01*
X84593589Y-74193589D01*
X84462317Y-74353547D01*
X84364769Y-74536043D01*
X84304699Y-74734067D01*
X84284417Y-74940000D01*
X83855583Y-74940000D01*
X83835300Y-74734066D01*
X83775232Y-74536046D01*
X83677685Y-74353550D01*
X83625702Y-74290209D01*
X83546410Y-74193589D01*
X83386452Y-74062317D01*
X83386453Y-74062317D01*
X83386450Y-74062315D01*
X83203954Y-73964768D01*
X83005934Y-73904700D01*
X83005932Y-73904699D01*
X83005934Y-73904699D01*
X82800000Y-73884417D01*
X82594067Y-73904699D01*
X82396043Y-73964769D01*
X82285898Y-74023643D01*
X82213550Y-74062315D01*
X82213548Y-74062316D01*
X82213547Y-74062317D01*
X82053589Y-74193589D01*
X81922317Y-74353547D01*
X81824769Y-74536043D01*
X81764699Y-74734067D01*
X81744417Y-74940000D01*
X81315583Y-74940000D01*
X81295300Y-74734066D01*
X81235232Y-74536046D01*
X81137685Y-74353550D01*
X81085702Y-74290209D01*
X81006410Y-74193589D01*
X80846452Y-74062317D01*
X80846453Y-74062317D01*
X80846450Y-74062315D01*
X80663954Y-73964768D01*
X80465934Y-73904700D01*
X80465932Y-73904699D01*
X80465934Y-73904699D01*
X80260000Y-73884417D01*
X80054067Y-73904699D01*
X79856043Y-73964769D01*
X79745898Y-74023643D01*
X79673550Y-74062315D01*
X79673548Y-74062316D01*
X79673547Y-74062317D01*
X79513589Y-74193589D01*
X79382317Y-74353547D01*
X79284769Y-74536043D01*
X79224699Y-74734067D01*
X79204417Y-74940000D01*
X78775583Y-74940000D01*
X78755300Y-74734066D01*
X78695232Y-74536046D01*
X78597685Y-74353550D01*
X78545702Y-74290209D01*
X78466410Y-74193589D01*
X78306452Y-74062317D01*
X78306453Y-74062317D01*
X78306450Y-74062315D01*
X78123954Y-73964768D01*
X77925934Y-73904700D01*
X77925932Y-73904699D01*
X77925934Y-73904699D01*
X77720000Y-73884417D01*
X77514067Y-73904699D01*
X77316043Y-73964769D01*
X77205898Y-74023643D01*
X77133550Y-74062315D01*
X77133548Y-74062316D01*
X77133547Y-74062317D01*
X76973589Y-74193589D01*
X76842317Y-74353547D01*
X76744769Y-74536043D01*
X76684699Y-74734067D01*
X76664417Y-74940000D01*
X76235583Y-74940000D01*
X76215300Y-74734066D01*
X76155232Y-74536046D01*
X76057685Y-74353550D01*
X76005702Y-74290209D01*
X75926410Y-74193589D01*
X75766452Y-74062317D01*
X75766453Y-74062317D01*
X75766450Y-74062315D01*
X75583954Y-73964768D01*
X75385934Y-73904700D01*
X75385932Y-73904699D01*
X75385934Y-73904699D01*
X75180000Y-73884417D01*
X74974067Y-73904699D01*
X74776043Y-73964769D01*
X74665898Y-74023643D01*
X74593550Y-74062315D01*
X74593548Y-74062316D01*
X74593547Y-74062317D01*
X74433589Y-74193589D01*
X74302317Y-74353547D01*
X74204769Y-74536043D01*
X74144699Y-74734067D01*
X74124417Y-74940000D01*
X73695583Y-74940000D01*
X73675300Y-74734066D01*
X73615232Y-74536046D01*
X73517685Y-74353550D01*
X73465702Y-74290209D01*
X73386410Y-74193589D01*
X73226452Y-74062317D01*
X73226453Y-74062317D01*
X73226450Y-74062315D01*
X73043954Y-73964768D01*
X72845934Y-73904700D01*
X72845932Y-73904699D01*
X72845934Y-73904699D01*
X72640000Y-73884417D01*
X72434067Y-73904699D01*
X72236043Y-73964769D01*
X72125898Y-74023643D01*
X72053550Y-74062315D01*
X72053548Y-74062316D01*
X72053547Y-74062317D01*
X71893589Y-74193589D01*
X71762317Y-74353547D01*
X71664769Y-74536043D01*
X71604699Y-74734067D01*
X71584417Y-74940000D01*
X71155583Y-74940000D01*
X71135300Y-74734066D01*
X71075232Y-74536046D01*
X70977685Y-74353550D01*
X70925702Y-74290209D01*
X70846410Y-74193589D01*
X70686452Y-74062317D01*
X70686453Y-74062317D01*
X70686450Y-74062315D01*
X70503954Y-73964768D01*
X70305934Y-73904700D01*
X70305932Y-73904699D01*
X70305934Y-73904699D01*
X70100000Y-73884417D01*
X69894067Y-73904699D01*
X69696043Y-73964769D01*
X69585898Y-74023643D01*
X69513550Y-74062315D01*
X69513548Y-74062316D01*
X69513547Y-74062317D01*
X69353589Y-74193589D01*
X69222317Y-74353547D01*
X69124769Y-74536043D01*
X69064699Y-74734067D01*
X69044417Y-74940000D01*
X69064699Y-75145932D01*
X69064700Y-75145934D01*
X69124768Y-75343954D01*
X69222315Y-75526450D01*
X69353590Y-75686410D01*
X69354159Y-75686877D01*
X69354379Y-75687199D01*
X69357893Y-75690713D01*
X69357226Y-75691379D01*
X69393496Y-75744618D01*
X69399500Y-75782734D01*
X69399500Y-76188480D01*
X69379815Y-76255519D01*
X69363181Y-76276161D01*
X68985888Y-76653453D01*
X68985887Y-76653454D01*
X68909222Y-76768192D01*
X68856421Y-76895667D01*
X68856418Y-76895677D01*
X68829500Y-77031003D01*
X68829500Y-77031006D01*
X68829500Y-77168994D01*
X68829500Y-77168996D01*
X68829499Y-77168996D01*
X68856418Y-77304322D01*
X68856421Y-77304332D01*
X68909222Y-77431807D01*
X68985887Y-77546545D01*
X69083454Y-77644112D01*
X69198192Y-77720777D01*
X69295153Y-77760939D01*
X69349557Y-77804780D01*
X69371622Y-77871074D01*
X69354343Y-77938773D01*
X69303206Y-77986384D01*
X69247701Y-77999500D01*
X52004428Y-77999500D01*
X51995582Y-77999184D01*
X51973622Y-77997613D01*
X51795442Y-77984869D01*
X51777931Y-77982351D01*
X51586212Y-77940646D01*
X51569236Y-77935662D01*
X51385390Y-77867090D01*
X51369298Y-77859740D01*
X51197095Y-77765711D01*
X51182210Y-77756146D01*
X51025132Y-77638558D01*
X51011762Y-77626972D01*
X50873027Y-77488237D01*
X50861441Y-77474867D01*
X50743849Y-77317784D01*
X50734288Y-77302904D01*
X50640259Y-77130701D01*
X50632909Y-77114609D01*
X50564334Y-76930755D01*
X50559355Y-76913797D01*
X50517647Y-76722063D01*
X50515130Y-76704556D01*
X50511475Y-76653457D01*
X50500816Y-76504418D01*
X50500500Y-76495572D01*
X50500500Y-72400000D01*
X69044417Y-72400000D01*
X69064699Y-72605932D01*
X69064700Y-72605934D01*
X69124768Y-72803954D01*
X69222315Y-72986450D01*
X69222317Y-72986452D01*
X69353589Y-73146410D01*
X69450209Y-73225702D01*
X69513550Y-73277685D01*
X69696046Y-73375232D01*
X69894066Y-73435300D01*
X69894065Y-73435300D01*
X69912529Y-73437118D01*
X70100000Y-73455583D01*
X70305934Y-73435300D01*
X70503954Y-73375232D01*
X70686450Y-73277685D01*
X70846410Y-73146410D01*
X70977685Y-72986450D01*
X71075232Y-72803954D01*
X71135300Y-72605934D01*
X71155583Y-72400000D01*
X71584417Y-72400000D01*
X71604699Y-72605932D01*
X71604700Y-72605934D01*
X71664768Y-72803954D01*
X71762315Y-72986450D01*
X71762317Y-72986452D01*
X71893589Y-73146410D01*
X71990209Y-73225702D01*
X72053550Y-73277685D01*
X72236046Y-73375232D01*
X72434066Y-73435300D01*
X72434065Y-73435300D01*
X72452529Y-73437118D01*
X72640000Y-73455583D01*
X72845934Y-73435300D01*
X73043954Y-73375232D01*
X73226450Y-73277685D01*
X73386410Y-73146410D01*
X73517685Y-72986450D01*
X73615232Y-72803954D01*
X73675300Y-72605934D01*
X73695583Y-72400000D01*
X73675300Y-72194066D01*
X73615232Y-71996046D01*
X73517685Y-71813550D01*
X73457702Y-71740460D01*
X73386410Y-71653589D01*
X73268677Y-71556969D01*
X73226450Y-71522315D01*
X73043954Y-71424768D01*
X72845934Y-71364700D01*
X72845932Y-71364699D01*
X72845934Y-71364699D01*
X72640000Y-71344417D01*
X72434067Y-71364699D01*
X72236043Y-71424769D01*
X72151639Y-71469885D01*
X72053550Y-71522315D01*
X72053548Y-71522316D01*
X72053547Y-71522317D01*
X71893589Y-71653589D01*
X71762317Y-71813547D01*
X71664769Y-71996043D01*
X71604699Y-72194067D01*
X71584417Y-72400000D01*
X71155583Y-72400000D01*
X71135300Y-72194066D01*
X71075232Y-71996046D01*
X70977685Y-71813550D01*
X70917702Y-71740460D01*
X70846410Y-71653589D01*
X70728677Y-71556969D01*
X70686450Y-71522315D01*
X70503954Y-71424768D01*
X70305934Y-71364700D01*
X70305932Y-71364699D01*
X70305934Y-71364699D01*
X70100000Y-71344417D01*
X69894067Y-71364699D01*
X69696043Y-71424769D01*
X69611639Y-71469885D01*
X69513550Y-71522315D01*
X69513548Y-71522316D01*
X69513547Y-71522317D01*
X69353589Y-71653589D01*
X69222317Y-71813547D01*
X69124769Y-71996043D01*
X69064699Y-72194067D01*
X69044417Y-72400000D01*
X50500500Y-72400000D01*
X50500500Y-71396400D01*
X50520185Y-71329361D01*
X50572989Y-71283606D01*
X50624500Y-71272400D01*
X64185800Y-71272400D01*
X64185800Y-69317162D01*
X64205485Y-69250123D01*
X64222119Y-69229481D01*
X65546481Y-67905119D01*
X65607804Y-67871634D01*
X65634162Y-67868800D01*
X68935600Y-67868800D01*
X69127881Y-67676519D01*
X69189204Y-67643034D01*
X69215562Y-67640200D01*
X72593200Y-67640200D01*
X72593200Y-67623300D01*
X72612885Y-67556261D01*
X72665689Y-67510506D01*
X72717200Y-67499300D01*
X73347416Y-67499300D01*
X73414455Y-67518985D01*
G37*
%TD.AperFunction*%
%TA.AperFunction,Conductor*%
G36*
X63237139Y-56153685D02*
G01*
X63282894Y-56206489D01*
X63294100Y-56258000D01*
X63294100Y-56888091D01*
X63300555Y-56912181D01*
X63314579Y-56964519D01*
X63314580Y-56964520D01*
X63344007Y-57015489D01*
X63344008Y-57015491D01*
X63354137Y-57033036D01*
X63354139Y-57033039D01*
X63354140Y-57033040D01*
X63705611Y-57384511D01*
X63761560Y-57440460D01*
X63761562Y-57440461D01*
X63761566Y-57440464D01*
X63808395Y-57467500D01*
X63830082Y-57480021D01*
X63906509Y-57500500D01*
X63985633Y-57500500D01*
X64807696Y-57500500D01*
X64874735Y-57520185D01*
X64895377Y-57536819D01*
X65141858Y-57783300D01*
X65175343Y-57844623D01*
X65170359Y-57914315D01*
X65128487Y-57970248D01*
X65121217Y-57975296D01*
X65023874Y-58037855D01*
X64929623Y-58146626D01*
X64929622Y-58146628D01*
X64869834Y-58277543D01*
X64849353Y-58420000D01*
X64869834Y-58562456D01*
X64929622Y-58693371D01*
X64929623Y-58693373D01*
X65023872Y-58802143D01*
X65144947Y-58879953D01*
X65144950Y-58879954D01*
X65144949Y-58879954D01*
X65252107Y-58911417D01*
X65265179Y-58915256D01*
X65283036Y-58920499D01*
X65283038Y-58920500D01*
X65283039Y-58920500D01*
X65426962Y-58920500D01*
X65426962Y-58920499D01*
X65565053Y-58879953D01*
X65686128Y-58802143D01*
X65780377Y-58693373D01*
X65791322Y-58669405D01*
X65837073Y-58616605D01*
X65904112Y-58596919D01*
X65971152Y-58616602D01*
X65991796Y-58633238D01*
X68743069Y-61384511D01*
X68799018Y-61440460D01*
X68799020Y-61440461D01*
X68799024Y-61440464D01*
X68819946Y-61452543D01*
X68867540Y-61480021D01*
X68943967Y-61500500D01*
X69023091Y-61500500D01*
X72375638Y-61500500D01*
X72442677Y-61520185D01*
X72463319Y-61536819D01*
X73111011Y-62184511D01*
X73166960Y-62240460D01*
X73166962Y-62240461D01*
X73166966Y-62240464D01*
X73184715Y-62250711D01*
X73235482Y-62280021D01*
X73311909Y-62300500D01*
X73311911Y-62300500D01*
X74277060Y-62300500D01*
X74277062Y-62300500D01*
X74353489Y-62280021D01*
X74422011Y-62240460D01*
X74450652Y-62211819D01*
X74511975Y-62178334D01*
X74538333Y-62175500D01*
X74849167Y-62175500D01*
X74916206Y-62195185D01*
X74936848Y-62211819D01*
X74960604Y-62235575D01*
X74994089Y-62296898D01*
X74995661Y-62340902D01*
X74994353Y-62349999D01*
X75014834Y-62492456D01*
X75040270Y-62548152D01*
X75069494Y-62612143D01*
X75071194Y-62615864D01*
X75082400Y-62667376D01*
X75082400Y-62772712D01*
X75062715Y-62839751D01*
X75009911Y-62885506D01*
X74940753Y-62895450D01*
X74877197Y-62866425D01*
X74870719Y-62860393D01*
X74814579Y-62804253D01*
X74746939Y-62772712D01*
X74710545Y-62755741D01*
X74710543Y-62755740D01*
X74710544Y-62755740D01*
X74663140Y-62749500D01*
X74336867Y-62749500D01*
X74321839Y-62751478D01*
X74289455Y-62755741D01*
X74289453Y-62755742D01*
X74289451Y-62755742D01*
X74185420Y-62804253D01*
X74137040Y-62852633D01*
X74075717Y-62886117D01*
X74006025Y-62881132D01*
X73955647Y-62846154D01*
X73931128Y-62817857D01*
X73810053Y-62740047D01*
X73810051Y-62740046D01*
X73810049Y-62740045D01*
X73810050Y-62740045D01*
X73671963Y-62699500D01*
X73671961Y-62699500D01*
X73528039Y-62699500D01*
X73528036Y-62699500D01*
X73389949Y-62740045D01*
X73268873Y-62817856D01*
X73174623Y-62926626D01*
X73174622Y-62926628D01*
X73114834Y-63057543D01*
X73103826Y-63134107D01*
X73074800Y-63197663D01*
X73016022Y-63235436D01*
X72946152Y-63235436D01*
X72919088Y-63223846D01*
X72912392Y-63219980D01*
X72912393Y-63219980D01*
X72903360Y-63217559D01*
X72835962Y-63199500D01*
X72835960Y-63199500D01*
X67586400Y-63199500D01*
X67519361Y-63179815D01*
X67473606Y-63127011D01*
X67462400Y-63075500D01*
X67462400Y-61391800D01*
X64919400Y-61391800D01*
X64852361Y-61372115D01*
X64806606Y-61319311D01*
X64795400Y-61267800D01*
X64795400Y-60248800D01*
X59309000Y-60248800D01*
X59308999Y-60248800D01*
X58834881Y-60722919D01*
X58773558Y-60756404D01*
X58703866Y-60751420D01*
X58647933Y-60709548D01*
X58623516Y-60644084D01*
X58623200Y-60635238D01*
X58623200Y-57604200D01*
X58642885Y-57537161D01*
X58695689Y-57491406D01*
X58747200Y-57480200D01*
X59994800Y-57480200D01*
X61304681Y-56170319D01*
X61366004Y-56136834D01*
X61392362Y-56134000D01*
X63170100Y-56134000D01*
X63237139Y-56153685D01*
G37*
%TD.AperFunction*%
%TA.AperFunction,Conductor*%
G36*
X76143039Y-51657885D02*
G01*
X76188794Y-51710689D01*
X76200000Y-51762200D01*
X76200000Y-53800500D01*
X76180315Y-53867539D01*
X76127511Y-53913294D01*
X76076000Y-53924500D01*
X75909740Y-53924500D01*
X75880150Y-53927274D01*
X75755523Y-53970884D01*
X75649289Y-54049288D01*
X75649288Y-54049289D01*
X75570884Y-54155523D01*
X75570884Y-54155524D01*
X75545189Y-54228955D01*
X75504467Y-54285731D01*
X75439514Y-54311478D01*
X75428148Y-54312000D01*
X72499500Y-54312000D01*
X72432461Y-54292315D01*
X72386706Y-54239511D01*
X72375500Y-54188000D01*
X72375500Y-53884739D01*
X72372725Y-53855150D01*
X72329115Y-53730523D01*
X72250711Y-53624289D01*
X72250710Y-53624288D01*
X72144476Y-53545884D01*
X72019848Y-53502274D01*
X72019849Y-53502274D01*
X71990260Y-53499500D01*
X71990256Y-53499500D01*
X71409744Y-53499500D01*
X71409740Y-53499500D01*
X71380150Y-53502274D01*
X71255523Y-53545884D01*
X71149289Y-53624288D01*
X71149288Y-53624289D01*
X71070884Y-53730523D01*
X71027274Y-53855150D01*
X71024500Y-53884739D01*
X71024500Y-54165500D01*
X71004815Y-54232539D01*
X70952011Y-54278294D01*
X70900500Y-54289500D01*
X70529500Y-54289500D01*
X70462461Y-54269815D01*
X70416706Y-54217011D01*
X70405500Y-54165500D01*
X70405500Y-53570249D01*
X70405499Y-53570247D01*
X70393868Y-53511770D01*
X70393867Y-53511769D01*
X70349552Y-53445447D01*
X70283230Y-53401132D01*
X70283229Y-53401131D01*
X70224752Y-53389500D01*
X70224748Y-53389500D01*
X69675252Y-53389500D01*
X69675247Y-53389500D01*
X69616770Y-53401131D01*
X69616769Y-53401132D01*
X69543891Y-53449828D01*
X69477213Y-53470706D01*
X69409833Y-53452221D01*
X69406109Y-53449828D01*
X69333230Y-53401132D01*
X69333229Y-53401131D01*
X69274752Y-53389500D01*
X69274748Y-53389500D01*
X68725252Y-53389500D01*
X68725247Y-53389500D01*
X68666770Y-53401131D01*
X68666769Y-53401132D01*
X68593891Y-53449828D01*
X68527213Y-53470706D01*
X68459833Y-53452221D01*
X68456109Y-53449828D01*
X68383230Y-53401132D01*
X68349608Y-53394444D01*
X68287697Y-53362059D01*
X68253123Y-53301343D01*
X68249800Y-53272827D01*
X68249800Y-51762200D01*
X68269485Y-51695161D01*
X68322289Y-51649406D01*
X68373800Y-51638200D01*
X76076000Y-51638200D01*
X76143039Y-51657885D01*
G37*
%TD.AperFunction*%
%TD*%
%TA.AperFunction,Conductor*%
%TO.N,HSA*%
G36*
X71288077Y-64281685D02*
G01*
X71308719Y-64298319D01*
X72302881Y-65292481D01*
X72336366Y-65353804D01*
X72339200Y-65380162D01*
X72339200Y-67262200D01*
X72319515Y-67329239D01*
X72266711Y-67374994D01*
X72215200Y-67386200D01*
X69062599Y-67386200D01*
X68870319Y-67578481D01*
X68808996Y-67611966D01*
X68782638Y-67614800D01*
X65354762Y-67614800D01*
X65287723Y-67595115D01*
X65267081Y-67578481D01*
X64592200Y-66903600D01*
X61973000Y-66903600D01*
X61905961Y-66883915D01*
X61860206Y-66831111D01*
X61849000Y-66779600D01*
X61849000Y-64386000D01*
X61868685Y-64318961D01*
X61921489Y-64273206D01*
X61973000Y-64262000D01*
X71221038Y-64262000D01*
X71288077Y-64281685D01*
G37*
%TD.AperFunction*%
%TD*%
%TA.AperFunction,Conductor*%
%TO.N,HSC*%
G36*
X67938839Y-51657885D02*
G01*
X67984594Y-51710689D01*
X67995800Y-51762200D01*
X67995800Y-53265500D01*
X67976115Y-53332539D01*
X67923311Y-53378294D01*
X67871800Y-53389500D01*
X67775247Y-53389500D01*
X67716770Y-53401131D01*
X67716769Y-53401132D01*
X67650447Y-53445447D01*
X67606132Y-53511769D01*
X67606131Y-53511770D01*
X67594500Y-53570247D01*
X67594500Y-54165500D01*
X67574815Y-54232539D01*
X67522011Y-54278294D01*
X67470500Y-54289500D01*
X67099500Y-54289500D01*
X67032461Y-54269815D01*
X66986706Y-54217011D01*
X66975500Y-54165500D01*
X66975500Y-53884739D01*
X66972725Y-53855150D01*
X66936939Y-53752881D01*
X66929116Y-53730525D01*
X66928448Y-53729620D01*
X66850711Y-53624289D01*
X66850710Y-53624288D01*
X66744476Y-53545884D01*
X66619848Y-53502274D01*
X66619849Y-53502274D01*
X66590260Y-53499500D01*
X66590256Y-53499500D01*
X66009744Y-53499500D01*
X66009740Y-53499500D01*
X65980150Y-53502274D01*
X65855523Y-53545884D01*
X65749289Y-53624288D01*
X65749288Y-53624289D01*
X65670884Y-53730523D01*
X65627274Y-53855150D01*
X65624500Y-53884739D01*
X65624500Y-54590261D01*
X65625907Y-54605267D01*
X65624384Y-54613094D01*
X65628421Y-54623127D01*
X65670884Y-54744476D01*
X65749287Y-54850709D01*
X65749288Y-54850709D01*
X65749289Y-54850711D01*
X65773840Y-54868830D01*
X65816090Y-54924477D01*
X65821549Y-54994134D01*
X65788481Y-55055683D01*
X65727387Y-55089584D01*
X65700206Y-55092600D01*
X65506682Y-55092600D01*
X65439643Y-55072915D01*
X65393888Y-55020111D01*
X65383944Y-54950954D01*
X65405647Y-54800000D01*
X65401842Y-54773534D01*
X65388642Y-54681728D01*
X65390734Y-54667175D01*
X65389334Y-54665388D01*
X65388849Y-54665610D01*
X65387928Y-54663593D01*
X65387253Y-54662732D01*
X65386381Y-54660206D01*
X65385165Y-54657543D01*
X65325377Y-54526627D01*
X65231128Y-54417857D01*
X65110053Y-54340047D01*
X65110051Y-54340046D01*
X65110049Y-54340045D01*
X65110050Y-54340045D01*
X64971963Y-54299500D01*
X64971961Y-54299500D01*
X64828039Y-54299500D01*
X64828036Y-54299500D01*
X64689949Y-54340045D01*
X64568873Y-54417856D01*
X64474623Y-54526626D01*
X64474622Y-54526628D01*
X64414834Y-54657543D01*
X64394353Y-54800000D01*
X64414834Y-54942456D01*
X64457298Y-55035438D01*
X64474623Y-55073373D01*
X64568872Y-55182143D01*
X64568875Y-55182144D01*
X64569213Y-55182535D01*
X64598238Y-55246091D01*
X64599500Y-55263738D01*
X64599500Y-55491138D01*
X64579815Y-55558177D01*
X64563181Y-55578819D01*
X64298319Y-55843681D01*
X64236996Y-55877166D01*
X64210638Y-55880000D01*
X61239399Y-55880000D01*
X59881019Y-57238381D01*
X59819696Y-57271866D01*
X59793338Y-57274700D01*
X59126981Y-57274700D01*
X59122025Y-57274601D01*
X57960442Y-57228137D01*
X57894243Y-57205789D01*
X57877717Y-57191917D01*
X57440319Y-56754519D01*
X57406834Y-56693196D01*
X57404000Y-56666838D01*
X57404000Y-54686762D01*
X57423685Y-54619723D01*
X57440319Y-54599081D01*
X58917081Y-53122319D01*
X58978404Y-53088834D01*
X59004762Y-53086000D01*
X64795400Y-53086000D01*
X66206881Y-51674519D01*
X66268204Y-51641034D01*
X66294562Y-51638200D01*
X67871800Y-51638200D01*
X67938839Y-51657885D01*
G37*
%TD.AperFunction*%
%TD*%
%TA.AperFunction,Conductor*%
%TO.N,GNDD*%
G36*
X94895187Y-69732685D02*
G01*
X94940942Y-69785489D01*
X94945189Y-69796045D01*
X94970884Y-69869475D01*
X94970884Y-69869476D01*
X95049288Y-69975710D01*
X95049289Y-69975711D01*
X95155523Y-70054115D01*
X95155524Y-70054115D01*
X95155525Y-70054116D01*
X95280151Y-70097725D01*
X95280150Y-70097725D01*
X95309740Y-70100500D01*
X95309744Y-70100500D01*
X95890260Y-70100500D01*
X95919849Y-70097725D01*
X95934544Y-70092583D01*
X96044475Y-70054116D01*
X96150711Y-69975711D01*
X96229116Y-69869475D01*
X96254811Y-69796045D01*
X96295533Y-69739269D01*
X96360486Y-69713522D01*
X96371852Y-69713000D01*
X96528148Y-69713000D01*
X96595187Y-69732685D01*
X96640942Y-69785489D01*
X96645189Y-69796045D01*
X96670884Y-69869475D01*
X96670884Y-69869476D01*
X96749288Y-69975710D01*
X96749289Y-69975711D01*
X96855523Y-70054115D01*
X96855524Y-70054115D01*
X96855525Y-70054116D01*
X96980151Y-70097725D01*
X96980150Y-70097725D01*
X97009740Y-70100500D01*
X97009744Y-70100500D01*
X97590260Y-70100500D01*
X97619849Y-70097725D01*
X97634544Y-70092583D01*
X97744475Y-70054116D01*
X97850711Y-69975711D01*
X97929116Y-69869475D01*
X97954811Y-69796045D01*
X97995533Y-69739269D01*
X98060486Y-69713522D01*
X98071852Y-69713000D01*
X98228148Y-69713000D01*
X98295187Y-69732685D01*
X98340942Y-69785489D01*
X98345189Y-69796045D01*
X98370884Y-69869475D01*
X98370884Y-69869476D01*
X98449288Y-69975710D01*
X98449289Y-69975711D01*
X98555523Y-70054115D01*
X98555524Y-70054115D01*
X98555525Y-70054116D01*
X98680151Y-70097725D01*
X98680150Y-70097725D01*
X98709740Y-70100500D01*
X98709744Y-70100500D01*
X99290260Y-70100500D01*
X99309984Y-70098650D01*
X99319849Y-70097725D01*
X99334543Y-70092582D01*
X99404322Y-70089020D01*
X99464950Y-70123748D01*
X99497178Y-70185740D01*
X99499500Y-70209624D01*
X99499500Y-76495572D01*
X99499184Y-76504419D01*
X99484869Y-76704557D01*
X99482351Y-76722068D01*
X99440646Y-76913787D01*
X99435662Y-76930763D01*
X99367090Y-77114609D01*
X99359740Y-77130701D01*
X99265711Y-77302904D01*
X99256146Y-77317789D01*
X99138558Y-77474867D01*
X99126972Y-77488237D01*
X98988237Y-77626972D01*
X98974867Y-77638558D01*
X98817789Y-77756146D01*
X98802904Y-77765711D01*
X98630701Y-77859740D01*
X98614609Y-77867090D01*
X98430763Y-77935662D01*
X98413787Y-77940646D01*
X98222068Y-77982351D01*
X98204557Y-77984869D01*
X98023779Y-77997799D01*
X98004417Y-77999184D01*
X97995572Y-77999500D01*
X87143769Y-77999500D01*
X87076730Y-77979815D01*
X87030975Y-77927011D01*
X87019769Y-77875500D01*
X87019769Y-71642196D01*
X87039454Y-71575157D01*
X87092258Y-71529402D01*
X87161416Y-71519458D01*
X87224972Y-71548483D01*
X87231450Y-71554515D01*
X87817395Y-72140460D01*
X87885918Y-72180022D01*
X87962344Y-72200500D01*
X88041468Y-72200500D01*
X88177821Y-72200500D01*
X88244860Y-72220185D01*
X88265502Y-72236819D01*
X89905255Y-73876572D01*
X89938740Y-73937895D01*
X89933756Y-74007587D01*
X89896239Y-74060106D01*
X89733590Y-74193589D01*
X89701947Y-74232147D01*
X89602315Y-74353550D01*
X89563643Y-74425898D01*
X89504769Y-74536043D01*
X89444699Y-74734067D01*
X89424417Y-74940000D01*
X89444699Y-75145932D01*
X89444700Y-75145934D01*
X89504768Y-75343954D01*
X89602315Y-75526450D01*
X89602317Y-75526452D01*
X89733589Y-75686410D01*
X89830209Y-75765702D01*
X89893550Y-75817685D01*
X90076046Y-75915232D01*
X90274066Y-75975300D01*
X90274065Y-75975300D01*
X90292529Y-75977118D01*
X90480000Y-75995583D01*
X90685934Y-75975300D01*
X90883954Y-75915232D01*
X91066450Y-75817685D01*
X91226410Y-75686410D01*
X91357685Y-75526450D01*
X91455232Y-75343954D01*
X91515300Y-75145934D01*
X91535583Y-74940000D01*
X91515300Y-74734066D01*
X91455232Y-74536046D01*
X91357685Y-74353550D01*
X91258053Y-74232147D01*
X91226410Y-74193589D01*
X91066452Y-74062317D01*
X91066453Y-74062317D01*
X91066450Y-74062315D01*
X90944786Y-73997283D01*
X90883953Y-73964767D01*
X90818681Y-73944967D01*
X90760243Y-73906670D01*
X90747289Y-73888305D01*
X90745044Y-73884417D01*
X90720460Y-73841835D01*
X90664511Y-73785886D01*
X90532665Y-73654040D01*
X90499180Y-73592717D01*
X90504164Y-73523025D01*
X90546036Y-73467092D01*
X90608189Y-73442957D01*
X90685934Y-73435300D01*
X90883954Y-73375232D01*
X91066450Y-73277685D01*
X91226410Y-73146410D01*
X91357685Y-72986450D01*
X91357687Y-72986444D01*
X91359891Y-72983760D01*
X91417636Y-72944425D01*
X91487481Y-72942554D01*
X91543426Y-72974743D01*
X92445255Y-73876572D01*
X92478740Y-73937895D01*
X92473756Y-74007587D01*
X92436239Y-74060106D01*
X92273590Y-74193589D01*
X92241947Y-74232147D01*
X92142315Y-74353550D01*
X92103643Y-74425898D01*
X92044769Y-74536043D01*
X91984699Y-74734067D01*
X91964417Y-74940000D01*
X91984699Y-75145932D01*
X91984700Y-75145934D01*
X92044768Y-75343954D01*
X92142315Y-75526450D01*
X92142317Y-75526452D01*
X92273589Y-75686410D01*
X92370209Y-75765702D01*
X92433550Y-75817685D01*
X92616046Y-75915232D01*
X92814066Y-75975300D01*
X92814065Y-75975300D01*
X92832529Y-75977118D01*
X93020000Y-75995583D01*
X93225934Y-75975300D01*
X93423954Y-75915232D01*
X93606450Y-75817685D01*
X93766410Y-75686410D01*
X93897685Y-75526450D01*
X93995232Y-75343954D01*
X94055300Y-75145934D01*
X94075583Y-74940000D01*
X94055300Y-74734066D01*
X93995232Y-74536046D01*
X93897685Y-74353550D01*
X93848129Y-74293165D01*
X93820816Y-74228855D01*
X93832607Y-74159987D01*
X93879760Y-74108427D01*
X93943982Y-74090500D01*
X94574070Y-74090500D01*
X94641109Y-74110185D01*
X94686864Y-74162989D01*
X94696808Y-74232147D01*
X94673024Y-74289227D01*
X94620754Y-74358443D01*
X94529890Y-74540921D01*
X94529885Y-74540934D01*
X94487471Y-74689999D01*
X94487472Y-74690000D01*
X95126988Y-74690000D01*
X95094075Y-74747007D01*
X95060000Y-74874174D01*
X95060000Y-75005826D01*
X95094075Y-75132993D01*
X95126988Y-75190000D01*
X94487472Y-75190000D01*
X94529885Y-75339065D01*
X94529890Y-75339078D01*
X94620754Y-75521556D01*
X94743608Y-75684242D01*
X94894260Y-75821578D01*
X95067584Y-75928897D01*
X95257678Y-76002539D01*
X95310000Y-76012320D01*
X95310000Y-75373012D01*
X95367007Y-75405925D01*
X95494174Y-75440000D01*
X95625826Y-75440000D01*
X95752993Y-75405925D01*
X95810000Y-75373012D01*
X95810000Y-76012320D01*
X95862321Y-76002539D01*
X96052415Y-75928897D01*
X96225739Y-75821578D01*
X96376391Y-75684242D01*
X96499245Y-75521556D01*
X96590109Y-75339078D01*
X96590114Y-75339065D01*
X96632528Y-75190000D01*
X95993012Y-75190000D01*
X96025925Y-75132993D01*
X96060000Y-75005826D01*
X96060000Y-74874174D01*
X96025925Y-74747007D01*
X95993012Y-74690000D01*
X96632528Y-74690000D01*
X96632528Y-74689999D01*
X96590114Y-74540934D01*
X96590109Y-74540921D01*
X96499245Y-74358443D01*
X96446976Y-74289227D01*
X96422284Y-74223865D01*
X96436849Y-74155531D01*
X96486047Y-74105918D01*
X96545930Y-74090500D01*
X96774167Y-74090500D01*
X96841206Y-74110185D01*
X96861848Y-74126819D01*
X97110701Y-74375672D01*
X97144186Y-74436995D01*
X97139202Y-74506687D01*
X97132381Y-74521800D01*
X97124770Y-74536039D01*
X97064699Y-74734067D01*
X97044417Y-74940000D01*
X97064699Y-75145932D01*
X97064700Y-75145934D01*
X97124768Y-75343954D01*
X97222315Y-75526450D01*
X97222317Y-75526452D01*
X97353589Y-75686410D01*
X97450209Y-75765702D01*
X97513550Y-75817685D01*
X97696046Y-75915232D01*
X97894066Y-75975300D01*
X97894065Y-75975300D01*
X97912529Y-75977118D01*
X98100000Y-75995583D01*
X98305934Y-75975300D01*
X98503954Y-75915232D01*
X98686450Y-75817685D01*
X98846410Y-75686410D01*
X98977685Y-75526450D01*
X99075232Y-75343954D01*
X99135300Y-75145934D01*
X99155583Y-74940000D01*
X99135300Y-74734066D01*
X99075232Y-74536046D01*
X98977685Y-74353550D01*
X98878053Y-74232147D01*
X98846410Y-74193589D01*
X98686452Y-74062317D01*
X98686453Y-74062317D01*
X98686450Y-74062315D01*
X98503954Y-73964768D01*
X98305934Y-73904700D01*
X98305932Y-73904699D01*
X98305934Y-73904699D01*
X98100000Y-73884417D01*
X97894067Y-73904699D01*
X97696039Y-73964770D01*
X97681800Y-73972381D01*
X97613397Y-73986620D01*
X97548154Y-73961616D01*
X97535672Y-73950701D01*
X97247152Y-73662181D01*
X97213667Y-73600858D01*
X97218651Y-73531166D01*
X97260523Y-73475233D01*
X97325987Y-73450816D01*
X97334833Y-73450500D01*
X98969750Y-73450500D01*
X98969751Y-73450499D01*
X98984568Y-73447552D01*
X99028229Y-73438868D01*
X99028229Y-73438867D01*
X99028231Y-73438867D01*
X99094552Y-73394552D01*
X99138867Y-73328231D01*
X99138867Y-73328229D01*
X99138868Y-73328229D01*
X99150499Y-73269752D01*
X99150500Y-73269750D01*
X99150500Y-71530249D01*
X99150499Y-71530247D01*
X99138868Y-71471770D01*
X99138867Y-71471769D01*
X99094552Y-71405447D01*
X99028230Y-71361132D01*
X99028229Y-71361131D01*
X98969752Y-71349500D01*
X98969748Y-71349500D01*
X97230252Y-71349500D01*
X97230247Y-71349500D01*
X97171770Y-71361131D01*
X97171769Y-71361132D01*
X97105447Y-71405447D01*
X97061132Y-71471769D01*
X97061131Y-71471770D01*
X97049500Y-71530247D01*
X97049500Y-73269752D01*
X97063515Y-73340210D01*
X97059386Y-73341031D01*
X97064379Y-73387538D01*
X97033093Y-73450011D01*
X96972998Y-73485653D01*
X96942353Y-73489500D01*
X96234910Y-73489500D01*
X96167871Y-73469815D01*
X96122116Y-73417011D01*
X96112172Y-73347853D01*
X96141197Y-73284297D01*
X96156246Y-73269646D01*
X96306410Y-73146410D01*
X96437685Y-72986450D01*
X96535232Y-72803954D01*
X96595300Y-72605934D01*
X96615583Y-72400000D01*
X96595300Y-72194066D01*
X96535232Y-71996046D01*
X96437685Y-71813550D01*
X96376619Y-71739140D01*
X96306410Y-71653589D01*
X96156121Y-71530252D01*
X96146450Y-71522315D01*
X95963954Y-71424768D01*
X95765934Y-71364700D01*
X95765932Y-71364699D01*
X95765934Y-71364699D01*
X95560000Y-71344417D01*
X95354067Y-71364699D01*
X95156043Y-71424769D01*
X95054577Y-71479005D01*
X94973550Y-71522315D01*
X94973548Y-71522316D01*
X94973547Y-71522317D01*
X94813589Y-71653589D01*
X94682317Y-71813547D01*
X94682315Y-71813550D01*
X94650544Y-71872989D01*
X94584769Y-71996043D01*
X94524699Y-72194067D01*
X94504417Y-72400000D01*
X94524699Y-72605932D01*
X94524700Y-72605934D01*
X94584768Y-72803954D01*
X94682315Y-72986450D01*
X94682317Y-72986452D01*
X94813589Y-73146410D01*
X94963754Y-73269646D01*
X95003089Y-73327392D01*
X95004960Y-73397237D01*
X94968773Y-73457005D01*
X94906017Y-73487721D01*
X94885090Y-73489500D01*
X93694910Y-73489500D01*
X93627871Y-73469815D01*
X93582116Y-73417011D01*
X93572172Y-73347853D01*
X93601197Y-73284297D01*
X93616246Y-73269646D01*
X93766410Y-73146410D01*
X93897685Y-72986450D01*
X93995232Y-72803954D01*
X94055300Y-72605934D01*
X94075583Y-72400000D01*
X94055300Y-72194066D01*
X93995232Y-71996046D01*
X93897685Y-71813550D01*
X93836619Y-71739140D01*
X93766410Y-71653589D01*
X93616121Y-71530252D01*
X93606450Y-71522315D01*
X93423954Y-71424768D01*
X93225934Y-71364700D01*
X93225932Y-71364699D01*
X93225934Y-71364699D01*
X93020000Y-71344417D01*
X92814067Y-71364699D01*
X92616043Y-71424769D01*
X92514577Y-71479005D01*
X92433550Y-71522315D01*
X92433548Y-71522316D01*
X92433547Y-71522317D01*
X92273589Y-71653589D01*
X92142316Y-71813547D01*
X92136401Y-71824614D01*
X92087436Y-71874456D01*
X92019298Y-71889914D01*
X91953619Y-71866079D01*
X91912485Y-71813612D01*
X91910023Y-71807670D01*
X91910022Y-71807666D01*
X91870460Y-71739143D01*
X91107617Y-70976300D01*
X91074132Y-70914977D01*
X91079116Y-70845285D01*
X91095528Y-70814986D01*
X91129115Y-70769476D01*
X91129114Y-70769476D01*
X91129116Y-70769475D01*
X91172725Y-70644849D01*
X91175500Y-70615256D01*
X91175500Y-70609146D01*
X91475000Y-70609146D01*
X91481241Y-70667187D01*
X91530232Y-70798537D01*
X91614241Y-70910758D01*
X91726462Y-70994767D01*
X91857812Y-71043758D01*
X91915853Y-71049999D01*
X91915870Y-71050000D01*
X91950000Y-71050000D01*
X92450000Y-71050000D01*
X92484130Y-71050000D01*
X92484146Y-71049999D01*
X92542187Y-71043758D01*
X92673537Y-70994767D01*
X92785758Y-70910758D01*
X92869767Y-70798537D01*
X92918758Y-70667187D01*
X92924999Y-70609146D01*
X92925000Y-70609129D01*
X92925000Y-70562500D01*
X92450000Y-70562500D01*
X92450000Y-71050000D01*
X91950000Y-71050000D01*
X91950000Y-70562500D01*
X91475000Y-70562500D01*
X91475000Y-70609146D01*
X91175500Y-70609146D01*
X91175500Y-70063333D01*
X91195185Y-69996294D01*
X91211818Y-69975653D01*
X91234896Y-69952575D01*
X91263360Y-69924110D01*
X91324681Y-69890626D01*
X91394372Y-69895610D01*
X91450306Y-69937481D01*
X91474724Y-70002945D01*
X91474813Y-70012549D01*
X91475000Y-70012549D01*
X91475000Y-70062500D01*
X92925000Y-70062500D01*
X92925000Y-70019614D01*
X92944685Y-69952575D01*
X92997489Y-69906820D01*
X93014066Y-69900637D01*
X93110050Y-69872454D01*
X93110050Y-69872453D01*
X93110053Y-69872453D01*
X93122846Y-69864231D01*
X93189883Y-69844545D01*
X93256923Y-69864227D01*
X93289657Y-69894912D01*
X93349288Y-69975710D01*
X93349289Y-69975711D01*
X93455523Y-70054115D01*
X93455524Y-70054115D01*
X93455525Y-70054116D01*
X93580151Y-70097725D01*
X93580150Y-70097725D01*
X93609740Y-70100500D01*
X93609744Y-70100500D01*
X94190260Y-70100500D01*
X94219849Y-70097725D01*
X94234544Y-70092583D01*
X94344475Y-70054116D01*
X94450711Y-69975711D01*
X94529116Y-69869475D01*
X94554811Y-69796045D01*
X94595533Y-69739269D01*
X94660486Y-69713522D01*
X94671852Y-69713000D01*
X94828148Y-69713000D01*
X94895187Y-69732685D01*
G37*
%TD.AperFunction*%
%TA.AperFunction,Conductor*%
G36*
X50705703Y-56638876D02*
G01*
X50731885Y-56670587D01*
X50732685Y-56671971D01*
X50767467Y-56732216D01*
X50894129Y-56872888D01*
X51047265Y-56984148D01*
X51047270Y-56984151D01*
X51220192Y-57061142D01*
X51220197Y-57061144D01*
X51405354Y-57100500D01*
X51405355Y-57100500D01*
X51594644Y-57100500D01*
X51594646Y-57100500D01*
X51779803Y-57061144D01*
X51952730Y-56984151D01*
X52105871Y-56872888D01*
X52105873Y-56872884D01*
X52106014Y-56872783D01*
X52171821Y-56849303D01*
X52239875Y-56865128D01*
X52288570Y-56915234D01*
X52302900Y-56973101D01*
X52302900Y-66780462D01*
X52323379Y-66856889D01*
X52353227Y-66908587D01*
X52353227Y-66908588D01*
X52362938Y-66925408D01*
X52362943Y-66925415D01*
X54300848Y-68863319D01*
X54334333Y-68924642D01*
X54329349Y-68994334D01*
X54287477Y-69050267D01*
X54222013Y-69074684D01*
X54213167Y-69075000D01*
X54187500Y-69075000D01*
X54187500Y-70525000D01*
X54284130Y-70525000D01*
X54284146Y-70524999D01*
X54342187Y-70518758D01*
X54473537Y-70469767D01*
X54585758Y-70385758D01*
X54669767Y-70273536D01*
X54669767Y-70273535D01*
X54710473Y-70164401D01*
X54752345Y-70108467D01*
X54817809Y-70084050D01*
X54886082Y-70098902D01*
X54935487Y-70148307D01*
X54943696Y-70166778D01*
X54970884Y-70244476D01*
X55049288Y-70350710D01*
X55049289Y-70350711D01*
X55155523Y-70429115D01*
X55155524Y-70429115D01*
X55155525Y-70429116D01*
X55280151Y-70472725D01*
X55280150Y-70472725D01*
X55309740Y-70475500D01*
X55309744Y-70475500D01*
X56015260Y-70475500D01*
X56044849Y-70472725D01*
X56053302Y-70469767D01*
X56169475Y-70429116D01*
X56275711Y-70350711D01*
X56354116Y-70244475D01*
X56367905Y-70205070D01*
X56375437Y-70183545D01*
X56416159Y-70126769D01*
X56481112Y-70101022D01*
X56492478Y-70100500D01*
X57107522Y-70100500D01*
X57174561Y-70120185D01*
X57220316Y-70172989D01*
X57224563Y-70183545D01*
X57245883Y-70244475D01*
X57245884Y-70244476D01*
X57324288Y-70350710D01*
X57324289Y-70350711D01*
X57430523Y-70429115D01*
X57430524Y-70429115D01*
X57430525Y-70429116D01*
X57555151Y-70472725D01*
X57555150Y-70472725D01*
X57584740Y-70475500D01*
X57584744Y-70475500D01*
X58190260Y-70475500D01*
X58219849Y-70472725D01*
X58228302Y-70469767D01*
X58344475Y-70429116D01*
X58450711Y-70350711D01*
X58529116Y-70244475D01*
X58572725Y-70119849D01*
X58574454Y-70101416D01*
X58575500Y-70090260D01*
X58575500Y-69509739D01*
X58572725Y-69480150D01*
X58529115Y-69355523D01*
X58450711Y-69249289D01*
X58450710Y-69249288D01*
X58344476Y-69170884D01*
X58219848Y-69127274D01*
X58219849Y-69127274D01*
X58190260Y-69124500D01*
X58190256Y-69124500D01*
X57584744Y-69124500D01*
X57584740Y-69124500D01*
X57555150Y-69127274D01*
X57430523Y-69170884D01*
X57324289Y-69249288D01*
X57324288Y-69249289D01*
X57245884Y-69355523D01*
X57245883Y-69355524D01*
X57224563Y-69416455D01*
X57183841Y-69473231D01*
X57118888Y-69498978D01*
X57107522Y-69499500D01*
X56492478Y-69499500D01*
X56425439Y-69479815D01*
X56379684Y-69427011D01*
X56375437Y-69416455D01*
X56354116Y-69355524D01*
X56354115Y-69355523D01*
X56275711Y-69249289D01*
X56275710Y-69249288D01*
X56169476Y-69170884D01*
X56044848Y-69127274D01*
X56044849Y-69127274D01*
X56015260Y-69124500D01*
X56015256Y-69124500D01*
X55463333Y-69124500D01*
X55396294Y-69104815D01*
X55375652Y-69088181D01*
X55358552Y-69071081D01*
X55325067Y-69009758D01*
X55330051Y-68940066D01*
X55371923Y-68884133D01*
X55437387Y-68859716D01*
X55446233Y-68859400D01*
X58165369Y-68859400D01*
X59287821Y-67736947D01*
X59349142Y-67703464D01*
X59418834Y-67708448D01*
X59474767Y-67750320D01*
X59499184Y-67815784D01*
X59499500Y-67824630D01*
X59499500Y-68190260D01*
X59502274Y-68219849D01*
X59545884Y-68344476D01*
X59624288Y-68450710D01*
X59624289Y-68450711D01*
X59681693Y-68493077D01*
X59723944Y-68548724D01*
X59729403Y-68618380D01*
X59720857Y-68644352D01*
X59714837Y-68657535D01*
X59714834Y-68657543D01*
X59694353Y-68800000D01*
X59714834Y-68942457D01*
X59714835Y-68942458D01*
X59717817Y-68948987D01*
X59727762Y-69018145D01*
X59698738Y-69081701D01*
X59639961Y-69119477D01*
X59605024Y-69124500D01*
X59409740Y-69124500D01*
X59380150Y-69127274D01*
X59255523Y-69170884D01*
X59149289Y-69249288D01*
X59149288Y-69249289D01*
X59070884Y-69355523D01*
X59027274Y-69480150D01*
X59024500Y-69509739D01*
X59024500Y-70090260D01*
X59027274Y-70119849D01*
X59070884Y-70244476D01*
X59149288Y-70350710D01*
X59149289Y-70350711D01*
X59255523Y-70429115D01*
X59255524Y-70429115D01*
X59255525Y-70429116D01*
X59380151Y-70472725D01*
X59380150Y-70472725D01*
X59409740Y-70475500D01*
X59409744Y-70475500D01*
X60015260Y-70475500D01*
X60044849Y-70472725D01*
X60053302Y-70469767D01*
X60169475Y-70429116D01*
X60275711Y-70350711D01*
X60354116Y-70244475D01*
X60367905Y-70205070D01*
X60375437Y-70183545D01*
X60416159Y-70126769D01*
X60481112Y-70101022D01*
X60492478Y-70100500D01*
X62241499Y-70100500D01*
X62308538Y-70120185D01*
X62335211Y-70143296D01*
X62368872Y-70182143D01*
X62489947Y-70259953D01*
X62489950Y-70259954D01*
X62489949Y-70259954D01*
X62628036Y-70300499D01*
X62628038Y-70300500D01*
X62628039Y-70300500D01*
X62771962Y-70300500D01*
X62771962Y-70300499D01*
X62910053Y-70259953D01*
X63031128Y-70182143D01*
X63125377Y-70073373D01*
X63185165Y-69942457D01*
X63205647Y-69800000D01*
X63185165Y-69657543D01*
X63125377Y-69526627D01*
X63031128Y-69417857D01*
X62910053Y-69340047D01*
X62910051Y-69340046D01*
X62910049Y-69340045D01*
X62910050Y-69340045D01*
X62771963Y-69299500D01*
X62771961Y-69299500D01*
X62628039Y-69299500D01*
X62628036Y-69299500D01*
X62489949Y-69340045D01*
X62368873Y-69417856D01*
X62335212Y-69456703D01*
X62276433Y-69494477D01*
X62241499Y-69499500D01*
X60492478Y-69499500D01*
X60425439Y-69479815D01*
X60379684Y-69427011D01*
X60375437Y-69416457D01*
X60369402Y-69399211D01*
X60365840Y-69329435D01*
X60400568Y-69268807D01*
X60419397Y-69253947D01*
X60531128Y-69182143D01*
X60625377Y-69073373D01*
X60685165Y-68942457D01*
X60705647Y-68800000D01*
X60685165Y-68657543D01*
X60685163Y-68657540D01*
X60684623Y-68653779D01*
X60694566Y-68584621D01*
X60737404Y-68535183D01*
X60736999Y-68534634D01*
X60739443Y-68532830D01*
X60740321Y-68531817D01*
X60742693Y-68530431D01*
X60747190Y-68527112D01*
X60850711Y-68450711D01*
X60929116Y-68344475D01*
X60956303Y-68266777D01*
X60997024Y-68210003D01*
X61061977Y-68184256D01*
X61130538Y-68197712D01*
X61180941Y-68246099D01*
X61189525Y-68264400D01*
X61230229Y-68373531D01*
X61230232Y-68373536D01*
X61314241Y-68485758D01*
X61426462Y-68569767D01*
X61557812Y-68618758D01*
X61615853Y-68624999D01*
X61615870Y-68625000D01*
X61712500Y-68625000D01*
X62212500Y-68625000D01*
X62309130Y-68625000D01*
X62309146Y-68624999D01*
X62367187Y-68618758D01*
X62498537Y-68569767D01*
X62610758Y-68485758D01*
X62694767Y-68373537D01*
X62743758Y-68242187D01*
X62749999Y-68184146D01*
X62750000Y-68184129D01*
X62750000Y-68150000D01*
X62212500Y-68150000D01*
X62212500Y-68625000D01*
X61712500Y-68625000D01*
X61712500Y-67774000D01*
X61732185Y-67706961D01*
X61784989Y-67661206D01*
X61836500Y-67650000D01*
X62750000Y-67650000D01*
X62750000Y-67615870D01*
X62749999Y-67615853D01*
X62743758Y-67557812D01*
X62694767Y-67426462D01*
X62641952Y-67355911D01*
X62617535Y-67290447D01*
X62632386Y-67222174D01*
X62681792Y-67172768D01*
X62741219Y-67157600D01*
X64439238Y-67157600D01*
X64506277Y-67177285D01*
X64526919Y-67193919D01*
X65038481Y-67705481D01*
X65071966Y-67766804D01*
X65074800Y-67793162D01*
X65074800Y-67969838D01*
X65055115Y-68036877D01*
X65038481Y-68057519D01*
X63931800Y-69164199D01*
X63931800Y-70894400D01*
X63912115Y-70961439D01*
X63859311Y-71007194D01*
X63807800Y-71018400D01*
X50624500Y-71018400D01*
X50557461Y-70998715D01*
X50511706Y-70945911D01*
X50500500Y-70894400D01*
X50500500Y-69732589D01*
X50520185Y-69665550D01*
X50572989Y-69619795D01*
X50642147Y-69609851D01*
X50705703Y-69638876D01*
X50731885Y-69670587D01*
X50746302Y-69695557D01*
X50767467Y-69732216D01*
X50894129Y-69872888D01*
X51047265Y-69984148D01*
X51047270Y-69984151D01*
X51220192Y-70061142D01*
X51220197Y-70061144D01*
X51405354Y-70100500D01*
X51405355Y-70100500D01*
X51594644Y-70100500D01*
X51594646Y-70100500D01*
X51671586Y-70084146D01*
X53150000Y-70084146D01*
X53156241Y-70142187D01*
X53205232Y-70273537D01*
X53289241Y-70385758D01*
X53401462Y-70469767D01*
X53532812Y-70518758D01*
X53590853Y-70524999D01*
X53590870Y-70525000D01*
X53687500Y-70525000D01*
X53687500Y-70050000D01*
X53150000Y-70050000D01*
X53150000Y-70084146D01*
X51671586Y-70084146D01*
X51779803Y-70061144D01*
X51952730Y-69984151D01*
X52105871Y-69872888D01*
X52232533Y-69732216D01*
X52327179Y-69568284D01*
X52344215Y-69515853D01*
X53150000Y-69515853D01*
X53150000Y-69550000D01*
X53687500Y-69550000D01*
X53687500Y-69075000D01*
X53590853Y-69075000D01*
X53532812Y-69081241D01*
X53401462Y-69130232D01*
X53289241Y-69214241D01*
X53205232Y-69326462D01*
X53156241Y-69457812D01*
X53150000Y-69515853D01*
X52344215Y-69515853D01*
X52385674Y-69388256D01*
X52405460Y-69200000D01*
X52385674Y-69011744D01*
X52327179Y-68831716D01*
X52232533Y-68667784D01*
X52105871Y-68527112D01*
X52059026Y-68493077D01*
X51952734Y-68415851D01*
X51952729Y-68415848D01*
X51779807Y-68338857D01*
X51779802Y-68338855D01*
X51634001Y-68307865D01*
X51594646Y-68299500D01*
X51405354Y-68299500D01*
X51372897Y-68306398D01*
X51220197Y-68338855D01*
X51220192Y-68338857D01*
X51047270Y-68415848D01*
X51047265Y-68415851D01*
X50894129Y-68527111D01*
X50767466Y-68667785D01*
X50731887Y-68729410D01*
X50681320Y-68777626D01*
X50612713Y-68790849D01*
X50547848Y-68764881D01*
X50507320Y-68707967D01*
X50500500Y-68667410D01*
X50500500Y-56732589D01*
X50520185Y-56665550D01*
X50572989Y-56619795D01*
X50642147Y-56609851D01*
X50705703Y-56638876D01*
G37*
%TD.AperFunction*%
%TA.AperFunction,Conductor*%
G36*
X89794212Y-64221066D02*
G01*
X89823238Y-64284621D01*
X89824500Y-64302269D01*
X89824500Y-64790260D01*
X89827274Y-64819849D01*
X89870884Y-64944476D01*
X89949288Y-65050710D01*
X89949289Y-65050711D01*
X90055523Y-65129115D01*
X90055524Y-65129115D01*
X90055525Y-65129116D01*
X90180151Y-65172725D01*
X90180150Y-65172725D01*
X90209740Y-65175500D01*
X90209744Y-65175500D01*
X90711667Y-65175500D01*
X90778706Y-65195185D01*
X90799348Y-65211819D01*
X90961040Y-65373511D01*
X90994525Y-65434834D01*
X90989541Y-65504526D01*
X90947669Y-65560459D01*
X90882205Y-65584876D01*
X90844849Y-65581870D01*
X90842189Y-65581241D01*
X90784146Y-65575000D01*
X90750000Y-65575000D01*
X90750000Y-66062500D01*
X91225000Y-66062500D01*
X91225000Y-66015870D01*
X91224999Y-66015853D01*
X91218758Y-65957812D01*
X91169767Y-65826462D01*
X91085757Y-65714239D01*
X91065000Y-65698701D01*
X91023128Y-65642768D01*
X91018144Y-65573076D01*
X91051629Y-65511753D01*
X91112952Y-65478268D01*
X91139810Y-65477152D01*
X91139810Y-65475500D01*
X91147938Y-65475500D01*
X91227062Y-65475500D01*
X92141499Y-65475500D01*
X92208538Y-65495185D01*
X92235211Y-65518296D01*
X92268872Y-65557143D01*
X92389947Y-65634953D01*
X92389950Y-65634954D01*
X92389949Y-65634954D01*
X92528036Y-65675499D01*
X92528038Y-65675500D01*
X92570967Y-65675500D01*
X92638006Y-65695185D01*
X92683761Y-65747989D01*
X92693705Y-65817147D01*
X92664680Y-65880703D01*
X92658648Y-65887181D01*
X91317648Y-67228181D01*
X91256325Y-67261666D01*
X91229967Y-67264500D01*
X90937643Y-67264500D01*
X90870604Y-67244815D01*
X90824849Y-67192011D01*
X90814905Y-67122853D01*
X90843930Y-67059297D01*
X90894309Y-67024318D01*
X90973537Y-66994767D01*
X91085758Y-66910758D01*
X91169767Y-66798537D01*
X91218758Y-66667187D01*
X91224999Y-66609146D01*
X91225000Y-66609129D01*
X91225000Y-66562500D01*
X89775000Y-66562500D01*
X89775000Y-66609146D01*
X89781241Y-66667187D01*
X89830232Y-66798537D01*
X89906745Y-66900744D01*
X89931162Y-66966208D01*
X89916311Y-67034481D01*
X89866906Y-67083887D01*
X89798633Y-67098739D01*
X89772544Y-67094033D01*
X89709579Y-67075545D01*
X89671961Y-67064500D01*
X89528039Y-67064500D01*
X89528036Y-67064500D01*
X89389949Y-67105045D01*
X89268873Y-67182856D01*
X89174623Y-67291626D01*
X89174622Y-67291628D01*
X89114834Y-67422543D01*
X89094353Y-67565000D01*
X89095661Y-67574101D01*
X89085714Y-67643259D01*
X89060604Y-67679422D01*
X88976848Y-67763180D01*
X88915526Y-67796666D01*
X88889166Y-67799500D01*
X88509740Y-67799500D01*
X88480150Y-67802274D01*
X88355523Y-67845884D01*
X88249289Y-67924288D01*
X88249288Y-67924289D01*
X88170884Y-68030523D01*
X88127274Y-68155150D01*
X88124500Y-68184739D01*
X88124500Y-68790260D01*
X88127274Y-68819849D01*
X88170884Y-68944476D01*
X88249288Y-69050710D01*
X88249289Y-69050711D01*
X88355523Y-69129115D01*
X88355524Y-69129115D01*
X88355525Y-69129116D01*
X88480151Y-69172725D01*
X88480150Y-69172725D01*
X88509740Y-69175500D01*
X88509744Y-69175500D01*
X89090260Y-69175500D01*
X89119849Y-69172725D01*
X89125110Y-69170884D01*
X89244475Y-69129116D01*
X89350711Y-69050711D01*
X89429116Y-68944475D01*
X89472725Y-68819849D01*
X89473509Y-68811493D01*
X89475500Y-68790260D01*
X89475500Y-68189500D01*
X89495185Y-68122461D01*
X89547989Y-68076706D01*
X89599500Y-68065500D01*
X89651000Y-68065500D01*
X89718039Y-68085185D01*
X89763794Y-68137989D01*
X89775000Y-68189500D01*
X89775000Y-68287500D01*
X91225000Y-68287500D01*
X91225000Y-68190870D01*
X91224999Y-68190853D01*
X91218758Y-68132812D01*
X91181468Y-68032834D01*
X91176484Y-67963142D01*
X91209968Y-67901819D01*
X91271291Y-67868334D01*
X91297650Y-67865500D01*
X91453490Y-67865500D01*
X91453490Y-67869017D01*
X91506457Y-67877143D01*
X91558827Y-67923393D01*
X91577879Y-67990615D01*
X91570926Y-68030402D01*
X91527275Y-68155148D01*
X91527274Y-68155150D01*
X91524500Y-68184739D01*
X91524500Y-68790260D01*
X91527274Y-68819849D01*
X91527274Y-68819851D01*
X91571783Y-68947045D01*
X91575346Y-69016823D01*
X91540617Y-69077451D01*
X91478624Y-69109678D01*
X91454742Y-69112000D01*
X91334016Y-69112000D01*
X91266977Y-69092315D01*
X91221222Y-69039511D01*
X91211278Y-68970353D01*
X91217834Y-68944666D01*
X91218758Y-68942187D01*
X91224999Y-68884146D01*
X91225000Y-68884129D01*
X91225000Y-68787500D01*
X89775000Y-68787500D01*
X89775000Y-68884146D01*
X89781241Y-68942187D01*
X89830232Y-69073537D01*
X89914241Y-69185758D01*
X90026462Y-69269767D01*
X90135599Y-69310473D01*
X90191532Y-69352345D01*
X90215949Y-69417809D01*
X90201097Y-69486082D01*
X90151692Y-69535487D01*
X90133221Y-69543696D01*
X90055523Y-69570884D01*
X89949289Y-69649288D01*
X89949288Y-69649289D01*
X89870884Y-69755523D01*
X89827274Y-69880150D01*
X89824500Y-69909739D01*
X89824500Y-70615260D01*
X89827274Y-70644849D01*
X89828190Y-70649041D01*
X89827965Y-70652217D01*
X89827979Y-70652362D01*
X89827955Y-70652364D01*
X89823264Y-70718737D01*
X89781439Y-70774705D01*
X89715995Y-70799177D01*
X89707046Y-70799500D01*
X89642579Y-70799500D01*
X89575540Y-70779815D01*
X89529785Y-70727011D01*
X89519290Y-70662244D01*
X89524999Y-70609146D01*
X89525000Y-70609129D01*
X89525000Y-70562500D01*
X88674000Y-70562500D01*
X88606961Y-70542815D01*
X88561206Y-70490011D01*
X88550000Y-70438500D01*
X88550000Y-70062500D01*
X89050000Y-70062500D01*
X89525000Y-70062500D01*
X89525000Y-70015870D01*
X89524999Y-70015853D01*
X89518758Y-69957812D01*
X89469767Y-69826462D01*
X89385758Y-69714241D01*
X89273537Y-69630232D01*
X89142187Y-69581241D01*
X89084146Y-69575000D01*
X89050000Y-69575000D01*
X89050000Y-70062500D01*
X88550000Y-70062500D01*
X88550000Y-69575000D01*
X88515853Y-69575000D01*
X88457812Y-69581241D01*
X88326462Y-69630232D01*
X88214241Y-69714241D01*
X88130232Y-69826462D01*
X88081241Y-69957812D01*
X88075000Y-70015853D01*
X88075000Y-70117389D01*
X88055315Y-70184428D01*
X88002511Y-70230183D01*
X87933353Y-70240127D01*
X87869797Y-70211102D01*
X87863319Y-70205070D01*
X86563419Y-68905170D01*
X86529934Y-68843847D01*
X86527100Y-68817489D01*
X86527100Y-66015853D01*
X89775000Y-66015853D01*
X89775000Y-66062500D01*
X90250000Y-66062500D01*
X90250000Y-65575000D01*
X90215853Y-65575000D01*
X90157812Y-65581241D01*
X90026462Y-65630232D01*
X89914241Y-65714241D01*
X89830232Y-65826462D01*
X89781241Y-65957812D01*
X89775000Y-66015853D01*
X86527100Y-66015853D01*
X86527100Y-64883939D01*
X86546785Y-64816900D01*
X86599589Y-64771145D01*
X86668747Y-64761201D01*
X86692045Y-64766895D01*
X86780151Y-64797725D01*
X86786069Y-64798280D01*
X86809740Y-64800500D01*
X86809744Y-64800500D01*
X87390260Y-64800500D01*
X87419849Y-64797725D01*
X87433761Y-64792857D01*
X87544475Y-64754116D01*
X87650711Y-64675711D01*
X87729116Y-64569475D01*
X87757850Y-64487356D01*
X87772307Y-64446045D01*
X87813029Y-64389269D01*
X87877982Y-64363522D01*
X87889348Y-64363000D01*
X88010652Y-64363000D01*
X88077691Y-64382685D01*
X88123446Y-64435489D01*
X88127693Y-64446045D01*
X88170884Y-64569475D01*
X88170884Y-64569476D01*
X88249288Y-64675710D01*
X88249289Y-64675711D01*
X88355523Y-64754115D01*
X88355524Y-64754115D01*
X88355525Y-64754116D01*
X88480151Y-64797725D01*
X88480150Y-64797725D01*
X88509740Y-64800500D01*
X88509744Y-64800500D01*
X89090260Y-64800500D01*
X89119849Y-64797725D01*
X89133761Y-64792857D01*
X89244475Y-64754116D01*
X89350711Y-64675711D01*
X89429116Y-64569475D01*
X89472725Y-64444849D01*
X89475500Y-64415256D01*
X89475500Y-64324500D01*
X89495185Y-64257461D01*
X89547989Y-64211706D01*
X89599500Y-64200500D01*
X89606961Y-64200500D01*
X89665567Y-64183292D01*
X89735434Y-64183292D01*
X89794212Y-64221066D01*
G37*
%TD.AperFunction*%
%TA.AperFunction,Conductor*%
G36*
X95779723Y-51374185D02*
G01*
X95825478Y-51426989D01*
X95835422Y-51496147D01*
X95806397Y-51559703D01*
X95800365Y-51566181D01*
X95732369Y-51634176D01*
X95732366Y-51634180D01*
X95695723Y-51679651D01*
X95695718Y-51679658D01*
X95637489Y-51807162D01*
X95637487Y-51807169D01*
X95620438Y-51925750D01*
X95591413Y-51989305D01*
X95532634Y-52027079D01*
X95462765Y-52027079D01*
X95410019Y-51995783D01*
X95396177Y-51981941D01*
X95396172Y-51981937D01*
X95373071Y-51968600D01*
X95358933Y-51960438D01*
X95358932Y-51960437D01*
X95327659Y-51942381D01*
X95327656Y-51942379D01*
X95289440Y-51932139D01*
X95251227Y-51921900D01*
X95251225Y-51921900D01*
X94821813Y-51921900D01*
X94754774Y-51902215D01*
X94734132Y-51885581D01*
X94729024Y-51880473D01*
X94710397Y-51866179D01*
X94691086Y-51851360D01*
X94691084Y-51851359D01*
X94691086Y-51851359D01*
X94583220Y-51812100D01*
X94468431Y-51812100D01*
X94468430Y-51812100D01*
X94360566Y-51851359D01*
X94322624Y-51880472D01*
X94322622Y-51880474D01*
X93384815Y-52818284D01*
X93384809Y-52818290D01*
X93355703Y-52856220D01*
X93355699Y-52856228D01*
X93342923Y-52891330D01*
X93301496Y-52947593D01*
X93236227Y-52972528D01*
X93167839Y-52958217D01*
X93118044Y-52909205D01*
X93109121Y-52889181D01*
X93092420Y-52840534D01*
X93092419Y-52840532D01*
X93048391Y-52781486D01*
X92758058Y-52491153D01*
X92581281Y-52667930D01*
X93098390Y-53185040D01*
X93109121Y-53153784D01*
X93149506Y-53096769D01*
X93214306Y-53070638D01*
X93282946Y-53083689D01*
X93333633Y-53131778D01*
X93342922Y-53151633D01*
X93355702Y-53186744D01*
X93384810Y-53224678D01*
X93615524Y-53455390D01*
X93653458Y-53484500D01*
X93653457Y-53484500D01*
X93669272Y-53490256D01*
X93761324Y-53523760D01*
X93761329Y-53523760D01*
X93772010Y-53525644D01*
X93771642Y-53527728D01*
X93825166Y-53543445D01*
X93870921Y-53596249D01*
X93879148Y-53634070D01*
X93880243Y-53633878D01*
X93882127Y-53644564D01*
X93921387Y-53752430D01*
X93950495Y-53790364D01*
X94181209Y-54021076D01*
X94181212Y-54021078D01*
X94181213Y-54021079D01*
X94181214Y-54021080D01*
X94187861Y-54026181D01*
X94219143Y-54050186D01*
X94219142Y-54050186D01*
X94258402Y-54064475D01*
X94327009Y-54089446D01*
X94327014Y-54089446D01*
X94337695Y-54091330D01*
X94337327Y-54093414D01*
X94390852Y-54109131D01*
X94436607Y-54161935D01*
X94444834Y-54199755D01*
X94445929Y-54199563D01*
X94447813Y-54210249D01*
X94487073Y-54318115D01*
X94487074Y-54318116D01*
X94512607Y-54351392D01*
X94516181Y-54356049D01*
X94746895Y-54586761D01*
X94746898Y-54586763D01*
X94746899Y-54586764D01*
X94746900Y-54586765D01*
X94751994Y-54590674D01*
X94784829Y-54615871D01*
X94784828Y-54615871D01*
X94824088Y-54630160D01*
X94892695Y-54655131D01*
X94892700Y-54655131D01*
X94903381Y-54657015D01*
X94903013Y-54659099D01*
X94956537Y-54674816D01*
X95002292Y-54727620D01*
X95010519Y-54765440D01*
X95011614Y-54765248D01*
X95013498Y-54775934D01*
X95052758Y-54883800D01*
X95081866Y-54921734D01*
X95081870Y-54921738D01*
X95081871Y-54921739D01*
X95140416Y-54980284D01*
X95173901Y-55041607D01*
X95176735Y-55067965D01*
X95176735Y-57940731D01*
X95157050Y-58007770D01*
X95140416Y-58028412D01*
X94158747Y-59010081D01*
X94097424Y-59043566D01*
X94071066Y-59046400D01*
X93974936Y-59046400D01*
X93836849Y-59086945D01*
X93715773Y-59164756D01*
X93621523Y-59273526D01*
X93621522Y-59273528D01*
X93561734Y-59404443D01*
X93541253Y-59546900D01*
X93561734Y-59689356D01*
X93621522Y-59820271D01*
X93621523Y-59820273D01*
X93715772Y-59929043D01*
X93836847Y-60006853D01*
X93836850Y-60006854D01*
X93836849Y-60006854D01*
X93937183Y-60036314D01*
X93967732Y-60045284D01*
X93974936Y-60047399D01*
X93974938Y-60047400D01*
X93974939Y-60047400D01*
X94118862Y-60047400D01*
X94118862Y-60047399D01*
X94256953Y-60006853D01*
X94378028Y-59929043D01*
X94472277Y-59820273D01*
X94532065Y-59689357D01*
X94552547Y-59546900D01*
X94551239Y-59537805D01*
X94561179Y-59468649D01*
X94586292Y-59432477D01*
X95717695Y-58301076D01*
X95727547Y-58284011D01*
X95729723Y-58280243D01*
X95757253Y-58232559D01*
X95757255Y-58232556D01*
X95757256Y-58232554D01*
X95777735Y-58156127D01*
X95777735Y-55873935D01*
X95797420Y-55806896D01*
X95850224Y-55761141D01*
X95919382Y-55751197D01*
X95944143Y-55757412D01*
X96024066Y-55786502D01*
X96024071Y-55786502D01*
X96034752Y-55788386D01*
X96034384Y-55790470D01*
X96087908Y-55806187D01*
X96133663Y-55858991D01*
X96141890Y-55896811D01*
X96142985Y-55896619D01*
X96144869Y-55907305D01*
X96184129Y-56015171D01*
X96213237Y-56053105D01*
X96443951Y-56283817D01*
X96443954Y-56283819D01*
X96443955Y-56283820D01*
X96443956Y-56283821D01*
X96444855Y-56284511D01*
X96481885Y-56312927D01*
X96481884Y-56312927D01*
X96521144Y-56327216D01*
X96589751Y-56352187D01*
X96589756Y-56352187D01*
X96600437Y-56354071D01*
X96600069Y-56356155D01*
X96653593Y-56371872D01*
X96699348Y-56424676D01*
X96707575Y-56462497D01*
X96708670Y-56462305D01*
X96710554Y-56472991D01*
X96749814Y-56580857D01*
X96778922Y-56618791D01*
X97009636Y-56849503D01*
X97047570Y-56878613D01*
X97047569Y-56878613D01*
X97086829Y-56892902D01*
X97155436Y-56917873D01*
X97155441Y-56917873D01*
X97166122Y-56919757D01*
X97165754Y-56921841D01*
X97219279Y-56937558D01*
X97265034Y-56990362D01*
X97273261Y-57028182D01*
X97274356Y-57027990D01*
X97276240Y-57038676D01*
X97315500Y-57146542D01*
X97344608Y-57184476D01*
X97575322Y-57415188D01*
X97575325Y-57415190D01*
X97575326Y-57415191D01*
X97575327Y-57415192D01*
X97578799Y-57417856D01*
X97613256Y-57444298D01*
X97613255Y-57444298D01*
X97720902Y-57483478D01*
X97777166Y-57524904D01*
X97779499Y-57531012D01*
X97818252Y-57491641D01*
X97836116Y-57483483D01*
X97943777Y-57444298D01*
X97981712Y-57415190D01*
X98919530Y-56477370D01*
X98948640Y-56439435D01*
X98987900Y-56331569D01*
X98987900Y-56250632D01*
X99007585Y-56183593D01*
X99024219Y-56162951D01*
X99065951Y-56121219D01*
X99127274Y-56087734D01*
X99153632Y-56084900D01*
X99249761Y-56084900D01*
X99340565Y-56058238D01*
X99410435Y-56058238D01*
X99469213Y-56096012D01*
X99498238Y-56159568D01*
X99499500Y-56177215D01*
X99499500Y-66790375D01*
X99479815Y-66857414D01*
X99427011Y-66903169D01*
X99357853Y-66913113D01*
X99334548Y-66907417D01*
X99319853Y-66902275D01*
X99319849Y-66902274D01*
X99290260Y-66899500D01*
X99290256Y-66899500D01*
X99225067Y-66899500D01*
X99158028Y-66879815D01*
X99112273Y-66827011D01*
X99102329Y-66757853D01*
X99110647Y-66700000D01*
X99090165Y-66557543D01*
X99030377Y-66426627D01*
X99030375Y-66426625D01*
X99030374Y-66426622D01*
X98936133Y-66317862D01*
X98936130Y-66317859D01*
X98936128Y-66317857D01*
X98897228Y-66292857D01*
X98881623Y-66282828D01*
X98835868Y-66230023D01*
X98824663Y-66178513D01*
X98824663Y-59275249D01*
X98844348Y-59208210D01*
X98860977Y-59187572D01*
X98919530Y-59129020D01*
X98948640Y-59091086D01*
X98987900Y-58983220D01*
X98987900Y-58868431D01*
X98948640Y-58760565D01*
X98919532Y-58722630D01*
X98919530Y-58722628D01*
X98919527Y-58722624D01*
X98919525Y-58722622D01*
X97981715Y-57784815D01*
X97981709Y-57784809D01*
X97943779Y-57755703D01*
X97943775Y-57755701D01*
X97836129Y-57716521D01*
X97779865Y-57675094D01*
X97777531Y-57668986D01*
X97738780Y-57708357D01*
X97720906Y-57716520D01*
X97613256Y-57755702D01*
X97613255Y-57755702D01*
X97613254Y-57755703D01*
X97575326Y-57784806D01*
X97575325Y-57784807D01*
X97344606Y-58015528D01*
X97344605Y-58015529D01*
X97315499Y-58053458D01*
X97276240Y-58161323D01*
X97274356Y-58172010D01*
X97272271Y-58171642D01*
X97256555Y-58225166D01*
X97203751Y-58270921D01*
X97165929Y-58279148D01*
X97166122Y-58280243D01*
X97155435Y-58282127D01*
X97047569Y-58321387D01*
X97047568Y-58321388D01*
X97009640Y-58350491D01*
X97009639Y-58350492D01*
X96778920Y-58581213D01*
X96778919Y-58581214D01*
X96749813Y-58619143D01*
X96710554Y-58727008D01*
X96708670Y-58737695D01*
X96706585Y-58737327D01*
X96690869Y-58790852D01*
X96638065Y-58836607D01*
X96600244Y-58844834D01*
X96600437Y-58845929D01*
X96589750Y-58847813D01*
X96481884Y-58887073D01*
X96481883Y-58887074D01*
X96443955Y-58916177D01*
X96443954Y-58916178D01*
X96213235Y-59146899D01*
X96213234Y-59146900D01*
X96184128Y-59184829D01*
X96144869Y-59292694D01*
X96142985Y-59303381D01*
X96140900Y-59303013D01*
X96125184Y-59356537D01*
X96072380Y-59402292D01*
X96034559Y-59410519D01*
X96034752Y-59411614D01*
X96024065Y-59413498D01*
X95916199Y-59452758D01*
X95916198Y-59452759D01*
X95878270Y-59481862D01*
X95878269Y-59481863D01*
X95647550Y-59712584D01*
X95647549Y-59712585D01*
X95618443Y-59750514D01*
X95579184Y-59858379D01*
X95577300Y-59869066D01*
X95575215Y-59868698D01*
X95559499Y-59922223D01*
X95506695Y-59967978D01*
X95468873Y-59976205D01*
X95469066Y-59977300D01*
X95458379Y-59979184D01*
X95350513Y-60018444D01*
X95350512Y-60018445D01*
X95312584Y-60047548D01*
X95312583Y-60047549D01*
X95081864Y-60278270D01*
X95081863Y-60278271D01*
X95052757Y-60316200D01*
X95017242Y-60413779D01*
X94975816Y-60470043D01*
X94910547Y-60494979D01*
X94900720Y-60495369D01*
X94887513Y-60495369D01*
X94786532Y-60530035D01*
X95569514Y-61313017D01*
X95602999Y-61374340D01*
X95598015Y-61444032D01*
X95569514Y-61488379D01*
X95320966Y-61736928D01*
X95259643Y-61770413D01*
X95189952Y-61765429D01*
X95145604Y-61736928D01*
X94967413Y-61558737D01*
X94933928Y-61497414D01*
X94938912Y-61427722D01*
X94950090Y-61410329D01*
X94950090Y-61400699D01*
X94432979Y-60883588D01*
X94398313Y-60984569D01*
X94398313Y-60997776D01*
X94378628Y-61064815D01*
X94325824Y-61110570D01*
X94316727Y-61114296D01*
X94219143Y-61149814D01*
X94219142Y-61149814D01*
X94210228Y-61153059D01*
X94209015Y-61149727D01*
X94157897Y-61160935D01*
X94092393Y-61136625D01*
X94053748Y-61088750D01*
X94025377Y-61026627D01*
X93931128Y-60917857D01*
X93810053Y-60840047D01*
X93810051Y-60840046D01*
X93810049Y-60840045D01*
X93810050Y-60840045D01*
X93671963Y-60799500D01*
X93671961Y-60799500D01*
X93575833Y-60799500D01*
X93508794Y-60779815D01*
X93488152Y-60763181D01*
X93184512Y-60459541D01*
X93184507Y-60459537D01*
X93175437Y-60454301D01*
X93175435Y-60454300D01*
X93115991Y-60419980D01*
X93115990Y-60419979D01*
X93090513Y-60413152D01*
X93039562Y-60399500D01*
X91757494Y-60399500D01*
X91719280Y-60409739D01*
X91681065Y-60419979D01*
X91681064Y-60419980D01*
X91621621Y-60454300D01*
X91621619Y-60454301D01*
X91612542Y-60459540D01*
X91593916Y-60478167D01*
X91532593Y-60511651D01*
X91462901Y-60506665D01*
X91406968Y-60464792D01*
X91389715Y-60432895D01*
X91386502Y-60424067D01*
X91386502Y-60424066D01*
X91347242Y-60316200D01*
X91318134Y-60278266D01*
X91087420Y-60047554D01*
X91087415Y-60047550D01*
X91087414Y-60047549D01*
X91071283Y-60035171D01*
X91049486Y-60018444D01*
X91049484Y-60018443D01*
X91049486Y-60018443D01*
X90941620Y-59979184D01*
X90930934Y-59977300D01*
X90931301Y-59975215D01*
X90877777Y-59959499D01*
X90832022Y-59906695D01*
X90823794Y-59868873D01*
X90822700Y-59869066D01*
X90820816Y-59858384D01*
X90820816Y-59858380D01*
X90781556Y-59750514D01*
X90752448Y-59712580D01*
X90521734Y-59481868D01*
X90521729Y-59481864D01*
X90521728Y-59481863D01*
X90483801Y-59452759D01*
X90483800Y-59452758D01*
X90483798Y-59452757D01*
X90483800Y-59452757D01*
X90375934Y-59413498D01*
X90365248Y-59411614D01*
X90365615Y-59409529D01*
X90312092Y-59393813D01*
X90266337Y-59341009D01*
X90258109Y-59303188D01*
X90257015Y-59303381D01*
X90255131Y-59292698D01*
X90255131Y-59292695D01*
X90245745Y-59266909D01*
X90241315Y-59197181D01*
X90275286Y-59136125D01*
X90336873Y-59103128D01*
X90362268Y-59100500D01*
X92739560Y-59100500D01*
X92739562Y-59100500D01*
X92815989Y-59080021D01*
X92884511Y-59040460D01*
X92940460Y-58984511D01*
X93588151Y-58336818D01*
X93649474Y-58303334D01*
X93675832Y-58300500D01*
X93771962Y-58300500D01*
X93771962Y-58300499D01*
X93910053Y-58259953D01*
X94031128Y-58182143D01*
X94125377Y-58073373D01*
X94185165Y-57942457D01*
X94205647Y-57800000D01*
X94185165Y-57657543D01*
X94125377Y-57526627D01*
X94031128Y-57417857D01*
X93910053Y-57340047D01*
X93910051Y-57340046D01*
X93910049Y-57340045D01*
X93910050Y-57340045D01*
X93771963Y-57299500D01*
X93771961Y-57299500D01*
X93628039Y-57299500D01*
X93628036Y-57299500D01*
X93489949Y-57340045D01*
X93368872Y-57417856D01*
X93343712Y-57446893D01*
X93284933Y-57484667D01*
X93215064Y-57484666D01*
X93156288Y-57446893D01*
X93131127Y-57417856D01*
X93015452Y-57343517D01*
X93010053Y-57340047D01*
X93010051Y-57340046D01*
X93010049Y-57340045D01*
X93010050Y-57340045D01*
X92871963Y-57299500D01*
X92871961Y-57299500D01*
X92728039Y-57299500D01*
X92728036Y-57299500D01*
X92589949Y-57340045D01*
X92468872Y-57417856D01*
X92443712Y-57446893D01*
X92384933Y-57484667D01*
X92315064Y-57484666D01*
X92256288Y-57446893D01*
X92231127Y-57417856D01*
X92115452Y-57343517D01*
X92110053Y-57340047D01*
X92110051Y-57340046D01*
X92110049Y-57340045D01*
X92110050Y-57340045D01*
X91971963Y-57299500D01*
X91971961Y-57299500D01*
X91828039Y-57299500D01*
X91828036Y-57299500D01*
X91689949Y-57340045D01*
X91568873Y-57417856D01*
X91568872Y-57417856D01*
X91568872Y-57417857D01*
X91545963Y-57444296D01*
X91535212Y-57456703D01*
X91476433Y-57494477D01*
X91441499Y-57499500D01*
X90747406Y-57499500D01*
X90680367Y-57479815D01*
X90659725Y-57463181D01*
X89756147Y-56559603D01*
X89722662Y-56498280D01*
X89727646Y-56428588D01*
X89769518Y-56372655D01*
X89801418Y-56355400D01*
X89810246Y-56352187D01*
X89810249Y-56352187D01*
X89918115Y-56312927D01*
X89956049Y-56283819D01*
X90186761Y-56053105D01*
X90215871Y-56015171D01*
X90255131Y-55907305D01*
X90255131Y-55907299D01*
X90257015Y-55896619D01*
X90259099Y-55896986D01*
X90274816Y-55843463D01*
X90327620Y-55797708D01*
X90365440Y-55789480D01*
X90365248Y-55788386D01*
X90375928Y-55786502D01*
X90375934Y-55786502D01*
X90483800Y-55747242D01*
X90521734Y-55718134D01*
X90752446Y-55487420D01*
X90781556Y-55449486D01*
X90820816Y-55341620D01*
X90820816Y-55341614D01*
X90822700Y-55330934D01*
X90824784Y-55331301D01*
X90840501Y-55277777D01*
X90893305Y-55232022D01*
X90931126Y-55223794D01*
X90930934Y-55222700D01*
X90941614Y-55220816D01*
X90941620Y-55220816D01*
X91049486Y-55181556D01*
X91087420Y-55152448D01*
X91318132Y-54921734D01*
X91347242Y-54883800D01*
X91386502Y-54775934D01*
X91386502Y-54775928D01*
X91388386Y-54765248D01*
X91390470Y-54765615D01*
X91406187Y-54712092D01*
X91458991Y-54666337D01*
X91496811Y-54658109D01*
X91496619Y-54657015D01*
X91507299Y-54655131D01*
X91507305Y-54655131D01*
X91615171Y-54615871D01*
X91653105Y-54586763D01*
X91883817Y-54356049D01*
X91912927Y-54318115D01*
X91952187Y-54210249D01*
X91952187Y-54210243D01*
X91954071Y-54199563D01*
X91956155Y-54199930D01*
X91971872Y-54146407D01*
X92024676Y-54100652D01*
X92062497Y-54092424D01*
X92062305Y-54091330D01*
X92072985Y-54089446D01*
X92072991Y-54089446D01*
X92180857Y-54050186D01*
X92218791Y-54021078D01*
X92449503Y-53790364D01*
X92478613Y-53752430D01*
X92514129Y-53654849D01*
X92555555Y-53598586D01*
X92620824Y-53573650D01*
X92630651Y-53573260D01*
X92643859Y-53573260D01*
X92744837Y-53538593D01*
X92744838Y-53538592D01*
X92227728Y-53021483D01*
X91357064Y-52150819D01*
X91331389Y-52225609D01*
X91291003Y-52282625D01*
X91226204Y-52308756D01*
X91157564Y-52295705D01*
X91126426Y-52273028D01*
X90650664Y-51797266D01*
X91710617Y-51797266D01*
X92227727Y-52314376D01*
X92404504Y-52137599D01*
X92114171Y-51847266D01*
X92055125Y-51803238D01*
X92055123Y-51803237D01*
X91936752Y-51762600D01*
X91811598Y-51762600D01*
X91710617Y-51797266D01*
X90650664Y-51797266D01*
X90612939Y-51759541D01*
X90612934Y-51759537D01*
X90579889Y-51740459D01*
X90579889Y-51740458D01*
X90579887Y-51740458D01*
X90567510Y-51733312D01*
X90544417Y-51719979D01*
X90544418Y-51719979D01*
X90506202Y-51709739D01*
X90467989Y-51699500D01*
X90467987Y-51699500D01*
X89892478Y-51699500D01*
X89825439Y-51679815D01*
X89779684Y-51627011D01*
X89775437Y-51616455D01*
X89754116Y-51555526D01*
X89754116Y-51555525D01*
X89751612Y-51552133D01*
X89750022Y-51547778D01*
X89749774Y-51547309D01*
X89749838Y-51547275D01*
X89727642Y-51486505D01*
X89742957Y-51418335D01*
X89792697Y-51369266D01*
X89851383Y-51354500D01*
X95712684Y-51354500D01*
X95779723Y-51374185D01*
G37*
%TD.AperFunction*%
%TA.AperFunction,Conductor*%
G36*
X94285962Y-62167339D02*
G01*
X94330310Y-62195840D01*
X94508501Y-62374031D01*
X94541986Y-62435354D01*
X94537002Y-62505046D01*
X94508501Y-62549393D01*
X94172272Y-62885623D01*
X93995495Y-63062400D01*
X94285828Y-63352733D01*
X94344874Y-63396761D01*
X94344876Y-63396762D01*
X94463248Y-63437400D01*
X94588403Y-63437400D01*
X94706770Y-63396763D01*
X94706775Y-63396760D01*
X94764157Y-63353974D01*
X94829667Y-63329680D01*
X94897912Y-63344661D01*
X94947224Y-63394159D01*
X94961947Y-63462460D01*
X94961018Y-63471026D01*
X94956853Y-63499997D01*
X94956853Y-63499999D01*
X94977334Y-63642456D01*
X94979834Y-63650968D01*
X94976368Y-63651985D01*
X94983828Y-63704216D01*
X94954743Y-63767744D01*
X94934741Y-63786222D01*
X94849287Y-63849290D01*
X94770884Y-63955523D01*
X94743696Y-64033221D01*
X94702974Y-64089997D01*
X94638021Y-64115743D01*
X94569459Y-64102286D01*
X94519057Y-64053898D01*
X94510473Y-64035599D01*
X94469767Y-63926462D01*
X94385758Y-63814241D01*
X94273537Y-63730232D01*
X94142187Y-63681241D01*
X94084146Y-63675000D01*
X93987500Y-63675000D01*
X93987500Y-64526000D01*
X93967815Y-64593039D01*
X93915011Y-64638794D01*
X93863500Y-64650000D01*
X92950000Y-64650000D01*
X92919976Y-64680024D01*
X92858652Y-64713508D01*
X92797361Y-64711319D01*
X92671964Y-64674500D01*
X92671961Y-64674500D01*
X92528039Y-64674500D01*
X92528036Y-64674500D01*
X92389949Y-64715045D01*
X92268873Y-64792856D01*
X92268872Y-64792856D01*
X92268872Y-64792857D01*
X92245484Y-64819849D01*
X92235212Y-64831703D01*
X92176433Y-64869477D01*
X92141499Y-64874500D01*
X91363333Y-64874500D01*
X91296294Y-64854815D01*
X91275652Y-64838181D01*
X91211819Y-64774348D01*
X91178334Y-64713025D01*
X91175500Y-64686667D01*
X91175500Y-64184739D01*
X91172725Y-64155151D01*
X91158974Y-64115853D01*
X92950000Y-64115853D01*
X92950000Y-64150000D01*
X93487500Y-64150000D01*
X93487500Y-63675000D01*
X93390853Y-63675000D01*
X93332812Y-63681241D01*
X93201462Y-63730232D01*
X93089241Y-63814241D01*
X93005232Y-63926462D01*
X92956241Y-64057812D01*
X92950000Y-64115853D01*
X91158974Y-64115853D01*
X91156191Y-64107900D01*
X91152628Y-64038121D01*
X91187357Y-63977493D01*
X91211231Y-63959557D01*
X91244309Y-63940460D01*
X91300258Y-63884511D01*
X91760549Y-63424218D01*
X91821872Y-63390734D01*
X91848230Y-63387900D01*
X91931567Y-63387900D01*
X91931569Y-63387900D01*
X92039435Y-63348640D01*
X92077370Y-63319532D01*
X93015188Y-62381712D01*
X93044298Y-62343777D01*
X93057075Y-62308671D01*
X93098500Y-62252408D01*
X93163768Y-62227471D01*
X93232157Y-62241780D01*
X93281953Y-62290791D01*
X93290878Y-62310817D01*
X93307579Y-62359466D01*
X93307580Y-62359467D01*
X93351608Y-62418513D01*
X93641941Y-62708846D01*
X94154948Y-62195840D01*
X94216271Y-62162355D01*
X94285962Y-62167339D01*
G37*
%TD.AperFunction*%
%TA.AperFunction,Conductor*%
G36*
X89333920Y-60986479D02*
G01*
X89354561Y-61003112D01*
X89388937Y-61037487D01*
X89408238Y-61056788D01*
X89446172Y-61085898D01*
X89446171Y-61085898D01*
X89485431Y-61100187D01*
X89554038Y-61125158D01*
X89554043Y-61125158D01*
X89564724Y-61127042D01*
X89564356Y-61129126D01*
X89617881Y-61144843D01*
X89663636Y-61197647D01*
X89671863Y-61235468D01*
X89672958Y-61235276D01*
X89674842Y-61245962D01*
X89714102Y-61353828D01*
X89743210Y-61391762D01*
X89973924Y-61622474D01*
X90011858Y-61651584D01*
X90011857Y-61651584D01*
X90016042Y-61653107D01*
X90119724Y-61690844D01*
X90119729Y-61690844D01*
X90130410Y-61692728D01*
X90130042Y-61694812D01*
X90183566Y-61710529D01*
X90229321Y-61763333D01*
X90237548Y-61801153D01*
X90238643Y-61800961D01*
X90240527Y-61811647D01*
X90279787Y-61919513D01*
X90308895Y-61957447D01*
X90539609Y-62188159D01*
X90577543Y-62217269D01*
X90577542Y-62217269D01*
X90612521Y-62230000D01*
X90685409Y-62256529D01*
X90685414Y-62256529D01*
X90696095Y-62258413D01*
X90695727Y-62260497D01*
X90749252Y-62276214D01*
X90795007Y-62329018D01*
X90803234Y-62366838D01*
X90804329Y-62366646D01*
X90806213Y-62377332D01*
X90845473Y-62485198D01*
X90874581Y-62523132D01*
X91105295Y-62753844D01*
X91143229Y-62782954D01*
X91251095Y-62822214D01*
X91251096Y-62822214D01*
X91259924Y-62825427D01*
X91316188Y-62866853D01*
X91341124Y-62932121D01*
X91326814Y-63000510D01*
X91305195Y-63029630D01*
X90971644Y-63363182D01*
X90910323Y-63396666D01*
X90883965Y-63399500D01*
X89993501Y-63399500D01*
X89926462Y-63379815D01*
X89899788Y-63356703D01*
X89866128Y-63317857D01*
X89745053Y-63240047D01*
X89745051Y-63240046D01*
X89745049Y-63240045D01*
X89745050Y-63240045D01*
X89606963Y-63199500D01*
X89606961Y-63199500D01*
X89471380Y-63199500D01*
X89404341Y-63179815D01*
X89358586Y-63127011D01*
X89348642Y-63057853D01*
X89377667Y-62994297D01*
X89383699Y-62987819D01*
X89385756Y-62985761D01*
X89469767Y-62873537D01*
X89518758Y-62742187D01*
X89524999Y-62684146D01*
X89525000Y-62684129D01*
X89525000Y-62587500D01*
X88075000Y-62587500D01*
X88075000Y-62684146D01*
X88081241Y-62742187D01*
X88130232Y-62873537D01*
X88214241Y-62985758D01*
X88326462Y-63069767D01*
X88435599Y-63110473D01*
X88491532Y-63152345D01*
X88515949Y-63217809D01*
X88501097Y-63286082D01*
X88451692Y-63335487D01*
X88433221Y-63343696D01*
X88355523Y-63370884D01*
X88249289Y-63449288D01*
X88249288Y-63449289D01*
X88170884Y-63555523D01*
X88170884Y-63555524D01*
X88127693Y-63678955D01*
X88086971Y-63735731D01*
X88022018Y-63761478D01*
X88010652Y-63762000D01*
X87889348Y-63762000D01*
X87822309Y-63742315D01*
X87776554Y-63689511D01*
X87772307Y-63678955D01*
X87753464Y-63625107D01*
X87729116Y-63555525D01*
X87688136Y-63499999D01*
X87650711Y-63449289D01*
X87650710Y-63449288D01*
X87544476Y-63370884D01*
X87544477Y-63370884D01*
X87466778Y-63343696D01*
X87410003Y-63302974D01*
X87384256Y-63238021D01*
X87397713Y-63169460D01*
X87446100Y-63119057D01*
X87464401Y-63110473D01*
X87573535Y-63069767D01*
X87573536Y-63069767D01*
X87685758Y-62985758D01*
X87769767Y-62873537D01*
X87818758Y-62742187D01*
X87824999Y-62684146D01*
X87825000Y-62684129D01*
X87825000Y-62587500D01*
X86974000Y-62587500D01*
X86906961Y-62567815D01*
X86861206Y-62515011D01*
X86850000Y-62463500D01*
X86850000Y-62087500D01*
X87350000Y-62087500D01*
X87825000Y-62087500D01*
X87825000Y-61990870D01*
X87824999Y-61990853D01*
X88075000Y-61990853D01*
X88075000Y-62087500D01*
X88550000Y-62087500D01*
X89050000Y-62087500D01*
X89525000Y-62087500D01*
X89525000Y-61990870D01*
X89524999Y-61990853D01*
X89518758Y-61932812D01*
X89469767Y-61801462D01*
X89385758Y-61689241D01*
X89273537Y-61605232D01*
X89142187Y-61556241D01*
X89084146Y-61550000D01*
X89050000Y-61550000D01*
X89050000Y-62087500D01*
X88550000Y-62087500D01*
X88550000Y-61550000D01*
X88515853Y-61550000D01*
X88457812Y-61556241D01*
X88326462Y-61605232D01*
X88214241Y-61689241D01*
X88130232Y-61801462D01*
X88081241Y-61932812D01*
X88075000Y-61990853D01*
X87824999Y-61990853D01*
X87818758Y-61932812D01*
X87769767Y-61801462D01*
X87685758Y-61689241D01*
X87573537Y-61605232D01*
X87442187Y-61556241D01*
X87384146Y-61550000D01*
X87350000Y-61550000D01*
X87350000Y-62087500D01*
X86850000Y-62087500D01*
X86850000Y-61550000D01*
X86815853Y-61550000D01*
X86757810Y-61556241D01*
X86694433Y-61579880D01*
X86624741Y-61584864D01*
X86563418Y-61551379D01*
X86529934Y-61490055D01*
X86527100Y-61463698D01*
X86527100Y-61090794D01*
X86546785Y-61023755D01*
X86599589Y-60978000D01*
X86651100Y-60966794D01*
X89266881Y-60966794D01*
X89333920Y-60986479D01*
G37*
%TD.AperFunction*%
%TA.AperFunction,Conductor*%
G36*
X80058039Y-53194685D02*
G01*
X80103794Y-53247489D01*
X80115000Y-53299000D01*
X80115000Y-54639146D01*
X80115001Y-54639147D01*
X80140145Y-54635165D01*
X80253045Y-54577639D01*
X80253050Y-54577636D01*
X80342636Y-54488050D01*
X80342639Y-54488046D01*
X80400164Y-54375146D01*
X80401973Y-54363729D01*
X80431902Y-54300594D01*
X80491212Y-54263662D01*
X80561075Y-54264658D01*
X80619308Y-54303267D01*
X80642919Y-54346515D01*
X80644424Y-54351388D01*
X80695803Y-54456485D01*
X80778514Y-54539196D01*
X80778515Y-54539196D01*
X80778517Y-54539198D01*
X80883607Y-54590573D01*
X80883608Y-54590573D01*
X80892259Y-54594802D01*
X80891357Y-54596645D01*
X80929925Y-54619895D01*
X81587990Y-55277960D01*
X81656513Y-55317522D01*
X81732939Y-55338000D01*
X83510652Y-55338000D01*
X83577691Y-55357685D01*
X83623446Y-55410489D01*
X83627693Y-55421045D01*
X83670884Y-55544475D01*
X83670884Y-55544476D01*
X83748764Y-55650000D01*
X83749289Y-55650711D01*
X83855525Y-55729116D01*
X83907320Y-55747240D01*
X83933220Y-55756303D01*
X83989996Y-55797024D01*
X84015743Y-55861977D01*
X84002287Y-55930539D01*
X83953899Y-55980941D01*
X83935600Y-55989525D01*
X83826466Y-56030231D01*
X83826463Y-56030232D01*
X83714241Y-56114241D01*
X83630232Y-56226462D01*
X83581241Y-56357812D01*
X83575000Y-56415853D01*
X83575000Y-56512500D01*
X84426000Y-56512500D01*
X84493039Y-56532185D01*
X84538794Y-56584989D01*
X84550000Y-56636500D01*
X84550000Y-57550000D01*
X84584130Y-57550000D01*
X84584141Y-57549999D01*
X84637242Y-57544289D01*
X84706002Y-57556693D01*
X84757140Y-57604302D01*
X84774500Y-57667578D01*
X84774500Y-59270033D01*
X84754815Y-59337072D01*
X84702011Y-59382827D01*
X84632853Y-59392771D01*
X84569297Y-59363746D01*
X84562819Y-59357714D01*
X83341819Y-58136714D01*
X83308334Y-58075391D01*
X83305500Y-58049033D01*
X83305500Y-57319887D01*
X83305500Y-57319886D01*
X83285021Y-57243459D01*
X83281309Y-57237029D01*
X83245464Y-57174943D01*
X83245458Y-57174935D01*
X83179669Y-57109146D01*
X83575000Y-57109146D01*
X83581241Y-57167187D01*
X83630232Y-57298537D01*
X83714241Y-57410758D01*
X83826462Y-57494767D01*
X83957812Y-57543758D01*
X84015853Y-57549999D01*
X84015870Y-57550000D01*
X84050000Y-57550000D01*
X84050000Y-57012500D01*
X83575000Y-57012500D01*
X83575000Y-57109146D01*
X83179669Y-57109146D01*
X82930062Y-56859539D01*
X82912678Y-56849503D01*
X82907780Y-56846675D01*
X82861543Y-56819980D01*
X82861542Y-56819979D01*
X82836065Y-56813152D01*
X82785114Y-56799500D01*
X80251962Y-56799500D01*
X80172838Y-56799500D01*
X80096410Y-56819978D01*
X80027889Y-56859540D01*
X80027886Y-56859542D01*
X79718076Y-57169352D01*
X79656753Y-57202837D01*
X79648275Y-57204375D01*
X79613608Y-57209426D01*
X79508514Y-57260803D01*
X79425803Y-57343514D01*
X79374424Y-57448611D01*
X79372919Y-57453485D01*
X79334320Y-57511724D01*
X79270361Y-57539850D01*
X79201350Y-57528931D01*
X79149196Y-57482436D01*
X79131973Y-57436271D01*
X79130164Y-57424850D01*
X79130162Y-57424844D01*
X79072643Y-57311958D01*
X79072636Y-57311949D01*
X78983050Y-57222363D01*
X78983046Y-57222360D01*
X78870143Y-57164833D01*
X78845000Y-57160851D01*
X78845000Y-59589146D01*
X78845001Y-59589147D01*
X78870145Y-59585165D01*
X78983045Y-59527639D01*
X78983050Y-59527636D01*
X79072636Y-59438050D01*
X79072639Y-59438046D01*
X79130164Y-59325146D01*
X79131973Y-59313729D01*
X79161902Y-59250594D01*
X79221212Y-59213662D01*
X79291075Y-59214658D01*
X79349308Y-59253267D01*
X79372919Y-59296515D01*
X79374424Y-59301388D01*
X79425803Y-59406485D01*
X79508514Y-59489196D01*
X79508515Y-59489196D01*
X79508517Y-59489198D01*
X79613607Y-59540573D01*
X79647673Y-59545536D01*
X79681739Y-59550500D01*
X79681740Y-59550500D01*
X80048261Y-59550500D01*
X80072968Y-59546900D01*
X80116393Y-59540573D01*
X80221483Y-59489198D01*
X80304198Y-59406483D01*
X80355573Y-59301393D01*
X80365500Y-59233260D01*
X80365500Y-57524500D01*
X80385185Y-57457461D01*
X80437989Y-57411706D01*
X80489500Y-57400500D01*
X80510500Y-57400500D01*
X80577539Y-57420185D01*
X80623294Y-57472989D01*
X80634500Y-57524500D01*
X80634500Y-59233260D01*
X80644426Y-59301391D01*
X80695803Y-59406485D01*
X80778514Y-59489196D01*
X80778515Y-59489196D01*
X80778517Y-59489198D01*
X80883607Y-59540573D01*
X80917673Y-59545536D01*
X80951739Y-59550500D01*
X80951740Y-59550500D01*
X81222967Y-59550500D01*
X81290006Y-59570185D01*
X81310648Y-59586819D01*
X81557748Y-59833919D01*
X81591233Y-59895242D01*
X81586249Y-59964934D01*
X81544377Y-60020867D01*
X81478913Y-60045284D01*
X81470067Y-60045600D01*
X78152169Y-60045600D01*
X78085130Y-60025915D01*
X78039375Y-59973111D01*
X78028169Y-59921600D01*
X78028169Y-59638894D01*
X78047854Y-59571855D01*
X78100658Y-59526100D01*
X78169816Y-59516156D01*
X78208464Y-59528409D01*
X78319854Y-59585165D01*
X78344998Y-59589147D01*
X78345000Y-59589146D01*
X78345000Y-57160851D01*
X78319854Y-57164833D01*
X78208463Y-57221590D01*
X78139794Y-57234486D01*
X78075054Y-57208209D01*
X78034797Y-57151103D01*
X78028169Y-57111105D01*
X78028169Y-54628213D01*
X78047854Y-54561174D01*
X78100658Y-54515419D01*
X78169816Y-54505475D01*
X78233372Y-54534500D01*
X78238092Y-54538895D01*
X78238513Y-54539195D01*
X78238514Y-54539195D01*
X78238517Y-54539198D01*
X78343607Y-54590573D01*
X78366778Y-54593949D01*
X78411739Y-54600500D01*
X78411740Y-54600500D01*
X78778261Y-54600500D01*
X78804718Y-54596645D01*
X78846393Y-54590573D01*
X78951483Y-54539198D01*
X79034198Y-54456483D01*
X79085573Y-54351393D01*
X79085574Y-54351384D01*
X79087076Y-54346524D01*
X79125671Y-54288282D01*
X79189628Y-54260151D01*
X79258640Y-54271063D01*
X79310797Y-54317554D01*
X79328025Y-54363723D01*
X79329834Y-54375145D01*
X79329837Y-54375155D01*
X79387356Y-54488041D01*
X79387363Y-54488050D01*
X79476949Y-54577636D01*
X79476954Y-54577639D01*
X79589854Y-54635165D01*
X79614998Y-54639147D01*
X79615000Y-54639146D01*
X79615000Y-53299000D01*
X79634685Y-53231961D01*
X79687489Y-53186206D01*
X79739000Y-53175000D01*
X79991000Y-53175000D01*
X80058039Y-53194685D01*
G37*
%TD.AperFunction*%
%TA.AperFunction,Conductor*%
G36*
X61579706Y-50520185D02*
G01*
X61625461Y-50572989D01*
X61635405Y-50642147D01*
X61606380Y-50705703D01*
X61600348Y-50712181D01*
X61524348Y-50788181D01*
X61463025Y-50821666D01*
X61436667Y-50824500D01*
X60884740Y-50824500D01*
X60855150Y-50827274D01*
X60730523Y-50870884D01*
X60624289Y-50949288D01*
X60624288Y-50949289D01*
X60545884Y-51055523D01*
X60545883Y-51055524D01*
X60524563Y-51116455D01*
X60483841Y-51173231D01*
X60418888Y-51198978D01*
X60407522Y-51199500D01*
X59792478Y-51199500D01*
X59725439Y-51179815D01*
X59679684Y-51127011D01*
X59675437Y-51116455D01*
X59654116Y-51055524D01*
X59654115Y-51055523D01*
X59575711Y-50949289D01*
X59575710Y-50949288D01*
X59469476Y-50870884D01*
X59344848Y-50827274D01*
X59344849Y-50827274D01*
X59315260Y-50824500D01*
X59315256Y-50824500D01*
X58709744Y-50824500D01*
X58709740Y-50824500D01*
X58680150Y-50827274D01*
X58555523Y-50870884D01*
X58449289Y-50949288D01*
X58449288Y-50949289D01*
X58370884Y-51055523D01*
X58327274Y-51180150D01*
X58324500Y-51209739D01*
X58324500Y-51790260D01*
X58327274Y-51819849D01*
X58373953Y-51953245D01*
X58372171Y-51953868D01*
X58383793Y-52011029D01*
X58358487Y-52076155D01*
X58301989Y-52117261D01*
X58260241Y-52124500D01*
X57939759Y-52124500D01*
X57872720Y-52104815D01*
X57826965Y-52052011D01*
X57817021Y-51982853D01*
X57826590Y-51953435D01*
X57826047Y-51953245D01*
X57843904Y-51902215D01*
X57872725Y-51819849D01*
X57874283Y-51803237D01*
X57875500Y-51790260D01*
X57875500Y-51209739D01*
X57872725Y-51180150D01*
X57841091Y-51089747D01*
X57829116Y-51055525D01*
X57817691Y-51040045D01*
X57750711Y-50949289D01*
X57750710Y-50949288D01*
X57644476Y-50870884D01*
X57519848Y-50827274D01*
X57519849Y-50827274D01*
X57490260Y-50824500D01*
X57490256Y-50824500D01*
X56884744Y-50824500D01*
X56884740Y-50824500D01*
X56855150Y-50827274D01*
X56730523Y-50870884D01*
X56624291Y-50949286D01*
X56624290Y-50949288D01*
X56624289Y-50949289D01*
X56610639Y-50967785D01*
X56600387Y-50981676D01*
X56544739Y-51023926D01*
X56475082Y-51029383D01*
X56465683Y-51027018D01*
X56371963Y-50999500D01*
X56371961Y-50999500D01*
X56228039Y-50999500D01*
X56228036Y-50999500D01*
X56089949Y-51040045D01*
X55968873Y-51117856D01*
X55874623Y-51226626D01*
X55874622Y-51226628D01*
X55814834Y-51357543D01*
X55794353Y-51500000D01*
X55814834Y-51642456D01*
X55868306Y-51759541D01*
X55874623Y-51773373D01*
X55968872Y-51882143D01*
X55968874Y-51882144D01*
X55990721Y-51896185D01*
X56036476Y-51948989D01*
X56046419Y-52018148D01*
X56017393Y-52081703D01*
X55958615Y-52119477D01*
X55923681Y-52124500D01*
X53656638Y-52124500D01*
X53580210Y-52144978D01*
X53511689Y-52184540D01*
X53511686Y-52184542D01*
X52362941Y-53333287D01*
X52362935Y-53333295D01*
X52323382Y-53401804D01*
X52323379Y-53401809D01*
X52302900Y-53478239D01*
X52302900Y-55426898D01*
X52283215Y-55493937D01*
X52230411Y-55539692D01*
X52161253Y-55549636D01*
X52106015Y-55527216D01*
X51952734Y-55415851D01*
X51952729Y-55415848D01*
X51779807Y-55338857D01*
X51779802Y-55338855D01*
X51610665Y-55302905D01*
X51594646Y-55299500D01*
X51405354Y-55299500D01*
X51389335Y-55302905D01*
X51220197Y-55338855D01*
X51220192Y-55338857D01*
X51047270Y-55415848D01*
X51047265Y-55415851D01*
X50894129Y-55527111D01*
X50767466Y-55667785D01*
X50731887Y-55729410D01*
X50681320Y-55777626D01*
X50612713Y-55790849D01*
X50547848Y-55764881D01*
X50507320Y-55707967D01*
X50500500Y-55667410D01*
X50500500Y-53003750D01*
X50500726Y-52996263D01*
X50518271Y-52706201D01*
X50520076Y-52691340D01*
X50523488Y-52672725D01*
X50571780Y-52409197D01*
X50575364Y-52394663D01*
X50578829Y-52383545D01*
X50660696Y-52120822D01*
X50665998Y-52106841D01*
X50783731Y-51845249D01*
X50790676Y-51832016D01*
X50939080Y-51586526D01*
X50947567Y-51574230D01*
X51124480Y-51348417D01*
X51134395Y-51337226D01*
X51337226Y-51134395D01*
X51348417Y-51124480D01*
X51574230Y-50947567D01*
X51586526Y-50939080D01*
X51832016Y-50790676D01*
X51845249Y-50783731D01*
X52106841Y-50665998D01*
X52120822Y-50660696D01*
X52394668Y-50575362D01*
X52409197Y-50571780D01*
X52691344Y-50520075D01*
X52706201Y-50518271D01*
X52996264Y-50500726D01*
X53003751Y-50500500D01*
X53065892Y-50500500D01*
X61512667Y-50500500D01*
X61579706Y-50520185D01*
G37*
%TD.AperFunction*%
%TA.AperFunction,Conductor*%
G36*
X54399460Y-52745185D02*
G01*
X54445215Y-52797989D01*
X54455710Y-52862756D01*
X54450000Y-52915853D01*
X54450000Y-52950000D01*
X55363500Y-52950000D01*
X55430539Y-52969685D01*
X55476294Y-53022489D01*
X55487500Y-53074000D01*
X55487500Y-53925000D01*
X55584130Y-53925000D01*
X55584146Y-53924999D01*
X55642187Y-53918758D01*
X55773537Y-53869767D01*
X55885758Y-53785758D01*
X55969767Y-53673536D01*
X55969767Y-53673535D01*
X56010473Y-53564401D01*
X56052345Y-53508467D01*
X56117809Y-53484050D01*
X56186082Y-53498902D01*
X56235487Y-53548307D01*
X56243696Y-53566778D01*
X56270884Y-53644476D01*
X56349288Y-53750710D01*
X56349289Y-53750711D01*
X56455523Y-53829115D01*
X56455524Y-53829115D01*
X56455525Y-53829116D01*
X56580151Y-53872725D01*
X56580150Y-53872725D01*
X56609740Y-53875500D01*
X56609744Y-53875500D01*
X57315260Y-53875500D01*
X57344849Y-53872725D01*
X57353302Y-53869767D01*
X57469475Y-53829116D01*
X57575711Y-53750711D01*
X57654116Y-53644475D01*
X57669197Y-53601375D01*
X57709916Y-53544603D01*
X57774869Y-53518855D01*
X57843431Y-53532311D01*
X57853273Y-53538016D01*
X57901513Y-53569018D01*
X57947268Y-53621819D01*
X57957212Y-53690977D01*
X57928188Y-53754533D01*
X57922155Y-53761013D01*
X57338088Y-54345081D01*
X57276765Y-54378566D01*
X57250407Y-54381400D01*
X54126768Y-54381400D01*
X53115581Y-55392588D01*
X53054258Y-55426073D01*
X52984566Y-55421089D01*
X52928633Y-55379217D01*
X52904216Y-55313753D01*
X52903900Y-55304907D01*
X52903900Y-53693633D01*
X52923585Y-53626594D01*
X52940219Y-53605952D01*
X53062025Y-53484146D01*
X54450000Y-53484146D01*
X54456241Y-53542187D01*
X54505232Y-53673537D01*
X54589241Y-53785758D01*
X54701462Y-53869767D01*
X54832812Y-53918758D01*
X54890853Y-53924999D01*
X54890870Y-53925000D01*
X54987500Y-53925000D01*
X54987500Y-53450000D01*
X54450000Y-53450000D01*
X54450000Y-53484146D01*
X53062025Y-53484146D01*
X53784352Y-52761819D01*
X53845675Y-52728334D01*
X53872033Y-52725500D01*
X54332421Y-52725500D01*
X54399460Y-52745185D01*
G37*
%TD.AperFunction*%
%TA.AperFunction,Conductor*%
G36*
X86557816Y-51374185D02*
G01*
X86603571Y-51426989D01*
X86613515Y-51496147D01*
X86606959Y-51521834D01*
X86556241Y-51657812D01*
X86550000Y-51715853D01*
X86550000Y-51750000D01*
X88025000Y-51750000D01*
X88025000Y-51715870D01*
X88024999Y-51715853D01*
X88018758Y-51657812D01*
X87968041Y-51521834D01*
X87963057Y-51452142D01*
X87996542Y-51390819D01*
X88057865Y-51357334D01*
X88084223Y-51354500D01*
X88373617Y-51354500D01*
X88440656Y-51374185D01*
X88486411Y-51426989D01*
X88496355Y-51496147D01*
X88473387Y-51552134D01*
X88470884Y-51555525D01*
X88427274Y-51680150D01*
X88424500Y-51709739D01*
X88424500Y-52290260D01*
X88427274Y-52319849D01*
X88470884Y-52444476D01*
X88549288Y-52550710D01*
X88549289Y-52550711D01*
X88655523Y-52629115D01*
X88655524Y-52629115D01*
X88655525Y-52629116D01*
X88780151Y-52672725D01*
X88780150Y-52672725D01*
X88809740Y-52675500D01*
X88809744Y-52675500D01*
X89415260Y-52675500D01*
X89444849Y-52672725D01*
X89465611Y-52665460D01*
X89569475Y-52629116D01*
X89675711Y-52550711D01*
X89754116Y-52444475D01*
X89766459Y-52409201D01*
X89775437Y-52383545D01*
X89816159Y-52326769D01*
X89881112Y-52301022D01*
X89892478Y-52300500D01*
X90252594Y-52300500D01*
X90319633Y-52320185D01*
X90340275Y-52336819D01*
X90739510Y-52736054D01*
X90772995Y-52797377D01*
X90768011Y-52867069D01*
X90726139Y-52923002D01*
X90694240Y-52940257D01*
X90685410Y-52943471D01*
X90685409Y-52943471D01*
X90577543Y-52982731D01*
X90577542Y-52982731D01*
X90577541Y-52982732D01*
X90539613Y-53011835D01*
X90539603Y-53011844D01*
X90481060Y-53070388D01*
X90419737Y-53103873D01*
X90393379Y-53106707D01*
X87353231Y-53106707D01*
X87302279Y-53120359D01*
X87276803Y-53127186D01*
X87235625Y-53150961D01*
X87235623Y-53150962D01*
X87208283Y-53166746D01*
X87208280Y-53166748D01*
X86811847Y-53563181D01*
X86750524Y-53596666D01*
X86724166Y-53599500D01*
X86628036Y-53599500D01*
X86489949Y-53640045D01*
X86368873Y-53717856D01*
X86274623Y-53826626D01*
X86274622Y-53826628D01*
X86214834Y-53957543D01*
X86194353Y-54100000D01*
X86214834Y-54242456D01*
X86278155Y-54381108D01*
X86288099Y-54450267D01*
X86259074Y-54513823D01*
X86200296Y-54551597D01*
X86130426Y-54551597D01*
X86077680Y-54520301D01*
X83841525Y-52284146D01*
X86550000Y-52284146D01*
X86556241Y-52342187D01*
X86605232Y-52473537D01*
X86689241Y-52585758D01*
X86801462Y-52669767D01*
X86932812Y-52718758D01*
X86990853Y-52724999D01*
X86990870Y-52725000D01*
X87037500Y-52725000D01*
X87537500Y-52725000D01*
X87584130Y-52725000D01*
X87584146Y-52724999D01*
X87642187Y-52718758D01*
X87773537Y-52669767D01*
X87885758Y-52585758D01*
X87969767Y-52473537D01*
X88018758Y-52342187D01*
X88024999Y-52284146D01*
X88025000Y-52284129D01*
X88025000Y-52250000D01*
X87537500Y-52250000D01*
X87537500Y-52725000D01*
X87037500Y-52725000D01*
X87037500Y-52250000D01*
X86550000Y-52250000D01*
X86550000Y-52284146D01*
X83841525Y-52284146D01*
X83463120Y-51905741D01*
X83463115Y-51905737D01*
X83461062Y-51904552D01*
X83461061Y-51904552D01*
X83394599Y-51866180D01*
X83394598Y-51866179D01*
X83369121Y-51859352D01*
X83318170Y-51845700D01*
X78859239Y-51845700D01*
X78808287Y-51859352D01*
X78782811Y-51866179D01*
X78716346Y-51904553D01*
X78716345Y-51904552D01*
X78714293Y-51905737D01*
X78714288Y-51905741D01*
X78550030Y-52070000D01*
X78410489Y-52209541D01*
X78397322Y-52222707D01*
X78389921Y-52230108D01*
X78351359Y-52253360D01*
X78352258Y-52255198D01*
X78238513Y-52310803D01*
X78232012Y-52317305D01*
X78170688Y-52350788D01*
X78100996Y-52345801D01*
X78045064Y-52303928D01*
X78029772Y-52277072D01*
X78028169Y-52273202D01*
X78028169Y-52273200D01*
X77321150Y-51566181D01*
X77287665Y-51504858D01*
X77292649Y-51435166D01*
X77334521Y-51379233D01*
X77399985Y-51354816D01*
X77408831Y-51354500D01*
X86490777Y-51354500D01*
X86557816Y-51374185D01*
G37*
%TD.AperFunction*%
%TA.AperFunction,Conductor*%
G36*
X65228206Y-50967785D02*
G01*
X65273961Y-51020589D01*
X65283905Y-51089747D01*
X65254880Y-51153303D01*
X65248848Y-51159781D01*
X64320448Y-52088181D01*
X64259125Y-52121666D01*
X64232767Y-52124500D01*
X63817055Y-52124500D01*
X63750016Y-52104815D01*
X63704261Y-52052011D01*
X63694317Y-51982853D01*
X63700873Y-51957166D01*
X63743758Y-51842187D01*
X63749999Y-51784146D01*
X63750000Y-51784129D01*
X63750000Y-51750000D01*
X62836500Y-51750000D01*
X62769461Y-51730315D01*
X62723706Y-51677511D01*
X62712500Y-51626000D01*
X62712500Y-51374000D01*
X62732185Y-51306961D01*
X62784989Y-51261206D01*
X62836500Y-51250000D01*
X63750000Y-51250000D01*
X63750000Y-51215870D01*
X63749999Y-51215853D01*
X63743758Y-51157812D01*
X63727952Y-51115434D01*
X63722968Y-51045742D01*
X63756453Y-50984419D01*
X63817776Y-50950934D01*
X63844134Y-50948100D01*
X65161167Y-50948100D01*
X65228206Y-50967785D01*
G37*
%TD.AperFunction*%
%TD*%
%TA.AperFunction,Conductor*%
%TO.N,SOA*%
G36*
X61536539Y-64283185D02*
G01*
X61582294Y-64335989D01*
X61593500Y-64387500D01*
X61593500Y-66779572D01*
X61573815Y-66846611D01*
X61521011Y-66892366D01*
X61469473Y-66903572D01*
X59769046Y-66903194D01*
X59766200Y-66903194D01*
X59766199Y-66903194D01*
X59137726Y-67531816D01*
X59124347Y-67543410D01*
X59107161Y-67556275D01*
X59107144Y-67556290D01*
X58095856Y-68567581D01*
X58034533Y-68601066D01*
X58008175Y-68603900D01*
X55574262Y-68603900D01*
X55507223Y-68584215D01*
X55486581Y-68567581D01*
X53401719Y-66482719D01*
X53368234Y-66421396D01*
X53365400Y-66395038D01*
X53365400Y-64692300D01*
X53385085Y-64625261D01*
X53437889Y-64579506D01*
X53489400Y-64568300D01*
X58419439Y-64568300D01*
X58423771Y-64568067D01*
X58444107Y-64566977D01*
X58450736Y-64566800D01*
X58572400Y-64566800D01*
X58658724Y-64480475D01*
X58672083Y-64468900D01*
X58687785Y-64457146D01*
X58845112Y-64299817D01*
X58906434Y-64266334D01*
X58932792Y-64263500D01*
X61469500Y-64263500D01*
X61536539Y-64283185D01*
G37*
%TD.AperFunction*%
%TD*%
%TA.AperFunction,Conductor*%
%TO.N,GND*%
G36*
X81155539Y-61669685D02*
G01*
X81201294Y-61722489D01*
X81212500Y-61774000D01*
X81212500Y-62625000D01*
X81309130Y-62625000D01*
X81309146Y-62624999D01*
X81367187Y-62618758D01*
X81498537Y-62569767D01*
X81610758Y-62485758D01*
X81694767Y-62373537D01*
X81743758Y-62242187D01*
X81749999Y-62184146D01*
X81750000Y-62184129D01*
X81750000Y-62107611D01*
X81769685Y-62040572D01*
X81822489Y-61994817D01*
X81891647Y-61984873D01*
X81955203Y-62013898D01*
X81961681Y-62019930D01*
X83188181Y-63246430D01*
X83221666Y-63307753D01*
X83224500Y-63334111D01*
X83224500Y-67827062D01*
X83238152Y-67878013D01*
X83244979Y-67903490D01*
X83250423Y-67912918D01*
X83250424Y-67912923D01*
X83250425Y-67912923D01*
X83284535Y-67972004D01*
X83284541Y-67972012D01*
X83588181Y-68275652D01*
X83621666Y-68336975D01*
X83624500Y-68363333D01*
X83624500Y-68915260D01*
X83627274Y-68944849D01*
X83670884Y-69069476D01*
X83749288Y-69175710D01*
X83749289Y-69175711D01*
X83850453Y-69250373D01*
X83892704Y-69306020D01*
X83898163Y-69375676D01*
X83877271Y-69417786D01*
X83879418Y-69419166D01*
X83874622Y-69426628D01*
X83814834Y-69557543D01*
X83794353Y-69700000D01*
X83814834Y-69842456D01*
X83844559Y-69907543D01*
X83874623Y-69973373D01*
X83968872Y-70082143D01*
X84089947Y-70159953D01*
X84089950Y-70159954D01*
X84089949Y-70159954D01*
X84228036Y-70200499D01*
X84228038Y-70200500D01*
X84228039Y-70200500D01*
X84371962Y-70200500D01*
X84371962Y-70200499D01*
X84499199Y-70163140D01*
X84510050Y-70159954D01*
X84510050Y-70159953D01*
X84510053Y-70159953D01*
X84631128Y-70082143D01*
X84671907Y-70035080D01*
X84730682Y-69997308D01*
X84800552Y-69997308D01*
X84859330Y-70035081D01*
X84888356Y-70098637D01*
X84889618Y-70116609D01*
X84887123Y-71072524D01*
X84867263Y-71139512D01*
X84814340Y-71185128D01*
X84763123Y-71196200D01*
X81619916Y-71196200D01*
X81552877Y-71176515D01*
X81507122Y-71123711D01*
X81497178Y-71054553D01*
X81526203Y-70990997D01*
X81546283Y-70972430D01*
X81555777Y-70965422D01*
X81575711Y-70950711D01*
X81654116Y-70844475D01*
X81684396Y-70757941D01*
X81725117Y-70701165D01*
X81758965Y-70684297D01*
X81758482Y-70683130D01*
X81765978Y-70680023D01*
X81765989Y-70680021D01*
X81834511Y-70640460D01*
X81888153Y-70586818D01*
X81949477Y-70553334D01*
X81975834Y-70550500D01*
X82071962Y-70550500D01*
X82071962Y-70550499D01*
X82210053Y-70509953D01*
X82331128Y-70432143D01*
X82425377Y-70323373D01*
X82485165Y-70192457D01*
X82505647Y-70050000D01*
X82485165Y-69907543D01*
X82425377Y-69776627D01*
X82331128Y-69667857D01*
X82210053Y-69590047D01*
X82210051Y-69590046D01*
X82210049Y-69590045D01*
X82210050Y-69590045D01*
X82071963Y-69549500D01*
X82071961Y-69549500D01*
X81928039Y-69549500D01*
X81928036Y-69549500D01*
X81789949Y-69590045D01*
X81668872Y-69667856D01*
X81609137Y-69736794D01*
X81550359Y-69774567D01*
X81480489Y-69774567D01*
X81474470Y-69772631D01*
X81344851Y-69727275D01*
X81344849Y-69727274D01*
X81315260Y-69724500D01*
X81315256Y-69724500D01*
X80709744Y-69724500D01*
X80709740Y-69724500D01*
X80680150Y-69727274D01*
X80555523Y-69770884D01*
X80449289Y-69849288D01*
X80449288Y-69849289D01*
X80370884Y-69955523D01*
X80327274Y-70080150D01*
X80324500Y-70109739D01*
X80324500Y-70690260D01*
X80327274Y-70719849D01*
X80370884Y-70844476D01*
X80449288Y-70950710D01*
X80449289Y-70950711D01*
X80478717Y-70972430D01*
X80520968Y-71028077D01*
X80526427Y-71097733D01*
X80493360Y-71159283D01*
X80432266Y-71193184D01*
X80405084Y-71196200D01*
X79874680Y-71196200D01*
X79807641Y-71176515D01*
X79761886Y-71123711D01*
X79751942Y-71054553D01*
X79780967Y-70990997D01*
X79785405Y-70986230D01*
X79869767Y-70873537D01*
X79918758Y-70742187D01*
X79924999Y-70684146D01*
X79925000Y-70684129D01*
X79925000Y-70650000D01*
X78450000Y-70650000D01*
X78450000Y-70684146D01*
X78456241Y-70742187D01*
X78505232Y-70873537D01*
X78594556Y-70992858D01*
X78593135Y-70993921D01*
X78621486Y-71045842D01*
X78616502Y-71115534D01*
X78574630Y-71171467D01*
X78509166Y-71195884D01*
X78500320Y-71196200D01*
X75460400Y-71196200D01*
X75393361Y-71176515D01*
X75347606Y-71123711D01*
X75336400Y-71072200D01*
X75336400Y-69774500D01*
X75356085Y-69707461D01*
X75408889Y-69661706D01*
X75460400Y-69650500D01*
X75571962Y-69650500D01*
X75571962Y-69650499D01*
X75710053Y-69609953D01*
X75831128Y-69532143D01*
X75925377Y-69423373D01*
X75985165Y-69292457D01*
X76005647Y-69150000D01*
X76004853Y-69144475D01*
X76000924Y-69117145D01*
X76010868Y-69047987D01*
X76056624Y-68995184D01*
X76123662Y-68975500D01*
X76275500Y-68975500D01*
X76342539Y-68995185D01*
X76388294Y-69047989D01*
X76399500Y-69099500D01*
X76399500Y-69538812D01*
X76379815Y-69605851D01*
X76363181Y-69626493D01*
X76304253Y-69685420D01*
X76255740Y-69789456D01*
X76249500Y-69836859D01*
X76249500Y-70163132D01*
X76249501Y-70163138D01*
X76255741Y-70210545D01*
X76255742Y-70210547D01*
X76255742Y-70210548D01*
X76262592Y-70225237D01*
X76304253Y-70314579D01*
X76385421Y-70395747D01*
X76489455Y-70444259D01*
X76536861Y-70450500D01*
X76863138Y-70450499D01*
X76910545Y-70444259D01*
X77014579Y-70395747D01*
X77095747Y-70314579D01*
X77144259Y-70210545D01*
X77150500Y-70163139D01*
X77150500Y-70115853D01*
X78450000Y-70115853D01*
X78450000Y-70150000D01*
X78937500Y-70150000D01*
X79437500Y-70150000D01*
X79925000Y-70150000D01*
X79925000Y-70115870D01*
X79924999Y-70115853D01*
X79918758Y-70057812D01*
X79869767Y-69926462D01*
X79785758Y-69814241D01*
X79673537Y-69730232D01*
X79542187Y-69681241D01*
X79484146Y-69675000D01*
X79437500Y-69675000D01*
X79437500Y-70150000D01*
X78937500Y-70150000D01*
X78937500Y-69675000D01*
X78890853Y-69675000D01*
X78832812Y-69681241D01*
X78701462Y-69730232D01*
X78589241Y-69814241D01*
X78505232Y-69926462D01*
X78456241Y-70057812D01*
X78450000Y-70115853D01*
X77150500Y-70115853D01*
X77150499Y-69836862D01*
X77144259Y-69789455D01*
X77095747Y-69685421D01*
X77036819Y-69626493D01*
X77003334Y-69565170D01*
X77000500Y-69538812D01*
X77000500Y-69012584D01*
X77020185Y-68945545D01*
X77072989Y-68899790D01*
X77142147Y-68889846D01*
X77205703Y-68918871D01*
X77218209Y-68931378D01*
X77218872Y-68932143D01*
X77218873Y-68932144D01*
X77238643Y-68944849D01*
X77339947Y-69009953D01*
X77339950Y-69009954D01*
X77339949Y-69009954D01*
X77439558Y-69039201D01*
X77469487Y-69047989D01*
X77478036Y-69050499D01*
X77478038Y-69050500D01*
X77478039Y-69050500D01*
X77621962Y-69050500D01*
X77621962Y-69050499D01*
X77760053Y-69009953D01*
X77881128Y-68932143D01*
X77975377Y-68823373D01*
X78035165Y-68692457D01*
X78055647Y-68550000D01*
X78035165Y-68407543D01*
X77975377Y-68276627D01*
X77881128Y-68167857D01*
X77760053Y-68090047D01*
X77760051Y-68090046D01*
X77760049Y-68090045D01*
X77760050Y-68090045D01*
X77621963Y-68049500D01*
X77621961Y-68049500D01*
X77500347Y-68049500D01*
X77438348Y-68032888D01*
X77433749Y-68030233D01*
X77415989Y-68019979D01*
X77415990Y-68019979D01*
X77377792Y-68009744D01*
X77339562Y-67999500D01*
X77339560Y-67999500D01*
X77292478Y-67999500D01*
X77225439Y-67979815D01*
X77179684Y-67927011D01*
X77175437Y-67916455D01*
X77154116Y-67855524D01*
X77154115Y-67855523D01*
X77075711Y-67749289D01*
X77075710Y-67749288D01*
X76969476Y-67670884D01*
X76844848Y-67627274D01*
X76844849Y-67627274D01*
X76815260Y-67624500D01*
X76815256Y-67624500D01*
X76109744Y-67624500D01*
X76109740Y-67624500D01*
X76080150Y-67627274D01*
X75955523Y-67670884D01*
X75849289Y-67749288D01*
X75849288Y-67749289D01*
X75770884Y-67855523D01*
X75727274Y-67980150D01*
X75724500Y-68009739D01*
X75724500Y-68528644D01*
X75704815Y-68595683D01*
X75652011Y-68641438D01*
X75582853Y-68651382D01*
X75565634Y-68647641D01*
X75564634Y-68647348D01*
X75505834Y-68609608D01*
X75476772Y-68546069D01*
X75475500Y-68528351D01*
X75475500Y-68009739D01*
X75472725Y-67980150D01*
X75429116Y-67855525D01*
X75408267Y-67827275D01*
X75360628Y-67762727D01*
X75336659Y-67697099D01*
X75336400Y-67689095D01*
X75336400Y-66374500D01*
X75356085Y-66307461D01*
X75408889Y-66261706D01*
X75460400Y-66250500D01*
X75571962Y-66250500D01*
X75571962Y-66250499D01*
X75710053Y-66209953D01*
X75831128Y-66132143D01*
X75925377Y-66023373D01*
X75985165Y-65892457D01*
X76005647Y-65750000D01*
X76004853Y-65744475D01*
X76000924Y-65717145D01*
X76010868Y-65647987D01*
X76056624Y-65595184D01*
X76123662Y-65575500D01*
X76275500Y-65575500D01*
X76342539Y-65595185D01*
X76388294Y-65647989D01*
X76399500Y-65699500D01*
X76399500Y-66138812D01*
X76379815Y-66205851D01*
X76363181Y-66226493D01*
X76304253Y-66285420D01*
X76255740Y-66389456D01*
X76249500Y-66436859D01*
X76249500Y-66763132D01*
X76249501Y-66763138D01*
X76255741Y-66810545D01*
X76255742Y-66810547D01*
X76255742Y-66810548D01*
X76263707Y-66827629D01*
X76304253Y-66914579D01*
X76385421Y-66995747D01*
X76489455Y-67044259D01*
X76536861Y-67050500D01*
X76863138Y-67050499D01*
X76910545Y-67044259D01*
X77014579Y-66995747D01*
X77095747Y-66914579D01*
X77144259Y-66810545D01*
X77150500Y-66763139D01*
X77150499Y-66436862D01*
X77144259Y-66389455D01*
X77095747Y-66285421D01*
X77036819Y-66226493D01*
X77003334Y-66165170D01*
X77000500Y-66138812D01*
X77000500Y-65612584D01*
X77020185Y-65545545D01*
X77072989Y-65499790D01*
X77142147Y-65489846D01*
X77205703Y-65518871D01*
X77218208Y-65531377D01*
X77218872Y-65532143D01*
X77218873Y-65532144D01*
X77239726Y-65545545D01*
X77339947Y-65609953D01*
X77339950Y-65609954D01*
X77339949Y-65609954D01*
X77447107Y-65641417D01*
X77469487Y-65647989D01*
X77478036Y-65650499D01*
X77478038Y-65650500D01*
X77478039Y-65650500D01*
X77621962Y-65650500D01*
X77621962Y-65650499D01*
X77760053Y-65609953D01*
X77881128Y-65532143D01*
X77881785Y-65531384D01*
X77882628Y-65530842D01*
X77887828Y-65526337D01*
X77888475Y-65527084D01*
X77940560Y-65493608D01*
X78010429Y-65493605D01*
X78069209Y-65531377D01*
X78098237Y-65594931D01*
X78099500Y-65612584D01*
X78099500Y-67902062D01*
X78103357Y-67916455D01*
X78119979Y-67978490D01*
X78119980Y-67978491D01*
X78148541Y-68027960D01*
X78148542Y-68027962D01*
X78159537Y-68047007D01*
X78159541Y-68047012D01*
X78463181Y-68350652D01*
X78496666Y-68411975D01*
X78499500Y-68438333D01*
X78499500Y-68990260D01*
X78502274Y-69019849D01*
X78545884Y-69144476D01*
X78624288Y-69250710D01*
X78624289Y-69250711D01*
X78730523Y-69329115D01*
X78730524Y-69329115D01*
X78730525Y-69329116D01*
X78855151Y-69372725D01*
X78855150Y-69372725D01*
X78884740Y-69375500D01*
X78884744Y-69375500D01*
X79590260Y-69375500D01*
X79619849Y-69372725D01*
X79628302Y-69369767D01*
X79744475Y-69329116D01*
X79850711Y-69250711D01*
X79929116Y-69144475D01*
X79956303Y-69066777D01*
X79997024Y-69010003D01*
X80061977Y-68984256D01*
X80130538Y-68997712D01*
X80180941Y-69046099D01*
X80189525Y-69064400D01*
X80230229Y-69173531D01*
X80230232Y-69173536D01*
X80314241Y-69285758D01*
X80426462Y-69369767D01*
X80557812Y-69418758D01*
X80615853Y-69424999D01*
X80615870Y-69425000D01*
X80712500Y-69425000D01*
X81212500Y-69425000D01*
X81309130Y-69425000D01*
X81309146Y-69424999D01*
X81367187Y-69418758D01*
X81498537Y-69369767D01*
X81610758Y-69285758D01*
X81694767Y-69173537D01*
X81743758Y-69042187D01*
X81749999Y-68984146D01*
X81750000Y-68984129D01*
X81750000Y-68950000D01*
X81212500Y-68950000D01*
X81212500Y-69425000D01*
X80712500Y-69425000D01*
X80712500Y-68450000D01*
X81212500Y-68450000D01*
X81750000Y-68450000D01*
X81750000Y-68415870D01*
X81749999Y-68415853D01*
X81743758Y-68357812D01*
X81694767Y-68226462D01*
X81610758Y-68114241D01*
X81498537Y-68030232D01*
X81367187Y-67981241D01*
X81309146Y-67975000D01*
X81212500Y-67975000D01*
X81212500Y-68450000D01*
X80712500Y-68450000D01*
X80712500Y-67975000D01*
X80615853Y-67975000D01*
X80557812Y-67981241D01*
X80426462Y-68030233D01*
X80426459Y-68030234D01*
X80403956Y-68047080D01*
X80338491Y-68071496D01*
X80270218Y-68056643D01*
X80220814Y-68007237D01*
X80209622Y-67963387D01*
X80206909Y-67963778D01*
X80185165Y-67812543D01*
X80161082Y-67759809D01*
X80125377Y-67681627D01*
X80031128Y-67572857D01*
X79955147Y-67524027D01*
X79909393Y-67471224D01*
X79899449Y-67402065D01*
X79906006Y-67376376D01*
X79918758Y-67342187D01*
X79924999Y-67284146D01*
X79925000Y-67284129D01*
X79925000Y-67250000D01*
X79061500Y-67250000D01*
X78994461Y-67230315D01*
X78948706Y-67177511D01*
X78937500Y-67126000D01*
X78937500Y-66750000D01*
X79437500Y-66750000D01*
X79925000Y-66750000D01*
X79925000Y-66715870D01*
X79924999Y-66715853D01*
X79924342Y-66709739D01*
X80324500Y-66709739D01*
X80324500Y-67290260D01*
X80327274Y-67319849D01*
X80370884Y-67444476D01*
X80449288Y-67550710D01*
X80449289Y-67550711D01*
X80555523Y-67629115D01*
X80555524Y-67629115D01*
X80555525Y-67629116D01*
X80680151Y-67672725D01*
X80680150Y-67672725D01*
X80709740Y-67675500D01*
X80709744Y-67675500D01*
X81315260Y-67675500D01*
X81344849Y-67672725D01*
X81368417Y-67664478D01*
X81469475Y-67629116D01*
X81575711Y-67550711D01*
X81654116Y-67444475D01*
X81684396Y-67357941D01*
X81725117Y-67301165D01*
X81758965Y-67284297D01*
X81758482Y-67283130D01*
X81765978Y-67280023D01*
X81765989Y-67280021D01*
X81834511Y-67240460D01*
X81888153Y-67186818D01*
X81949477Y-67153334D01*
X81975834Y-67150500D01*
X82071962Y-67150500D01*
X82071962Y-67150499D01*
X82210053Y-67109953D01*
X82331128Y-67032143D01*
X82425377Y-66923373D01*
X82485165Y-66792457D01*
X82505647Y-66650000D01*
X82485165Y-66507543D01*
X82425377Y-66376627D01*
X82331128Y-66267857D01*
X82210053Y-66190047D01*
X82210051Y-66190046D01*
X82210049Y-66190045D01*
X82210050Y-66190045D01*
X82071963Y-66149500D01*
X82071961Y-66149500D01*
X81928039Y-66149500D01*
X81928036Y-66149500D01*
X81789949Y-66190045D01*
X81668872Y-66267856D01*
X81609137Y-66336794D01*
X81550359Y-66374567D01*
X81480489Y-66374567D01*
X81474470Y-66372631D01*
X81344851Y-66327275D01*
X81344849Y-66327274D01*
X81315260Y-66324500D01*
X81315256Y-66324500D01*
X80709744Y-66324500D01*
X80709740Y-66324500D01*
X80680150Y-66327274D01*
X80555523Y-66370884D01*
X80449289Y-66449288D01*
X80449288Y-66449289D01*
X80370884Y-66555523D01*
X80327274Y-66680150D01*
X80324500Y-66709739D01*
X79924342Y-66709739D01*
X79918758Y-66657812D01*
X79869767Y-66526462D01*
X79785758Y-66414241D01*
X79673537Y-66330232D01*
X79542187Y-66281241D01*
X79484146Y-66275000D01*
X79437500Y-66275000D01*
X79437500Y-66750000D01*
X78937500Y-66750000D01*
X78937500Y-66275000D01*
X78890853Y-66275000D01*
X78837756Y-66280710D01*
X78768997Y-66268305D01*
X78717859Y-66220696D01*
X78700500Y-66157421D01*
X78700500Y-66092953D01*
X78720185Y-66025914D01*
X78772989Y-65980159D01*
X78842147Y-65970215D01*
X78850969Y-65971811D01*
X78855156Y-65972726D01*
X78884740Y-65975500D01*
X78884744Y-65975500D01*
X79590260Y-65975500D01*
X79619849Y-65972725D01*
X79628302Y-65969767D01*
X79744475Y-65929116D01*
X79850711Y-65850711D01*
X79929116Y-65744475D01*
X79956303Y-65666777D01*
X79997024Y-65610003D01*
X80061977Y-65584256D01*
X80130538Y-65597712D01*
X80180941Y-65646099D01*
X80189525Y-65664400D01*
X80230229Y-65773531D01*
X80230232Y-65773536D01*
X80314241Y-65885758D01*
X80426462Y-65969767D01*
X80557812Y-66018758D01*
X80615853Y-66024999D01*
X80615870Y-66025000D01*
X80712500Y-66025000D01*
X81212500Y-66025000D01*
X81309130Y-66025000D01*
X81309146Y-66024999D01*
X81367187Y-66018758D01*
X81498537Y-65969767D01*
X81610758Y-65885758D01*
X81694767Y-65773537D01*
X81743758Y-65642187D01*
X81749999Y-65584146D01*
X81750000Y-65584129D01*
X81750000Y-65550000D01*
X81212500Y-65550000D01*
X81212500Y-66025000D01*
X80712500Y-66025000D01*
X80712500Y-65050000D01*
X81212500Y-65050000D01*
X81750000Y-65050000D01*
X81750000Y-65015870D01*
X81749999Y-65015853D01*
X81743758Y-64957812D01*
X81694767Y-64826462D01*
X81610758Y-64714241D01*
X81498537Y-64630232D01*
X81367187Y-64581241D01*
X81309146Y-64575000D01*
X81212500Y-64575000D01*
X81212500Y-65050000D01*
X80712500Y-65050000D01*
X80712500Y-64575000D01*
X80615853Y-64575000D01*
X80557812Y-64581241D01*
X80426462Y-64630233D01*
X80426459Y-64630234D01*
X80403956Y-64647080D01*
X80338491Y-64671496D01*
X80270218Y-64656643D01*
X80220814Y-64607237D01*
X80208391Y-64558564D01*
X80206909Y-64558778D01*
X80201732Y-64522774D01*
X80185165Y-64407543D01*
X80125377Y-64276627D01*
X80031128Y-64167857D01*
X80031125Y-64167855D01*
X80031123Y-64167853D01*
X79956653Y-64119994D01*
X79910898Y-64067191D01*
X79900954Y-63998032D01*
X79907511Y-63972345D01*
X79918757Y-63942192D01*
X79918758Y-63942189D01*
X79924999Y-63884146D01*
X79925000Y-63884129D01*
X79925000Y-63850000D01*
X79061500Y-63850000D01*
X78994461Y-63830315D01*
X78948706Y-63777511D01*
X78937500Y-63726000D01*
X78937500Y-63350000D01*
X79437500Y-63350000D01*
X79925000Y-63350000D01*
X79925000Y-63315870D01*
X79924999Y-63315853D01*
X79924342Y-63309739D01*
X80324500Y-63309739D01*
X80324500Y-63890260D01*
X80327274Y-63919849D01*
X80370884Y-64044476D01*
X80449288Y-64150710D01*
X80449289Y-64150711D01*
X80555523Y-64229115D01*
X80555524Y-64229115D01*
X80555525Y-64229116D01*
X80680151Y-64272725D01*
X80680150Y-64272725D01*
X80709740Y-64275500D01*
X80709744Y-64275500D01*
X81315260Y-64275500D01*
X81344849Y-64272725D01*
X81358481Y-64267955D01*
X81469475Y-64229116D01*
X81575711Y-64150711D01*
X81654116Y-64044475D01*
X81684396Y-63957941D01*
X81725117Y-63901165D01*
X81758965Y-63884297D01*
X81758482Y-63883130D01*
X81765978Y-63880023D01*
X81765989Y-63880021D01*
X81834511Y-63840460D01*
X81888153Y-63786818D01*
X81949477Y-63753334D01*
X81975834Y-63750500D01*
X82071962Y-63750500D01*
X82071962Y-63750499D01*
X82179121Y-63719035D01*
X82210050Y-63709954D01*
X82210050Y-63709953D01*
X82210053Y-63709953D01*
X82331128Y-63632143D01*
X82425377Y-63523373D01*
X82485165Y-63392457D01*
X82505647Y-63250000D01*
X82485165Y-63107543D01*
X82425377Y-62976627D01*
X82331128Y-62867857D01*
X82210053Y-62790047D01*
X82210051Y-62790046D01*
X82210049Y-62790045D01*
X82210050Y-62790045D01*
X82071963Y-62749500D01*
X82071961Y-62749500D01*
X81928039Y-62749500D01*
X81928036Y-62749500D01*
X81789949Y-62790045D01*
X81668872Y-62867856D01*
X81609137Y-62936794D01*
X81550359Y-62974567D01*
X81480489Y-62974567D01*
X81474470Y-62972631D01*
X81344851Y-62927275D01*
X81344849Y-62927274D01*
X81315260Y-62924500D01*
X81315256Y-62924500D01*
X80709744Y-62924500D01*
X80709740Y-62924500D01*
X80680150Y-62927274D01*
X80555523Y-62970884D01*
X80449289Y-63049288D01*
X80449288Y-63049289D01*
X80370884Y-63155523D01*
X80327274Y-63280150D01*
X80324500Y-63309739D01*
X79924342Y-63309739D01*
X79918758Y-63257812D01*
X79869767Y-63126462D01*
X79785758Y-63014241D01*
X79673537Y-62930232D01*
X79542187Y-62881241D01*
X79484146Y-62875000D01*
X79437500Y-62875000D01*
X79437500Y-63350000D01*
X78937500Y-63350000D01*
X78937500Y-62875000D01*
X78890853Y-62875000D01*
X78837756Y-62880710D01*
X78768997Y-62868305D01*
X78717859Y-62820696D01*
X78700500Y-62757421D01*
X78700500Y-62692953D01*
X78720185Y-62625914D01*
X78772989Y-62580159D01*
X78842147Y-62570215D01*
X78850969Y-62571811D01*
X78855156Y-62572726D01*
X78884740Y-62575500D01*
X78884744Y-62575500D01*
X79590260Y-62575500D01*
X79619849Y-62572725D01*
X79628302Y-62569767D01*
X79744475Y-62529116D01*
X79850711Y-62450711D01*
X79929116Y-62344475D01*
X79956303Y-62266777D01*
X79997024Y-62210003D01*
X80061977Y-62184256D01*
X80130538Y-62197712D01*
X80180941Y-62246099D01*
X80189525Y-62264400D01*
X80230229Y-62373531D01*
X80230232Y-62373536D01*
X80314241Y-62485758D01*
X80426462Y-62569767D01*
X80557812Y-62618758D01*
X80615853Y-62624999D01*
X80615870Y-62625000D01*
X80712500Y-62625000D01*
X80712500Y-61774000D01*
X80732185Y-61706961D01*
X80784989Y-61661206D01*
X80836500Y-61650000D01*
X81088500Y-61650000D01*
X81155539Y-61669685D01*
G37*
%TD.AperFunction*%
%TA.AperFunction,Conductor*%
G36*
X84872947Y-64819366D02*
G01*
X84901973Y-64882922D01*
X84903235Y-64900894D01*
X84900433Y-65974292D01*
X84880573Y-66041280D01*
X84827650Y-66086896D01*
X84758466Y-66096659D01*
X84733099Y-66090150D01*
X84642187Y-66056241D01*
X84584146Y-66050000D01*
X84550000Y-66050000D01*
X84550000Y-66963500D01*
X84530315Y-67030539D01*
X84477511Y-67076294D01*
X84426000Y-67087500D01*
X84174000Y-67087500D01*
X84106961Y-67067815D01*
X84061206Y-67015011D01*
X84050000Y-66963500D01*
X84050000Y-66050000D01*
X84015853Y-66050000D01*
X83962756Y-66055710D01*
X83893997Y-66043305D01*
X83842859Y-65995696D01*
X83825500Y-65932421D01*
X83825500Y-65017092D01*
X83845185Y-64950053D01*
X83897989Y-64904298D01*
X83967147Y-64894354D01*
X84016540Y-64912777D01*
X84089948Y-64959954D01*
X84228036Y-65000499D01*
X84228038Y-65000500D01*
X84228039Y-65000500D01*
X84371962Y-65000500D01*
X84371962Y-65000499D01*
X84510053Y-64959953D01*
X84631128Y-64882143D01*
X84685524Y-64819365D01*
X84744299Y-64781593D01*
X84814169Y-64781593D01*
X84872947Y-64819366D01*
G37*
%TD.AperFunction*%
%TA.AperFunction,Conductor*%
G36*
X83734077Y-60293885D02*
G01*
X83754719Y-60310519D01*
X84083915Y-60639715D01*
X84117400Y-60701038D01*
X84112416Y-60770730D01*
X84070544Y-60826663D01*
X84009490Y-60850685D01*
X83957812Y-60856241D01*
X83826462Y-60905232D01*
X83714241Y-60989241D01*
X83630232Y-61101462D01*
X83581241Y-61232812D01*
X83575000Y-61290853D01*
X83575000Y-61387500D01*
X84426000Y-61387500D01*
X84493039Y-61407185D01*
X84538794Y-61459989D01*
X84550000Y-61511500D01*
X84550000Y-61763500D01*
X84530315Y-61830539D01*
X84477511Y-61876294D01*
X84426000Y-61887500D01*
X83575000Y-61887500D01*
X83575000Y-61984146D01*
X83581241Y-62042187D01*
X83630232Y-62173537D01*
X83714241Y-62285758D01*
X83826462Y-62369767D01*
X83935599Y-62410473D01*
X83991532Y-62452345D01*
X84015949Y-62517809D01*
X84001097Y-62586082D01*
X83951692Y-62635487D01*
X83933221Y-62643696D01*
X83855523Y-62670884D01*
X83749289Y-62749288D01*
X83749285Y-62749292D01*
X83746390Y-62753215D01*
X83690739Y-62795460D01*
X83621083Y-62800912D01*
X83559536Y-62767840D01*
X83558946Y-62767253D01*
X81277574Y-60485881D01*
X81244089Y-60424558D01*
X81249073Y-60354866D01*
X81290945Y-60298933D01*
X81356409Y-60274516D01*
X81365255Y-60274200D01*
X83667038Y-60274200D01*
X83734077Y-60293885D01*
G37*
%TD.AperFunction*%
%TA.AperFunction,Conductor*%
G36*
X80649920Y-60712177D02*
G01*
X80670562Y-60728811D01*
X80905070Y-60963319D01*
X80938555Y-61024642D01*
X80933571Y-61094334D01*
X80891699Y-61150267D01*
X80826235Y-61174684D01*
X80817389Y-61175000D01*
X80615853Y-61175000D01*
X80557812Y-61181241D01*
X80426462Y-61230233D01*
X80426459Y-61230234D01*
X80403956Y-61247080D01*
X80338491Y-61271496D01*
X80270218Y-61256643D01*
X80220814Y-61207237D01*
X80208391Y-61158564D01*
X80206909Y-61158778D01*
X80197643Y-61094334D01*
X80185165Y-61007543D01*
X80125377Y-60876627D01*
X80121693Y-60868560D01*
X80124971Y-60867062D01*
X80110130Y-60816442D01*
X80129842Y-60749410D01*
X80182664Y-60703677D01*
X80234130Y-60692492D01*
X80582881Y-60692492D01*
X80649920Y-60712177D01*
G37*
%TD.AperFunction*%
%TA.AperFunction,Conductor*%
G36*
X77053877Y-51657885D02*
G01*
X77074519Y-51674519D01*
X77738481Y-52338481D01*
X77771966Y-52399804D01*
X77774800Y-52426162D01*
X77774800Y-56383745D01*
X77755115Y-56450784D01*
X77702311Y-56496539D01*
X77633153Y-56506483D01*
X77569597Y-56477458D01*
X77563119Y-56471426D01*
X76720381Y-55628688D01*
X76686896Y-55567365D01*
X76685323Y-55558644D01*
X76685165Y-55557545D01*
X76685165Y-55557543D01*
X76634280Y-55446123D01*
X76624337Y-55376965D01*
X76653362Y-55313409D01*
X76672765Y-55295345D01*
X76785757Y-55210760D01*
X76869767Y-55098537D01*
X76918758Y-54967187D01*
X76924999Y-54909146D01*
X76925000Y-54909129D01*
X76925000Y-54862500D01*
X76454000Y-54862500D01*
X76454000Y-54362500D01*
X76925000Y-54362500D01*
X76925000Y-54315870D01*
X76924999Y-54315853D01*
X76918758Y-54257812D01*
X76869767Y-54126462D01*
X76785758Y-54014241D01*
X76673537Y-53930232D01*
X76534923Y-53878532D01*
X76536102Y-53875368D01*
X76488682Y-53848303D01*
X76456359Y-53786360D01*
X76454000Y-53762289D01*
X76454000Y-53583749D01*
X76473685Y-53516710D01*
X76526489Y-53470955D01*
X76537045Y-53466708D01*
X76555424Y-53460276D01*
X76644475Y-53429116D01*
X76750711Y-53350711D01*
X76829116Y-53244475D01*
X76872725Y-53119849D01*
X76875500Y-53090256D01*
X76875500Y-52484744D01*
X76872725Y-52455151D01*
X76829116Y-52330525D01*
X76750711Y-52224289D01*
X76750710Y-52224288D01*
X76644476Y-52145884D01*
X76644477Y-52145884D01*
X76537044Y-52108291D01*
X76480268Y-52067569D01*
X76454522Y-52002616D01*
X76454000Y-51991250D01*
X76454000Y-51762200D01*
X76473685Y-51695161D01*
X76526489Y-51649406D01*
X76578000Y-51638200D01*
X76986838Y-51638200D01*
X77053877Y-51657885D01*
G37*
%TD.AperFunction*%
%TD*%
%TA.AperFunction,Conductor*%
%TO.N,HSB*%
G36*
X64484439Y-60522485D02*
G01*
X64530194Y-60575289D01*
X64541400Y-60626800D01*
X64541400Y-61645800D01*
X67084400Y-61645800D01*
X67151439Y-61665485D01*
X67197194Y-61718289D01*
X67208400Y-61769800D01*
X67208400Y-63884000D01*
X67188715Y-63951039D01*
X67135911Y-63996794D01*
X67084400Y-64008000D01*
X58775599Y-64008000D01*
X58507119Y-64276481D01*
X58445796Y-64309966D01*
X58419438Y-64312800D01*
X53489400Y-64312800D01*
X53422361Y-64293115D01*
X53376606Y-64240311D01*
X53365400Y-64188800D01*
X53365400Y-61211000D01*
X53385085Y-61143961D01*
X53437889Y-61098206D01*
X53489400Y-61087000D01*
X58826400Y-61087000D01*
X59374281Y-60539119D01*
X59435604Y-60505634D01*
X59461962Y-60502800D01*
X64417400Y-60502800D01*
X64484439Y-60522485D01*
G37*
%TD.AperFunction*%
%TD*%
%TA.AperFunction,Conductor*%
%TO.N,SOC*%
G36*
X57091539Y-54656585D02*
G01*
X57137294Y-54709389D01*
X57148500Y-54760900D01*
X57148500Y-56666841D01*
X57149822Y-56691508D01*
X57150000Y-56698144D01*
X57150000Y-56819800D01*
X57236314Y-56906114D01*
X57247901Y-56919486D01*
X57259649Y-56935180D01*
X57259662Y-56935195D01*
X57479818Y-57155350D01*
X57697051Y-57372583D01*
X57711119Y-57385476D01*
X57713449Y-57387611D01*
X57734407Y-57405204D01*
X57734158Y-57405499D01*
X57743443Y-57413243D01*
X57810400Y-57480200D01*
X57921376Y-57480200D01*
X57943910Y-57482265D01*
X57948357Y-57483086D01*
X57950230Y-57483433D01*
X58248658Y-57495369D01*
X58314855Y-57517717D01*
X58358463Y-57572307D01*
X58367700Y-57619270D01*
X58367700Y-60635241D01*
X58367863Y-60644356D01*
X58368179Y-60653205D01*
X58368366Y-60654809D01*
X58369200Y-60669166D01*
X58369200Y-60707500D01*
X58349515Y-60774539D01*
X58296711Y-60820294D01*
X58245200Y-60831500D01*
X53489400Y-60831500D01*
X53422361Y-60811815D01*
X53376606Y-60759011D01*
X53365400Y-60707500D01*
X53365400Y-55555462D01*
X53385085Y-55488423D01*
X53401715Y-55467785D01*
X54196281Y-54673218D01*
X54257604Y-54639734D01*
X54283962Y-54636900D01*
X57024500Y-54636900D01*
X57091539Y-54656585D01*
G37*
%TD.AperFunction*%
%TD*%
M02*
