%TF.GenerationSoftware,KiCad,Pcbnew,8.0.9-8.0.9-0~ubuntu22.04.1*%
%TF.CreationDate,2025-03-29T20:24:42+09:00*%
%TF.ProjectId,blmd_hardware,626c6d64-5f68-4617-9264-776172652e6b,rev?*%
%TF.SameCoordinates,Original*%
%TF.FileFunction,Legend,Bot*%
%TF.FilePolarity,Positive*%
%FSLAX46Y46*%
G04 Gerber Fmt 4.6, Leading zero omitted, Abs format (unit mm)*
G04 Created by KiCad (PCBNEW 8.0.9-8.0.9-0~ubuntu22.04.1) date 2025-03-29 20:24:42*
%MOMM*%
%LPD*%
G01*
G04 APERTURE LIST*
G04 Aperture macros list*
%AMRoundRect*
0 Rectangle with rounded corners*
0 $1 Rounding radius*
0 $2 $3 $4 $5 $6 $7 $8 $9 X,Y pos of 4 corners*
0 Add a 4 corners polygon primitive as box body*
4,1,4,$2,$3,$4,$5,$6,$7,$8,$9,$2,$3,0*
0 Add four circle primitives for the rounded corners*
1,1,$1+$1,$2,$3*
1,1,$1+$1,$4,$5*
1,1,$1+$1,$6,$7*
1,1,$1+$1,$8,$9*
0 Add four rect primitives between the rounded corners*
20,1,$1+$1,$2,$3,$4,$5,0*
20,1,$1+$1,$4,$5,$6,$7,0*
20,1,$1+$1,$6,$7,$8,$9,0*
20,1,$1+$1,$8,$9,$2,$3,0*%
G04 Aperture macros list end*
%ADD10C,0.200000*%
%ADD11C,0.150000*%
%ADD12C,0.508000*%
%ADD13C,0.000000*%
%ADD14C,0.120000*%
%ADD15R,1.700000X1.700000*%
%ADD16O,1.700000X1.700000*%
%ADD17R,2.000000X2.000000*%
%ADD18C,2.000000*%
%ADD19C,1.400000*%
%ADD20R,3.000000X3.000000*%
%ADD21C,3.000000*%
%ADD22RoundRect,0.237500X0.300000X0.237500X-0.300000X0.237500X-0.300000X-0.237500X0.300000X-0.237500X0*%
%ADD23RoundRect,0.237500X0.250000X0.237500X-0.250000X0.237500X-0.250000X-0.237500X0.250000X-0.237500X0*%
%ADD24R,0.760000X1.600000*%
%ADD25RoundRect,0.250000X0.250000X0.250000X-0.250000X0.250000X-0.250000X-0.250000X0.250000X-0.250000X0*%
%ADD26RoundRect,0.237500X-0.300000X-0.237500X0.300000X-0.237500X0.300000X0.237500X-0.300000X0.237500X0*%
%ADD27RoundRect,0.237500X-0.237500X0.250000X-0.237500X-0.250000X0.237500X-0.250000X0.237500X0.250000X0*%
%ADD28RoundRect,0.162500X0.162500X-0.362500X0.162500X0.362500X-0.162500X0.362500X-0.162500X-0.362500X0*%
%ADD29RoundRect,0.237500X-0.250000X-0.237500X0.250000X-0.237500X0.250000X0.237500X-0.250000X0.237500X0*%
G04 APERTURE END LIST*
D10*
G36*
X84699106Y-53085278D02*
G01*
X84785643Y-53132281D01*
X84835398Y-53161420D01*
X84927792Y-53206042D01*
X84974198Y-53241213D01*
X84954170Y-53271988D01*
X84934142Y-53301786D01*
X84950751Y-53354054D01*
X85460730Y-54691039D01*
X85474527Y-54723339D01*
X85538565Y-54808061D01*
X85630366Y-54857482D01*
X85736724Y-54871779D01*
X85755775Y-54928932D01*
X85736724Y-54985596D01*
X85633600Y-54982749D01*
X85532220Y-54981547D01*
X85424582Y-54981200D01*
X85411817Y-54981200D01*
X85304827Y-54981200D01*
X85202626Y-54981200D01*
X85103158Y-54981200D01*
X85087038Y-54926489D01*
X85103158Y-54871779D01*
X85150557Y-54870161D01*
X85248316Y-54849024D01*
X85305392Y-54768220D01*
X85291714Y-54711067D01*
X85141749Y-54301227D01*
X85100716Y-54262149D01*
X84585364Y-54262149D01*
X84539934Y-54294389D01*
X84402670Y-54708624D01*
X84388992Y-54779943D01*
X84421965Y-54848820D01*
X84520884Y-54871779D01*
X84539934Y-54926489D01*
X84520884Y-54981200D01*
X84455184Y-54981200D01*
X84352063Y-54981200D01*
X84243454Y-54981200D01*
X84142307Y-54981200D01*
X84091405Y-54981200D01*
X83982402Y-54981200D01*
X83881049Y-54981200D01*
X83777408Y-54981200D01*
X83758357Y-54926489D01*
X83777408Y-54871779D01*
X83817710Y-54870362D01*
X83921046Y-54849110D01*
X84004957Y-54795586D01*
X84056334Y-54710578D01*
X84263572Y-54120976D01*
X84604415Y-54120976D01*
X84644470Y-54152728D01*
X85046983Y-54152728D01*
X85074338Y-54136119D01*
X85068964Y-54112672D01*
X84853054Y-53518185D01*
X84830095Y-53496203D01*
X84808113Y-53518185D01*
X84610276Y-54101925D01*
X84604415Y-54120976D01*
X84263572Y-54120976D01*
X84529188Y-53365289D01*
X84539360Y-53336080D01*
X84572837Y-53235902D01*
X84600507Y-53139608D01*
X84661079Y-53074151D01*
X84699106Y-53085278D01*
G37*
G36*
X83356822Y-53791248D02*
G01*
X83376228Y-53805197D01*
X83462335Y-53855240D01*
X83528561Y-53887280D01*
X83621459Y-53925948D01*
X83724652Y-53949518D01*
X83744191Y-54004228D01*
X83724652Y-54058939D01*
X83681822Y-54065207D01*
X83613515Y-54135725D01*
X83598623Y-54237236D01*
X83598623Y-55509253D01*
X83644956Y-55600494D01*
X83741260Y-55622093D01*
X83764219Y-55682176D01*
X83741260Y-55742749D01*
X83637689Y-55735474D01*
X83538599Y-55732402D01*
X83434980Y-55731514D01*
X83392675Y-55731608D01*
X83289810Y-55732783D01*
X83191386Y-55735711D01*
X83088643Y-55742260D01*
X83069593Y-55682176D01*
X83088643Y-55622093D01*
X83134096Y-55620314D01*
X83234090Y-55593638D01*
X83282572Y-55508276D01*
X83282572Y-55017836D01*
X83257660Y-54980711D01*
X83238609Y-54986084D01*
X83164089Y-55006667D01*
X83064219Y-55012463D01*
X83039789Y-55012222D01*
X82937269Y-55005190D01*
X82837587Y-54985956D01*
X82745238Y-54950913D01*
X82696177Y-54921328D01*
X82612531Y-54844563D01*
X82557572Y-54762673D01*
X82516017Y-54664491D01*
X82487867Y-54550019D01*
X82474999Y-54446712D01*
X82474339Y-54429211D01*
X82790667Y-54429211D01*
X82794686Y-54513562D01*
X82810512Y-54610675D01*
X82841470Y-54709113D01*
X82876746Y-54784677D01*
X82940869Y-54865923D01*
X83037841Y-54903042D01*
X83066503Y-54902399D01*
X83163330Y-54886966D01*
X83249907Y-54832146D01*
X83282572Y-54738422D01*
X83282572Y-54131723D01*
X83265964Y-54034514D01*
X83251917Y-54013737D01*
X83175809Y-53943800D01*
X83074966Y-53918255D01*
X82988684Y-53933818D01*
X82905950Y-53989085D01*
X82872739Y-54033705D01*
X82831309Y-54123701D01*
X82806879Y-54221230D01*
X82794720Y-54318780D01*
X82790667Y-54429211D01*
X82474339Y-54429211D01*
X82470709Y-54332979D01*
X82475968Y-54244563D01*
X82496164Y-54147247D01*
X82538870Y-54045824D01*
X82602192Y-53957444D01*
X82686131Y-53882107D01*
X82727612Y-53856495D01*
X82822237Y-53818293D01*
X82920696Y-53798759D01*
X83018790Y-53793202D01*
X83110625Y-53803460D01*
X83142021Y-53814630D01*
X83225908Y-53869406D01*
X83263033Y-53892365D01*
X83282572Y-53861590D01*
X83277199Y-53802484D01*
X83319697Y-53777571D01*
X83356822Y-53791248D01*
G37*
G36*
X81729676Y-54992435D02*
G01*
X81832695Y-54985160D01*
X81934474Y-54981902D01*
X82016906Y-54981200D01*
X82121066Y-54982088D01*
X82222026Y-54985160D01*
X82322651Y-54991743D01*
X82330025Y-54992435D01*
X82350542Y-54932351D01*
X82330025Y-54871779D01*
X82232238Y-54852798D01*
X82185922Y-54772616D01*
X82185922Y-54224535D01*
X82203645Y-54123625D01*
X82282413Y-54061526D01*
X82311951Y-54058939D01*
X82334910Y-54004228D01*
X82311951Y-53949518D01*
X82214620Y-53926193D01*
X82122905Y-53887925D01*
X82056473Y-53856217D01*
X81967816Y-53807150D01*
X81941191Y-53787829D01*
X81898692Y-53773663D01*
X81863033Y-53810788D01*
X81868710Y-53913757D01*
X81871207Y-54015791D01*
X81871337Y-54044772D01*
X81871337Y-54769685D01*
X81821396Y-54854929D01*
X81729676Y-54871779D01*
X81710625Y-54932351D01*
X81729676Y-54992435D01*
G37*
G36*
X81860102Y-53353565D02*
G01*
X81885759Y-53449787D01*
X81941191Y-53506461D01*
X82035602Y-53541810D01*
X82059404Y-53543098D01*
X82156825Y-53521177D01*
X82220116Y-53465428D01*
X82255539Y-53371395D01*
X82255775Y-53356985D01*
X82228222Y-53258335D01*
X82177618Y-53207508D01*
X82087100Y-53169834D01*
X82059404Y-53167941D01*
X81959940Y-53189723D01*
X81895761Y-53245121D01*
X81860659Y-53339689D01*
X81860102Y-53353565D01*
G37*
G36*
X81222628Y-55012463D02*
G01*
X81329287Y-55005971D01*
X81425050Y-54986497D01*
X81518673Y-54949631D01*
X81552356Y-54930397D01*
X81577813Y-54835800D01*
X81588289Y-54736919D01*
X81590946Y-54628513D01*
X81542586Y-54603600D01*
X81486410Y-54625582D01*
X81451270Y-54721594D01*
X81394087Y-54798994D01*
X81314695Y-54866361D01*
X81215853Y-54900502D01*
X81177199Y-54903042D01*
X81082402Y-54871718D01*
X81053612Y-54847354D01*
X81008893Y-54757221D01*
X81008183Y-54743307D01*
X81036120Y-54642310D01*
X81110004Y-54571632D01*
X81202358Y-54529584D01*
X81244610Y-54517138D01*
X81342894Y-54485542D01*
X81436844Y-54440617D01*
X81519108Y-54378836D01*
X81571407Y-54313928D01*
X81606030Y-54221397D01*
X81611463Y-54146377D01*
X81595070Y-54045155D01*
X81545891Y-53957093D01*
X81472733Y-53888457D01*
X81388459Y-53838225D01*
X81293787Y-53806597D01*
X81188715Y-53793574D01*
X81166452Y-53793202D01*
X81064681Y-53797973D01*
X80961659Y-53814240D01*
X80867987Y-53842051D01*
X80837673Y-53936672D01*
X80818954Y-54033575D01*
X80814743Y-54101925D01*
X80857241Y-54125861D01*
X80903647Y-54112183D01*
X80954413Y-54024474D01*
X81013556Y-53958310D01*
X81101510Y-53911814D01*
X81185503Y-53902623D01*
X81281674Y-53932706D01*
X81321302Y-53972477D01*
X81351588Y-54058450D01*
X81313536Y-54156123D01*
X81232478Y-54213482D01*
X81135208Y-54248241D01*
X81121023Y-54251890D01*
X81019449Y-54282879D01*
X80925103Y-54324674D01*
X80838442Y-54385728D01*
X80814743Y-54410648D01*
X80765713Y-54499341D01*
X80745517Y-54601683D01*
X80744401Y-54626070D01*
X80759141Y-54732822D01*
X80803362Y-54825930D01*
X80877065Y-54905395D01*
X80895343Y-54919650D01*
X80983556Y-54968594D01*
X81084555Y-54999411D01*
X81186384Y-55011647D01*
X81222628Y-55012463D01*
G37*
G36*
X63065854Y-55236704D02*
G01*
X63080164Y-55275473D01*
X63056075Y-55318856D01*
X63016416Y-55325054D01*
X62948517Y-55325054D01*
X62948517Y-55990127D01*
X63016416Y-55990127D01*
X63065854Y-56002649D01*
X63080164Y-56041418D01*
X63056075Y-56084802D01*
X63016416Y-56091000D01*
X62524755Y-56091000D01*
X62471933Y-56088680D01*
X62422293Y-56080585D01*
X62361818Y-56061779D01*
X62308824Y-56035034D01*
X62264354Y-56001682D01*
X62229450Y-55963053D01*
X62205153Y-55920478D01*
X62191286Y-55863739D01*
X62190875Y-55852130D01*
X62190875Y-55850420D01*
X62191513Y-55846757D01*
X62302983Y-55846757D01*
X62302983Y-55847978D01*
X62319029Y-55897888D01*
X62355384Y-55934137D01*
X62398747Y-55958501D01*
X62451670Y-55976550D01*
X62511977Y-55987345D01*
X62564078Y-55990127D01*
X62836165Y-55990127D01*
X62836165Y-55691907D01*
X62541608Y-55691907D01*
X62492295Y-55694383D01*
X62436300Y-55706428D01*
X62388054Y-55726952D01*
X62342615Y-55760559D01*
X62313346Y-55801399D01*
X62302983Y-55846757D01*
X62191513Y-55846757D01*
X62200334Y-55796146D01*
X62227081Y-55745337D01*
X62260813Y-55707621D01*
X62303439Y-55675805D01*
X62353546Y-55651475D01*
X62409717Y-55636219D01*
X62363299Y-55619009D01*
X62319008Y-55593050D01*
X62277767Y-55557246D01*
X62246407Y-55512071D01*
X62231757Y-55457997D01*
X62231445Y-55448885D01*
X62343771Y-55448885D01*
X62343771Y-55449618D01*
X62358327Y-55496571D01*
X62392539Y-55532381D01*
X62434971Y-55557274D01*
X62488929Y-55576193D01*
X62539680Y-55586101D01*
X62596583Y-55590595D01*
X62611706Y-55590790D01*
X62836165Y-55590790D01*
X62836165Y-55325054D01*
X62566765Y-55325054D01*
X62508039Y-55328711D01*
X62456494Y-55340000D01*
X62405718Y-55361874D01*
X62364230Y-55396163D01*
X62344036Y-55442746D01*
X62343771Y-55448885D01*
X62231445Y-55448885D01*
X62231420Y-55448152D01*
X62241579Y-55394497D01*
X62270547Y-55344473D01*
X62305743Y-55308571D01*
X62350368Y-55277570D01*
X62403264Y-55252613D01*
X62463271Y-55234846D01*
X62512245Y-55226928D01*
X62564078Y-55224182D01*
X63016416Y-55224182D01*
X63065854Y-55236704D01*
G37*
G36*
X61273011Y-56025787D02*
G01*
X61273011Y-55901956D01*
X61284616Y-55852257D01*
X61328454Y-55836987D01*
X61375234Y-55853945D01*
X61385363Y-55901956D01*
X61385363Y-55990127D01*
X61816207Y-55990127D01*
X61816207Y-55325054D01*
X61714846Y-55325054D01*
X61665730Y-55312949D01*
X61651099Y-55275473D01*
X61674638Y-55230593D01*
X61714846Y-55224182D01*
X61996458Y-55224182D01*
X62045896Y-55236704D01*
X62060206Y-55275473D01*
X62036117Y-55318856D01*
X61996458Y-55325054D01*
X61928559Y-55325054D01*
X61928559Y-55990127D01*
X61996458Y-55990127D01*
X62045896Y-56002649D01*
X62060206Y-56041418D01*
X62036117Y-56084802D01*
X61996458Y-56091000D01*
X61337002Y-56091000D01*
X61288034Y-56078125D01*
X61273052Y-56030164D01*
X61273011Y-56025787D01*
G37*
G36*
X59979501Y-56041418D02*
G01*
X60002948Y-55996539D01*
X60043248Y-55990127D01*
X60111148Y-55990127D01*
X60111148Y-55325054D01*
X60043248Y-55325054D01*
X59994132Y-55312949D01*
X59979501Y-55275473D01*
X60002948Y-55230593D01*
X60043248Y-55224182D01*
X60177582Y-55224182D01*
X60226653Y-55232201D01*
X60261530Y-55268255D01*
X60265998Y-55277671D01*
X60565439Y-55959108D01*
X60865125Y-55280602D01*
X60893279Y-55239295D01*
X60940402Y-55224520D01*
X60953297Y-55224182D01*
X61087630Y-55224182D01*
X61137300Y-55236704D01*
X61151622Y-55275473D01*
X61127503Y-55318856D01*
X61087630Y-55325054D01*
X61019975Y-55325054D01*
X61019975Y-55990127D01*
X61087630Y-55990127D01*
X61137300Y-56002649D01*
X61151622Y-56041418D01*
X61127503Y-56084802D01*
X61087630Y-56091000D01*
X60858042Y-56091000D01*
X60808926Y-56078895D01*
X60794295Y-56041418D01*
X60817834Y-55996539D01*
X60858042Y-55990127D01*
X60925942Y-55990127D01*
X60932292Y-55325787D01*
X60933757Y-55326519D01*
X60634072Y-56018948D01*
X60607306Y-56060109D01*
X60565439Y-56075612D01*
X60519484Y-56055417D01*
X60496807Y-56022123D01*
X60197365Y-55326275D01*
X60198587Y-55325542D01*
X60205181Y-55990127D01*
X60272836Y-55990127D01*
X60321952Y-56002292D01*
X60336584Y-56039953D01*
X60313136Y-56084619D01*
X60272836Y-56091000D01*
X60043248Y-56091000D01*
X59994132Y-56078895D01*
X59979501Y-56041418D01*
G37*
G36*
X59840871Y-55236704D02*
G01*
X59855181Y-55275473D01*
X59831093Y-55318856D01*
X59791434Y-55325054D01*
X59723534Y-55325054D01*
X59723534Y-55990127D01*
X59791434Y-55990127D01*
X59840871Y-56002649D01*
X59855181Y-56041418D01*
X59831093Y-56084802D01*
X59791434Y-56091000D01*
X59340561Y-56091000D01*
X59270954Y-56086009D01*
X59204699Y-56071554D01*
X59142559Y-56048410D01*
X59085297Y-56017352D01*
X59033677Y-55979155D01*
X58988461Y-55934595D01*
X58950413Y-55884446D01*
X58920296Y-55829484D01*
X58898873Y-55770484D01*
X58886907Y-55708222D01*
X58884560Y-55665284D01*
X58884677Y-55663819D01*
X58996912Y-55663819D01*
X59001044Y-55713239D01*
X59018742Y-55775540D01*
X59049166Y-55832495D01*
X59079547Y-55870889D01*
X59115798Y-55904943D01*
X59157363Y-55934086D01*
X59203691Y-55957748D01*
X59254228Y-55975355D01*
X59308422Y-55986339D01*
X59365718Y-55990127D01*
X59611182Y-55990127D01*
X59611182Y-55325054D01*
X59367184Y-55325054D01*
X59308046Y-55329179D01*
X59252656Y-55341080D01*
X59201467Y-55360044D01*
X59154930Y-55385358D01*
X59113497Y-55416311D01*
X59077619Y-55452189D01*
X59047748Y-55492281D01*
X59024336Y-55535874D01*
X59007833Y-55582255D01*
X58998693Y-55630712D01*
X58996912Y-55663819D01*
X58884677Y-55663819D01*
X58889867Y-55598640D01*
X58905252Y-55534969D01*
X58929906Y-55475052D01*
X58963025Y-55419671D01*
X59003801Y-55369611D01*
X59051427Y-55325652D01*
X59105097Y-55288577D01*
X59164004Y-55259169D01*
X59227343Y-55238211D01*
X59294305Y-55226484D01*
X59340561Y-55224182D01*
X59791434Y-55224182D01*
X59840871Y-55236704D01*
G37*
G36*
X57851750Y-55209174D02*
G01*
X57884141Y-55251537D01*
X58146947Y-55990127D01*
X58205809Y-55990127D01*
X58254925Y-56002292D01*
X58269557Y-56039953D01*
X58246109Y-56084619D01*
X58205809Y-56091000D01*
X57983304Y-56091000D01*
X57935459Y-56080621D01*
X57918091Y-56041418D01*
X57940289Y-55997817D01*
X57983304Y-55990127D01*
X58028245Y-55990127D01*
X57977686Y-55848222D01*
X57601064Y-55848222D01*
X57550506Y-55990127D01*
X57595446Y-55990127D01*
X57643291Y-56000557D01*
X57660659Y-56039953D01*
X57635930Y-56084619D01*
X57595446Y-56091000D01*
X57372697Y-56091000D01*
X57323581Y-56078895D01*
X57308949Y-56041418D01*
X57332488Y-55996539D01*
X57372697Y-55990127D01*
X57431559Y-55990127D01*
X57518283Y-55747106D01*
X57637212Y-55747106D01*
X57941538Y-55747106D01*
X57790108Y-55320902D01*
X57637212Y-55747106D01*
X57518283Y-55747106D01*
X57694609Y-55253002D01*
X57723226Y-55211096D01*
X57773182Y-55200003D01*
X57775942Y-55200002D01*
X57802564Y-55200002D01*
X57851750Y-55209174D01*
G37*
G36*
X57227961Y-55478260D02*
G01*
X57242271Y-55517029D01*
X57218274Y-55560626D01*
X57178524Y-55566854D01*
X57110624Y-55566854D01*
X57110624Y-56309841D01*
X57178524Y-56309841D01*
X57227961Y-56322363D01*
X57242271Y-56361132D01*
X57218274Y-56404729D01*
X57178524Y-56410958D01*
X56930617Y-56410958D01*
X56881502Y-56398793D01*
X56866870Y-56361132D01*
X56890317Y-56316252D01*
X56930617Y-56309841D01*
X56998517Y-56309841D01*
X56998517Y-56036045D01*
X56956472Y-56068897D01*
X56910773Y-56090608D01*
X56860311Y-56103479D01*
X56818754Y-56106631D01*
X56756141Y-56100245D01*
X56696900Y-56081833D01*
X56642684Y-56052509D01*
X56595150Y-56013391D01*
X56555950Y-55965595D01*
X56526739Y-55910237D01*
X56509171Y-55848433D01*
X56504632Y-55798522D01*
X56504902Y-55781300D01*
X56504902Y-55783009D01*
X56504962Y-55781959D01*
X56601737Y-55781959D01*
X56611856Y-55839633D01*
X56633964Y-55891261D01*
X56666045Y-55934882D01*
X56706198Y-55969192D01*
X56752523Y-55992891D01*
X56803119Y-56004674D01*
X56824127Y-56005759D01*
X56873307Y-55997803D01*
X56922003Y-55970712D01*
X56959087Y-55930311D01*
X56984181Y-55882772D01*
X56996908Y-55834270D01*
X56998517Y-55811586D01*
X56998517Y-55714866D01*
X56986289Y-55664530D01*
X56953286Y-55621293D01*
X56912650Y-55592498D01*
X56864286Y-55573628D01*
X56811671Y-55566854D01*
X56758923Y-55573958D01*
X56712146Y-55593916D01*
X56672300Y-55624699D01*
X56640348Y-55664277D01*
X56617251Y-55710622D01*
X56603970Y-55761705D01*
X56601737Y-55781959D01*
X56504962Y-55781959D01*
X56508500Y-55720219D01*
X56524296Y-55661205D01*
X56551004Y-55607382D01*
X56587334Y-55560168D01*
X56631999Y-55520980D01*
X56683711Y-55491234D01*
X56741181Y-55472348D01*
X56803122Y-55465738D01*
X56854673Y-55469833D01*
X56906681Y-55482194D01*
X56955759Y-55502935D01*
X56998517Y-55532172D01*
X57008075Y-55482673D01*
X57056473Y-55465822D01*
X57062264Y-55465738D01*
X57178524Y-55465738D01*
X57227961Y-55478260D01*
G37*
G36*
X56063555Y-56041418D02*
G01*
X56087827Y-55996539D01*
X56128768Y-55990127D01*
X56182746Y-55990127D01*
X56182746Y-55531195D01*
X56193417Y-55483404D01*
X56241733Y-55465796D01*
X56246493Y-55465738D01*
X56355670Y-55465738D01*
X56403514Y-55476167D01*
X56420882Y-55515563D01*
X56398685Y-55559164D01*
X56355670Y-55566854D01*
X56294853Y-55566854D01*
X56294853Y-55990127D01*
X56362753Y-55990127D01*
X56412190Y-56002649D01*
X56426500Y-56041418D01*
X56402503Y-56084802D01*
X56362753Y-56091000D01*
X56127547Y-56091000D01*
X56078264Y-56078895D01*
X56063555Y-56041418D01*
G37*
G36*
X56160275Y-55309911D02*
G01*
X56178712Y-55261180D01*
X56223060Y-55233662D01*
X56238189Y-55231997D01*
X56286907Y-55249069D01*
X56315029Y-55292247D01*
X56317323Y-55309911D01*
X56298887Y-55358542D01*
X56254539Y-55385926D01*
X56239410Y-55387580D01*
X56190692Y-55370597D01*
X56162570Y-55327559D01*
X56160275Y-55309911D01*
G37*
G36*
X55497156Y-55911969D02*
G01*
X55504674Y-55858607D01*
X55531492Y-55806486D01*
X55571234Y-55768445D01*
X55617006Y-55742209D01*
X55670189Y-55723103D01*
X55714776Y-55712912D01*
X55762828Y-55703733D01*
X55811651Y-55692545D01*
X55860019Y-55674321D01*
X55891063Y-55635691D01*
X55891852Y-55626205D01*
X55871174Y-55581400D01*
X55823339Y-55558640D01*
X55770780Y-55551611D01*
X55752634Y-55551223D01*
X55700517Y-55557454D01*
X55658671Y-55585042D01*
X55645656Y-55628404D01*
X55625180Y-55673570D01*
X55590212Y-55681893D01*
X55543633Y-55663862D01*
X55533548Y-55614482D01*
X55533548Y-55515563D01*
X55543978Y-55467132D01*
X55583374Y-55450106D01*
X55626710Y-55472760D01*
X55627826Y-55475263D01*
X55675672Y-55457627D01*
X55724905Y-55450900D01*
X55749947Y-55450106D01*
X55803853Y-55453111D01*
X55862804Y-55465372D01*
X55908448Y-55485101D01*
X55949219Y-55516998D01*
X55978370Y-55560361D01*
X55991917Y-55608820D01*
X55992969Y-55626205D01*
X55982436Y-55683435D01*
X55954858Y-55726863D01*
X55916268Y-55758502D01*
X55863915Y-55783741D01*
X55814813Y-55798380D01*
X55783897Y-55804991D01*
X55734950Y-55814832D01*
X55697679Y-55821111D01*
X55650707Y-55838542D01*
X55612187Y-55869566D01*
X55598028Y-55911969D01*
X55613240Y-55961037D01*
X55655520Y-55991697D01*
X55704146Y-56003672D01*
X55740178Y-56005759D01*
X55788742Y-55999161D01*
X55833418Y-55973367D01*
X55863494Y-55929051D01*
X55880861Y-55878020D01*
X55912273Y-55839216D01*
X55936060Y-55836010D01*
X55982840Y-55854020D01*
X55992969Y-55903177D01*
X55992969Y-56041418D01*
X55982539Y-56089693D01*
X55943143Y-56106631D01*
X55899551Y-56083623D01*
X55889898Y-56064377D01*
X55845389Y-56089591D01*
X55797313Y-56102244D01*
X55746469Y-56106597D01*
X55741399Y-56106631D01*
X55691582Y-56103768D01*
X55635534Y-56091911D01*
X55590483Y-56072417D01*
X55548203Y-56039892D01*
X55515629Y-55993266D01*
X55499877Y-55943755D01*
X55497156Y-55911969D01*
G37*
G36*
X54219766Y-55517029D02*
G01*
X54243213Y-55472149D01*
X54283513Y-55465738D01*
X54479396Y-55465738D01*
X54527240Y-55476167D01*
X54544609Y-55515563D01*
X54520429Y-55560443D01*
X54479396Y-55566854D01*
X54432990Y-55566854D01*
X54577582Y-55994524D01*
X54723395Y-55566854D01*
X54676988Y-55566854D01*
X54629144Y-55556425D01*
X54611776Y-55517029D01*
X54635956Y-55472149D01*
X54676988Y-55465738D01*
X54872871Y-55465738D01*
X54922373Y-55478260D01*
X54936619Y-55517029D01*
X54912622Y-55560626D01*
X54872871Y-55566854D01*
X54822557Y-55566854D01*
X54663311Y-56036778D01*
X54634653Y-56079650D01*
X54584096Y-56090986D01*
X54577582Y-56091000D01*
X54527380Y-56083053D01*
X54494733Y-56042814D01*
X54493074Y-56037999D01*
X54333827Y-55566854D01*
X54283513Y-55566854D01*
X54234398Y-55554690D01*
X54219766Y-55517029D01*
G37*
G36*
X53562997Y-56041418D02*
G01*
X53586444Y-55996539D01*
X53626744Y-55990127D01*
X53746423Y-55990127D01*
X53746423Y-55265459D01*
X53756853Y-55217027D01*
X53796249Y-55200002D01*
X53839896Y-55225043D01*
X53841189Y-55226624D01*
X53883653Y-55258696D01*
X53929758Y-55276022D01*
X53980892Y-55284199D01*
X54002390Y-55285487D01*
X54044894Y-55311834D01*
X54050506Y-55337022D01*
X54026264Y-55381260D01*
X53993597Y-55387580D01*
X53941566Y-55383124D01*
X53891474Y-55372163D01*
X53858531Y-55359248D01*
X53858531Y-55990127D01*
X53978210Y-55990127D01*
X54027712Y-56002649D01*
X54041957Y-56041418D01*
X54017960Y-56084802D01*
X53978210Y-56091000D01*
X53626744Y-56091000D01*
X53577629Y-56078895D01*
X53562997Y-56041418D01*
G37*
G36*
X53172697Y-56013330D02*
G01*
X53188332Y-55966942D01*
X53231316Y-55937903D01*
X53250610Y-55935417D01*
X53299749Y-55953380D01*
X53326675Y-55997781D01*
X53328279Y-56013330D01*
X53310336Y-56062469D01*
X53266079Y-56089395D01*
X53250610Y-56091000D01*
X53204222Y-56075381D01*
X53175183Y-56032527D01*
X53172697Y-56013330D01*
G37*
G36*
X52733427Y-55204065D02*
G01*
X52801437Y-55223962D01*
X52855895Y-55257670D01*
X52898307Y-55302090D01*
X52930178Y-55354126D01*
X52953016Y-55410681D01*
X52968324Y-55468657D01*
X52977610Y-55524957D01*
X52982378Y-55576483D01*
X52984311Y-55632407D01*
X52984386Y-55652828D01*
X52983224Y-55714065D01*
X52979627Y-55763508D01*
X52972014Y-55818702D01*
X52958881Y-55876559D01*
X52938720Y-55933989D01*
X52910027Y-55987903D01*
X52871296Y-56035213D01*
X52821021Y-56072831D01*
X52757696Y-56097666D01*
X52707485Y-56105597D01*
X52679815Y-56106631D01*
X52626160Y-56102571D01*
X52558095Y-56082687D01*
X52503593Y-56049001D01*
X52461147Y-56004609D01*
X52429250Y-55952606D01*
X52406395Y-55896085D01*
X52391074Y-55838143D01*
X52381781Y-55781873D01*
X52377009Y-55730371D01*
X52375074Y-55674467D01*
X52375000Y-55654049D01*
X52375264Y-55640127D01*
X52487351Y-55640127D01*
X52488086Y-55688977D01*
X52491633Y-55743095D01*
X52500255Y-55804135D01*
X52516208Y-55866147D01*
X52541746Y-55923178D01*
X52579125Y-55969280D01*
X52630601Y-55998501D01*
X52679815Y-56005759D01*
X52728966Y-55998501D01*
X52780377Y-55969280D01*
X52817708Y-55923178D01*
X52843214Y-55866147D01*
X52859146Y-55804135D01*
X52867757Y-55743095D01*
X52871301Y-55688977D01*
X52872034Y-55640127D01*
X52870767Y-55580000D01*
X52866168Y-55527083D01*
X52855937Y-55469985D01*
X52837823Y-55413919D01*
X52809572Y-55364102D01*
X52768932Y-55325748D01*
X52713650Y-55304072D01*
X52679815Y-55301118D01*
X52630601Y-55307642D01*
X52579125Y-55333977D01*
X52541746Y-55375685D01*
X52516208Y-55427553D01*
X52500255Y-55484366D01*
X52491633Y-55540908D01*
X52488086Y-55591965D01*
X52487351Y-55640127D01*
X52375264Y-55640127D01*
X52376162Y-55592796D01*
X52379762Y-55543331D01*
X52387381Y-55488108D01*
X52400525Y-55430219D01*
X52420701Y-55372755D01*
X52449417Y-55318807D01*
X52488180Y-55271466D01*
X52538495Y-55233824D01*
X52601871Y-55208973D01*
X52652122Y-55201037D01*
X52679815Y-55200002D01*
X52733427Y-55204065D01*
G37*
D11*
X67351866Y-66850819D02*
X67685199Y-66374628D01*
X67923294Y-66850819D02*
X67923294Y-65850819D01*
X67923294Y-65850819D02*
X67542342Y-65850819D01*
X67542342Y-65850819D02*
X67447104Y-65898438D01*
X67447104Y-65898438D02*
X67399485Y-65946057D01*
X67399485Y-65946057D02*
X67351866Y-66041295D01*
X67351866Y-66041295D02*
X67351866Y-66184152D01*
X67351866Y-66184152D02*
X67399485Y-66279390D01*
X67399485Y-66279390D02*
X67447104Y-66327009D01*
X67447104Y-66327009D02*
X67542342Y-66374628D01*
X67542342Y-66374628D02*
X67923294Y-66374628D01*
X66970913Y-65946057D02*
X66923294Y-65898438D01*
X66923294Y-65898438D02*
X66828056Y-65850819D01*
X66828056Y-65850819D02*
X66589961Y-65850819D01*
X66589961Y-65850819D02*
X66494723Y-65898438D01*
X66494723Y-65898438D02*
X66447104Y-65946057D01*
X66447104Y-65946057D02*
X66399485Y-66041295D01*
X66399485Y-66041295D02*
X66399485Y-66136533D01*
X66399485Y-66136533D02*
X66447104Y-66279390D01*
X66447104Y-66279390D02*
X67018532Y-66850819D01*
X67018532Y-66850819D02*
X66399485Y-66850819D01*
X68657694Y-62227619D02*
X68657694Y-61227619D01*
X68657694Y-61227619D02*
X68419599Y-61227619D01*
X68419599Y-61227619D02*
X68276742Y-61275238D01*
X68276742Y-61275238D02*
X68181504Y-61370476D01*
X68181504Y-61370476D02*
X68133885Y-61465714D01*
X68133885Y-61465714D02*
X68086266Y-61656190D01*
X68086266Y-61656190D02*
X68086266Y-61799047D01*
X68086266Y-61799047D02*
X68133885Y-61989523D01*
X68133885Y-61989523D02*
X68181504Y-62084761D01*
X68181504Y-62084761D02*
X68276742Y-62180000D01*
X68276742Y-62180000D02*
X68419599Y-62227619D01*
X68419599Y-62227619D02*
X68657694Y-62227619D01*
X67229123Y-61560952D02*
X67229123Y-62227619D01*
X67467218Y-61180000D02*
X67705313Y-61894285D01*
X67705313Y-61894285D02*
X67086266Y-61894285D01*
X78119266Y-61999019D02*
X78452599Y-61522828D01*
X78690694Y-61999019D02*
X78690694Y-60999019D01*
X78690694Y-60999019D02*
X78309742Y-60999019D01*
X78309742Y-60999019D02*
X78214504Y-61046638D01*
X78214504Y-61046638D02*
X78166885Y-61094257D01*
X78166885Y-61094257D02*
X78119266Y-61189495D01*
X78119266Y-61189495D02*
X78119266Y-61332352D01*
X78119266Y-61332352D02*
X78166885Y-61427590D01*
X78166885Y-61427590D02*
X78214504Y-61475209D01*
X78214504Y-61475209D02*
X78309742Y-61522828D01*
X78309742Y-61522828D02*
X78690694Y-61522828D01*
X77643075Y-61999019D02*
X77452599Y-61999019D01*
X77452599Y-61999019D02*
X77357361Y-61951400D01*
X77357361Y-61951400D02*
X77309742Y-61903780D01*
X77309742Y-61903780D02*
X77214504Y-61760923D01*
X77214504Y-61760923D02*
X77166885Y-61570447D01*
X77166885Y-61570447D02*
X77166885Y-61189495D01*
X77166885Y-61189495D02*
X77214504Y-61094257D01*
X77214504Y-61094257D02*
X77262123Y-61046638D01*
X77262123Y-61046638D02*
X77357361Y-60999019D01*
X77357361Y-60999019D02*
X77547837Y-60999019D01*
X77547837Y-60999019D02*
X77643075Y-61046638D01*
X77643075Y-61046638D02*
X77690694Y-61094257D01*
X77690694Y-61094257D02*
X77738313Y-61189495D01*
X77738313Y-61189495D02*
X77738313Y-61427590D01*
X77738313Y-61427590D02*
X77690694Y-61522828D01*
X77690694Y-61522828D02*
X77643075Y-61570447D01*
X77643075Y-61570447D02*
X77547837Y-61618066D01*
X77547837Y-61618066D02*
X77357361Y-61618066D01*
X77357361Y-61618066D02*
X77262123Y-61570447D01*
X77262123Y-61570447D02*
X77214504Y-61522828D01*
X77214504Y-61522828D02*
X77166885Y-61427590D01*
X90304857Y-69371380D02*
X90352476Y-69419000D01*
X90352476Y-69419000D02*
X90495333Y-69466619D01*
X90495333Y-69466619D02*
X90590571Y-69466619D01*
X90590571Y-69466619D02*
X90733428Y-69419000D01*
X90733428Y-69419000D02*
X90828666Y-69323761D01*
X90828666Y-69323761D02*
X90876285Y-69228523D01*
X90876285Y-69228523D02*
X90923904Y-69038047D01*
X90923904Y-69038047D02*
X90923904Y-68895190D01*
X90923904Y-68895190D02*
X90876285Y-68704714D01*
X90876285Y-68704714D02*
X90828666Y-68609476D01*
X90828666Y-68609476D02*
X90733428Y-68514238D01*
X90733428Y-68514238D02*
X90590571Y-68466619D01*
X90590571Y-68466619D02*
X90495333Y-68466619D01*
X90495333Y-68466619D02*
X90352476Y-68514238D01*
X90352476Y-68514238D02*
X90304857Y-68561857D01*
X89352476Y-69466619D02*
X89923904Y-69466619D01*
X89638190Y-69466619D02*
X89638190Y-68466619D01*
X89638190Y-68466619D02*
X89733428Y-68609476D01*
X89733428Y-68609476D02*
X89828666Y-68704714D01*
X89828666Y-68704714D02*
X89923904Y-68752333D01*
X89019142Y-68466619D02*
X88352476Y-68466619D01*
X88352476Y-68466619D02*
X88781047Y-69466619D01*
X67140057Y-70965219D02*
X67473390Y-70489028D01*
X67711485Y-70965219D02*
X67711485Y-69965219D01*
X67711485Y-69965219D02*
X67330533Y-69965219D01*
X67330533Y-69965219D02*
X67235295Y-70012838D01*
X67235295Y-70012838D02*
X67187676Y-70060457D01*
X67187676Y-70060457D02*
X67140057Y-70155695D01*
X67140057Y-70155695D02*
X67140057Y-70298552D01*
X67140057Y-70298552D02*
X67187676Y-70393790D01*
X67187676Y-70393790D02*
X67235295Y-70441409D01*
X67235295Y-70441409D02*
X67330533Y-70489028D01*
X67330533Y-70489028D02*
X67711485Y-70489028D01*
X66187676Y-70965219D02*
X66759104Y-70965219D01*
X66473390Y-70965219D02*
X66473390Y-69965219D01*
X66473390Y-69965219D02*
X66568628Y-70108076D01*
X66568628Y-70108076D02*
X66663866Y-70203314D01*
X66663866Y-70203314D02*
X66759104Y-70250933D01*
X65854342Y-69965219D02*
X65235295Y-69965219D01*
X65235295Y-69965219D02*
X65568628Y-70346171D01*
X65568628Y-70346171D02*
X65425771Y-70346171D01*
X65425771Y-70346171D02*
X65330533Y-70393790D01*
X65330533Y-70393790D02*
X65282914Y-70441409D01*
X65282914Y-70441409D02*
X65235295Y-70536647D01*
X65235295Y-70536647D02*
X65235295Y-70774742D01*
X65235295Y-70774742D02*
X65282914Y-70869980D01*
X65282914Y-70869980D02*
X65330533Y-70917600D01*
X65330533Y-70917600D02*
X65425771Y-70965219D01*
X65425771Y-70965219D02*
X65711485Y-70965219D01*
X65711485Y-70965219D02*
X65806723Y-70917600D01*
X65806723Y-70917600D02*
X65854342Y-70869980D01*
X68683094Y-68399819D02*
X68683094Y-67399819D01*
X68683094Y-67399819D02*
X68444999Y-67399819D01*
X68444999Y-67399819D02*
X68302142Y-67447438D01*
X68302142Y-67447438D02*
X68206904Y-67542676D01*
X68206904Y-67542676D02*
X68159285Y-67637914D01*
X68159285Y-67637914D02*
X68111666Y-67828390D01*
X68111666Y-67828390D02*
X68111666Y-67971247D01*
X68111666Y-67971247D02*
X68159285Y-68161723D01*
X68159285Y-68161723D02*
X68206904Y-68256961D01*
X68206904Y-68256961D02*
X68302142Y-68352200D01*
X68302142Y-68352200D02*
X68444999Y-68399819D01*
X68444999Y-68399819D02*
X68683094Y-68399819D01*
X67730713Y-67495057D02*
X67683094Y-67447438D01*
X67683094Y-67447438D02*
X67587856Y-67399819D01*
X67587856Y-67399819D02*
X67349761Y-67399819D01*
X67349761Y-67399819D02*
X67254523Y-67447438D01*
X67254523Y-67447438D02*
X67206904Y-67495057D01*
X67206904Y-67495057D02*
X67159285Y-67590295D01*
X67159285Y-67590295D02*
X67159285Y-67685533D01*
X67159285Y-67685533D02*
X67206904Y-67828390D01*
X67206904Y-67828390D02*
X67778332Y-68399819D01*
X67778332Y-68399819D02*
X67159285Y-68399819D01*
X67351866Y-63760019D02*
X67685199Y-63283828D01*
X67923294Y-63760019D02*
X67923294Y-62760019D01*
X67923294Y-62760019D02*
X67542342Y-62760019D01*
X67542342Y-62760019D02*
X67447104Y-62807638D01*
X67447104Y-62807638D02*
X67399485Y-62855257D01*
X67399485Y-62855257D02*
X67351866Y-62950495D01*
X67351866Y-62950495D02*
X67351866Y-63093352D01*
X67351866Y-63093352D02*
X67399485Y-63188590D01*
X67399485Y-63188590D02*
X67447104Y-63236209D01*
X67447104Y-63236209D02*
X67542342Y-63283828D01*
X67542342Y-63283828D02*
X67923294Y-63283828D01*
X66494723Y-63093352D02*
X66494723Y-63760019D01*
X66732818Y-62712400D02*
X66970913Y-63426685D01*
X66970913Y-63426685D02*
X66351866Y-63426685D01*
X67351866Y-60664219D02*
X67685199Y-60188028D01*
X67923294Y-60664219D02*
X67923294Y-59664219D01*
X67923294Y-59664219D02*
X67542342Y-59664219D01*
X67542342Y-59664219D02*
X67447104Y-59711838D01*
X67447104Y-59711838D02*
X67399485Y-59759457D01*
X67399485Y-59759457D02*
X67351866Y-59854695D01*
X67351866Y-59854695D02*
X67351866Y-59997552D01*
X67351866Y-59997552D02*
X67399485Y-60092790D01*
X67399485Y-60092790D02*
X67447104Y-60140409D01*
X67447104Y-60140409D02*
X67542342Y-60188028D01*
X67542342Y-60188028D02*
X67923294Y-60188028D01*
X66494723Y-59664219D02*
X66685199Y-59664219D01*
X66685199Y-59664219D02*
X66780437Y-59711838D01*
X66780437Y-59711838D02*
X66828056Y-59759457D01*
X66828056Y-59759457D02*
X66923294Y-59902314D01*
X66923294Y-59902314D02*
X66970913Y-60092790D01*
X66970913Y-60092790D02*
X66970913Y-60473742D01*
X66970913Y-60473742D02*
X66923294Y-60568980D01*
X66923294Y-60568980D02*
X66875675Y-60616600D01*
X66875675Y-60616600D02*
X66780437Y-60664219D01*
X66780437Y-60664219D02*
X66589961Y-60664219D01*
X66589961Y-60664219D02*
X66494723Y-60616600D01*
X66494723Y-60616600D02*
X66447104Y-60568980D01*
X66447104Y-60568980D02*
X66399485Y-60473742D01*
X66399485Y-60473742D02*
X66399485Y-60235647D01*
X66399485Y-60235647D02*
X66447104Y-60140409D01*
X66447104Y-60140409D02*
X66494723Y-60092790D01*
X66494723Y-60092790D02*
X66589961Y-60045171D01*
X66589961Y-60045171D02*
X66780437Y-60045171D01*
X66780437Y-60045171D02*
X66875675Y-60092790D01*
X66875675Y-60092790D02*
X66923294Y-60140409D01*
X66923294Y-60140409D02*
X66970913Y-60235647D01*
X78119266Y-65123219D02*
X78452599Y-64647028D01*
X78690694Y-65123219D02*
X78690694Y-64123219D01*
X78690694Y-64123219D02*
X78309742Y-64123219D01*
X78309742Y-64123219D02*
X78214504Y-64170838D01*
X78214504Y-64170838D02*
X78166885Y-64218457D01*
X78166885Y-64218457D02*
X78119266Y-64313695D01*
X78119266Y-64313695D02*
X78119266Y-64456552D01*
X78119266Y-64456552D02*
X78166885Y-64551790D01*
X78166885Y-64551790D02*
X78214504Y-64599409D01*
X78214504Y-64599409D02*
X78309742Y-64647028D01*
X78309742Y-64647028D02*
X78690694Y-64647028D01*
X77547837Y-64551790D02*
X77643075Y-64504171D01*
X77643075Y-64504171D02*
X77690694Y-64456552D01*
X77690694Y-64456552D02*
X77738313Y-64361314D01*
X77738313Y-64361314D02*
X77738313Y-64313695D01*
X77738313Y-64313695D02*
X77690694Y-64218457D01*
X77690694Y-64218457D02*
X77643075Y-64170838D01*
X77643075Y-64170838D02*
X77547837Y-64123219D01*
X77547837Y-64123219D02*
X77357361Y-64123219D01*
X77357361Y-64123219D02*
X77262123Y-64170838D01*
X77262123Y-64170838D02*
X77214504Y-64218457D01*
X77214504Y-64218457D02*
X77166885Y-64313695D01*
X77166885Y-64313695D02*
X77166885Y-64361314D01*
X77166885Y-64361314D02*
X77214504Y-64456552D01*
X77214504Y-64456552D02*
X77262123Y-64504171D01*
X77262123Y-64504171D02*
X77357361Y-64551790D01*
X77357361Y-64551790D02*
X77547837Y-64551790D01*
X77547837Y-64551790D02*
X77643075Y-64599409D01*
X77643075Y-64599409D02*
X77690694Y-64647028D01*
X77690694Y-64647028D02*
X77738313Y-64742266D01*
X77738313Y-64742266D02*
X77738313Y-64932742D01*
X77738313Y-64932742D02*
X77690694Y-65027980D01*
X77690694Y-65027980D02*
X77643075Y-65075600D01*
X77643075Y-65075600D02*
X77547837Y-65123219D01*
X77547837Y-65123219D02*
X77357361Y-65123219D01*
X77357361Y-65123219D02*
X77262123Y-65075600D01*
X77262123Y-65075600D02*
X77214504Y-65027980D01*
X77214504Y-65027980D02*
X77166885Y-64932742D01*
X77166885Y-64932742D02*
X77166885Y-64742266D01*
X77166885Y-64742266D02*
X77214504Y-64647028D01*
X77214504Y-64647028D02*
X77262123Y-64599409D01*
X77262123Y-64599409D02*
X77357361Y-64551790D01*
X91447857Y-66628180D02*
X91495476Y-66675800D01*
X91495476Y-66675800D02*
X91638333Y-66723419D01*
X91638333Y-66723419D02*
X91733571Y-66723419D01*
X91733571Y-66723419D02*
X91876428Y-66675800D01*
X91876428Y-66675800D02*
X91971666Y-66580561D01*
X91971666Y-66580561D02*
X92019285Y-66485323D01*
X92019285Y-66485323D02*
X92066904Y-66294847D01*
X92066904Y-66294847D02*
X92066904Y-66151990D01*
X92066904Y-66151990D02*
X92019285Y-65961514D01*
X92019285Y-65961514D02*
X91971666Y-65866276D01*
X91971666Y-65866276D02*
X91876428Y-65771038D01*
X91876428Y-65771038D02*
X91733571Y-65723419D01*
X91733571Y-65723419D02*
X91638333Y-65723419D01*
X91638333Y-65723419D02*
X91495476Y-65771038D01*
X91495476Y-65771038D02*
X91447857Y-65818657D01*
X90495476Y-66723419D02*
X91066904Y-66723419D01*
X90781190Y-66723419D02*
X90781190Y-65723419D01*
X90781190Y-65723419D02*
X90876428Y-65866276D01*
X90876428Y-65866276D02*
X90971666Y-65961514D01*
X90971666Y-65961514D02*
X91066904Y-66009133D01*
X89543095Y-66723419D02*
X90114523Y-66723419D01*
X89828809Y-66723419D02*
X89828809Y-65723419D01*
X89828809Y-65723419D02*
X89924047Y-65866276D01*
X89924047Y-65866276D02*
X90019285Y-65961514D01*
X90019285Y-65961514D02*
X90114523Y-66009133D01*
X94697957Y-69211380D02*
X94745576Y-69259000D01*
X94745576Y-69259000D02*
X94888433Y-69306619D01*
X94888433Y-69306619D02*
X94983671Y-69306619D01*
X94983671Y-69306619D02*
X95126528Y-69259000D01*
X95126528Y-69259000D02*
X95221766Y-69163761D01*
X95221766Y-69163761D02*
X95269385Y-69068523D01*
X95269385Y-69068523D02*
X95317004Y-68878047D01*
X95317004Y-68878047D02*
X95317004Y-68735190D01*
X95317004Y-68735190D02*
X95269385Y-68544714D01*
X95269385Y-68544714D02*
X95221766Y-68449476D01*
X95221766Y-68449476D02*
X95126528Y-68354238D01*
X95126528Y-68354238D02*
X94983671Y-68306619D01*
X94983671Y-68306619D02*
X94888433Y-68306619D01*
X94888433Y-68306619D02*
X94745576Y-68354238D01*
X94745576Y-68354238D02*
X94697957Y-68401857D01*
X93745576Y-69306619D02*
X94317004Y-69306619D01*
X94031290Y-69306619D02*
X94031290Y-68306619D01*
X94031290Y-68306619D02*
X94126528Y-68449476D01*
X94126528Y-68449476D02*
X94221766Y-68544714D01*
X94221766Y-68544714D02*
X94317004Y-68592333D01*
X92888433Y-68306619D02*
X93078909Y-68306619D01*
X93078909Y-68306619D02*
X93174147Y-68354238D01*
X93174147Y-68354238D02*
X93221766Y-68401857D01*
X93221766Y-68401857D02*
X93317004Y-68544714D01*
X93317004Y-68544714D02*
X93364623Y-68735190D01*
X93364623Y-68735190D02*
X93364623Y-69116142D01*
X93364623Y-69116142D02*
X93317004Y-69211380D01*
X93317004Y-69211380D02*
X93269385Y-69259000D01*
X93269385Y-69259000D02*
X93174147Y-69306619D01*
X93174147Y-69306619D02*
X92983671Y-69306619D01*
X92983671Y-69306619D02*
X92888433Y-69259000D01*
X92888433Y-69259000D02*
X92840814Y-69211380D01*
X92840814Y-69211380D02*
X92793195Y-69116142D01*
X92793195Y-69116142D02*
X92793195Y-68878047D01*
X92793195Y-68878047D02*
X92840814Y-68782809D01*
X92840814Y-68782809D02*
X92888433Y-68735190D01*
X92888433Y-68735190D02*
X92983671Y-68687571D01*
X92983671Y-68687571D02*
X93174147Y-68687571D01*
X93174147Y-68687571D02*
X93269385Y-68735190D01*
X93269385Y-68735190D02*
X93317004Y-68782809D01*
X93317004Y-68782809D02*
X93364623Y-68878047D01*
X78195466Y-68196619D02*
X78528799Y-67720428D01*
X78766894Y-68196619D02*
X78766894Y-67196619D01*
X78766894Y-67196619D02*
X78385942Y-67196619D01*
X78385942Y-67196619D02*
X78290704Y-67244238D01*
X78290704Y-67244238D02*
X78243085Y-67291857D01*
X78243085Y-67291857D02*
X78195466Y-67387095D01*
X78195466Y-67387095D02*
X78195466Y-67529952D01*
X78195466Y-67529952D02*
X78243085Y-67625190D01*
X78243085Y-67625190D02*
X78290704Y-67672809D01*
X78290704Y-67672809D02*
X78385942Y-67720428D01*
X78385942Y-67720428D02*
X78766894Y-67720428D01*
X77862132Y-67196619D02*
X77195466Y-67196619D01*
X77195466Y-67196619D02*
X77624037Y-68196619D01*
X76112666Y-70895380D02*
X76160285Y-70943000D01*
X76160285Y-70943000D02*
X76303142Y-70990619D01*
X76303142Y-70990619D02*
X76398380Y-70990619D01*
X76398380Y-70990619D02*
X76541237Y-70943000D01*
X76541237Y-70943000D02*
X76636475Y-70847761D01*
X76636475Y-70847761D02*
X76684094Y-70752523D01*
X76684094Y-70752523D02*
X76731713Y-70562047D01*
X76731713Y-70562047D02*
X76731713Y-70419190D01*
X76731713Y-70419190D02*
X76684094Y-70228714D01*
X76684094Y-70228714D02*
X76636475Y-70133476D01*
X76636475Y-70133476D02*
X76541237Y-70038238D01*
X76541237Y-70038238D02*
X76398380Y-69990619D01*
X76398380Y-69990619D02*
X76303142Y-69990619D01*
X76303142Y-69990619D02*
X76160285Y-70038238D01*
X76160285Y-70038238D02*
X76112666Y-70085857D01*
X75255523Y-69990619D02*
X75445999Y-69990619D01*
X75445999Y-69990619D02*
X75541237Y-70038238D01*
X75541237Y-70038238D02*
X75588856Y-70085857D01*
X75588856Y-70085857D02*
X75684094Y-70228714D01*
X75684094Y-70228714D02*
X75731713Y-70419190D01*
X75731713Y-70419190D02*
X75731713Y-70800142D01*
X75731713Y-70800142D02*
X75684094Y-70895380D01*
X75684094Y-70895380D02*
X75636475Y-70943000D01*
X75636475Y-70943000D02*
X75541237Y-70990619D01*
X75541237Y-70990619D02*
X75350761Y-70990619D01*
X75350761Y-70990619D02*
X75255523Y-70943000D01*
X75255523Y-70943000D02*
X75207904Y-70895380D01*
X75207904Y-70895380D02*
X75160285Y-70800142D01*
X75160285Y-70800142D02*
X75160285Y-70562047D01*
X75160285Y-70562047D02*
X75207904Y-70466809D01*
X75207904Y-70466809D02*
X75255523Y-70419190D01*
X75255523Y-70419190D02*
X75350761Y-70371571D01*
X75350761Y-70371571D02*
X75541237Y-70371571D01*
X75541237Y-70371571D02*
X75636475Y-70419190D01*
X75636475Y-70419190D02*
X75684094Y-70466809D01*
X75684094Y-70466809D02*
X75731713Y-70562047D01*
X68632294Y-65301019D02*
X68632294Y-64301019D01*
X68632294Y-64301019D02*
X68394199Y-64301019D01*
X68394199Y-64301019D02*
X68251342Y-64348638D01*
X68251342Y-64348638D02*
X68156104Y-64443876D01*
X68156104Y-64443876D02*
X68108485Y-64539114D01*
X68108485Y-64539114D02*
X68060866Y-64729590D01*
X68060866Y-64729590D02*
X68060866Y-64872447D01*
X68060866Y-64872447D02*
X68108485Y-65062923D01*
X68108485Y-65062923D02*
X68156104Y-65158161D01*
X68156104Y-65158161D02*
X68251342Y-65253400D01*
X68251342Y-65253400D02*
X68394199Y-65301019D01*
X68394199Y-65301019D02*
X68632294Y-65301019D01*
X67727532Y-64301019D02*
X67108485Y-64301019D01*
X67108485Y-64301019D02*
X67441818Y-64681971D01*
X67441818Y-64681971D02*
X67298961Y-64681971D01*
X67298961Y-64681971D02*
X67203723Y-64729590D01*
X67203723Y-64729590D02*
X67156104Y-64777209D01*
X67156104Y-64777209D02*
X67108485Y-64872447D01*
X67108485Y-64872447D02*
X67108485Y-65110542D01*
X67108485Y-65110542D02*
X67156104Y-65205780D01*
X67156104Y-65205780D02*
X67203723Y-65253400D01*
X67203723Y-65253400D02*
X67298961Y-65301019D01*
X67298961Y-65301019D02*
X67584675Y-65301019D01*
X67584675Y-65301019D02*
X67679913Y-65253400D01*
X67679913Y-65253400D02*
X67727532Y-65205780D01*
X82608657Y-66977419D02*
X82941990Y-66501228D01*
X83180085Y-66977419D02*
X83180085Y-65977419D01*
X83180085Y-65977419D02*
X82799133Y-65977419D01*
X82799133Y-65977419D02*
X82703895Y-66025038D01*
X82703895Y-66025038D02*
X82656276Y-66072657D01*
X82656276Y-66072657D02*
X82608657Y-66167895D01*
X82608657Y-66167895D02*
X82608657Y-66310752D01*
X82608657Y-66310752D02*
X82656276Y-66405990D01*
X82656276Y-66405990D02*
X82703895Y-66453609D01*
X82703895Y-66453609D02*
X82799133Y-66501228D01*
X82799133Y-66501228D02*
X83180085Y-66501228D01*
X82227704Y-66072657D02*
X82180085Y-66025038D01*
X82180085Y-66025038D02*
X82084847Y-65977419D01*
X82084847Y-65977419D02*
X81846752Y-65977419D01*
X81846752Y-65977419D02*
X81751514Y-66025038D01*
X81751514Y-66025038D02*
X81703895Y-66072657D01*
X81703895Y-66072657D02*
X81656276Y-66167895D01*
X81656276Y-66167895D02*
X81656276Y-66263133D01*
X81656276Y-66263133D02*
X81703895Y-66405990D01*
X81703895Y-66405990D02*
X82275323Y-66977419D01*
X82275323Y-66977419D02*
X81656276Y-66977419D01*
X81037228Y-65977419D02*
X80941990Y-65977419D01*
X80941990Y-65977419D02*
X80846752Y-66025038D01*
X80846752Y-66025038D02*
X80799133Y-66072657D01*
X80799133Y-66072657D02*
X80751514Y-66167895D01*
X80751514Y-66167895D02*
X80703895Y-66358371D01*
X80703895Y-66358371D02*
X80703895Y-66596466D01*
X80703895Y-66596466D02*
X80751514Y-66786942D01*
X80751514Y-66786942D02*
X80799133Y-66882180D01*
X80799133Y-66882180D02*
X80846752Y-66929800D01*
X80846752Y-66929800D02*
X80941990Y-66977419D01*
X80941990Y-66977419D02*
X81037228Y-66977419D01*
X81037228Y-66977419D02*
X81132466Y-66929800D01*
X81132466Y-66929800D02*
X81180085Y-66882180D01*
X81180085Y-66882180D02*
X81227704Y-66786942D01*
X81227704Y-66786942D02*
X81275323Y-66596466D01*
X81275323Y-66596466D02*
X81275323Y-66358371D01*
X81275323Y-66358371D02*
X81227704Y-66167895D01*
X81227704Y-66167895D02*
X81180085Y-66072657D01*
X81180085Y-66072657D02*
X81132466Y-66025038D01*
X81132466Y-66025038D02*
X81037228Y-65977419D01*
X86342857Y-69034819D02*
X86676190Y-68558628D01*
X86914285Y-69034819D02*
X86914285Y-68034819D01*
X86914285Y-68034819D02*
X86533333Y-68034819D01*
X86533333Y-68034819D02*
X86438095Y-68082438D01*
X86438095Y-68082438D02*
X86390476Y-68130057D01*
X86390476Y-68130057D02*
X86342857Y-68225295D01*
X86342857Y-68225295D02*
X86342857Y-68368152D01*
X86342857Y-68368152D02*
X86390476Y-68463390D01*
X86390476Y-68463390D02*
X86438095Y-68511009D01*
X86438095Y-68511009D02*
X86533333Y-68558628D01*
X86533333Y-68558628D02*
X86914285Y-68558628D01*
X85961904Y-68130057D02*
X85914285Y-68082438D01*
X85914285Y-68082438D02*
X85819047Y-68034819D01*
X85819047Y-68034819D02*
X85580952Y-68034819D01*
X85580952Y-68034819D02*
X85485714Y-68082438D01*
X85485714Y-68082438D02*
X85438095Y-68130057D01*
X85438095Y-68130057D02*
X85390476Y-68225295D01*
X85390476Y-68225295D02*
X85390476Y-68320533D01*
X85390476Y-68320533D02*
X85438095Y-68463390D01*
X85438095Y-68463390D02*
X86009523Y-69034819D01*
X86009523Y-69034819D02*
X85390476Y-69034819D01*
X84533333Y-68368152D02*
X84533333Y-69034819D01*
X84771428Y-67987200D02*
X85009523Y-68701485D01*
X85009523Y-68701485D02*
X84390476Y-68701485D01*
X88044257Y-65739180D02*
X88091876Y-65786800D01*
X88091876Y-65786800D02*
X88234733Y-65834419D01*
X88234733Y-65834419D02*
X88329971Y-65834419D01*
X88329971Y-65834419D02*
X88472828Y-65786800D01*
X88472828Y-65786800D02*
X88568066Y-65691561D01*
X88568066Y-65691561D02*
X88615685Y-65596323D01*
X88615685Y-65596323D02*
X88663304Y-65405847D01*
X88663304Y-65405847D02*
X88663304Y-65262990D01*
X88663304Y-65262990D02*
X88615685Y-65072514D01*
X88615685Y-65072514D02*
X88568066Y-64977276D01*
X88568066Y-64977276D02*
X88472828Y-64882038D01*
X88472828Y-64882038D02*
X88329971Y-64834419D01*
X88329971Y-64834419D02*
X88234733Y-64834419D01*
X88234733Y-64834419D02*
X88091876Y-64882038D01*
X88091876Y-64882038D02*
X88044257Y-64929657D01*
X87091876Y-65834419D02*
X87663304Y-65834419D01*
X87377590Y-65834419D02*
X87377590Y-64834419D01*
X87377590Y-64834419D02*
X87472828Y-64977276D01*
X87472828Y-64977276D02*
X87568066Y-65072514D01*
X87568066Y-65072514D02*
X87663304Y-65120133D01*
X86472828Y-64834419D02*
X86377590Y-64834419D01*
X86377590Y-64834419D02*
X86282352Y-64882038D01*
X86282352Y-64882038D02*
X86234733Y-64929657D01*
X86234733Y-64929657D02*
X86187114Y-65024895D01*
X86187114Y-65024895D02*
X86139495Y-65215371D01*
X86139495Y-65215371D02*
X86139495Y-65453466D01*
X86139495Y-65453466D02*
X86187114Y-65643942D01*
X86187114Y-65643942D02*
X86234733Y-65739180D01*
X86234733Y-65739180D02*
X86282352Y-65786800D01*
X86282352Y-65786800D02*
X86377590Y-65834419D01*
X86377590Y-65834419D02*
X86472828Y-65834419D01*
X86472828Y-65834419D02*
X86568066Y-65786800D01*
X86568066Y-65786800D02*
X86615685Y-65739180D01*
X86615685Y-65739180D02*
X86663304Y-65643942D01*
X86663304Y-65643942D02*
X86710923Y-65453466D01*
X86710923Y-65453466D02*
X86710923Y-65215371D01*
X86710923Y-65215371D02*
X86663304Y-65024895D01*
X86663304Y-65024895D02*
X86615685Y-64929657D01*
X86615685Y-64929657D02*
X86568066Y-64882038D01*
X86568066Y-64882038D02*
X86472828Y-64834419D01*
D12*
%TO.C,J5*%
X98646000Y-66182000D02*
G75*
G02*
X97884000Y-66182000I-381000J0D01*
G01*
X97884000Y-66182000D02*
G75*
G02*
X98646000Y-66182000I381000J0D01*
G01*
D13*
%TO.C,G\u002A\u002A\u002A*%
G36*
X61626600Y-53288300D02*
G01*
X61622434Y-53292467D01*
X61618267Y-53288300D01*
X61622434Y-53284134D01*
X61626600Y-53288300D01*
G37*
G36*
X60552197Y-53509263D02*
G01*
X60581722Y-53510240D01*
X60599658Y-53512625D01*
X60609125Y-53516942D01*
X60613245Y-53523717D01*
X60615983Y-53534924D01*
X60621590Y-53560877D01*
X60629428Y-53598741D01*
X60639071Y-53646342D01*
X60650098Y-53701507D01*
X60662084Y-53762063D01*
X60674606Y-53825836D01*
X60687240Y-53890653D01*
X60699564Y-53954340D01*
X60711153Y-54014726D01*
X60721585Y-54069636D01*
X60730436Y-54116897D01*
X60737282Y-54154336D01*
X60741700Y-54179779D01*
X60743267Y-54191055D01*
X60743267Y-54209134D01*
X60502291Y-54209134D01*
X60261315Y-54209134D01*
X60252291Y-54167057D01*
X60249571Y-54153223D01*
X60245052Y-54123352D01*
X60243267Y-54100390D01*
X60243267Y-54075800D01*
X60382850Y-54075673D01*
X60416987Y-54075444D01*
X60460435Y-54074535D01*
X60496227Y-54073059D01*
X60521359Y-54071150D01*
X60532828Y-54068945D01*
X60533706Y-54068043D01*
X60535315Y-54060271D01*
X60534620Y-54044217D01*
X60531411Y-54018547D01*
X60525477Y-53981928D01*
X60516607Y-53933028D01*
X60504591Y-53870513D01*
X60489218Y-53793050D01*
X60480697Y-53750185D01*
X60468717Y-53688493D01*
X60458327Y-53633265D01*
X60449880Y-53586474D01*
X60443731Y-53550092D01*
X60440230Y-53526092D01*
X60439732Y-53516445D01*
X60444162Y-53514433D01*
X60462439Y-53511703D01*
X60491167Y-53509829D01*
X60526531Y-53509134D01*
X60552197Y-53509263D01*
G37*
G36*
X61686641Y-53510925D02*
G01*
X61771682Y-53513300D01*
X61818475Y-53746634D01*
X61819914Y-53753800D01*
X61832423Y-53815292D01*
X61844349Y-53872579D01*
X61855166Y-53923232D01*
X61864348Y-53964821D01*
X61871370Y-53994916D01*
X61875704Y-54011087D01*
X61878441Y-54018362D01*
X61899255Y-54049983D01*
X61928511Y-54071055D01*
X61962528Y-54081017D01*
X61997623Y-54079308D01*
X62030114Y-54065366D01*
X62056318Y-54038630D01*
X62069018Y-54023822D01*
X62080623Y-54017467D01*
X62089842Y-54020262D01*
X62109515Y-54029550D01*
X62134772Y-54043080D01*
X62161527Y-54058485D01*
X62185696Y-54073402D01*
X62203194Y-54085466D01*
X62209934Y-54092312D01*
X62209081Y-54096474D01*
X62199891Y-54113403D01*
X62183473Y-54135457D01*
X62163407Y-54158100D01*
X62143267Y-54176800D01*
X62130718Y-54185447D01*
X62100306Y-54201186D01*
X62068267Y-54212978D01*
X62025080Y-54220991D01*
X61960665Y-54221613D01*
X61942320Y-54219919D01*
X61873343Y-54204314D01*
X61813327Y-54175300D01*
X61763368Y-54133734D01*
X61724564Y-54080473D01*
X61698010Y-54016374D01*
X61694860Y-54004618D01*
X61687578Y-53974094D01*
X61678454Y-53933037D01*
X61668023Y-53884132D01*
X61656818Y-53830059D01*
X61645374Y-53773503D01*
X61634224Y-53717145D01*
X61623904Y-53663668D01*
X61614948Y-53615756D01*
X61607889Y-53576090D01*
X61603262Y-53547354D01*
X61601600Y-53532230D01*
X61601600Y-53508550D01*
X61686641Y-53510925D01*
G37*
G36*
X60709317Y-53007286D02*
G01*
X60797664Y-53013804D01*
X60879377Y-53024931D01*
X60971631Y-53043183D01*
X61137474Y-53086173D01*
X61298705Y-53140771D01*
X61302429Y-53142199D01*
X61341487Y-53157735D01*
X61385046Y-53175888D01*
X61430621Y-53195528D01*
X61475727Y-53215523D01*
X61517880Y-53234743D01*
X61554595Y-53252056D01*
X61583388Y-53266331D01*
X61601774Y-53276437D01*
X61607269Y-53281243D01*
X61606450Y-53281432D01*
X61594575Y-53279045D01*
X61571964Y-53272436D01*
X61542591Y-53262743D01*
X61541209Y-53262267D01*
X61482034Y-53243568D01*
X61411959Y-53224029D01*
X61336306Y-53204933D01*
X61260397Y-53187562D01*
X61189553Y-53173197D01*
X61129096Y-53163121D01*
X61092278Y-53158701D01*
X61020113Y-53153400D01*
X60943927Y-53151435D01*
X60867809Y-53152699D01*
X60795849Y-53157085D01*
X60732139Y-53164487D01*
X60680767Y-53174798D01*
X60663411Y-53179659D01*
X60568125Y-53214814D01*
X60482674Y-53261271D01*
X60408565Y-53318081D01*
X60347308Y-53384297D01*
X60308960Y-53434134D01*
X60034046Y-53434134D01*
X59759133Y-53434134D01*
X59786205Y-53394550D01*
X59816419Y-53355368D01*
X59866436Y-53302142D01*
X59925664Y-53248504D01*
X59990484Y-53197459D01*
X60057280Y-53152013D01*
X60122434Y-53115172D01*
X60133735Y-53109700D01*
X60190728Y-53085698D01*
X60257231Y-53062260D01*
X60327519Y-53041282D01*
X60395864Y-53024660D01*
X60451601Y-53015407D01*
X60531572Y-53008085D01*
X60619049Y-53005379D01*
X60709317Y-53007286D01*
G37*
G36*
X60399565Y-54332178D02*
G01*
X60414300Y-54351162D01*
X60463064Y-54406456D01*
X60519542Y-54462050D01*
X60578481Y-54512981D01*
X60634624Y-54554282D01*
X60676668Y-54580481D01*
X60778881Y-54634803D01*
X60889964Y-54682665D01*
X61004799Y-54721990D01*
X61118267Y-54750698D01*
X61145156Y-54755966D01*
X61263869Y-54773982D01*
X61382053Y-54783802D01*
X61496889Y-54785463D01*
X61605563Y-54779000D01*
X61705255Y-54764452D01*
X61793151Y-54741854D01*
X61895270Y-54700914D01*
X61990246Y-54646591D01*
X62073839Y-54580501D01*
X62145548Y-54503039D01*
X62204878Y-54414602D01*
X62218493Y-54390775D01*
X62231428Y-54369634D01*
X62238936Y-54360547D01*
X62242417Y-54361976D01*
X62243267Y-54372384D01*
X62243251Y-54374577D01*
X62237923Y-54420270D01*
X62224085Y-54475007D01*
X62203273Y-54534817D01*
X62177027Y-54595734D01*
X62146882Y-54653789D01*
X62114378Y-54705013D01*
X62104311Y-54718673D01*
X62039421Y-54790903D01*
X61960712Y-54855878D01*
X61869474Y-54912970D01*
X61766996Y-54961552D01*
X61654568Y-55000997D01*
X61533480Y-55030678D01*
X61405021Y-55049968D01*
X61400356Y-55050452D01*
X61314986Y-55056346D01*
X61229383Y-55056200D01*
X61139833Y-55049756D01*
X61042622Y-55036751D01*
X60934037Y-55016925D01*
X60880157Y-55005386D01*
X60707959Y-54958906D01*
X60546777Y-54900036D01*
X60396671Y-54828808D01*
X60257701Y-54745253D01*
X60129930Y-54649402D01*
X60013418Y-54541286D01*
X59960822Y-54484230D01*
X59908898Y-54422186D01*
X59863214Y-54361676D01*
X59827228Y-54307050D01*
X59808575Y-54275800D01*
X60083108Y-54275800D01*
X60357642Y-54275800D01*
X60399565Y-54332178D01*
G37*
G36*
X59753050Y-53497768D02*
G01*
X59827936Y-53513913D01*
X59903796Y-53544566D01*
X59969804Y-53585030D01*
X60032134Y-53640842D01*
X60082554Y-53706735D01*
X60119977Y-53780940D01*
X60143315Y-53861686D01*
X60151477Y-53947204D01*
X60151203Y-53963468D01*
X60142901Y-54024850D01*
X60122180Y-54077739D01*
X60087873Y-54125405D01*
X60043905Y-54166454D01*
X59994317Y-54195441D01*
X59934934Y-54214213D01*
X59896865Y-54220677D01*
X59817608Y-54221912D01*
X59738932Y-54207172D01*
X59663084Y-54176765D01*
X59657426Y-54173827D01*
X59618214Y-54152304D01*
X59593207Y-54134637D01*
X59581457Y-54118298D01*
X59582014Y-54100757D01*
X59593931Y-54079487D01*
X59616259Y-54051958D01*
X59647658Y-54015615D01*
X59703852Y-54046503D01*
X59746483Y-54066801D01*
X59800005Y-54081493D01*
X59848586Y-54081025D01*
X59893159Y-54065490D01*
X59915430Y-54051865D01*
X59939131Y-54029599D01*
X59954037Y-54001343D01*
X59961722Y-53963707D01*
X59963758Y-53913300D01*
X59963738Y-53909821D01*
X59962657Y-53871103D01*
X59959272Y-53842611D01*
X59952467Y-53818385D01*
X59941125Y-53792467D01*
X59921224Y-53755918D01*
X59882061Y-53704321D01*
X59836750Y-53667878D01*
X59784677Y-53646150D01*
X59725229Y-53638700D01*
X59698773Y-53639061D01*
X59674617Y-53642283D01*
X59654313Y-53650497D01*
X59630727Y-53665741D01*
X59591764Y-53693183D01*
X59538349Y-53646287D01*
X59528903Y-53637885D01*
X59506431Y-53616890D01*
X59490797Y-53600778D01*
X59484934Y-53592503D01*
X59485573Y-53590452D01*
X59494650Y-53578977D01*
X59511047Y-53563643D01*
X59550919Y-53535573D01*
X59612873Y-53508679D01*
X59680807Y-53496050D01*
X59753050Y-53497768D01*
G37*
G36*
X57815888Y-53431982D02*
G01*
X57852989Y-53432594D01*
X57879250Y-53433701D01*
X57891760Y-53435256D01*
X57894957Y-53440031D01*
X57902474Y-53459521D01*
X57913106Y-53492451D01*
X57926440Y-53537187D01*
X57942059Y-53592094D01*
X57959549Y-53655540D01*
X57978496Y-53725889D01*
X57998483Y-53801509D01*
X58019097Y-53880765D01*
X58039922Y-53962024D01*
X58060545Y-54043651D01*
X58080548Y-54124013D01*
X58099519Y-54201475D01*
X58117042Y-54274405D01*
X58132702Y-54341168D01*
X58146084Y-54400130D01*
X58156774Y-54449657D01*
X58164356Y-54488116D01*
X58168416Y-54513872D01*
X58168539Y-54525292D01*
X58167603Y-54526982D01*
X58164940Y-54530507D01*
X58160529Y-54533452D01*
X58153015Y-54535869D01*
X58141041Y-54537810D01*
X58123251Y-54539328D01*
X58098288Y-54540473D01*
X58064797Y-54541300D01*
X58021420Y-54541859D01*
X57966801Y-54542203D01*
X57899585Y-54542384D01*
X57818415Y-54542455D01*
X57721934Y-54542467D01*
X57284521Y-54542467D01*
X57277631Y-54523717D01*
X57273596Y-54510851D01*
X57266177Y-54484581D01*
X57256803Y-54449789D01*
X57246587Y-54410536D01*
X57222434Y-54316104D01*
X57242107Y-54300119D01*
X57247481Y-54296238D01*
X57255380Y-54292483D01*
X57266665Y-54289593D01*
X57283236Y-54287456D01*
X57306987Y-54285960D01*
X57339818Y-54284992D01*
X57383623Y-54284440D01*
X57440301Y-54284191D01*
X57511749Y-54284134D01*
X57532095Y-54284125D01*
X57601706Y-54283916D01*
X57656458Y-54283379D01*
X57697791Y-54282453D01*
X57727141Y-54281076D01*
X57745948Y-54279188D01*
X57755650Y-54276726D01*
X57757686Y-54273629D01*
X57757544Y-54273212D01*
X57754239Y-54261275D01*
X57747298Y-54234987D01*
X57737133Y-54195944D01*
X57724157Y-54145743D01*
X57708780Y-54085977D01*
X57691413Y-54018242D01*
X57672469Y-53944135D01*
X57652358Y-53865251D01*
X57650238Y-53856918D01*
X57626498Y-53763180D01*
X57606783Y-53684297D01*
X57590833Y-53619113D01*
X57578390Y-53566476D01*
X57569198Y-53525232D01*
X57562997Y-53494227D01*
X57559531Y-53472308D01*
X57558540Y-53458320D01*
X57559768Y-53451110D01*
X57563341Y-53445938D01*
X57569867Y-53441502D01*
X57581297Y-53438297D01*
X57599985Y-53436055D01*
X57628282Y-53434505D01*
X57668541Y-53433378D01*
X57723113Y-53432405D01*
X57770857Y-53431915D01*
X57815888Y-53431982D01*
G37*
G36*
X58475177Y-53434149D02*
G01*
X58535846Y-53434357D01*
X58590068Y-53434785D01*
X58635798Y-53435399D01*
X58670992Y-53436169D01*
X58693608Y-53437061D01*
X58701600Y-53438043D01*
X58701789Y-53439387D01*
X58704509Y-53453177D01*
X58709957Y-53479196D01*
X58717492Y-53514394D01*
X58726467Y-53555722D01*
X58729377Y-53569261D01*
X58737433Y-53609579D01*
X58743261Y-53643243D01*
X58746347Y-53667060D01*
X58746176Y-53677836D01*
X58736349Y-53681592D01*
X58713131Y-53683243D01*
X58680141Y-53682274D01*
X58677262Y-53682097D01*
X58646411Y-53681151D01*
X58622053Y-53682027D01*
X58609242Y-53684561D01*
X58608823Y-53684896D01*
X58607135Y-53692598D01*
X58608775Y-53710015D01*
X58614000Y-53738407D01*
X58623070Y-53779033D01*
X58636241Y-53833153D01*
X58653772Y-53902027D01*
X58666083Y-53949161D01*
X58681622Y-54007205D01*
X58696264Y-54060389D01*
X58709217Y-54105887D01*
X58719688Y-54140874D01*
X58726884Y-54162524D01*
X58742623Y-54196713D01*
X58774737Y-54241367D01*
X58814262Y-54273626D01*
X58859186Y-54291528D01*
X58926779Y-54299881D01*
X59001657Y-54297554D01*
X59072434Y-54284134D01*
X59114250Y-54273252D01*
X59144188Y-54268345D01*
X59163097Y-54269640D01*
X59173164Y-54276981D01*
X59173784Y-54278233D01*
X59178677Y-54292702D01*
X59186395Y-54319308D01*
X59196009Y-54354749D01*
X59206588Y-54395722D01*
X59215331Y-54431316D01*
X59224083Y-54472982D01*
X59227088Y-54502567D01*
X59223788Y-54522399D01*
X59213630Y-54534803D01*
X59196055Y-54542104D01*
X59170508Y-54546629D01*
X59158266Y-54548286D01*
X59133698Y-54551885D01*
X59118267Y-54554530D01*
X59117108Y-54554755D01*
X59097435Y-54556557D01*
X59065005Y-54557684D01*
X59023350Y-54558182D01*
X58976000Y-54558092D01*
X58926488Y-54557459D01*
X58878343Y-54556325D01*
X58835097Y-54554734D01*
X58800281Y-54552729D01*
X58777427Y-54550353D01*
X58771801Y-54549416D01*
X58678793Y-54526292D01*
X58596358Y-54490660D01*
X58524922Y-54442865D01*
X58464914Y-54383255D01*
X58416761Y-54312173D01*
X58380893Y-54229967D01*
X58376906Y-54216985D01*
X58368822Y-54188398D01*
X58357856Y-54148177D01*
X58344515Y-54098303D01*
X58329312Y-54040759D01*
X58312754Y-53977527D01*
X58295353Y-53910589D01*
X58277619Y-53841926D01*
X58260061Y-53773521D01*
X58243189Y-53707356D01*
X58227514Y-53645413D01*
X58213545Y-53589673D01*
X58201793Y-53542120D01*
X58192767Y-53504734D01*
X58186977Y-53479498D01*
X58184934Y-53468395D01*
X58185014Y-53464392D01*
X58186467Y-53455739D01*
X58191065Y-53448913D01*
X58200497Y-53443697D01*
X58216454Y-53439876D01*
X58240625Y-53437233D01*
X58274702Y-53435553D01*
X58320375Y-53434621D01*
X58379333Y-53434219D01*
X58453267Y-53434134D01*
X58475177Y-53434149D01*
G37*
G36*
X53902210Y-53412074D02*
G01*
X53949865Y-53416391D01*
X54058514Y-53434936D01*
X54157282Y-53465511D01*
X54248182Y-53509005D01*
X54333222Y-53566305D01*
X54414414Y-53638300D01*
X54449103Y-53674636D01*
X54505998Y-53745809D01*
X54549234Y-53819278D01*
X54580647Y-53898447D01*
X54602070Y-53986722D01*
X54606803Y-54022851D01*
X54609949Y-54071430D01*
X54610931Y-54124114D01*
X54609767Y-54175743D01*
X54606476Y-54221158D01*
X54601077Y-54255197D01*
X54586405Y-54301718D01*
X54551679Y-54368419D01*
X54503616Y-54426963D01*
X54443396Y-54476444D01*
X54372200Y-54515960D01*
X54291208Y-54544603D01*
X54201600Y-54561470D01*
X54159536Y-54564717D01*
X54100406Y-54566018D01*
X54038022Y-54564650D01*
X53978977Y-54560780D01*
X53929865Y-54554577D01*
X53921909Y-54553115D01*
X53883964Y-54544759D01*
X53840276Y-54533465D01*
X53794507Y-54520361D01*
X53750316Y-54506579D01*
X53711363Y-54493247D01*
X53681309Y-54481495D01*
X53663812Y-54472453D01*
X53659599Y-54466104D01*
X53650965Y-54445854D01*
X53640029Y-54415439D01*
X53627847Y-54378332D01*
X53615476Y-54338006D01*
X53603970Y-54297933D01*
X53594386Y-54261586D01*
X53587779Y-54232436D01*
X53585206Y-54213956D01*
X53585256Y-54211818D01*
X53592547Y-54191513D01*
X53608129Y-54174562D01*
X53626261Y-54167467D01*
X53635758Y-54169870D01*
X53656507Y-54179411D01*
X53681219Y-54193736D01*
X53698812Y-54204687D01*
X53788944Y-54252569D01*
X53877202Y-54285774D01*
X53962415Y-54303935D01*
X54043415Y-54306689D01*
X54089062Y-54301345D01*
X54141772Y-54286082D01*
X54182270Y-54260959D01*
X54211855Y-54225086D01*
X54231821Y-54177576D01*
X54236568Y-54156328D01*
X54241102Y-54107752D01*
X54240150Y-54052857D01*
X54233953Y-53997698D01*
X54222749Y-53948329D01*
X54217045Y-53930980D01*
X54183560Y-53858113D01*
X54138797Y-53795600D01*
X54084352Y-53744476D01*
X54021822Y-53705780D01*
X53952805Y-53680551D01*
X53878897Y-53669826D01*
X53801695Y-53674642D01*
X53792567Y-53676233D01*
X53725356Y-53694235D01*
X53663761Y-53723474D01*
X53602622Y-53766325D01*
X53580536Y-53783507D01*
X53556617Y-53799214D01*
X53537097Y-53807021D01*
X53517597Y-53809134D01*
X53517017Y-53809133D01*
X53495858Y-53807514D01*
X53485008Y-53799900D01*
X53478316Y-53782050D01*
X53459211Y-53712075D01*
X53443383Y-53653665D01*
X53431281Y-53608016D01*
X53422564Y-53573441D01*
X53416894Y-53548252D01*
X53413929Y-53530760D01*
X53413330Y-53519278D01*
X53414758Y-53512118D01*
X53417872Y-53507591D01*
X53422333Y-53504010D01*
X53425569Y-53501727D01*
X53462100Y-53482360D01*
X53511684Y-53464086D01*
X53571087Y-53447523D01*
X53637076Y-53433292D01*
X53706417Y-53422012D01*
X53775876Y-53414303D01*
X53842218Y-53410784D01*
X53902210Y-53412074D01*
G37*
G36*
X56330766Y-53414159D02*
G01*
X56400214Y-53419345D01*
X56459934Y-53428644D01*
X56553118Y-53452402D01*
X56637336Y-53483087D01*
X56712280Y-53521695D01*
X56781415Y-53570019D01*
X56848204Y-53629856D01*
X56853059Y-53634696D01*
X56909483Y-53696604D01*
X56953819Y-53758316D01*
X56989352Y-53825056D01*
X57019367Y-53902045D01*
X57029465Y-53933405D01*
X57038107Y-53966324D01*
X57043764Y-53999192D01*
X57047354Y-54037581D01*
X57049792Y-54087063D01*
X57050911Y-54145068D01*
X57048561Y-54200470D01*
X57041673Y-54247570D01*
X57029581Y-54290671D01*
X57011619Y-54334082D01*
X56996476Y-54362354D01*
X56952714Y-54419575D01*
X56896109Y-54468908D01*
X56828475Y-54509175D01*
X56751627Y-54539195D01*
X56667379Y-54557791D01*
X56643827Y-54560660D01*
X56581191Y-54564994D01*
X56512996Y-54566112D01*
X56446541Y-54563991D01*
X56389127Y-54558610D01*
X56364653Y-54554373D01*
X56324392Y-54545288D01*
X56279217Y-54533362D01*
X56232655Y-54519691D01*
X56188231Y-54505375D01*
X56149470Y-54491511D01*
X56119898Y-54479197D01*
X56103041Y-54469530D01*
X56095715Y-54458658D01*
X56084984Y-54433808D01*
X56072921Y-54399367D01*
X56060511Y-54358948D01*
X56048741Y-54316165D01*
X56038597Y-54274634D01*
X56031064Y-54237968D01*
X56027130Y-54209782D01*
X56027779Y-54193689D01*
X56036271Y-54181705D01*
X56054509Y-54171205D01*
X56057470Y-54170524D01*
X56068785Y-54169671D01*
X56081951Y-54172683D01*
X56099998Y-54180869D01*
X56125953Y-54195536D01*
X56162844Y-54217992D01*
X56195916Y-54237011D01*
X56264655Y-54268603D01*
X56334575Y-54291230D01*
X56403301Y-54304662D01*
X56468458Y-54308671D01*
X56527669Y-54303028D01*
X56578559Y-54287505D01*
X56618751Y-54261872D01*
X56620300Y-54260459D01*
X56648375Y-54227830D01*
X56667074Y-54188903D01*
X56677431Y-54140631D01*
X56680480Y-54079967D01*
X56677429Y-54024747D01*
X56661299Y-53943150D01*
X56632120Y-53870136D01*
X56590806Y-53806750D01*
X56538268Y-53754036D01*
X56475419Y-53713036D01*
X56403170Y-53684795D01*
X56322434Y-53670357D01*
X56310653Y-53669526D01*
X56241420Y-53672245D01*
X56175190Y-53688910D01*
X56109738Y-53720291D01*
X56042837Y-53767159D01*
X56023847Y-53781940D01*
X55998984Y-53798517D01*
X55978904Y-53806847D01*
X55959214Y-53809134D01*
X55952883Y-53809240D01*
X55943278Y-53809213D01*
X55935707Y-53807198D01*
X55929228Y-53801188D01*
X55922898Y-53789177D01*
X55915775Y-53769160D01*
X55906917Y-53739131D01*
X55895381Y-53697084D01*
X55880224Y-53641013D01*
X55876438Y-53626819D01*
X55866312Y-53586208D01*
X55858754Y-53551817D01*
X55854443Y-53526912D01*
X55854054Y-53514759D01*
X55855433Y-53512564D01*
X55869748Y-53502241D01*
X55896385Y-53489153D01*
X55932363Y-53474457D01*
X55974701Y-53459310D01*
X56020420Y-53444867D01*
X56066539Y-53432287D01*
X56117009Y-53422782D01*
X56183869Y-53415926D01*
X56256887Y-53413035D01*
X56330766Y-53414159D01*
G37*
G36*
X55752242Y-53978572D02*
G01*
X55754448Y-53987224D01*
X55781717Y-54094438D01*
X55805020Y-54186698D01*
X55824606Y-54265090D01*
X55840724Y-54330698D01*
X55853625Y-54384608D01*
X55863557Y-54427905D01*
X55870770Y-54461673D01*
X55875514Y-54486997D01*
X55878037Y-54504964D01*
X55878590Y-54516657D01*
X55877420Y-54523162D01*
X55875032Y-54528078D01*
X55870852Y-54533391D01*
X55863599Y-54537203D01*
X55851006Y-54539762D01*
X55830810Y-54541319D01*
X55800743Y-54542123D01*
X55758541Y-54542422D01*
X55701938Y-54542467D01*
X55660196Y-54542450D01*
X55614085Y-54542252D01*
X55580858Y-54541632D01*
X55558302Y-54540346D01*
X55544204Y-54538154D01*
X55536351Y-54534813D01*
X55532530Y-54530082D01*
X55530528Y-54523717D01*
X55527277Y-54511079D01*
X55520440Y-54484747D01*
X55510867Y-54447993D01*
X55499321Y-54403754D01*
X55486569Y-54354967D01*
X55447333Y-54204967D01*
X55316521Y-54199294D01*
X55300615Y-54198532D01*
X55247444Y-54195100D01*
X55194979Y-54190545D01*
X55148540Y-54185370D01*
X55113445Y-54180080D01*
X55024418Y-54158292D01*
X54936369Y-54125155D01*
X54858403Y-54082996D01*
X54791947Y-54032741D01*
X54738430Y-53975317D01*
X54699281Y-53911647D01*
X54691557Y-53895044D01*
X54682602Y-53873174D01*
X54676989Y-53852762D01*
X54673941Y-53829277D01*
X54672681Y-53798189D01*
X54672506Y-53767552D01*
X55046308Y-53767552D01*
X55046376Y-53810397D01*
X55061468Y-53849019D01*
X55090629Y-53882489D01*
X55132903Y-53909877D01*
X55187334Y-53930253D01*
X55252968Y-53942687D01*
X55266430Y-53944212D01*
X55309265Y-53948516D01*
X55338846Y-53950153D01*
X55357734Y-53949025D01*
X55368489Y-53945034D01*
X55373670Y-53938084D01*
X55373908Y-53937288D01*
X55373388Y-53921406D01*
X55368152Y-53890479D01*
X55358373Y-53845303D01*
X55344221Y-53786672D01*
X55325866Y-53715384D01*
X55317625Y-53684134D01*
X55224196Y-53684317D01*
X55205087Y-53684496D01*
X55151320Y-53687339D01*
X55111196Y-53694219D01*
X55082603Y-53705901D01*
X55063432Y-53723146D01*
X55051573Y-53746718D01*
X55046308Y-53767552D01*
X54672506Y-53767552D01*
X54672434Y-53754967D01*
X54672801Y-53711326D01*
X54674303Y-53678869D01*
X54677492Y-53655045D01*
X54682920Y-53635783D01*
X54691139Y-53617011D01*
X54693806Y-53611730D01*
X54725617Y-53563569D01*
X54767771Y-53523575D01*
X54822249Y-53490215D01*
X54891029Y-53461953D01*
X54898889Y-53459277D01*
X54915107Y-53454038D01*
X54930826Y-53449775D01*
X54947953Y-53446343D01*
X54968395Y-53443598D01*
X54994058Y-53441396D01*
X55026851Y-53439593D01*
X55068679Y-53438044D01*
X55121450Y-53436605D01*
X55187071Y-53435132D01*
X55267448Y-53433481D01*
X55348675Y-53431972D01*
X55422616Y-53430982D01*
X55482425Y-53430728D01*
X55529420Y-53431265D01*
X55564917Y-53432646D01*
X55590233Y-53434923D01*
X55606686Y-53438151D01*
X55615591Y-53442383D01*
X55618267Y-53447671D01*
X55618533Y-53449069D01*
X55621945Y-53463398D01*
X55629019Y-53492025D01*
X55639411Y-53533590D01*
X55652778Y-53586735D01*
X55668778Y-53650099D01*
X55687068Y-53722325D01*
X55707303Y-53802051D01*
X55729142Y-53887920D01*
X55741722Y-53937288D01*
X55752242Y-53978572D01*
G37*
G36*
X53285227Y-53889613D02*
G01*
X53305694Y-53969684D01*
X53326195Y-54049963D01*
X53346310Y-54128813D01*
X53365624Y-54204601D01*
X53383717Y-54275690D01*
X53386430Y-54286366D01*
X53400173Y-54340447D01*
X53414573Y-54397236D01*
X53426500Y-54444421D01*
X53435537Y-54480369D01*
X53441265Y-54503443D01*
X53443267Y-54512009D01*
X53440277Y-54517651D01*
X53429550Y-54529994D01*
X53428993Y-54530528D01*
X53424085Y-54533777D01*
X53416117Y-54536410D01*
X53403577Y-54538471D01*
X53384953Y-54540001D01*
X53358734Y-54541045D01*
X53323408Y-54541645D01*
X53277463Y-54541844D01*
X53219388Y-54541685D01*
X53147671Y-54541211D01*
X53060800Y-54540465D01*
X53014062Y-54540028D01*
X52934938Y-54539204D01*
X52869794Y-54538337D01*
X52816857Y-54537338D01*
X52774353Y-54536115D01*
X52740509Y-54534580D01*
X52713550Y-54532641D01*
X52691703Y-54530210D01*
X52673195Y-54527196D01*
X52656252Y-54523509D01*
X52639100Y-54519058D01*
X52560292Y-54492897D01*
X52483063Y-54455911D01*
X52418075Y-54411465D01*
X52366559Y-54360417D01*
X52329745Y-54303624D01*
X52319623Y-54281057D01*
X52311009Y-54253693D01*
X52306039Y-54222244D01*
X52303368Y-54180433D01*
X52303180Y-54174803D01*
X52662840Y-54174803D01*
X52670401Y-54207056D01*
X52691288Y-54236398D01*
X52693771Y-54238731D01*
X52721514Y-54259127D01*
X52755980Y-54274153D01*
X52800441Y-54284910D01*
X52858168Y-54292496D01*
X52878589Y-54294399D01*
X52913235Y-54297230D01*
X52940492Y-54298953D01*
X52955767Y-54299252D01*
X52966676Y-54298433D01*
X52997738Y-54294950D01*
X53018828Y-54290725D01*
X53026600Y-54286366D01*
X53026018Y-54281922D01*
X53021870Y-54263242D01*
X53014716Y-54234961D01*
X53005723Y-54201311D01*
X52996055Y-54166526D01*
X52986877Y-54134836D01*
X52979355Y-54110476D01*
X52974653Y-54097676D01*
X52970854Y-54092060D01*
X52963863Y-54087691D01*
X52951345Y-54085189D01*
X52930521Y-54084294D01*
X52898610Y-54084747D01*
X52852833Y-54086287D01*
X52844900Y-54086605D01*
X52800852Y-54089136D01*
X52761269Y-54092612D01*
X52730218Y-54096616D01*
X52711764Y-54100732D01*
X52685329Y-54117280D01*
X52668014Y-54143568D01*
X52662840Y-54174803D01*
X52303180Y-54174803D01*
X52302492Y-54154255D01*
X52302766Y-54124777D01*
X52305801Y-54102775D01*
X52312531Y-54082731D01*
X52323887Y-54059134D01*
X52327593Y-54052153D01*
X52353247Y-54015660D01*
X52386565Y-53988300D01*
X52402613Y-53977553D01*
X52419438Y-53964766D01*
X52426148Y-53957401D01*
X52423761Y-53953753D01*
X52410644Y-53943251D01*
X52389821Y-53929949D01*
X52357796Y-53907359D01*
X52322449Y-53874467D01*
X52292600Y-53838668D01*
X52273003Y-53805045D01*
X52264698Y-53781473D01*
X52258609Y-53746801D01*
X52626600Y-53746801D01*
X52626605Y-53747658D01*
X52634921Y-53780618D01*
X52658164Y-53808507D01*
X52694973Y-53829677D01*
X52698325Y-53830931D01*
X52728571Y-53838473D01*
X52770583Y-53844562D01*
X52820129Y-53848559D01*
X52842004Y-53849795D01*
X52875844Y-53851260D01*
X52896880Y-53849179D01*
X52907066Y-53840984D01*
X52908359Y-53824106D01*
X52902713Y-53795977D01*
X52892084Y-53754027D01*
X52874234Y-53682856D01*
X52767932Y-53685578D01*
X52767237Y-53685596D01*
X52715098Y-53687797D01*
X52677372Y-53691928D01*
X52651859Y-53698940D01*
X52636360Y-53709788D01*
X52628674Y-53725424D01*
X52626600Y-53746801D01*
X52258609Y-53746801D01*
X52254883Y-53725581D01*
X52256538Y-53668452D01*
X52269261Y-53614875D01*
X52292653Y-53569637D01*
X52305263Y-53554299D01*
X52346466Y-53518938D01*
X52400913Y-53487221D01*
X52466234Y-53460639D01*
X52477394Y-53456916D01*
X52493002Y-53452054D01*
X52508391Y-53448130D01*
X52525438Y-53445021D01*
X52546018Y-53442608D01*
X52572007Y-53440768D01*
X52605283Y-53439380D01*
X52647720Y-53438324D01*
X52701195Y-53437478D01*
X52767584Y-53436722D01*
X52848763Y-53435933D01*
X52860978Y-53435817D01*
X52940047Y-53435115D01*
X53004245Y-53434683D01*
X53055146Y-53434582D01*
X53094327Y-53434870D01*
X53123363Y-53435607D01*
X53143829Y-53436853D01*
X53157300Y-53438666D01*
X53165353Y-53441107D01*
X53169563Y-53444235D01*
X53171505Y-53448109D01*
X53172791Y-53452715D01*
X53177960Y-53472265D01*
X53186502Y-53505104D01*
X53198001Y-53549595D01*
X53212039Y-53604103D01*
X53228198Y-53666995D01*
X53246061Y-53736634D01*
X53265210Y-53811385D01*
X53268465Y-53824106D01*
X53285227Y-53889613D01*
G37*
G36*
X61465610Y-54053030D02*
G01*
X61454145Y-54092467D01*
X61439435Y-54113662D01*
X61406847Y-54139043D01*
X61365671Y-54153779D01*
X61319664Y-54156093D01*
X61305038Y-54154129D01*
X61271364Y-54146414D01*
X61243664Y-54136246D01*
X61230960Y-54130079D01*
X61215840Y-54125032D01*
X61204484Y-54128138D01*
X61189719Y-54139882D01*
X61163168Y-54153928D01*
X61125270Y-54158835D01*
X61080720Y-54153685D01*
X61032262Y-54139311D01*
X60982642Y-54116545D01*
X60934605Y-54086221D01*
X60890896Y-54049173D01*
X60867617Y-54024370D01*
X60829336Y-53969938D01*
X60805603Y-53911148D01*
X60794977Y-53844925D01*
X60794476Y-53815594D01*
X60803690Y-53756771D01*
X60827235Y-53706440D01*
X60865228Y-53664397D01*
X60917787Y-53630436D01*
X60963993Y-53612146D01*
X61030191Y-53597099D01*
X61102147Y-53590606D01*
X61174929Y-53593056D01*
X61243607Y-53604835D01*
X61286433Y-53617383D01*
X61370851Y-53652930D01*
X61444948Y-53699470D01*
X61507752Y-53755856D01*
X61558291Y-53820941D01*
X61595593Y-53893578D01*
X61618687Y-53972621D01*
X61626600Y-54056922D01*
X61626030Y-54075448D01*
X61614658Y-54136844D01*
X61588898Y-54190115D01*
X61549010Y-54235016D01*
X61495255Y-54271308D01*
X61427890Y-54298747D01*
X61347177Y-54317093D01*
X61339774Y-54318144D01*
X61293050Y-54321542D01*
X61237339Y-54321620D01*
X61178746Y-54318658D01*
X61123376Y-54312935D01*
X61077336Y-54304732D01*
X61072619Y-54303584D01*
X61000431Y-54279520D01*
X60933622Y-54245501D01*
X60877512Y-54204204D01*
X60877141Y-54203870D01*
X60855866Y-54183685D01*
X60840710Y-54167345D01*
X60834934Y-54158361D01*
X60836587Y-54156137D01*
X60849884Y-54152313D01*
X60872153Y-54150800D01*
X60878334Y-54150916D01*
X60902933Y-54154578D01*
X60928627Y-54164973D01*
X60961119Y-54184246D01*
X60966901Y-54187935D01*
X61010171Y-54211922D01*
X61054940Y-54229337D01*
X61106234Y-54241790D01*
X61169078Y-54250892D01*
X61225239Y-54254563D01*
X61300130Y-54251178D01*
X61369854Y-54238683D01*
X61431114Y-54217733D01*
X61480613Y-54188983D01*
X61493640Y-54176639D01*
X61514022Y-54150553D01*
X61531293Y-54121305D01*
X61532428Y-54118978D01*
X61543813Y-54093303D01*
X61549659Y-54071548D01*
X61551087Y-54046898D01*
X61549222Y-54012538D01*
X61545401Y-53980662D01*
X61526506Y-53912962D01*
X61492672Y-53849583D01*
X61443041Y-53788719D01*
X61403909Y-53752196D01*
X61339640Y-53708518D01*
X61268771Y-53679096D01*
X61189894Y-53663400D01*
X61101600Y-53660905D01*
X61058448Y-53664301D01*
X60996757Y-53676909D01*
X60947837Y-53698636D01*
X60910615Y-53730029D01*
X60884018Y-53771634D01*
X60872682Y-53806356D01*
X60869858Y-53857222D01*
X60880895Y-53909213D01*
X60904772Y-53959623D01*
X60940469Y-54005742D01*
X60986966Y-54044862D01*
X61021796Y-54066733D01*
X61047956Y-54078948D01*
X61064728Y-54080522D01*
X61073491Y-54071885D01*
X61072532Y-54062289D01*
X61065586Y-54038996D01*
X61053160Y-54004725D01*
X61036066Y-53961696D01*
X61015116Y-53912131D01*
X61013962Y-53909471D01*
X61001585Y-53880649D01*
X61124346Y-53880649D01*
X61129297Y-53916982D01*
X61142965Y-53956123D01*
X61163945Y-53995077D01*
X61190832Y-54030853D01*
X61222221Y-54060457D01*
X61256707Y-54080897D01*
X61262961Y-54083417D01*
X61293877Y-54091467D01*
X61318147Y-54087506D01*
X61340521Y-54070970D01*
X61342144Y-54069334D01*
X61354645Y-54053698D01*
X61358853Y-54037075D01*
X61356865Y-54011882D01*
X61355773Y-54004721D01*
X61340259Y-53949950D01*
X61314106Y-53899667D01*
X61279840Y-53857836D01*
X61239986Y-53828423D01*
X61231314Y-53824373D01*
X61197304Y-53816323D01*
X61165177Y-53819375D01*
X61140435Y-53833262D01*
X61129517Y-53850114D01*
X61124346Y-53880649D01*
X61001585Y-53880649D01*
X60994264Y-53863602D01*
X60977147Y-53822915D01*
X60963643Y-53789928D01*
X60954783Y-53767160D01*
X60951600Y-53757130D01*
X60954596Y-53753916D01*
X60971812Y-53751645D01*
X61003158Y-53753160D01*
X61034366Y-53757365D01*
X61055214Y-53764395D01*
X61068121Y-53775607D01*
X61081526Y-53793378D01*
X61097053Y-53776221D01*
X61121581Y-53758193D01*
X61158997Y-53747767D01*
X61203609Y-53748241D01*
X61252590Y-53759541D01*
X61303111Y-53781593D01*
X61313674Y-53787674D01*
X61358476Y-53821331D01*
X61397299Y-53862946D01*
X61428783Y-53909722D01*
X61451569Y-53958860D01*
X61464298Y-54007562D01*
X61465150Y-54037075D01*
X61465610Y-54053030D01*
G37*
G36*
X80072331Y-50744612D02*
G01*
X80130727Y-50760230D01*
X80193966Y-50783264D01*
X80259984Y-50812946D01*
X80326717Y-50848507D01*
X80356224Y-50864000D01*
X80386314Y-50875294D01*
X80419134Y-50882317D01*
X80443576Y-50887126D01*
X80499213Y-50906369D01*
X80548793Y-50935708D01*
X80591124Y-50974338D01*
X80625017Y-51021456D01*
X80632709Y-51034780D01*
X80640712Y-51048371D01*
X80644572Y-51054548D01*
X80644582Y-51054559D01*
X80651104Y-51054204D01*
X80666198Y-51051124D01*
X80686622Y-51045979D01*
X80703095Y-51042171D01*
X80754115Y-51038363D01*
X80803899Y-51046278D01*
X80850719Y-51065500D01*
X80892846Y-51095612D01*
X80903249Y-51106271D01*
X80920173Y-51125217D01*
X80942165Y-51150781D01*
X80967922Y-51181429D01*
X80996140Y-51215626D01*
X81025517Y-51251836D01*
X81050689Y-51282940D01*
X81082375Y-51321606D01*
X81113165Y-51358690D01*
X81141368Y-51392174D01*
X81165295Y-51420041D01*
X81183259Y-51440272D01*
X81184465Y-51441591D01*
X81225196Y-51488577D01*
X81258137Y-51532700D01*
X81285597Y-51577734D01*
X81309884Y-51627452D01*
X81333305Y-51685630D01*
X81337426Y-51697116D01*
X81345912Y-51722721D01*
X81355133Y-51752462D01*
X81364456Y-51784068D01*
X81373250Y-51815272D01*
X81380880Y-51843802D01*
X81386715Y-51867389D01*
X81390121Y-51883765D01*
X81390467Y-51890659D01*
X81387249Y-51886557D01*
X81378051Y-51873230D01*
X81363644Y-51851788D01*
X81344789Y-51823378D01*
X81322247Y-51789147D01*
X81296779Y-51750242D01*
X81269145Y-51707809D01*
X81243123Y-51667817D01*
X81217464Y-51628525D01*
X81194679Y-51593778D01*
X81175531Y-51564735D01*
X81160785Y-51542555D01*
X81151206Y-51528397D01*
X81147556Y-51523420D01*
X81147548Y-51523957D01*
X81150798Y-51531944D01*
X81158105Y-51547506D01*
X81168276Y-51568073D01*
X81214326Y-51668784D01*
X81258558Y-51788517D01*
X81294615Y-51913684D01*
X81321773Y-52041735D01*
X81339308Y-52170122D01*
X81340067Y-52177958D01*
X81347754Y-52270949D01*
X81352019Y-52353473D01*
X81352867Y-52425256D01*
X81350299Y-52486024D01*
X81344319Y-52535503D01*
X81334929Y-52573418D01*
X81332685Y-52579110D01*
X81330546Y-52581353D01*
X81328967Y-52577291D01*
X81327840Y-52565722D01*
X81327060Y-52545444D01*
X81326520Y-52515253D01*
X81326113Y-52473946D01*
X81326039Y-52466228D01*
X81321714Y-52348368D01*
X81311617Y-52233085D01*
X81296047Y-52122173D01*
X81275303Y-52017427D01*
X81249683Y-51920643D01*
X81219488Y-51833616D01*
X81201498Y-51791355D01*
X81176251Y-51738685D01*
X81148757Y-51687085D01*
X81120939Y-51640133D01*
X81094719Y-51601407D01*
X81081204Y-51583904D01*
X81048358Y-51545001D01*
X81008960Y-51501976D01*
X80965153Y-51457058D01*
X80919077Y-51412477D01*
X80872874Y-51370461D01*
X80861222Y-51360305D01*
X80832251Y-51335637D01*
X80804788Y-51313010D01*
X80780383Y-51293638D01*
X80760589Y-51278738D01*
X80746957Y-51269524D01*
X80741039Y-51267212D01*
X80741764Y-51271162D01*
X80746158Y-51284522D01*
X80753639Y-51304956D01*
X80763343Y-51330028D01*
X80787331Y-51396108D01*
X80808070Y-51467661D01*
X80821746Y-51534421D01*
X80828178Y-51595200D01*
X80827186Y-51648808D01*
X80818589Y-51694059D01*
X80816651Y-51703413D01*
X80816871Y-51715431D01*
X80820018Y-51731652D01*
X80826580Y-51754511D01*
X80837041Y-51786445D01*
X80845334Y-51811863D01*
X80864752Y-51881360D01*
X80876814Y-51942934D01*
X80881501Y-51996208D01*
X80878798Y-52040803D01*
X80868688Y-52076338D01*
X80851153Y-52102436D01*
X80827924Y-52119547D01*
X80794274Y-52134063D01*
X80755384Y-52143557D01*
X80714612Y-52147484D01*
X80675318Y-52145300D01*
X80640861Y-52136463D01*
X80622441Y-52130131D01*
X80596725Y-52125183D01*
X80576876Y-52126363D01*
X80565254Y-52133754D01*
X80562284Y-52140376D01*
X80562141Y-52153271D01*
X80568324Y-52170324D01*
X80581510Y-52193167D01*
X80602374Y-52223431D01*
X80608459Y-52231960D01*
X80628099Y-52260559D01*
X80647106Y-52289585D01*
X80662092Y-52313906D01*
X80675467Y-52335601D01*
X80689796Y-52353783D01*
X80705806Y-52366331D01*
X80726977Y-52375857D01*
X80756788Y-52384972D01*
X80780249Y-52392263D01*
X80801428Y-52400254D01*
X80815271Y-52407077D01*
X80823568Y-52413691D01*
X80835861Y-52431929D01*
X80839163Y-52452082D01*
X80833346Y-52470848D01*
X80818282Y-52484925D01*
X80808695Y-52488548D01*
X80784527Y-52491854D01*
X80754941Y-52491139D01*
X80723873Y-52486609D01*
X80695260Y-52478471D01*
X80686973Y-52475146D01*
X80662179Y-52462326D01*
X80638987Y-52445015D01*
X80615677Y-52421553D01*
X80590532Y-52390280D01*
X80561833Y-52349534D01*
X80546070Y-52326558D01*
X80528169Y-52302190D01*
X80513501Y-52285057D01*
X80500321Y-52273182D01*
X80486884Y-52264587D01*
X80480903Y-52261140D01*
X80452381Y-52239688D01*
X80421437Y-52209362D01*
X80389980Y-52172184D01*
X80359920Y-52130174D01*
X80353559Y-52120931D01*
X80335662Y-52097807D01*
X80311548Y-52069817D01*
X80280465Y-52036134D01*
X80241662Y-51995936D01*
X80194388Y-51948396D01*
X80061264Y-51815976D01*
X80049268Y-51830516D01*
X80046832Y-51833594D01*
X80040226Y-51845179D01*
X80038378Y-51858021D01*
X80041670Y-51874454D01*
X80050487Y-51896810D01*
X80065213Y-51927424D01*
X80067929Y-51932871D01*
X80076622Y-51951034D01*
X80083901Y-51968170D01*
X80090270Y-51986160D01*
X80096231Y-52006883D01*
X80102290Y-52032221D01*
X80108949Y-52064054D01*
X80116712Y-52104261D01*
X80126083Y-52154724D01*
X80129750Y-52172766D01*
X80136776Y-52199252D01*
X80146363Y-52226304D01*
X80159524Y-52256377D01*
X80177274Y-52291929D01*
X80200625Y-52335415D01*
X80203955Y-52341702D01*
X80218866Y-52380981D01*
X80222008Y-52417160D01*
X80213391Y-52450025D01*
X80193028Y-52479361D01*
X80177113Y-52496045D01*
X80187336Y-52568668D01*
X80190556Y-52592989D01*
X80195587Y-52644991D01*
X80196570Y-52687729D01*
X80193498Y-52722888D01*
X80186360Y-52752154D01*
X80176190Y-52773818D01*
X80164521Y-52784123D01*
X80152053Y-52782818D01*
X80139300Y-52770189D01*
X80126777Y-52746527D01*
X80114998Y-52712120D01*
X80110479Y-52692659D01*
X80105258Y-52664684D01*
X80099984Y-52631944D01*
X80095303Y-52598177D01*
X80094794Y-52594195D01*
X80090399Y-52563283D01*
X80085823Y-52536242D01*
X80081576Y-52515864D01*
X80078173Y-52504939D01*
X80073490Y-52498438D01*
X80060307Y-52484921D01*
X80043495Y-52470799D01*
X80035432Y-52464298D01*
X80007155Y-52432594D01*
X79988277Y-52393868D01*
X79978722Y-52347797D01*
X79978415Y-52294062D01*
X79987278Y-52232341D01*
X79988550Y-52225995D01*
X79997823Y-52166719D01*
X80000331Y-52117000D01*
X79996065Y-52076162D01*
X79985017Y-52043531D01*
X79975702Y-52026951D01*
X79961259Y-52006055D01*
X79946472Y-51988807D01*
X79933440Y-51977585D01*
X79924265Y-51974765D01*
X79923735Y-51975116D01*
X79919536Y-51983597D01*
X79913805Y-52001426D01*
X79907229Y-52026265D01*
X79900491Y-52055781D01*
X79897449Y-52069904D01*
X79881873Y-52136230D01*
X79865053Y-52199069D01*
X79847482Y-52256970D01*
X79829657Y-52308480D01*
X79812072Y-52352149D01*
X79795223Y-52386524D01*
X79779604Y-52410154D01*
X79776939Y-52413226D01*
X79763494Y-52424590D01*
X79748088Y-52429509D01*
X79728652Y-52427880D01*
X79703121Y-52419598D01*
X79669428Y-52404556D01*
X79657471Y-52398965D01*
X79634376Y-52388995D01*
X79615915Y-52382103D01*
X79605267Y-52379530D01*
X79602893Y-52379363D01*
X79599931Y-52379040D01*
X79597720Y-52379627D01*
X79596416Y-52382242D01*
X79596173Y-52388004D01*
X79597145Y-52398034D01*
X79599488Y-52413449D01*
X79603356Y-52435370D01*
X79608903Y-52464916D01*
X79616284Y-52503206D01*
X79625653Y-52551360D01*
X79637166Y-52610495D01*
X79638333Y-52616501D01*
X79648134Y-52667361D01*
X79657791Y-52718124D01*
X79666857Y-52766393D01*
X79674884Y-52809770D01*
X79681425Y-52845857D01*
X79686031Y-52872256D01*
X79686047Y-52872351D01*
X79691589Y-52903919D01*
X79697112Y-52933001D01*
X79701977Y-52956371D01*
X79705547Y-52970801D01*
X79709502Y-52982122D01*
X79727482Y-53018546D01*
X79753988Y-53058934D01*
X79787528Y-53101487D01*
X79826608Y-53144402D01*
X79869737Y-53185879D01*
X79915423Y-53224116D01*
X79923014Y-53230029D01*
X79968142Y-53266753D01*
X80003630Y-53298844D01*
X80030542Y-53327325D01*
X80049945Y-53353216D01*
X80058139Y-53364644D01*
X80075037Y-53383476D01*
X80091183Y-53396740D01*
X80103436Y-53404701D01*
X80130532Y-53424285D01*
X80158810Y-53446803D01*
X80185405Y-53469825D01*
X80207451Y-53490923D01*
X80222080Y-53507666D01*
X80231081Y-53521347D01*
X80239165Y-53542067D01*
X80237126Y-53560492D01*
X80225085Y-53579472D01*
X80224984Y-53579591D01*
X80214831Y-53595683D01*
X80213567Y-53608029D01*
X80219586Y-53615309D01*
X80233573Y-53628107D01*
X80253376Y-53644496D01*
X80276879Y-53662652D01*
X80298691Y-53679041D01*
X80324079Y-53698301D01*
X80345809Y-53714977D01*
X80360766Y-53726691D01*
X80366708Y-53730992D01*
X80385472Y-53742676D01*
X80411441Y-53757421D01*
X80442008Y-53773770D01*
X80474566Y-53790266D01*
X80476373Y-53791156D01*
X80518317Y-53812438D01*
X80550020Y-53830072D01*
X80572649Y-53844920D01*
X80587370Y-53857844D01*
X80595347Y-53869707D01*
X80597747Y-53881370D01*
X80595867Y-53890538D01*
X80584313Y-53908382D01*
X80563814Y-53927210D01*
X80536206Y-53945462D01*
X80503323Y-53961581D01*
X80477572Y-53972038D01*
X80459891Y-53978250D01*
X80449650Y-53979995D01*
X80444919Y-53977587D01*
X80443771Y-53971344D01*
X80442834Y-53964509D01*
X80434053Y-53944468D01*
X80417232Y-53919707D01*
X80393847Y-53891796D01*
X80365372Y-53862306D01*
X80333283Y-53832808D01*
X80299053Y-53804871D01*
X80264158Y-53780067D01*
X80252389Y-53772236D01*
X80220505Y-53748893D01*
X80195798Y-53726558D01*
X80175046Y-53702424D01*
X80157038Y-53679753D01*
X80135495Y-53654113D01*
X80116324Y-53632654D01*
X80092212Y-53604120D01*
X80056430Y-53549154D01*
X80027872Y-53487739D01*
X80016665Y-53462619D01*
X80001033Y-53438840D01*
X79980199Y-53418065D01*
X79951953Y-53398143D01*
X79914090Y-53376925D01*
X79908440Y-53373987D01*
X79892911Y-53365702D01*
X79880063Y-53357860D01*
X79868791Y-53349073D01*
X79857991Y-53337950D01*
X79846559Y-53323104D01*
X79833390Y-53303143D01*
X79817380Y-53276680D01*
X79797425Y-53242324D01*
X79772420Y-53198687D01*
X79744308Y-53150262D01*
X79715744Y-53103177D01*
X79690726Y-53064918D01*
X79668283Y-53034263D01*
X79647442Y-53009993D01*
X79627230Y-52990887D01*
X79606676Y-52975725D01*
X79584806Y-52963287D01*
X79557629Y-52948888D01*
X79530817Y-52931294D01*
X79511931Y-52912473D01*
X79498986Y-52889653D01*
X79490000Y-52860061D01*
X79482990Y-52820923D01*
X79480154Y-52804945D01*
X79474094Y-52776332D01*
X79466064Y-52741703D01*
X79456824Y-52704067D01*
X79447137Y-52666435D01*
X79437762Y-52631815D01*
X79429462Y-52603218D01*
X79422996Y-52583652D01*
X79422181Y-52581625D01*
X79419172Y-52577452D01*
X79414922Y-52578649D01*
X79408211Y-52586548D01*
X79397819Y-52602477D01*
X79382526Y-52627767D01*
X79370152Y-52647662D01*
X79348201Y-52679653D01*
X79325909Y-52708654D01*
X79304889Y-52732738D01*
X79286753Y-52749979D01*
X79273115Y-52758450D01*
X79252424Y-52758959D01*
X79224638Y-52749625D01*
X79190020Y-52730537D01*
X79148772Y-52701806D01*
X79101094Y-52663542D01*
X79097521Y-52660572D01*
X79074897Y-52643411D01*
X79048286Y-52625320D01*
X79019707Y-52607430D01*
X78991178Y-52590877D01*
X78964715Y-52576791D01*
X78942336Y-52566306D01*
X78926059Y-52560555D01*
X78917900Y-52560671D01*
X78917306Y-52561649D01*
X78915173Y-52572596D01*
X78913483Y-52593105D01*
X78912254Y-52620973D01*
X78911507Y-52653996D01*
X78911259Y-52689972D01*
X78911530Y-52726696D01*
X78912340Y-52761966D01*
X78913707Y-52793577D01*
X78915651Y-52819327D01*
X78918722Y-52845571D01*
X78925166Y-52880918D01*
X78934804Y-52911174D01*
X78949115Y-52939687D01*
X78969576Y-52969801D01*
X78997668Y-53004861D01*
X78999479Y-53007026D01*
X79035250Y-53052348D01*
X79068874Y-53100331D01*
X79101435Y-53152818D01*
X79134013Y-53211654D01*
X79167691Y-53278681D01*
X79203549Y-53355743D01*
X79213882Y-53378035D01*
X79231318Y-53412437D01*
X79246114Y-53437169D01*
X79257689Y-53451208D01*
X79258886Y-53452230D01*
X79290744Y-53478716D01*
X79329088Y-53509548D01*
X79370743Y-53542260D01*
X79412538Y-53574386D01*
X79451299Y-53603459D01*
X79483854Y-53627013D01*
X79484592Y-53627533D01*
X79527108Y-53656950D01*
X79562477Y-53680041D01*
X79593213Y-53698050D01*
X79621828Y-53712226D01*
X79650837Y-53723816D01*
X79682750Y-53734065D01*
X79720083Y-53744221D01*
X79743035Y-53750217D01*
X79783291Y-53761645D01*
X79814848Y-53772775D01*
X79839984Y-53785093D01*
X79860974Y-53800086D01*
X79880097Y-53819241D01*
X79899628Y-53844044D01*
X79921845Y-53875983D01*
X79934597Y-53890944D01*
X79955847Y-53909942D01*
X79980356Y-53927607D01*
X80036633Y-53963431D01*
X80107712Y-54008462D01*
X80169892Y-54047503D01*
X80223993Y-54080994D01*
X80270839Y-54109379D01*
X80311252Y-54133099D01*
X80346054Y-54152598D01*
X80376067Y-54168316D01*
X80402113Y-54180698D01*
X80425015Y-54190185D01*
X80445595Y-54197219D01*
X80464675Y-54202243D01*
X80483078Y-54205699D01*
X80501626Y-54208029D01*
X80509814Y-54208887D01*
X80534581Y-54212289D01*
X80552513Y-54217018D01*
X80567940Y-54224538D01*
X80585195Y-54236318D01*
X80589460Y-54239415D01*
X80606669Y-54250624D01*
X80617685Y-54254618D01*
X80624893Y-54252361D01*
X80629762Y-54250362D01*
X80645532Y-54251255D01*
X80667761Y-54257379D01*
X80694005Y-54267622D01*
X80721817Y-54280872D01*
X80748753Y-54296017D01*
X80772368Y-54311946D01*
X80790218Y-54327546D01*
X80800129Y-54340195D01*
X80807887Y-54360799D01*
X80805016Y-54379247D01*
X80792579Y-54394470D01*
X80771635Y-54405395D01*
X80743244Y-54410954D01*
X80708468Y-54410075D01*
X80699054Y-54408760D01*
X80685179Y-54405739D01*
X80670628Y-54400773D01*
X80653816Y-54393029D01*
X80633158Y-54381678D01*
X80607071Y-54365888D01*
X80573970Y-54344829D01*
X80532270Y-54317669D01*
X80470643Y-54278161D01*
X80414799Y-54244358D01*
X80368034Y-54218411D01*
X80330440Y-54200372D01*
X80302112Y-54190291D01*
X80294061Y-54188014D01*
X80276131Y-54181462D01*
X80255548Y-54171813D01*
X80230849Y-54158237D01*
X80200571Y-54139906D01*
X80163253Y-54115992D01*
X80117432Y-54085666D01*
X80115258Y-54084213D01*
X80076769Y-54058599D01*
X80046806Y-54039106D01*
X80023791Y-54024959D01*
X80006147Y-54015385D01*
X79992295Y-54009610D01*
X79980659Y-54006861D01*
X79969661Y-54006364D01*
X79957723Y-54007345D01*
X79954671Y-54007666D01*
X79936559Y-54008094D01*
X79919754Y-54004909D01*
X79902315Y-53997029D01*
X79882302Y-53983375D01*
X79857777Y-53962866D01*
X79826798Y-53934421D01*
X79805603Y-53914811D01*
X79759567Y-53875043D01*
X79714846Y-53841091D01*
X79667376Y-53809998D01*
X79613094Y-53778804D01*
X79606198Y-53774954D01*
X79575426Y-53756424D01*
X79539933Y-53733428D01*
X79503585Y-53708523D01*
X79470245Y-53684266D01*
X79437101Y-53659358D01*
X79394265Y-53627845D01*
X79358277Y-53602581D01*
X79327504Y-53582661D01*
X79300315Y-53567180D01*
X79275077Y-53555233D01*
X79250156Y-53545915D01*
X79223920Y-53538320D01*
X79194736Y-53531545D01*
X79173638Y-53526749D01*
X79138601Y-53516553D01*
X79110064Y-53504018D01*
X79084154Y-53487252D01*
X79056993Y-53464367D01*
X79049785Y-53457604D01*
X79032524Y-53439282D01*
X79017561Y-53419214D01*
X79003810Y-53395366D01*
X78990184Y-53365704D01*
X78975599Y-53328195D01*
X78958969Y-53280805D01*
X78946098Y-53244314D01*
X78921044Y-53180005D01*
X78895022Y-53121106D01*
X78869051Y-53069860D01*
X78844154Y-53028510D01*
X78827124Y-53002669D01*
X78808018Y-52971784D01*
X78789990Y-52940008D01*
X78771947Y-52905218D01*
X78752798Y-52865288D01*
X78731449Y-52818096D01*
X78706808Y-52761516D01*
X78703624Y-52754122D01*
X78680671Y-52701674D01*
X78661524Y-52659744D01*
X78645695Y-52627439D01*
X78632696Y-52603867D01*
X78622040Y-52588135D01*
X78613239Y-52579350D01*
X78605806Y-52576621D01*
X78597828Y-52578538D01*
X78586583Y-52585885D01*
X78572104Y-52599650D01*
X78553494Y-52620793D01*
X78529852Y-52650270D01*
X78500279Y-52689040D01*
X78493666Y-52697876D01*
X78467288Y-52734064D01*
X78447056Y-52764163D01*
X78431488Y-52790909D01*
X78419108Y-52817041D01*
X78408435Y-52845297D01*
X78397992Y-52878415D01*
X78381809Y-52938815D01*
X78360727Y-53052165D01*
X78351664Y-53165411D01*
X78354708Y-53277736D01*
X78355104Y-53282660D01*
X78360826Y-53387435D01*
X78361650Y-53493005D01*
X78357748Y-53597286D01*
X78349294Y-53698199D01*
X78336458Y-53793660D01*
X78319414Y-53881589D01*
X78298332Y-53959903D01*
X78294258Y-53972833D01*
X78284015Y-54006533D01*
X78277318Y-54031856D01*
X78273825Y-54051286D01*
X78273193Y-54067302D01*
X78275080Y-54082389D01*
X78279144Y-54099028D01*
X78280564Y-54104214D01*
X78289653Y-54141045D01*
X78295433Y-54174214D01*
X78297842Y-54206291D01*
X78296819Y-54239845D01*
X78292302Y-54277446D01*
X78284230Y-54321664D01*
X78272542Y-54375069D01*
X78265545Y-54404488D01*
X78250792Y-54462058D01*
X78233660Y-54524515D01*
X78214887Y-54589447D01*
X78195210Y-54654440D01*
X78175367Y-54717084D01*
X78156096Y-54774964D01*
X78138133Y-54825670D01*
X78122216Y-54866789D01*
X78118000Y-54877553D01*
X78109720Y-54904606D01*
X78104213Y-54934812D01*
X78100547Y-54972738D01*
X78096160Y-55015814D01*
X78089354Y-55049763D01*
X78079970Y-55073628D01*
X78067709Y-55088464D01*
X78052682Y-55093912D01*
X78029375Y-55093314D01*
X78001231Y-55086502D01*
X77970979Y-55073888D01*
X77966565Y-55071583D01*
X77938253Y-55054563D01*
X77903576Y-55030841D01*
X77864593Y-55002021D01*
X77823366Y-54969710D01*
X77781953Y-54935515D01*
X77742415Y-54901042D01*
X77706811Y-54867897D01*
X77661604Y-54822371D01*
X77592862Y-54745787D01*
X77527589Y-54663301D01*
X77464914Y-54573637D01*
X77403963Y-54475518D01*
X77343864Y-54367667D01*
X77283744Y-54248808D01*
X77281994Y-54245189D01*
X77246936Y-54170183D01*
X77217284Y-54100877D01*
X77192281Y-54034699D01*
X77171167Y-53969073D01*
X77153185Y-53901426D01*
X77137576Y-53829184D01*
X77123581Y-53749772D01*
X77110442Y-53660617D01*
X77107521Y-53638574D01*
X77104295Y-53611347D01*
X77101756Y-53584872D01*
X77099824Y-53557283D01*
X77098418Y-53526711D01*
X77097458Y-53491291D01*
X77096861Y-53449155D01*
X77096548Y-53398435D01*
X77096437Y-53337266D01*
X77096441Y-53315130D01*
X77096738Y-53247342D01*
X77097607Y-53189130D01*
X77099218Y-53138381D01*
X77101741Y-53092981D01*
X77105348Y-53050818D01*
X77110210Y-53009777D01*
X77116497Y-52967745D01*
X77124380Y-52922609D01*
X77134030Y-52872256D01*
X77153586Y-52783820D01*
X77181238Y-52682670D01*
X77213414Y-52585632D01*
X77249618Y-52493619D01*
X77289350Y-52407542D01*
X77332114Y-52328313D01*
X77377410Y-52256843D01*
X77424742Y-52194045D01*
X77473610Y-52140829D01*
X77523518Y-52098108D01*
X77573967Y-52066794D01*
X77580530Y-52063544D01*
X77628217Y-52042693D01*
X77672606Y-52029252D01*
X77718509Y-52022079D01*
X77770735Y-52020030D01*
X77777245Y-52020070D01*
X77805159Y-52020989D01*
X77831504Y-52023498D01*
X77857844Y-52028105D01*
X77885741Y-52035319D01*
X77916760Y-52045650D01*
X77952464Y-52059607D01*
X77994417Y-52077698D01*
X78044183Y-52100433D01*
X78103325Y-52128321D01*
X78108765Y-52130911D01*
X78155298Y-52153051D01*
X78201603Y-52175066D01*
X78245502Y-52195921D01*
X78284815Y-52214581D01*
X78317365Y-52230012D01*
X78340974Y-52241180D01*
X78409248Y-52273408D01*
X78376770Y-52208614D01*
X78373246Y-52201484D01*
X78349552Y-52148280D01*
X78328565Y-52092248D01*
X78311769Y-52037673D01*
X78300648Y-51988838D01*
X78295198Y-51945790D01*
X78293985Y-51881594D01*
X78300396Y-51818400D01*
X78314050Y-51759364D01*
X78334566Y-51707646D01*
X78340680Y-51695056D01*
X78346075Y-51682327D01*
X78346987Y-51677397D01*
X78340930Y-51679498D01*
X78325764Y-51685527D01*
X78303871Y-51694536D01*
X78277594Y-51705573D01*
X78265302Y-51710835D01*
X78213595Y-51733951D01*
X78158709Y-51759835D01*
X78103075Y-51787248D01*
X78049121Y-51814949D01*
X77999276Y-51841697D01*
X77955970Y-51866252D01*
X77921632Y-51887373D01*
X77897920Y-51902699D01*
X77866239Y-51922238D01*
X77841971Y-51935594D01*
X77823581Y-51943494D01*
X77809539Y-51946665D01*
X77798312Y-51945832D01*
X77786610Y-51938248D01*
X77781011Y-51922090D01*
X77782487Y-51899014D01*
X77790642Y-51870368D01*
X77805083Y-51837505D01*
X77825414Y-51801774D01*
X77851242Y-51764525D01*
X77851323Y-51764418D01*
X77863364Y-51747357D01*
X77871001Y-51734248D01*
X77872584Y-51727920D01*
X77872396Y-51727751D01*
X77862906Y-51724948D01*
X77844118Y-51722977D01*
X77818875Y-51721862D01*
X77790022Y-51721630D01*
X77760403Y-51722305D01*
X77732863Y-51723912D01*
X77710246Y-51726478D01*
X77630859Y-51744162D01*
X77546794Y-51773055D01*
X77458972Y-51813072D01*
X77367218Y-51864303D01*
X77271356Y-51926838D01*
X77171209Y-52000765D01*
X77096328Y-52057810D01*
X77021072Y-52112154D01*
X76950535Y-52159674D01*
X76882924Y-52201620D01*
X76846552Y-52222537D01*
X76787017Y-52253812D01*
X76731834Y-52279059D01*
X76681711Y-52298133D01*
X76637352Y-52310890D01*
X76599465Y-52317184D01*
X76568756Y-52316869D01*
X76545931Y-52309802D01*
X76531696Y-52295836D01*
X76526757Y-52274826D01*
X76527773Y-52263682D01*
X76537800Y-52234523D01*
X76557973Y-52201050D01*
X76587587Y-52163893D01*
X76625935Y-52123681D01*
X76672311Y-52081042D01*
X76726008Y-52036606D01*
X76786319Y-51991002D01*
X76852539Y-51944859D01*
X76923961Y-51898807D01*
X76999879Y-51853473D01*
X77100051Y-51798447D01*
X77222926Y-51737636D01*
X77345104Y-51684345D01*
X77465463Y-51638960D01*
X77582878Y-51601862D01*
X77696227Y-51573435D01*
X77804387Y-51554063D01*
X77906234Y-51544128D01*
X77927141Y-51542993D01*
X77951895Y-51541120D01*
X77969692Y-51538416D01*
X77983799Y-51534064D01*
X77997486Y-51527245D01*
X78014018Y-51517141D01*
X78015454Y-51516241D01*
X78028887Y-51508509D01*
X78043898Y-51501399D01*
X78062223Y-51494344D01*
X78085600Y-51486775D01*
X78115765Y-51478128D01*
X78154456Y-51467834D01*
X78203409Y-51455326D01*
X78355846Y-51416834D01*
X78355846Y-51362343D01*
X78355846Y-51307852D01*
X78335829Y-51307940D01*
X78335053Y-51307948D01*
X78321621Y-51308516D01*
X78298408Y-51309862D01*
X78267669Y-51311843D01*
X78231658Y-51314314D01*
X78192631Y-51317129D01*
X78163468Y-51319245D01*
X78117397Y-51322291D01*
X78076472Y-51324377D01*
X78038968Y-51325385D01*
X78003154Y-51325198D01*
X77967305Y-51323699D01*
X77929691Y-51320771D01*
X77888584Y-51316295D01*
X77842258Y-51310154D01*
X77788984Y-51302232D01*
X77727033Y-51292410D01*
X77654679Y-51280572D01*
X77597742Y-51271552D01*
X77521945Y-51261056D01*
X77453171Y-51253665D01*
X77388567Y-51249141D01*
X77325283Y-51247246D01*
X77260468Y-51247743D01*
X77237403Y-51248338D01*
X77200184Y-51249627D01*
X77170823Y-51251373D01*
X77146370Y-51253926D01*
X77123875Y-51257634D01*
X77100389Y-51262846D01*
X77072963Y-51269911D01*
X77047490Y-51276854D01*
X77017167Y-51285513D01*
X76984842Y-51295205D01*
X76949451Y-51306284D01*
X76909933Y-51319105D01*
X76865223Y-51334025D01*
X76814260Y-51351397D01*
X76755979Y-51371578D01*
X76689318Y-51394923D01*
X76613213Y-51421787D01*
X76526603Y-51452525D01*
X76468903Y-51473003D01*
X76366586Y-51509071D01*
X76273529Y-51541502D01*
X76188256Y-51570787D01*
X76109289Y-51597416D01*
X76035150Y-51621879D01*
X75964361Y-51644666D01*
X75895446Y-51666269D01*
X75826926Y-51687178D01*
X75757324Y-51707883D01*
X75693946Y-51726349D01*
X75602065Y-51752353D01*
X75520841Y-51774202D01*
X75449708Y-51791942D01*
X75388106Y-51805613D01*
X75335471Y-51815260D01*
X75291239Y-51820925D01*
X75254849Y-51822651D01*
X75225738Y-51820481D01*
X75203342Y-51814458D01*
X75187099Y-51804624D01*
X75176446Y-51791024D01*
X75170821Y-51773699D01*
X75169660Y-51752693D01*
X75171194Y-51738876D01*
X75181468Y-51704136D01*
X75200223Y-51665214D01*
X75226238Y-51623936D01*
X75258293Y-51582126D01*
X75295169Y-51541611D01*
X75335646Y-51504217D01*
X75338101Y-51502160D01*
X75425045Y-51437103D01*
X75521551Y-51379014D01*
X75626844Y-51328192D01*
X75740149Y-51284932D01*
X75860691Y-51249533D01*
X75987694Y-51222290D01*
X76120383Y-51203502D01*
X76136212Y-51202024D01*
X76166370Y-51199891D01*
X76205248Y-51197773D01*
X76253173Y-51195660D01*
X76310473Y-51193545D01*
X76377473Y-51191418D01*
X76454503Y-51189270D01*
X76541887Y-51187092D01*
X76639954Y-51184875D01*
X76749031Y-51182610D01*
X76869444Y-51180289D01*
X77001521Y-51177901D01*
X77145589Y-51175440D01*
X77164100Y-51175130D01*
X77313132Y-51172559D01*
X77450342Y-51170038D01*
X77576176Y-51167551D01*
X77691077Y-51165084D01*
X77795489Y-51162622D01*
X77889856Y-51160150D01*
X77974622Y-51157655D01*
X78050232Y-51155120D01*
X78117129Y-51152531D01*
X78175758Y-51149873D01*
X78226562Y-51147132D01*
X78269986Y-51144293D01*
X78306473Y-51141340D01*
X78336469Y-51138260D01*
X78360416Y-51135038D01*
X78364560Y-51134368D01*
X78381387Y-51130832D01*
X78396219Y-51125484D01*
X78411914Y-51116798D01*
X78431332Y-51103250D01*
X78457330Y-51083313D01*
X78503928Y-51048036D01*
X78573191Y-50999223D01*
X78644200Y-50953004D01*
X78714395Y-50910962D01*
X78781216Y-50874677D01*
X78842101Y-50845730D01*
X78848971Y-50842769D01*
X78901146Y-50821835D01*
X78948079Y-50806543D01*
X78994136Y-50795854D01*
X79043685Y-50788730D01*
X79101094Y-50784131D01*
X79120789Y-50782966D01*
X79153678Y-50780931D01*
X79182319Y-50778956D01*
X79209066Y-50776814D01*
X79236270Y-50774278D01*
X79266285Y-50771123D01*
X79301465Y-50767120D01*
X79344162Y-50762045D01*
X79396729Y-50755670D01*
X79455688Y-50749115D01*
X79522185Y-50743703D01*
X79577116Y-50741810D01*
X79620422Y-50743435D01*
X79652043Y-50748579D01*
X79671918Y-50757240D01*
X79678631Y-50764031D01*
X79690979Y-50782675D01*
X79703928Y-50808115D01*
X79715936Y-50837194D01*
X79725460Y-50866757D01*
X79726224Y-50868941D01*
X79729819Y-50871614D01*
X79736992Y-50868653D01*
X79749484Y-50859064D01*
X79769035Y-50841852D01*
X79780242Y-50832099D01*
X79828057Y-50797238D01*
X79879202Y-50769459D01*
X79931358Y-50749687D01*
X79982205Y-50738849D01*
X80029423Y-50737870D01*
X80072331Y-50744612D01*
G37*
G36*
X66863250Y-50632305D02*
G01*
X66863250Y-51051418D01*
X66652253Y-51065800D01*
X66441256Y-51080181D01*
X66441256Y-53204841D01*
X66441256Y-55329500D01*
X66341813Y-55391317D01*
X66317278Y-55406352D01*
X66269307Y-55431794D01*
X66225541Y-55444193D01*
X66171252Y-55446519D01*
X66091714Y-55441740D01*
X65941056Y-55430345D01*
X65934946Y-55546030D01*
X65928835Y-55661715D01*
X65798218Y-55741181D01*
X65667601Y-55820647D01*
X65456604Y-55809497D01*
X65385894Y-55805777D01*
X65258199Y-55799113D01*
X65122862Y-55792099D01*
X64999444Y-55785751D01*
X64753281Y-55773155D01*
X64753281Y-54692844D01*
X64753281Y-53612532D01*
X64592798Y-53598533D01*
X64572861Y-53596903D01*
X64497767Y-53592818D01*
X64440428Y-53592862D01*
X64411944Y-53597124D01*
X64409091Y-53603618D01*
X64403837Y-53646390D01*
X64399485Y-53727918D01*
X64396059Y-53847241D01*
X64393582Y-54003399D01*
X64392079Y-54195430D01*
X64391573Y-54422374D01*
X64391573Y-55235033D01*
X64296122Y-55234591D01*
X64290220Y-55234527D01*
X64238434Y-55233049D01*
X64153789Y-55229838D01*
X64042349Y-55225155D01*
X63910174Y-55219262D01*
X63763327Y-55212420D01*
X63607870Y-55204890D01*
X63570854Y-55203069D01*
X63419209Y-55195719D01*
X63279220Y-55189107D01*
X63156584Y-55183491D01*
X63056998Y-55179128D01*
X62986158Y-55176275D01*
X62949761Y-55175189D01*
X62884452Y-55174748D01*
X62884452Y-54783675D01*
X62884452Y-54392602D01*
X62989951Y-54358568D01*
X62993261Y-54357520D01*
X63081794Y-54338356D01*
X63205972Y-54324234D01*
X63361707Y-54315628D01*
X63627965Y-54306722D01*
X63627965Y-53947739D01*
X63627965Y-53588756D01*
X63442087Y-53582978D01*
X63256209Y-53577200D01*
X63251025Y-52386006D01*
X63250823Y-52338404D01*
X63249948Y-52086690D01*
X63249604Y-51872157D01*
X63249834Y-51692243D01*
X63250681Y-51544385D01*
X63252187Y-51426022D01*
X63254397Y-51334590D01*
X63257352Y-51267528D01*
X63261095Y-51222274D01*
X63265671Y-51196266D01*
X63271120Y-51186940D01*
X63292504Y-51184339D01*
X63348881Y-51180709D01*
X63432436Y-51176748D01*
X63536171Y-51172783D01*
X63653084Y-51169140D01*
X64009769Y-51159211D01*
X64009769Y-51971330D01*
X64009769Y-52783450D01*
X64379375Y-52783450D01*
X64393229Y-52783447D01*
X64523243Y-52782892D01*
X64618776Y-52781101D01*
X64685052Y-52777660D01*
X64727291Y-52772156D01*
X64750715Y-52764176D01*
X64760548Y-52753308D01*
X64768092Y-52743791D01*
X64789481Y-52735135D01*
X64829386Y-52729206D01*
X64893223Y-52725543D01*
X64986409Y-52723683D01*
X65114360Y-52723166D01*
X65456604Y-52723166D01*
X65456604Y-51918505D01*
X65456604Y-51113844D01*
X65089872Y-51124977D01*
X65030361Y-51126787D01*
X64867664Y-51131765D01*
X64692831Y-51137147D01*
X64523298Y-51142394D01*
X64376501Y-51146970D01*
X64029864Y-51157831D01*
X64029864Y-50756128D01*
X64029864Y-50354426D01*
X64115267Y-50343668D01*
X64116011Y-50343578D01*
X64152768Y-50340780D01*
X64225765Y-50336570D01*
X64331253Y-50331123D01*
X64465481Y-50324613D01*
X64624701Y-50317215D01*
X64805163Y-50309102D01*
X65003118Y-50300449D01*
X65214817Y-50291432D01*
X65436509Y-50282222D01*
X65444830Y-50281881D01*
X65666591Y-50272695D01*
X65878500Y-50263755D01*
X66076769Y-50255230D01*
X66257609Y-50247293D01*
X66417233Y-50240112D01*
X66551852Y-50233858D01*
X66657679Y-50228702D01*
X66730923Y-50224813D01*
X66767799Y-50222363D01*
X66863250Y-50213192D01*
X66863250Y-50632305D01*
G37*
D14*
%TO.C,C9*%
X80153733Y-56390000D02*
X80446267Y-56390000D01*
X80153733Y-57410000D02*
X80446267Y-57410000D01*
%TO.C,R2*%
X69345276Y-65877500D02*
X69854724Y-65877500D01*
X69345276Y-66922500D02*
X69854724Y-66922500D01*
%TO.C,SW2*%
X95571000Y-68520600D02*
X95571000Y-63000600D01*
X96221000Y-63000600D02*
X95571000Y-63000600D01*
X96221000Y-63000600D02*
X96221000Y-61150600D01*
X96840000Y-68520600D02*
X95571000Y-68520600D01*
X99501000Y-63000600D02*
X98231000Y-63000600D01*
X99501000Y-68520600D02*
X98231000Y-68520600D01*
X99501000Y-68520600D02*
X99501000Y-63000600D01*
%TO.C,D4*%
X69600000Y-60900000D02*
X72860000Y-60900000D01*
X69600000Y-62600000D02*
X72860000Y-62600000D01*
X72860000Y-62600000D02*
X72860000Y-60900000D01*
%TO.C,C7*%
X61446267Y-50590000D02*
X61153733Y-50590000D01*
X61446267Y-51610000D02*
X61153733Y-51610000D01*
%TO.C,R9*%
X75145276Y-61027500D02*
X75654724Y-61027500D01*
X75145276Y-62072500D02*
X75654724Y-62072500D01*
%TO.C,C17*%
X89514633Y-69797200D02*
X89807167Y-69797200D01*
X89514633Y-70817200D02*
X89807167Y-70817200D01*
%TO.C,R13*%
X69295276Y-69977500D02*
X69804724Y-69977500D01*
X69295276Y-71022500D02*
X69804724Y-71022500D01*
%TO.C,D2*%
X69600000Y-67100000D02*
X72860000Y-67100000D01*
X69600000Y-68800000D02*
X72860000Y-68800000D01*
X72860000Y-68800000D02*
X72860000Y-67100000D01*
%TO.C,R21*%
X81745276Y-69577500D02*
X82254724Y-69577500D01*
X81745276Y-70622500D02*
X82254724Y-70622500D01*
%TO.C,R4*%
X69345276Y-62777500D02*
X69854724Y-62777500D01*
X69345276Y-63822500D02*
X69854724Y-63822500D01*
%TO.C,R6*%
X69345276Y-59677500D02*
X69854724Y-59677500D01*
X69345276Y-60722500D02*
X69854724Y-60722500D01*
%TO.C,R8*%
X75145276Y-64127500D02*
X75654724Y-64127500D01*
X75145276Y-65172500D02*
X75654724Y-65172500D01*
%TO.C,C11*%
X90946267Y-67090000D02*
X90653733Y-67090000D01*
X90946267Y-68110000D02*
X90653733Y-68110000D01*
%TO.C,R12*%
X76145276Y-68777500D02*
X76654724Y-68777500D01*
X76145276Y-69822500D02*
X76654724Y-69822500D01*
%TO.C,C16*%
X93908833Y-69771800D02*
X94201367Y-69771800D01*
X93908833Y-70791800D02*
X94201367Y-70791800D01*
%TO.C,R7*%
X75145276Y-67227500D02*
X75654724Y-67227500D01*
X75145276Y-68272500D02*
X75654724Y-68272500D01*
%TO.C,C6*%
X73296267Y-69990000D02*
X73003733Y-69990000D01*
X73296267Y-71010000D02*
X73003733Y-71010000D01*
%TO.C,R19*%
X88877500Y-55454724D02*
X88877500Y-54945276D01*
X89922500Y-55454724D02*
X89922500Y-54945276D01*
%TO.C,R14*%
X57445276Y-50577500D02*
X57954724Y-50577500D01*
X57445276Y-51622500D02*
X57954724Y-51622500D01*
%TO.C,R11*%
X76145276Y-65677500D02*
X76654724Y-65677500D01*
X76145276Y-66722500D02*
X76654724Y-66722500D01*
%TO.C,D3*%
X69600000Y-64000000D02*
X72860000Y-64000000D01*
X69600000Y-65700000D02*
X72860000Y-65700000D01*
X72860000Y-65700000D02*
X72860000Y-64000000D01*
%TO.C,R10*%
X76145276Y-62577500D02*
X76654724Y-62577500D01*
X76145276Y-63622500D02*
X76654724Y-63622500D01*
%TO.C,C18*%
X97846267Y-52290000D02*
X97553733Y-52290000D01*
X97846267Y-53310000D02*
X97553733Y-53310000D01*
%TO.C,R20*%
X82254724Y-67277500D02*
X81745276Y-67277500D01*
X82254724Y-68322500D02*
X81745276Y-68322500D01*
%TO.C,R24*%
X85954724Y-69377500D02*
X85445276Y-69377500D01*
X85954724Y-70422500D02*
X85445276Y-70422500D01*
%TO.C,C10*%
X87546267Y-66290000D02*
X87253733Y-66290000D01*
X87546267Y-67310000D02*
X87253733Y-67310000D01*
%TD*%
%LPC*%
D15*
%TO.C,J4*%
X67560000Y-72400000D03*
D16*
X67560000Y-74940000D03*
X65020000Y-72400000D03*
X65020000Y-74940000D03*
X62480000Y-72400000D03*
X62480000Y-74940000D03*
X59940000Y-72400000D03*
X59940000Y-74940000D03*
X57400000Y-72400000D03*
X57400000Y-74940000D03*
X54860000Y-72400000D03*
X54860000Y-74940000D03*
X52320000Y-72400000D03*
X52320000Y-74940000D03*
%TD*%
D15*
%TO.C,J3*%
X85340000Y-72400000D03*
D16*
X85340000Y-74940000D03*
X82800000Y-72400000D03*
X82800000Y-74940000D03*
X80260000Y-72400000D03*
X80260000Y-74940000D03*
X77720000Y-72400000D03*
X77720000Y-74940000D03*
X75180000Y-72400000D03*
X75180000Y-74940000D03*
X72640000Y-72400000D03*
X72640000Y-74940000D03*
X70100000Y-72400000D03*
X70100000Y-74940000D03*
%TD*%
D17*
%TO.C,C1*%
X70733523Y-55219600D03*
D18*
X75733523Y-55219600D03*
%TD*%
D19*
%TO.C,J1*%
X51500000Y-69200000D03*
X51500000Y-56200000D03*
D20*
X56500000Y-59200000D03*
D21*
X56500000Y-62700000D03*
X56500000Y-66200000D03*
%TD*%
D15*
%TO.C,J2*%
X98100000Y-72400000D03*
D16*
X98100000Y-74940000D03*
X95560000Y-72400000D03*
X95560000Y-74940000D03*
X93020000Y-72400000D03*
X93020000Y-74940000D03*
X90480000Y-72400000D03*
X90480000Y-74940000D03*
%TD*%
D22*
%TO.C,C9*%
X81162500Y-56900000D03*
X79437500Y-56900000D03*
%TD*%
D23*
%TO.C,R2*%
X70512500Y-66400000D03*
X68687500Y-66400000D03*
%TD*%
D24*
%TO.C,SW2*%
X96901000Y-61950600D03*
X98171000Y-61950600D03*
X98171000Y-69570600D03*
X96901000Y-69570600D03*
%TD*%
D25*
%TO.C,D4*%
X72100000Y-61750000D03*
X69600000Y-61750000D03*
%TD*%
D26*
%TO.C,C7*%
X60437500Y-51100000D03*
X62162500Y-51100000D03*
%TD*%
D23*
%TO.C,R9*%
X76312500Y-61550000D03*
X74487500Y-61550000D03*
%TD*%
D22*
%TO.C,C17*%
X90523400Y-70307200D03*
X88798400Y-70307200D03*
%TD*%
D23*
%TO.C,R13*%
X70462500Y-70500000D03*
X68637500Y-70500000D03*
%TD*%
D25*
%TO.C,D2*%
X72100000Y-67950000D03*
X69600000Y-67950000D03*
%TD*%
D23*
%TO.C,R21*%
X82912500Y-70100000D03*
X81087500Y-70100000D03*
%TD*%
%TO.C,R4*%
X70512500Y-63300000D03*
X68687500Y-63300000D03*
%TD*%
%TO.C,R6*%
X70512500Y-60200000D03*
X68687500Y-60200000D03*
%TD*%
%TO.C,R8*%
X76312500Y-64650000D03*
X74487500Y-64650000D03*
%TD*%
D26*
%TO.C,C11*%
X89937500Y-67600000D03*
X91662500Y-67600000D03*
%TD*%
D23*
%TO.C,R12*%
X77312500Y-69300000D03*
X75487500Y-69300000D03*
%TD*%
D22*
%TO.C,C16*%
X94917600Y-70281800D03*
X93192600Y-70281800D03*
%TD*%
D23*
%TO.C,R7*%
X76312500Y-67750000D03*
X74487500Y-67750000D03*
%TD*%
D26*
%TO.C,C6*%
X72287500Y-70500000D03*
X74012500Y-70500000D03*
%TD*%
D27*
%TO.C,R19*%
X89400000Y-54287500D03*
X89400000Y-56112500D03*
%TD*%
D23*
%TO.C,R14*%
X58612500Y-51100000D03*
X56787500Y-51100000D03*
%TD*%
D28*
%TO.C,SW1*%
X98875000Y-58975000D03*
X98875000Y-54825000D03*
X96725000Y-58975000D03*
X96725000Y-54825000D03*
%TD*%
D23*
%TO.C,R11*%
X77312500Y-66200000D03*
X75487500Y-66200000D03*
%TD*%
D25*
%TO.C,D3*%
X72100000Y-64850000D03*
X69600000Y-64850000D03*
%TD*%
D23*
%TO.C,R10*%
X77312500Y-63100000D03*
X75487500Y-63100000D03*
%TD*%
D26*
%TO.C,C18*%
X96837500Y-52800000D03*
X98562500Y-52800000D03*
%TD*%
D29*
%TO.C,R20*%
X81087500Y-67800000D03*
X82912500Y-67800000D03*
%TD*%
%TO.C,R24*%
X84787500Y-69900000D03*
X86612500Y-69900000D03*
%TD*%
D26*
%TO.C,C10*%
X86537500Y-66800000D03*
X88262500Y-66800000D03*
%TD*%
%LPD*%
M02*
