M48
; DRILL file {KiCad 8.0.9-8.0.9-0~ubuntu22.04.1} date 2025-03-29T20:24:42+0900
; FORMAT={-:-/ absolute / inch / decimal}
; #@! TF.CreationDate,2025-03-29T20:24:42+09:00
; #@! TF.GenerationSoftware,Kicad,Pcbnew,8.0.9-8.0.9-0~ubuntu22.04.1
; #@! TF.FileFunction,Plated,1,4,PTH
FMAT,2
INCH
; #@! TA.AperFunction,Plated,PTH,ViaDrill
T1C0.0118
; #@! TA.AperFunction,Plated,PTH,ComponentDrill
T2C0.0394
; #@! TA.AperFunction,Plated,PTH,ComponentDrill
T3C0.0748
%
G90
G05
T1
X2.0Y-2.075
X2.0Y-2.125
X2.0Y-2.275
X2.0Y-2.325
X2.0Y-2.375
X2.0Y-2.425
X2.0Y-2.475
X2.0Y-2.525
X2.0Y-2.575
X2.0Y-2.625
X2.0Y-2.675
X2.025Y-3.05
X2.05Y-2.075
X2.05Y-2.125
X2.05Y-2.275
X2.05Y-2.325
X2.05Y-2.375
X2.05Y-2.425
X2.05Y-2.475
X2.05Y-2.525
X2.05Y-2.575
X2.05Y-2.625
X2.05Y-2.675
X2.075Y-3.05
X2.1Y-2.175
X2.1Y-2.225
X2.1Y-2.275
X2.1Y-2.325
X2.1Y-2.375
X2.1Y-2.425
X2.1Y-2.475
X2.1Y-2.525
X2.1Y-2.575
X2.1Y-2.625
X2.1Y-2.675
X2.1Y-2.725
X2.1Y-2.775
X2.125Y-3.05
X2.126Y-2.0531
X2.175Y-3.05
X2.2008Y-2.7431
X2.209Y-2.044
X2.225Y-3.05
X2.275Y-3.05
X2.279Y-2.714
X2.325Y-2.225
X2.325Y-2.25
X2.325Y-2.275
X2.325Y-3.05
X2.35Y-2.225
X2.35Y-2.25
X2.35Y-2.275
X2.375Y-2.225
X2.375Y-2.25
X2.375Y-2.275
X2.375Y-3.05
X2.4Y-2.225
X2.4Y-2.25
X2.4Y-2.275
X2.413Y-2.798
X2.415Y-2.038
X2.425Y-2.225
X2.425Y-2.25
X2.425Y-2.275
X2.425Y-3.05
X2.441Y-2.063
X2.4449Y-2.7669
X2.45Y-2.25
X2.45Y-2.275
X2.45Y-2.3
X2.45Y-2.325
X2.45Y-2.35
X2.475Y-2.275
X2.475Y-2.3
X2.475Y-2.325
X2.475Y-2.35
X2.475Y-3.05
X2.499Y-2.378
X2.525Y-3.05
X2.575Y-3.05
X2.6083Y-2.6555
X2.625Y-3.05
X2.632Y-2.691
X2.6339Y-2.2244
X2.6378Y-2.7224
X2.6496Y-2.5
X2.65Y-2.0
X2.65Y-2.025
X2.65Y-2.125
X2.6535Y-2.6457
X2.6575Y-2.366
X2.675Y-2.0
X2.675Y-2.025
X2.675Y-2.125
X2.675Y-2.15
X2.675Y-3.05
X2.685Y-2.2494
X2.7Y-2.0
X2.7Y-2.025
X2.7Y-2.125
X2.7Y-2.15
X2.7Y-2.175
X2.725Y-2.0
X2.725Y-2.025
X2.725Y-2.125
X2.725Y-2.15
X2.725Y-2.175
X2.725Y-2.2
X2.725Y-3.05
X2.75Y-2.0
X2.75Y-2.025
X2.775Y-2.0
X2.775Y-2.025
X2.775Y-3.05
X2.8Y-2.0
X2.8Y-2.025
X2.8Y-2.275
X2.825Y-2.0
X2.825Y-2.025
X2.825Y-3.05
X2.85Y-2.0
X2.85Y-2.025
X2.85Y-2.125
X2.85Y-2.225
X2.85Y-2.275
X2.875Y-3.05
X2.878Y-2.4154
X2.878Y-2.4469
X2.878Y-2.5374
X2.878Y-2.5689
X2.878Y-2.6004
X2.878Y-2.6594
X2.878Y-2.6909
X2.878Y-2.7224
X2.9Y-2.275
X2.925Y-2.025
X2.925Y-3.05
X2.9567Y-2.7717
X2.975Y-3.05
X3.0Y-2.275
X3.025Y-3.05
X3.047Y-2.309
X3.05Y-2.225
X3.0748Y-2.6811
X3.075Y-3.05
X3.1Y-2.175
X3.1063Y-2.6811
X3.1142Y-2.7126
X3.125Y-3.05
X3.1457Y-2.7126
X3.149Y-2.428
X3.1496Y-2.5748
X3.1496Y-2.6063
X3.15Y-2.175
X3.1535Y-2.3642
X3.1732Y-2.5433
X3.175Y-3.05
X3.185Y-2.3642
X3.1929Y-2.7126
X3.2165Y-2.3642
X3.2244Y-2.7126
X3.225Y-2.025
X3.225Y-3.05
X3.2362Y-2.622
X3.2441Y-2.248
X3.2559Y-2.7126
X3.2697Y-2.622
X3.275Y-2.025
X3.275Y-3.05
X3.2874Y-2.7126
X3.2913Y-2.3642
X3.3012Y-2.622
X3.312Y-2.089
X3.319Y-2.28
X3.3228Y-2.3642
X3.325Y-2.025
X3.325Y-3.05
X3.3327Y-2.622
X3.3346Y-2.7047
X3.3543Y-2.3642
X3.3642Y-2.622
X3.375Y-2.025
X3.375Y-3.05
X3.3858Y-2.3642
X3.404Y-2.267
X3.4173Y-2.3642
X3.4213Y-2.3976
X3.4213Y-2.4626
X3.425Y-3.05
X3.45Y-2.175
X3.4593Y-2.1373
X3.4606Y-2.3189
X3.472Y-2.7047
X3.475Y-2.9
X3.475Y-2.95
X3.475Y-3.0
X3.475Y-3.05
X3.495Y-2.246
X3.4961Y-2.5256
X3.525Y-3.05
X3.533Y-2.697
X3.5433Y-2.248
X3.5709Y-2.2874
X3.572Y-2.3268
X3.5748Y-2.248
X3.575Y-3.05
X3.5787Y-2.4409
X3.608Y-2.423
X3.625Y-3.05
X3.6496Y-2.2677
X3.6575Y-2.2992
X3.6575Y-2.3386
X3.6579Y-2.378
X3.675Y-3.05
X3.6969Y-2.0787
X3.7Y-2.025
X3.7Y-2.475
X3.725Y-3.05
X3.7283Y-2.0787
X3.75Y-2.025
X3.752Y-2.6811
X3.752Y-2.7126
X3.7677Y-2.4685
X3.775Y-2.625
X3.775Y-3.05
X3.777Y-2.743
X3.8Y-2.025
X3.825Y-3.05
X3.8253Y-2.6297
X3.85Y-2.025
X3.85Y-2.55
X3.875Y-3.05
X3.9Y-2.5
X3.9Y-2.55
T2
X2.0276Y-2.2126
X2.0276Y-2.7244
X2.0598Y-2.8504
X2.0598Y-2.9504
X2.1598Y-2.8504
X2.1598Y-2.9504
X2.2598Y-2.8504
X2.2598Y-2.9504
X2.3598Y-2.8504
X2.3598Y-2.9504
X2.4598Y-2.8504
X2.4598Y-2.9504
X2.5598Y-2.8504
X2.5598Y-2.9504
X2.6598Y-2.8504
X2.6598Y-2.9504
X2.7598Y-2.8504
X2.7598Y-2.9504
X2.7848Y-2.174
X2.8598Y-2.8504
X2.8598Y-2.9504
X2.9598Y-2.8504
X2.9598Y-2.9504
X2.9816Y-2.174
X3.0598Y-2.8504
X3.0598Y-2.9504
X3.1598Y-2.8504
X3.1598Y-2.9504
X3.2598Y-2.8504
X3.2598Y-2.9504
X3.3598Y-2.8504
X3.3598Y-2.9504
X3.5622Y-2.8504
X3.5622Y-2.9504
X3.6622Y-2.8504
X3.6622Y-2.9504
X3.7622Y-2.8504
X3.7622Y-2.9504
X3.8622Y-2.8504
X3.8622Y-2.9504
T3
X2.2244Y-2.3307
X2.2244Y-2.4685
X2.2244Y-2.6063
M30
