%TF.GenerationSoftware,KiCad,Pcbnew,8.0.9-8.0.9-0~ubuntu22.04.1*%
%TF.CreationDate,2025-03-29T20:24:42+09:00*%
%TF.ProjectId,blmd_hardware,626c6d64-5f68-4617-9264-776172652e6b,rev?*%
%TF.SameCoordinates,Original*%
%TF.FileFunction,Copper,L4,Bot*%
%TF.FilePolarity,Positive*%
%FSLAX46Y46*%
G04 Gerber Fmt 4.6, Leading zero omitted, Abs format (unit mm)*
G04 Created by KiCad (PCBNEW 8.0.9-8.0.9-0~ubuntu22.04.1) date 2025-03-29 20:24:42*
%MOMM*%
%LPD*%
G01*
G04 APERTURE LIST*
G04 Aperture macros list*
%AMRoundRect*
0 Rectangle with rounded corners*
0 $1 Rounding radius*
0 $2 $3 $4 $5 $6 $7 $8 $9 X,Y pos of 4 corners*
0 Add a 4 corners polygon primitive as box body*
4,1,4,$2,$3,$4,$5,$6,$7,$8,$9,$2,$3,0*
0 Add four circle primitives for the rounded corners*
1,1,$1+$1,$2,$3*
1,1,$1+$1,$4,$5*
1,1,$1+$1,$6,$7*
1,1,$1+$1,$8,$9*
0 Add four rect primitives between the rounded corners*
20,1,$1+$1,$2,$3,$4,$5,0*
20,1,$1+$1,$4,$5,$6,$7,0*
20,1,$1+$1,$6,$7,$8,$9,0*
20,1,$1+$1,$8,$9,$2,$3,0*%
G04 Aperture macros list end*
%TA.AperFunction,ComponentPad*%
%ADD10R,1.700000X1.700000*%
%TD*%
%TA.AperFunction,ComponentPad*%
%ADD11O,1.700000X1.700000*%
%TD*%
%TA.AperFunction,ComponentPad*%
%ADD12R,2.000000X2.000000*%
%TD*%
%TA.AperFunction,ComponentPad*%
%ADD13C,2.000000*%
%TD*%
%TA.AperFunction,ComponentPad*%
%ADD14C,1.400000*%
%TD*%
%TA.AperFunction,ComponentPad*%
%ADD15R,3.000000X3.000000*%
%TD*%
%TA.AperFunction,ComponentPad*%
%ADD16C,3.000000*%
%TD*%
%TA.AperFunction,SMDPad,CuDef*%
%ADD17RoundRect,0.237500X0.300000X0.237500X-0.300000X0.237500X-0.300000X-0.237500X0.300000X-0.237500X0*%
%TD*%
%TA.AperFunction,SMDPad,CuDef*%
%ADD18RoundRect,0.237500X0.250000X0.237500X-0.250000X0.237500X-0.250000X-0.237500X0.250000X-0.237500X0*%
%TD*%
%TA.AperFunction,SMDPad,CuDef*%
%ADD19R,0.760000X1.600000*%
%TD*%
%TA.AperFunction,SMDPad,CuDef*%
%ADD20RoundRect,0.250000X0.250000X0.250000X-0.250000X0.250000X-0.250000X-0.250000X0.250000X-0.250000X0*%
%TD*%
%TA.AperFunction,SMDPad,CuDef*%
%ADD21RoundRect,0.237500X-0.300000X-0.237500X0.300000X-0.237500X0.300000X0.237500X-0.300000X0.237500X0*%
%TD*%
%TA.AperFunction,SMDPad,CuDef*%
%ADD22RoundRect,0.237500X-0.237500X0.250000X-0.237500X-0.250000X0.237500X-0.250000X0.237500X0.250000X0*%
%TD*%
%TA.AperFunction,SMDPad,CuDef*%
%ADD23RoundRect,0.162500X0.162500X-0.362500X0.162500X0.362500X-0.162500X0.362500X-0.162500X-0.362500X0*%
%TD*%
%TA.AperFunction,SMDPad,CuDef*%
%ADD24RoundRect,0.237500X-0.250000X-0.237500X0.250000X-0.237500X0.250000X0.237500X-0.250000X0.237500X0*%
%TD*%
%TA.AperFunction,ViaPad*%
%ADD25C,0.600000*%
%TD*%
%TA.AperFunction,Conductor*%
%ADD26C,0.350000*%
%TD*%
%TA.AperFunction,Conductor*%
%ADD27C,0.200000*%
%TD*%
%TA.AperFunction,Conductor*%
%ADD28C,0.500000*%
%TD*%
%TA.AperFunction,Conductor*%
%ADD29C,0.160000*%
%TD*%
G04 APERTURE END LIST*
D10*
%TO.P,J4,1,Pin_1*%
%TO.N,+12VA*%
X67560000Y-72400000D03*
D11*
%TO.P,J4,2,Pin_2*%
X67560000Y-74940000D03*
%TO.P,J4,3,Pin_3*%
X65020000Y-72400000D03*
%TO.P,J4,4,Pin_4*%
X65020000Y-74940000D03*
%TO.P,J4,5,Pin_5*%
X62480000Y-72400000D03*
%TO.P,J4,6,Pin_6*%
X62480000Y-74940000D03*
%TO.P,J4,7,Pin_7*%
X59940000Y-72400000D03*
%TO.P,J4,8,Pin_8*%
X59940000Y-74940000D03*
%TO.P,J4,9,Pin_9*%
X57400000Y-72400000D03*
%TO.P,J4,10,Pin_10*%
X57400000Y-74940000D03*
%TO.P,J4,11,Pin_11*%
X54860000Y-72400000D03*
%TO.P,J4,12,Pin_12*%
X54860000Y-74940000D03*
%TO.P,J4,13,Pin_13*%
X52320000Y-72400000D03*
%TO.P,J4,14,Pin_14*%
X52320000Y-74940000D03*
%TD*%
D10*
%TO.P,J3,1,Pin_1*%
%TO.N,GND*%
X85340000Y-72400000D03*
D11*
%TO.P,J3,2,Pin_2*%
X85340000Y-74940000D03*
%TO.P,J3,3,Pin_3*%
X82800000Y-72400000D03*
%TO.P,J3,4,Pin_4*%
X82800000Y-74940000D03*
%TO.P,J3,5,Pin_5*%
X80260000Y-72400000D03*
%TO.P,J3,6,Pin_6*%
X80260000Y-74940000D03*
%TO.P,J3,7,Pin_7*%
X77720000Y-72400000D03*
%TO.P,J3,8,Pin_8*%
X77720000Y-74940000D03*
%TO.P,J3,9,Pin_9*%
X75180000Y-72400000D03*
%TO.P,J3,10,Pin_10*%
X75180000Y-74940000D03*
%TO.P,J3,11,Pin_11*%
X72640000Y-72400000D03*
%TO.P,J3,12,Pin_12*%
X72640000Y-74940000D03*
%TO.P,J3,13,Pin_13*%
X70100000Y-72400000D03*
%TO.P,J3,14,Pin_14*%
X70100000Y-74940000D03*
%TD*%
D12*
%TO.P,C1,1*%
%TO.N,+12VA*%
X70733523Y-55219600D03*
D13*
%TO.P,C1,2*%
%TO.N,GND*%
X75733523Y-55219600D03*
%TD*%
D14*
%TO.P,J1,*%
%TO.N,*%
X51500000Y-69200000D03*
X51500000Y-56200000D03*
D15*
%TO.P,J1,1,Pin_1*%
%TO.N,SOC*%
X56500000Y-59200000D03*
D16*
%TO.P,J1,2,Pin_2*%
%TO.N,HSB*%
X56500000Y-62700000D03*
%TO.P,J1,3,Pin_3*%
%TO.N,SOA*%
X56500000Y-66200000D03*
%TD*%
D10*
%TO.P,J2,1,Pin_1*%
%TO.N,+3.3V*%
X98100000Y-72400000D03*
D11*
%TO.P,J2,2,Pin_2*%
%TO.N,+5VD*%
X98100000Y-74940000D03*
%TO.P,J2,3,Pin_3*%
%TO.N,SPD1*%
X95560000Y-72400000D03*
%TO.P,J2,4,Pin_4*%
%TO.N,GNDD*%
X95560000Y-74940000D03*
%TO.P,J2,5,Pin_5*%
%TO.N,SPD2*%
X93020000Y-72400000D03*
%TO.P,J2,6,Pin_6*%
%TO.N,unconnected-(J2-Pin_6-Pad6)*%
X93020000Y-74940000D03*
%TO.P,J2,7,Pin_7*%
%TO.N,CANH*%
X90480000Y-72400000D03*
%TO.P,J2,8,Pin_8*%
%TO.N,CANL*%
X90480000Y-74940000D03*
%TD*%
D17*
%TO.P,C9,1*%
%TO.N,+3V3*%
X81162500Y-56900000D03*
%TO.P,C9,2*%
%TO.N,GND*%
X79437500Y-56900000D03*
%TD*%
D18*
%TO.P,R2,1*%
%TO.N,LOA*%
X70512500Y-66400000D03*
%TO.P,R2,2*%
%TO.N,Net-(Q4-G)*%
X68687500Y-66400000D03*
%TD*%
D19*
%TO.P,SW2,1*%
%TO.N,ID2*%
X96901000Y-61950600D03*
%TO.P,SW2,2*%
%TO.N,ID1*%
X98171000Y-61950600D03*
%TO.P,SW2,3*%
%TO.N,GND*%
X98171000Y-69570600D03*
%TO.P,SW2,4*%
X96901000Y-69570600D03*
%TD*%
D20*
%TO.P,D4,1,K*%
%TO.N,BOOTC*%
X72100000Y-61750000D03*
%TO.P,D4,2,A*%
%TO.N,+12V*%
X69600000Y-61750000D03*
%TD*%
D21*
%TO.P,C7,1*%
%TO.N,SCC*%
X60437500Y-51100000D03*
%TO.P,C7,2*%
%TO.N,GND*%
X62162500Y-51100000D03*
%TD*%
D18*
%TO.P,R9,1*%
%TO.N,REF0*%
X76312500Y-61550000D03*
%TO.P,R9,2*%
%TO.N,HSC*%
X74487500Y-61550000D03*
%TD*%
D17*
%TO.P,C17,1*%
%TO.N,+3V3*%
X90523400Y-70307200D03*
%TO.P,C17,2*%
%TO.N,GND*%
X88798400Y-70307200D03*
%TD*%
D18*
%TO.P,R13,1*%
%TO.N,SCA*%
X70462500Y-70500000D03*
%TO.P,R13,2*%
%TO.N,Net-(U4-VIOUT)*%
X68637500Y-70500000D03*
%TD*%
D20*
%TO.P,D2,1,K*%
%TO.N,BOOTA*%
X72100000Y-67950000D03*
%TO.P,D2,2,A*%
%TO.N,+12V*%
X69600000Y-67950000D03*
%TD*%
D18*
%TO.P,R21,1*%
%TO.N,+3V3*%
X82912500Y-70100000D03*
%TO.P,R21,2*%
%TO.N,Net-(U1-SCREF)*%
X81087500Y-70100000D03*
%TD*%
%TO.P,R4,1*%
%TO.N,LOB*%
X70512500Y-63300000D03*
%TO.P,R4,2*%
%TO.N,Net-(Q5-G)*%
X68687500Y-63300000D03*
%TD*%
%TO.P,R6,1*%
%TO.N,LOC*%
X70512500Y-60200000D03*
%TO.P,R6,2*%
%TO.N,Net-(Q6-G)*%
X68687500Y-60200000D03*
%TD*%
%TO.P,R8,1*%
%TO.N,REF0*%
X76312500Y-64650000D03*
%TO.P,R8,2*%
%TO.N,HSB*%
X74487500Y-64650000D03*
%TD*%
D21*
%TO.P,C11,1*%
%TO.N,+3V3*%
X89937500Y-67600000D03*
%TO.P,C11,2*%
%TO.N,GND*%
X91662500Y-67600000D03*
%TD*%
D18*
%TO.P,R12,1*%
%TO.N,Net-(U1-PC1)*%
X77312500Y-69300000D03*
%TO.P,R12,2*%
%TO.N,HSA*%
X75487500Y-69300000D03*
%TD*%
D17*
%TO.P,C16,1*%
%TO.N,+3.3V*%
X94917600Y-70281800D03*
%TO.P,C16,2*%
%TO.N,GNDD*%
X93192600Y-70281800D03*
%TD*%
D18*
%TO.P,R7,1*%
%TO.N,REF0*%
X76312500Y-67750000D03*
%TO.P,R7,2*%
%TO.N,HSA*%
X74487500Y-67750000D03*
%TD*%
D21*
%TO.P,C6,1*%
%TO.N,SCA*%
X72287500Y-70500000D03*
%TO.P,C6,2*%
%TO.N,GND*%
X74012500Y-70500000D03*
%TD*%
D22*
%TO.P,R19,1*%
%TO.N,+12VA*%
X89400000Y-54287500D03*
%TO.P,R19,2*%
%TO.N,MON*%
X89400000Y-56112500D03*
%TD*%
D18*
%TO.P,R14,1*%
%TO.N,SCC*%
X58612500Y-51100000D03*
%TO.P,R14,2*%
%TO.N,Net-(U5-VIOUT)*%
X56787500Y-51100000D03*
%TD*%
D23*
%TO.P,SW1,1,1*%
%TO.N,GND*%
X98875000Y-58975000D03*
X98875000Y-54825000D03*
%TO.P,SW1,2,2*%
%TO.N,NRST*%
X96725000Y-58975000D03*
X96725000Y-54825000D03*
%TD*%
D18*
%TO.P,R11,1*%
%TO.N,Net-(U1-PA7)*%
X77312500Y-66200000D03*
%TO.P,R11,2*%
%TO.N,HSB*%
X75487500Y-66200000D03*
%TD*%
D20*
%TO.P,D3,1,K*%
%TO.N,BOOTB*%
X72100000Y-64850000D03*
%TO.P,D3,2,A*%
%TO.N,+12V*%
X69600000Y-64850000D03*
%TD*%
D18*
%TO.P,R10,1*%
%TO.N,Net-(U1-PB1)*%
X77312500Y-63100000D03*
%TO.P,R10,2*%
%TO.N,HSC*%
X75487500Y-63100000D03*
%TD*%
D21*
%TO.P,C18,1*%
%TO.N,NRST*%
X96837500Y-52800000D03*
%TO.P,C18,2*%
%TO.N,GND*%
X98562500Y-52800000D03*
%TD*%
D24*
%TO.P,R20,1*%
%TO.N,Net-(U1-SCREF)*%
X81087500Y-67800000D03*
%TO.P,R20,2*%
%TO.N,GND*%
X82912500Y-67800000D03*
%TD*%
%TO.P,R24,1*%
%TO.N,Net-(U1-PB8{slash}BOOOT0)*%
X84787500Y-69900000D03*
%TO.P,R24,2*%
%TO.N,GND*%
X86612500Y-69900000D03*
%TD*%
D21*
%TO.P,C10,1*%
%TO.N,+12VA*%
X86537500Y-66800000D03*
%TO.P,C10,2*%
%TO.N,GND*%
X88262500Y-66800000D03*
%TD*%
D25*
%TO.N,+12VA*%
X85450000Y-66600000D03*
X59055000Y-57150000D03*
X69850000Y-50800000D03*
X67310000Y-50800000D03*
X70485000Y-51435000D03*
X70485000Y-50800000D03*
X62230000Y-59055000D03*
X71120000Y-51435000D03*
X69215000Y-51435000D03*
X59690000Y-57150000D03*
X61595000Y-56515000D03*
X59690000Y-56515000D03*
X72390000Y-56515000D03*
X60960000Y-56515000D03*
X69215000Y-53975000D03*
X68580000Y-55245000D03*
X67945000Y-54610000D03*
X61595000Y-57785000D03*
X69215000Y-55245000D03*
X67945000Y-51435000D03*
X69215000Y-50800000D03*
X60325000Y-57785000D03*
X71755000Y-51435000D03*
X71755000Y-50800000D03*
X72390000Y-51435000D03*
X61595000Y-57150000D03*
X87866300Y-54287500D03*
X67945000Y-50800000D03*
X72390000Y-53975000D03*
X62230000Y-59690000D03*
X62865000Y-59055000D03*
X60960000Y-57785000D03*
X59055000Y-57785000D03*
X67945000Y-53975000D03*
X69215000Y-54610000D03*
X71120000Y-50800000D03*
X62865000Y-59690000D03*
X62865000Y-58420000D03*
X69215000Y-55880000D03*
X68580000Y-54610000D03*
X67310000Y-53975000D03*
X68580000Y-53975000D03*
X59690000Y-57785000D03*
X68580000Y-50800000D03*
X62865000Y-57785000D03*
X60325000Y-57150000D03*
X67310000Y-51435000D03*
X62230000Y-57785000D03*
X69850000Y-51435000D03*
X60325000Y-56515000D03*
X68580000Y-51435000D03*
X60960000Y-57150000D03*
X62230000Y-57150000D03*
X59055000Y-56515000D03*
X72390000Y-50800000D03*
X62230000Y-58420000D03*
%TO.N,HSA*%
X73100000Y-68350000D03*
X66250000Y-67450000D03*
%TO.N,HSB*%
X67300000Y-63500000D03*
X73100000Y-65250000D03*
%TO.N,HSC*%
X66900000Y-56500000D03*
X73100000Y-62150000D03*
%TO.N,+3V3*%
X84124800Y-53060600D03*
X95700000Y-62700000D03*
X95935800Y-69672200D03*
X62100000Y-70280000D03*
X55900000Y-69675000D03*
X89738200Y-68503800D03*
X82400000Y-57100000D03*
X54000000Y-52150000D03*
%TO.N,GNDD*%
X97162000Y-66795000D03*
%TO.N,NRST*%
X92700000Y-57600000D03*
%TO.N,SCA*%
X75100000Y-70400000D03*
X84400000Y-60050000D03*
%TO.N,SCC*%
X86900000Y-60900000D03*
X62001400Y-52400200D03*
%TO.N,SWCLK*%
X79900000Y-68900000D03*
X92900000Y-59400000D03*
%TO.N,SWDIO*%
X79100000Y-68900000D03*
X92910000Y-60400000D03*
%TO.N,SWO*%
X92900000Y-58400000D03*
X82200000Y-66600000D03*
%TO.N,GND*%
X73660000Y-57785000D03*
X52705000Y-77470000D03*
X80010000Y-55245000D03*
X94615000Y-77470000D03*
X53340000Y-55245000D03*
X81915000Y-77470000D03*
X50800000Y-67945000D03*
X88265000Y-76200000D03*
X73025000Y-77470000D03*
X90728800Y-59100000D03*
X57886600Y-68935600D03*
X84455000Y-51435000D03*
X97790000Y-64770000D03*
X78105000Y-77470000D03*
X95885000Y-66675000D03*
X62865000Y-77470000D03*
X53340000Y-70485000D03*
X52070000Y-53975000D03*
X50800000Y-52705000D03*
X53340000Y-59055000D03*
X92075000Y-77470000D03*
X74295000Y-77470000D03*
X91643200Y-61544200D03*
X95885000Y-77470000D03*
X66675000Y-77470000D03*
X50800000Y-62865000D03*
X87630000Y-55245000D03*
X99060000Y-63500000D03*
X53340000Y-62865000D03*
X78740000Y-55245000D03*
X59055000Y-77470000D03*
X53340000Y-65405000D03*
X89535000Y-77470000D03*
X93980000Y-62865000D03*
X53975000Y-77470000D03*
X74295000Y-51435000D03*
X52070000Y-60325000D03*
X72390000Y-57785000D03*
X52070000Y-65405000D03*
X75565000Y-77470000D03*
X50800000Y-64135000D03*
X88265000Y-74930000D03*
X70485000Y-77470000D03*
X86995000Y-77470000D03*
X52070000Y-67945000D03*
X53340000Y-57785000D03*
X67945000Y-77470000D03*
X81915000Y-51435000D03*
X50800000Y-60325000D03*
X52070000Y-66675000D03*
X84302600Y-57912000D03*
X55245000Y-77470000D03*
X50800000Y-61595000D03*
X95250000Y-51435000D03*
X97790000Y-51435000D03*
X85725000Y-51435000D03*
X86461600Y-57581800D03*
X97155000Y-77470000D03*
X52070000Y-57785000D03*
X85200000Y-60050000D03*
X53340000Y-61595000D03*
X52070000Y-64135000D03*
X71120000Y-57785000D03*
X80645000Y-77470000D03*
X99060000Y-64770000D03*
X61595000Y-77470000D03*
X50800000Y-59055000D03*
X79984600Y-61671200D03*
X52070000Y-62865000D03*
X53340000Y-60325000D03*
X69215000Y-77470000D03*
X52070000Y-61595000D03*
X90805000Y-77470000D03*
X83185000Y-77470000D03*
X71755000Y-77470000D03*
X98425000Y-77470000D03*
X56515000Y-77470000D03*
X53340000Y-64135000D03*
X61341000Y-51765200D03*
X85725000Y-77470000D03*
X79375000Y-77470000D03*
X88265000Y-77470000D03*
X50800000Y-57785000D03*
X50800000Y-65405000D03*
X53340000Y-56515000D03*
X93980000Y-51435000D03*
X57785000Y-77470000D03*
X83050000Y-66600000D03*
X65405000Y-77470000D03*
X88265000Y-73660000D03*
X76200000Y-57785000D03*
X76835000Y-77470000D03*
X53340000Y-66675000D03*
X83185000Y-51435000D03*
X53340000Y-69215000D03*
X51435000Y-77470000D03*
X84455000Y-77470000D03*
X50800000Y-53975000D03*
X52070000Y-59055000D03*
X93345000Y-77470000D03*
X77470000Y-56515000D03*
X50800000Y-66675000D03*
X52070000Y-52705000D03*
X64135000Y-77470000D03*
X96520000Y-51435000D03*
X60325000Y-77470000D03*
X53340000Y-67945000D03*
%TO.N,BOOTA*%
X73100000Y-67550000D03*
%TO.N,Net-(Q1-G)*%
X66852800Y-68351400D03*
X73100000Y-69150000D03*
%TO.N,Net-(Q2-G)*%
X63474600Y-60401200D03*
X73100000Y-66050000D03*
%TO.N,Net-(Q4-G)*%
X67400000Y-67200000D03*
%TO.N,Net-(Q5-G)*%
X67500000Y-60096400D03*
%TO.N,Net-(Q6-G)*%
X68200000Y-57135000D03*
%TO.N,LOA*%
X81700000Y-60050000D03*
%TO.N,LOB*%
X80900000Y-60050000D03*
%TO.N,LOC*%
X80100000Y-60050000D03*
%TO.N,ID1*%
X84650000Y-66600000D03*
%TO.N,ID2*%
X83850000Y-66600000D03*
%TO.N,ID_DISP*%
X90800000Y-57100000D03*
X80600000Y-64600000D03*
%TO.N,BOOTB*%
X73100000Y-64450000D03*
%TO.N,RXD*%
X88800000Y-64150000D03*
X78100000Y-68100000D03*
%TO.N,TXD*%
X90900000Y-62000000D03*
X78900000Y-68100000D03*
%TO.N,BOOTC*%
X73100000Y-61350000D03*
%TO.N,+12V*%
X88190050Y-68700000D03*
X88773000Y-57048400D03*
X77393800Y-58648600D03*
%TO.N,MON*%
X87900000Y-58900000D03*
X90700000Y-58100000D03*
%TO.N,USART_TX*%
X80000000Y-65400000D03*
X93900000Y-52800000D03*
%TO.N,USART_RX*%
X80000000Y-66200000D03*
X94700000Y-52800000D03*
%TO.N,Net-(U1-PB1)*%
X83600000Y-60050000D03*
%TO.N,REF0*%
X86800000Y-60050000D03*
%TO.N,Net-(U1-PA7)*%
X86000000Y-60050000D03*
%TO.N,Net-(U1-PC1)*%
X86900000Y-62550000D03*
%TO.N,Net-(U4-VIOUT)*%
X61290200Y-71069200D03*
X67000000Y-69150000D03*
%TO.N,Net-(U5-VIOUT)*%
X56108600Y-51917600D03*
%TO.N,STATUS*%
X81900000Y-68900000D03*
X90000000Y-57100000D03*
%TO.N,Net-(U1-SCREF)*%
X81100000Y-68900000D03*
%TO.N,Net-(U1-PB8{slash}BOOOT0)*%
X84700000Y-68700000D03*
%TO.N,SPD1_O*%
X95300000Y-68900000D03*
X82700000Y-68900000D03*
%TO.N,SPD2_O*%
X83500000Y-68900000D03*
X95300000Y-68100000D03*
%TD*%
D26*
%TO.N,+12VA*%
X86537500Y-66800000D02*
X85650000Y-66800000D01*
X85650000Y-66800000D02*
X85450000Y-66600000D01*
D27*
X89400000Y-54287500D02*
X87866300Y-54287500D01*
%TO.N,HSA*%
X73100000Y-68350000D02*
X73887500Y-68350000D01*
X75487500Y-69300000D02*
X74837500Y-69300000D01*
X74837500Y-69300000D02*
X73887500Y-68350000D01*
X73887500Y-68350000D02*
X74487500Y-67750000D01*
%TO.N,HSB*%
X74837500Y-66200000D02*
X73887500Y-65250000D01*
X73887500Y-65250000D02*
X74487500Y-64650000D01*
X73100000Y-65250000D02*
X73887500Y-65250000D01*
X75487500Y-66200000D02*
X74837500Y-66200000D01*
%TO.N,HSC*%
X74487500Y-61550000D02*
X73887500Y-62150000D01*
X73887500Y-62150000D02*
X73100000Y-62150000D01*
X74837500Y-63100000D02*
X73887500Y-62150000D01*
X75487500Y-63100000D02*
X74837500Y-63100000D01*
%TO.N,+3V3*%
X84451471Y-68100000D02*
X88169150Y-68100000D01*
D26*
X89638800Y-68404400D02*
X89738200Y-68503800D01*
D27*
X88679750Y-67589400D02*
X89638800Y-67589400D01*
X90523400Y-70307200D02*
X90523400Y-69289000D01*
X95770400Y-69506800D02*
X95935800Y-69672200D01*
X84100000Y-68451471D02*
X84451471Y-68100000D01*
X90523400Y-69289000D02*
X89738200Y-68503800D01*
X91323800Y-69506800D02*
X95770400Y-69506800D01*
X88169150Y-68100000D02*
X88679750Y-67589400D01*
X84100000Y-69148529D02*
X84100000Y-68451471D01*
D26*
X82200000Y-56900000D02*
X82400000Y-57100000D01*
D27*
X82912500Y-70100000D02*
X83148529Y-70100000D01*
D26*
X89638800Y-67589400D02*
X89638800Y-68404400D01*
D27*
X83148529Y-70100000D02*
X84100000Y-69148529D01*
X90523400Y-70307200D02*
X91323800Y-69506800D01*
D26*
X81162500Y-56900000D02*
X82200000Y-56900000D01*
D27*
%TO.N,GNDD*%
X99250000Y-73550000D02*
X99250000Y-68883000D01*
X95560000Y-74940000D02*
X94410000Y-73790000D01*
X96950000Y-73550000D02*
X99250000Y-73550000D01*
X99250000Y-68883000D02*
X97162000Y-66795000D01*
X94410000Y-71499200D02*
X93192600Y-70281800D01*
X95560000Y-74940000D02*
X96950000Y-73550000D01*
X94410000Y-73790000D02*
X94410000Y-71499200D01*
%TO.N,NRST*%
X96837500Y-52800000D02*
X96837500Y-54712500D01*
X95350000Y-57600000D02*
X92700000Y-57600000D01*
X96837500Y-54712500D02*
X96725000Y-54825000D01*
X96725000Y-58975000D02*
X95350000Y-57600000D01*
X96725000Y-58975000D02*
X96725000Y-54825000D01*
%TO.N,SCA*%
X72708278Y-70500000D02*
X73483278Y-69725000D01*
X71343800Y-70500000D02*
X72287500Y-70500000D01*
X73483278Y-69725000D02*
X74658278Y-69725000D01*
X75100000Y-70166722D02*
X75100000Y-70400000D01*
X70462500Y-70500000D02*
X71343800Y-70500000D01*
X72287500Y-70500000D02*
X72708278Y-70500000D01*
X74658278Y-69725000D02*
X75100000Y-70166722D01*
%TO.N,SCC*%
X60437500Y-51100000D02*
X60437500Y-52080900D01*
X58612500Y-51100000D02*
X60437500Y-51100000D01*
X60437500Y-52080900D02*
X60756800Y-52400200D01*
X60756800Y-52400200D02*
X62001400Y-52400200D01*
%TO.N,SWO*%
X92310000Y-62692428D02*
X92310000Y-60452000D01*
X89802428Y-65200000D02*
X92310000Y-62692428D01*
X82200000Y-66270099D02*
X83270099Y-65200000D01*
X92300000Y-59000000D02*
X92900000Y-58400000D01*
X92310000Y-60452000D02*
X92300000Y-60442000D01*
X83270099Y-65200000D02*
X89802428Y-65200000D01*
X82200000Y-66600000D02*
X82200000Y-66270099D01*
X92300000Y-60442000D02*
X92300000Y-59000000D01*
D26*
%TO.N,GND*%
X88262500Y-66800000D02*
X87947788Y-66800000D01*
X87947788Y-66800000D02*
X87122788Y-67625000D01*
X62006200Y-51100000D02*
X61341000Y-51765200D01*
X62162500Y-51100000D02*
X62006200Y-51100000D01*
D27*
%TO.N,BOOTA*%
X73100000Y-67550000D02*
X72500000Y-67550000D01*
X72500000Y-67550000D02*
X72100000Y-67950000D01*
%TO.N,Net-(Q4-G)*%
X68200000Y-66400000D02*
X67400000Y-67200000D01*
X68687500Y-66400000D02*
X68200000Y-66400000D01*
%TO.N,Net-(Q5-G)*%
X68687500Y-63300000D02*
X67500000Y-62112500D01*
X67500000Y-62112500D02*
X67500000Y-60096400D01*
%TO.N,Net-(Q6-G)*%
X68687500Y-60200000D02*
X68687500Y-57622500D01*
X68687500Y-57622500D02*
X68200000Y-57135000D01*
%TO.N,LOA*%
X71833856Y-60731400D02*
X79367185Y-60731400D01*
X79690985Y-61055200D02*
X80743329Y-61055200D01*
X79367185Y-60731400D02*
X79690985Y-61055200D01*
X80743329Y-61055200D02*
X81700000Y-60098529D01*
X71300000Y-65612500D02*
X71300000Y-61265256D01*
X70512500Y-66400000D02*
X71300000Y-65612500D01*
X81700000Y-60098529D02*
X81700000Y-60050000D01*
X71300000Y-61265256D02*
X71833856Y-60731400D01*
%TO.N,LOB*%
X70512500Y-63300000D02*
X70512500Y-61487070D01*
X71668170Y-60331400D02*
X79532871Y-60331400D01*
X70512500Y-61487070D02*
X71668170Y-60331400D01*
X80568800Y-60655200D02*
X80900000Y-60324000D01*
X80900000Y-60324000D02*
X80900000Y-60050000D01*
X79532871Y-60331400D02*
X79856671Y-60655200D01*
X79856671Y-60655200D02*
X80568800Y-60655200D01*
%TO.N,LOC*%
X70712500Y-60200000D02*
X70981100Y-59931400D01*
X79981400Y-59931400D02*
X80100000Y-60050000D01*
X70981100Y-59931400D02*
X79981400Y-59931400D01*
%TO.N,ID1*%
X94541600Y-66000000D02*
X98171000Y-62370600D01*
X85250000Y-66000000D02*
X94541600Y-66000000D01*
X98171000Y-62370600D02*
X98171000Y-61950600D01*
X84650000Y-66600000D02*
X85250000Y-66000000D01*
%TO.N,ID2*%
X84801471Y-65600000D02*
X94375914Y-65600000D01*
X83850000Y-66600000D02*
X83850000Y-66551471D01*
X96901000Y-63074914D02*
X96901000Y-61950600D01*
X83850000Y-66551471D02*
X84801471Y-65600000D01*
X94375914Y-65600000D02*
X96901000Y-63074914D01*
%TO.N,BOOTB*%
X72500000Y-64450000D02*
X72100000Y-64850000D01*
X73100000Y-64450000D02*
X72500000Y-64450000D01*
%TO.N,RXD*%
X78651471Y-67500000D02*
X79567592Y-67500000D01*
X78100000Y-68051471D02*
X78651471Y-67500000D01*
X78100000Y-68100000D02*
X78100000Y-68051471D01*
X80713728Y-66625000D02*
X82938728Y-64400000D01*
X82938728Y-64400000D02*
X88550000Y-64400000D01*
X88550000Y-64400000D02*
X88800000Y-64150000D01*
X79567592Y-67500000D02*
X80442592Y-66625000D01*
X80442592Y-66625000D02*
X80713728Y-66625000D01*
%TO.N,TXD*%
X79533278Y-68100000D02*
X80608278Y-67025000D01*
X80879414Y-67025000D02*
X80879414Y-67024999D01*
X89636742Y-64800000D02*
X90900000Y-63536742D01*
X80879414Y-67024999D02*
X81800000Y-66104413D01*
X82220014Y-65684400D02*
X83104414Y-64800000D01*
X78900000Y-68100000D02*
X79533278Y-68100000D01*
X83104414Y-64800000D02*
X89636742Y-64800000D01*
X81800000Y-66104413D02*
X82220014Y-65684400D01*
X80608278Y-67025000D02*
X80879414Y-67025000D01*
X90900000Y-63536742D02*
X90900000Y-62000000D01*
%TO.N,BOOTC*%
X72500000Y-61350000D02*
X72100000Y-61750000D01*
X73100000Y-61350000D02*
X72500000Y-61350000D01*
D26*
%TO.N,+12V*%
X77393800Y-58648600D02*
X70703612Y-58648600D01*
X70703612Y-58648600D02*
X69600000Y-59752212D01*
X69600000Y-59752212D02*
X69600000Y-67950000D01*
D28*
%TO.N,+3.3V*%
X97537600Y-72400000D02*
X98100000Y-72400000D01*
D27*
X95981800Y-70281800D02*
X98100000Y-72400000D01*
X94917600Y-70281800D02*
X95981800Y-70281800D01*
X98100000Y-72400000D02*
X97551471Y-72400000D01*
D28*
X97900000Y-72200000D02*
X98100000Y-72400000D01*
D27*
%TO.N,MON*%
X89400000Y-57400000D02*
X88800000Y-58000000D01*
X90700000Y-58100000D02*
X88700000Y-58100000D01*
X88513000Y-58287000D02*
X87900000Y-58900000D01*
X89400000Y-56112500D02*
X89400000Y-57400000D01*
X88800000Y-58000000D02*
X88513000Y-58287000D01*
X88700000Y-58100000D02*
X88513000Y-58287000D01*
%TO.N,USART_TX*%
X80807356Y-65400000D02*
X80000000Y-65400000D01*
X91700000Y-57185785D02*
X91700000Y-58468628D01*
X87885785Y-63600000D02*
X82607356Y-63600000D01*
X91500000Y-58668628D02*
X91500000Y-59985785D01*
X93900000Y-52800000D02*
X93900000Y-54985785D01*
X93900000Y-54985785D02*
X91700000Y-57185785D01*
X91700000Y-58468628D02*
X91500000Y-58668628D01*
X91500000Y-59985785D02*
X87885785Y-63600000D01*
X82607356Y-63600000D02*
X80807356Y-65400000D01*
%TO.N,USART_RX*%
X88051471Y-64000000D02*
X82773042Y-64000000D01*
X92100000Y-58634314D02*
X91900000Y-58834314D01*
X80573042Y-66200000D02*
X80000000Y-66200000D01*
X94700000Y-54751471D02*
X92100000Y-57351471D01*
X92100000Y-57351471D02*
X92100000Y-58634314D01*
X91900000Y-58834314D02*
X91900000Y-60151471D01*
X94700000Y-52800000D02*
X94700000Y-54751471D01*
X82773042Y-64000000D02*
X80573042Y-66200000D01*
X91900000Y-60151471D02*
X88051471Y-64000000D01*
%TO.N,Net-(U1-PB1)*%
X77312500Y-63100000D02*
X79498529Y-63100000D01*
X82548529Y-60050000D02*
X83600000Y-60050000D01*
X79498529Y-63100000D02*
X82548529Y-60050000D01*
%TO.N,REF0*%
X76312500Y-67750000D02*
X77016722Y-67750000D01*
X78100000Y-65629901D02*
X82679901Y-61050000D01*
X85901471Y-61050000D02*
X86800000Y-60151471D01*
X82679901Y-61050000D02*
X85901471Y-61050000D01*
X86800000Y-60151471D02*
X86800000Y-60050000D01*
X77016722Y-67750000D02*
X78100000Y-66666722D01*
X76312500Y-61550000D02*
X76312500Y-67750000D01*
X78100000Y-66666722D02*
X78100000Y-65629901D01*
%TO.N,Net-(U1-PA7)*%
X77312500Y-65851715D02*
X82514215Y-60650000D01*
X86000000Y-60098529D02*
X86000000Y-60050000D01*
X77312500Y-66200000D02*
X77312500Y-65851715D01*
X82514215Y-60650000D02*
X85448529Y-60650000D01*
X85448529Y-60650000D02*
X86000000Y-60098529D01*
%TO.N,Net-(U1-PC1)*%
X79820406Y-64476994D02*
X81747400Y-62550000D01*
X78500000Y-65795587D02*
X79818594Y-64476994D01*
X78500000Y-66832407D02*
X78500000Y-65795587D01*
X77312500Y-68019908D02*
X78500000Y-66832407D01*
X81747400Y-62550000D02*
X86900000Y-62550000D01*
X79818594Y-64476994D02*
X79820406Y-64476994D01*
X77312500Y-69300000D02*
X77312500Y-68019908D01*
%TO.N,Net-(U4-VIOUT)*%
X68637500Y-70500000D02*
X68350000Y-70500000D01*
X68350000Y-70500000D02*
X67000000Y-69150000D01*
%TO.N,Net-(U5-VIOUT)*%
X56787500Y-51100000D02*
X56787500Y-51238700D01*
X56787500Y-51238700D02*
X56108600Y-51917600D01*
D29*
%TO.N,Net-(U1-SCREF)*%
X81087500Y-67800000D02*
X81087500Y-68887500D01*
X81087500Y-70100000D02*
X81087500Y-68912500D01*
D27*
%TO.N,Net-(U1-PB8{slash}BOOOT0)*%
X84787500Y-68787500D02*
X84700000Y-68700000D01*
X84650315Y-69762815D02*
X84787500Y-69900000D01*
X84787500Y-69900000D02*
X84787500Y-68787500D01*
%TD*%
%TA.AperFunction,Conductor*%
%TO.N,GND*%
G36*
X97003472Y-50200695D02*
G01*
X97306503Y-50217713D01*
X97320301Y-50219267D01*
X97616080Y-50269522D01*
X97629634Y-50272615D01*
X97766864Y-50312151D01*
X97917927Y-50355672D01*
X97931051Y-50360265D01*
X98208222Y-50475072D01*
X98220744Y-50481101D01*
X98303116Y-50526627D01*
X98483328Y-50626227D01*
X98495102Y-50633625D01*
X98592353Y-50702628D01*
X98739789Y-50807239D01*
X98750657Y-50815907D01*
X98974352Y-51015815D01*
X98984184Y-51025647D01*
X99184092Y-51249342D01*
X99192763Y-51260214D01*
X99366374Y-51504897D01*
X99373772Y-51516671D01*
X99518894Y-51779248D01*
X99524927Y-51791777D01*
X99639734Y-52068948D01*
X99644327Y-52082072D01*
X99727383Y-52370363D01*
X99730477Y-52383920D01*
X99780730Y-52679688D01*
X99782287Y-52693506D01*
X99799305Y-52996527D01*
X99799500Y-53003480D01*
X99799500Y-76495933D01*
X99799235Y-76504043D01*
X99784636Y-76726778D01*
X99782518Y-76742859D01*
X99739769Y-76957771D01*
X99735571Y-76973438D01*
X99665133Y-77180942D01*
X99658926Y-77195928D01*
X99562007Y-77392460D01*
X99553897Y-77406507D01*
X99432154Y-77588708D01*
X99422280Y-77601576D01*
X99277797Y-77766328D01*
X99266328Y-77777797D01*
X99101576Y-77922280D01*
X99088708Y-77932154D01*
X98906507Y-78053897D01*
X98892460Y-78062007D01*
X98695928Y-78158926D01*
X98680942Y-78165133D01*
X98473438Y-78235571D01*
X98457771Y-78239769D01*
X98242859Y-78282518D01*
X98226778Y-78284636D01*
X98004043Y-78299235D01*
X97995933Y-78299500D01*
X52004067Y-78299500D01*
X51995957Y-78299235D01*
X51773221Y-78284636D01*
X51757140Y-78282518D01*
X51542228Y-78239769D01*
X51526561Y-78235571D01*
X51319057Y-78165133D01*
X51304071Y-78158926D01*
X51107539Y-78062007D01*
X51093492Y-78053897D01*
X50911291Y-77932154D01*
X50898423Y-77922280D01*
X50733671Y-77777797D01*
X50722202Y-77766328D01*
X50669730Y-77706495D01*
X50577716Y-77601573D01*
X50567845Y-77588708D01*
X50446102Y-77406507D01*
X50437992Y-77392460D01*
X50435196Y-77386791D01*
X50341070Y-77195921D01*
X50334866Y-77180942D01*
X50264428Y-76973438D01*
X50260230Y-76957771D01*
X50248217Y-76897376D01*
X50217479Y-76742848D01*
X50215364Y-76726790D01*
X50200765Y-76504043D01*
X50200500Y-76495933D01*
X50200500Y-76451000D01*
X50220185Y-76383961D01*
X50272989Y-76338206D01*
X50324500Y-76327000D01*
X68935600Y-76327000D01*
X68935600Y-75593369D01*
X68955285Y-75526330D01*
X69008089Y-75480575D01*
X69077247Y-75470631D01*
X69140803Y-75499656D01*
X69158554Y-75518643D01*
X69283605Y-75684238D01*
X69283607Y-75684241D01*
X69434260Y-75821578D01*
X69607584Y-75928897D01*
X69797678Y-76002539D01*
X69850000Y-76012320D01*
X69850000Y-75373012D01*
X69907007Y-75405925D01*
X70034174Y-75440000D01*
X70165826Y-75440000D01*
X70292993Y-75405925D01*
X70350000Y-75373012D01*
X70350000Y-76012320D01*
X70402321Y-76002539D01*
X70592415Y-75928897D01*
X70765739Y-75821578D01*
X70916391Y-75684242D01*
X71039245Y-75521556D01*
X71130109Y-75339078D01*
X71130114Y-75339065D01*
X71172528Y-75190000D01*
X70533012Y-75190000D01*
X70565925Y-75132993D01*
X70600000Y-75005826D01*
X70600000Y-74874174D01*
X70565925Y-74747007D01*
X70533012Y-74690000D01*
X71172528Y-74690000D01*
X71172528Y-74689999D01*
X71567471Y-74689999D01*
X71567472Y-74690000D01*
X72206988Y-74690000D01*
X72174075Y-74747007D01*
X72140000Y-74874174D01*
X72140000Y-75005826D01*
X72174075Y-75132993D01*
X72206988Y-75190000D01*
X71567472Y-75190000D01*
X71609885Y-75339065D01*
X71609890Y-75339078D01*
X71700754Y-75521556D01*
X71823608Y-75684242D01*
X71974260Y-75821578D01*
X72147584Y-75928897D01*
X72337678Y-76002539D01*
X72390000Y-76012320D01*
X72390000Y-75373012D01*
X72447007Y-75405925D01*
X72574174Y-75440000D01*
X72705826Y-75440000D01*
X72832993Y-75405925D01*
X72890000Y-75373012D01*
X72890000Y-76012320D01*
X72942321Y-76002539D01*
X73132415Y-75928897D01*
X73305739Y-75821578D01*
X73456391Y-75684242D01*
X73579245Y-75521556D01*
X73670109Y-75339078D01*
X73670114Y-75339065D01*
X73712528Y-75190000D01*
X73073012Y-75190000D01*
X73105925Y-75132993D01*
X73140000Y-75005826D01*
X73140000Y-74874174D01*
X73105925Y-74747007D01*
X73073012Y-74690000D01*
X73712528Y-74690000D01*
X73712528Y-74689999D01*
X74107471Y-74689999D01*
X74107472Y-74690000D01*
X74746988Y-74690000D01*
X74714075Y-74747007D01*
X74680000Y-74874174D01*
X74680000Y-75005826D01*
X74714075Y-75132993D01*
X74746988Y-75190000D01*
X74107472Y-75190000D01*
X74149885Y-75339065D01*
X74149890Y-75339078D01*
X74240754Y-75521556D01*
X74363608Y-75684242D01*
X74514260Y-75821578D01*
X74687584Y-75928897D01*
X74877678Y-76002539D01*
X74930000Y-76012320D01*
X74930000Y-75373012D01*
X74987007Y-75405925D01*
X75114174Y-75440000D01*
X75245826Y-75440000D01*
X75372993Y-75405925D01*
X75430000Y-75373012D01*
X75430000Y-76012320D01*
X75482321Y-76002539D01*
X75672415Y-75928897D01*
X75845739Y-75821578D01*
X75996391Y-75684242D01*
X76119245Y-75521556D01*
X76210109Y-75339078D01*
X76210114Y-75339065D01*
X76252528Y-75190000D01*
X75613012Y-75190000D01*
X75645925Y-75132993D01*
X75680000Y-75005826D01*
X75680000Y-74874174D01*
X75645925Y-74747007D01*
X75613012Y-74690000D01*
X76252528Y-74690000D01*
X76252528Y-74689999D01*
X76647471Y-74689999D01*
X76647472Y-74690000D01*
X77286988Y-74690000D01*
X77254075Y-74747007D01*
X77220000Y-74874174D01*
X77220000Y-75005826D01*
X77254075Y-75132993D01*
X77286988Y-75190000D01*
X76647472Y-75190000D01*
X76689885Y-75339065D01*
X76689890Y-75339078D01*
X76780754Y-75521556D01*
X76903608Y-75684242D01*
X77054260Y-75821578D01*
X77227584Y-75928897D01*
X77417678Y-76002539D01*
X77470000Y-76012320D01*
X77470000Y-75373012D01*
X77527007Y-75405925D01*
X77654174Y-75440000D01*
X77785826Y-75440000D01*
X77912993Y-75405925D01*
X77970000Y-75373012D01*
X77970000Y-76012320D01*
X78022321Y-76002539D01*
X78212415Y-75928897D01*
X78385739Y-75821578D01*
X78536391Y-75684242D01*
X78659245Y-75521556D01*
X78750109Y-75339078D01*
X78750114Y-75339065D01*
X78792528Y-75190000D01*
X78153012Y-75190000D01*
X78185925Y-75132993D01*
X78220000Y-75005826D01*
X78220000Y-74874174D01*
X78185925Y-74747007D01*
X78153012Y-74690000D01*
X78792528Y-74690000D01*
X78792528Y-74689999D01*
X79187471Y-74689999D01*
X79187472Y-74690000D01*
X79826988Y-74690000D01*
X79794075Y-74747007D01*
X79760000Y-74874174D01*
X79760000Y-75005826D01*
X79794075Y-75132993D01*
X79826988Y-75190000D01*
X79187472Y-75190000D01*
X79229885Y-75339065D01*
X79229890Y-75339078D01*
X79320754Y-75521556D01*
X79443608Y-75684242D01*
X79594260Y-75821578D01*
X79767584Y-75928897D01*
X79957678Y-76002539D01*
X80010000Y-76012320D01*
X80010000Y-75373012D01*
X80067007Y-75405925D01*
X80194174Y-75440000D01*
X80325826Y-75440000D01*
X80452993Y-75405925D01*
X80510000Y-75373012D01*
X80510000Y-76012320D01*
X80562321Y-76002539D01*
X80752415Y-75928897D01*
X80925739Y-75821578D01*
X81076391Y-75684242D01*
X81199245Y-75521556D01*
X81290109Y-75339078D01*
X81290114Y-75339065D01*
X81332528Y-75190000D01*
X80693012Y-75190000D01*
X80725925Y-75132993D01*
X80760000Y-75005826D01*
X80760000Y-74874174D01*
X80725925Y-74747007D01*
X80693012Y-74690000D01*
X81332528Y-74690000D01*
X81332528Y-74689999D01*
X81727471Y-74689999D01*
X81727472Y-74690000D01*
X82366988Y-74690000D01*
X82334075Y-74747007D01*
X82300000Y-74874174D01*
X82300000Y-75005826D01*
X82334075Y-75132993D01*
X82366988Y-75190000D01*
X81727472Y-75190000D01*
X81769885Y-75339065D01*
X81769890Y-75339078D01*
X81860754Y-75521556D01*
X81983608Y-75684242D01*
X82134260Y-75821578D01*
X82307584Y-75928897D01*
X82497678Y-76002539D01*
X82550000Y-76012320D01*
X82550000Y-75373012D01*
X82607007Y-75405925D01*
X82734174Y-75440000D01*
X82865826Y-75440000D01*
X82992993Y-75405925D01*
X83050000Y-75373012D01*
X83050000Y-76012320D01*
X83102321Y-76002539D01*
X83292415Y-75928897D01*
X83465739Y-75821578D01*
X83616391Y-75684242D01*
X83739245Y-75521556D01*
X83830109Y-75339078D01*
X83830114Y-75339065D01*
X83872528Y-75190000D01*
X83233012Y-75190000D01*
X83265925Y-75132993D01*
X83300000Y-75005826D01*
X83300000Y-74874174D01*
X83265925Y-74747007D01*
X83233012Y-74690000D01*
X83872528Y-74690000D01*
X83872528Y-74689999D01*
X84267471Y-74689999D01*
X84267472Y-74690000D01*
X84906988Y-74690000D01*
X84874075Y-74747007D01*
X84840000Y-74874174D01*
X84840000Y-75005826D01*
X84874075Y-75132993D01*
X84906988Y-75190000D01*
X84267472Y-75190000D01*
X84309885Y-75339065D01*
X84309890Y-75339078D01*
X84400754Y-75521556D01*
X84523608Y-75684242D01*
X84674260Y-75821578D01*
X84847584Y-75928897D01*
X85037678Y-76002539D01*
X85090000Y-76012320D01*
X85090000Y-75373012D01*
X85147007Y-75405925D01*
X85274174Y-75440000D01*
X85405826Y-75440000D01*
X85532993Y-75405925D01*
X85590000Y-75373012D01*
X85590000Y-76012320D01*
X85642321Y-76002539D01*
X85832415Y-75928897D01*
X86005739Y-75821578D01*
X86156391Y-75684242D01*
X86279245Y-75521556D01*
X86370109Y-75339078D01*
X86370114Y-75339065D01*
X86412528Y-75190000D01*
X85773012Y-75190000D01*
X85805925Y-75132993D01*
X85840000Y-75005826D01*
X85840000Y-74940000D01*
X89424417Y-74940000D01*
X89444699Y-75145932D01*
X89444700Y-75145934D01*
X89504768Y-75343954D01*
X89602315Y-75526450D01*
X89602317Y-75526452D01*
X89733589Y-75686410D01*
X89830209Y-75765702D01*
X89893550Y-75817685D01*
X90076046Y-75915232D01*
X90274066Y-75975300D01*
X90274065Y-75975300D01*
X90292529Y-75977118D01*
X90480000Y-75995583D01*
X90685934Y-75975300D01*
X90883954Y-75915232D01*
X91066450Y-75817685D01*
X91226410Y-75686410D01*
X91357685Y-75526450D01*
X91455232Y-75343954D01*
X91515300Y-75145934D01*
X91535583Y-74940000D01*
X91964417Y-74940000D01*
X91984699Y-75145932D01*
X91984700Y-75145934D01*
X92044768Y-75343954D01*
X92142315Y-75526450D01*
X92142317Y-75526452D01*
X92273589Y-75686410D01*
X92370209Y-75765702D01*
X92433550Y-75817685D01*
X92616046Y-75915232D01*
X92814066Y-75975300D01*
X92814065Y-75975300D01*
X92832529Y-75977118D01*
X93020000Y-75995583D01*
X93225934Y-75975300D01*
X93423954Y-75915232D01*
X93606450Y-75817685D01*
X93766410Y-75686410D01*
X93897685Y-75526450D01*
X93995232Y-75343954D01*
X94055300Y-75145934D01*
X94075583Y-74940000D01*
X94055300Y-74734066D01*
X93995232Y-74536046D01*
X93897685Y-74353550D01*
X93842766Y-74286630D01*
X93766410Y-74193589D01*
X93648677Y-74096969D01*
X93606450Y-74062315D01*
X93423954Y-73964768D01*
X93225934Y-73904700D01*
X93225932Y-73904699D01*
X93225934Y-73904699D01*
X93020000Y-73884417D01*
X92814067Y-73904699D01*
X92616043Y-73964769D01*
X92505898Y-74023643D01*
X92433550Y-74062315D01*
X92433548Y-74062316D01*
X92433547Y-74062317D01*
X92273589Y-74193589D01*
X92142317Y-74353547D01*
X92142315Y-74353550D01*
X92115887Y-74402993D01*
X92044769Y-74536043D01*
X91984699Y-74734067D01*
X91964417Y-74940000D01*
X91535583Y-74940000D01*
X91515300Y-74734066D01*
X91455232Y-74536046D01*
X91357685Y-74353550D01*
X91302766Y-74286630D01*
X91226410Y-74193589D01*
X91108677Y-74096969D01*
X91066450Y-74062315D01*
X90883954Y-73964768D01*
X90685934Y-73904700D01*
X90685932Y-73904699D01*
X90685934Y-73904699D01*
X90480000Y-73884417D01*
X90274067Y-73904699D01*
X90076043Y-73964769D01*
X89965898Y-74023643D01*
X89893550Y-74062315D01*
X89893548Y-74062316D01*
X89893547Y-74062317D01*
X89733589Y-74193589D01*
X89602317Y-74353547D01*
X89602315Y-74353550D01*
X89575887Y-74402993D01*
X89504769Y-74536043D01*
X89444699Y-74734067D01*
X89424417Y-74940000D01*
X85840000Y-74940000D01*
X85840000Y-74874174D01*
X85805925Y-74747007D01*
X85773012Y-74690000D01*
X86412528Y-74690000D01*
X86412528Y-74689999D01*
X86370114Y-74540934D01*
X86370109Y-74540921D01*
X86279245Y-74358443D01*
X86156391Y-74195757D01*
X86005739Y-74058421D01*
X85832413Y-73951101D01*
X85642315Y-73877458D01*
X85642309Y-73877456D01*
X85590001Y-73867677D01*
X85590000Y-73867679D01*
X85590000Y-74506988D01*
X85532993Y-74474075D01*
X85405826Y-74440000D01*
X85274174Y-74440000D01*
X85147007Y-74474075D01*
X85090000Y-74506988D01*
X85090000Y-73867679D01*
X85089998Y-73867677D01*
X85037690Y-73877456D01*
X85037684Y-73877458D01*
X84847586Y-73951101D01*
X84674260Y-74058421D01*
X84523608Y-74195757D01*
X84400754Y-74358443D01*
X84309890Y-74540921D01*
X84309885Y-74540934D01*
X84267471Y-74689999D01*
X83872528Y-74689999D01*
X83830114Y-74540934D01*
X83830109Y-74540921D01*
X83739245Y-74358443D01*
X83616391Y-74195757D01*
X83465739Y-74058421D01*
X83292413Y-73951101D01*
X83102315Y-73877458D01*
X83102309Y-73877456D01*
X83050001Y-73867677D01*
X83050000Y-73867679D01*
X83050000Y-74506988D01*
X82992993Y-74474075D01*
X82865826Y-74440000D01*
X82734174Y-74440000D01*
X82607007Y-74474075D01*
X82550000Y-74506988D01*
X82550000Y-73867679D01*
X82549998Y-73867677D01*
X82497690Y-73877456D01*
X82497684Y-73877458D01*
X82307586Y-73951101D01*
X82134260Y-74058421D01*
X81983608Y-74195757D01*
X81860754Y-74358443D01*
X81769890Y-74540921D01*
X81769885Y-74540934D01*
X81727471Y-74689999D01*
X81332528Y-74689999D01*
X81290114Y-74540934D01*
X81290109Y-74540921D01*
X81199245Y-74358443D01*
X81076391Y-74195757D01*
X80925739Y-74058421D01*
X80752413Y-73951101D01*
X80562315Y-73877458D01*
X80562309Y-73877456D01*
X80510001Y-73867677D01*
X80510000Y-73867679D01*
X80510000Y-74506988D01*
X80452993Y-74474075D01*
X80325826Y-74440000D01*
X80194174Y-74440000D01*
X80067007Y-74474075D01*
X80010000Y-74506988D01*
X80010000Y-73867679D01*
X80009998Y-73867677D01*
X79957690Y-73877456D01*
X79957684Y-73877458D01*
X79767586Y-73951101D01*
X79594260Y-74058421D01*
X79443608Y-74195757D01*
X79320754Y-74358443D01*
X79229890Y-74540921D01*
X79229885Y-74540934D01*
X79187471Y-74689999D01*
X78792528Y-74689999D01*
X78750114Y-74540934D01*
X78750109Y-74540921D01*
X78659245Y-74358443D01*
X78536391Y-74195757D01*
X78385739Y-74058421D01*
X78212413Y-73951101D01*
X78022315Y-73877458D01*
X78022309Y-73877456D01*
X77970001Y-73867677D01*
X77970000Y-73867679D01*
X77970000Y-74506988D01*
X77912993Y-74474075D01*
X77785826Y-74440000D01*
X77654174Y-74440000D01*
X77527007Y-74474075D01*
X77470000Y-74506988D01*
X77470000Y-73867679D01*
X77469998Y-73867677D01*
X77417690Y-73877456D01*
X77417684Y-73877458D01*
X77227586Y-73951101D01*
X77054260Y-74058421D01*
X76903608Y-74195757D01*
X76780754Y-74358443D01*
X76689890Y-74540921D01*
X76689885Y-74540934D01*
X76647471Y-74689999D01*
X76252528Y-74689999D01*
X76210114Y-74540934D01*
X76210109Y-74540921D01*
X76119245Y-74358443D01*
X75996391Y-74195757D01*
X75845739Y-74058421D01*
X75672413Y-73951101D01*
X75482315Y-73877458D01*
X75482309Y-73877456D01*
X75430001Y-73867677D01*
X75430000Y-73867679D01*
X75430000Y-74506988D01*
X75372993Y-74474075D01*
X75245826Y-74440000D01*
X75114174Y-74440000D01*
X74987007Y-74474075D01*
X74930000Y-74506988D01*
X74930000Y-73867679D01*
X74929998Y-73867677D01*
X74877690Y-73877456D01*
X74877684Y-73877458D01*
X74687586Y-73951101D01*
X74514260Y-74058421D01*
X74363608Y-74195757D01*
X74240754Y-74358443D01*
X74149890Y-74540921D01*
X74149885Y-74540934D01*
X74107471Y-74689999D01*
X73712528Y-74689999D01*
X73670114Y-74540934D01*
X73670109Y-74540921D01*
X73579245Y-74358443D01*
X73456391Y-74195757D01*
X73305739Y-74058421D01*
X73132413Y-73951101D01*
X72942315Y-73877458D01*
X72942309Y-73877456D01*
X72890001Y-73867677D01*
X72890000Y-73867679D01*
X72890000Y-74506988D01*
X72832993Y-74474075D01*
X72705826Y-74440000D01*
X72574174Y-74440000D01*
X72447007Y-74474075D01*
X72390000Y-74506988D01*
X72390000Y-73867679D01*
X72389998Y-73867677D01*
X72337690Y-73877456D01*
X72337684Y-73877458D01*
X72147586Y-73951101D01*
X71974260Y-74058421D01*
X71823608Y-74195757D01*
X71700754Y-74358443D01*
X71609890Y-74540921D01*
X71609885Y-74540934D01*
X71567471Y-74689999D01*
X71172528Y-74689999D01*
X71130114Y-74540934D01*
X71130109Y-74540921D01*
X71039245Y-74358443D01*
X70916391Y-74195757D01*
X70765739Y-74058421D01*
X70592413Y-73951101D01*
X70402315Y-73877458D01*
X70402309Y-73877456D01*
X70350001Y-73867677D01*
X70350000Y-73867679D01*
X70350000Y-74506988D01*
X70292993Y-74474075D01*
X70165826Y-74440000D01*
X70034174Y-74440000D01*
X69907007Y-74474075D01*
X69850000Y-74506988D01*
X69850000Y-73867679D01*
X69849998Y-73867677D01*
X69797690Y-73877456D01*
X69797684Y-73877458D01*
X69607586Y-73951101D01*
X69434260Y-74058421D01*
X69283608Y-74195757D01*
X69158554Y-74361357D01*
X69102445Y-74402993D01*
X69032733Y-74407684D01*
X68971551Y-74373942D01*
X68938324Y-74312479D01*
X68935600Y-74286630D01*
X68935600Y-73053369D01*
X68955285Y-72986330D01*
X69008089Y-72940575D01*
X69077247Y-72930631D01*
X69140803Y-72959656D01*
X69158554Y-72978643D01*
X69283605Y-73144238D01*
X69283607Y-73144241D01*
X69434260Y-73281578D01*
X69607584Y-73388897D01*
X69797678Y-73462539D01*
X69850000Y-73472320D01*
X69850000Y-72833012D01*
X69907007Y-72865925D01*
X70034174Y-72900000D01*
X70165826Y-72900000D01*
X70292993Y-72865925D01*
X70350000Y-72833012D01*
X70350000Y-73472320D01*
X70402321Y-73462539D01*
X70592415Y-73388897D01*
X70765739Y-73281578D01*
X70916391Y-73144242D01*
X71039245Y-72981556D01*
X71130109Y-72799078D01*
X71130114Y-72799065D01*
X71172528Y-72650000D01*
X70533012Y-72650000D01*
X70565925Y-72592993D01*
X70600000Y-72465826D01*
X70600000Y-72334174D01*
X70565925Y-72207007D01*
X70533012Y-72150000D01*
X71172528Y-72150000D01*
X71172528Y-72149999D01*
X71130114Y-72000934D01*
X71130109Y-72000921D01*
X71039245Y-71818443D01*
X70916391Y-71655757D01*
X70765739Y-71518421D01*
X70592409Y-71411098D01*
X70591213Y-71410503D01*
X70590741Y-71410065D01*
X70587539Y-71408083D01*
X70587926Y-71407456D01*
X70539973Y-71363003D01*
X70522548Y-71295341D01*
X70544470Y-71229000D01*
X70598778Y-71185042D01*
X70646478Y-71175500D01*
X70765260Y-71175500D01*
X70794849Y-71172725D01*
X70803302Y-71169767D01*
X70919475Y-71129116D01*
X71025711Y-71050711D01*
X71104116Y-70944475D01*
X71115859Y-70910916D01*
X71125437Y-70883545D01*
X71166159Y-70826769D01*
X71231112Y-70801022D01*
X71242478Y-70800500D01*
X71304238Y-70800500D01*
X71457522Y-70800500D01*
X71524561Y-70820185D01*
X71570316Y-70872989D01*
X71574563Y-70883545D01*
X71595883Y-70944475D01*
X71595884Y-70944476D01*
X71674288Y-71050710D01*
X71674289Y-71050711D01*
X71780523Y-71129115D01*
X71780524Y-71129115D01*
X71780525Y-71129116D01*
X71905151Y-71172725D01*
X71905150Y-71172725D01*
X71934740Y-71175500D01*
X72093522Y-71175500D01*
X72160561Y-71195185D01*
X72206316Y-71247989D01*
X72216260Y-71317147D01*
X72187235Y-71380703D01*
X72152282Y-71407794D01*
X72152461Y-71408083D01*
X72149717Y-71409781D01*
X72148787Y-71410503D01*
X72147590Y-71411098D01*
X71974260Y-71518421D01*
X71823608Y-71655757D01*
X71700754Y-71818443D01*
X71609890Y-72000921D01*
X71609885Y-72000934D01*
X71567471Y-72149999D01*
X71567472Y-72150000D01*
X72206988Y-72150000D01*
X72174075Y-72207007D01*
X72140000Y-72334174D01*
X72140000Y-72465826D01*
X72174075Y-72592993D01*
X72206988Y-72650000D01*
X71567472Y-72650000D01*
X71609885Y-72799065D01*
X71609890Y-72799078D01*
X71700754Y-72981556D01*
X71823608Y-73144242D01*
X71974260Y-73281578D01*
X72147584Y-73388897D01*
X72337678Y-73462539D01*
X72390000Y-73472320D01*
X72390000Y-72833012D01*
X72447007Y-72865925D01*
X72574174Y-72900000D01*
X72705826Y-72900000D01*
X72832993Y-72865925D01*
X72890000Y-72833012D01*
X72890000Y-73472320D01*
X72942321Y-73462539D01*
X73132415Y-73388897D01*
X73305739Y-73281578D01*
X73456391Y-73144242D01*
X73579245Y-72981556D01*
X73670109Y-72799078D01*
X73670114Y-72799065D01*
X73712528Y-72650000D01*
X73073012Y-72650000D01*
X73105925Y-72592993D01*
X73140000Y-72465826D01*
X73140000Y-72334174D01*
X73105925Y-72207007D01*
X73073012Y-72150000D01*
X73712528Y-72150000D01*
X73712528Y-72149999D01*
X74107471Y-72149999D01*
X74107472Y-72150000D01*
X74746988Y-72150000D01*
X74714075Y-72207007D01*
X74680000Y-72334174D01*
X74680000Y-72465826D01*
X74714075Y-72592993D01*
X74746988Y-72650000D01*
X74107472Y-72650000D01*
X74149885Y-72799065D01*
X74149890Y-72799078D01*
X74240754Y-72981556D01*
X74363608Y-73144242D01*
X74514260Y-73281578D01*
X74687584Y-73388897D01*
X74877678Y-73462539D01*
X74930000Y-73472320D01*
X74930000Y-72833012D01*
X74987007Y-72865925D01*
X75114174Y-72900000D01*
X75245826Y-72900000D01*
X75372993Y-72865925D01*
X75430000Y-72833012D01*
X75430000Y-73472320D01*
X75482321Y-73462539D01*
X75672415Y-73388897D01*
X75845739Y-73281578D01*
X75996391Y-73144242D01*
X76119245Y-72981556D01*
X76210109Y-72799078D01*
X76210114Y-72799065D01*
X76252528Y-72650000D01*
X75613012Y-72650000D01*
X75645925Y-72592993D01*
X75680000Y-72465826D01*
X75680000Y-72334174D01*
X75645925Y-72207007D01*
X75613012Y-72150000D01*
X76252528Y-72150000D01*
X76252528Y-72149999D01*
X76647471Y-72149999D01*
X76647472Y-72150000D01*
X77286988Y-72150000D01*
X77254075Y-72207007D01*
X77220000Y-72334174D01*
X77220000Y-72465826D01*
X77254075Y-72592993D01*
X77286988Y-72650000D01*
X76647472Y-72650000D01*
X76689885Y-72799065D01*
X76689890Y-72799078D01*
X76780754Y-72981556D01*
X76903608Y-73144242D01*
X77054260Y-73281578D01*
X77227584Y-73388897D01*
X77417678Y-73462539D01*
X77470000Y-73472320D01*
X77470000Y-72833012D01*
X77527007Y-72865925D01*
X77654174Y-72900000D01*
X77785826Y-72900000D01*
X77912993Y-72865925D01*
X77970000Y-72833012D01*
X77970000Y-73472320D01*
X78022321Y-73462539D01*
X78212415Y-73388897D01*
X78385739Y-73281578D01*
X78536391Y-73144242D01*
X78659245Y-72981556D01*
X78750109Y-72799078D01*
X78750114Y-72799065D01*
X78792528Y-72650000D01*
X78153012Y-72650000D01*
X78185925Y-72592993D01*
X78220000Y-72465826D01*
X78220000Y-72334174D01*
X78185925Y-72207007D01*
X78153012Y-72150000D01*
X78792528Y-72150000D01*
X78792528Y-72149999D01*
X79187471Y-72149999D01*
X79187472Y-72150000D01*
X79826988Y-72150000D01*
X79794075Y-72207007D01*
X79760000Y-72334174D01*
X79760000Y-72465826D01*
X79794075Y-72592993D01*
X79826988Y-72650000D01*
X79187472Y-72650000D01*
X79229885Y-72799065D01*
X79229890Y-72799078D01*
X79320754Y-72981556D01*
X79443608Y-73144242D01*
X79594260Y-73281578D01*
X79767584Y-73388897D01*
X79957678Y-73462539D01*
X80010000Y-73472320D01*
X80010000Y-72833012D01*
X80067007Y-72865925D01*
X80194174Y-72900000D01*
X80325826Y-72900000D01*
X80452993Y-72865925D01*
X80510000Y-72833012D01*
X80510000Y-73472320D01*
X80562321Y-73462539D01*
X80752415Y-73388897D01*
X80925739Y-73281578D01*
X81076391Y-73144242D01*
X81199245Y-72981556D01*
X81290109Y-72799078D01*
X81290114Y-72799065D01*
X81332528Y-72650000D01*
X80693012Y-72650000D01*
X80725925Y-72592993D01*
X80760000Y-72465826D01*
X80760000Y-72334174D01*
X80725925Y-72207007D01*
X80693012Y-72150000D01*
X81332528Y-72150000D01*
X81332528Y-72149999D01*
X81727471Y-72149999D01*
X81727472Y-72150000D01*
X82366988Y-72150000D01*
X82334075Y-72207007D01*
X82300000Y-72334174D01*
X82300000Y-72465826D01*
X82334075Y-72592993D01*
X82366988Y-72650000D01*
X81727472Y-72650000D01*
X81769885Y-72799065D01*
X81769890Y-72799078D01*
X81860754Y-72981556D01*
X81983608Y-73144242D01*
X82134260Y-73281578D01*
X82307584Y-73388897D01*
X82497678Y-73462539D01*
X82550000Y-73472320D01*
X82550000Y-72833012D01*
X82607007Y-72865925D01*
X82734174Y-72900000D01*
X82865826Y-72900000D01*
X82992993Y-72865925D01*
X83050000Y-72833012D01*
X83050000Y-73472320D01*
X83102321Y-73462539D01*
X83292415Y-73388897D01*
X83465739Y-73281578D01*
X83616391Y-73144242D01*
X83739245Y-72981556D01*
X83830109Y-72799078D01*
X83830114Y-72799065D01*
X83872528Y-72650000D01*
X83233012Y-72650000D01*
X83265925Y-72592993D01*
X83300000Y-72465826D01*
X83300000Y-72334174D01*
X83265925Y-72207007D01*
X83233012Y-72150000D01*
X83872528Y-72150000D01*
X83872528Y-72149999D01*
X83830114Y-72000934D01*
X83830109Y-72000921D01*
X83739245Y-71818443D01*
X83616391Y-71655757D01*
X83473363Y-71525371D01*
X84240000Y-71525371D01*
X84240000Y-72150000D01*
X84906988Y-72150000D01*
X84874075Y-72207007D01*
X84840000Y-72334174D01*
X84840000Y-72465826D01*
X84874075Y-72592993D01*
X84906988Y-72650000D01*
X84240000Y-72650000D01*
X84240000Y-73274628D01*
X84254503Y-73347540D01*
X84254505Y-73347544D01*
X84309760Y-73430239D01*
X84392455Y-73485494D01*
X84392459Y-73485496D01*
X84465371Y-73499999D01*
X84465374Y-73500000D01*
X85090000Y-73500000D01*
X85090000Y-72833012D01*
X85147007Y-72865925D01*
X85274174Y-72900000D01*
X85405826Y-72900000D01*
X85532993Y-72865925D01*
X85590000Y-72833012D01*
X85590000Y-73500000D01*
X86214626Y-73500000D01*
X86214628Y-73499999D01*
X86287540Y-73485496D01*
X86287544Y-73485494D01*
X86370239Y-73430239D01*
X86425494Y-73347544D01*
X86425496Y-73347540D01*
X86439999Y-73274628D01*
X86440000Y-73274626D01*
X86440000Y-72650000D01*
X85773012Y-72650000D01*
X85805925Y-72592993D01*
X85840000Y-72465826D01*
X85840000Y-72400000D01*
X89424417Y-72400000D01*
X89444699Y-72605932D01*
X89444700Y-72605934D01*
X89504768Y-72803954D01*
X89602315Y-72986450D01*
X89602317Y-72986452D01*
X89733589Y-73146410D01*
X89800406Y-73201244D01*
X89893550Y-73277685D01*
X90076046Y-73375232D01*
X90274066Y-73435300D01*
X90274065Y-73435300D01*
X90292529Y-73437118D01*
X90480000Y-73455583D01*
X90685934Y-73435300D01*
X90883954Y-73375232D01*
X91066450Y-73277685D01*
X91226410Y-73146410D01*
X91357685Y-72986450D01*
X91455232Y-72803954D01*
X91515300Y-72605934D01*
X91535583Y-72400000D01*
X91515300Y-72194066D01*
X91455232Y-71996046D01*
X91357685Y-71813550D01*
X91244008Y-71675033D01*
X91226410Y-71653589D01*
X91070176Y-71525373D01*
X91066450Y-71522315D01*
X90883954Y-71424768D01*
X90685934Y-71364700D01*
X90685932Y-71364699D01*
X90685934Y-71364699D01*
X90480000Y-71344417D01*
X90274067Y-71364699D01*
X90076043Y-71424769D01*
X89988114Y-71471769D01*
X89893550Y-71522315D01*
X89893548Y-71522316D01*
X89893547Y-71522317D01*
X89733589Y-71653589D01*
X89610354Y-71803754D01*
X89602315Y-71813550D01*
X89598142Y-71821357D01*
X89504769Y-71996043D01*
X89444699Y-72194067D01*
X89424417Y-72400000D01*
X85840000Y-72400000D01*
X85840000Y-72334174D01*
X85805925Y-72207007D01*
X85773012Y-72150000D01*
X86440000Y-72150000D01*
X86440000Y-71525373D01*
X86439999Y-71525371D01*
X86425496Y-71452459D01*
X86425494Y-71452455D01*
X86370239Y-71369760D01*
X86287544Y-71314505D01*
X86287540Y-71314503D01*
X86214627Y-71300000D01*
X85590000Y-71300000D01*
X85590000Y-71966988D01*
X85532993Y-71934075D01*
X85405826Y-71900000D01*
X85274174Y-71900000D01*
X85147007Y-71934075D01*
X85090000Y-71966988D01*
X85090000Y-71300000D01*
X84465373Y-71300000D01*
X84392459Y-71314503D01*
X84392455Y-71314505D01*
X84309760Y-71369760D01*
X84254505Y-71452455D01*
X84254503Y-71452459D01*
X84240000Y-71525371D01*
X83473363Y-71525371D01*
X83465739Y-71518421D01*
X83292413Y-71411101D01*
X83102315Y-71337458D01*
X83102309Y-71337456D01*
X83050001Y-71327677D01*
X83050000Y-71327679D01*
X83050000Y-71966988D01*
X82992993Y-71934075D01*
X82865826Y-71900000D01*
X82734174Y-71900000D01*
X82607007Y-71934075D01*
X82550000Y-71966988D01*
X82550000Y-71327679D01*
X82549998Y-71327677D01*
X82497690Y-71337456D01*
X82497684Y-71337458D01*
X82307586Y-71411101D01*
X82134260Y-71518421D01*
X81983608Y-71655757D01*
X81860754Y-71818443D01*
X81769890Y-72000921D01*
X81769885Y-72000934D01*
X81727471Y-72149999D01*
X81332528Y-72149999D01*
X81290114Y-72000934D01*
X81290109Y-72000921D01*
X81199245Y-71818443D01*
X81076391Y-71655757D01*
X80925739Y-71518421D01*
X80752413Y-71411101D01*
X80562315Y-71337458D01*
X80562309Y-71337456D01*
X80510001Y-71327677D01*
X80510000Y-71327679D01*
X80510000Y-71966988D01*
X80452993Y-71934075D01*
X80325826Y-71900000D01*
X80194174Y-71900000D01*
X80067007Y-71934075D01*
X80010000Y-71966988D01*
X80010000Y-71327679D01*
X80009998Y-71327677D01*
X79957690Y-71337456D01*
X79957684Y-71337458D01*
X79767586Y-71411101D01*
X79594260Y-71518421D01*
X79443608Y-71655757D01*
X79320754Y-71818443D01*
X79229890Y-72000921D01*
X79229885Y-72000934D01*
X79187471Y-72149999D01*
X78792528Y-72149999D01*
X78750114Y-72000934D01*
X78750109Y-72000921D01*
X78659245Y-71818443D01*
X78536391Y-71655757D01*
X78385739Y-71518421D01*
X78212413Y-71411101D01*
X78022315Y-71337458D01*
X78022309Y-71337456D01*
X77970001Y-71327677D01*
X77970000Y-71327679D01*
X77970000Y-71966988D01*
X77912993Y-71934075D01*
X77785826Y-71900000D01*
X77654174Y-71900000D01*
X77527007Y-71934075D01*
X77470000Y-71966988D01*
X77470000Y-71327679D01*
X77469998Y-71327677D01*
X77417690Y-71337456D01*
X77417684Y-71337458D01*
X77227586Y-71411101D01*
X77054260Y-71518421D01*
X76903608Y-71655757D01*
X76780754Y-71818443D01*
X76689890Y-72000921D01*
X76689885Y-72000934D01*
X76647471Y-72149999D01*
X76252528Y-72149999D01*
X76210114Y-72000934D01*
X76210109Y-72000921D01*
X76119245Y-71818443D01*
X75996391Y-71655757D01*
X75845739Y-71518421D01*
X75672413Y-71411101D01*
X75482315Y-71337458D01*
X75482309Y-71337456D01*
X75430001Y-71327677D01*
X75430000Y-71327679D01*
X75430000Y-71966988D01*
X75372993Y-71934075D01*
X75245826Y-71900000D01*
X75114174Y-71900000D01*
X74987007Y-71934075D01*
X74930000Y-71966988D01*
X74930000Y-71327679D01*
X74929998Y-71327677D01*
X74877690Y-71337456D01*
X74877684Y-71337458D01*
X74687586Y-71411101D01*
X74514260Y-71518421D01*
X74363608Y-71655757D01*
X74240754Y-71818443D01*
X74149890Y-72000921D01*
X74149885Y-72000934D01*
X74107471Y-72149999D01*
X73712528Y-72149999D01*
X73670114Y-72000934D01*
X73670109Y-72000921D01*
X73579245Y-71818443D01*
X73456391Y-71655757D01*
X73305739Y-71518421D01*
X73132415Y-71411102D01*
X72942321Y-71337460D01*
X72879321Y-71325683D01*
X72817040Y-71294014D01*
X72781767Y-71233702D01*
X72784701Y-71163894D01*
X72824910Y-71106754D01*
X72828417Y-71104065D01*
X72900711Y-71050711D01*
X72979116Y-70944475D01*
X73006303Y-70866777D01*
X73047024Y-70810003D01*
X73111977Y-70784256D01*
X73180538Y-70797712D01*
X73230941Y-70846099D01*
X73239525Y-70864400D01*
X73280229Y-70973531D01*
X73280232Y-70973536D01*
X73364241Y-71085758D01*
X73476462Y-71169767D01*
X73607812Y-71218758D01*
X73665853Y-71224999D01*
X73665870Y-71225000D01*
X73762500Y-71225000D01*
X73762500Y-70624000D01*
X73782185Y-70556961D01*
X73834989Y-70511206D01*
X73886500Y-70500000D01*
X74138500Y-70500000D01*
X74205539Y-70519685D01*
X74251294Y-70572489D01*
X74262500Y-70624000D01*
X74262500Y-71225000D01*
X74359130Y-71225000D01*
X74359146Y-71224999D01*
X74417187Y-71218758D01*
X74548537Y-71169767D01*
X74660758Y-71085758D01*
X74744767Y-70973536D01*
X74744768Y-70973534D01*
X74756935Y-70940914D01*
X74798805Y-70884980D01*
X74864269Y-70860562D01*
X74908052Y-70865269D01*
X75028038Y-70900500D01*
X75028039Y-70900500D01*
X75171962Y-70900500D01*
X75171962Y-70900499D01*
X75310053Y-70859953D01*
X75431128Y-70782143D01*
X75525377Y-70673373D01*
X75585165Y-70542457D01*
X75605647Y-70400000D01*
X75585165Y-70257543D01*
X75536512Y-70151010D01*
X75526569Y-70081854D01*
X75555594Y-70018298D01*
X75614371Y-69980523D01*
X75649307Y-69975500D01*
X75790260Y-69975500D01*
X75819849Y-69972725D01*
X75850639Y-69961951D01*
X75944475Y-69929116D01*
X76050711Y-69850711D01*
X76129116Y-69744475D01*
X76172725Y-69619849D01*
X76175500Y-69590256D01*
X76175500Y-69009744D01*
X76174989Y-69004299D01*
X76172725Y-68980150D01*
X76136500Y-68876627D01*
X76129116Y-68855525D01*
X76120196Y-68843439D01*
X76050711Y-68749289D01*
X76050710Y-68749288D01*
X75944476Y-68670884D01*
X75944474Y-68670883D01*
X75920741Y-68662578D01*
X75863966Y-68621855D01*
X75863531Y-68620758D01*
X75831977Y-68628300D01*
X75826724Y-68627919D01*
X75790261Y-68624500D01*
X75790256Y-68624500D01*
X75184744Y-68624500D01*
X75184740Y-68624500D01*
X75155150Y-68627274D01*
X75030523Y-68670884D01*
X74924290Y-68749287D01*
X74919605Y-68755636D01*
X74863957Y-68797887D01*
X74794301Y-68803344D01*
X74732751Y-68770277D01*
X74732154Y-68769683D01*
X74599652Y-68637181D01*
X74566167Y-68575858D01*
X74571151Y-68506166D01*
X74613023Y-68450233D01*
X74678487Y-68425816D01*
X74687333Y-68425500D01*
X74790260Y-68425500D01*
X74819849Y-68422725D01*
X74827108Y-68420185D01*
X74944475Y-68379116D01*
X75050711Y-68300711D01*
X75129116Y-68194475D01*
X75172725Y-68069849D01*
X75172892Y-68068073D01*
X75175500Y-68040260D01*
X75175500Y-67459739D01*
X75172725Y-67430150D01*
X75136442Y-67326462D01*
X75129116Y-67305525D01*
X75122977Y-67297207D01*
X75050711Y-67199289D01*
X75050710Y-67199288D01*
X74944476Y-67120884D01*
X74819848Y-67077274D01*
X74819849Y-67077274D01*
X74790260Y-67074500D01*
X74790256Y-67074500D01*
X74184744Y-67074500D01*
X74184740Y-67074500D01*
X74155150Y-67077274D01*
X74030523Y-67120884D01*
X73924289Y-67199288D01*
X73924288Y-67199289D01*
X73845884Y-67305523D01*
X73814365Y-67395597D01*
X73773642Y-67452373D01*
X73708689Y-67478119D01*
X73640128Y-67464662D01*
X73589726Y-67416274D01*
X73584530Y-67406153D01*
X73575216Y-67385758D01*
X73525377Y-67276627D01*
X73431128Y-67167857D01*
X73310053Y-67090047D01*
X73310051Y-67090046D01*
X73310049Y-67090045D01*
X73310050Y-67090045D01*
X73171963Y-67049500D01*
X73171961Y-67049500D01*
X73028039Y-67049500D01*
X73028036Y-67049500D01*
X72889949Y-67090045D01*
X72768873Y-67167856D01*
X72768872Y-67167856D01*
X72768872Y-67167857D01*
X72758511Y-67179815D01*
X72735212Y-67206703D01*
X72676433Y-67244477D01*
X72641499Y-67249500D01*
X72460438Y-67249500D01*
X72460436Y-67249500D01*
X72452379Y-67250561D01*
X72452163Y-67248924D01*
X72423708Y-67251323D01*
X72404269Y-67249500D01*
X72404266Y-67249500D01*
X71795734Y-67249500D01*
X71795730Y-67249500D01*
X71765300Y-67252353D01*
X71765298Y-67252353D01*
X71637119Y-67297206D01*
X71637117Y-67297207D01*
X71527850Y-67377850D01*
X71447207Y-67487117D01*
X71447206Y-67487119D01*
X71402353Y-67615298D01*
X71402353Y-67615300D01*
X71399500Y-67645730D01*
X71399500Y-68254269D01*
X71402353Y-68284699D01*
X71402353Y-68284701D01*
X71447206Y-68412880D01*
X71447207Y-68412882D01*
X71527850Y-68522150D01*
X71637118Y-68602793D01*
X71669252Y-68614037D01*
X71765299Y-68647646D01*
X71795730Y-68650500D01*
X71795734Y-68650500D01*
X72404270Y-68650500D01*
X72434699Y-68647646D01*
X72434701Y-68647646D01*
X72555434Y-68605399D01*
X72625212Y-68601836D01*
X72685840Y-68636565D01*
X72690102Y-68641237D01*
X72698128Y-68650500D01*
X72710869Y-68665204D01*
X72713983Y-68668797D01*
X72743008Y-68732353D01*
X72733064Y-68801511D01*
X72713983Y-68831202D01*
X72674625Y-68876622D01*
X72674622Y-68876628D01*
X72614834Y-69007543D01*
X72594353Y-69150000D01*
X72614834Y-69292456D01*
X72670101Y-69413471D01*
X72674623Y-69423373D01*
X72768872Y-69532143D01*
X72889947Y-69609953D01*
X72908499Y-69615400D01*
X72967278Y-69653174D01*
X72996304Y-69716729D01*
X72986361Y-69785888D01*
X72961245Y-69822061D01*
X72936349Y-69846956D01*
X72875026Y-69880440D01*
X72805334Y-69875454D01*
X72797515Y-69871948D01*
X72794475Y-69870884D01*
X72756792Y-69857698D01*
X72669848Y-69827274D01*
X72669849Y-69827274D01*
X72640260Y-69824500D01*
X72640256Y-69824500D01*
X71934744Y-69824500D01*
X71934740Y-69824500D01*
X71905150Y-69827274D01*
X71780523Y-69870884D01*
X71674289Y-69949288D01*
X71674288Y-69949289D01*
X71595884Y-70055523D01*
X71595883Y-70055524D01*
X71574563Y-70116455D01*
X71533841Y-70173231D01*
X71468888Y-70198978D01*
X71457522Y-70199500D01*
X71242478Y-70199500D01*
X71175439Y-70179815D01*
X71129684Y-70127011D01*
X71125437Y-70116455D01*
X71104116Y-70055524D01*
X71104115Y-70055523D01*
X71025711Y-69949289D01*
X71025710Y-69949288D01*
X70919476Y-69870884D01*
X70794848Y-69827274D01*
X70794849Y-69827274D01*
X70765260Y-69824500D01*
X70765256Y-69824500D01*
X70159744Y-69824500D01*
X70159740Y-69824500D01*
X70130150Y-69827274D01*
X70005523Y-69870884D01*
X69899289Y-69949288D01*
X69899288Y-69949289D01*
X69820884Y-70055523D01*
X69777274Y-70180150D01*
X69774500Y-70209739D01*
X69774500Y-70790260D01*
X69777274Y-70819849D01*
X69820884Y-70944476D01*
X69899288Y-71050710D01*
X69899289Y-71050711D01*
X69959400Y-71095075D01*
X70001651Y-71150722D01*
X70007110Y-71220378D01*
X69974043Y-71281928D01*
X69912949Y-71315829D01*
X69908552Y-71316734D01*
X69797678Y-71337460D01*
X69607584Y-71411102D01*
X69434260Y-71518421D01*
X69283608Y-71655757D01*
X69158554Y-71821357D01*
X69102445Y-71862993D01*
X69032733Y-71867684D01*
X68971551Y-71833942D01*
X68938324Y-71772479D01*
X68935600Y-71746630D01*
X68935600Y-71501000D01*
X68821781Y-71387181D01*
X68788296Y-71325858D01*
X68793280Y-71256166D01*
X68835152Y-71200233D01*
X68900616Y-71175816D01*
X68909462Y-71175500D01*
X68940260Y-71175500D01*
X68969849Y-71172725D01*
X68978302Y-71169767D01*
X69094475Y-71129116D01*
X69200711Y-71050711D01*
X69279116Y-70944475D01*
X69322725Y-70819849D01*
X69323648Y-70810003D01*
X69325500Y-70790260D01*
X69325500Y-70209739D01*
X69322725Y-70180150D01*
X69294854Y-70100500D01*
X69279116Y-70055525D01*
X69251641Y-70018298D01*
X69200711Y-69949289D01*
X69200710Y-69949288D01*
X69094476Y-69870884D01*
X68969848Y-69827274D01*
X68969849Y-69827274D01*
X68940260Y-69824500D01*
X68940256Y-69824500D01*
X68334744Y-69824500D01*
X68334740Y-69824500D01*
X68305151Y-69827274D01*
X68228382Y-69854137D01*
X68158603Y-69857698D01*
X68099747Y-69824776D01*
X67539395Y-69264424D01*
X67505910Y-69203101D01*
X67504339Y-69159094D01*
X67505647Y-69150000D01*
X67485165Y-69007543D01*
X67425377Y-68876627D01*
X67331128Y-68767857D01*
X67331125Y-68767855D01*
X67331126Y-68767855D01*
X67330061Y-68767171D01*
X67329231Y-68766214D01*
X67324423Y-68762047D01*
X67325022Y-68761355D01*
X67284307Y-68714366D01*
X67274366Y-68645207D01*
X67284309Y-68611345D01*
X67337965Y-68493857D01*
X67358447Y-68351400D01*
X67337965Y-68208943D01*
X67278177Y-68078027D01*
X67278175Y-68078025D01*
X67278174Y-68078022D01*
X67183931Y-67969259D01*
X67181749Y-67967857D01*
X67173241Y-67962389D01*
X67138359Y-67939971D01*
X67092605Y-67887166D01*
X67081400Y-67835656D01*
X67081400Y-67793725D01*
X67101085Y-67726686D01*
X67153889Y-67680931D01*
X67223047Y-67670987D01*
X67240335Y-67674748D01*
X67328038Y-67700500D01*
X67328039Y-67700500D01*
X67471962Y-67700500D01*
X67471962Y-67700499D01*
X67610053Y-67659953D01*
X67731128Y-67582143D01*
X67825377Y-67473373D01*
X67885165Y-67342457D01*
X67905647Y-67200000D01*
X67904339Y-67190905D01*
X67914279Y-67121749D01*
X67939392Y-67085577D01*
X68020049Y-67004920D01*
X68081370Y-66971437D01*
X68151062Y-66976421D01*
X68181360Y-66992832D01*
X68230523Y-67029115D01*
X68230524Y-67029115D01*
X68230525Y-67029116D01*
X68355151Y-67072725D01*
X68355150Y-67072725D01*
X68384740Y-67075500D01*
X68384744Y-67075500D01*
X68990260Y-67075500D01*
X69013930Y-67073280D01*
X69019849Y-67072725D01*
X69059544Y-67058835D01*
X69129323Y-67055272D01*
X69189950Y-67090000D01*
X69222178Y-67151993D01*
X69224500Y-67175876D01*
X69224500Y-67178648D01*
X69204815Y-67245687D01*
X69152011Y-67291442D01*
X69141463Y-67295686D01*
X69139393Y-67296410D01*
X69137117Y-67297207D01*
X69027850Y-67377850D01*
X68947207Y-67487117D01*
X68947206Y-67487119D01*
X68902353Y-67615298D01*
X68902353Y-67615300D01*
X68899500Y-67645730D01*
X68899500Y-68254269D01*
X68902353Y-68284699D01*
X68902353Y-68284701D01*
X68947206Y-68412880D01*
X68947207Y-68412882D01*
X69027850Y-68522150D01*
X69137118Y-68602793D01*
X69169252Y-68614037D01*
X69265299Y-68647646D01*
X69295730Y-68650500D01*
X69295734Y-68650500D01*
X69904270Y-68650500D01*
X69934699Y-68647646D01*
X69934701Y-68647646D01*
X69999824Y-68624858D01*
X70062882Y-68602793D01*
X70172150Y-68522150D01*
X70252793Y-68412882D01*
X70277990Y-68340874D01*
X70297646Y-68284701D01*
X70297646Y-68284699D01*
X70300500Y-68254269D01*
X70300500Y-67645730D01*
X70297646Y-67615300D01*
X70297646Y-67615298D01*
X70252793Y-67487119D01*
X70252792Y-67487117D01*
X70246151Y-67478119D01*
X70172150Y-67377850D01*
X70062882Y-67297207D01*
X70058542Y-67295688D01*
X70001768Y-67254966D01*
X69976022Y-67190013D01*
X69975500Y-67178648D01*
X69975500Y-67175876D01*
X69995185Y-67108837D01*
X70047989Y-67063082D01*
X70117147Y-67053138D01*
X70140456Y-67058835D01*
X70180151Y-67072725D01*
X70180150Y-67072725D01*
X70209740Y-67075500D01*
X70209744Y-67075500D01*
X70815260Y-67075500D01*
X70844849Y-67072725D01*
X70969475Y-67029116D01*
X71075711Y-66950711D01*
X71154116Y-66844475D01*
X71197725Y-66719849D01*
X71199339Y-66702637D01*
X71200500Y-66690260D01*
X71200500Y-66188333D01*
X71220185Y-66121294D01*
X71236819Y-66100652D01*
X71381948Y-65955523D01*
X71540460Y-65797011D01*
X71549044Y-65782143D01*
X71580021Y-65728489D01*
X71600500Y-65652062D01*
X71600500Y-65652059D01*
X71600988Y-65648355D01*
X71602268Y-65645460D01*
X71602603Y-65644212D01*
X71602797Y-65644264D01*
X71629255Y-65584458D01*
X71687580Y-65545988D01*
X71757445Y-65545157D01*
X71764886Y-65547501D01*
X71765043Y-65547556D01*
X71765301Y-65547646D01*
X71771387Y-65548216D01*
X71795730Y-65550500D01*
X71795734Y-65550500D01*
X72404270Y-65550500D01*
X72434699Y-65547646D01*
X72434701Y-65547646D01*
X72536401Y-65512059D01*
X72555434Y-65505398D01*
X72625212Y-65501836D01*
X72685840Y-65536565D01*
X72690102Y-65541237D01*
X72713983Y-65568797D01*
X72743008Y-65632353D01*
X72733064Y-65701511D01*
X72713983Y-65731202D01*
X72674625Y-65776622D01*
X72674622Y-65776628D01*
X72614834Y-65907543D01*
X72594353Y-66050000D01*
X72614834Y-66192456D01*
X72674622Y-66323371D01*
X72674623Y-66323373D01*
X72768872Y-66432143D01*
X72889947Y-66509953D01*
X72889950Y-66509954D01*
X72889949Y-66509954D01*
X72997107Y-66541417D01*
X73026336Y-66550000D01*
X73028036Y-66550499D01*
X73028038Y-66550500D01*
X73028039Y-66550500D01*
X73171962Y-66550500D01*
X73171962Y-66550499D01*
X73310053Y-66509953D01*
X73431128Y-66432143D01*
X73525377Y-66323373D01*
X73585165Y-66192457D01*
X73605647Y-66050000D01*
X73585165Y-65907543D01*
X73525377Y-65776627D01*
X73507245Y-65755702D01*
X73478221Y-65692147D01*
X73488165Y-65622989D01*
X73533919Y-65570185D01*
X73600959Y-65550500D01*
X73711667Y-65550500D01*
X73778706Y-65570185D01*
X73799348Y-65586819D01*
X74597040Y-66384511D01*
X74652989Y-66440460D01*
X74652991Y-66440461D01*
X74652995Y-66440464D01*
X74709993Y-66473371D01*
X74721511Y-66480021D01*
X74731949Y-66482817D01*
X74791608Y-66519180D01*
X74816897Y-66561637D01*
X74845884Y-66644475D01*
X74845884Y-66644476D01*
X74924288Y-66750710D01*
X74924289Y-66750711D01*
X75030523Y-66829115D01*
X75030524Y-66829115D01*
X75030525Y-66829116D01*
X75155151Y-66872725D01*
X75155150Y-66872725D01*
X75184740Y-66875500D01*
X75184744Y-66875500D01*
X75790257Y-66875500D01*
X75795588Y-66875000D01*
X75819849Y-66872725D01*
X75819850Y-66872724D01*
X75826721Y-66872080D01*
X75895305Y-66885418D01*
X75945791Y-66933719D01*
X75962149Y-67001646D01*
X75939186Y-67067635D01*
X75884193Y-67110733D01*
X75879259Y-67112578D01*
X75855524Y-67120884D01*
X75855523Y-67120884D01*
X75749289Y-67199288D01*
X75749288Y-67199289D01*
X75670884Y-67305523D01*
X75627274Y-67430150D01*
X75624500Y-67459739D01*
X75624500Y-68040260D01*
X75627274Y-68069849D01*
X75670884Y-68194476D01*
X75749288Y-68300710D01*
X75749289Y-68300711D01*
X75855523Y-68379115D01*
X75855522Y-68379115D01*
X75879256Y-68387420D01*
X75936031Y-68428142D01*
X75936466Y-68429240D01*
X75968024Y-68421699D01*
X75973278Y-68422080D01*
X75980149Y-68422724D01*
X75980151Y-68422725D01*
X76004021Y-68424963D01*
X76009743Y-68425500D01*
X76009744Y-68425500D01*
X76615260Y-68425500D01*
X76644849Y-68422725D01*
X76652108Y-68420185D01*
X76769475Y-68379116D01*
X76814370Y-68345982D01*
X76879994Y-68322013D01*
X76948165Y-68337328D01*
X76997233Y-68387068D01*
X77012000Y-68445754D01*
X77012000Y-68528147D01*
X76992315Y-68595186D01*
X76939511Y-68640941D01*
X76928957Y-68645188D01*
X76855522Y-68670885D01*
X76749289Y-68749288D01*
X76749288Y-68749289D01*
X76670884Y-68855523D01*
X76627274Y-68980150D01*
X76624500Y-69009739D01*
X76624500Y-69590260D01*
X76627274Y-69619849D01*
X76670884Y-69744476D01*
X76749288Y-69850710D01*
X76749289Y-69850711D01*
X76855523Y-69929115D01*
X76855524Y-69929115D01*
X76855525Y-69929116D01*
X76980151Y-69972725D01*
X76980150Y-69972725D01*
X77009740Y-69975500D01*
X77009744Y-69975500D01*
X77615260Y-69975500D01*
X77644849Y-69972725D01*
X77675639Y-69961951D01*
X77769475Y-69929116D01*
X77875711Y-69850711D01*
X77954116Y-69744475D01*
X77997725Y-69619849D01*
X78000500Y-69590256D01*
X78000500Y-69009744D01*
X77999989Y-69004299D01*
X77997725Y-68980150D01*
X77986420Y-68947845D01*
X77954116Y-68855525D01*
X77910851Y-68796902D01*
X77886881Y-68731276D01*
X77902196Y-68663106D01*
X77951936Y-68614037D01*
X78020309Y-68599650D01*
X78027972Y-68600500D01*
X78028039Y-68600500D01*
X78171962Y-68600500D01*
X78171962Y-68600499D01*
X78279121Y-68569035D01*
X78310050Y-68559954D01*
X78310051Y-68559954D01*
X78314802Y-68556901D01*
X78431128Y-68482143D01*
X78431129Y-68482141D01*
X78432960Y-68480965D01*
X78500000Y-68461280D01*
X78567039Y-68480964D01*
X78567041Y-68480966D01*
X78611251Y-68509379D01*
X78657005Y-68562183D01*
X78666948Y-68631342D01*
X78657005Y-68665204D01*
X78614834Y-68757545D01*
X78594353Y-68900000D01*
X78614834Y-69042456D01*
X78664869Y-69152015D01*
X78674623Y-69173373D01*
X78768872Y-69282143D01*
X78889947Y-69359953D01*
X78889950Y-69359954D01*
X78889949Y-69359954D01*
X78973833Y-69384584D01*
X79022341Y-69398827D01*
X79028036Y-69400499D01*
X79028038Y-69400500D01*
X79028039Y-69400500D01*
X79171962Y-69400500D01*
X79171962Y-69400499D01*
X79310050Y-69359954D01*
X79310051Y-69359954D01*
X79310053Y-69359953D01*
X79431128Y-69282143D01*
X79431129Y-69282141D01*
X79432960Y-69280965D01*
X79500000Y-69261280D01*
X79567039Y-69280964D01*
X79567040Y-69280965D01*
X79568870Y-69282141D01*
X79568872Y-69282143D01*
X79631999Y-69322712D01*
X79689948Y-69359954D01*
X79773833Y-69384584D01*
X79822341Y-69398827D01*
X79828036Y-69400499D01*
X79828038Y-69400500D01*
X79828039Y-69400500D01*
X79971962Y-69400500D01*
X79971962Y-69400499D01*
X80110053Y-69359953D01*
X80231128Y-69282143D01*
X80325377Y-69173373D01*
X80385165Y-69042457D01*
X80385165Y-69042455D01*
X80387206Y-69037987D01*
X80432961Y-68985183D01*
X80500000Y-68965499D01*
X80567040Y-68985184D01*
X80612794Y-69037987D01*
X80614834Y-69042455D01*
X80614835Y-69042457D01*
X80674623Y-69173373D01*
X80740533Y-69249438D01*
X80742640Y-69251869D01*
X80771665Y-69315425D01*
X80761721Y-69384584D01*
X80715966Y-69437388D01*
X80689883Y-69450113D01*
X80630523Y-69470884D01*
X80524289Y-69549288D01*
X80524288Y-69549289D01*
X80445884Y-69655523D01*
X80402274Y-69780150D01*
X80399500Y-69809739D01*
X80399500Y-70390260D01*
X80402274Y-70419849D01*
X80445884Y-70544476D01*
X80524288Y-70650710D01*
X80524289Y-70650711D01*
X80630523Y-70729115D01*
X80630524Y-70729115D01*
X80630525Y-70729116D01*
X80755151Y-70772725D01*
X80755150Y-70772725D01*
X80784740Y-70775500D01*
X80784744Y-70775500D01*
X81390260Y-70775500D01*
X81419849Y-70772725D01*
X81424899Y-70770958D01*
X81544475Y-70729116D01*
X81650711Y-70650711D01*
X81729116Y-70544475D01*
X81772725Y-70419849D01*
X81775500Y-70390260D01*
X81775500Y-69809739D01*
X81772725Y-69780150D01*
X81737010Y-69678084D01*
X81729116Y-69655525D01*
X81725407Y-69650500D01*
X81680208Y-69589256D01*
X81656237Y-69523627D01*
X81671553Y-69455457D01*
X81721293Y-69406389D01*
X81789665Y-69392002D01*
X81814913Y-69396646D01*
X81828038Y-69400500D01*
X81828039Y-69400500D01*
X81971962Y-69400500D01*
X81971962Y-69400499D01*
X82110050Y-69359954D01*
X82110051Y-69359954D01*
X82110053Y-69359953D01*
X82231128Y-69282143D01*
X82231129Y-69282141D01*
X82232960Y-69280965D01*
X82300000Y-69261280D01*
X82367039Y-69280964D01*
X82367041Y-69280965D01*
X82368869Y-69282140D01*
X82368872Y-69282143D01*
X82400555Y-69302504D01*
X82446308Y-69355308D01*
X82456251Y-69424466D01*
X82427225Y-69488022D01*
X82407147Y-69506588D01*
X82349287Y-69549290D01*
X82270884Y-69655523D01*
X82227274Y-69780150D01*
X82224500Y-69809739D01*
X82224500Y-70390260D01*
X82227274Y-70419849D01*
X82270884Y-70544476D01*
X82349288Y-70650710D01*
X82349289Y-70650711D01*
X82455523Y-70729115D01*
X82455524Y-70729115D01*
X82455525Y-70729116D01*
X82580151Y-70772725D01*
X82580150Y-70772725D01*
X82609740Y-70775500D01*
X82609744Y-70775500D01*
X83215260Y-70775500D01*
X83244849Y-70772725D01*
X83249899Y-70770958D01*
X83369475Y-70729116D01*
X83475711Y-70650711D01*
X83554116Y-70544475D01*
X83597725Y-70419849D01*
X83600500Y-70390260D01*
X83600500Y-70124361D01*
X83620185Y-70057322D01*
X83636815Y-70036684D01*
X83887819Y-69785679D01*
X83949142Y-69752195D01*
X84018834Y-69757179D01*
X84074767Y-69799051D01*
X84099184Y-69864515D01*
X84099500Y-69873361D01*
X84099500Y-70190260D01*
X84102274Y-70219849D01*
X84145884Y-70344476D01*
X84224288Y-70450710D01*
X84224289Y-70450711D01*
X84330523Y-70529115D01*
X84330524Y-70529115D01*
X84330525Y-70529116D01*
X84455151Y-70572725D01*
X84455150Y-70572725D01*
X84484740Y-70575500D01*
X84484744Y-70575500D01*
X85090260Y-70575500D01*
X85119849Y-70572725D01*
X85128302Y-70569767D01*
X85244475Y-70529116D01*
X85350711Y-70450711D01*
X85429116Y-70344475D01*
X85472725Y-70219849D01*
X85475500Y-70190256D01*
X85475500Y-70184146D01*
X85875000Y-70184146D01*
X85881241Y-70242187D01*
X85930232Y-70373537D01*
X86014241Y-70485758D01*
X86126462Y-70569767D01*
X86257812Y-70618758D01*
X86315853Y-70624999D01*
X86315870Y-70625000D01*
X86362500Y-70625000D01*
X86862500Y-70625000D01*
X86909130Y-70625000D01*
X86909146Y-70624999D01*
X86967187Y-70618758D01*
X87040681Y-70591346D01*
X88010900Y-70591346D01*
X88017141Y-70649387D01*
X88066132Y-70780737D01*
X88150141Y-70892958D01*
X88262362Y-70976967D01*
X88393712Y-71025958D01*
X88451753Y-71032199D01*
X88451770Y-71032200D01*
X88548400Y-71032200D01*
X88548400Y-70557200D01*
X88010900Y-70557200D01*
X88010900Y-70591346D01*
X87040681Y-70591346D01*
X87098537Y-70569767D01*
X87210758Y-70485758D01*
X87294767Y-70373537D01*
X87343758Y-70242187D01*
X87349999Y-70184146D01*
X87350000Y-70184129D01*
X87350000Y-70150000D01*
X86862500Y-70150000D01*
X86862500Y-70625000D01*
X86362500Y-70625000D01*
X86362500Y-70150000D01*
X85875000Y-70150000D01*
X85875000Y-70184146D01*
X85475500Y-70184146D01*
X85475500Y-70023053D01*
X88010900Y-70023053D01*
X88010900Y-70057200D01*
X88548400Y-70057200D01*
X88548400Y-69582200D01*
X88451753Y-69582200D01*
X88393712Y-69588441D01*
X88262362Y-69637432D01*
X88150141Y-69721441D01*
X88066132Y-69833662D01*
X88017141Y-69965012D01*
X88010900Y-70023053D01*
X85475500Y-70023053D01*
X85475500Y-69615853D01*
X85875000Y-69615853D01*
X85875000Y-69650000D01*
X86362500Y-69650000D01*
X86862500Y-69650000D01*
X87350000Y-69650000D01*
X87350000Y-69615870D01*
X87349999Y-69615853D01*
X87343758Y-69557812D01*
X87294767Y-69426462D01*
X87210758Y-69314241D01*
X87098537Y-69230232D01*
X86967187Y-69181241D01*
X86909146Y-69175000D01*
X86862500Y-69175000D01*
X86862500Y-69650000D01*
X86362500Y-69650000D01*
X86362500Y-69175000D01*
X86315853Y-69175000D01*
X86257812Y-69181241D01*
X86126462Y-69230232D01*
X86014241Y-69314241D01*
X85930232Y-69426462D01*
X85881241Y-69557812D01*
X85875000Y-69615853D01*
X85475500Y-69615853D01*
X85475500Y-69609744D01*
X85473502Y-69588441D01*
X85472725Y-69580150D01*
X85429115Y-69455523D01*
X85350711Y-69349289D01*
X85350710Y-69349288D01*
X85244477Y-69270885D01*
X85244475Y-69270884D01*
X85217029Y-69261280D01*
X85171043Y-69245188D01*
X85114268Y-69204465D01*
X85088522Y-69139512D01*
X85088000Y-69128147D01*
X85088000Y-69062757D01*
X85107685Y-68995718D01*
X85118285Y-68981556D01*
X85125377Y-68973373D01*
X85185165Y-68842457D01*
X85205647Y-68700000D01*
X85185165Y-68557543D01*
X85183903Y-68548765D01*
X85185720Y-68548503D01*
X85185722Y-68489562D01*
X85223498Y-68430785D01*
X85287055Y-68401762D01*
X85304698Y-68400500D01*
X87585352Y-68400500D01*
X87652391Y-68420185D01*
X87698146Y-68472989D01*
X87708090Y-68542147D01*
X87705166Y-68555587D01*
X87684403Y-68700000D01*
X87704884Y-68842456D01*
X87731164Y-68899999D01*
X87764673Y-68973373D01*
X87858922Y-69082143D01*
X87979997Y-69159953D01*
X87980000Y-69159954D01*
X87979999Y-69159954D01*
X88052498Y-69181241D01*
X88116386Y-69200000D01*
X88118086Y-69200499D01*
X88118088Y-69200500D01*
X88118089Y-69200500D01*
X88262012Y-69200500D01*
X88262012Y-69200499D01*
X88400103Y-69159953D01*
X88521178Y-69082143D01*
X88615427Y-68973373D01*
X88675215Y-68842457D01*
X88695697Y-68700000D01*
X88675215Y-68557543D01*
X88615427Y-68426627D01*
X88529502Y-68327464D01*
X88500479Y-68263911D01*
X88510423Y-68194753D01*
X88535530Y-68158589D01*
X88767903Y-67926216D01*
X88829225Y-67892734D01*
X88855583Y-67889900D01*
X89103813Y-67889900D01*
X89170852Y-67909585D01*
X89216607Y-67962389D01*
X89220854Y-67972945D01*
X89244409Y-68040260D01*
X89245884Y-68044475D01*
X89245886Y-68044478D01*
X89248929Y-68050235D01*
X89263300Y-68108179D01*
X89263300Y-68311891D01*
X89254462Y-68352521D01*
X89255533Y-68352836D01*
X89253034Y-68361342D01*
X89232553Y-68503800D01*
X89253034Y-68646256D01*
X89308568Y-68767857D01*
X89312823Y-68777173D01*
X89407072Y-68885943D01*
X89528147Y-68963753D01*
X89528150Y-68963754D01*
X89528149Y-68963754D01*
X89601135Y-68985184D01*
X89663480Y-69003490D01*
X89666236Y-69004299D01*
X89666238Y-69004300D01*
X89762367Y-69004300D01*
X89829406Y-69023985D01*
X89850048Y-69040619D01*
X90186581Y-69377152D01*
X90220066Y-69438475D01*
X90222900Y-69464833D01*
X90222900Y-69517851D01*
X90203215Y-69584890D01*
X90150411Y-69630645D01*
X90139856Y-69634892D01*
X90016423Y-69678084D01*
X89910189Y-69756488D01*
X89910188Y-69756489D01*
X89831784Y-69862723D01*
X89804596Y-69940421D01*
X89763874Y-69997197D01*
X89698921Y-70022943D01*
X89630359Y-70009486D01*
X89579957Y-69961098D01*
X89571373Y-69942799D01*
X89530667Y-69833662D01*
X89446658Y-69721441D01*
X89334437Y-69637432D01*
X89203087Y-69588441D01*
X89145046Y-69582200D01*
X89048400Y-69582200D01*
X89048400Y-71032200D01*
X89145030Y-71032200D01*
X89145046Y-71032199D01*
X89203087Y-71025958D01*
X89334437Y-70976967D01*
X89446658Y-70892958D01*
X89530667Y-70780736D01*
X89530667Y-70780735D01*
X89571373Y-70671601D01*
X89613245Y-70615667D01*
X89678709Y-70591250D01*
X89746982Y-70606102D01*
X89796387Y-70655507D01*
X89804596Y-70673978D01*
X89831784Y-70751676D01*
X89910188Y-70857910D01*
X89910189Y-70857911D01*
X90016423Y-70936315D01*
X90016424Y-70936315D01*
X90016425Y-70936316D01*
X90141051Y-70979925D01*
X90141050Y-70979925D01*
X90170640Y-70982700D01*
X90170644Y-70982700D01*
X90876160Y-70982700D01*
X90905749Y-70979925D01*
X90914202Y-70976967D01*
X91030375Y-70936316D01*
X91136611Y-70857911D01*
X91215016Y-70751675D01*
X91258625Y-70627049D01*
X91259230Y-70620599D01*
X91261400Y-70597460D01*
X91261400Y-70045532D01*
X91281085Y-69978493D01*
X91297714Y-69957856D01*
X91411953Y-69843617D01*
X91473275Y-69810134D01*
X91499633Y-69807300D01*
X92337146Y-69807300D01*
X92404185Y-69826985D01*
X92449940Y-69879789D01*
X92459884Y-69948947D01*
X92458290Y-69957759D01*
X92457374Y-69961950D01*
X92454600Y-69991539D01*
X92454600Y-70572060D01*
X92457374Y-70601649D01*
X92500984Y-70726276D01*
X92579388Y-70832510D01*
X92579389Y-70832511D01*
X92685623Y-70910915D01*
X92685624Y-70910915D01*
X92685625Y-70910916D01*
X92810251Y-70954525D01*
X92810250Y-70954525D01*
X92839840Y-70957300D01*
X92839844Y-70957300D01*
X93391767Y-70957300D01*
X93458806Y-70976985D01*
X93479448Y-70993619D01*
X94073181Y-71587352D01*
X94106666Y-71648675D01*
X94109500Y-71675033D01*
X94109500Y-71725090D01*
X94089815Y-71792129D01*
X94037011Y-71837884D01*
X93967853Y-71847828D01*
X93904297Y-71818803D01*
X93889646Y-71803754D01*
X93766410Y-71653589D01*
X93610176Y-71525373D01*
X93606450Y-71522315D01*
X93423954Y-71424768D01*
X93225934Y-71364700D01*
X93225932Y-71364699D01*
X93225934Y-71364699D01*
X93020000Y-71344417D01*
X92814067Y-71364699D01*
X92616043Y-71424769D01*
X92528114Y-71471769D01*
X92433550Y-71522315D01*
X92433548Y-71522316D01*
X92433547Y-71522317D01*
X92273589Y-71653589D01*
X92150354Y-71803754D01*
X92142315Y-71813550D01*
X92138142Y-71821357D01*
X92044769Y-71996043D01*
X91984699Y-72194067D01*
X91964417Y-72400000D01*
X91984699Y-72605932D01*
X91984700Y-72605934D01*
X92044768Y-72803954D01*
X92142315Y-72986450D01*
X92142317Y-72986452D01*
X92273589Y-73146410D01*
X92340406Y-73201244D01*
X92433550Y-73277685D01*
X92616046Y-73375232D01*
X92814066Y-73435300D01*
X92814065Y-73435300D01*
X92832529Y-73437118D01*
X93020000Y-73455583D01*
X93225934Y-73435300D01*
X93423954Y-73375232D01*
X93606450Y-73277685D01*
X93766410Y-73146410D01*
X93889647Y-72996244D01*
X93947392Y-72956910D01*
X94017236Y-72955039D01*
X94077005Y-72991226D01*
X94107721Y-73053982D01*
X94109500Y-73074909D01*
X94109500Y-73829562D01*
X94115587Y-73852279D01*
X94129979Y-73905990D01*
X94139794Y-73922989D01*
X94163914Y-73964766D01*
X94163914Y-73964768D01*
X94169537Y-73974507D01*
X94169541Y-73974512D01*
X94570701Y-74375672D01*
X94604186Y-74436995D01*
X94599202Y-74506687D01*
X94592381Y-74521800D01*
X94584770Y-74536039D01*
X94524699Y-74734067D01*
X94504417Y-74940000D01*
X94524699Y-75145932D01*
X94524700Y-75145934D01*
X94584768Y-75343954D01*
X94682315Y-75526450D01*
X94682317Y-75526452D01*
X94813589Y-75686410D01*
X94910209Y-75765702D01*
X94973550Y-75817685D01*
X95156046Y-75915232D01*
X95354066Y-75975300D01*
X95354065Y-75975300D01*
X95372529Y-75977118D01*
X95560000Y-75995583D01*
X95765934Y-75975300D01*
X95963954Y-75915232D01*
X96146450Y-75817685D01*
X96306410Y-75686410D01*
X96437685Y-75526450D01*
X96535232Y-75343954D01*
X96595300Y-75145934D01*
X96615583Y-74940000D01*
X96595300Y-74734066D01*
X96535232Y-74536046D01*
X96527620Y-74521806D01*
X96513379Y-74453404D01*
X96538379Y-74388160D01*
X96549298Y-74375672D01*
X97038152Y-73886819D01*
X97099475Y-73853334D01*
X97125833Y-73850500D01*
X97425090Y-73850500D01*
X97492129Y-73870185D01*
X97537884Y-73922989D01*
X97547828Y-73992147D01*
X97518803Y-74055703D01*
X97503754Y-74070354D01*
X97353589Y-74193589D01*
X97222317Y-74353547D01*
X97222315Y-74353550D01*
X97195887Y-74402993D01*
X97124769Y-74536043D01*
X97064699Y-74734067D01*
X97044417Y-74940000D01*
X97064699Y-75145932D01*
X97064700Y-75145934D01*
X97124768Y-75343954D01*
X97222315Y-75526450D01*
X97222317Y-75526452D01*
X97353589Y-75686410D01*
X97450209Y-75765702D01*
X97513550Y-75817685D01*
X97696046Y-75915232D01*
X97894066Y-75975300D01*
X97894065Y-75975300D01*
X97912529Y-75977118D01*
X98100000Y-75995583D01*
X98305934Y-75975300D01*
X98503954Y-75915232D01*
X98686450Y-75817685D01*
X98846410Y-75686410D01*
X98977685Y-75526450D01*
X99075232Y-75343954D01*
X99135300Y-75145934D01*
X99155583Y-74940000D01*
X99135300Y-74734066D01*
X99075232Y-74536046D01*
X98977685Y-74353550D01*
X98922766Y-74286630D01*
X98846410Y-74193589D01*
X98696246Y-74070354D01*
X98656911Y-74012608D01*
X98655040Y-73942763D01*
X98691227Y-73882995D01*
X98753983Y-73852279D01*
X98774910Y-73850500D01*
X99289560Y-73850500D01*
X99289562Y-73850500D01*
X99365989Y-73830021D01*
X99434511Y-73790460D01*
X99490460Y-73734511D01*
X99530021Y-73665989D01*
X99550500Y-73589562D01*
X99550500Y-68843438D01*
X99530021Y-68767011D01*
X99517874Y-68745971D01*
X99490464Y-68698495D01*
X99490458Y-68698487D01*
X97701395Y-66909424D01*
X97667910Y-66848101D01*
X97666339Y-66804094D01*
X97667647Y-66795000D01*
X97647165Y-66652543D01*
X97587377Y-66521627D01*
X97493128Y-66412857D01*
X97372053Y-66335047D01*
X97372051Y-66335046D01*
X97372049Y-66335045D01*
X97372050Y-66335045D01*
X97233963Y-66294500D01*
X97233961Y-66294500D01*
X97090039Y-66294500D01*
X97090036Y-66294500D01*
X96951949Y-66335045D01*
X96830873Y-66412856D01*
X96736623Y-66521626D01*
X96736622Y-66521628D01*
X96676834Y-66652543D01*
X96656353Y-66795000D01*
X96676834Y-66937456D01*
X96728004Y-67049500D01*
X96736623Y-67068373D01*
X96830872Y-67177143D01*
X96951947Y-67254953D01*
X96951950Y-67254954D01*
X96951949Y-67254954D01*
X97052116Y-67284365D01*
X97087280Y-67294690D01*
X97090036Y-67295499D01*
X97090038Y-67295500D01*
X97186167Y-67295500D01*
X97253206Y-67315185D01*
X97273848Y-67331819D01*
X98384681Y-68442652D01*
X98418166Y-68503975D01*
X98421000Y-68530333D01*
X98421000Y-70620600D01*
X98575626Y-70620600D01*
X98575628Y-70620599D01*
X98648540Y-70606096D01*
X98648544Y-70606094D01*
X98731240Y-70550839D01*
X98737819Y-70544261D01*
X98799142Y-70510776D01*
X98868834Y-70515760D01*
X98924767Y-70557632D01*
X98949184Y-70623096D01*
X98949500Y-70631942D01*
X98949500Y-71225500D01*
X98929815Y-71292539D01*
X98877011Y-71338294D01*
X98825500Y-71349500D01*
X97525833Y-71349500D01*
X97458794Y-71329815D01*
X97438152Y-71313181D01*
X96957252Y-70832281D01*
X96923767Y-70770958D01*
X96928751Y-70701266D01*
X96970623Y-70645333D01*
X97036087Y-70620916D01*
X97044933Y-70620600D01*
X97305626Y-70620600D01*
X97305628Y-70620599D01*
X97378540Y-70606096D01*
X97378544Y-70606094D01*
X97467109Y-70546918D01*
X97533787Y-70526040D01*
X97601167Y-70544525D01*
X97604891Y-70546918D01*
X97693455Y-70606094D01*
X97693459Y-70606096D01*
X97766371Y-70620599D01*
X97766374Y-70620600D01*
X97921000Y-70620600D01*
X97921000Y-69820600D01*
X97025000Y-69820600D01*
X96957961Y-69800915D01*
X96912206Y-69748111D01*
X96901000Y-69696600D01*
X96901000Y-69570600D01*
X96775000Y-69570600D01*
X96707961Y-69550915D01*
X96662206Y-69498111D01*
X96651000Y-69446600D01*
X96651000Y-69320600D01*
X97151000Y-69320600D01*
X97921000Y-69320600D01*
X97921000Y-68520600D01*
X97766373Y-68520600D01*
X97693459Y-68535103D01*
X97693456Y-68535104D01*
X97604890Y-68594282D01*
X97538212Y-68615159D01*
X97470832Y-68596674D01*
X97467110Y-68594282D01*
X97378543Y-68535104D01*
X97378540Y-68535103D01*
X97305627Y-68520600D01*
X97151000Y-68520600D01*
X97151000Y-69320600D01*
X96651000Y-69320600D01*
X96651000Y-68520600D01*
X96496373Y-68520600D01*
X96423459Y-68535103D01*
X96423455Y-68535105D01*
X96340760Y-68590360D01*
X96285505Y-68673055D01*
X96285503Y-68673059D01*
X96271000Y-68745971D01*
X96271000Y-69083348D01*
X96251315Y-69150387D01*
X96198511Y-69196142D01*
X96129353Y-69206086D01*
X96112066Y-69202325D01*
X96007764Y-69171700D01*
X96007761Y-69171700D01*
X95909686Y-69171700D01*
X95842647Y-69152015D01*
X95796892Y-69099211D01*
X95786948Y-69030053D01*
X95805647Y-68900000D01*
X95785165Y-68757543D01*
X95725377Y-68626627D01*
X95725375Y-68626625D01*
X95725374Y-68626622D01*
X95686017Y-68581203D01*
X95656991Y-68517648D01*
X95666934Y-68448489D01*
X95686017Y-68418797D01*
X95688572Y-68415849D01*
X95703115Y-68399065D01*
X95725374Y-68373377D01*
X95725374Y-68373375D01*
X95725377Y-68373373D01*
X95785165Y-68242457D01*
X95805647Y-68100000D01*
X95785165Y-67957543D01*
X95725377Y-67826627D01*
X95631128Y-67717857D01*
X95510053Y-67640047D01*
X95510051Y-67640046D01*
X95510049Y-67640045D01*
X95510050Y-67640045D01*
X95371963Y-67599500D01*
X95371961Y-67599500D01*
X95228039Y-67599500D01*
X95228036Y-67599500D01*
X95089949Y-67640045D01*
X94968873Y-67717856D01*
X94874623Y-67826626D01*
X94874622Y-67826628D01*
X94814834Y-67957543D01*
X94794353Y-68100000D01*
X94814834Y-68242456D01*
X94874622Y-68373371D01*
X94874625Y-68373377D01*
X94913983Y-68418798D01*
X94943008Y-68482353D01*
X94933064Y-68551512D01*
X94913983Y-68581202D01*
X94874625Y-68626622D01*
X94874622Y-68626628D01*
X94814834Y-68757543D01*
X94794353Y-68900000D01*
X94814834Y-69042455D01*
X94816276Y-69047364D01*
X94816276Y-69117234D01*
X94778503Y-69176012D01*
X94714947Y-69205038D01*
X94697299Y-69206300D01*
X91284238Y-69206300D01*
X91207810Y-69226778D01*
X91139289Y-69266340D01*
X91139286Y-69266342D01*
X91035581Y-69370048D01*
X90974258Y-69403533D01*
X90904566Y-69398549D01*
X90848633Y-69356677D01*
X90824216Y-69291213D01*
X90823900Y-69282367D01*
X90823900Y-69249439D01*
X90822761Y-69245188D01*
X90803421Y-69173011D01*
X90790135Y-69149998D01*
X90763864Y-69104495D01*
X90763858Y-69104487D01*
X90277595Y-68618224D01*
X90244110Y-68556901D01*
X90242539Y-68512894D01*
X90243847Y-68503800D01*
X90230365Y-68410030D01*
X90240309Y-68340874D01*
X90286064Y-68288070D01*
X90313278Y-68276796D01*
X90312726Y-68275218D01*
X90372601Y-68254266D01*
X90444475Y-68229116D01*
X90550711Y-68150711D01*
X90629116Y-68044475D01*
X90656303Y-67966777D01*
X90697024Y-67910003D01*
X90761977Y-67884256D01*
X90830538Y-67897712D01*
X90880941Y-67946099D01*
X90889525Y-67964400D01*
X90930229Y-68073531D01*
X90930232Y-68073536D01*
X91014241Y-68185758D01*
X91126462Y-68269767D01*
X91257812Y-68318758D01*
X91315853Y-68324999D01*
X91315870Y-68325000D01*
X91412500Y-68325000D01*
X91912500Y-68325000D01*
X92009130Y-68325000D01*
X92009146Y-68324999D01*
X92067187Y-68318758D01*
X92198537Y-68269767D01*
X92310758Y-68185758D01*
X92394767Y-68073537D01*
X92443758Y-67942187D01*
X92449999Y-67884146D01*
X92450000Y-67884129D01*
X92450000Y-67850000D01*
X91912500Y-67850000D01*
X91912500Y-68325000D01*
X91412500Y-68325000D01*
X91412500Y-67350000D01*
X91912500Y-67350000D01*
X92450000Y-67350000D01*
X92450000Y-67315870D01*
X92449999Y-67315853D01*
X92443758Y-67257812D01*
X92394767Y-67126462D01*
X92310758Y-67014241D01*
X92198537Y-66930232D01*
X92067187Y-66881241D01*
X92009146Y-66875000D01*
X91912500Y-66875000D01*
X91912500Y-67350000D01*
X91412500Y-67350000D01*
X91412500Y-66875000D01*
X91315853Y-66875000D01*
X91257812Y-66881241D01*
X91126462Y-66930232D01*
X91014241Y-67014241D01*
X90930232Y-67126463D01*
X90930231Y-67126466D01*
X90889525Y-67235600D01*
X90847653Y-67291533D01*
X90782189Y-67315949D01*
X90713916Y-67301097D01*
X90664511Y-67251691D01*
X90656303Y-67233220D01*
X90644906Y-67200650D01*
X90629116Y-67155525D01*
X90626509Y-67151993D01*
X90550711Y-67049289D01*
X90550710Y-67049288D01*
X90444476Y-66970884D01*
X90319848Y-66927274D01*
X90319849Y-66927274D01*
X90290260Y-66924500D01*
X90290256Y-66924500D01*
X89584744Y-66924500D01*
X89584740Y-66924500D01*
X89555150Y-66927274D01*
X89430523Y-66970884D01*
X89324290Y-67049287D01*
X89273770Y-67117740D01*
X89218122Y-67159991D01*
X89148466Y-67165449D01*
X89086917Y-67132381D01*
X89053016Y-67071287D01*
X89050735Y-67050735D01*
X89050000Y-67050000D01*
X88386500Y-67050000D01*
X88319461Y-67030315D01*
X88273706Y-66977511D01*
X88262500Y-66926000D01*
X88262500Y-66674000D01*
X88282185Y-66606961D01*
X88334989Y-66561206D01*
X88386500Y-66550000D01*
X89050000Y-66550000D01*
X89050000Y-66515870D01*
X89049999Y-66515853D01*
X89043758Y-66457812D01*
X89042626Y-66453021D01*
X89046363Y-66383252D01*
X89087227Y-66326578D01*
X89152244Y-66300994D01*
X89163301Y-66300500D01*
X94581160Y-66300500D01*
X94581162Y-66300500D01*
X94657589Y-66280021D01*
X94726111Y-66240460D01*
X94782060Y-66184511D01*
X97979152Y-62987419D01*
X98040475Y-62953934D01*
X98066833Y-62951100D01*
X98570750Y-62951100D01*
X98570751Y-62951099D01*
X98585568Y-62948152D01*
X98629229Y-62939468D01*
X98629229Y-62939467D01*
X98629231Y-62939467D01*
X98695552Y-62895152D01*
X98739867Y-62828831D01*
X98739867Y-62828829D01*
X98739868Y-62828829D01*
X98751499Y-62770352D01*
X98751500Y-62770350D01*
X98751500Y-61130849D01*
X98751499Y-61130847D01*
X98739868Y-61072370D01*
X98739867Y-61072369D01*
X98695552Y-61006047D01*
X98629230Y-60961732D01*
X98629229Y-60961731D01*
X98570752Y-60950100D01*
X98570748Y-60950100D01*
X97771252Y-60950100D01*
X97771247Y-60950100D01*
X97712770Y-60961731D01*
X97712769Y-60961732D01*
X97646446Y-61006048D01*
X97639101Y-61017042D01*
X97585489Y-61061846D01*
X97516164Y-61070553D01*
X97453136Y-61040398D01*
X97432899Y-61017042D01*
X97425553Y-61006048D01*
X97359230Y-60961732D01*
X97359229Y-60961731D01*
X97300752Y-60950100D01*
X97300748Y-60950100D01*
X96501252Y-60950100D01*
X96501247Y-60950100D01*
X96442770Y-60961731D01*
X96442769Y-60961732D01*
X96376447Y-61006047D01*
X96332132Y-61072369D01*
X96332131Y-61072370D01*
X96320500Y-61130847D01*
X96320500Y-62319353D01*
X96300815Y-62386392D01*
X96248011Y-62432147D01*
X96178853Y-62442091D01*
X96115297Y-62413066D01*
X96102787Y-62400556D01*
X96081307Y-62375767D01*
X96031128Y-62317857D01*
X95910053Y-62240047D01*
X95910051Y-62240046D01*
X95910049Y-62240045D01*
X95910050Y-62240045D01*
X95771963Y-62199500D01*
X95771961Y-62199500D01*
X95628039Y-62199500D01*
X95628036Y-62199500D01*
X95489949Y-62240045D01*
X95368873Y-62317856D01*
X95274623Y-62426626D01*
X95274622Y-62426628D01*
X95214834Y-62557543D01*
X95194353Y-62700000D01*
X95214834Y-62842456D01*
X95259138Y-62939467D01*
X95274623Y-62973373D01*
X95368872Y-63082143D01*
X95489947Y-63159953D01*
X95489950Y-63159954D01*
X95489949Y-63159954D01*
X95597107Y-63191417D01*
X95622116Y-63198761D01*
X95628036Y-63200499D01*
X95628038Y-63200500D01*
X95628039Y-63200500D01*
X95771962Y-63200500D01*
X95771962Y-63200499D01*
X95910053Y-63159953D01*
X96031128Y-63082143D01*
X96125377Y-62973373D01*
X96156164Y-62905959D01*
X96201916Y-62853159D01*
X96268955Y-62833474D01*
X96335995Y-62853158D01*
X96372057Y-62888582D01*
X96376446Y-62895151D01*
X96418271Y-62923098D01*
X96463076Y-62976711D01*
X96471783Y-63046036D01*
X96441628Y-63109063D01*
X96437061Y-63113881D01*
X94287762Y-65263181D01*
X94226439Y-65296666D01*
X94200081Y-65299500D01*
X90427261Y-65299500D01*
X90360222Y-65279815D01*
X90314467Y-65227011D01*
X90304523Y-65157853D01*
X90333548Y-65094297D01*
X90339580Y-65087819D01*
X91437399Y-63990000D01*
X92550460Y-62876939D01*
X92570368Y-62842457D01*
X92575555Y-62833474D01*
X92590018Y-62808422D01*
X92590019Y-62808421D01*
X92590019Y-62808419D01*
X92590021Y-62808417D01*
X92610500Y-62731990D01*
X92610500Y-60999333D01*
X92630185Y-60932294D01*
X92682989Y-60886539D01*
X92752147Y-60876595D01*
X92769431Y-60880355D01*
X92790492Y-60886539D01*
X92838038Y-60900500D01*
X92838039Y-60900500D01*
X92981962Y-60900500D01*
X92981962Y-60900499D01*
X93089121Y-60869035D01*
X93120050Y-60859954D01*
X93120050Y-60859953D01*
X93120053Y-60859953D01*
X93241128Y-60782143D01*
X93335377Y-60673373D01*
X93395165Y-60542457D01*
X93415647Y-60400000D01*
X93395165Y-60257543D01*
X93335377Y-60126627D01*
X93241128Y-60017857D01*
X93241125Y-60017855D01*
X93215056Y-60001101D01*
X93169301Y-59948297D01*
X93159358Y-59879138D01*
X93188384Y-59815583D01*
X93215054Y-59792472D01*
X93231128Y-59782143D01*
X93325377Y-59673373D01*
X93385165Y-59542457D01*
X93405647Y-59400000D01*
X93385165Y-59257543D01*
X93325377Y-59126627D01*
X93231128Y-59017857D01*
X93231125Y-59017855D01*
X93231125Y-59017854D01*
X93210058Y-59004316D01*
X93164302Y-58951513D01*
X93154358Y-58882354D01*
X93183382Y-58818798D01*
X93210058Y-58795684D01*
X93231125Y-58782145D01*
X93231125Y-58782144D01*
X93231128Y-58782143D01*
X93325377Y-58673373D01*
X93385165Y-58542457D01*
X93405647Y-58400000D01*
X93385165Y-58257543D01*
X93325377Y-58126627D01*
X93307245Y-58105702D01*
X93278221Y-58042147D01*
X93288165Y-57972989D01*
X93333919Y-57920185D01*
X93400959Y-57900500D01*
X95174167Y-57900500D01*
X95241206Y-57920185D01*
X95261848Y-57936819D01*
X96163181Y-58838152D01*
X96196666Y-58899475D01*
X96199500Y-58925833D01*
X96199500Y-59371950D01*
X96209779Y-59442506D01*
X96209779Y-59442507D01*
X96209780Y-59442509D01*
X96240069Y-59504466D01*
X96262989Y-59551349D01*
X96348651Y-59637011D01*
X96457488Y-59690219D01*
X96457489Y-59690219D01*
X96457491Y-59690220D01*
X96528051Y-59700500D01*
X96921948Y-59700499D01*
X96921950Y-59700499D01*
X96952694Y-59696020D01*
X98507529Y-59696020D01*
X98583442Y-59734701D01*
X98583445Y-59734702D01*
X98680034Y-59749999D01*
X99069969Y-59749999D01*
X99069969Y-59749998D01*
X99166552Y-59734702D01*
X99166560Y-59734700D01*
X99242470Y-59696020D01*
X98875000Y-59328551D01*
X98507529Y-59696020D01*
X96952694Y-59696020D01*
X96992509Y-59690220D01*
X97101347Y-59637012D01*
X97187012Y-59551347D01*
X97240220Y-59442509D01*
X97250500Y-59371949D01*
X97250500Y-59196447D01*
X98300000Y-59196447D01*
X98521447Y-58975001D01*
X98521447Y-58975000D01*
X98521445Y-58974998D01*
X99228552Y-58974998D01*
X99449999Y-59196446D01*
X99449999Y-58753552D01*
X99449998Y-58753551D01*
X99228552Y-58974998D01*
X98521445Y-58974998D01*
X98300000Y-58753553D01*
X98300000Y-59196447D01*
X97250500Y-59196447D01*
X97250499Y-58578052D01*
X97247862Y-58559953D01*
X97240220Y-58507493D01*
X97240220Y-58507491D01*
X97187012Y-58398653D01*
X97187010Y-58398651D01*
X97187010Y-58398650D01*
X97101350Y-58312990D01*
X97101347Y-58312988D01*
X97095037Y-58309903D01*
X97043456Y-58262774D01*
X97040998Y-58253977D01*
X98507528Y-58253977D01*
X98874999Y-58621448D01*
X99242469Y-58253978D01*
X99166554Y-58215297D01*
X99069965Y-58200000D01*
X98680030Y-58200000D01*
X98680030Y-58200001D01*
X98583443Y-58215298D01*
X98583439Y-58215299D01*
X98507528Y-58253977D01*
X97040998Y-58253977D01*
X97025500Y-58198504D01*
X97025500Y-55601496D01*
X97041790Y-55546020D01*
X98507529Y-55546020D01*
X98583442Y-55584701D01*
X98583445Y-55584702D01*
X98680034Y-55599999D01*
X99069969Y-55599999D01*
X99069969Y-55599998D01*
X99166552Y-55584702D01*
X99166560Y-55584700D01*
X99242470Y-55546020D01*
X98875000Y-55178551D01*
X98507529Y-55546020D01*
X97041790Y-55546020D01*
X97045185Y-55534457D01*
X97095039Y-55490095D01*
X97101347Y-55487012D01*
X97187012Y-55401347D01*
X97240220Y-55292509D01*
X97250500Y-55221949D01*
X97250500Y-55046447D01*
X98300000Y-55046447D01*
X98521447Y-54825001D01*
X98521447Y-54825000D01*
X98521445Y-54824998D01*
X99228552Y-54824998D01*
X99449999Y-55046446D01*
X99449999Y-54603552D01*
X99449998Y-54603551D01*
X99228552Y-54824998D01*
X98521445Y-54824998D01*
X98300000Y-54603553D01*
X98300000Y-55046447D01*
X97250500Y-55046447D01*
X97250499Y-54428052D01*
X97240220Y-54357491D01*
X97187012Y-54248653D01*
X97187010Y-54248651D01*
X97187010Y-54248650D01*
X97174319Y-54235959D01*
X97140834Y-54174636D01*
X97138000Y-54148278D01*
X97138000Y-54103977D01*
X98507528Y-54103977D01*
X98874999Y-54471448D01*
X99242469Y-54103978D01*
X99166554Y-54065297D01*
X99069965Y-54050000D01*
X98680030Y-54050000D01*
X98680030Y-54050001D01*
X98583443Y-54065298D01*
X98583439Y-54065299D01*
X98507528Y-54103977D01*
X97138000Y-54103977D01*
X97138000Y-53589348D01*
X97157685Y-53522309D01*
X97210489Y-53476554D01*
X97221045Y-53472307D01*
X97262356Y-53457850D01*
X97344475Y-53429116D01*
X97450711Y-53350711D01*
X97529116Y-53244475D01*
X97556303Y-53166777D01*
X97597024Y-53110003D01*
X97661977Y-53084256D01*
X97730538Y-53097712D01*
X97780941Y-53146099D01*
X97789525Y-53164400D01*
X97830229Y-53273531D01*
X97830232Y-53273536D01*
X97914241Y-53385758D01*
X98026462Y-53469767D01*
X98157812Y-53518758D01*
X98215853Y-53524999D01*
X98215870Y-53525000D01*
X98312500Y-53525000D01*
X98812500Y-53525000D01*
X98909130Y-53525000D01*
X98909146Y-53524999D01*
X98967187Y-53518758D01*
X99098537Y-53469767D01*
X99210758Y-53385758D01*
X99294767Y-53273537D01*
X99343758Y-53142187D01*
X99349999Y-53084146D01*
X99350000Y-53084129D01*
X99350000Y-53050000D01*
X98812500Y-53050000D01*
X98812500Y-53525000D01*
X98312500Y-53525000D01*
X98312500Y-52550000D01*
X98812500Y-52550000D01*
X99350000Y-52550000D01*
X99350000Y-52515870D01*
X99349999Y-52515853D01*
X99343758Y-52457812D01*
X99294767Y-52326462D01*
X99210758Y-52214241D01*
X99098537Y-52130232D01*
X98967187Y-52081241D01*
X98909146Y-52075000D01*
X98812500Y-52075000D01*
X98812500Y-52550000D01*
X98312500Y-52550000D01*
X98312500Y-52075000D01*
X98215853Y-52075000D01*
X98157812Y-52081241D01*
X98026462Y-52130232D01*
X97914241Y-52214241D01*
X97830232Y-52326463D01*
X97830231Y-52326466D01*
X97789525Y-52435600D01*
X97747653Y-52491533D01*
X97682189Y-52515949D01*
X97613916Y-52501097D01*
X97564511Y-52451691D01*
X97556303Y-52433220D01*
X97550927Y-52417856D01*
X97529116Y-52355525D01*
X97517691Y-52340045D01*
X97450711Y-52249289D01*
X97450710Y-52249288D01*
X97344476Y-52170884D01*
X97219848Y-52127274D01*
X97219849Y-52127274D01*
X97190260Y-52124500D01*
X97190256Y-52124500D01*
X96484744Y-52124500D01*
X96484740Y-52124500D01*
X96455150Y-52127274D01*
X96330523Y-52170884D01*
X96224289Y-52249288D01*
X96224288Y-52249289D01*
X96145884Y-52355523D01*
X96102274Y-52480150D01*
X96099500Y-52509739D01*
X96099500Y-53090260D01*
X96102274Y-53119849D01*
X96145884Y-53244476D01*
X96211934Y-53333971D01*
X96224289Y-53350711D01*
X96330525Y-53429116D01*
X96400107Y-53453464D01*
X96453955Y-53472307D01*
X96510731Y-53513029D01*
X96536478Y-53577982D01*
X96537000Y-53589348D01*
X96537000Y-53993743D01*
X96517315Y-54060782D01*
X96465995Y-54105250D01*
X96466143Y-54105551D01*
X96465009Y-54106105D01*
X96464511Y-54106537D01*
X96462765Y-54107202D01*
X96457491Y-54109779D01*
X96457491Y-54109780D01*
X96441788Y-54117457D01*
X96348650Y-54162989D01*
X96262988Y-54248651D01*
X96209780Y-54357488D01*
X96205925Y-54383951D01*
X96199500Y-54428051D01*
X96199500Y-54428055D01*
X96199500Y-54428056D01*
X96199500Y-55221950D01*
X96209779Y-55292506D01*
X96262989Y-55401349D01*
X96348650Y-55487010D01*
X96348651Y-55487010D01*
X96348653Y-55487012D01*
X96354960Y-55490095D01*
X96406542Y-55537223D01*
X96424500Y-55601496D01*
X96424500Y-57950167D01*
X96404815Y-58017206D01*
X96352011Y-58062961D01*
X96282853Y-58072905D01*
X96219297Y-58043880D01*
X96212819Y-58037848D01*
X95534514Y-57359543D01*
X95534511Y-57359540D01*
X95532860Y-57358587D01*
X95532850Y-57358581D01*
X95465992Y-57319980D01*
X95465993Y-57319980D01*
X95456960Y-57317559D01*
X95389562Y-57299500D01*
X95389560Y-57299500D01*
X93158501Y-57299500D01*
X93091462Y-57279815D01*
X93064788Y-57256703D01*
X93057513Y-57248307D01*
X93031128Y-57217857D01*
X92933781Y-57155296D01*
X92888027Y-57102493D01*
X92878083Y-57033334D01*
X92907108Y-56969779D01*
X92913125Y-56963315D01*
X94940460Y-54935982D01*
X94948294Y-54922412D01*
X94962911Y-54897096D01*
X94962911Y-54897095D01*
X94980021Y-54867460D01*
X95000500Y-54791033D01*
X95000500Y-53263738D01*
X95020185Y-53196699D01*
X95030787Y-53182535D01*
X95031124Y-53182144D01*
X95031128Y-53182143D01*
X95125377Y-53073373D01*
X95185165Y-52942457D01*
X95205647Y-52800000D01*
X95185165Y-52657543D01*
X95125377Y-52526627D01*
X95031128Y-52417857D01*
X94910053Y-52340047D01*
X94910051Y-52340046D01*
X94910049Y-52340045D01*
X94910050Y-52340045D01*
X94771963Y-52299500D01*
X94771961Y-52299500D01*
X94628039Y-52299500D01*
X94628036Y-52299500D01*
X94489949Y-52340045D01*
X94367039Y-52419035D01*
X94300000Y-52438719D01*
X94232961Y-52419035D01*
X94203653Y-52400200D01*
X94110053Y-52340047D01*
X94110051Y-52340046D01*
X94110049Y-52340045D01*
X94110050Y-52340045D01*
X93971963Y-52299500D01*
X93971961Y-52299500D01*
X93828039Y-52299500D01*
X93828036Y-52299500D01*
X93689949Y-52340045D01*
X93568873Y-52417856D01*
X93568872Y-52417856D01*
X93568872Y-52417857D01*
X93567851Y-52419035D01*
X93474623Y-52526626D01*
X93474622Y-52526628D01*
X93414834Y-52657543D01*
X93394353Y-52800000D01*
X93414834Y-52942456D01*
X93463949Y-53050000D01*
X93474623Y-53073373D01*
X93568872Y-53182143D01*
X93568875Y-53182144D01*
X93569213Y-53182535D01*
X93598238Y-53246091D01*
X93599500Y-53263738D01*
X93599500Y-54809952D01*
X93579815Y-54876991D01*
X93563181Y-54897633D01*
X91515488Y-56945326D01*
X91479827Y-56980986D01*
X91418503Y-57014471D01*
X91348812Y-57009485D01*
X91292879Y-56967613D01*
X91279353Y-56944816D01*
X91257581Y-56897143D01*
X91225377Y-56826627D01*
X91131128Y-56717857D01*
X91010053Y-56640047D01*
X91010051Y-56640046D01*
X91010049Y-56640045D01*
X91010050Y-56640045D01*
X90871963Y-56599500D01*
X90871961Y-56599500D01*
X90728039Y-56599500D01*
X90728036Y-56599500D01*
X90589949Y-56640045D01*
X90467039Y-56719035D01*
X90400000Y-56738719D01*
X90332961Y-56719035D01*
X90210051Y-56640045D01*
X90148786Y-56622057D01*
X90090008Y-56584283D01*
X90060983Y-56520727D01*
X90066681Y-56462122D01*
X90072725Y-56444849D01*
X90075500Y-56415260D01*
X90075500Y-55809739D01*
X90072725Y-55780150D01*
X90046412Y-55704953D01*
X90029116Y-55655525D01*
X90024126Y-55648764D01*
X89950711Y-55549289D01*
X89950710Y-55549288D01*
X89844476Y-55470884D01*
X89719848Y-55427274D01*
X89719849Y-55427274D01*
X89690260Y-55424500D01*
X89690256Y-55424500D01*
X89109744Y-55424500D01*
X89109740Y-55424500D01*
X89080150Y-55427274D01*
X88955523Y-55470884D01*
X88849289Y-55549288D01*
X88849288Y-55549289D01*
X88770884Y-55655523D01*
X88727274Y-55780150D01*
X88724500Y-55809739D01*
X88724500Y-55809744D01*
X88724500Y-56415256D01*
X88724954Y-56420100D01*
X88726434Y-56435885D01*
X88713092Y-56504469D01*
X88664789Y-56554952D01*
X88637910Y-56566435D01*
X88562949Y-56588445D01*
X88441873Y-56666256D01*
X88441872Y-56666256D01*
X88441872Y-56666257D01*
X88429290Y-56680777D01*
X88347623Y-56775026D01*
X88347622Y-56775028D01*
X88287834Y-56905943D01*
X88267353Y-57048400D01*
X88287834Y-57190856D01*
X88346804Y-57319979D01*
X88347623Y-57321773D01*
X88441872Y-57430543D01*
X88560081Y-57506511D01*
X88562949Y-57508354D01*
X88597210Y-57518414D01*
X88655988Y-57556188D01*
X88685013Y-57619744D01*
X88675069Y-57688902D01*
X88649958Y-57725071D01*
X88615489Y-57759540D01*
X88328489Y-58046540D01*
X88011847Y-58363181D01*
X87950524Y-58396666D01*
X87924166Y-58399500D01*
X87828036Y-58399500D01*
X87689949Y-58440045D01*
X87568873Y-58517856D01*
X87474623Y-58626626D01*
X87474622Y-58626628D01*
X87414834Y-58757543D01*
X87394353Y-58900000D01*
X87414834Y-59042456D01*
X87453275Y-59126628D01*
X87474623Y-59173373D01*
X87568872Y-59282143D01*
X87689947Y-59359953D01*
X87689950Y-59359954D01*
X87689949Y-59359954D01*
X87767938Y-59382853D01*
X87826336Y-59400000D01*
X87828036Y-59400499D01*
X87828038Y-59400500D01*
X87828039Y-59400500D01*
X87971962Y-59400500D01*
X87971962Y-59400499D01*
X88110053Y-59359953D01*
X88231128Y-59282143D01*
X88325377Y-59173373D01*
X88385165Y-59042457D01*
X88405647Y-58900000D01*
X88404339Y-58890905D01*
X88414279Y-58821749D01*
X88439390Y-58785579D01*
X88753460Y-58471511D01*
X88788152Y-58436819D01*
X88849475Y-58403334D01*
X88875833Y-58400500D01*
X90241499Y-58400500D01*
X90308538Y-58420185D01*
X90335211Y-58443296D01*
X90368872Y-58482143D01*
X90489947Y-58559953D01*
X90489950Y-58559954D01*
X90489949Y-58559954D01*
X90628036Y-58600499D01*
X90628038Y-58600500D01*
X90628039Y-58600500D01*
X90771962Y-58600500D01*
X90771962Y-58600499D01*
X90910050Y-58559954D01*
X90910051Y-58559954D01*
X90910053Y-58559953D01*
X91012254Y-58494272D01*
X91079291Y-58474588D01*
X91146331Y-58494272D01*
X91192086Y-58547076D01*
X91202030Y-58616234D01*
X91199682Y-58627684D01*
X91199500Y-58629067D01*
X91199500Y-59809952D01*
X91179815Y-59876991D01*
X91163181Y-59897633D01*
X87797633Y-63263181D01*
X87736310Y-63296666D01*
X87709952Y-63299500D01*
X82567794Y-63299500D01*
X82537223Y-63307691D01*
X82491364Y-63319979D01*
X82491363Y-63319980D01*
X82455894Y-63340459D01*
X82422848Y-63359537D01*
X82422843Y-63359541D01*
X81286590Y-64495793D01*
X81225267Y-64529278D01*
X81155575Y-64524294D01*
X81099642Y-64482422D01*
X81086115Y-64459624D01*
X81053003Y-64387119D01*
X81025377Y-64326627D01*
X80931128Y-64217857D01*
X80810053Y-64140047D01*
X80810052Y-64140046D01*
X80802593Y-64135253D01*
X80804314Y-64132574D01*
X80763346Y-64097049D01*
X80743685Y-64030003D01*
X80763393Y-63962971D01*
X80779999Y-63942371D01*
X81835552Y-62886819D01*
X81896875Y-62853334D01*
X81923233Y-62850500D01*
X86441499Y-62850500D01*
X86508538Y-62870185D01*
X86535211Y-62893296D01*
X86568872Y-62932143D01*
X86689947Y-63009953D01*
X86689950Y-63009954D01*
X86689949Y-63009954D01*
X86828036Y-63050499D01*
X86828038Y-63050500D01*
X86828039Y-63050500D01*
X86971962Y-63050500D01*
X86971962Y-63050499D01*
X87110053Y-63009953D01*
X87231128Y-62932143D01*
X87325377Y-62823373D01*
X87385165Y-62692457D01*
X87405647Y-62550000D01*
X87385165Y-62407543D01*
X87325377Y-62276627D01*
X87231128Y-62167857D01*
X87110053Y-62090047D01*
X87110051Y-62090046D01*
X87110049Y-62090045D01*
X87110050Y-62090045D01*
X86971963Y-62049500D01*
X86971961Y-62049500D01*
X86828039Y-62049500D01*
X86828036Y-62049500D01*
X86689949Y-62090045D01*
X86568873Y-62167856D01*
X86568872Y-62167856D01*
X86568872Y-62167857D01*
X86554246Y-62184737D01*
X86535212Y-62206703D01*
X86476433Y-62244477D01*
X86441499Y-62249500D01*
X82204734Y-62249500D01*
X82137695Y-62229815D01*
X82091940Y-62177011D01*
X82081996Y-62107853D01*
X82111021Y-62044297D01*
X82117053Y-62037819D01*
X82768053Y-61386819D01*
X82829376Y-61353334D01*
X82855734Y-61350500D01*
X85941031Y-61350500D01*
X85941033Y-61350500D01*
X86017460Y-61330021D01*
X86085982Y-61290460D01*
X86141931Y-61234511D01*
X86263205Y-61113236D01*
X86324525Y-61079753D01*
X86394217Y-61084737D01*
X86450151Y-61126608D01*
X86463677Y-61149406D01*
X86474623Y-61173373D01*
X86568872Y-61282143D01*
X86689947Y-61359953D01*
X86689950Y-61359954D01*
X86689949Y-61359954D01*
X86828036Y-61400499D01*
X86828038Y-61400500D01*
X86828039Y-61400500D01*
X86971962Y-61400500D01*
X86971962Y-61400499D01*
X87110053Y-61359953D01*
X87231128Y-61282143D01*
X87325377Y-61173373D01*
X87385165Y-61042457D01*
X87405647Y-60900000D01*
X87385165Y-60757543D01*
X87325377Y-60626627D01*
X87231128Y-60517857D01*
X87231124Y-60517854D01*
X87225302Y-60512809D01*
X87187528Y-60454030D01*
X87187529Y-60384161D01*
X87212793Y-60337894D01*
X87225377Y-60323373D01*
X87285165Y-60192457D01*
X87305647Y-60050000D01*
X87285165Y-59907543D01*
X87225377Y-59776627D01*
X87131128Y-59667857D01*
X87010053Y-59590047D01*
X87010051Y-59590046D01*
X87010049Y-59590045D01*
X87010050Y-59590045D01*
X86871963Y-59549500D01*
X86871961Y-59549500D01*
X86728039Y-59549500D01*
X86728036Y-59549500D01*
X86589949Y-59590045D01*
X86467039Y-59669035D01*
X86400000Y-59688719D01*
X86332961Y-59669035D01*
X86330389Y-59667382D01*
X86210053Y-59590047D01*
X86210051Y-59590046D01*
X86210049Y-59590045D01*
X86210050Y-59590045D01*
X86071963Y-59549500D01*
X86071961Y-59549500D01*
X85928039Y-59549500D01*
X85928036Y-59549500D01*
X85789949Y-59590045D01*
X85668873Y-59667856D01*
X85574623Y-59776626D01*
X85574622Y-59776628D01*
X85514834Y-59907543D01*
X85494353Y-60050000D01*
X85501761Y-60101526D01*
X85491817Y-60170684D01*
X85466706Y-60206850D01*
X85360375Y-60313182D01*
X85299055Y-60346666D01*
X85272696Y-60349500D01*
X85004698Y-60349500D01*
X84937659Y-60329815D01*
X84891904Y-60277011D01*
X84881960Y-60207853D01*
X84884883Y-60194412D01*
X84885163Y-60192459D01*
X84885165Y-60192457D01*
X84905647Y-60050000D01*
X84885165Y-59907543D01*
X84825377Y-59776627D01*
X84731128Y-59667857D01*
X84610053Y-59590047D01*
X84610051Y-59590046D01*
X84610049Y-59590045D01*
X84610050Y-59590045D01*
X84471963Y-59549500D01*
X84471961Y-59549500D01*
X84328039Y-59549500D01*
X84328036Y-59549500D01*
X84189949Y-59590045D01*
X84067039Y-59669035D01*
X84000000Y-59688719D01*
X83932961Y-59669035D01*
X83930389Y-59667382D01*
X83810053Y-59590047D01*
X83810051Y-59590046D01*
X83810049Y-59590045D01*
X83810050Y-59590045D01*
X83671963Y-59549500D01*
X83671961Y-59549500D01*
X83528039Y-59549500D01*
X83528036Y-59549500D01*
X83389949Y-59590045D01*
X83268873Y-59667856D01*
X83268872Y-59667856D01*
X83268872Y-59667857D01*
X83249495Y-59690220D01*
X83235212Y-59706703D01*
X83176433Y-59744477D01*
X83141499Y-59749500D01*
X82508967Y-59749500D01*
X82480791Y-59757050D01*
X82432538Y-59769979D01*
X82432537Y-59769980D01*
X82375358Y-59802992D01*
X82375356Y-59802994D01*
X82365994Y-59808398D01*
X82364016Y-59809541D01*
X82336794Y-59836763D01*
X82275469Y-59870246D01*
X82205778Y-59865259D01*
X82149846Y-59823386D01*
X82136321Y-59800590D01*
X82125379Y-59776630D01*
X82125376Y-59776626D01*
X82119617Y-59769980D01*
X82031128Y-59667857D01*
X81910053Y-59590047D01*
X81910051Y-59590046D01*
X81910049Y-59590045D01*
X81910050Y-59590045D01*
X81771963Y-59549500D01*
X81771961Y-59549500D01*
X81628039Y-59549500D01*
X81628036Y-59549500D01*
X81489949Y-59590045D01*
X81367039Y-59669035D01*
X81300000Y-59688719D01*
X81232961Y-59669035D01*
X81230389Y-59667382D01*
X81110053Y-59590047D01*
X81110051Y-59590046D01*
X81110049Y-59590045D01*
X81110050Y-59590045D01*
X80971963Y-59549500D01*
X80971961Y-59549500D01*
X80828039Y-59549500D01*
X80828036Y-59549500D01*
X80689949Y-59590045D01*
X80567039Y-59669035D01*
X80500000Y-59688719D01*
X80432961Y-59669035D01*
X80430389Y-59667382D01*
X80310053Y-59590047D01*
X80310051Y-59590046D01*
X80310049Y-59590045D01*
X80310050Y-59590045D01*
X80171963Y-59549500D01*
X80171961Y-59549500D01*
X80028039Y-59549500D01*
X80028036Y-59549500D01*
X79889951Y-59590044D01*
X79882411Y-59594890D01*
X79857006Y-59611216D01*
X79789969Y-59630900D01*
X71091598Y-59630900D01*
X71024559Y-59611215D01*
X71017966Y-59606671D01*
X70969476Y-59570885D01*
X70969477Y-59570885D01*
X70969475Y-59570884D01*
X70958361Y-59566995D01*
X70844848Y-59527274D01*
X70844849Y-59527274D01*
X70815260Y-59524500D01*
X70815256Y-59524500D01*
X70658111Y-59524500D01*
X70591072Y-59504815D01*
X70545317Y-59452011D01*
X70535373Y-59382853D01*
X70564398Y-59319297D01*
X70570430Y-59312819D01*
X70822830Y-59060419D01*
X70884153Y-59026934D01*
X70910511Y-59024100D01*
X77015926Y-59024100D01*
X77082965Y-59043785D01*
X77082966Y-59043785D01*
X77183747Y-59108553D01*
X77183748Y-59108553D01*
X77183749Y-59108554D01*
X77321836Y-59149099D01*
X77321838Y-59149100D01*
X77321839Y-59149100D01*
X77465762Y-59149100D01*
X77465762Y-59149099D01*
X77603853Y-59108553D01*
X77724928Y-59030743D01*
X77819177Y-58921973D01*
X77878965Y-58791057D01*
X77899447Y-58648600D01*
X77878965Y-58506143D01*
X77819177Y-58375227D01*
X77724928Y-58266457D01*
X77603853Y-58188647D01*
X77603851Y-58188646D01*
X77603849Y-58188645D01*
X77603850Y-58188645D01*
X77465763Y-58148100D01*
X77465761Y-58148100D01*
X77321839Y-58148100D01*
X77321836Y-58148100D01*
X77183749Y-58188645D01*
X77183748Y-58188646D01*
X77082966Y-58253415D01*
X77015926Y-58273100D01*
X70654175Y-58273100D01*
X70613453Y-58284011D01*
X70613453Y-58284012D01*
X70558674Y-58298690D01*
X70558673Y-58298690D01*
X70558671Y-58298691D01*
X70473048Y-58348126D01*
X69299524Y-59521650D01*
X69294579Y-59528096D01*
X69292823Y-59526749D01*
X69250604Y-59566995D01*
X69181995Y-59580208D01*
X69152844Y-59573812D01*
X69071044Y-59545188D01*
X69014269Y-59504466D01*
X68988522Y-59439513D01*
X68988000Y-59428147D01*
X68988000Y-57582939D01*
X68986939Y-57574881D01*
X68988945Y-57574616D01*
X68990344Y-57515654D01*
X69029501Y-57457788D01*
X69093727Y-57430278D01*
X69108459Y-57429400D01*
X73355200Y-57429400D01*
X73355200Y-57184146D01*
X78650000Y-57184146D01*
X78656241Y-57242187D01*
X78705232Y-57373537D01*
X78789241Y-57485758D01*
X78901462Y-57569767D01*
X79032812Y-57618758D01*
X79090853Y-57624999D01*
X79090870Y-57625000D01*
X79187500Y-57625000D01*
X79687500Y-57625000D01*
X79784130Y-57625000D01*
X79784146Y-57624999D01*
X79842187Y-57618758D01*
X79973537Y-57569767D01*
X80085758Y-57485758D01*
X80169767Y-57373536D01*
X80169767Y-57373535D01*
X80210473Y-57264401D01*
X80252345Y-57208467D01*
X80317809Y-57184050D01*
X80386082Y-57198902D01*
X80435487Y-57248307D01*
X80443696Y-57266778D01*
X80470884Y-57344476D01*
X80549288Y-57450710D01*
X80549289Y-57450711D01*
X80655523Y-57529115D01*
X80655524Y-57529115D01*
X80655525Y-57529116D01*
X80780151Y-57572725D01*
X80780150Y-57572725D01*
X80809740Y-57575500D01*
X80809744Y-57575500D01*
X81515260Y-57575500D01*
X81544849Y-57572725D01*
X81553302Y-57569767D01*
X81669475Y-57529116D01*
X81775711Y-57450711D01*
X81806016Y-57409648D01*
X81861661Y-57367399D01*
X81931317Y-57361940D01*
X81992867Y-57395007D01*
X81999492Y-57402073D01*
X82068872Y-57482143D01*
X82189947Y-57559953D01*
X82189950Y-57559954D01*
X82189949Y-57559954D01*
X82268231Y-57582939D01*
X82324633Y-57599500D01*
X82328036Y-57600499D01*
X82328038Y-57600500D01*
X82328039Y-57600500D01*
X82471962Y-57600500D01*
X82471962Y-57600499D01*
X82610053Y-57559953D01*
X82731128Y-57482143D01*
X82825377Y-57373373D01*
X82885165Y-57242457D01*
X82905647Y-57100000D01*
X82885165Y-56957543D01*
X82825377Y-56826627D01*
X82731128Y-56717857D01*
X82610053Y-56640047D01*
X82610051Y-56640046D01*
X82610049Y-56640045D01*
X82610050Y-56640045D01*
X82471963Y-56599500D01*
X82471961Y-56599500D01*
X82463744Y-56599500D01*
X82401744Y-56582887D01*
X82344940Y-56550091D01*
X82344939Y-56550090D01*
X82344938Y-56550090D01*
X82276720Y-56531811D01*
X82276717Y-56531810D01*
X82276715Y-56531809D01*
X82249438Y-56524500D01*
X82249436Y-56524500D01*
X82249435Y-56524500D01*
X81965287Y-56524500D01*
X81898248Y-56504815D01*
X81859760Y-56462907D01*
X81859634Y-56463001D01*
X81858767Y-56461827D01*
X81855655Y-56458438D01*
X81854113Y-56455520D01*
X81775711Y-56349289D01*
X81775710Y-56349288D01*
X81669476Y-56270884D01*
X81544848Y-56227274D01*
X81544849Y-56227274D01*
X81515260Y-56224500D01*
X81515256Y-56224500D01*
X80809744Y-56224500D01*
X80809740Y-56224500D01*
X80780150Y-56227274D01*
X80655523Y-56270884D01*
X80549289Y-56349288D01*
X80549288Y-56349289D01*
X80470884Y-56455523D01*
X80443696Y-56533221D01*
X80402974Y-56589997D01*
X80338021Y-56615743D01*
X80269459Y-56602286D01*
X80219057Y-56553898D01*
X80210473Y-56535599D01*
X80169767Y-56426462D01*
X80085758Y-56314241D01*
X79973537Y-56230232D01*
X79842187Y-56181241D01*
X79784146Y-56175000D01*
X79687500Y-56175000D01*
X79687500Y-57625000D01*
X79187500Y-57625000D01*
X79187500Y-57150000D01*
X78650000Y-57150000D01*
X78650000Y-57184146D01*
X73355200Y-57184146D01*
X73355200Y-56615853D01*
X78650000Y-56615853D01*
X78650000Y-56650000D01*
X79187500Y-56650000D01*
X79187500Y-56175000D01*
X79090853Y-56175000D01*
X79032812Y-56181241D01*
X78901462Y-56230232D01*
X78789241Y-56314241D01*
X78705232Y-56426462D01*
X78656241Y-56557812D01*
X78650000Y-56615853D01*
X73355200Y-56615853D01*
X73355200Y-55219599D01*
X74478748Y-55219599D01*
X74478748Y-55219600D01*
X74497810Y-55437484D01*
X74497812Y-55437494D01*
X74554417Y-55648750D01*
X74554421Y-55648759D01*
X74646856Y-55846987D01*
X74690397Y-55909171D01*
X75250560Y-55349008D01*
X75267598Y-55412593D01*
X75333424Y-55526607D01*
X75426516Y-55619699D01*
X75540530Y-55685525D01*
X75604113Y-55702562D01*
X75043950Y-56262724D01*
X75106135Y-56306266D01*
X75304363Y-56398701D01*
X75304372Y-56398705D01*
X75515628Y-56455310D01*
X75515638Y-56455312D01*
X75733522Y-56474375D01*
X75733524Y-56474375D01*
X75951407Y-56455312D01*
X75951417Y-56455310D01*
X76162673Y-56398705D01*
X76162687Y-56398700D01*
X76360906Y-56306269D01*
X76360908Y-56306268D01*
X76423094Y-56262724D01*
X75862933Y-55702562D01*
X75926516Y-55685525D01*
X76040530Y-55619699D01*
X76133622Y-55526607D01*
X76199448Y-55412593D01*
X76216485Y-55349009D01*
X76776647Y-55909170D01*
X76820191Y-55846985D01*
X76820192Y-55846983D01*
X76912623Y-55648764D01*
X76912628Y-55648750D01*
X76969233Y-55437494D01*
X76969235Y-55437484D01*
X76988298Y-55219600D01*
X76988298Y-55219599D01*
X76969235Y-55001715D01*
X76969233Y-55001705D01*
X76912628Y-54790449D01*
X76912624Y-54790440D01*
X76820191Y-54592215D01*
X76776646Y-54530028D01*
X76216485Y-55090189D01*
X76199448Y-55026607D01*
X76133622Y-54912593D01*
X76040530Y-54819501D01*
X75926516Y-54753675D01*
X75862932Y-54736637D01*
X76312068Y-54287500D01*
X87360653Y-54287500D01*
X87381134Y-54429956D01*
X87401934Y-54475500D01*
X87440923Y-54560873D01*
X87535172Y-54669643D01*
X87656247Y-54747453D01*
X87656250Y-54747454D01*
X87656249Y-54747454D01*
X87794336Y-54787999D01*
X87794338Y-54788000D01*
X87794339Y-54788000D01*
X87938262Y-54788000D01*
X87938262Y-54787999D01*
X88076353Y-54747453D01*
X88197428Y-54669643D01*
X88231088Y-54630796D01*
X88289867Y-54593023D01*
X88324801Y-54588000D01*
X88628148Y-54588000D01*
X88695187Y-54607685D01*
X88740942Y-54660489D01*
X88745189Y-54671045D01*
X88770884Y-54744475D01*
X88770884Y-54744476D01*
X88849288Y-54850710D01*
X88849289Y-54850711D01*
X88955523Y-54929115D01*
X88955524Y-54929115D01*
X88955525Y-54929116D01*
X89080151Y-54972725D01*
X89080150Y-54972725D01*
X89109740Y-54975500D01*
X89109744Y-54975500D01*
X89690260Y-54975500D01*
X89719849Y-54972725D01*
X89844475Y-54929116D01*
X89950711Y-54850711D01*
X90029116Y-54744475D01*
X90072725Y-54619849D01*
X90074253Y-54603552D01*
X90075500Y-54590260D01*
X90075500Y-53984739D01*
X90072725Y-53955150D01*
X90029115Y-53830523D01*
X89950711Y-53724289D01*
X89950710Y-53724288D01*
X89844476Y-53645884D01*
X89719848Y-53602274D01*
X89719849Y-53602274D01*
X89690260Y-53599500D01*
X89690256Y-53599500D01*
X89109744Y-53599500D01*
X89109740Y-53599500D01*
X89080150Y-53602274D01*
X88955523Y-53645884D01*
X88849289Y-53724288D01*
X88849288Y-53724289D01*
X88770884Y-53830523D01*
X88770884Y-53830524D01*
X88745189Y-53903955D01*
X88704467Y-53960731D01*
X88639514Y-53986478D01*
X88628148Y-53987000D01*
X88324801Y-53987000D01*
X88257762Y-53967315D01*
X88231088Y-53944203D01*
X88197428Y-53905357D01*
X88076353Y-53827547D01*
X88076351Y-53827546D01*
X88076349Y-53827545D01*
X88076350Y-53827545D01*
X87938263Y-53787000D01*
X87938261Y-53787000D01*
X87794339Y-53787000D01*
X87794336Y-53787000D01*
X87656249Y-53827545D01*
X87535173Y-53905356D01*
X87440923Y-54014126D01*
X87440922Y-54014128D01*
X87381134Y-54145043D01*
X87360653Y-54287500D01*
X76312068Y-54287500D01*
X76423094Y-54176474D01*
X76360910Y-54132933D01*
X76162682Y-54040498D01*
X76162673Y-54040494D01*
X75951417Y-53983889D01*
X75951407Y-53983887D01*
X75733524Y-53964825D01*
X75733522Y-53964825D01*
X75515638Y-53983887D01*
X75515628Y-53983889D01*
X75304372Y-54040494D01*
X75304363Y-54040498D01*
X75106137Y-54132932D01*
X75106135Y-54132933D01*
X75043951Y-54176475D01*
X75043950Y-54176475D01*
X75604113Y-54736637D01*
X75540530Y-54753675D01*
X75426516Y-54819501D01*
X75333424Y-54912593D01*
X75267598Y-55026607D01*
X75250560Y-55090190D01*
X74690398Y-54530027D01*
X74690398Y-54530028D01*
X74646856Y-54592212D01*
X74646855Y-54592214D01*
X74554421Y-54790440D01*
X74554417Y-54790449D01*
X74497812Y-55001705D01*
X74497810Y-55001715D01*
X74478748Y-55219599D01*
X73355200Y-55219599D01*
X73355200Y-53060600D01*
X83619153Y-53060600D01*
X83639634Y-53203056D01*
X83671822Y-53273536D01*
X83699423Y-53333973D01*
X83793672Y-53442743D01*
X83914747Y-53520553D01*
X83914750Y-53520554D01*
X83914749Y-53520554D01*
X84052836Y-53561099D01*
X84052838Y-53561100D01*
X84052839Y-53561100D01*
X84196762Y-53561100D01*
X84196762Y-53561099D01*
X84334853Y-53520553D01*
X84455928Y-53442743D01*
X84550177Y-53333973D01*
X84609965Y-53203057D01*
X84630447Y-53060600D01*
X84609965Y-52918143D01*
X84550177Y-52787227D01*
X84455928Y-52678457D01*
X84334853Y-52600647D01*
X84334851Y-52600646D01*
X84334849Y-52600645D01*
X84334850Y-52600645D01*
X84196763Y-52560100D01*
X84196761Y-52560100D01*
X84052839Y-52560100D01*
X84052836Y-52560100D01*
X83914749Y-52600645D01*
X83793673Y-52678456D01*
X83793672Y-52678456D01*
X83793672Y-52678457D01*
X83786655Y-52686555D01*
X83699423Y-52787226D01*
X83699422Y-52787228D01*
X83639634Y-52918143D01*
X83619153Y-53060600D01*
X73355200Y-53060600D01*
X73355200Y-50324500D01*
X73374885Y-50257461D01*
X73427689Y-50211706D01*
X73479200Y-50200500D01*
X96960118Y-50200500D01*
X96996519Y-50200500D01*
X97003472Y-50200695D01*
G37*
%TD.AperFunction*%
%TA.AperFunction,Conductor*%
G36*
X84243677Y-65520185D02*
G01*
X84289432Y-65572989D01*
X84299376Y-65642147D01*
X84270351Y-65705703D01*
X84264319Y-65712181D01*
X83913319Y-66063181D01*
X83851996Y-66096666D01*
X83825638Y-66099500D01*
X83778036Y-66099500D01*
X83639949Y-66140045D01*
X83518873Y-66217856D01*
X83424623Y-66326626D01*
X83424622Y-66326628D01*
X83364834Y-66457543D01*
X83344353Y-66600000D01*
X83364834Y-66742456D01*
X83424622Y-66873371D01*
X83424625Y-66873377D01*
X83447780Y-66900098D01*
X83476806Y-66963653D01*
X83466863Y-67032812D01*
X83421108Y-67085616D01*
X83354069Y-67105301D01*
X83310735Y-67097483D01*
X83267189Y-67081241D01*
X83209146Y-67075000D01*
X83162500Y-67075000D01*
X83162500Y-67550000D01*
X83650000Y-67550000D01*
X83650000Y-67515870D01*
X83649999Y-67515853D01*
X83643758Y-67457812D01*
X83594767Y-67326462D01*
X83549591Y-67266115D01*
X83525174Y-67200650D01*
X83540026Y-67132377D01*
X83589431Y-67082972D01*
X83657704Y-67068120D01*
X83683791Y-67072826D01*
X83692896Y-67075500D01*
X83778038Y-67100500D01*
X83778039Y-67100500D01*
X83921962Y-67100500D01*
X83921962Y-67100499D01*
X84033890Y-67067635D01*
X84060050Y-67059954D01*
X84060051Y-67059954D01*
X84060053Y-67059953D01*
X84181128Y-66982143D01*
X84181129Y-66982141D01*
X84182960Y-66980965D01*
X84250000Y-66961280D01*
X84317039Y-66980964D01*
X84317040Y-66980965D01*
X84318870Y-66982141D01*
X84318872Y-66982143D01*
X84391962Y-67029115D01*
X84439948Y-67059954D01*
X84578036Y-67100499D01*
X84578038Y-67100500D01*
X84578039Y-67100500D01*
X84721962Y-67100500D01*
X84721962Y-67100499D01*
X84833890Y-67067635D01*
X84860050Y-67059954D01*
X84860051Y-67059954D01*
X84860053Y-67059953D01*
X84981128Y-66982143D01*
X84981129Y-66982141D01*
X84982960Y-66980965D01*
X85050000Y-66961280D01*
X85117039Y-66980964D01*
X85117040Y-66980965D01*
X85118870Y-66982141D01*
X85118872Y-66982143D01*
X85191962Y-67029115D01*
X85239948Y-67059954D01*
X85378036Y-67100499D01*
X85378038Y-67100500D01*
X85378039Y-67100500D01*
X85386255Y-67100500D01*
X85448254Y-67117112D01*
X85505063Y-67149911D01*
X85600564Y-67175500D01*
X85600565Y-67175500D01*
X85734713Y-67175500D01*
X85801752Y-67195185D01*
X85840239Y-67237092D01*
X85840366Y-67236999D01*
X85841232Y-67238172D01*
X85844345Y-67241562D01*
X85845886Y-67244479D01*
X85924288Y-67350710D01*
X85924289Y-67350711D01*
X86030523Y-67429115D01*
X86030524Y-67429115D01*
X86030525Y-67429116D01*
X86155151Y-67472725D01*
X86155150Y-67472725D01*
X86184740Y-67475500D01*
X86184744Y-67475500D01*
X86890260Y-67475500D01*
X86919849Y-67472725D01*
X86962467Y-67457812D01*
X87044475Y-67429116D01*
X87150711Y-67350711D01*
X87229116Y-67244475D01*
X87256303Y-67166777D01*
X87297024Y-67110003D01*
X87361977Y-67084256D01*
X87430538Y-67097712D01*
X87480941Y-67146099D01*
X87489525Y-67164400D01*
X87530229Y-67273531D01*
X87530232Y-67273536D01*
X87614241Y-67385758D01*
X87726462Y-67469767D01*
X87857812Y-67518758D01*
X87915853Y-67524999D01*
X87915870Y-67525000D01*
X88019817Y-67525000D01*
X88086856Y-67544685D01*
X88132611Y-67597489D01*
X88142555Y-67666647D01*
X88113530Y-67730203D01*
X88107498Y-67736681D01*
X88080998Y-67763181D01*
X88019675Y-67796666D01*
X87993317Y-67799500D01*
X84411909Y-67799500D01*
X84373695Y-67809739D01*
X84335480Y-67819979D01*
X84306096Y-67836945D01*
X84284350Y-67849500D01*
X84284348Y-67849500D01*
X84284348Y-67849501D01*
X84266963Y-67859537D01*
X84266958Y-67859541D01*
X83859541Y-68266958D01*
X83854590Y-68273411D01*
X83852898Y-68272112D01*
X83810480Y-68312551D01*
X83741871Y-68325766D01*
X83677009Y-68299792D01*
X83636487Y-68242873D01*
X83633169Y-68173082D01*
X83637490Y-68158993D01*
X83643758Y-68142187D01*
X83649999Y-68084146D01*
X83650000Y-68084129D01*
X83650000Y-68050000D01*
X82175000Y-68050000D01*
X82175000Y-68084146D01*
X82181241Y-68142187D01*
X82228186Y-68268050D01*
X82233170Y-68337742D01*
X82199685Y-68399065D01*
X82138362Y-68432550D01*
X82077070Y-68430361D01*
X81971964Y-68399500D01*
X81971961Y-68399500D01*
X81849632Y-68399500D01*
X81782593Y-68379815D01*
X81736838Y-68327011D01*
X81726894Y-68257853D01*
X81732591Y-68234545D01*
X81772725Y-68119851D01*
X81772725Y-68119849D01*
X81775500Y-68090260D01*
X81775500Y-67509739D01*
X81772725Y-67480150D01*
X81729115Y-67355523D01*
X81650711Y-67249289D01*
X81650710Y-67249288D01*
X81544476Y-67170884D01*
X81544477Y-67170884D01*
X81444818Y-67136011D01*
X81388042Y-67095288D01*
X81362296Y-67030335D01*
X81375753Y-66961774D01*
X81398088Y-66931295D01*
X81548451Y-66780931D01*
X81609772Y-66747448D01*
X81679464Y-66752432D01*
X81735397Y-66794304D01*
X81748924Y-66817101D01*
X81774327Y-66872725D01*
X81774623Y-66873373D01*
X81868872Y-66982143D01*
X81989947Y-67059953D01*
X81989950Y-67059954D01*
X81989949Y-67059954D01*
X82092279Y-67090000D01*
X82110288Y-67095288D01*
X82128036Y-67100499D01*
X82128038Y-67100500D01*
X82151666Y-67100500D01*
X82218705Y-67120185D01*
X82264460Y-67172989D01*
X82274404Y-67242147D01*
X82250933Y-67298811D01*
X82230232Y-67326462D01*
X82181241Y-67457812D01*
X82175000Y-67515853D01*
X82175000Y-67550000D01*
X82662500Y-67550000D01*
X82662500Y-67075000D01*
X82630641Y-67043141D01*
X82597156Y-66981818D01*
X82602140Y-66912126D01*
X82620674Y-66880893D01*
X82620582Y-66880834D01*
X82622244Y-66878247D01*
X82624615Y-66874252D01*
X82625377Y-66873373D01*
X82685165Y-66742457D01*
X82705647Y-66600000D01*
X82685165Y-66457543D01*
X82643291Y-66365854D01*
X82633348Y-66296698D01*
X82662372Y-66233142D01*
X82668390Y-66226678D01*
X83358251Y-65536819D01*
X83419574Y-65503334D01*
X83445932Y-65500500D01*
X84176638Y-65500500D01*
X84243677Y-65520185D01*
G37*
%TD.AperFunction*%
%TA.AperFunction,Conductor*%
G36*
X91928834Y-60650121D02*
G01*
X91984767Y-60691993D01*
X92009184Y-60757457D01*
X92009500Y-60766303D01*
X92009500Y-62516595D01*
X91989815Y-62583634D01*
X91973181Y-62604276D01*
X91412181Y-63165276D01*
X91350858Y-63198761D01*
X91281166Y-63193777D01*
X91225233Y-63151905D01*
X91200816Y-63086441D01*
X91200500Y-63077595D01*
X91200500Y-62463738D01*
X91220185Y-62396699D01*
X91230787Y-62382535D01*
X91231124Y-62382144D01*
X91231128Y-62382143D01*
X91325377Y-62273373D01*
X91385165Y-62142457D01*
X91405647Y-62000000D01*
X91385165Y-61857543D01*
X91325377Y-61726627D01*
X91231128Y-61617857D01*
X91133781Y-61555296D01*
X91088027Y-61502493D01*
X91078083Y-61433334D01*
X91107108Y-61369779D01*
X91113124Y-61363316D01*
X91797820Y-60678621D01*
X91859142Y-60645137D01*
X91928834Y-60650121D01*
G37*
%TD.AperFunction*%
%TA.AperFunction,Conductor*%
G36*
X79258391Y-61051585D02*
G01*
X79279033Y-61068219D01*
X79450525Y-61239711D01*
X79506474Y-61295660D01*
X79506476Y-61295661D01*
X79506480Y-61295664D01*
X79565989Y-61330021D01*
X79574996Y-61335221D01*
X79651423Y-61355700D01*
X79651425Y-61355700D01*
X80518495Y-61355700D01*
X80585534Y-61375385D01*
X80631289Y-61428189D01*
X80641233Y-61497347D01*
X80612208Y-61560903D01*
X80606176Y-61567381D01*
X79410377Y-62763181D01*
X79349054Y-62796666D01*
X79322696Y-62799500D01*
X78092478Y-62799500D01*
X78025439Y-62779815D01*
X77979684Y-62727011D01*
X77975437Y-62716455D01*
X77954116Y-62655524D01*
X77954115Y-62655523D01*
X77875711Y-62549289D01*
X77875710Y-62549288D01*
X77769476Y-62470884D01*
X77644848Y-62427274D01*
X77644849Y-62427274D01*
X77615260Y-62424500D01*
X77615256Y-62424500D01*
X77009744Y-62424500D01*
X77009740Y-62424500D01*
X76980150Y-62427274D01*
X76855523Y-62470884D01*
X76810633Y-62504015D01*
X76745004Y-62527986D01*
X76676834Y-62512670D01*
X76627766Y-62462930D01*
X76613000Y-62404245D01*
X76613000Y-62321852D01*
X76632685Y-62254813D01*
X76685489Y-62209058D01*
X76696045Y-62204811D01*
X76718866Y-62196824D01*
X76769475Y-62179116D01*
X76875711Y-62100711D01*
X76954116Y-61994475D01*
X76997725Y-61869849D01*
X77000500Y-61840256D01*
X77000500Y-61259744D01*
X76999268Y-61246610D01*
X76997725Y-61230150D01*
X76997724Y-61230148D01*
X76986075Y-61196855D01*
X76982513Y-61127076D01*
X77017241Y-61066449D01*
X77079235Y-61034221D01*
X77103116Y-61031900D01*
X79191352Y-61031900D01*
X79258391Y-61051585D01*
G37*
%TD.AperFunction*%
%TD*%
%TA.AperFunction,Conductor*%
%TO.N,+12VA*%
G36*
X73044239Y-50220185D02*
G01*
X73089994Y-50272989D01*
X73101200Y-50324500D01*
X73101200Y-57051400D01*
X73081515Y-57118439D01*
X73028711Y-57164194D01*
X72977200Y-57175400D01*
X68818902Y-57175400D01*
X68751863Y-57155715D01*
X68706108Y-57102911D01*
X68696164Y-57069046D01*
X68685165Y-56992543D01*
X68664404Y-56947084D01*
X68625377Y-56861627D01*
X68531128Y-56752857D01*
X68410053Y-56675047D01*
X68410051Y-56675046D01*
X68410049Y-56675045D01*
X68410050Y-56675045D01*
X68271963Y-56634500D01*
X68271961Y-56634500D01*
X68128039Y-56634500D01*
X68128036Y-56634500D01*
X67989949Y-56675045D01*
X67868873Y-56752856D01*
X67774623Y-56861626D01*
X67774622Y-56861628D01*
X67714834Y-56992543D01*
X67703836Y-57069046D01*
X67674812Y-57132602D01*
X67616034Y-57170377D01*
X67581098Y-57175400D01*
X67197116Y-57175400D01*
X67130077Y-57155715D01*
X67084322Y-57102911D01*
X67074378Y-57033753D01*
X67103403Y-56970197D01*
X67130075Y-56947085D01*
X67231128Y-56882143D01*
X67325377Y-56773373D01*
X67385165Y-56642457D01*
X67405647Y-56500000D01*
X67385165Y-56357543D01*
X67325377Y-56226627D01*
X67231128Y-56117857D01*
X67110053Y-56040047D01*
X67110051Y-56040046D01*
X67110049Y-56040045D01*
X67110050Y-56040045D01*
X66971963Y-55999500D01*
X66971961Y-55999500D01*
X66828039Y-55999500D01*
X66828036Y-55999500D01*
X66689949Y-56040045D01*
X66568873Y-56117856D01*
X66474623Y-56226626D01*
X66474622Y-56226628D01*
X66414834Y-56357543D01*
X66394353Y-56500000D01*
X66414834Y-56642456D01*
X66474622Y-56773371D01*
X66474623Y-56773373D01*
X66568872Y-56882143D01*
X66689947Y-56959953D01*
X66762221Y-56981174D01*
X66820998Y-57018947D01*
X66850024Y-57082503D01*
X66840081Y-57151661D01*
X66827400Y-57169925D01*
X66827400Y-63303053D01*
X66816196Y-63354560D01*
X66814837Y-63357535D01*
X66814834Y-63357543D01*
X66794353Y-63500000D01*
X66814834Y-63642453D01*
X66814835Y-63642457D01*
X66816193Y-63645430D01*
X66827400Y-63696944D01*
X66827400Y-67019613D01*
X66807715Y-67086652D01*
X66754911Y-67132407D01*
X66685753Y-67142351D01*
X66622197Y-67113326D01*
X66609688Y-67100816D01*
X66581130Y-67067859D01*
X66581129Y-67067858D01*
X66581128Y-67067857D01*
X66460053Y-66990047D01*
X66460051Y-66990046D01*
X66460049Y-66990045D01*
X66460050Y-66990045D01*
X66321963Y-66949500D01*
X66321961Y-66949500D01*
X66178039Y-66949500D01*
X66178036Y-66949500D01*
X66039949Y-66990045D01*
X65918873Y-67067856D01*
X65824623Y-67176626D01*
X65824622Y-67176628D01*
X65764834Y-67307543D01*
X65744353Y-67450000D01*
X65764834Y-67592456D01*
X65800991Y-67671627D01*
X65824623Y-67723373D01*
X65918872Y-67832143D01*
X66039947Y-67909953D01*
X66039950Y-67909954D01*
X66039949Y-67909954D01*
X66115520Y-67932143D01*
X66176336Y-67950000D01*
X66178036Y-67950499D01*
X66178038Y-67950500D01*
X66292715Y-67950500D01*
X66359754Y-67970185D01*
X66405509Y-68022989D01*
X66415453Y-68092147D01*
X66405509Y-68126012D01*
X66367634Y-68208943D01*
X66347153Y-68351400D01*
X66367634Y-68493856D01*
X66417385Y-68602793D01*
X66427423Y-68624773D01*
X66521672Y-68733543D01*
X66522735Y-68734226D01*
X66523562Y-68735181D01*
X66528377Y-68739353D01*
X66527777Y-68740045D01*
X66568490Y-68787030D01*
X66578434Y-68856189D01*
X66568491Y-68890053D01*
X66514834Y-69007545D01*
X66494353Y-69150000D01*
X66514834Y-69292456D01*
X66544520Y-69357457D01*
X66574623Y-69423373D01*
X66668872Y-69532143D01*
X66770440Y-69597417D01*
X66816194Y-69650219D01*
X66827400Y-69701731D01*
X66827400Y-69748400D01*
X67961019Y-70882019D01*
X67990379Y-70928744D01*
X67995883Y-70944473D01*
X67995885Y-70944477D01*
X68074288Y-71050710D01*
X68074289Y-71050711D01*
X68180525Y-71129116D01*
X68180528Y-71129117D01*
X68196251Y-71134619D01*
X68242980Y-71163980D01*
X68645281Y-71566281D01*
X68678766Y-71627604D01*
X68681600Y-71653962D01*
X68681600Y-75949000D01*
X68661915Y-76016039D01*
X68609111Y-76061794D01*
X68557600Y-76073000D01*
X50324500Y-76073000D01*
X50257461Y-76053315D01*
X50211706Y-76000511D01*
X50200500Y-75949000D01*
X50200500Y-71396400D01*
X50220185Y-71329361D01*
X50272989Y-71283606D01*
X50324500Y-71272400D01*
X54838600Y-71272400D01*
X55042229Y-71069200D01*
X60784553Y-71069200D01*
X60805034Y-71211656D01*
X60837893Y-71283606D01*
X60864823Y-71342573D01*
X60959072Y-71451343D01*
X61080147Y-71529153D01*
X61080150Y-71529154D01*
X61080149Y-71529154D01*
X61218236Y-71569699D01*
X61218238Y-71569700D01*
X61218239Y-71569700D01*
X61362162Y-71569700D01*
X61362162Y-71569699D01*
X61500253Y-71529153D01*
X61621328Y-71451343D01*
X61715577Y-71342573D01*
X61775365Y-71211657D01*
X61795847Y-71069200D01*
X61775365Y-70926743D01*
X61771900Y-70919157D01*
X61761956Y-70850001D01*
X61790979Y-70786445D01*
X61849756Y-70748669D01*
X61919624Y-70748667D01*
X61976215Y-70765283D01*
X62028038Y-70780500D01*
X62028039Y-70780500D01*
X62171962Y-70780500D01*
X62171962Y-70780499D01*
X62280372Y-70748668D01*
X62310050Y-70739954D01*
X62310050Y-70739953D01*
X62310053Y-70739953D01*
X62431128Y-70662143D01*
X62525377Y-70553373D01*
X62585165Y-70422457D01*
X62605647Y-70280000D01*
X62585165Y-70137543D01*
X62525377Y-70006627D01*
X62431128Y-69897857D01*
X62310053Y-69820047D01*
X62310051Y-69820046D01*
X62310049Y-69820045D01*
X62310050Y-69820045D01*
X62171963Y-69779500D01*
X62171961Y-69779500D01*
X62028039Y-69779500D01*
X62028036Y-69779500D01*
X61889949Y-69820045D01*
X61768873Y-69897856D01*
X61674623Y-70006626D01*
X61674622Y-70006628D01*
X61614834Y-70137543D01*
X61594353Y-70280000D01*
X61614834Y-70422457D01*
X61614835Y-70422458D01*
X61618299Y-70430043D01*
X61628243Y-70499201D01*
X61599218Y-70562757D01*
X61540440Y-70600531D01*
X61470571Y-70600531D01*
X61362163Y-70568700D01*
X61362161Y-70568700D01*
X61218239Y-70568700D01*
X61218236Y-70568700D01*
X61080149Y-70609245D01*
X60959073Y-70687056D01*
X60864823Y-70795826D01*
X60864822Y-70795828D01*
X60805034Y-70926743D01*
X60784553Y-71069200D01*
X55042229Y-71069200D01*
X55902906Y-70210334D01*
X55964263Y-70176916D01*
X55971689Y-70175580D01*
X56110050Y-70134954D01*
X56110050Y-70134953D01*
X56110053Y-70134953D01*
X56231128Y-70057143D01*
X56325377Y-69948373D01*
X56385165Y-69817457D01*
X56394114Y-69755211D01*
X56423136Y-69691659D01*
X56429238Y-69685111D01*
X57180665Y-68935266D01*
X57242020Y-68901849D01*
X57311706Y-68906907D01*
X57367595Y-68948837D01*
X57390988Y-69005396D01*
X57401434Y-69078056D01*
X57457125Y-69200000D01*
X57461223Y-69208973D01*
X57555472Y-69317743D01*
X57676547Y-69395553D01*
X57676550Y-69395554D01*
X57676549Y-69395554D01*
X57814636Y-69436099D01*
X57814638Y-69436100D01*
X57814639Y-69436100D01*
X57958562Y-69436100D01*
X57958562Y-69436099D01*
X58096653Y-69395553D01*
X58217728Y-69317743D01*
X58311977Y-69208973D01*
X58371765Y-69078057D01*
X58392247Y-68935600D01*
X58371765Y-68793143D01*
X58311977Y-68662227D01*
X58217728Y-68553457D01*
X58096653Y-68475647D01*
X58096651Y-68475646D01*
X58096649Y-68475645D01*
X58096650Y-68475645D01*
X57950052Y-68432601D01*
X57950709Y-68430361D01*
X57898684Y-68406593D01*
X57860918Y-68347810D01*
X57860928Y-68277940D01*
X57892308Y-68225122D01*
X58623200Y-67495770D01*
X58622484Y-60401200D01*
X62968953Y-60401200D01*
X62989434Y-60543656D01*
X63049222Y-60674571D01*
X63049223Y-60674573D01*
X63143472Y-60783343D01*
X63264547Y-60861153D01*
X63264550Y-60861154D01*
X63264549Y-60861154D01*
X63402636Y-60901699D01*
X63402638Y-60901700D01*
X63402639Y-60901700D01*
X63546562Y-60901700D01*
X63546562Y-60901699D01*
X63684653Y-60861153D01*
X63805728Y-60783343D01*
X63899977Y-60674573D01*
X63959765Y-60543657D01*
X63980247Y-60401200D01*
X63959765Y-60258743D01*
X63899977Y-60127827D01*
X63805728Y-60019057D01*
X63684653Y-59941247D01*
X63684651Y-59941246D01*
X63684649Y-59941245D01*
X63684650Y-59941245D01*
X63546563Y-59900700D01*
X63546561Y-59900700D01*
X63402639Y-59900700D01*
X63402636Y-59900700D01*
X63264549Y-59941245D01*
X63143473Y-60019056D01*
X63049223Y-60127826D01*
X63049222Y-60127828D01*
X62989434Y-60258743D01*
X62968953Y-60401200D01*
X58622484Y-60401200D01*
X58622059Y-56185379D01*
X58641737Y-56118338D01*
X58658386Y-56097677D01*
X61821532Y-52935370D01*
X61882858Y-52901895D01*
X61926850Y-52900328D01*
X61929437Y-52900700D01*
X61929439Y-52900700D01*
X62073362Y-52900700D01*
X62073362Y-52900699D01*
X62211453Y-52860153D01*
X62332528Y-52782343D01*
X62426777Y-52673573D01*
X62486565Y-52542657D01*
X62507047Y-52400200D01*
X62497005Y-52330356D01*
X62506949Y-52261199D01*
X62532069Y-52225021D01*
X62941200Y-51816000D01*
X62941200Y-50324500D01*
X62960885Y-50257461D01*
X63013689Y-50211706D01*
X63065200Y-50200500D01*
X72977200Y-50200500D01*
X73044239Y-50220185D01*
G37*
%TD.AperFunction*%
%TD*%
%TA.AperFunction,Conductor*%
%TO.N,GND*%
G36*
X56440464Y-50220185D02*
G01*
X56486219Y-50272989D01*
X56496163Y-50342147D01*
X56467138Y-50405703D01*
X56414380Y-50441541D01*
X56330524Y-50470883D01*
X56330523Y-50470884D01*
X56224289Y-50549288D01*
X56224288Y-50549289D01*
X56145884Y-50655523D01*
X56102274Y-50780150D01*
X56099500Y-50809739D01*
X56099500Y-51305816D01*
X56079815Y-51372855D01*
X56027011Y-51418610D01*
X56010435Y-51424793D01*
X55898549Y-51457645D01*
X55777473Y-51535456D01*
X55683223Y-51644226D01*
X55683222Y-51644228D01*
X55623434Y-51775143D01*
X55602953Y-51917600D01*
X55623434Y-52060056D01*
X55651020Y-52120460D01*
X55683223Y-52190973D01*
X55777472Y-52299743D01*
X55898547Y-52377553D01*
X55898550Y-52377554D01*
X55898549Y-52377554D01*
X56036636Y-52418099D01*
X56036638Y-52418100D01*
X56036639Y-52418100D01*
X56180562Y-52418100D01*
X56180562Y-52418099D01*
X56318653Y-52377553D01*
X56439728Y-52299743D01*
X56533977Y-52190973D01*
X56593765Y-52060057D01*
X56614247Y-51917600D01*
X56614247Y-51917598D01*
X56614247Y-51917596D01*
X56614182Y-51917144D01*
X56614247Y-51916691D01*
X56614247Y-51908731D01*
X56615392Y-51908731D01*
X56624127Y-51847986D01*
X56669883Y-51795183D01*
X56736920Y-51775500D01*
X57090260Y-51775500D01*
X57119849Y-51772725D01*
X57133761Y-51767857D01*
X57244475Y-51729116D01*
X57350711Y-51650711D01*
X57429116Y-51544475D01*
X57472725Y-51419849D01*
X57472983Y-51417100D01*
X57475500Y-51390260D01*
X57475500Y-50809739D01*
X57472725Y-50780150D01*
X57429115Y-50655523D01*
X57350711Y-50549289D01*
X57350710Y-50549288D01*
X57244476Y-50470884D01*
X57244475Y-50470883D01*
X57160620Y-50441541D01*
X57103844Y-50400819D01*
X57078097Y-50335866D01*
X57091554Y-50267305D01*
X57139941Y-50216902D01*
X57201575Y-50200500D01*
X58198425Y-50200500D01*
X58265464Y-50220185D01*
X58311219Y-50272989D01*
X58321163Y-50342147D01*
X58292138Y-50405703D01*
X58239380Y-50441541D01*
X58155524Y-50470883D01*
X58155523Y-50470884D01*
X58049289Y-50549288D01*
X58049288Y-50549289D01*
X57970884Y-50655523D01*
X57927274Y-50780150D01*
X57924500Y-50809739D01*
X57924500Y-51390260D01*
X57927274Y-51419849D01*
X57970884Y-51544476D01*
X58049288Y-51650710D01*
X58049289Y-51650711D01*
X58155523Y-51729115D01*
X58155524Y-51729115D01*
X58155525Y-51729116D01*
X58280151Y-51772725D01*
X58280150Y-51772725D01*
X58309740Y-51775500D01*
X58309744Y-51775500D01*
X58915260Y-51775500D01*
X58944849Y-51772725D01*
X58958761Y-51767857D01*
X59069475Y-51729116D01*
X59175711Y-51650711D01*
X59254116Y-51544475D01*
X59275437Y-51483545D01*
X59316159Y-51426769D01*
X59381112Y-51401022D01*
X59392478Y-51400500D01*
X59607522Y-51400500D01*
X59674561Y-51420185D01*
X59720316Y-51472989D01*
X59724563Y-51483545D01*
X59745883Y-51544475D01*
X59745884Y-51544476D01*
X59819504Y-51644228D01*
X59824289Y-51650711D01*
X59930525Y-51729116D01*
X60000107Y-51753464D01*
X60053955Y-51772307D01*
X60110731Y-51813029D01*
X60136478Y-51877982D01*
X60137000Y-51889348D01*
X60137000Y-52120462D01*
X60138706Y-52126827D01*
X60157479Y-52196890D01*
X60157480Y-52196891D01*
X60191087Y-52255100D01*
X60191088Y-52255102D01*
X60197037Y-52265407D01*
X60197039Y-52265410D01*
X60197040Y-52265411D01*
X60516340Y-52584711D01*
X60572289Y-52640660D01*
X60572291Y-52640661D01*
X60572295Y-52640664D01*
X60589332Y-52650500D01*
X60640811Y-52680221D01*
X60717238Y-52700700D01*
X61401536Y-52700700D01*
X61468575Y-52720385D01*
X61514330Y-52773189D01*
X61524274Y-52842347D01*
X61495249Y-52905903D01*
X61489217Y-52912381D01*
X58369200Y-56032399D01*
X58369200Y-57482883D01*
X58349515Y-57549922D01*
X58296711Y-57595677D01*
X58227553Y-57605621D01*
X58163997Y-57576596D01*
X58151224Y-57562119D01*
X58144553Y-57555448D01*
X58078230Y-57511132D01*
X58078229Y-57511131D01*
X58019752Y-57499500D01*
X58019748Y-57499500D01*
X54980252Y-57499500D01*
X54980247Y-57499500D01*
X54921770Y-57511131D01*
X54921769Y-57511132D01*
X54855447Y-57555447D01*
X54811132Y-57621769D01*
X54811131Y-57621770D01*
X54799500Y-57680247D01*
X54799500Y-60719752D01*
X54811131Y-60778229D01*
X54811132Y-60778230D01*
X54855447Y-60844552D01*
X54921769Y-60888867D01*
X54921770Y-60888868D01*
X54980247Y-60900499D01*
X54980250Y-60900500D01*
X55774170Y-60900500D01*
X55841209Y-60920185D01*
X55886964Y-60972989D01*
X55896908Y-61042147D01*
X55867883Y-61105703D01*
X55827971Y-61136220D01*
X55647374Y-61223190D01*
X55647372Y-61223191D01*
X55436782Y-61366768D01*
X55249952Y-61540121D01*
X55249950Y-61540123D01*
X55091041Y-61739388D01*
X54963608Y-61960109D01*
X54870492Y-62197362D01*
X54870490Y-62197369D01*
X54813777Y-62445845D01*
X54794732Y-62699995D01*
X54794732Y-62700004D01*
X54813777Y-62954154D01*
X54813778Y-62954157D01*
X54870492Y-63202637D01*
X54963607Y-63439888D01*
X55091041Y-63660612D01*
X55249950Y-63859877D01*
X55436783Y-64033232D01*
X55647366Y-64176805D01*
X55647371Y-64176807D01*
X55647372Y-64176808D01*
X55647373Y-64176809D01*
X55769328Y-64235538D01*
X55876992Y-64287387D01*
X55876993Y-64287387D01*
X55876996Y-64287389D01*
X55983360Y-64320197D01*
X56020029Y-64331509D01*
X56078288Y-64370080D01*
X56106446Y-64434024D01*
X56095562Y-64503041D01*
X56049093Y-64555218D01*
X56020029Y-64568491D01*
X55876992Y-64612612D01*
X55647373Y-64723190D01*
X55647372Y-64723191D01*
X55436782Y-64866768D01*
X55249952Y-65040121D01*
X55249950Y-65040123D01*
X55091041Y-65239388D01*
X54963608Y-65460109D01*
X54870492Y-65697362D01*
X54870490Y-65697369D01*
X54813777Y-65945845D01*
X54794732Y-66199995D01*
X54794732Y-66200004D01*
X54813777Y-66454154D01*
X54813778Y-66454157D01*
X54870492Y-66702637D01*
X54963607Y-66939888D01*
X55091041Y-67160612D01*
X55249950Y-67359877D01*
X55436783Y-67533232D01*
X55647366Y-67676805D01*
X55647371Y-67676807D01*
X55647372Y-67676808D01*
X55647373Y-67676809D01*
X55769328Y-67735538D01*
X55876992Y-67787387D01*
X55876993Y-67787387D01*
X55876996Y-67787389D01*
X56120542Y-67862513D01*
X56372565Y-67900500D01*
X56627435Y-67900500D01*
X56879458Y-67862513D01*
X57123004Y-67787389D01*
X57352634Y-67676805D01*
X57563217Y-67533232D01*
X57750050Y-67359877D01*
X57908959Y-67160612D01*
X58036393Y-66939888D01*
X58129508Y-66702637D01*
X58129508Y-66702636D01*
X58129772Y-66701964D01*
X58172588Y-66646751D01*
X58238458Y-66623450D01*
X58306469Y-66639461D01*
X58355027Y-66689699D01*
X58369200Y-66747267D01*
X58369200Y-67334837D01*
X58349515Y-67401876D01*
X58332881Y-67422518D01*
X56432735Y-69322663D01*
X56371412Y-69356148D01*
X56301720Y-69351164D01*
X56251341Y-69316184D01*
X56231129Y-69292858D01*
X56231128Y-69292857D01*
X56110053Y-69215047D01*
X56110051Y-69215046D01*
X56110049Y-69215045D01*
X56110050Y-69215045D01*
X55971963Y-69174500D01*
X55971961Y-69174500D01*
X55828039Y-69174500D01*
X55828036Y-69174500D01*
X55689949Y-69215045D01*
X55568873Y-69292856D01*
X55474623Y-69401626D01*
X55474622Y-69401628D01*
X55414834Y-69532543D01*
X55394353Y-69675000D01*
X55414834Y-69817456D01*
X55451553Y-69897857D01*
X55474623Y-69948373D01*
X55553336Y-70039213D01*
X55582360Y-70102767D01*
X55572416Y-70171925D01*
X55547303Y-70208095D01*
X54773319Y-70982081D01*
X54711996Y-71015566D01*
X54685638Y-71018400D01*
X50324500Y-71018400D01*
X50257461Y-70998715D01*
X50211706Y-70945911D01*
X50200500Y-70894400D01*
X50200500Y-69200000D01*
X50594540Y-69200000D01*
X50614326Y-69388256D01*
X50614327Y-69388259D01*
X50672818Y-69568277D01*
X50672821Y-69568284D01*
X50767467Y-69732216D01*
X50810042Y-69779500D01*
X50894129Y-69872888D01*
X51047265Y-69984148D01*
X51047270Y-69984151D01*
X51220192Y-70061142D01*
X51220197Y-70061144D01*
X51405354Y-70100500D01*
X51405355Y-70100500D01*
X51594644Y-70100500D01*
X51594646Y-70100500D01*
X51779803Y-70061144D01*
X51952730Y-69984151D01*
X52105871Y-69872888D01*
X52232533Y-69732216D01*
X52327179Y-69568284D01*
X52385674Y-69388256D01*
X52405460Y-69200000D01*
X52385674Y-69011744D01*
X52327179Y-68831716D01*
X52232533Y-68667784D01*
X52105871Y-68527112D01*
X52105870Y-68527111D01*
X51952734Y-68415851D01*
X51952729Y-68415848D01*
X51779807Y-68338857D01*
X51779802Y-68338855D01*
X51634001Y-68307865D01*
X51594646Y-68299500D01*
X51405354Y-68299500D01*
X51372897Y-68306398D01*
X51220197Y-68338855D01*
X51220192Y-68338857D01*
X51047270Y-68415848D01*
X51047265Y-68415851D01*
X50894129Y-68527111D01*
X50767466Y-68667785D01*
X50672821Y-68831715D01*
X50672818Y-68831722D01*
X50614327Y-69011740D01*
X50614326Y-69011744D01*
X50594540Y-69200000D01*
X50200500Y-69200000D01*
X50200500Y-56200000D01*
X50594540Y-56200000D01*
X50614326Y-56388256D01*
X50614327Y-56388259D01*
X50672818Y-56568277D01*
X50672821Y-56568284D01*
X50767467Y-56732216D01*
X50894129Y-56872888D01*
X51047265Y-56984148D01*
X51047270Y-56984151D01*
X51220192Y-57061142D01*
X51220197Y-57061144D01*
X51405354Y-57100500D01*
X51405355Y-57100500D01*
X51594644Y-57100500D01*
X51594646Y-57100500D01*
X51779803Y-57061144D01*
X51952730Y-56984151D01*
X52105871Y-56872888D01*
X52232533Y-56732216D01*
X52327179Y-56568284D01*
X52385674Y-56388256D01*
X52405460Y-56200000D01*
X52385674Y-56011744D01*
X52327179Y-55831716D01*
X52232533Y-55667784D01*
X52105871Y-55527112D01*
X52105870Y-55527111D01*
X51952734Y-55415851D01*
X51952729Y-55415848D01*
X51779807Y-55338857D01*
X51779802Y-55338855D01*
X51634001Y-55307865D01*
X51594646Y-55299500D01*
X51405354Y-55299500D01*
X51372897Y-55306398D01*
X51220197Y-55338855D01*
X51220192Y-55338857D01*
X51047270Y-55415848D01*
X51047265Y-55415851D01*
X50894129Y-55527111D01*
X50767466Y-55667785D01*
X50672821Y-55831715D01*
X50672818Y-55831722D01*
X50614327Y-56011740D01*
X50614326Y-56011744D01*
X50594540Y-56200000D01*
X50200500Y-56200000D01*
X50200500Y-53003480D01*
X50200695Y-52996527D01*
X50202740Y-52960118D01*
X50217713Y-52693494D01*
X50219267Y-52679700D01*
X50269523Y-52383915D01*
X50272616Y-52370363D01*
X50292962Y-52299743D01*
X50336102Y-52150000D01*
X53494353Y-52150000D01*
X53514834Y-52292456D01*
X53518162Y-52299743D01*
X53574623Y-52423373D01*
X53668872Y-52532143D01*
X53789947Y-52609953D01*
X53789950Y-52609954D01*
X53789949Y-52609954D01*
X53928036Y-52650499D01*
X53928038Y-52650500D01*
X53928039Y-52650500D01*
X54071962Y-52650500D01*
X54071962Y-52650499D01*
X54210053Y-52609953D01*
X54331128Y-52532143D01*
X54425377Y-52423373D01*
X54485165Y-52292457D01*
X54505647Y-52150000D01*
X54485165Y-52007543D01*
X54425377Y-51876627D01*
X54331128Y-51767857D01*
X54210053Y-51690047D01*
X54210051Y-51690046D01*
X54210049Y-51690045D01*
X54210050Y-51690045D01*
X54071963Y-51649500D01*
X54071961Y-51649500D01*
X53928039Y-51649500D01*
X53928036Y-51649500D01*
X53789949Y-51690045D01*
X53668873Y-51767856D01*
X53574623Y-51876626D01*
X53574622Y-51876628D01*
X53514834Y-52007543D01*
X53494353Y-52150000D01*
X50336102Y-52150000D01*
X50355673Y-52082068D01*
X50360265Y-52068948D01*
X50391828Y-51992748D01*
X50475075Y-51791768D01*
X50481097Y-51779262D01*
X50626230Y-51516665D01*
X50633625Y-51504897D01*
X50656265Y-51472989D01*
X50807245Y-51260201D01*
X50815896Y-51249354D01*
X51015816Y-51025645D01*
X51025647Y-51015815D01*
X51249354Y-50815896D01*
X51260201Y-50807245D01*
X51504902Y-50633621D01*
X51516665Y-50626230D01*
X51779262Y-50481097D01*
X51791768Y-50475075D01*
X52068948Y-50360265D01*
X52082068Y-50355673D01*
X52370369Y-50272614D01*
X52383915Y-50269523D01*
X52679700Y-50219267D01*
X52693494Y-50217713D01*
X52996528Y-50200695D01*
X53003481Y-50200500D01*
X56373425Y-50200500D01*
X56440464Y-50220185D01*
G37*
%TD.AperFunction*%
%TA.AperFunction,Conductor*%
G36*
X61171238Y-51651850D02*
G01*
X61216610Y-51695179D01*
X61280052Y-51798034D01*
X61280055Y-51798038D01*
X61370036Y-51888019D01*
X61403521Y-51949342D01*
X61398537Y-52019034D01*
X61356665Y-52074967D01*
X61291201Y-52099384D01*
X61282355Y-52099700D01*
X60932633Y-52099700D01*
X60865594Y-52080015D01*
X60844952Y-52063381D01*
X60774319Y-51992748D01*
X60740834Y-51931425D01*
X60738000Y-51905067D01*
X60738000Y-51889348D01*
X60757685Y-51822309D01*
X60810489Y-51776554D01*
X60821045Y-51772307D01*
X60872664Y-51754243D01*
X60944475Y-51729116D01*
X61037440Y-51660505D01*
X61103067Y-51636535D01*
X61171238Y-51651850D01*
G37*
%TD.AperFunction*%
%TD*%
M02*
