%TF.GenerationSoftware,KiCad,Pcbnew,8.0.9-8.0.9-0~ubuntu22.04.1*%
%TF.CreationDate,2025-03-29T20:24:42+09:00*%
%TF.ProjectId,blmd_hardware,626c6d64-5f68-4617-9264-776172652e6b,rev?*%
%TF.SameCoordinates,Original*%
%TF.FileFunction,Copper,L2,Inr*%
%TF.FilePolarity,Positive*%
%FSLAX46Y46*%
G04 Gerber Fmt 4.6, Leading zero omitted, Abs format (unit mm)*
G04 Created by KiCad (PCBNEW 8.0.9-8.0.9-0~ubuntu22.04.1) date 2025-03-29 20:24:42*
%MOMM*%
%LPD*%
G01*
G04 APERTURE LIST*
%TA.AperFunction,ComponentPad*%
%ADD10R,1.700000X1.700000*%
%TD*%
%TA.AperFunction,ComponentPad*%
%ADD11O,1.700000X1.700000*%
%TD*%
%TA.AperFunction,ComponentPad*%
%ADD12R,2.000000X2.000000*%
%TD*%
%TA.AperFunction,ComponentPad*%
%ADD13C,2.000000*%
%TD*%
%TA.AperFunction,ComponentPad*%
%ADD14C,1.400000*%
%TD*%
%TA.AperFunction,ComponentPad*%
%ADD15R,3.000000X3.000000*%
%TD*%
%TA.AperFunction,ComponentPad*%
%ADD16C,3.000000*%
%TD*%
%TA.AperFunction,ViaPad*%
%ADD17C,0.600000*%
%TD*%
%TA.AperFunction,Conductor*%
%ADD18C,0.350000*%
%TD*%
%TA.AperFunction,Conductor*%
%ADD19C,0.200000*%
%TD*%
%TA.AperFunction,Conductor*%
%ADD20C,0.500000*%
%TD*%
G04 APERTURE END LIST*
D10*
%TO.N,+12VA*%
%TO.C,J4*%
X67560000Y-72400000D03*
D11*
X67560000Y-74940000D03*
X65020000Y-72400000D03*
X65020000Y-74940000D03*
X62480000Y-72400000D03*
X62480000Y-74940000D03*
X59940000Y-72400000D03*
X59940000Y-74940000D03*
X57400000Y-72400000D03*
X57400000Y-74940000D03*
X54860000Y-72400000D03*
X54860000Y-74940000D03*
X52320000Y-72400000D03*
X52320000Y-74940000D03*
%TD*%
D10*
%TO.N,GND*%
%TO.C,J3*%
X85340000Y-72400000D03*
D11*
X85340000Y-74940000D03*
X82800000Y-72400000D03*
X82800000Y-74940000D03*
X80260000Y-72400000D03*
X80260000Y-74940000D03*
X77720000Y-72400000D03*
X77720000Y-74940000D03*
X75180000Y-72400000D03*
X75180000Y-74940000D03*
X72640000Y-72400000D03*
X72640000Y-74940000D03*
X70100000Y-72400000D03*
X70100000Y-74940000D03*
%TD*%
D12*
%TO.N,+12VA*%
%TO.C,C1*%
X70733523Y-55219600D03*
D13*
%TO.N,GND*%
X75733523Y-55219600D03*
%TD*%
D14*
%TO.N,*%
%TO.C,J1*%
X51500000Y-69200000D03*
X51500000Y-56200000D03*
D15*
%TO.N,SOC*%
X56500000Y-59200000D03*
D16*
%TO.N,HSB*%
X56500000Y-62700000D03*
%TO.N,SOA*%
X56500000Y-66200000D03*
%TD*%
D10*
%TO.N,+3.3V*%
%TO.C,J2*%
X98100000Y-72400000D03*
D11*
%TO.N,+5VD*%
X98100000Y-74940000D03*
%TO.N,SPD1*%
X95560000Y-72400000D03*
%TO.N,GNDD*%
X95560000Y-74940000D03*
%TO.N,SPD2*%
X93020000Y-72400000D03*
%TO.N,unconnected-(J2-Pin_6-Pad6)*%
X93020000Y-74940000D03*
%TO.N,CANH*%
X90480000Y-72400000D03*
%TO.N,CANL*%
X90480000Y-74940000D03*
%TD*%
D17*
%TO.N,+12VA*%
X85450000Y-66600000D03*
X59055000Y-57150000D03*
X69850000Y-50800000D03*
X67310000Y-50800000D03*
X70485000Y-51435000D03*
X70485000Y-50800000D03*
X62230000Y-59055000D03*
X71120000Y-51435000D03*
X69215000Y-51435000D03*
X59690000Y-57150000D03*
X61595000Y-56515000D03*
X59690000Y-56515000D03*
X72390000Y-56515000D03*
X60960000Y-56515000D03*
X69215000Y-53975000D03*
X68580000Y-55245000D03*
X67945000Y-54610000D03*
X61595000Y-57785000D03*
X69215000Y-55245000D03*
X67945000Y-51435000D03*
X69215000Y-50800000D03*
X60325000Y-57785000D03*
X71755000Y-51435000D03*
X71755000Y-50800000D03*
X72390000Y-51435000D03*
X61595000Y-57150000D03*
X87866300Y-54287500D03*
X67945000Y-50800000D03*
X72390000Y-53975000D03*
X62230000Y-59690000D03*
X62865000Y-59055000D03*
X60960000Y-57785000D03*
X59055000Y-57785000D03*
X67945000Y-53975000D03*
X69215000Y-54610000D03*
X71120000Y-50800000D03*
X62865000Y-59690000D03*
X62865000Y-58420000D03*
X69215000Y-55880000D03*
X68580000Y-54610000D03*
X67310000Y-53975000D03*
X68580000Y-53975000D03*
X59690000Y-57785000D03*
X68580000Y-50800000D03*
X62865000Y-57785000D03*
X60325000Y-57150000D03*
X67310000Y-51435000D03*
X62230000Y-57785000D03*
X69850000Y-51435000D03*
X60325000Y-56515000D03*
X68580000Y-51435000D03*
X60960000Y-57150000D03*
X62230000Y-57150000D03*
X59055000Y-56515000D03*
X72390000Y-50800000D03*
X62230000Y-58420000D03*
%TO.N,HSA*%
X73100000Y-68350000D03*
X66250000Y-67450000D03*
%TO.N,HSB*%
X67300000Y-63500000D03*
X73100000Y-65250000D03*
%TO.N,HSC*%
X66900000Y-56500000D03*
X73100000Y-62150000D03*
%TO.N,+3V3*%
X84124800Y-53060600D03*
X95700000Y-62700000D03*
X95935800Y-69672200D03*
X62100000Y-70280000D03*
X55900000Y-69675000D03*
X89738200Y-68503800D03*
X82400000Y-57100000D03*
X54000000Y-52150000D03*
%TO.N,GNDD*%
X97162000Y-66795000D03*
%TO.N,NRST*%
X92700000Y-57600000D03*
%TO.N,SCA*%
X75100000Y-70400000D03*
X84400000Y-60050000D03*
%TO.N,SCC*%
X86900000Y-60900000D03*
X62001400Y-52400200D03*
%TO.N,SWCLK*%
X79900000Y-68900000D03*
X92900000Y-59400000D03*
%TO.N,SWDIO*%
X79100000Y-68900000D03*
X92910000Y-60400000D03*
%TO.N,SWO*%
X92900000Y-58400000D03*
X82200000Y-66600000D03*
%TO.N,GND*%
X73660000Y-57785000D03*
X52705000Y-77470000D03*
X80010000Y-55245000D03*
X94615000Y-77470000D03*
X53340000Y-55245000D03*
X81915000Y-77470000D03*
X50800000Y-67945000D03*
X88265000Y-76200000D03*
X73025000Y-77470000D03*
X90728800Y-59100000D03*
X57886600Y-68935600D03*
X84455000Y-51435000D03*
X97790000Y-64770000D03*
X78105000Y-77470000D03*
X95885000Y-66675000D03*
X62865000Y-77470000D03*
X53340000Y-70485000D03*
X52070000Y-53975000D03*
X50800000Y-52705000D03*
X53340000Y-59055000D03*
X92075000Y-77470000D03*
X74295000Y-77470000D03*
X91643200Y-61544200D03*
X95885000Y-77470000D03*
X66675000Y-77470000D03*
X50800000Y-62865000D03*
X87630000Y-55245000D03*
X99060000Y-63500000D03*
X53340000Y-62865000D03*
X78740000Y-55245000D03*
X59055000Y-77470000D03*
X53340000Y-65405000D03*
X89535000Y-77470000D03*
X93980000Y-62865000D03*
X53975000Y-77470000D03*
X74295000Y-51435000D03*
X52070000Y-60325000D03*
X72390000Y-57785000D03*
X52070000Y-65405000D03*
X75565000Y-77470000D03*
X50800000Y-64135000D03*
X88265000Y-74930000D03*
X70485000Y-77470000D03*
X86995000Y-77470000D03*
X52070000Y-67945000D03*
X53340000Y-57785000D03*
X67945000Y-77470000D03*
X81915000Y-51435000D03*
X50800000Y-60325000D03*
X52070000Y-66675000D03*
X84302600Y-57912000D03*
X55245000Y-77470000D03*
X50800000Y-61595000D03*
X95250000Y-51435000D03*
X97790000Y-51435000D03*
X85725000Y-51435000D03*
X86461600Y-57581800D03*
X97155000Y-77470000D03*
X52070000Y-57785000D03*
X85200000Y-60050000D03*
X53340000Y-61595000D03*
X52070000Y-64135000D03*
X71120000Y-57785000D03*
X80645000Y-77470000D03*
X99060000Y-64770000D03*
X61595000Y-77470000D03*
X50800000Y-59055000D03*
X79984600Y-61671200D03*
X52070000Y-62865000D03*
X53340000Y-60325000D03*
X69215000Y-77470000D03*
X52070000Y-61595000D03*
X90805000Y-77470000D03*
X83185000Y-77470000D03*
X71755000Y-77470000D03*
X98425000Y-77470000D03*
X56515000Y-77470000D03*
X53340000Y-64135000D03*
X61341000Y-51765200D03*
X85725000Y-77470000D03*
X79375000Y-77470000D03*
X88265000Y-77470000D03*
X50800000Y-57785000D03*
X50800000Y-65405000D03*
X53340000Y-56515000D03*
X93980000Y-51435000D03*
X57785000Y-77470000D03*
X83050000Y-66600000D03*
X65405000Y-77470000D03*
X88265000Y-73660000D03*
X76200000Y-57785000D03*
X76835000Y-77470000D03*
X53340000Y-66675000D03*
X83185000Y-51435000D03*
X53340000Y-69215000D03*
X51435000Y-77470000D03*
X84455000Y-77470000D03*
X50800000Y-53975000D03*
X52070000Y-59055000D03*
X93345000Y-77470000D03*
X77470000Y-56515000D03*
X50800000Y-66675000D03*
X52070000Y-52705000D03*
X64135000Y-77470000D03*
X96520000Y-51435000D03*
X60325000Y-77470000D03*
X53340000Y-67945000D03*
%TO.N,BOOTA*%
X73100000Y-67550000D03*
%TO.N,Net-(Q1-G)*%
X66852800Y-68351400D03*
X73100000Y-69150000D03*
%TO.N,Net-(Q2-G)*%
X63474600Y-60401200D03*
X73100000Y-66050000D03*
%TO.N,Net-(Q4-G)*%
X67400000Y-67200000D03*
%TO.N,Net-(Q5-G)*%
X67500000Y-60096400D03*
%TO.N,Net-(Q6-G)*%
X68200000Y-57135000D03*
%TO.N,LOA*%
X81700000Y-60050000D03*
%TO.N,LOB*%
X80900000Y-60050000D03*
%TO.N,LOC*%
X80100000Y-60050000D03*
%TO.N,ID1*%
X84650000Y-66600000D03*
%TO.N,ID2*%
X83850000Y-66600000D03*
%TO.N,ID_DISP*%
X90800000Y-57100000D03*
X80600000Y-64600000D03*
%TO.N,BOOTB*%
X73100000Y-64450000D03*
%TO.N,RXD*%
X88800000Y-64150000D03*
X78100000Y-68100000D03*
%TO.N,TXD*%
X90900000Y-62000000D03*
X78900000Y-68100000D03*
%TO.N,BOOTC*%
X73100000Y-61350000D03*
%TO.N,+12V*%
X88190050Y-68700000D03*
X88773000Y-57048400D03*
X77393800Y-58648600D03*
%TO.N,MON*%
X87900000Y-58900000D03*
X90700000Y-58100000D03*
%TO.N,USART_TX*%
X80000000Y-65400000D03*
X93900000Y-52800000D03*
%TO.N,USART_RX*%
X80000000Y-66200000D03*
X94700000Y-52800000D03*
%TO.N,Net-(U1-PB1)*%
X83600000Y-60050000D03*
%TO.N,REF0*%
X86800000Y-60050000D03*
%TO.N,Net-(U1-PA7)*%
X86000000Y-60050000D03*
%TO.N,Net-(U1-PC1)*%
X86900000Y-62550000D03*
%TO.N,Net-(U4-VIOUT)*%
X61290200Y-71069200D03*
X67000000Y-69150000D03*
%TO.N,Net-(U5-VIOUT)*%
X56108600Y-51917600D03*
%TO.N,STATUS*%
X81900000Y-68900000D03*
X90000000Y-57100000D03*
%TO.N,Net-(U1-SCREF)*%
X81100000Y-68900000D03*
%TO.N,Net-(U1-PB8{slash}BOOOT0)*%
X84700000Y-68700000D03*
%TO.N,SPD1_O*%
X95300000Y-68900000D03*
X82700000Y-68900000D03*
%TO.N,SPD2_O*%
X83500000Y-68900000D03*
X95300000Y-68100000D03*
%TD*%
D18*
%TO.N,+12VA*%
X70733523Y-55219600D02*
X72174195Y-55219600D01*
D19*
X73474195Y-53919600D02*
X72174195Y-55219600D01*
X87866300Y-54287500D02*
X87498400Y-53919600D01*
D18*
X82879595Y-65925000D02*
X84929595Y-65925000D01*
X85450000Y-66445405D02*
X85450000Y-66600000D01*
X84929595Y-65925000D02*
X85450000Y-66445405D01*
X72174195Y-55219600D02*
X82879595Y-65925000D01*
D19*
X87498400Y-53919600D02*
X73474195Y-53919600D01*
D18*
%TO.N,+3V3*%
X95542000Y-62700000D02*
X95700000Y-62700000D01*
X62555000Y-69825000D02*
X62100000Y-70280000D01*
X95700000Y-62700000D02*
X95700000Y-59645405D01*
X63296800Y-69825000D02*
X62555000Y-69825000D01*
X95700000Y-59645405D02*
X89115195Y-53060600D01*
X88569800Y-69672200D02*
X89738200Y-68503800D01*
X89115195Y-53060600D02*
X84124800Y-53060600D01*
X89738200Y-68503800D02*
X95542000Y-62700000D01*
X54925200Y-53075200D02*
X54000000Y-52150000D01*
X82925000Y-57625000D02*
X82925000Y-61690600D01*
X74040600Y-69825000D02*
X74193400Y-69672200D01*
X55900000Y-69675000D02*
X56050000Y-69825000D01*
X74193400Y-69672200D02*
X88569800Y-69672200D01*
X82925000Y-61690600D02*
X89738200Y-68503800D01*
X82400000Y-57100000D02*
X82925000Y-57625000D01*
X56050000Y-69825000D02*
X63296800Y-69825000D01*
X63296800Y-69825000D02*
X74040600Y-69825000D01*
X84110200Y-53075200D02*
X54925200Y-53075200D01*
X84124800Y-53060600D02*
X84110200Y-53075200D01*
D19*
%TO.N,+12V*%
X82300000Y-62495404D02*
X82863798Y-63059202D01*
X88224600Y-56500000D02*
X88773000Y-57048400D01*
D18*
X88190050Y-68700000D02*
X88190050Y-68385455D01*
X82863798Y-63059202D02*
X80612195Y-60807600D01*
D19*
X82300000Y-59801471D02*
X82300000Y-62495404D01*
X81762600Y-56888871D02*
X82151471Y-56500000D01*
D18*
X80612195Y-60807600D02*
X79552800Y-60807600D01*
X79552800Y-60807600D02*
X77393800Y-58648600D01*
X88190050Y-68385455D02*
X82863798Y-63059202D01*
D19*
X81762600Y-59264071D02*
X81762600Y-56888871D01*
X82151471Y-56500000D02*
X88224600Y-56500000D01*
X81762600Y-59264071D02*
X82300000Y-59801471D01*
D20*
%TO.N,+3.3V*%
X98100000Y-72400000D02*
X97950000Y-72250000D01*
%TD*%
%TA.AperFunction,Conductor*%
%TO.N,GND*%
G36*
X88975335Y-53455785D02*
G01*
X88995977Y-53472419D01*
X92486858Y-56963300D01*
X92520343Y-57024623D01*
X92515359Y-57094315D01*
X92473487Y-57150248D01*
X92466217Y-57155296D01*
X92368874Y-57217855D01*
X92274623Y-57326626D01*
X92274622Y-57326628D01*
X92214834Y-57457543D01*
X92194353Y-57600000D01*
X92214834Y-57742456D01*
X92253275Y-57826628D01*
X92274623Y-57873373D01*
X92368872Y-57982143D01*
X92368874Y-57982144D01*
X92368873Y-57982144D01*
X92411250Y-58009378D01*
X92457004Y-58062182D01*
X92466948Y-58131340D01*
X92457005Y-58165204D01*
X92414834Y-58257545D01*
X92394353Y-58400000D01*
X92414834Y-58542456D01*
X92453275Y-58626628D01*
X92474623Y-58673373D01*
X92568872Y-58782143D01*
X92576324Y-58786932D01*
X92589943Y-58795685D01*
X92635698Y-58848489D01*
X92645641Y-58917648D01*
X92616615Y-58981203D01*
X92589943Y-59004315D01*
X92568874Y-59017855D01*
X92474623Y-59126626D01*
X92474622Y-59126628D01*
X92414834Y-59257543D01*
X92394353Y-59400000D01*
X92414834Y-59542456D01*
X92456010Y-59632617D01*
X92474623Y-59673373D01*
X92568872Y-59782143D01*
X92594942Y-59798897D01*
X92640697Y-59851701D01*
X92650641Y-59920860D01*
X92621616Y-59984416D01*
X92594944Y-60007527D01*
X92578876Y-60017853D01*
X92578874Y-60017855D01*
X92484623Y-60126626D01*
X92484622Y-60126628D01*
X92424834Y-60257543D01*
X92404353Y-60400000D01*
X92424834Y-60542456D01*
X92484622Y-60673371D01*
X92484623Y-60673373D01*
X92578872Y-60782143D01*
X92699947Y-60859953D01*
X92699950Y-60859954D01*
X92699949Y-60859954D01*
X92802432Y-60890045D01*
X92836336Y-60900000D01*
X92838036Y-60900499D01*
X92838038Y-60900500D01*
X92838039Y-60900500D01*
X92981962Y-60900500D01*
X92981962Y-60900499D01*
X93120053Y-60859953D01*
X93241128Y-60782143D01*
X93335377Y-60673373D01*
X93395165Y-60542457D01*
X93415647Y-60400000D01*
X93395165Y-60257543D01*
X93335377Y-60126627D01*
X93241128Y-60017857D01*
X93241122Y-60017853D01*
X93215056Y-60001101D01*
X93169301Y-59948297D01*
X93159358Y-59879138D01*
X93188384Y-59815583D01*
X93215054Y-59792472D01*
X93231128Y-59782143D01*
X93325377Y-59673373D01*
X93385165Y-59542457D01*
X93405647Y-59400000D01*
X93385165Y-59257543D01*
X93325377Y-59126627D01*
X93231128Y-59017857D01*
X93231125Y-59017855D01*
X93231125Y-59017854D01*
X93210058Y-59004316D01*
X93164302Y-58951513D01*
X93154358Y-58882354D01*
X93183382Y-58818798D01*
X93210058Y-58795684D01*
X93231125Y-58782145D01*
X93231125Y-58782144D01*
X93231128Y-58782143D01*
X93325377Y-58673373D01*
X93385165Y-58542457D01*
X93405647Y-58400000D01*
X93385165Y-58257543D01*
X93337866Y-58153975D01*
X93327923Y-58084819D01*
X93356948Y-58021263D01*
X93415725Y-57983488D01*
X93485595Y-57983488D01*
X93538342Y-58014784D01*
X95288181Y-59764623D01*
X95321666Y-59825946D01*
X95324500Y-59852304D01*
X95324500Y-62322815D01*
X95304815Y-62389854D01*
X95294215Y-62404016D01*
X95274622Y-62426627D01*
X95269828Y-62434088D01*
X95269155Y-62433656D01*
X95250640Y-62460320D01*
X89825880Y-67885080D01*
X89764557Y-67918565D01*
X89694865Y-67913581D01*
X89650518Y-67885080D01*
X85915438Y-64150000D01*
X88294353Y-64150000D01*
X88314834Y-64292456D01*
X88362560Y-64396959D01*
X88374623Y-64423373D01*
X88468872Y-64532143D01*
X88589947Y-64609953D01*
X88589950Y-64609954D01*
X88589949Y-64609954D01*
X88728036Y-64650499D01*
X88728038Y-64650500D01*
X88728039Y-64650500D01*
X88871962Y-64650500D01*
X88871962Y-64650499D01*
X89010053Y-64609953D01*
X89131128Y-64532143D01*
X89225377Y-64423373D01*
X89285165Y-64292457D01*
X89305647Y-64150000D01*
X89285165Y-64007543D01*
X89225377Y-63876627D01*
X89131128Y-63767857D01*
X89010053Y-63690047D01*
X89010051Y-63690046D01*
X89010049Y-63690045D01*
X89010050Y-63690045D01*
X88871963Y-63649500D01*
X88871961Y-63649500D01*
X88728039Y-63649500D01*
X88728036Y-63649500D01*
X88589949Y-63690045D01*
X88468873Y-63767856D01*
X88374623Y-63876626D01*
X88374622Y-63876628D01*
X88314834Y-64007543D01*
X88294353Y-64150000D01*
X85915438Y-64150000D01*
X84315438Y-62550000D01*
X86394353Y-62550000D01*
X86414834Y-62692456D01*
X86474622Y-62823371D01*
X86474623Y-62823373D01*
X86568872Y-62932143D01*
X86689947Y-63009953D01*
X86689950Y-63009954D01*
X86689949Y-63009954D01*
X86828036Y-63050499D01*
X86828038Y-63050500D01*
X86828039Y-63050500D01*
X86971962Y-63050500D01*
X86971962Y-63050499D01*
X87110053Y-63009953D01*
X87231128Y-62932143D01*
X87325377Y-62823373D01*
X87385165Y-62692457D01*
X87405647Y-62550000D01*
X87385165Y-62407543D01*
X87325377Y-62276627D01*
X87231128Y-62167857D01*
X87110053Y-62090047D01*
X87110051Y-62090046D01*
X87110049Y-62090045D01*
X87110050Y-62090045D01*
X86971963Y-62049500D01*
X86971961Y-62049500D01*
X86828039Y-62049500D01*
X86828036Y-62049500D01*
X86689949Y-62090045D01*
X86568873Y-62167856D01*
X86474623Y-62276626D01*
X86474622Y-62276628D01*
X86414834Y-62407543D01*
X86394353Y-62550000D01*
X84315438Y-62550000D01*
X83765438Y-62000000D01*
X90394353Y-62000000D01*
X90414834Y-62142456D01*
X90447281Y-62213504D01*
X90474623Y-62273373D01*
X90568872Y-62382143D01*
X90689947Y-62459953D01*
X90689950Y-62459954D01*
X90689949Y-62459954D01*
X90828036Y-62500499D01*
X90828038Y-62500500D01*
X90828039Y-62500500D01*
X90971962Y-62500500D01*
X90971962Y-62500499D01*
X91110053Y-62459953D01*
X91231128Y-62382143D01*
X91325377Y-62273373D01*
X91385165Y-62142457D01*
X91405647Y-62000000D01*
X91385165Y-61857543D01*
X91325377Y-61726627D01*
X91231128Y-61617857D01*
X91110053Y-61540047D01*
X91110051Y-61540046D01*
X91110049Y-61540045D01*
X91110050Y-61540045D01*
X90971963Y-61499500D01*
X90971961Y-61499500D01*
X90828039Y-61499500D01*
X90828036Y-61499500D01*
X90689949Y-61540045D01*
X90568873Y-61617856D01*
X90474623Y-61726626D01*
X90474622Y-61726628D01*
X90414834Y-61857543D01*
X90394353Y-62000000D01*
X83765438Y-62000000D01*
X83336819Y-61571381D01*
X83303334Y-61510058D01*
X83300500Y-61483700D01*
X83300500Y-60649333D01*
X83320185Y-60582294D01*
X83372989Y-60536539D01*
X83442147Y-60526595D01*
X83459431Y-60530355D01*
X83480492Y-60536539D01*
X83528038Y-60550500D01*
X83528039Y-60550500D01*
X83671962Y-60550500D01*
X83671962Y-60550499D01*
X83783138Y-60517856D01*
X83810050Y-60509954D01*
X83810051Y-60509954D01*
X83810056Y-60509951D01*
X83931128Y-60432143D01*
X83931129Y-60432141D01*
X83932960Y-60430965D01*
X84000000Y-60411280D01*
X84067039Y-60430964D01*
X84067040Y-60430965D01*
X84068870Y-60432141D01*
X84068872Y-60432143D01*
X84102929Y-60454030D01*
X84189948Y-60509954D01*
X84328036Y-60550499D01*
X84328038Y-60550500D01*
X84328039Y-60550500D01*
X84471962Y-60550500D01*
X84471962Y-60550499D01*
X84583138Y-60517856D01*
X84610050Y-60509954D01*
X84610050Y-60509953D01*
X84610053Y-60509953D01*
X84731128Y-60432143D01*
X84825377Y-60323373D01*
X84885165Y-60192457D01*
X84905647Y-60050000D01*
X85494353Y-60050000D01*
X85514834Y-60192456D01*
X85522931Y-60210185D01*
X85574623Y-60323373D01*
X85668872Y-60432143D01*
X85789947Y-60509953D01*
X85789950Y-60509954D01*
X85789949Y-60509954D01*
X85928036Y-60550499D01*
X85928038Y-60550500D01*
X85928039Y-60550500D01*
X86071962Y-60550500D01*
X86071962Y-60550499D01*
X86183138Y-60517856D01*
X86210050Y-60509954D01*
X86210051Y-60509954D01*
X86210056Y-60509951D01*
X86309716Y-60445903D01*
X86376753Y-60426219D01*
X86443793Y-60445903D01*
X86489548Y-60498707D01*
X86499492Y-60567865D01*
X86476833Y-60617505D01*
X86479418Y-60619166D01*
X86474622Y-60626628D01*
X86414834Y-60757543D01*
X86394353Y-60900000D01*
X86414834Y-61042456D01*
X86473222Y-61170305D01*
X86474623Y-61173373D01*
X86568872Y-61282143D01*
X86689947Y-61359953D01*
X86689950Y-61359954D01*
X86689949Y-61359954D01*
X86828036Y-61400499D01*
X86828038Y-61400500D01*
X86828039Y-61400500D01*
X86971962Y-61400500D01*
X86971962Y-61400499D01*
X87110053Y-61359953D01*
X87231128Y-61282143D01*
X87325377Y-61173373D01*
X87385165Y-61042457D01*
X87405647Y-60900000D01*
X87385165Y-60757543D01*
X87325377Y-60626627D01*
X87231128Y-60517857D01*
X87231124Y-60517854D01*
X87225302Y-60512809D01*
X87187528Y-60454030D01*
X87187529Y-60384161D01*
X87212793Y-60337894D01*
X87225377Y-60323373D01*
X87285165Y-60192457D01*
X87305647Y-60050000D01*
X87285165Y-59907543D01*
X87225377Y-59776627D01*
X87131128Y-59667857D01*
X87010053Y-59590047D01*
X87010051Y-59590046D01*
X87010049Y-59590045D01*
X87010050Y-59590045D01*
X86871963Y-59549500D01*
X86871961Y-59549500D01*
X86728039Y-59549500D01*
X86728036Y-59549500D01*
X86589949Y-59590045D01*
X86467039Y-59669035D01*
X86400000Y-59688719D01*
X86332961Y-59669035D01*
X86282253Y-59636447D01*
X86210053Y-59590047D01*
X86210051Y-59590046D01*
X86210049Y-59590045D01*
X86210050Y-59590045D01*
X86071963Y-59549500D01*
X86071961Y-59549500D01*
X85928039Y-59549500D01*
X85928036Y-59549500D01*
X85789949Y-59590045D01*
X85668873Y-59667856D01*
X85574623Y-59776626D01*
X85574622Y-59776628D01*
X85514834Y-59907543D01*
X85494353Y-60050000D01*
X84905647Y-60050000D01*
X84885165Y-59907543D01*
X84825377Y-59776627D01*
X84731128Y-59667857D01*
X84610053Y-59590047D01*
X84610051Y-59590046D01*
X84610049Y-59590045D01*
X84610050Y-59590045D01*
X84471963Y-59549500D01*
X84471961Y-59549500D01*
X84328039Y-59549500D01*
X84328036Y-59549500D01*
X84189949Y-59590045D01*
X84067039Y-59669035D01*
X84000000Y-59688719D01*
X83932961Y-59669035D01*
X83882253Y-59636447D01*
X83810053Y-59590047D01*
X83810051Y-59590046D01*
X83810049Y-59590045D01*
X83810050Y-59590045D01*
X83671963Y-59549500D01*
X83671961Y-59549500D01*
X83528039Y-59549500D01*
X83528035Y-59549500D01*
X83459434Y-59569643D01*
X83389564Y-59569643D01*
X83330786Y-59531868D01*
X83301762Y-59468312D01*
X83300500Y-59450666D01*
X83300500Y-58900000D01*
X87394353Y-58900000D01*
X87414834Y-59042456D01*
X87453275Y-59126628D01*
X87474623Y-59173373D01*
X87568872Y-59282143D01*
X87689947Y-59359953D01*
X87689950Y-59359954D01*
X87689949Y-59359954D01*
X87797107Y-59391417D01*
X87826336Y-59400000D01*
X87828036Y-59400499D01*
X87828038Y-59400500D01*
X87828039Y-59400500D01*
X87971962Y-59400500D01*
X87971962Y-59400499D01*
X88110053Y-59359953D01*
X88231128Y-59282143D01*
X88325377Y-59173373D01*
X88385165Y-59042457D01*
X88405647Y-58900000D01*
X88385165Y-58757543D01*
X88325377Y-58626627D01*
X88231128Y-58517857D01*
X88110053Y-58440047D01*
X88110051Y-58440046D01*
X88110049Y-58440045D01*
X88110050Y-58440045D01*
X87971963Y-58399500D01*
X87971961Y-58399500D01*
X87828039Y-58399500D01*
X87828036Y-58399500D01*
X87689949Y-58440045D01*
X87568873Y-58517856D01*
X87474623Y-58626626D01*
X87474622Y-58626628D01*
X87414834Y-58757543D01*
X87394353Y-58900000D01*
X83300500Y-58900000D01*
X83300500Y-57575567D01*
X83300500Y-57575565D01*
X83274910Y-57480062D01*
X83225475Y-57394438D01*
X83155562Y-57324525D01*
X82930566Y-57099529D01*
X82897081Y-57038206D01*
X82895509Y-57029493D01*
X82893497Y-57015500D01*
X82885512Y-56959954D01*
X82883903Y-56948763D01*
X82885722Y-56948501D01*
X82885716Y-56889578D01*
X82923484Y-56830796D01*
X82987037Y-56801764D01*
X83004697Y-56800500D01*
X88048767Y-56800500D01*
X88115806Y-56820185D01*
X88136448Y-56836819D01*
X88233604Y-56933975D01*
X88267089Y-56995298D01*
X88268661Y-57039302D01*
X88267353Y-57048399D01*
X88287834Y-57190856D01*
X88347622Y-57321771D01*
X88347623Y-57321773D01*
X88441872Y-57430543D01*
X88562947Y-57508353D01*
X88562950Y-57508354D01*
X88562949Y-57508354D01*
X88701036Y-57548899D01*
X88701038Y-57548900D01*
X88701039Y-57548900D01*
X88844962Y-57548900D01*
X88844962Y-57548899D01*
X88953117Y-57517143D01*
X88983050Y-57508354D01*
X88983050Y-57508353D01*
X88983053Y-57508353D01*
X89104128Y-57430543D01*
X89198377Y-57321773D01*
X89258165Y-57190857D01*
X89260052Y-57177731D01*
X89289074Y-57114175D01*
X89347851Y-57076399D01*
X89417721Y-57076397D01*
X89476500Y-57114169D01*
X89505527Y-57177724D01*
X89505528Y-57177727D01*
X89514834Y-57242456D01*
X89553275Y-57326628D01*
X89574623Y-57373373D01*
X89668872Y-57482143D01*
X89789947Y-57559953D01*
X89789950Y-57559954D01*
X89789949Y-57559954D01*
X89869014Y-57583169D01*
X89926336Y-57600000D01*
X89928036Y-57600499D01*
X89928038Y-57600500D01*
X89928039Y-57600500D01*
X90071961Y-57600500D01*
X90201389Y-57562497D01*
X90271257Y-57562497D01*
X90330035Y-57600271D01*
X90359060Y-57663827D01*
X90349116Y-57732985D01*
X90330036Y-57762676D01*
X90274623Y-57826627D01*
X90274622Y-57826628D01*
X90214834Y-57957543D01*
X90194353Y-58100000D01*
X90214834Y-58242456D01*
X90234492Y-58285500D01*
X90274623Y-58373373D01*
X90368872Y-58482143D01*
X90489947Y-58559953D01*
X90489950Y-58559954D01*
X90489949Y-58559954D01*
X90628036Y-58600499D01*
X90628038Y-58600500D01*
X90628039Y-58600500D01*
X90771962Y-58600500D01*
X90771962Y-58600499D01*
X90901525Y-58562457D01*
X90910050Y-58559954D01*
X90910050Y-58559953D01*
X90910053Y-58559953D01*
X91031128Y-58482143D01*
X91125377Y-58373373D01*
X91185165Y-58242457D01*
X91205647Y-58100000D01*
X91185165Y-57957543D01*
X91125377Y-57826627D01*
X91107106Y-57805541D01*
X91029418Y-57715883D01*
X91000393Y-57652328D01*
X91010337Y-57583169D01*
X91056090Y-57530366D01*
X91131128Y-57482143D01*
X91225377Y-57373373D01*
X91285165Y-57242457D01*
X91305647Y-57100000D01*
X91285165Y-56957543D01*
X91225377Y-56826627D01*
X91131128Y-56717857D01*
X91010053Y-56640047D01*
X91010051Y-56640046D01*
X91010049Y-56640045D01*
X91010050Y-56640045D01*
X90871963Y-56599500D01*
X90871961Y-56599500D01*
X90728039Y-56599500D01*
X90728036Y-56599500D01*
X90589949Y-56640045D01*
X90467039Y-56719035D01*
X90400000Y-56738719D01*
X90332961Y-56719035D01*
X90331126Y-56717856D01*
X90210053Y-56640047D01*
X90210051Y-56640046D01*
X90210049Y-56640045D01*
X90210050Y-56640045D01*
X90071963Y-56599500D01*
X90071961Y-56599500D01*
X89928039Y-56599500D01*
X89928036Y-56599500D01*
X89789949Y-56640045D01*
X89668873Y-56717856D01*
X89574623Y-56826626D01*
X89574622Y-56826628D01*
X89514835Y-56957543D01*
X89512947Y-56970673D01*
X89483921Y-57034228D01*
X89425142Y-57072002D01*
X89355272Y-57072001D01*
X89296495Y-57034225D01*
X89267471Y-56970670D01*
X89266411Y-56963300D01*
X89258165Y-56905943D01*
X89198377Y-56775027D01*
X89104128Y-56666257D01*
X88983053Y-56588447D01*
X88983051Y-56588446D01*
X88983049Y-56588445D01*
X88983050Y-56588445D01*
X88844963Y-56547900D01*
X88844961Y-56547900D01*
X88748833Y-56547900D01*
X88681794Y-56528215D01*
X88661152Y-56511581D01*
X88409112Y-56259541D01*
X88409104Y-56259535D01*
X88340595Y-56219982D01*
X88340590Y-56219979D01*
X88315113Y-56213152D01*
X88264162Y-56199500D01*
X82191033Y-56199500D01*
X82111909Y-56199500D01*
X82035481Y-56219978D01*
X81966960Y-56259540D01*
X81966957Y-56259542D01*
X81522141Y-56704358D01*
X81522135Y-56704366D01*
X81482582Y-56772875D01*
X81482579Y-56772880D01*
X81474840Y-56801764D01*
X81462100Y-56849309D01*
X81462100Y-59303633D01*
X81468729Y-59328373D01*
X81482579Y-59380061D01*
X81482580Y-59380062D01*
X81494380Y-59400500D01*
X81502659Y-59414840D01*
X81513883Y-59434280D01*
X81530355Y-59502180D01*
X81507502Y-59568207D01*
X81473534Y-59600595D01*
X81367039Y-59669035D01*
X81300000Y-59688719D01*
X81232961Y-59669035D01*
X81182253Y-59636447D01*
X81110053Y-59590047D01*
X81110051Y-59590046D01*
X81110049Y-59590045D01*
X81110050Y-59590045D01*
X80971963Y-59549500D01*
X80971961Y-59549500D01*
X80828039Y-59549500D01*
X80828036Y-59549500D01*
X80689949Y-59590045D01*
X80567039Y-59669035D01*
X80500000Y-59688719D01*
X80432961Y-59669035D01*
X80382253Y-59636447D01*
X80310053Y-59590047D01*
X80310051Y-59590046D01*
X80310049Y-59590045D01*
X80310050Y-59590045D01*
X80171963Y-59549500D01*
X80171961Y-59549500D01*
X80028039Y-59549500D01*
X80028036Y-59549500D01*
X79889949Y-59590045D01*
X79768873Y-59667856D01*
X79674623Y-59776626D01*
X79674622Y-59776628D01*
X79614834Y-59907543D01*
X79595903Y-60039214D01*
X79566878Y-60102769D01*
X79508099Y-60140543D01*
X79438230Y-60140543D01*
X79385484Y-60109247D01*
X77924366Y-58648129D01*
X77890881Y-58586806D01*
X77889309Y-58578093D01*
X77886701Y-58559954D01*
X77878965Y-58506143D01*
X77848779Y-58440045D01*
X77819179Y-58375230D01*
X77819176Y-58375226D01*
X77724928Y-58266457D01*
X77603853Y-58188647D01*
X77603851Y-58188646D01*
X77603849Y-58188645D01*
X77603850Y-58188645D01*
X77465763Y-58148100D01*
X77465761Y-58148100D01*
X77321839Y-58148100D01*
X77321836Y-58148100D01*
X77183749Y-58188645D01*
X77062673Y-58266456D01*
X76968423Y-58375226D01*
X76968422Y-58375228D01*
X76908634Y-58506143D01*
X76888153Y-58648600D01*
X76908634Y-58791056D01*
X76940099Y-58859953D01*
X76968423Y-58921973D01*
X77062672Y-59030743D01*
X77183747Y-59108553D01*
X77183750Y-59108554D01*
X77183749Y-59108554D01*
X77321837Y-59149100D01*
X77329364Y-59150182D01*
X77392920Y-59179204D01*
X77399402Y-59185239D01*
X79252325Y-61038162D01*
X79322238Y-61108075D01*
X79407862Y-61157510D01*
X79455611Y-61170305D01*
X79455612Y-61170305D01*
X79465703Y-61173008D01*
X79503364Y-61183100D01*
X79503365Y-61183100D01*
X80405296Y-61183100D01*
X80472335Y-61202785D01*
X80492977Y-61219419D01*
X82640300Y-63366742D01*
X82640306Y-63366747D01*
X84611378Y-65337819D01*
X84644863Y-65399142D01*
X84639879Y-65468834D01*
X84598007Y-65524767D01*
X84532543Y-65549184D01*
X84523697Y-65549500D01*
X83086495Y-65549500D01*
X83019456Y-65529815D01*
X82998814Y-65513181D01*
X72739880Y-55254247D01*
X72706395Y-55192924D01*
X72711379Y-55123232D01*
X72739880Y-55078885D01*
X73149123Y-54669643D01*
X73562347Y-54256419D01*
X73623670Y-54222934D01*
X73650028Y-54220100D01*
X74669210Y-54220100D01*
X74736249Y-54239785D01*
X74782004Y-54292589D01*
X74791948Y-54361747D01*
X74770785Y-54415223D01*
X74646858Y-54592208D01*
X74646856Y-54592212D01*
X74554421Y-54790440D01*
X74554417Y-54790449D01*
X74497812Y-55001705D01*
X74497810Y-55001715D01*
X74478748Y-55219599D01*
X74478748Y-55219600D01*
X74497810Y-55437484D01*
X74497812Y-55437494D01*
X74554417Y-55648750D01*
X74554421Y-55648759D01*
X74646856Y-55846987D01*
X74690397Y-55909171D01*
X75250560Y-55349008D01*
X75267598Y-55412593D01*
X75333424Y-55526607D01*
X75426516Y-55619699D01*
X75540530Y-55685525D01*
X75604113Y-55702562D01*
X75043950Y-56262724D01*
X75106135Y-56306266D01*
X75304363Y-56398701D01*
X75304372Y-56398705D01*
X75515628Y-56455310D01*
X75515638Y-56455312D01*
X75733522Y-56474375D01*
X75733524Y-56474375D01*
X75951407Y-56455312D01*
X75951417Y-56455310D01*
X76162673Y-56398705D01*
X76162687Y-56398700D01*
X76360906Y-56306269D01*
X76360908Y-56306268D01*
X76423094Y-56262724D01*
X75862933Y-55702562D01*
X75926516Y-55685525D01*
X76040530Y-55619699D01*
X76133622Y-55526607D01*
X76199448Y-55412593D01*
X76216485Y-55349008D01*
X76776647Y-55909170D01*
X76820191Y-55846985D01*
X76820192Y-55846983D01*
X76912623Y-55648764D01*
X76912628Y-55648750D01*
X76969233Y-55437494D01*
X76969235Y-55437484D01*
X76988298Y-55219600D01*
X76988298Y-55219599D01*
X76969235Y-55001715D01*
X76969233Y-55001705D01*
X76912628Y-54790449D01*
X76912624Y-54790440D01*
X76820189Y-54592212D01*
X76820187Y-54592208D01*
X76696261Y-54415223D01*
X76673934Y-54349017D01*
X76690944Y-54281250D01*
X76741892Y-54233437D01*
X76797836Y-54220100D01*
X87243516Y-54220100D01*
X87310555Y-54239785D01*
X87356310Y-54292589D01*
X87366254Y-54326454D01*
X87381134Y-54429956D01*
X87401934Y-54475500D01*
X87440923Y-54560873D01*
X87535172Y-54669643D01*
X87656247Y-54747453D01*
X87656250Y-54747454D01*
X87656249Y-54747454D01*
X87794336Y-54787999D01*
X87794338Y-54788000D01*
X87794339Y-54788000D01*
X87938262Y-54788000D01*
X87938262Y-54787999D01*
X88076353Y-54747453D01*
X88197428Y-54669643D01*
X88291677Y-54560873D01*
X88351465Y-54429957D01*
X88371947Y-54287500D01*
X88351465Y-54145043D01*
X88291677Y-54014127D01*
X88197428Y-53905357D01*
X88076353Y-53827547D01*
X88076351Y-53827546D01*
X88076349Y-53827545D01*
X88076350Y-53827545D01*
X87938263Y-53787000D01*
X87938261Y-53787000D01*
X87842133Y-53787000D01*
X87775094Y-53767315D01*
X87754452Y-53750681D01*
X87682912Y-53679141D01*
X87682907Y-53679137D01*
X87662728Y-53667487D01*
X87614512Y-53616920D01*
X87601289Y-53548313D01*
X87627257Y-53483448D01*
X87684171Y-53442920D01*
X87724728Y-53436100D01*
X88908296Y-53436100D01*
X88975335Y-53455785D01*
G37*
%TD.AperFunction*%
%TA.AperFunction,Conductor*%
G36*
X66964298Y-50220185D02*
G01*
X67010053Y-50272989D01*
X67019997Y-50342147D01*
X66990972Y-50405703D01*
X66979233Y-50417440D01*
X66884623Y-50526626D01*
X66884622Y-50526628D01*
X66824834Y-50657543D01*
X66804353Y-50800000D01*
X66824834Y-50942456D01*
X66881250Y-51065988D01*
X66891194Y-51135147D01*
X66881250Y-51169012D01*
X66824834Y-51292543D01*
X66804353Y-51435000D01*
X66824834Y-51577456D01*
X66857736Y-51649500D01*
X66884623Y-51708373D01*
X66978872Y-51817143D01*
X67099947Y-51894953D01*
X67099950Y-51894954D01*
X67099949Y-51894954D01*
X67238036Y-51935499D01*
X67238038Y-51935500D01*
X67238039Y-51935500D01*
X67381962Y-51935500D01*
X67381962Y-51935499D01*
X67520053Y-51894953D01*
X67560460Y-51868984D01*
X67627498Y-51849299D01*
X67694533Y-51868980D01*
X67734947Y-51894953D01*
X67734949Y-51894954D01*
X67873036Y-51935499D01*
X67873038Y-51935500D01*
X67873039Y-51935500D01*
X68016962Y-51935500D01*
X68016962Y-51935499D01*
X68155053Y-51894953D01*
X68195460Y-51868984D01*
X68262498Y-51849299D01*
X68329533Y-51868980D01*
X68369947Y-51894953D01*
X68369949Y-51894954D01*
X68508036Y-51935499D01*
X68508038Y-51935500D01*
X68508039Y-51935500D01*
X68651962Y-51935500D01*
X68651962Y-51935499D01*
X68790053Y-51894953D01*
X68830460Y-51868984D01*
X68897498Y-51849299D01*
X68964533Y-51868980D01*
X69004947Y-51894953D01*
X69004949Y-51894954D01*
X69143036Y-51935499D01*
X69143038Y-51935500D01*
X69143039Y-51935500D01*
X69286962Y-51935500D01*
X69286962Y-51935499D01*
X69425053Y-51894953D01*
X69465460Y-51868984D01*
X69532498Y-51849299D01*
X69599533Y-51868980D01*
X69639947Y-51894953D01*
X69639949Y-51894954D01*
X69778036Y-51935499D01*
X69778038Y-51935500D01*
X69778039Y-51935500D01*
X69921962Y-51935500D01*
X69921962Y-51935499D01*
X70060053Y-51894953D01*
X70100460Y-51868984D01*
X70167498Y-51849299D01*
X70234533Y-51868980D01*
X70274947Y-51894953D01*
X70274949Y-51894954D01*
X70413036Y-51935499D01*
X70413038Y-51935500D01*
X70413039Y-51935500D01*
X70556962Y-51935500D01*
X70556962Y-51935499D01*
X70695053Y-51894953D01*
X70735460Y-51868984D01*
X70802498Y-51849299D01*
X70869533Y-51868980D01*
X70909947Y-51894953D01*
X70909949Y-51894954D01*
X71048036Y-51935499D01*
X71048038Y-51935500D01*
X71048039Y-51935500D01*
X71191962Y-51935500D01*
X71191962Y-51935499D01*
X71330053Y-51894953D01*
X71370460Y-51868984D01*
X71437498Y-51849299D01*
X71504533Y-51868980D01*
X71544947Y-51894953D01*
X71544949Y-51894954D01*
X71683036Y-51935499D01*
X71683038Y-51935500D01*
X71683039Y-51935500D01*
X71826962Y-51935500D01*
X71826962Y-51935499D01*
X71965053Y-51894953D01*
X72005460Y-51868984D01*
X72072498Y-51849299D01*
X72139533Y-51868980D01*
X72179947Y-51894953D01*
X72179949Y-51894954D01*
X72318036Y-51935499D01*
X72318038Y-51935500D01*
X72318039Y-51935500D01*
X72461962Y-51935500D01*
X72461962Y-51935499D01*
X72600053Y-51894953D01*
X72721128Y-51817143D01*
X72815377Y-51708373D01*
X72875165Y-51577457D01*
X72895647Y-51435000D01*
X72875165Y-51292543D01*
X72818748Y-51169009D01*
X72808805Y-51099854D01*
X72818747Y-51065992D01*
X72875165Y-50942457D01*
X72895647Y-50800000D01*
X72875165Y-50657543D01*
X72815377Y-50526627D01*
X72721128Y-50417857D01*
X72721126Y-50417855D01*
X72715320Y-50411155D01*
X72716401Y-50410218D01*
X72683764Y-50359435D01*
X72683764Y-50289566D01*
X72721538Y-50230787D01*
X72785093Y-50201762D01*
X72802741Y-50200500D01*
X96960118Y-50200500D01*
X96996519Y-50200500D01*
X97003472Y-50200695D01*
X97306503Y-50217713D01*
X97320301Y-50219267D01*
X97616080Y-50269522D01*
X97629634Y-50272615D01*
X97766864Y-50312151D01*
X97917927Y-50355672D01*
X97931051Y-50360265D01*
X98208222Y-50475072D01*
X98220744Y-50481101D01*
X98303116Y-50526627D01*
X98483328Y-50626227D01*
X98495102Y-50633625D01*
X98592353Y-50702628D01*
X98739789Y-50807239D01*
X98750657Y-50815907D01*
X98974352Y-51015815D01*
X98984184Y-51025647D01*
X99184092Y-51249342D01*
X99192763Y-51260214D01*
X99366374Y-51504897D01*
X99373772Y-51516671D01*
X99518894Y-51779248D01*
X99524927Y-51791777D01*
X99639734Y-52068948D01*
X99644327Y-52082072D01*
X99727383Y-52370363D01*
X99730477Y-52383920D01*
X99780730Y-52679688D01*
X99782287Y-52693506D01*
X99799305Y-52996527D01*
X99799500Y-53003480D01*
X99799500Y-76495933D01*
X99799235Y-76504043D01*
X99784636Y-76726778D01*
X99782518Y-76742859D01*
X99739769Y-76957771D01*
X99735571Y-76973438D01*
X99665133Y-77180942D01*
X99658926Y-77195928D01*
X99562007Y-77392460D01*
X99553897Y-77406507D01*
X99432154Y-77588708D01*
X99422280Y-77601576D01*
X99277797Y-77766328D01*
X99266328Y-77777797D01*
X99101576Y-77922280D01*
X99088708Y-77932154D01*
X98906507Y-78053897D01*
X98892460Y-78062007D01*
X98695928Y-78158926D01*
X98680942Y-78165133D01*
X98473438Y-78235571D01*
X98457771Y-78239769D01*
X98242859Y-78282518D01*
X98226778Y-78284636D01*
X98004043Y-78299235D01*
X97995933Y-78299500D01*
X52004067Y-78299500D01*
X51995957Y-78299235D01*
X51773221Y-78284636D01*
X51757140Y-78282518D01*
X51542228Y-78239769D01*
X51526561Y-78235571D01*
X51319057Y-78165133D01*
X51304071Y-78158926D01*
X51107539Y-78062007D01*
X51093492Y-78053897D01*
X50911291Y-77932154D01*
X50898423Y-77922280D01*
X50733671Y-77777797D01*
X50722202Y-77766328D01*
X50669730Y-77706495D01*
X50577716Y-77601573D01*
X50567845Y-77588708D01*
X50446102Y-77406507D01*
X50437992Y-77392460D01*
X50435196Y-77386791D01*
X50341070Y-77195921D01*
X50334866Y-77180942D01*
X50264428Y-76973438D01*
X50260230Y-76957771D01*
X50248217Y-76897376D01*
X50217479Y-76742848D01*
X50215364Y-76726790D01*
X50200765Y-76504043D01*
X50200500Y-76495933D01*
X50200500Y-74940000D01*
X51264417Y-74940000D01*
X51284699Y-75145932D01*
X51284700Y-75145934D01*
X51344768Y-75343954D01*
X51442315Y-75526450D01*
X51442317Y-75526452D01*
X51573589Y-75686410D01*
X51670209Y-75765702D01*
X51733550Y-75817685D01*
X51916046Y-75915232D01*
X52114066Y-75975300D01*
X52114065Y-75975300D01*
X52132529Y-75977118D01*
X52320000Y-75995583D01*
X52525934Y-75975300D01*
X52723954Y-75915232D01*
X52906450Y-75817685D01*
X53066410Y-75686410D01*
X53197685Y-75526450D01*
X53295232Y-75343954D01*
X53355300Y-75145934D01*
X53375583Y-74940000D01*
X53804417Y-74940000D01*
X53824699Y-75145932D01*
X53824700Y-75145934D01*
X53884768Y-75343954D01*
X53982315Y-75526450D01*
X53982317Y-75526452D01*
X54113589Y-75686410D01*
X54210209Y-75765702D01*
X54273550Y-75817685D01*
X54456046Y-75915232D01*
X54654066Y-75975300D01*
X54654065Y-75975300D01*
X54672529Y-75977118D01*
X54860000Y-75995583D01*
X55065934Y-75975300D01*
X55263954Y-75915232D01*
X55446450Y-75817685D01*
X55606410Y-75686410D01*
X55737685Y-75526450D01*
X55835232Y-75343954D01*
X55895300Y-75145934D01*
X55915583Y-74940000D01*
X56344417Y-74940000D01*
X56364699Y-75145932D01*
X56364700Y-75145934D01*
X56424768Y-75343954D01*
X56522315Y-75526450D01*
X56522317Y-75526452D01*
X56653589Y-75686410D01*
X56750209Y-75765702D01*
X56813550Y-75817685D01*
X56996046Y-75915232D01*
X57194066Y-75975300D01*
X57194065Y-75975300D01*
X57212529Y-75977118D01*
X57400000Y-75995583D01*
X57605934Y-75975300D01*
X57803954Y-75915232D01*
X57986450Y-75817685D01*
X58146410Y-75686410D01*
X58277685Y-75526450D01*
X58375232Y-75343954D01*
X58435300Y-75145934D01*
X58455583Y-74940000D01*
X58884417Y-74940000D01*
X58904699Y-75145932D01*
X58904700Y-75145934D01*
X58964768Y-75343954D01*
X59062315Y-75526450D01*
X59062317Y-75526452D01*
X59193589Y-75686410D01*
X59290209Y-75765702D01*
X59353550Y-75817685D01*
X59536046Y-75915232D01*
X59734066Y-75975300D01*
X59734065Y-75975300D01*
X59752529Y-75977118D01*
X59940000Y-75995583D01*
X60145934Y-75975300D01*
X60343954Y-75915232D01*
X60526450Y-75817685D01*
X60686410Y-75686410D01*
X60817685Y-75526450D01*
X60915232Y-75343954D01*
X60975300Y-75145934D01*
X60995583Y-74940000D01*
X61424417Y-74940000D01*
X61444699Y-75145932D01*
X61444700Y-75145934D01*
X61504768Y-75343954D01*
X61602315Y-75526450D01*
X61602317Y-75526452D01*
X61733589Y-75686410D01*
X61830209Y-75765702D01*
X61893550Y-75817685D01*
X62076046Y-75915232D01*
X62274066Y-75975300D01*
X62274065Y-75975300D01*
X62292529Y-75977118D01*
X62480000Y-75995583D01*
X62685934Y-75975300D01*
X62883954Y-75915232D01*
X63066450Y-75817685D01*
X63226410Y-75686410D01*
X63357685Y-75526450D01*
X63455232Y-75343954D01*
X63515300Y-75145934D01*
X63535583Y-74940000D01*
X63964417Y-74940000D01*
X63984699Y-75145932D01*
X63984700Y-75145934D01*
X64044768Y-75343954D01*
X64142315Y-75526450D01*
X64142317Y-75526452D01*
X64273589Y-75686410D01*
X64370209Y-75765702D01*
X64433550Y-75817685D01*
X64616046Y-75915232D01*
X64814066Y-75975300D01*
X64814065Y-75975300D01*
X64832529Y-75977118D01*
X65020000Y-75995583D01*
X65225934Y-75975300D01*
X65423954Y-75915232D01*
X65606450Y-75817685D01*
X65766410Y-75686410D01*
X65897685Y-75526450D01*
X65995232Y-75343954D01*
X66055300Y-75145934D01*
X66075583Y-74940000D01*
X66504417Y-74940000D01*
X66524699Y-75145932D01*
X66524700Y-75145934D01*
X66584768Y-75343954D01*
X66682315Y-75526450D01*
X66682317Y-75526452D01*
X66813589Y-75686410D01*
X66910209Y-75765702D01*
X66973550Y-75817685D01*
X67156046Y-75915232D01*
X67354066Y-75975300D01*
X67354065Y-75975300D01*
X67372529Y-75977118D01*
X67560000Y-75995583D01*
X67765934Y-75975300D01*
X67963954Y-75915232D01*
X68146450Y-75817685D01*
X68306410Y-75686410D01*
X68437685Y-75526450D01*
X68535232Y-75343954D01*
X68595300Y-75145934D01*
X68615583Y-74940000D01*
X68595300Y-74734066D01*
X68581933Y-74689999D01*
X69027471Y-74689999D01*
X69027472Y-74690000D01*
X69666988Y-74690000D01*
X69634075Y-74747007D01*
X69600000Y-74874174D01*
X69600000Y-75005826D01*
X69634075Y-75132993D01*
X69666988Y-75190000D01*
X69027472Y-75190000D01*
X69069885Y-75339065D01*
X69069890Y-75339078D01*
X69160754Y-75521556D01*
X69283608Y-75684242D01*
X69434260Y-75821578D01*
X69607584Y-75928897D01*
X69797678Y-76002539D01*
X69850000Y-76012320D01*
X69850000Y-75373012D01*
X69907007Y-75405925D01*
X70034174Y-75440000D01*
X70165826Y-75440000D01*
X70292993Y-75405925D01*
X70350000Y-75373012D01*
X70350000Y-76012320D01*
X70402321Y-76002539D01*
X70592415Y-75928897D01*
X70765739Y-75821578D01*
X70916391Y-75684242D01*
X71039245Y-75521556D01*
X71130109Y-75339078D01*
X71130114Y-75339065D01*
X71172528Y-75190000D01*
X70533012Y-75190000D01*
X70565925Y-75132993D01*
X70600000Y-75005826D01*
X70600000Y-74874174D01*
X70565925Y-74747007D01*
X70533012Y-74690000D01*
X71172528Y-74690000D01*
X71172528Y-74689999D01*
X71567471Y-74689999D01*
X71567472Y-74690000D01*
X72206988Y-74690000D01*
X72174075Y-74747007D01*
X72140000Y-74874174D01*
X72140000Y-75005826D01*
X72174075Y-75132993D01*
X72206988Y-75190000D01*
X71567472Y-75190000D01*
X71609885Y-75339065D01*
X71609890Y-75339078D01*
X71700754Y-75521556D01*
X71823608Y-75684242D01*
X71974260Y-75821578D01*
X72147584Y-75928897D01*
X72337678Y-76002539D01*
X72390000Y-76012320D01*
X72390000Y-75373012D01*
X72447007Y-75405925D01*
X72574174Y-75440000D01*
X72705826Y-75440000D01*
X72832993Y-75405925D01*
X72890000Y-75373012D01*
X72890000Y-76012320D01*
X72942321Y-76002539D01*
X73132415Y-75928897D01*
X73305739Y-75821578D01*
X73456391Y-75684242D01*
X73579245Y-75521556D01*
X73670109Y-75339078D01*
X73670114Y-75339065D01*
X73712528Y-75190000D01*
X73073012Y-75190000D01*
X73105925Y-75132993D01*
X73140000Y-75005826D01*
X73140000Y-74874174D01*
X73105925Y-74747007D01*
X73073012Y-74690000D01*
X73712528Y-74690000D01*
X73712528Y-74689999D01*
X74107471Y-74689999D01*
X74107472Y-74690000D01*
X74746988Y-74690000D01*
X74714075Y-74747007D01*
X74680000Y-74874174D01*
X74680000Y-75005826D01*
X74714075Y-75132993D01*
X74746988Y-75190000D01*
X74107472Y-75190000D01*
X74149885Y-75339065D01*
X74149890Y-75339078D01*
X74240754Y-75521556D01*
X74363608Y-75684242D01*
X74514260Y-75821578D01*
X74687584Y-75928897D01*
X74877678Y-76002539D01*
X74930000Y-76012320D01*
X74930000Y-75373012D01*
X74987007Y-75405925D01*
X75114174Y-75440000D01*
X75245826Y-75440000D01*
X75372993Y-75405925D01*
X75430000Y-75373012D01*
X75430000Y-76012320D01*
X75482321Y-76002539D01*
X75672415Y-75928897D01*
X75845739Y-75821578D01*
X75996391Y-75684242D01*
X76119245Y-75521556D01*
X76210109Y-75339078D01*
X76210114Y-75339065D01*
X76252528Y-75190000D01*
X75613012Y-75190000D01*
X75645925Y-75132993D01*
X75680000Y-75005826D01*
X75680000Y-74874174D01*
X75645925Y-74747007D01*
X75613012Y-74690000D01*
X76252528Y-74690000D01*
X76252528Y-74689999D01*
X76647471Y-74689999D01*
X76647472Y-74690000D01*
X77286988Y-74690000D01*
X77254075Y-74747007D01*
X77220000Y-74874174D01*
X77220000Y-75005826D01*
X77254075Y-75132993D01*
X77286988Y-75190000D01*
X76647472Y-75190000D01*
X76689885Y-75339065D01*
X76689890Y-75339078D01*
X76780754Y-75521556D01*
X76903608Y-75684242D01*
X77054260Y-75821578D01*
X77227584Y-75928897D01*
X77417678Y-76002539D01*
X77470000Y-76012320D01*
X77470000Y-75373012D01*
X77527007Y-75405925D01*
X77654174Y-75440000D01*
X77785826Y-75440000D01*
X77912993Y-75405925D01*
X77970000Y-75373012D01*
X77970000Y-76012320D01*
X78022321Y-76002539D01*
X78212415Y-75928897D01*
X78385739Y-75821578D01*
X78536391Y-75684242D01*
X78659245Y-75521556D01*
X78750109Y-75339078D01*
X78750114Y-75339065D01*
X78792528Y-75190000D01*
X78153012Y-75190000D01*
X78185925Y-75132993D01*
X78220000Y-75005826D01*
X78220000Y-74874174D01*
X78185925Y-74747007D01*
X78153012Y-74690000D01*
X78792528Y-74690000D01*
X78792528Y-74689999D01*
X79187471Y-74689999D01*
X79187472Y-74690000D01*
X79826988Y-74690000D01*
X79794075Y-74747007D01*
X79760000Y-74874174D01*
X79760000Y-75005826D01*
X79794075Y-75132993D01*
X79826988Y-75190000D01*
X79187472Y-75190000D01*
X79229885Y-75339065D01*
X79229890Y-75339078D01*
X79320754Y-75521556D01*
X79443608Y-75684242D01*
X79594260Y-75821578D01*
X79767584Y-75928897D01*
X79957678Y-76002539D01*
X80010000Y-76012320D01*
X80010000Y-75373012D01*
X80067007Y-75405925D01*
X80194174Y-75440000D01*
X80325826Y-75440000D01*
X80452993Y-75405925D01*
X80510000Y-75373012D01*
X80510000Y-76012320D01*
X80562321Y-76002539D01*
X80752415Y-75928897D01*
X80925739Y-75821578D01*
X81076391Y-75684242D01*
X81199245Y-75521556D01*
X81290109Y-75339078D01*
X81290114Y-75339065D01*
X81332528Y-75190000D01*
X80693012Y-75190000D01*
X80725925Y-75132993D01*
X80760000Y-75005826D01*
X80760000Y-74874174D01*
X80725925Y-74747007D01*
X80693012Y-74690000D01*
X81332528Y-74690000D01*
X81332528Y-74689999D01*
X81727471Y-74689999D01*
X81727472Y-74690000D01*
X82366988Y-74690000D01*
X82334075Y-74747007D01*
X82300000Y-74874174D01*
X82300000Y-75005826D01*
X82334075Y-75132993D01*
X82366988Y-75190000D01*
X81727472Y-75190000D01*
X81769885Y-75339065D01*
X81769890Y-75339078D01*
X81860754Y-75521556D01*
X81983608Y-75684242D01*
X82134260Y-75821578D01*
X82307584Y-75928897D01*
X82497678Y-76002539D01*
X82550000Y-76012320D01*
X82550000Y-75373012D01*
X82607007Y-75405925D01*
X82734174Y-75440000D01*
X82865826Y-75440000D01*
X82992993Y-75405925D01*
X83050000Y-75373012D01*
X83050000Y-76012320D01*
X83102321Y-76002539D01*
X83292415Y-75928897D01*
X83465739Y-75821578D01*
X83616391Y-75684242D01*
X83739245Y-75521556D01*
X83830109Y-75339078D01*
X83830114Y-75339065D01*
X83872528Y-75190000D01*
X83233012Y-75190000D01*
X83265925Y-75132993D01*
X83300000Y-75005826D01*
X83300000Y-74874174D01*
X83265925Y-74747007D01*
X83233012Y-74690000D01*
X83872528Y-74690000D01*
X83872528Y-74689999D01*
X84267471Y-74689999D01*
X84267472Y-74690000D01*
X84906988Y-74690000D01*
X84874075Y-74747007D01*
X84840000Y-74874174D01*
X84840000Y-75005826D01*
X84874075Y-75132993D01*
X84906988Y-75190000D01*
X84267472Y-75190000D01*
X84309885Y-75339065D01*
X84309890Y-75339078D01*
X84400754Y-75521556D01*
X84523608Y-75684242D01*
X84674260Y-75821578D01*
X84847584Y-75928897D01*
X85037678Y-76002539D01*
X85090000Y-76012320D01*
X85090000Y-75373012D01*
X85147007Y-75405925D01*
X85274174Y-75440000D01*
X85405826Y-75440000D01*
X85532993Y-75405925D01*
X85590000Y-75373012D01*
X85590000Y-76012320D01*
X85642321Y-76002539D01*
X85832415Y-75928897D01*
X86005739Y-75821578D01*
X86156391Y-75684242D01*
X86279245Y-75521556D01*
X86370109Y-75339078D01*
X86370114Y-75339065D01*
X86412528Y-75190000D01*
X85773012Y-75190000D01*
X85805925Y-75132993D01*
X85840000Y-75005826D01*
X85840000Y-74940000D01*
X89424417Y-74940000D01*
X89444699Y-75145932D01*
X89444700Y-75145934D01*
X89504768Y-75343954D01*
X89602315Y-75526450D01*
X89602317Y-75526452D01*
X89733589Y-75686410D01*
X89830209Y-75765702D01*
X89893550Y-75817685D01*
X90076046Y-75915232D01*
X90274066Y-75975300D01*
X90274065Y-75975300D01*
X90292529Y-75977118D01*
X90480000Y-75995583D01*
X90685934Y-75975300D01*
X90883954Y-75915232D01*
X91066450Y-75817685D01*
X91226410Y-75686410D01*
X91357685Y-75526450D01*
X91455232Y-75343954D01*
X91515300Y-75145934D01*
X91535583Y-74940000D01*
X91964417Y-74940000D01*
X91984699Y-75145932D01*
X91984700Y-75145934D01*
X92044768Y-75343954D01*
X92142315Y-75526450D01*
X92142317Y-75526452D01*
X92273589Y-75686410D01*
X92370209Y-75765702D01*
X92433550Y-75817685D01*
X92616046Y-75915232D01*
X92814066Y-75975300D01*
X92814065Y-75975300D01*
X92832529Y-75977118D01*
X93020000Y-75995583D01*
X93225934Y-75975300D01*
X93423954Y-75915232D01*
X93606450Y-75817685D01*
X93766410Y-75686410D01*
X93897685Y-75526450D01*
X93995232Y-75343954D01*
X94055300Y-75145934D01*
X94075583Y-74940000D01*
X94504417Y-74940000D01*
X94524699Y-75145932D01*
X94524700Y-75145934D01*
X94584768Y-75343954D01*
X94682315Y-75526450D01*
X94682317Y-75526452D01*
X94813589Y-75686410D01*
X94910209Y-75765702D01*
X94973550Y-75817685D01*
X95156046Y-75915232D01*
X95354066Y-75975300D01*
X95354065Y-75975300D01*
X95372529Y-75977118D01*
X95560000Y-75995583D01*
X95765934Y-75975300D01*
X95963954Y-75915232D01*
X96146450Y-75817685D01*
X96306410Y-75686410D01*
X96437685Y-75526450D01*
X96535232Y-75343954D01*
X96595300Y-75145934D01*
X96615583Y-74940000D01*
X97044417Y-74940000D01*
X97064699Y-75145932D01*
X97064700Y-75145934D01*
X97124768Y-75343954D01*
X97222315Y-75526450D01*
X97222317Y-75526452D01*
X97353589Y-75686410D01*
X97450209Y-75765702D01*
X97513550Y-75817685D01*
X97696046Y-75915232D01*
X97894066Y-75975300D01*
X97894065Y-75975300D01*
X97912529Y-75977118D01*
X98100000Y-75995583D01*
X98305934Y-75975300D01*
X98503954Y-75915232D01*
X98686450Y-75817685D01*
X98846410Y-75686410D01*
X98977685Y-75526450D01*
X99075232Y-75343954D01*
X99135300Y-75145934D01*
X99155583Y-74940000D01*
X99135300Y-74734066D01*
X99075232Y-74536046D01*
X98977685Y-74353550D01*
X98925702Y-74290209D01*
X98846410Y-74193589D01*
X98686452Y-74062317D01*
X98686453Y-74062317D01*
X98686450Y-74062315D01*
X98503954Y-73964768D01*
X98305934Y-73904700D01*
X98305932Y-73904699D01*
X98305934Y-73904699D01*
X98100000Y-73884417D01*
X97894067Y-73904699D01*
X97696043Y-73964769D01*
X97585898Y-74023643D01*
X97513550Y-74062315D01*
X97513548Y-74062316D01*
X97513547Y-74062317D01*
X97353589Y-74193589D01*
X97222317Y-74353547D01*
X97124769Y-74536043D01*
X97064699Y-74734067D01*
X97044417Y-74940000D01*
X96615583Y-74940000D01*
X96595300Y-74734066D01*
X96535232Y-74536046D01*
X96437685Y-74353550D01*
X96385702Y-74290209D01*
X96306410Y-74193589D01*
X96146452Y-74062317D01*
X96146453Y-74062317D01*
X96146450Y-74062315D01*
X95963954Y-73964768D01*
X95765934Y-73904700D01*
X95765932Y-73904699D01*
X95765934Y-73904699D01*
X95560000Y-73884417D01*
X95354067Y-73904699D01*
X95156043Y-73964769D01*
X95045898Y-74023643D01*
X94973550Y-74062315D01*
X94973548Y-74062316D01*
X94973547Y-74062317D01*
X94813589Y-74193589D01*
X94682317Y-74353547D01*
X94584769Y-74536043D01*
X94524699Y-74734067D01*
X94504417Y-74940000D01*
X94075583Y-74940000D01*
X94055300Y-74734066D01*
X93995232Y-74536046D01*
X93897685Y-74353550D01*
X93845702Y-74290209D01*
X93766410Y-74193589D01*
X93606452Y-74062317D01*
X93606453Y-74062317D01*
X93606450Y-74062315D01*
X93423954Y-73964768D01*
X93225934Y-73904700D01*
X93225932Y-73904699D01*
X93225934Y-73904699D01*
X93020000Y-73884417D01*
X92814067Y-73904699D01*
X92616043Y-73964769D01*
X92505898Y-74023643D01*
X92433550Y-74062315D01*
X92433548Y-74062316D01*
X92433547Y-74062317D01*
X92273589Y-74193589D01*
X92142317Y-74353547D01*
X92044769Y-74536043D01*
X91984699Y-74734067D01*
X91964417Y-74940000D01*
X91535583Y-74940000D01*
X91515300Y-74734066D01*
X91455232Y-74536046D01*
X91357685Y-74353550D01*
X91305702Y-74290209D01*
X91226410Y-74193589D01*
X91066452Y-74062317D01*
X91066453Y-74062317D01*
X91066450Y-74062315D01*
X90883954Y-73964768D01*
X90685934Y-73904700D01*
X90685932Y-73904699D01*
X90685934Y-73904699D01*
X90480000Y-73884417D01*
X90274067Y-73904699D01*
X90076043Y-73964769D01*
X89965898Y-74023643D01*
X89893550Y-74062315D01*
X89893548Y-74062316D01*
X89893547Y-74062317D01*
X89733589Y-74193589D01*
X89602317Y-74353547D01*
X89504769Y-74536043D01*
X89444699Y-74734067D01*
X89424417Y-74940000D01*
X85840000Y-74940000D01*
X85840000Y-74874174D01*
X85805925Y-74747007D01*
X85773012Y-74690000D01*
X86412528Y-74690000D01*
X86412528Y-74689999D01*
X86370114Y-74540934D01*
X86370109Y-74540921D01*
X86279245Y-74358443D01*
X86156391Y-74195757D01*
X86005739Y-74058421D01*
X85832413Y-73951101D01*
X85642315Y-73877458D01*
X85642309Y-73877456D01*
X85590001Y-73867677D01*
X85590000Y-73867679D01*
X85590000Y-74506988D01*
X85532993Y-74474075D01*
X85405826Y-74440000D01*
X85274174Y-74440000D01*
X85147007Y-74474075D01*
X85090000Y-74506988D01*
X85090000Y-73867679D01*
X85089998Y-73867677D01*
X85037690Y-73877456D01*
X85037684Y-73877458D01*
X84847586Y-73951101D01*
X84674260Y-74058421D01*
X84523608Y-74195757D01*
X84400754Y-74358443D01*
X84309890Y-74540921D01*
X84309885Y-74540934D01*
X84267471Y-74689999D01*
X83872528Y-74689999D01*
X83830114Y-74540934D01*
X83830109Y-74540921D01*
X83739245Y-74358443D01*
X83616391Y-74195757D01*
X83465739Y-74058421D01*
X83292413Y-73951101D01*
X83102315Y-73877458D01*
X83102309Y-73877456D01*
X83050001Y-73867677D01*
X83050000Y-73867679D01*
X83050000Y-74506988D01*
X82992993Y-74474075D01*
X82865826Y-74440000D01*
X82734174Y-74440000D01*
X82607007Y-74474075D01*
X82550000Y-74506988D01*
X82550000Y-73867679D01*
X82549998Y-73867677D01*
X82497690Y-73877456D01*
X82497684Y-73877458D01*
X82307586Y-73951101D01*
X82134260Y-74058421D01*
X81983608Y-74195757D01*
X81860754Y-74358443D01*
X81769890Y-74540921D01*
X81769885Y-74540934D01*
X81727471Y-74689999D01*
X81332528Y-74689999D01*
X81290114Y-74540934D01*
X81290109Y-74540921D01*
X81199245Y-74358443D01*
X81076391Y-74195757D01*
X80925739Y-74058421D01*
X80752413Y-73951101D01*
X80562315Y-73877458D01*
X80562309Y-73877456D01*
X80510001Y-73867677D01*
X80510000Y-73867679D01*
X80510000Y-74506988D01*
X80452993Y-74474075D01*
X80325826Y-74440000D01*
X80194174Y-74440000D01*
X80067007Y-74474075D01*
X80010000Y-74506988D01*
X80010000Y-73867679D01*
X80009998Y-73867677D01*
X79957690Y-73877456D01*
X79957684Y-73877458D01*
X79767586Y-73951101D01*
X79594260Y-74058421D01*
X79443608Y-74195757D01*
X79320754Y-74358443D01*
X79229890Y-74540921D01*
X79229885Y-74540934D01*
X79187471Y-74689999D01*
X78792528Y-74689999D01*
X78750114Y-74540934D01*
X78750109Y-74540921D01*
X78659245Y-74358443D01*
X78536391Y-74195757D01*
X78385739Y-74058421D01*
X78212413Y-73951101D01*
X78022315Y-73877458D01*
X78022309Y-73877456D01*
X77970001Y-73867677D01*
X77970000Y-73867679D01*
X77970000Y-74506988D01*
X77912993Y-74474075D01*
X77785826Y-74440000D01*
X77654174Y-74440000D01*
X77527007Y-74474075D01*
X77470000Y-74506988D01*
X77470000Y-73867679D01*
X77469998Y-73867677D01*
X77417690Y-73877456D01*
X77417684Y-73877458D01*
X77227586Y-73951101D01*
X77054260Y-74058421D01*
X76903608Y-74195757D01*
X76780754Y-74358443D01*
X76689890Y-74540921D01*
X76689885Y-74540934D01*
X76647471Y-74689999D01*
X76252528Y-74689999D01*
X76210114Y-74540934D01*
X76210109Y-74540921D01*
X76119245Y-74358443D01*
X75996391Y-74195757D01*
X75845739Y-74058421D01*
X75672413Y-73951101D01*
X75482315Y-73877458D01*
X75482309Y-73877456D01*
X75430001Y-73867677D01*
X75430000Y-73867679D01*
X75430000Y-74506988D01*
X75372993Y-74474075D01*
X75245826Y-74440000D01*
X75114174Y-74440000D01*
X74987007Y-74474075D01*
X74930000Y-74506988D01*
X74930000Y-73867679D01*
X74929998Y-73867677D01*
X74877690Y-73877456D01*
X74877684Y-73877458D01*
X74687586Y-73951101D01*
X74514260Y-74058421D01*
X74363608Y-74195757D01*
X74240754Y-74358443D01*
X74149890Y-74540921D01*
X74149885Y-74540934D01*
X74107471Y-74689999D01*
X73712528Y-74689999D01*
X73670114Y-74540934D01*
X73670109Y-74540921D01*
X73579245Y-74358443D01*
X73456391Y-74195757D01*
X73305739Y-74058421D01*
X73132413Y-73951101D01*
X72942315Y-73877458D01*
X72942309Y-73877456D01*
X72890001Y-73867677D01*
X72890000Y-73867679D01*
X72890000Y-74506988D01*
X72832993Y-74474075D01*
X72705826Y-74440000D01*
X72574174Y-74440000D01*
X72447007Y-74474075D01*
X72390000Y-74506988D01*
X72390000Y-73867679D01*
X72389998Y-73867677D01*
X72337690Y-73877456D01*
X72337684Y-73877458D01*
X72147586Y-73951101D01*
X71974260Y-74058421D01*
X71823608Y-74195757D01*
X71700754Y-74358443D01*
X71609890Y-74540921D01*
X71609885Y-74540934D01*
X71567471Y-74689999D01*
X71172528Y-74689999D01*
X71130114Y-74540934D01*
X71130109Y-74540921D01*
X71039245Y-74358443D01*
X70916391Y-74195757D01*
X70765739Y-74058421D01*
X70592413Y-73951101D01*
X70402315Y-73877458D01*
X70402309Y-73877456D01*
X70350001Y-73867677D01*
X70350000Y-73867679D01*
X70350000Y-74506988D01*
X70292993Y-74474075D01*
X70165826Y-74440000D01*
X70034174Y-74440000D01*
X69907007Y-74474075D01*
X69850000Y-74506988D01*
X69850000Y-73867679D01*
X69849998Y-73867677D01*
X69797690Y-73877456D01*
X69797684Y-73877458D01*
X69607586Y-73951101D01*
X69434260Y-74058421D01*
X69283608Y-74195757D01*
X69160754Y-74358443D01*
X69069890Y-74540921D01*
X69069885Y-74540934D01*
X69027471Y-74689999D01*
X68581933Y-74689999D01*
X68535232Y-74536046D01*
X68437685Y-74353550D01*
X68385702Y-74290209D01*
X68306410Y-74193589D01*
X68146452Y-74062317D01*
X68146453Y-74062317D01*
X68146450Y-74062315D01*
X67963954Y-73964768D01*
X67765934Y-73904700D01*
X67765932Y-73904699D01*
X67765934Y-73904699D01*
X67560000Y-73884417D01*
X67354067Y-73904699D01*
X67156043Y-73964769D01*
X67045898Y-74023643D01*
X66973550Y-74062315D01*
X66973548Y-74062316D01*
X66973547Y-74062317D01*
X66813589Y-74193589D01*
X66682317Y-74353547D01*
X66584769Y-74536043D01*
X66524699Y-74734067D01*
X66504417Y-74940000D01*
X66075583Y-74940000D01*
X66055300Y-74734066D01*
X65995232Y-74536046D01*
X65897685Y-74353550D01*
X65845702Y-74290209D01*
X65766410Y-74193589D01*
X65606452Y-74062317D01*
X65606453Y-74062317D01*
X65606450Y-74062315D01*
X65423954Y-73964768D01*
X65225934Y-73904700D01*
X65225932Y-73904699D01*
X65225934Y-73904699D01*
X65020000Y-73884417D01*
X64814067Y-73904699D01*
X64616043Y-73964769D01*
X64505898Y-74023643D01*
X64433550Y-74062315D01*
X64433548Y-74062316D01*
X64433547Y-74062317D01*
X64273589Y-74193589D01*
X64142317Y-74353547D01*
X64044769Y-74536043D01*
X63984699Y-74734067D01*
X63964417Y-74940000D01*
X63535583Y-74940000D01*
X63515300Y-74734066D01*
X63455232Y-74536046D01*
X63357685Y-74353550D01*
X63305702Y-74290209D01*
X63226410Y-74193589D01*
X63066452Y-74062317D01*
X63066453Y-74062317D01*
X63066450Y-74062315D01*
X62883954Y-73964768D01*
X62685934Y-73904700D01*
X62685932Y-73904699D01*
X62685934Y-73904699D01*
X62480000Y-73884417D01*
X62274067Y-73904699D01*
X62076043Y-73964769D01*
X61965898Y-74023643D01*
X61893550Y-74062315D01*
X61893548Y-74062316D01*
X61893547Y-74062317D01*
X61733589Y-74193589D01*
X61602317Y-74353547D01*
X61504769Y-74536043D01*
X61444699Y-74734067D01*
X61424417Y-74940000D01*
X60995583Y-74940000D01*
X60975300Y-74734066D01*
X60915232Y-74536046D01*
X60817685Y-74353550D01*
X60765702Y-74290209D01*
X60686410Y-74193589D01*
X60526452Y-74062317D01*
X60526453Y-74062317D01*
X60526450Y-74062315D01*
X60343954Y-73964768D01*
X60145934Y-73904700D01*
X60145932Y-73904699D01*
X60145934Y-73904699D01*
X59940000Y-73884417D01*
X59734067Y-73904699D01*
X59536043Y-73964769D01*
X59425898Y-74023643D01*
X59353550Y-74062315D01*
X59353548Y-74062316D01*
X59353547Y-74062317D01*
X59193589Y-74193589D01*
X59062317Y-74353547D01*
X58964769Y-74536043D01*
X58904699Y-74734067D01*
X58884417Y-74940000D01*
X58455583Y-74940000D01*
X58435300Y-74734066D01*
X58375232Y-74536046D01*
X58277685Y-74353550D01*
X58225702Y-74290209D01*
X58146410Y-74193589D01*
X57986452Y-74062317D01*
X57986453Y-74062317D01*
X57986450Y-74062315D01*
X57803954Y-73964768D01*
X57605934Y-73904700D01*
X57605932Y-73904699D01*
X57605934Y-73904699D01*
X57400000Y-73884417D01*
X57194067Y-73904699D01*
X56996043Y-73964769D01*
X56885898Y-74023643D01*
X56813550Y-74062315D01*
X56813548Y-74062316D01*
X56813547Y-74062317D01*
X56653589Y-74193589D01*
X56522317Y-74353547D01*
X56424769Y-74536043D01*
X56364699Y-74734067D01*
X56344417Y-74940000D01*
X55915583Y-74940000D01*
X55895300Y-74734066D01*
X55835232Y-74536046D01*
X55737685Y-74353550D01*
X55685702Y-74290209D01*
X55606410Y-74193589D01*
X55446452Y-74062317D01*
X55446453Y-74062317D01*
X55446450Y-74062315D01*
X55263954Y-73964768D01*
X55065934Y-73904700D01*
X55065932Y-73904699D01*
X55065934Y-73904699D01*
X54860000Y-73884417D01*
X54654067Y-73904699D01*
X54456043Y-73964769D01*
X54345898Y-74023643D01*
X54273550Y-74062315D01*
X54273548Y-74062316D01*
X54273547Y-74062317D01*
X54113589Y-74193589D01*
X53982317Y-74353547D01*
X53884769Y-74536043D01*
X53824699Y-74734067D01*
X53804417Y-74940000D01*
X53375583Y-74940000D01*
X53355300Y-74734066D01*
X53295232Y-74536046D01*
X53197685Y-74353550D01*
X53145702Y-74290209D01*
X53066410Y-74193589D01*
X52906452Y-74062317D01*
X52906453Y-74062317D01*
X52906450Y-74062315D01*
X52723954Y-73964768D01*
X52525934Y-73904700D01*
X52525932Y-73904699D01*
X52525934Y-73904699D01*
X52320000Y-73884417D01*
X52114067Y-73904699D01*
X51916043Y-73964769D01*
X51805898Y-74023643D01*
X51733550Y-74062315D01*
X51733548Y-74062316D01*
X51733547Y-74062317D01*
X51573589Y-74193589D01*
X51442317Y-74353547D01*
X51344769Y-74536043D01*
X51284699Y-74734067D01*
X51264417Y-74940000D01*
X50200500Y-74940000D01*
X50200500Y-72400000D01*
X51264417Y-72400000D01*
X51284699Y-72605932D01*
X51284700Y-72605934D01*
X51344768Y-72803954D01*
X51442315Y-72986450D01*
X51442317Y-72986452D01*
X51573589Y-73146410D01*
X51670209Y-73225702D01*
X51733550Y-73277685D01*
X51916046Y-73375232D01*
X52114066Y-73435300D01*
X52114065Y-73435300D01*
X52132529Y-73437118D01*
X52320000Y-73455583D01*
X52525934Y-73435300D01*
X52723954Y-73375232D01*
X52906450Y-73277685D01*
X53066410Y-73146410D01*
X53197685Y-72986450D01*
X53295232Y-72803954D01*
X53355300Y-72605934D01*
X53375583Y-72400000D01*
X53804417Y-72400000D01*
X53824699Y-72605932D01*
X53824700Y-72605934D01*
X53884768Y-72803954D01*
X53982315Y-72986450D01*
X53982317Y-72986452D01*
X54113589Y-73146410D01*
X54210209Y-73225702D01*
X54273550Y-73277685D01*
X54456046Y-73375232D01*
X54654066Y-73435300D01*
X54654065Y-73435300D01*
X54672529Y-73437118D01*
X54860000Y-73455583D01*
X55065934Y-73435300D01*
X55263954Y-73375232D01*
X55446450Y-73277685D01*
X55606410Y-73146410D01*
X55737685Y-72986450D01*
X55835232Y-72803954D01*
X55895300Y-72605934D01*
X55915583Y-72400000D01*
X56344417Y-72400000D01*
X56364699Y-72605932D01*
X56364700Y-72605934D01*
X56424768Y-72803954D01*
X56522315Y-72986450D01*
X56522317Y-72986452D01*
X56653589Y-73146410D01*
X56750209Y-73225702D01*
X56813550Y-73277685D01*
X56996046Y-73375232D01*
X57194066Y-73435300D01*
X57194065Y-73435300D01*
X57212529Y-73437118D01*
X57400000Y-73455583D01*
X57605934Y-73435300D01*
X57803954Y-73375232D01*
X57986450Y-73277685D01*
X58146410Y-73146410D01*
X58277685Y-72986450D01*
X58375232Y-72803954D01*
X58435300Y-72605934D01*
X58455583Y-72400000D01*
X58884417Y-72400000D01*
X58904699Y-72605932D01*
X58904700Y-72605934D01*
X58964768Y-72803954D01*
X59062315Y-72986450D01*
X59062317Y-72986452D01*
X59193589Y-73146410D01*
X59290209Y-73225702D01*
X59353550Y-73277685D01*
X59536046Y-73375232D01*
X59734066Y-73435300D01*
X59734065Y-73435300D01*
X59752529Y-73437118D01*
X59940000Y-73455583D01*
X60145934Y-73435300D01*
X60343954Y-73375232D01*
X60526450Y-73277685D01*
X60686410Y-73146410D01*
X60817685Y-72986450D01*
X60915232Y-72803954D01*
X60975300Y-72605934D01*
X60995583Y-72400000D01*
X61424417Y-72400000D01*
X61444699Y-72605932D01*
X61444700Y-72605934D01*
X61504768Y-72803954D01*
X61602315Y-72986450D01*
X61602317Y-72986452D01*
X61733589Y-73146410D01*
X61830209Y-73225702D01*
X61893550Y-73277685D01*
X62076046Y-73375232D01*
X62274066Y-73435300D01*
X62274065Y-73435300D01*
X62292529Y-73437118D01*
X62480000Y-73455583D01*
X62685934Y-73435300D01*
X62883954Y-73375232D01*
X63066450Y-73277685D01*
X63226410Y-73146410D01*
X63357685Y-72986450D01*
X63455232Y-72803954D01*
X63515300Y-72605934D01*
X63535583Y-72400000D01*
X63964417Y-72400000D01*
X63984699Y-72605932D01*
X63984700Y-72605934D01*
X64044768Y-72803954D01*
X64142315Y-72986450D01*
X64142317Y-72986452D01*
X64273589Y-73146410D01*
X64370209Y-73225702D01*
X64433550Y-73277685D01*
X64616046Y-73375232D01*
X64814066Y-73435300D01*
X64814065Y-73435300D01*
X64832529Y-73437118D01*
X65020000Y-73455583D01*
X65225934Y-73435300D01*
X65423954Y-73375232D01*
X65606450Y-73277685D01*
X65766410Y-73146410D01*
X65897685Y-72986450D01*
X65995232Y-72803954D01*
X66055300Y-72605934D01*
X66075583Y-72400000D01*
X66055300Y-72194066D01*
X65995232Y-71996046D01*
X65897685Y-71813550D01*
X65845702Y-71750209D01*
X65766410Y-71653589D01*
X65616121Y-71530252D01*
X65616115Y-71530247D01*
X66509500Y-71530247D01*
X66509500Y-73269752D01*
X66521131Y-73328229D01*
X66521132Y-73328230D01*
X66565447Y-73394552D01*
X66631769Y-73438867D01*
X66631770Y-73438868D01*
X66690247Y-73450499D01*
X66690250Y-73450500D01*
X66690252Y-73450500D01*
X68429750Y-73450500D01*
X68429751Y-73450499D01*
X68444568Y-73447552D01*
X68488229Y-73438868D01*
X68488229Y-73438867D01*
X68488231Y-73438867D01*
X68554552Y-73394552D01*
X68598867Y-73328231D01*
X68598867Y-73328229D01*
X68598868Y-73328229D01*
X68610499Y-73269752D01*
X68610500Y-73269750D01*
X68610500Y-72149999D01*
X69027471Y-72149999D01*
X69027472Y-72150000D01*
X69666988Y-72150000D01*
X69634075Y-72207007D01*
X69600000Y-72334174D01*
X69600000Y-72465826D01*
X69634075Y-72592993D01*
X69666988Y-72650000D01*
X69027472Y-72650000D01*
X69069885Y-72799065D01*
X69069890Y-72799078D01*
X69160754Y-72981556D01*
X69283608Y-73144242D01*
X69434260Y-73281578D01*
X69607584Y-73388897D01*
X69797678Y-73462539D01*
X69850000Y-73472320D01*
X69850000Y-72833012D01*
X69907007Y-72865925D01*
X70034174Y-72900000D01*
X70165826Y-72900000D01*
X70292993Y-72865925D01*
X70350000Y-72833012D01*
X70350000Y-73472320D01*
X70402321Y-73462539D01*
X70592415Y-73388897D01*
X70765739Y-73281578D01*
X70916391Y-73144242D01*
X71039245Y-72981556D01*
X71130109Y-72799078D01*
X71130114Y-72799065D01*
X71172528Y-72650000D01*
X70533012Y-72650000D01*
X70565925Y-72592993D01*
X70600000Y-72465826D01*
X70600000Y-72334174D01*
X70565925Y-72207007D01*
X70533012Y-72150000D01*
X71172528Y-72150000D01*
X71172528Y-72149999D01*
X71567471Y-72149999D01*
X71567472Y-72150000D01*
X72206988Y-72150000D01*
X72174075Y-72207007D01*
X72140000Y-72334174D01*
X72140000Y-72465826D01*
X72174075Y-72592993D01*
X72206988Y-72650000D01*
X71567472Y-72650000D01*
X71609885Y-72799065D01*
X71609890Y-72799078D01*
X71700754Y-72981556D01*
X71823608Y-73144242D01*
X71974260Y-73281578D01*
X72147584Y-73388897D01*
X72337678Y-73462539D01*
X72390000Y-73472320D01*
X72390000Y-72833012D01*
X72447007Y-72865925D01*
X72574174Y-72900000D01*
X72705826Y-72900000D01*
X72832993Y-72865925D01*
X72890000Y-72833012D01*
X72890000Y-73472320D01*
X72942321Y-73462539D01*
X73132415Y-73388897D01*
X73305739Y-73281578D01*
X73456391Y-73144242D01*
X73579245Y-72981556D01*
X73670109Y-72799078D01*
X73670114Y-72799065D01*
X73712528Y-72650000D01*
X73073012Y-72650000D01*
X73105925Y-72592993D01*
X73140000Y-72465826D01*
X73140000Y-72334174D01*
X73105925Y-72207007D01*
X73073012Y-72150000D01*
X73712528Y-72150000D01*
X73712528Y-72149999D01*
X74107471Y-72149999D01*
X74107472Y-72150000D01*
X74746988Y-72150000D01*
X74714075Y-72207007D01*
X74680000Y-72334174D01*
X74680000Y-72465826D01*
X74714075Y-72592993D01*
X74746988Y-72650000D01*
X74107472Y-72650000D01*
X74149885Y-72799065D01*
X74149890Y-72799078D01*
X74240754Y-72981556D01*
X74363608Y-73144242D01*
X74514260Y-73281578D01*
X74687584Y-73388897D01*
X74877678Y-73462539D01*
X74930000Y-73472320D01*
X74930000Y-72833012D01*
X74987007Y-72865925D01*
X75114174Y-72900000D01*
X75245826Y-72900000D01*
X75372993Y-72865925D01*
X75430000Y-72833012D01*
X75430000Y-73472320D01*
X75482321Y-73462539D01*
X75672415Y-73388897D01*
X75845739Y-73281578D01*
X75996391Y-73144242D01*
X76119245Y-72981556D01*
X76210109Y-72799078D01*
X76210114Y-72799065D01*
X76252528Y-72650000D01*
X75613012Y-72650000D01*
X75645925Y-72592993D01*
X75680000Y-72465826D01*
X75680000Y-72334174D01*
X75645925Y-72207007D01*
X75613012Y-72150000D01*
X76252528Y-72150000D01*
X76252528Y-72149999D01*
X76647471Y-72149999D01*
X76647472Y-72150000D01*
X77286988Y-72150000D01*
X77254075Y-72207007D01*
X77220000Y-72334174D01*
X77220000Y-72465826D01*
X77254075Y-72592993D01*
X77286988Y-72650000D01*
X76647472Y-72650000D01*
X76689885Y-72799065D01*
X76689890Y-72799078D01*
X76780754Y-72981556D01*
X76903608Y-73144242D01*
X77054260Y-73281578D01*
X77227584Y-73388897D01*
X77417678Y-73462539D01*
X77470000Y-73472320D01*
X77470000Y-72833012D01*
X77527007Y-72865925D01*
X77654174Y-72900000D01*
X77785826Y-72900000D01*
X77912993Y-72865925D01*
X77970000Y-72833012D01*
X77970000Y-73472320D01*
X78022321Y-73462539D01*
X78212415Y-73388897D01*
X78385739Y-73281578D01*
X78536391Y-73144242D01*
X78659245Y-72981556D01*
X78750109Y-72799078D01*
X78750114Y-72799065D01*
X78792528Y-72650000D01*
X78153012Y-72650000D01*
X78185925Y-72592993D01*
X78220000Y-72465826D01*
X78220000Y-72334174D01*
X78185925Y-72207007D01*
X78153012Y-72150000D01*
X78792528Y-72150000D01*
X78792528Y-72149999D01*
X79187471Y-72149999D01*
X79187472Y-72150000D01*
X79826988Y-72150000D01*
X79794075Y-72207007D01*
X79760000Y-72334174D01*
X79760000Y-72465826D01*
X79794075Y-72592993D01*
X79826988Y-72650000D01*
X79187472Y-72650000D01*
X79229885Y-72799065D01*
X79229890Y-72799078D01*
X79320754Y-72981556D01*
X79443608Y-73144242D01*
X79594260Y-73281578D01*
X79767584Y-73388897D01*
X79957678Y-73462539D01*
X80010000Y-73472320D01*
X80010000Y-72833012D01*
X80067007Y-72865925D01*
X80194174Y-72900000D01*
X80325826Y-72900000D01*
X80452993Y-72865925D01*
X80510000Y-72833012D01*
X80510000Y-73472320D01*
X80562321Y-73462539D01*
X80752415Y-73388897D01*
X80925739Y-73281578D01*
X81076391Y-73144242D01*
X81199245Y-72981556D01*
X81290109Y-72799078D01*
X81290114Y-72799065D01*
X81332528Y-72650000D01*
X80693012Y-72650000D01*
X80725925Y-72592993D01*
X80760000Y-72465826D01*
X80760000Y-72334174D01*
X80725925Y-72207007D01*
X80693012Y-72150000D01*
X81332528Y-72150000D01*
X81332528Y-72149999D01*
X81727471Y-72149999D01*
X81727472Y-72150000D01*
X82366988Y-72150000D01*
X82334075Y-72207007D01*
X82300000Y-72334174D01*
X82300000Y-72465826D01*
X82334075Y-72592993D01*
X82366988Y-72650000D01*
X81727472Y-72650000D01*
X81769885Y-72799065D01*
X81769890Y-72799078D01*
X81860754Y-72981556D01*
X81983608Y-73144242D01*
X82134260Y-73281578D01*
X82307584Y-73388897D01*
X82497678Y-73462539D01*
X82550000Y-73472320D01*
X82550000Y-72833012D01*
X82607007Y-72865925D01*
X82734174Y-72900000D01*
X82865826Y-72900000D01*
X82992993Y-72865925D01*
X83050000Y-72833012D01*
X83050000Y-73472320D01*
X83102321Y-73462539D01*
X83292415Y-73388897D01*
X83465739Y-73281578D01*
X83616391Y-73144242D01*
X83739245Y-72981556D01*
X83830109Y-72799078D01*
X83830114Y-72799065D01*
X83872528Y-72650000D01*
X83233012Y-72650000D01*
X83265925Y-72592993D01*
X83300000Y-72465826D01*
X83300000Y-72334174D01*
X83265925Y-72207007D01*
X83233012Y-72150000D01*
X83872528Y-72150000D01*
X83872528Y-72149999D01*
X83830114Y-72000934D01*
X83830109Y-72000921D01*
X83739245Y-71818443D01*
X83616391Y-71655757D01*
X83473363Y-71525371D01*
X84240000Y-71525371D01*
X84240000Y-72150000D01*
X84906988Y-72150000D01*
X84874075Y-72207007D01*
X84840000Y-72334174D01*
X84840000Y-72465826D01*
X84874075Y-72592993D01*
X84906988Y-72650000D01*
X84240000Y-72650000D01*
X84240000Y-73274628D01*
X84254503Y-73347540D01*
X84254505Y-73347544D01*
X84309760Y-73430239D01*
X84392455Y-73485494D01*
X84392459Y-73485496D01*
X84465371Y-73499999D01*
X84465374Y-73500000D01*
X85090000Y-73500000D01*
X85090000Y-72833012D01*
X85147007Y-72865925D01*
X85274174Y-72900000D01*
X85405826Y-72900000D01*
X85532993Y-72865925D01*
X85590000Y-72833012D01*
X85590000Y-73500000D01*
X86214626Y-73500000D01*
X86214628Y-73499999D01*
X86287540Y-73485496D01*
X86287544Y-73485494D01*
X86370239Y-73430239D01*
X86425494Y-73347544D01*
X86425496Y-73347540D01*
X86439999Y-73274628D01*
X86440000Y-73274626D01*
X86440000Y-72650000D01*
X85773012Y-72650000D01*
X85805925Y-72592993D01*
X85840000Y-72465826D01*
X85840000Y-72400000D01*
X89424417Y-72400000D01*
X89444699Y-72605932D01*
X89444700Y-72605934D01*
X89504768Y-72803954D01*
X89602315Y-72986450D01*
X89602317Y-72986452D01*
X89733589Y-73146410D01*
X89830209Y-73225702D01*
X89893550Y-73277685D01*
X90076046Y-73375232D01*
X90274066Y-73435300D01*
X90274065Y-73435300D01*
X90292529Y-73437118D01*
X90480000Y-73455583D01*
X90685934Y-73435300D01*
X90883954Y-73375232D01*
X91066450Y-73277685D01*
X91226410Y-73146410D01*
X91357685Y-72986450D01*
X91455232Y-72803954D01*
X91515300Y-72605934D01*
X91535583Y-72400000D01*
X91964417Y-72400000D01*
X91984699Y-72605932D01*
X91984700Y-72605934D01*
X92044768Y-72803954D01*
X92142315Y-72986450D01*
X92142317Y-72986452D01*
X92273589Y-73146410D01*
X92370209Y-73225702D01*
X92433550Y-73277685D01*
X92616046Y-73375232D01*
X92814066Y-73435300D01*
X92814065Y-73435300D01*
X92832529Y-73437118D01*
X93020000Y-73455583D01*
X93225934Y-73435300D01*
X93423954Y-73375232D01*
X93606450Y-73277685D01*
X93766410Y-73146410D01*
X93897685Y-72986450D01*
X93995232Y-72803954D01*
X94055300Y-72605934D01*
X94075583Y-72400000D01*
X94504417Y-72400000D01*
X94524699Y-72605932D01*
X94524700Y-72605934D01*
X94584768Y-72803954D01*
X94682315Y-72986450D01*
X94682317Y-72986452D01*
X94813589Y-73146410D01*
X94910209Y-73225702D01*
X94973550Y-73277685D01*
X95156046Y-73375232D01*
X95354066Y-73435300D01*
X95354065Y-73435300D01*
X95372529Y-73437118D01*
X95560000Y-73455583D01*
X95765934Y-73435300D01*
X95963954Y-73375232D01*
X96146450Y-73277685D01*
X96306410Y-73146410D01*
X96437685Y-72986450D01*
X96535232Y-72803954D01*
X96595300Y-72605934D01*
X96615583Y-72400000D01*
X96595300Y-72194066D01*
X96535232Y-71996046D01*
X96437685Y-71813550D01*
X96385702Y-71750209D01*
X96306410Y-71653589D01*
X96156121Y-71530252D01*
X96156115Y-71530247D01*
X97049500Y-71530247D01*
X97049500Y-73269752D01*
X97061131Y-73328229D01*
X97061132Y-73328230D01*
X97105447Y-73394552D01*
X97171769Y-73438867D01*
X97171770Y-73438868D01*
X97230247Y-73450499D01*
X97230250Y-73450500D01*
X97230252Y-73450500D01*
X98969750Y-73450500D01*
X98969751Y-73450499D01*
X98984568Y-73447552D01*
X99028229Y-73438868D01*
X99028229Y-73438867D01*
X99028231Y-73438867D01*
X99094552Y-73394552D01*
X99138867Y-73328231D01*
X99138867Y-73328229D01*
X99138868Y-73328229D01*
X99150499Y-73269752D01*
X99150500Y-73269750D01*
X99150500Y-71530249D01*
X99150499Y-71530247D01*
X99138868Y-71471770D01*
X99138867Y-71471769D01*
X99094552Y-71405447D01*
X99028230Y-71361132D01*
X99028229Y-71361131D01*
X98969752Y-71349500D01*
X98969748Y-71349500D01*
X97230252Y-71349500D01*
X97230247Y-71349500D01*
X97171770Y-71361131D01*
X97171769Y-71361132D01*
X97105447Y-71405447D01*
X97061132Y-71471769D01*
X97061131Y-71471770D01*
X97049500Y-71530247D01*
X96156115Y-71530247D01*
X96146450Y-71522315D01*
X95963954Y-71424768D01*
X95765934Y-71364700D01*
X95765932Y-71364699D01*
X95765934Y-71364699D01*
X95560000Y-71344417D01*
X95354067Y-71364699D01*
X95156043Y-71424769D01*
X95104240Y-71452459D01*
X94973550Y-71522315D01*
X94973548Y-71522316D01*
X94973547Y-71522317D01*
X94813589Y-71653589D01*
X94682317Y-71813547D01*
X94584769Y-71996043D01*
X94524699Y-72194067D01*
X94504417Y-72400000D01*
X94075583Y-72400000D01*
X94055300Y-72194066D01*
X93995232Y-71996046D01*
X93897685Y-71813550D01*
X93845702Y-71750209D01*
X93766410Y-71653589D01*
X93616121Y-71530252D01*
X93606450Y-71522315D01*
X93423954Y-71424768D01*
X93225934Y-71364700D01*
X93225932Y-71364699D01*
X93225934Y-71364699D01*
X93020000Y-71344417D01*
X92814067Y-71364699D01*
X92616043Y-71424769D01*
X92564240Y-71452459D01*
X92433550Y-71522315D01*
X92433548Y-71522316D01*
X92433547Y-71522317D01*
X92273589Y-71653589D01*
X92142317Y-71813547D01*
X92044769Y-71996043D01*
X91984699Y-72194067D01*
X91964417Y-72400000D01*
X91535583Y-72400000D01*
X91515300Y-72194066D01*
X91455232Y-71996046D01*
X91357685Y-71813550D01*
X91305702Y-71750209D01*
X91226410Y-71653589D01*
X91076121Y-71530252D01*
X91066450Y-71522315D01*
X90883954Y-71424768D01*
X90685934Y-71364700D01*
X90685932Y-71364699D01*
X90685934Y-71364699D01*
X90480000Y-71344417D01*
X90274067Y-71364699D01*
X90076043Y-71424769D01*
X90024240Y-71452459D01*
X89893550Y-71522315D01*
X89893548Y-71522316D01*
X89893547Y-71522317D01*
X89733589Y-71653589D01*
X89602317Y-71813547D01*
X89504769Y-71996043D01*
X89444699Y-72194067D01*
X89424417Y-72400000D01*
X85840000Y-72400000D01*
X85840000Y-72334174D01*
X85805925Y-72207007D01*
X85773012Y-72150000D01*
X86440000Y-72150000D01*
X86440000Y-71525373D01*
X86439999Y-71525371D01*
X86425496Y-71452459D01*
X86425494Y-71452455D01*
X86370239Y-71369760D01*
X86287544Y-71314505D01*
X86287540Y-71314503D01*
X86214627Y-71300000D01*
X85590000Y-71300000D01*
X85590000Y-71966988D01*
X85532993Y-71934075D01*
X85405826Y-71900000D01*
X85274174Y-71900000D01*
X85147007Y-71934075D01*
X85090000Y-71966988D01*
X85090000Y-71300000D01*
X84465373Y-71300000D01*
X84392459Y-71314503D01*
X84392455Y-71314505D01*
X84309760Y-71369760D01*
X84254505Y-71452455D01*
X84254503Y-71452459D01*
X84240000Y-71525371D01*
X83473363Y-71525371D01*
X83465739Y-71518421D01*
X83292413Y-71411101D01*
X83102315Y-71337458D01*
X83102309Y-71337456D01*
X83050001Y-71327677D01*
X83050000Y-71327679D01*
X83050000Y-71966988D01*
X82992993Y-71934075D01*
X82865826Y-71900000D01*
X82734174Y-71900000D01*
X82607007Y-71934075D01*
X82550000Y-71966988D01*
X82550000Y-71327679D01*
X82549998Y-71327677D01*
X82497690Y-71337456D01*
X82497684Y-71337458D01*
X82307586Y-71411101D01*
X82134260Y-71518421D01*
X81983608Y-71655757D01*
X81860754Y-71818443D01*
X81769890Y-72000921D01*
X81769885Y-72000934D01*
X81727471Y-72149999D01*
X81332528Y-72149999D01*
X81290114Y-72000934D01*
X81290109Y-72000921D01*
X81199245Y-71818443D01*
X81076391Y-71655757D01*
X80925739Y-71518421D01*
X80752413Y-71411101D01*
X80562315Y-71337458D01*
X80562309Y-71337456D01*
X80510001Y-71327677D01*
X80510000Y-71327679D01*
X80510000Y-71966988D01*
X80452993Y-71934075D01*
X80325826Y-71900000D01*
X80194174Y-71900000D01*
X80067007Y-71934075D01*
X80010000Y-71966988D01*
X80010000Y-71327679D01*
X80009998Y-71327677D01*
X79957690Y-71337456D01*
X79957684Y-71337458D01*
X79767586Y-71411101D01*
X79594260Y-71518421D01*
X79443608Y-71655757D01*
X79320754Y-71818443D01*
X79229890Y-72000921D01*
X79229885Y-72000934D01*
X79187471Y-72149999D01*
X78792528Y-72149999D01*
X78750114Y-72000934D01*
X78750109Y-72000921D01*
X78659245Y-71818443D01*
X78536391Y-71655757D01*
X78385739Y-71518421D01*
X78212413Y-71411101D01*
X78022315Y-71337458D01*
X78022309Y-71337456D01*
X77970001Y-71327677D01*
X77970000Y-71327679D01*
X77970000Y-71966988D01*
X77912993Y-71934075D01*
X77785826Y-71900000D01*
X77654174Y-71900000D01*
X77527007Y-71934075D01*
X77470000Y-71966988D01*
X77470000Y-71327679D01*
X77469998Y-71327677D01*
X77417690Y-71337456D01*
X77417684Y-71337458D01*
X77227586Y-71411101D01*
X77054260Y-71518421D01*
X76903608Y-71655757D01*
X76780754Y-71818443D01*
X76689890Y-72000921D01*
X76689885Y-72000934D01*
X76647471Y-72149999D01*
X76252528Y-72149999D01*
X76210114Y-72000934D01*
X76210109Y-72000921D01*
X76119245Y-71818443D01*
X75996391Y-71655757D01*
X75845739Y-71518421D01*
X75672413Y-71411101D01*
X75482315Y-71337458D01*
X75482309Y-71337456D01*
X75430001Y-71327677D01*
X75430000Y-71327679D01*
X75430000Y-71966988D01*
X75372993Y-71934075D01*
X75245826Y-71900000D01*
X75114174Y-71900000D01*
X74987007Y-71934075D01*
X74930000Y-71966988D01*
X74930000Y-71327679D01*
X74929998Y-71327677D01*
X74877690Y-71337456D01*
X74877684Y-71337458D01*
X74687586Y-71411101D01*
X74514260Y-71518421D01*
X74363608Y-71655757D01*
X74240754Y-71818443D01*
X74149890Y-72000921D01*
X74149885Y-72000934D01*
X74107471Y-72149999D01*
X73712528Y-72149999D01*
X73670114Y-72000934D01*
X73670109Y-72000921D01*
X73579245Y-71818443D01*
X73456391Y-71655757D01*
X73305739Y-71518421D01*
X73132413Y-71411101D01*
X72942315Y-71337458D01*
X72942309Y-71337456D01*
X72890001Y-71327677D01*
X72890000Y-71327679D01*
X72890000Y-71966988D01*
X72832993Y-71934075D01*
X72705826Y-71900000D01*
X72574174Y-71900000D01*
X72447007Y-71934075D01*
X72390000Y-71966988D01*
X72390000Y-71327679D01*
X72389998Y-71327677D01*
X72337690Y-71337456D01*
X72337684Y-71337458D01*
X72147586Y-71411101D01*
X71974260Y-71518421D01*
X71823608Y-71655757D01*
X71700754Y-71818443D01*
X71609890Y-72000921D01*
X71609885Y-72000934D01*
X71567471Y-72149999D01*
X71172528Y-72149999D01*
X71130114Y-72000934D01*
X71130109Y-72000921D01*
X71039245Y-71818443D01*
X70916391Y-71655757D01*
X70765739Y-71518421D01*
X70592413Y-71411101D01*
X70402315Y-71337458D01*
X70402309Y-71337456D01*
X70350001Y-71327677D01*
X70350000Y-71327679D01*
X70350000Y-71966988D01*
X70292993Y-71934075D01*
X70165826Y-71900000D01*
X70034174Y-71900000D01*
X69907007Y-71934075D01*
X69850000Y-71966988D01*
X69850000Y-71327679D01*
X69849998Y-71327677D01*
X69797690Y-71337456D01*
X69797684Y-71337458D01*
X69607586Y-71411101D01*
X69434260Y-71518421D01*
X69283608Y-71655757D01*
X69160754Y-71818443D01*
X69069890Y-72000921D01*
X69069885Y-72000934D01*
X69027471Y-72149999D01*
X68610500Y-72149999D01*
X68610500Y-71530249D01*
X68610499Y-71530247D01*
X68598868Y-71471770D01*
X68598867Y-71471769D01*
X68554552Y-71405447D01*
X68488230Y-71361132D01*
X68488229Y-71361131D01*
X68429752Y-71349500D01*
X68429748Y-71349500D01*
X66690252Y-71349500D01*
X66690247Y-71349500D01*
X66631770Y-71361131D01*
X66631769Y-71361132D01*
X66565447Y-71405447D01*
X66521132Y-71471769D01*
X66521131Y-71471770D01*
X66509500Y-71530247D01*
X65616115Y-71530247D01*
X65606450Y-71522315D01*
X65423954Y-71424768D01*
X65225934Y-71364700D01*
X65225932Y-71364699D01*
X65225934Y-71364699D01*
X65020000Y-71344417D01*
X64814067Y-71364699D01*
X64616043Y-71424769D01*
X64564240Y-71452459D01*
X64433550Y-71522315D01*
X64433548Y-71522316D01*
X64433547Y-71522317D01*
X64273589Y-71653589D01*
X64142317Y-71813547D01*
X64044769Y-71996043D01*
X63984699Y-72194067D01*
X63964417Y-72400000D01*
X63535583Y-72400000D01*
X63515300Y-72194066D01*
X63455232Y-71996046D01*
X63357685Y-71813550D01*
X63305702Y-71750209D01*
X63226410Y-71653589D01*
X63076121Y-71530252D01*
X63066450Y-71522315D01*
X62883954Y-71424768D01*
X62685934Y-71364700D01*
X62685932Y-71364699D01*
X62685934Y-71364699D01*
X62480000Y-71344417D01*
X62274067Y-71364699D01*
X62076043Y-71424769D01*
X61893547Y-71522316D01*
X61866124Y-71544822D01*
X61801814Y-71572134D01*
X61732946Y-71560341D01*
X61728119Y-71555926D01*
X61737426Y-71620653D01*
X61710542Y-71681672D01*
X61602317Y-71813546D01*
X61504769Y-71996043D01*
X61444699Y-72194067D01*
X61424417Y-72400000D01*
X60995583Y-72400000D01*
X60975300Y-72194066D01*
X60915232Y-71996046D01*
X60817685Y-71813550D01*
X60765702Y-71750209D01*
X60686410Y-71653589D01*
X60536121Y-71530252D01*
X60526450Y-71522315D01*
X60343954Y-71424768D01*
X60145934Y-71364700D01*
X60145932Y-71364699D01*
X60145934Y-71364699D01*
X59940000Y-71344417D01*
X59734067Y-71364699D01*
X59536043Y-71424769D01*
X59484240Y-71452459D01*
X59353550Y-71522315D01*
X59353548Y-71522316D01*
X59353547Y-71522317D01*
X59193589Y-71653589D01*
X59062317Y-71813547D01*
X58964769Y-71996043D01*
X58904699Y-72194067D01*
X58884417Y-72400000D01*
X58455583Y-72400000D01*
X58435300Y-72194066D01*
X58375232Y-71996046D01*
X58277685Y-71813550D01*
X58225702Y-71750209D01*
X58146410Y-71653589D01*
X57996121Y-71530252D01*
X57986450Y-71522315D01*
X57803954Y-71424768D01*
X57605934Y-71364700D01*
X57605932Y-71364699D01*
X57605934Y-71364699D01*
X57400000Y-71344417D01*
X57194067Y-71364699D01*
X56996043Y-71424769D01*
X56944240Y-71452459D01*
X56813550Y-71522315D01*
X56813548Y-71522316D01*
X56813547Y-71522317D01*
X56653589Y-71653589D01*
X56522317Y-71813547D01*
X56424769Y-71996043D01*
X56364699Y-72194067D01*
X56344417Y-72400000D01*
X55915583Y-72400000D01*
X55895300Y-72194066D01*
X55835232Y-71996046D01*
X55737685Y-71813550D01*
X55685702Y-71750209D01*
X55606410Y-71653589D01*
X55456121Y-71530252D01*
X55446450Y-71522315D01*
X55263954Y-71424768D01*
X55065934Y-71364700D01*
X55065932Y-71364699D01*
X55065934Y-71364699D01*
X54860000Y-71344417D01*
X54654067Y-71364699D01*
X54456043Y-71424769D01*
X54404240Y-71452459D01*
X54273550Y-71522315D01*
X54273548Y-71522316D01*
X54273547Y-71522317D01*
X54113589Y-71653589D01*
X53982317Y-71813547D01*
X53884769Y-71996043D01*
X53824699Y-72194067D01*
X53804417Y-72400000D01*
X53375583Y-72400000D01*
X53355300Y-72194066D01*
X53295232Y-71996046D01*
X53197685Y-71813550D01*
X53145702Y-71750209D01*
X53066410Y-71653589D01*
X52916121Y-71530252D01*
X52906450Y-71522315D01*
X52723954Y-71424768D01*
X52525934Y-71364700D01*
X52525932Y-71364699D01*
X52525934Y-71364699D01*
X52320000Y-71344417D01*
X52114067Y-71364699D01*
X51916043Y-71424769D01*
X51864240Y-71452459D01*
X51733550Y-71522315D01*
X51733548Y-71522316D01*
X51733547Y-71522317D01*
X51573589Y-71653589D01*
X51442317Y-71813547D01*
X51344769Y-71996043D01*
X51284699Y-72194067D01*
X51264417Y-72400000D01*
X50200500Y-72400000D01*
X50200500Y-69200000D01*
X50594540Y-69200000D01*
X50614326Y-69388256D01*
X50614327Y-69388259D01*
X50672818Y-69568277D01*
X50672821Y-69568284D01*
X50767467Y-69732216D01*
X50844218Y-69817456D01*
X50894129Y-69872888D01*
X51047265Y-69984148D01*
X51047270Y-69984151D01*
X51220192Y-70061142D01*
X51220197Y-70061144D01*
X51405354Y-70100500D01*
X51405355Y-70100500D01*
X51594644Y-70100500D01*
X51594646Y-70100500D01*
X51779803Y-70061144D01*
X51952730Y-69984151D01*
X52105871Y-69872888D01*
X52232533Y-69732216D01*
X52327179Y-69568284D01*
X52385674Y-69388256D01*
X52405460Y-69200000D01*
X52385674Y-69011744D01*
X52327179Y-68831716D01*
X52232533Y-68667784D01*
X52105871Y-68527112D01*
X52093133Y-68517857D01*
X51952734Y-68415851D01*
X51952729Y-68415848D01*
X51779807Y-68338857D01*
X51779802Y-68338855D01*
X51634001Y-68307865D01*
X51594646Y-68299500D01*
X51405354Y-68299500D01*
X51372897Y-68306398D01*
X51220197Y-68338855D01*
X51220192Y-68338857D01*
X51047270Y-68415848D01*
X51047265Y-68415851D01*
X50894129Y-68527111D01*
X50767466Y-68667785D01*
X50672821Y-68831715D01*
X50672818Y-68831722D01*
X50616393Y-69005381D01*
X50614326Y-69011744D01*
X50594540Y-69200000D01*
X50200500Y-69200000D01*
X50200500Y-62699995D01*
X54794732Y-62699995D01*
X54794732Y-62700004D01*
X54813777Y-62954154D01*
X54867128Y-63187902D01*
X54870492Y-63202637D01*
X54963607Y-63439888D01*
X55091041Y-63660612D01*
X55249950Y-63859877D01*
X55436783Y-64033232D01*
X55647366Y-64176805D01*
X55647371Y-64176807D01*
X55647372Y-64176808D01*
X55647373Y-64176809D01*
X55732603Y-64217853D01*
X55876992Y-64287387D01*
X55876993Y-64287387D01*
X55876996Y-64287389D01*
X55942334Y-64307543D01*
X56020029Y-64331509D01*
X56078288Y-64370080D01*
X56106446Y-64434024D01*
X56095562Y-64503041D01*
X56049093Y-64555218D01*
X56020029Y-64568491D01*
X55876992Y-64612612D01*
X55647373Y-64723190D01*
X55647372Y-64723191D01*
X55436782Y-64866768D01*
X55249952Y-65040121D01*
X55249950Y-65040123D01*
X55091041Y-65239388D01*
X54963608Y-65460109D01*
X54870492Y-65697362D01*
X54870490Y-65697369D01*
X54813777Y-65945845D01*
X54794732Y-66199995D01*
X54794732Y-66200004D01*
X54813777Y-66454154D01*
X54863446Y-66671769D01*
X54870492Y-66702637D01*
X54958402Y-66926627D01*
X54963608Y-66939890D01*
X54987322Y-66980964D01*
X55091041Y-67160612D01*
X55249950Y-67359877D01*
X55436783Y-67533232D01*
X55647366Y-67676805D01*
X55647371Y-67676807D01*
X55647372Y-67676808D01*
X55647373Y-67676809D01*
X55732609Y-67717856D01*
X55876992Y-67787387D01*
X55876993Y-67787387D01*
X55876996Y-67787389D01*
X56120542Y-67862513D01*
X56372565Y-67900500D01*
X56627435Y-67900500D01*
X56879458Y-67862513D01*
X57123004Y-67787389D01*
X57352634Y-67676805D01*
X57563217Y-67533232D01*
X57750050Y-67359877D01*
X57908959Y-67160612D01*
X58036393Y-66939888D01*
X58129508Y-66702637D01*
X58186222Y-66454157D01*
X58198696Y-66287705D01*
X58205268Y-66200004D01*
X58205268Y-66199995D01*
X58186222Y-65945845D01*
X58181834Y-65926622D01*
X58129508Y-65697363D01*
X58036393Y-65460112D01*
X57908959Y-65239388D01*
X57750050Y-65040123D01*
X57563217Y-64866768D01*
X57352634Y-64723195D01*
X57352630Y-64723193D01*
X57352627Y-64723191D01*
X57352626Y-64723190D01*
X57123006Y-64612612D01*
X57123008Y-64612612D01*
X56979970Y-64568491D01*
X56921711Y-64529921D01*
X56893553Y-64465976D01*
X56896072Y-64450000D01*
X72594353Y-64450000D01*
X72614834Y-64592456D01*
X72674622Y-64723371D01*
X72674625Y-64723377D01*
X72713983Y-64768798D01*
X72743008Y-64832353D01*
X72733064Y-64901512D01*
X72713983Y-64931202D01*
X72674625Y-64976622D01*
X72674622Y-64976628D01*
X72614834Y-65107543D01*
X72594353Y-65250000D01*
X72614834Y-65392456D01*
X72674622Y-65523371D01*
X72674625Y-65523377D01*
X72713983Y-65568798D01*
X72743008Y-65632353D01*
X72733064Y-65701512D01*
X72713983Y-65731202D01*
X72674625Y-65776622D01*
X72674622Y-65776628D01*
X72614834Y-65907543D01*
X72594353Y-66050000D01*
X72614834Y-66192456D01*
X72673167Y-66320185D01*
X72674623Y-66323373D01*
X72768872Y-66432143D01*
X72889947Y-66509953D01*
X72889950Y-66509954D01*
X72889949Y-66509954D01*
X73028036Y-66550499D01*
X73028038Y-66550500D01*
X73028039Y-66550500D01*
X73171962Y-66550500D01*
X73171962Y-66550499D01*
X73310053Y-66509953D01*
X73431128Y-66432143D01*
X73525377Y-66323373D01*
X73585165Y-66192457D01*
X73605647Y-66050000D01*
X73585165Y-65907543D01*
X73525377Y-65776627D01*
X73525375Y-65776625D01*
X73525374Y-65776622D01*
X73486017Y-65731203D01*
X73456991Y-65667648D01*
X73466934Y-65598489D01*
X73486017Y-65568797D01*
X73525374Y-65523377D01*
X73525374Y-65523375D01*
X73525377Y-65523373D01*
X73585165Y-65392457D01*
X73605647Y-65250000D01*
X73585165Y-65107543D01*
X73525377Y-64976627D01*
X73525375Y-64976625D01*
X73525374Y-64976622D01*
X73486017Y-64931203D01*
X73456991Y-64867648D01*
X73466934Y-64798489D01*
X73486017Y-64768797D01*
X73525374Y-64723377D01*
X73525374Y-64723375D01*
X73525377Y-64723373D01*
X73585165Y-64592457D01*
X73605647Y-64450000D01*
X73585165Y-64307543D01*
X73525377Y-64176627D01*
X73431128Y-64067857D01*
X73310053Y-63990047D01*
X73310051Y-63990046D01*
X73310049Y-63990045D01*
X73310050Y-63990045D01*
X73171963Y-63949500D01*
X73171961Y-63949500D01*
X73028039Y-63949500D01*
X73028036Y-63949500D01*
X72889949Y-63990045D01*
X72768873Y-64067856D01*
X72674623Y-64176626D01*
X72674622Y-64176628D01*
X72614834Y-64307543D01*
X72594353Y-64450000D01*
X56896072Y-64450000D01*
X56904437Y-64396959D01*
X56950906Y-64344782D01*
X56979970Y-64331509D01*
X57123004Y-64287389D01*
X57352634Y-64176805D01*
X57563217Y-64033232D01*
X57750050Y-63859877D01*
X57908959Y-63660612D01*
X58001688Y-63500000D01*
X66794353Y-63500000D01*
X66814834Y-63642456D01*
X66872103Y-63767856D01*
X66874623Y-63773373D01*
X66968872Y-63882143D01*
X67089947Y-63959953D01*
X67089950Y-63959954D01*
X67089949Y-63959954D01*
X67228036Y-64000499D01*
X67228038Y-64000500D01*
X67228039Y-64000500D01*
X67371962Y-64000500D01*
X67371962Y-64000499D01*
X67510053Y-63959953D01*
X67631128Y-63882143D01*
X67725377Y-63773373D01*
X67785165Y-63642457D01*
X67805647Y-63500000D01*
X67785165Y-63357543D01*
X67725377Y-63226627D01*
X67631128Y-63117857D01*
X67510053Y-63040047D01*
X67510051Y-63040046D01*
X67510049Y-63040045D01*
X67510050Y-63040045D01*
X67371963Y-62999500D01*
X67371961Y-62999500D01*
X67228039Y-62999500D01*
X67228036Y-62999500D01*
X67089949Y-63040045D01*
X66968873Y-63117856D01*
X66874623Y-63226626D01*
X66874622Y-63226628D01*
X66814834Y-63357543D01*
X66794353Y-63500000D01*
X58001688Y-63500000D01*
X58036393Y-63439888D01*
X58129508Y-63202637D01*
X58186222Y-62954157D01*
X58205268Y-62700000D01*
X58201558Y-62650499D01*
X58186222Y-62445845D01*
X58185915Y-62444502D01*
X58129508Y-62197363D01*
X58036393Y-61960112D01*
X57908959Y-61739388D01*
X57750050Y-61540123D01*
X57563217Y-61366768D01*
X57538623Y-61350000D01*
X72594353Y-61350000D01*
X72614834Y-61492456D01*
X72674622Y-61623371D01*
X72674625Y-61623377D01*
X72713983Y-61668798D01*
X72743008Y-61732353D01*
X72733064Y-61801512D01*
X72713983Y-61831202D01*
X72674625Y-61876622D01*
X72674622Y-61876628D01*
X72614834Y-62007543D01*
X72594353Y-62150000D01*
X72614834Y-62292456D01*
X72674622Y-62423371D01*
X72674623Y-62423373D01*
X72768872Y-62532143D01*
X72889947Y-62609953D01*
X72889950Y-62609954D01*
X72889949Y-62609954D01*
X73028036Y-62650499D01*
X73028038Y-62650500D01*
X73028039Y-62650500D01*
X73171962Y-62650500D01*
X73171962Y-62650499D01*
X73310053Y-62609953D01*
X73431128Y-62532143D01*
X73525377Y-62423373D01*
X73585165Y-62292457D01*
X73605647Y-62150000D01*
X73585165Y-62007543D01*
X73525377Y-61876627D01*
X73525375Y-61876625D01*
X73525374Y-61876622D01*
X73486017Y-61831203D01*
X73456991Y-61767648D01*
X73466934Y-61698489D01*
X73486017Y-61668797D01*
X73525374Y-61623377D01*
X73525374Y-61623375D01*
X73525377Y-61623373D01*
X73585165Y-61492457D01*
X73605647Y-61350000D01*
X73585165Y-61207543D01*
X73525377Y-61076627D01*
X73431128Y-60967857D01*
X73310053Y-60890047D01*
X73310051Y-60890046D01*
X73310049Y-60890045D01*
X73310050Y-60890045D01*
X73171963Y-60849500D01*
X73171961Y-60849500D01*
X73028039Y-60849500D01*
X73028036Y-60849500D01*
X72889949Y-60890045D01*
X72768873Y-60967856D01*
X72674623Y-61076626D01*
X72674622Y-61076628D01*
X72614834Y-61207543D01*
X72594353Y-61350000D01*
X57538623Y-61350000D01*
X57352634Y-61223195D01*
X57352630Y-61223193D01*
X57352627Y-61223191D01*
X57352625Y-61223190D01*
X57172029Y-61136220D01*
X57120169Y-61089398D01*
X57101856Y-61021971D01*
X57122904Y-60955347D01*
X57176630Y-60910678D01*
X57225830Y-60900500D01*
X58019750Y-60900500D01*
X58019751Y-60900499D01*
X58034568Y-60897552D01*
X58078229Y-60888868D01*
X58078229Y-60888867D01*
X58078231Y-60888867D01*
X58144552Y-60844552D01*
X58188867Y-60778231D01*
X58188867Y-60778229D01*
X58188868Y-60778229D01*
X58200499Y-60719752D01*
X58200500Y-60719750D01*
X58200500Y-57680249D01*
X58200499Y-57680247D01*
X58188868Y-57621770D01*
X58188867Y-57621769D01*
X58144552Y-57555447D01*
X58078230Y-57511132D01*
X58078229Y-57511131D01*
X58019752Y-57499500D01*
X58019748Y-57499500D01*
X54980252Y-57499500D01*
X54980247Y-57499500D01*
X54921770Y-57511131D01*
X54921769Y-57511132D01*
X54855447Y-57555447D01*
X54811132Y-57621769D01*
X54811131Y-57621770D01*
X54799500Y-57680247D01*
X54799500Y-60719752D01*
X54811131Y-60778229D01*
X54811132Y-60778230D01*
X54855447Y-60844552D01*
X54921769Y-60888867D01*
X54921770Y-60888868D01*
X54980247Y-60900499D01*
X54980250Y-60900500D01*
X55774170Y-60900500D01*
X55841209Y-60920185D01*
X55886964Y-60972989D01*
X55896908Y-61042147D01*
X55867883Y-61105703D01*
X55827971Y-61136220D01*
X55647374Y-61223190D01*
X55647372Y-61223191D01*
X55436782Y-61366768D01*
X55249952Y-61540121D01*
X55249950Y-61540123D01*
X55091041Y-61739388D01*
X54963608Y-61960109D01*
X54870492Y-62197362D01*
X54870490Y-62197369D01*
X54813777Y-62445845D01*
X54794732Y-62699995D01*
X50200500Y-62699995D01*
X50200500Y-56200000D01*
X50594540Y-56200000D01*
X50614326Y-56388256D01*
X50614327Y-56388259D01*
X50672818Y-56568277D01*
X50672821Y-56568284D01*
X50767467Y-56732216D01*
X50861652Y-56836819D01*
X50894129Y-56872888D01*
X51047265Y-56984148D01*
X51047270Y-56984151D01*
X51220192Y-57061142D01*
X51220197Y-57061144D01*
X51405354Y-57100500D01*
X51405355Y-57100500D01*
X51594644Y-57100500D01*
X51594646Y-57100500D01*
X51779803Y-57061144D01*
X51952730Y-56984151D01*
X52105871Y-56872888D01*
X52232533Y-56732216D01*
X52327179Y-56568284D01*
X52344492Y-56515000D01*
X58549353Y-56515000D01*
X58569834Y-56657456D01*
X58626250Y-56780988D01*
X58636194Y-56850147D01*
X58626250Y-56884012D01*
X58569834Y-57007543D01*
X58549353Y-57150000D01*
X58569834Y-57292456D01*
X58626250Y-57415988D01*
X58636194Y-57485147D01*
X58626250Y-57519012D01*
X58569834Y-57642543D01*
X58549353Y-57785000D01*
X58569834Y-57927456D01*
X58607247Y-58009378D01*
X58629623Y-58058373D01*
X58723872Y-58167143D01*
X58844947Y-58244953D01*
X58844950Y-58244954D01*
X58844949Y-58244954D01*
X58983036Y-58285499D01*
X58983038Y-58285500D01*
X58983039Y-58285500D01*
X59126962Y-58285500D01*
X59126962Y-58285499D01*
X59265053Y-58244953D01*
X59305460Y-58218984D01*
X59372498Y-58199299D01*
X59439533Y-58218980D01*
X59476062Y-58242456D01*
X59479947Y-58244953D01*
X59479949Y-58244954D01*
X59618036Y-58285499D01*
X59618038Y-58285500D01*
X59618039Y-58285500D01*
X59761962Y-58285500D01*
X59761962Y-58285499D01*
X59900053Y-58244953D01*
X59940460Y-58218984D01*
X60007498Y-58199299D01*
X60074533Y-58218980D01*
X60111062Y-58242456D01*
X60114947Y-58244953D01*
X60114949Y-58244954D01*
X60253036Y-58285499D01*
X60253038Y-58285500D01*
X60253039Y-58285500D01*
X60396962Y-58285500D01*
X60396962Y-58285499D01*
X60535053Y-58244953D01*
X60575460Y-58218984D01*
X60642498Y-58199299D01*
X60709533Y-58218980D01*
X60746062Y-58242456D01*
X60749947Y-58244953D01*
X60749949Y-58244954D01*
X60888036Y-58285499D01*
X60888038Y-58285500D01*
X60888039Y-58285500D01*
X61031962Y-58285500D01*
X61031962Y-58285499D01*
X61170053Y-58244953D01*
X61210460Y-58218984D01*
X61277498Y-58199299D01*
X61344533Y-58218980D01*
X61381062Y-58242456D01*
X61384947Y-58244953D01*
X61384949Y-58244954D01*
X61523036Y-58285499D01*
X61523038Y-58285500D01*
X61600587Y-58285500D01*
X61667626Y-58305185D01*
X61713381Y-58357989D01*
X61721030Y-58411131D01*
X61724353Y-58411131D01*
X61724353Y-58419999D01*
X61744834Y-58562456D01*
X61801250Y-58685988D01*
X61811194Y-58755147D01*
X61801250Y-58789012D01*
X61744834Y-58912543D01*
X61724353Y-59055000D01*
X61744834Y-59197456D01*
X61801250Y-59320988D01*
X61811194Y-59390147D01*
X61801250Y-59424012D01*
X61744834Y-59547543D01*
X61724353Y-59690000D01*
X61744834Y-59832456D01*
X61776001Y-59900700D01*
X61804623Y-59963373D01*
X61898872Y-60072143D01*
X62019947Y-60149953D01*
X62019950Y-60149954D01*
X62019949Y-60149954D01*
X62158036Y-60190499D01*
X62158038Y-60190500D01*
X62158039Y-60190500D01*
X62301962Y-60190500D01*
X62301962Y-60190499D01*
X62440053Y-60149953D01*
X62480460Y-60123984D01*
X62547498Y-60104299D01*
X62614533Y-60123980D01*
X62640305Y-60140543D01*
X62654947Y-60149953D01*
X62654949Y-60149954D01*
X62793036Y-60190499D01*
X62793038Y-60190500D01*
X62856143Y-60190500D01*
X62923182Y-60210185D01*
X62968937Y-60262989D01*
X62978881Y-60332146D01*
X62968953Y-60401199D01*
X62989434Y-60543656D01*
X63027327Y-60626628D01*
X63049223Y-60674573D01*
X63143472Y-60783343D01*
X63264547Y-60861153D01*
X63264550Y-60861154D01*
X63264549Y-60861154D01*
X63358933Y-60888867D01*
X63396849Y-60900000D01*
X63402636Y-60901699D01*
X63402638Y-60901700D01*
X63402639Y-60901700D01*
X63546562Y-60901700D01*
X63546562Y-60901699D01*
X63684653Y-60861153D01*
X63805728Y-60783343D01*
X63899977Y-60674573D01*
X63959765Y-60543657D01*
X63980247Y-60401200D01*
X63959765Y-60258743D01*
X63899977Y-60127827D01*
X63872746Y-60096400D01*
X66994353Y-60096400D01*
X67014834Y-60238856D01*
X67057439Y-60332146D01*
X67074623Y-60369773D01*
X67168872Y-60478543D01*
X67289947Y-60556353D01*
X67289950Y-60556354D01*
X67289949Y-60556354D01*
X67428036Y-60596899D01*
X67428038Y-60596900D01*
X67428039Y-60596900D01*
X67571962Y-60596900D01*
X67571962Y-60596899D01*
X67710053Y-60556353D01*
X67831128Y-60478543D01*
X67925377Y-60369773D01*
X67985165Y-60238857D01*
X68005647Y-60096400D01*
X67985165Y-59953943D01*
X67925377Y-59823027D01*
X67831128Y-59714257D01*
X67710053Y-59636447D01*
X67710051Y-59636446D01*
X67710049Y-59636445D01*
X67710050Y-59636445D01*
X67571963Y-59595900D01*
X67571961Y-59595900D01*
X67428039Y-59595900D01*
X67428036Y-59595900D01*
X67289949Y-59636445D01*
X67168873Y-59714256D01*
X67074623Y-59823026D01*
X67074622Y-59823028D01*
X67014834Y-59953943D01*
X66994353Y-60096400D01*
X63872746Y-60096400D01*
X63805728Y-60019057D01*
X63684653Y-59941247D01*
X63684651Y-59941246D01*
X63684649Y-59941245D01*
X63684650Y-59941245D01*
X63546563Y-59900700D01*
X63546561Y-59900700D01*
X63483457Y-59900700D01*
X63416418Y-59881015D01*
X63370663Y-59828211D01*
X63360719Y-59759054D01*
X63370647Y-59690000D01*
X63350165Y-59547543D01*
X63305333Y-59449376D01*
X63293748Y-59424009D01*
X63283805Y-59354854D01*
X63293747Y-59320992D01*
X63350165Y-59197457D01*
X63370647Y-59055000D01*
X63350165Y-58912543D01*
X63293748Y-58789009D01*
X63283805Y-58719854D01*
X63293747Y-58685992D01*
X63350165Y-58562457D01*
X63370647Y-58420000D01*
X63350165Y-58277543D01*
X63293748Y-58154009D01*
X63283805Y-58084854D01*
X63293747Y-58050992D01*
X63350165Y-57927457D01*
X63370647Y-57785000D01*
X63350165Y-57642543D01*
X63290377Y-57511627D01*
X63196128Y-57402857D01*
X63075053Y-57325047D01*
X63075051Y-57325046D01*
X63075049Y-57325045D01*
X63075050Y-57325045D01*
X62936963Y-57284500D01*
X62936961Y-57284500D01*
X62859413Y-57284500D01*
X62792374Y-57264815D01*
X62746619Y-57212011D01*
X62738970Y-57158869D01*
X62735647Y-57158869D01*
X62735647Y-57150000D01*
X62733490Y-57135000D01*
X67694353Y-57135000D01*
X67714834Y-57277456D01*
X67737290Y-57326626D01*
X67774623Y-57408373D01*
X67868872Y-57517143D01*
X67989947Y-57594953D01*
X67989950Y-57594954D01*
X67989949Y-57594954D01*
X68128036Y-57635499D01*
X68128038Y-57635500D01*
X68128039Y-57635500D01*
X68271962Y-57635500D01*
X68271962Y-57635499D01*
X68379121Y-57604035D01*
X68410050Y-57594954D01*
X68410050Y-57594953D01*
X68410053Y-57594953D01*
X68531128Y-57517143D01*
X68625377Y-57408373D01*
X68685165Y-57277457D01*
X68705647Y-57135000D01*
X68685165Y-56992543D01*
X68625377Y-56861627D01*
X68531128Y-56752857D01*
X68410053Y-56675047D01*
X68410051Y-56675046D01*
X68410049Y-56675045D01*
X68410050Y-56675045D01*
X68271963Y-56634500D01*
X68271961Y-56634500D01*
X68128039Y-56634500D01*
X68128036Y-56634500D01*
X67989949Y-56675045D01*
X67868873Y-56752856D01*
X67774623Y-56861626D01*
X67774622Y-56861628D01*
X67714834Y-56992543D01*
X67694353Y-57135000D01*
X62733490Y-57135000D01*
X62715165Y-57007543D01*
X62694960Y-56963300D01*
X62655377Y-56876627D01*
X62561128Y-56767857D01*
X62440053Y-56690047D01*
X62440051Y-56690046D01*
X62440049Y-56690045D01*
X62440050Y-56690045D01*
X62301963Y-56649500D01*
X62301961Y-56649500D01*
X62224413Y-56649500D01*
X62157374Y-56629815D01*
X62111619Y-56577011D01*
X62103970Y-56523869D01*
X62100647Y-56523869D01*
X62100647Y-56515000D01*
X62098490Y-56500000D01*
X66394353Y-56500000D01*
X66414834Y-56642456D01*
X66474398Y-56772880D01*
X66474623Y-56773373D01*
X66568872Y-56882143D01*
X66689947Y-56959953D01*
X66689950Y-56959954D01*
X66689949Y-56959954D01*
X66797107Y-56991417D01*
X66810322Y-56995298D01*
X66828036Y-57000499D01*
X66828038Y-57000500D01*
X66828039Y-57000500D01*
X66971962Y-57000500D01*
X66971962Y-57000499D01*
X67110053Y-56959953D01*
X67231128Y-56882143D01*
X67325377Y-56773373D01*
X67385165Y-56642457D01*
X67405647Y-56500000D01*
X67385165Y-56357543D01*
X67325377Y-56226627D01*
X67231128Y-56117857D01*
X67110053Y-56040047D01*
X67110051Y-56040046D01*
X67110049Y-56040045D01*
X67110050Y-56040045D01*
X66971963Y-55999500D01*
X66971961Y-55999500D01*
X66828039Y-55999500D01*
X66828036Y-55999500D01*
X66689949Y-56040045D01*
X66568873Y-56117856D01*
X66474623Y-56226626D01*
X66474622Y-56226628D01*
X66414834Y-56357543D01*
X66394353Y-56500000D01*
X62098490Y-56500000D01*
X62080165Y-56372543D01*
X62064993Y-56339322D01*
X62020377Y-56241627D01*
X61926128Y-56132857D01*
X61805053Y-56055047D01*
X61805051Y-56055046D01*
X61805049Y-56055045D01*
X61805050Y-56055045D01*
X61666963Y-56014500D01*
X61666961Y-56014500D01*
X61523039Y-56014500D01*
X61523036Y-56014500D01*
X61384951Y-56055044D01*
X61384945Y-56055047D01*
X61344539Y-56081015D01*
X61277499Y-56100699D01*
X61210461Y-56081015D01*
X61170054Y-56055047D01*
X61170048Y-56055044D01*
X61031963Y-56014500D01*
X61031961Y-56014500D01*
X60888039Y-56014500D01*
X60888036Y-56014500D01*
X60749951Y-56055044D01*
X60749945Y-56055047D01*
X60709539Y-56081015D01*
X60642499Y-56100699D01*
X60575461Y-56081015D01*
X60535054Y-56055047D01*
X60535048Y-56055044D01*
X60396963Y-56014500D01*
X60396961Y-56014500D01*
X60253039Y-56014500D01*
X60253036Y-56014500D01*
X60114951Y-56055044D01*
X60114945Y-56055047D01*
X60074539Y-56081015D01*
X60007499Y-56100699D01*
X59940461Y-56081015D01*
X59900054Y-56055047D01*
X59900048Y-56055044D01*
X59761963Y-56014500D01*
X59761961Y-56014500D01*
X59618039Y-56014500D01*
X59618036Y-56014500D01*
X59479951Y-56055044D01*
X59479945Y-56055047D01*
X59439539Y-56081015D01*
X59372499Y-56100699D01*
X59305461Y-56081015D01*
X59265054Y-56055047D01*
X59265048Y-56055044D01*
X59126963Y-56014500D01*
X59126961Y-56014500D01*
X58983039Y-56014500D01*
X58983036Y-56014500D01*
X58844949Y-56055045D01*
X58723873Y-56132856D01*
X58629623Y-56241626D01*
X58629622Y-56241628D01*
X58569834Y-56372543D01*
X58549353Y-56515000D01*
X52344492Y-56515000D01*
X52385674Y-56388256D01*
X52405460Y-56200000D01*
X52385674Y-56011744D01*
X52327179Y-55831716D01*
X52232533Y-55667784D01*
X52105871Y-55527112D01*
X52093840Y-55518371D01*
X51952734Y-55415851D01*
X51952729Y-55415848D01*
X51779807Y-55338857D01*
X51779802Y-55338855D01*
X51634001Y-55307865D01*
X51594646Y-55299500D01*
X51405354Y-55299500D01*
X51372897Y-55306398D01*
X51220197Y-55338855D01*
X51220192Y-55338857D01*
X51047270Y-55415848D01*
X51047265Y-55415851D01*
X50894129Y-55527111D01*
X50767466Y-55667785D01*
X50672821Y-55831715D01*
X50672818Y-55831722D01*
X50618304Y-55999500D01*
X50614326Y-56011744D01*
X50594540Y-56200000D01*
X50200500Y-56200000D01*
X50200500Y-53003480D01*
X50200695Y-52996527D01*
X50202740Y-52960118D01*
X50217713Y-52693494D01*
X50219267Y-52679700D01*
X50269523Y-52383915D01*
X50272616Y-52370363D01*
X50292962Y-52299743D01*
X50336102Y-52150000D01*
X53494353Y-52150000D01*
X53514834Y-52292456D01*
X53550414Y-52370363D01*
X53574623Y-52423373D01*
X53668872Y-52532143D01*
X53789947Y-52609953D01*
X53789950Y-52609954D01*
X53789949Y-52609954D01*
X53928037Y-52650500D01*
X53935564Y-52651582D01*
X53999120Y-52680604D01*
X54005602Y-52686639D01*
X54624725Y-53305762D01*
X54694638Y-53375675D01*
X54780262Y-53425110D01*
X54780266Y-53425111D01*
X54821275Y-53436100D01*
X54821276Y-53436100D01*
X54835876Y-53440011D01*
X54875764Y-53450700D01*
X54875765Y-53450700D01*
X66830530Y-53450700D01*
X66897569Y-53470385D01*
X66943324Y-53523189D01*
X66953268Y-53592347D01*
X66924243Y-53655902D01*
X66884625Y-53701623D01*
X66884622Y-53701628D01*
X66824834Y-53832543D01*
X66804353Y-53975000D01*
X66824834Y-54117456D01*
X66837433Y-54145043D01*
X66884623Y-54248373D01*
X66978872Y-54357143D01*
X67099947Y-54434953D01*
X67099950Y-54434954D01*
X67099949Y-54434954D01*
X67238036Y-54475499D01*
X67238038Y-54475500D01*
X67315587Y-54475500D01*
X67382626Y-54495185D01*
X67428381Y-54547989D01*
X67436030Y-54601131D01*
X67439353Y-54601131D01*
X67439353Y-54609999D01*
X67459834Y-54752456D01*
X67490453Y-54819501D01*
X67519623Y-54883373D01*
X67613872Y-54992143D01*
X67734947Y-55069953D01*
X67734950Y-55069954D01*
X67734949Y-55069954D01*
X67873036Y-55110499D01*
X67873038Y-55110500D01*
X67950587Y-55110500D01*
X68017626Y-55130185D01*
X68063381Y-55182989D01*
X68071030Y-55236131D01*
X68074353Y-55236131D01*
X68074353Y-55244999D01*
X68094834Y-55387456D01*
X68117686Y-55437494D01*
X68154623Y-55518373D01*
X68248872Y-55627143D01*
X68369947Y-55704953D01*
X68369950Y-55704954D01*
X68369949Y-55704954D01*
X68508036Y-55745499D01*
X68508038Y-55745500D01*
X68585587Y-55745500D01*
X68652626Y-55765185D01*
X68698381Y-55817989D01*
X68706030Y-55871131D01*
X68709353Y-55871131D01*
X68709353Y-55879999D01*
X68729834Y-56022456D01*
X68789622Y-56153371D01*
X68789623Y-56153373D01*
X68883872Y-56262143D01*
X69004947Y-56339953D01*
X69004950Y-56339954D01*
X69004949Y-56339954D01*
X69143036Y-56380499D01*
X69143038Y-56380500D01*
X69143039Y-56380500D01*
X69286962Y-56380500D01*
X69286962Y-56380499D01*
X69425053Y-56339953D01*
X69426037Y-56339320D01*
X69427162Y-56338989D01*
X69433118Y-56336270D01*
X69433508Y-56337125D01*
X69493069Y-56319629D01*
X69560111Y-56339305D01*
X69580766Y-56355948D01*
X69588969Y-56364151D01*
X69655292Y-56408467D01*
X69655293Y-56408468D01*
X69713770Y-56420099D01*
X69713773Y-56420100D01*
X71759363Y-56420100D01*
X71759363Y-56421896D01*
X71819688Y-56433331D01*
X71870403Y-56481391D01*
X71885945Y-56526074D01*
X71904834Y-56657456D01*
X71958528Y-56775027D01*
X71964623Y-56788373D01*
X72058872Y-56897143D01*
X72179947Y-56974953D01*
X72179950Y-56974954D01*
X72179949Y-56974954D01*
X72318036Y-57015499D01*
X72318038Y-57015500D01*
X72318039Y-57015500D01*
X72461962Y-57015500D01*
X72461962Y-57015499D01*
X72600053Y-56974953D01*
X72721128Y-56897143D01*
X72815377Y-56788373D01*
X72865512Y-56678593D01*
X72911264Y-56625793D01*
X72978304Y-56606108D01*
X73045343Y-56625792D01*
X73065985Y-56642427D01*
X80386858Y-63963301D01*
X80420343Y-64024624D01*
X80415359Y-64094316D01*
X80373487Y-64150249D01*
X80366216Y-64155297D01*
X80268876Y-64217853D01*
X80268874Y-64217855D01*
X80174623Y-64326626D01*
X80174622Y-64326628D01*
X80114834Y-64457543D01*
X80094353Y-64600000D01*
X80116097Y-64751235D01*
X80114279Y-64751496D01*
X80114278Y-64810438D01*
X80076502Y-64869215D01*
X80012945Y-64898238D01*
X79995302Y-64899500D01*
X79928036Y-64899500D01*
X79789949Y-64940045D01*
X79668873Y-65017856D01*
X79574623Y-65126626D01*
X79574622Y-65126628D01*
X79514834Y-65257543D01*
X79494353Y-65400000D01*
X79514834Y-65542456D01*
X79574622Y-65673371D01*
X79574625Y-65673377D01*
X79613983Y-65718798D01*
X79643008Y-65782353D01*
X79633064Y-65851512D01*
X79613983Y-65881202D01*
X79574625Y-65926622D01*
X79574622Y-65926628D01*
X79514834Y-66057543D01*
X79494353Y-66200000D01*
X79514834Y-66342456D01*
X79567394Y-66457544D01*
X79574623Y-66473373D01*
X79668872Y-66582143D01*
X79789947Y-66659953D01*
X79789950Y-66659954D01*
X79789949Y-66659954D01*
X79897107Y-66691417D01*
X79924633Y-66699500D01*
X79928036Y-66700499D01*
X79928038Y-66700500D01*
X79928039Y-66700500D01*
X80071962Y-66700500D01*
X80071962Y-66700499D01*
X80210053Y-66659953D01*
X80331128Y-66582143D01*
X80425377Y-66473373D01*
X80485165Y-66342457D01*
X80505647Y-66200000D01*
X80485165Y-66057543D01*
X80425377Y-65926627D01*
X80425375Y-65926625D01*
X80425374Y-65926622D01*
X80386017Y-65881203D01*
X80356991Y-65817648D01*
X80366934Y-65748489D01*
X80386017Y-65718797D01*
X80425374Y-65673377D01*
X80425374Y-65673375D01*
X80425377Y-65673373D01*
X80485165Y-65542457D01*
X80505647Y-65400000D01*
X80485165Y-65257543D01*
X80483903Y-65248765D01*
X80485720Y-65248503D01*
X80485722Y-65189562D01*
X80523498Y-65130785D01*
X80587055Y-65101762D01*
X80604698Y-65100500D01*
X80671962Y-65100500D01*
X80671962Y-65100499D01*
X80810053Y-65059953D01*
X80931128Y-64982143D01*
X81025377Y-64873373D01*
X81036322Y-64849405D01*
X81082073Y-64796605D01*
X81149112Y-64776919D01*
X81216152Y-64796602D01*
X81236796Y-64813238D01*
X82311376Y-65887819D01*
X82344861Y-65949142D01*
X82339877Y-66018834D01*
X82298005Y-66074767D01*
X82232541Y-66099184D01*
X82223695Y-66099500D01*
X82128036Y-66099500D01*
X81989949Y-66140045D01*
X81868873Y-66217856D01*
X81774623Y-66326626D01*
X81774622Y-66326628D01*
X81714834Y-66457543D01*
X81694353Y-66600000D01*
X81714834Y-66742456D01*
X81747160Y-66813238D01*
X81774623Y-66873373D01*
X81868872Y-66982143D01*
X81989947Y-67059953D01*
X81989950Y-67059954D01*
X81989949Y-67059954D01*
X82128036Y-67100499D01*
X82128038Y-67100500D01*
X82128039Y-67100500D01*
X82271962Y-67100500D01*
X82271962Y-67100499D01*
X82410053Y-67059953D01*
X82531128Y-66982143D01*
X82625377Y-66873373D01*
X82685165Y-66742457D01*
X82705647Y-66600000D01*
X82685165Y-66457543D01*
X82685164Y-66457541D01*
X82684941Y-66456781D01*
X82684940Y-66455984D01*
X82683903Y-66448765D01*
X82684940Y-66448615D01*
X82684939Y-66386911D01*
X82722711Y-66328132D01*
X82786266Y-66299105D01*
X82821867Y-66301228D01*
X82822103Y-66299439D01*
X82830157Y-66300499D01*
X82830159Y-66300500D01*
X82830160Y-66300500D01*
X83245302Y-66300500D01*
X83312341Y-66320185D01*
X83358096Y-66372989D01*
X83368040Y-66442147D01*
X83365116Y-66455587D01*
X83344353Y-66600000D01*
X83364834Y-66742456D01*
X83397160Y-66813238D01*
X83424623Y-66873373D01*
X83518872Y-66982143D01*
X83639947Y-67059953D01*
X83639950Y-67059954D01*
X83639949Y-67059954D01*
X83778036Y-67100499D01*
X83778038Y-67100500D01*
X83778039Y-67100500D01*
X83921962Y-67100500D01*
X83921962Y-67100499D01*
X84060050Y-67059954D01*
X84060051Y-67059954D01*
X84076318Y-67049500D01*
X84181128Y-66982143D01*
X84181129Y-66982141D01*
X84182960Y-66980965D01*
X84250000Y-66961280D01*
X84317039Y-66980964D01*
X84317040Y-66980965D01*
X84318870Y-66982141D01*
X84318872Y-66982143D01*
X84396251Y-67031871D01*
X84439948Y-67059954D01*
X84578036Y-67100499D01*
X84578038Y-67100500D01*
X84578039Y-67100500D01*
X84721962Y-67100500D01*
X84721962Y-67100499D01*
X84860050Y-67059954D01*
X84860051Y-67059954D01*
X84876318Y-67049500D01*
X84981128Y-66982143D01*
X84981129Y-66982141D01*
X84982960Y-66980965D01*
X85050000Y-66961280D01*
X85117039Y-66980964D01*
X85117040Y-66980965D01*
X85118870Y-66982141D01*
X85118872Y-66982143D01*
X85196251Y-67031871D01*
X85239948Y-67059954D01*
X85378036Y-67100499D01*
X85378038Y-67100500D01*
X85378039Y-67100500D01*
X85521962Y-67100500D01*
X85521962Y-67100499D01*
X85660053Y-67059953D01*
X85781128Y-66982143D01*
X85875377Y-66873373D01*
X85886322Y-66849405D01*
X85932073Y-66796605D01*
X85999112Y-66776919D01*
X86066152Y-66796602D01*
X86086796Y-66813238D01*
X87683576Y-68410018D01*
X87717061Y-68471341D01*
X87712077Y-68541033D01*
X87708691Y-68549207D01*
X87704886Y-68557538D01*
X87704884Y-68557543D01*
X87684403Y-68700000D01*
X87704884Y-68842456D01*
X87731164Y-68899999D01*
X87764673Y-68973373D01*
X87858922Y-69082143D01*
X87858923Y-69082143D01*
X87864730Y-69088845D01*
X87862730Y-69090577D01*
X87893057Y-69137776D01*
X87893051Y-69207646D01*
X87855271Y-69266420D01*
X87791713Y-69295439D01*
X87774077Y-69296700D01*
X85115973Y-69296700D01*
X85048934Y-69277015D01*
X85003179Y-69224211D01*
X84993235Y-69155053D01*
X85022260Y-69091497D01*
X85027968Y-69085788D01*
X85031124Y-69082145D01*
X85031128Y-69082143D01*
X85125377Y-68973373D01*
X85185165Y-68842457D01*
X85205647Y-68700000D01*
X85185165Y-68557543D01*
X85125377Y-68426627D01*
X85031128Y-68317857D01*
X84910053Y-68240047D01*
X84910051Y-68240046D01*
X84910049Y-68240045D01*
X84910050Y-68240045D01*
X84771963Y-68199500D01*
X84771961Y-68199500D01*
X84628039Y-68199500D01*
X84628036Y-68199500D01*
X84489949Y-68240045D01*
X84368873Y-68317856D01*
X84274623Y-68426626D01*
X84274622Y-68426628D01*
X84214834Y-68557543D01*
X84198071Y-68674136D01*
X84169046Y-68737692D01*
X84110267Y-68775466D01*
X84040398Y-68775466D01*
X83981620Y-68737691D01*
X83962542Y-68708006D01*
X83925377Y-68626627D01*
X83831128Y-68517857D01*
X83710053Y-68440047D01*
X83710051Y-68440046D01*
X83710049Y-68440045D01*
X83710050Y-68440045D01*
X83571963Y-68399500D01*
X83571961Y-68399500D01*
X83428039Y-68399500D01*
X83428036Y-68399500D01*
X83289949Y-68440045D01*
X83167039Y-68519035D01*
X83100000Y-68538719D01*
X83032961Y-68519035D01*
X83017936Y-68509379D01*
X82910053Y-68440047D01*
X82910051Y-68440046D01*
X82910049Y-68440045D01*
X82910050Y-68440045D01*
X82771963Y-68399500D01*
X82771961Y-68399500D01*
X82628039Y-68399500D01*
X82628036Y-68399500D01*
X82489949Y-68440045D01*
X82367039Y-68519035D01*
X82300000Y-68538719D01*
X82232961Y-68519035D01*
X82217936Y-68509379D01*
X82110053Y-68440047D01*
X82110051Y-68440046D01*
X82110049Y-68440045D01*
X82110050Y-68440045D01*
X81971963Y-68399500D01*
X81971961Y-68399500D01*
X81828039Y-68399500D01*
X81828036Y-68399500D01*
X81689949Y-68440045D01*
X81567039Y-68519035D01*
X81500000Y-68538719D01*
X81432961Y-68519035D01*
X81417936Y-68509379D01*
X81310053Y-68440047D01*
X81310051Y-68440046D01*
X81310049Y-68440045D01*
X81310050Y-68440045D01*
X81171963Y-68399500D01*
X81171961Y-68399500D01*
X81028039Y-68399500D01*
X81028036Y-68399500D01*
X80889949Y-68440045D01*
X80768873Y-68517856D01*
X80674623Y-68626626D01*
X80674622Y-68626628D01*
X80612794Y-68762012D01*
X80567039Y-68814816D01*
X80500000Y-68834500D01*
X80432960Y-68814815D01*
X80387206Y-68762012D01*
X80376099Y-68737691D01*
X80325377Y-68626627D01*
X80231128Y-68517857D01*
X80110053Y-68440047D01*
X80110051Y-68440046D01*
X80110049Y-68440045D01*
X80110050Y-68440045D01*
X79971963Y-68399500D01*
X79971961Y-68399500D01*
X79828039Y-68399500D01*
X79828036Y-68399500D01*
X79689949Y-68440045D01*
X79567039Y-68519035D01*
X79500000Y-68538719D01*
X79432960Y-68519034D01*
X79388749Y-68490621D01*
X79342994Y-68437817D01*
X79333051Y-68368658D01*
X79342993Y-68334797D01*
X79385165Y-68242457D01*
X79405647Y-68100000D01*
X79385165Y-67957543D01*
X79325377Y-67826627D01*
X79231128Y-67717857D01*
X79110053Y-67640047D01*
X79110051Y-67640046D01*
X79110049Y-67640045D01*
X79110050Y-67640045D01*
X78971963Y-67599500D01*
X78971961Y-67599500D01*
X78828039Y-67599500D01*
X78828036Y-67599500D01*
X78689949Y-67640045D01*
X78567039Y-67719035D01*
X78500000Y-67738719D01*
X78432961Y-67719035D01*
X78404118Y-67700499D01*
X78310053Y-67640047D01*
X78310051Y-67640046D01*
X78310049Y-67640045D01*
X78310050Y-67640045D01*
X78171963Y-67599500D01*
X78171961Y-67599500D01*
X78028039Y-67599500D01*
X78028036Y-67599500D01*
X77889949Y-67640045D01*
X77768873Y-67717856D01*
X77674623Y-67826626D01*
X77674622Y-67826628D01*
X77614834Y-67957543D01*
X77594353Y-68100000D01*
X77614834Y-68242456D01*
X77674622Y-68373371D01*
X77674623Y-68373373D01*
X77768872Y-68482143D01*
X77889947Y-68559953D01*
X77889950Y-68559954D01*
X77889949Y-68559954D01*
X78028036Y-68600499D01*
X78028038Y-68600500D01*
X78028039Y-68600500D01*
X78171962Y-68600500D01*
X78171962Y-68600499D01*
X78279121Y-68569035D01*
X78310050Y-68559954D01*
X78310051Y-68559954D01*
X78313803Y-68557543D01*
X78431128Y-68482143D01*
X78431129Y-68482141D01*
X78432960Y-68480965D01*
X78500000Y-68461280D01*
X78567039Y-68480964D01*
X78567041Y-68480966D01*
X78611251Y-68509379D01*
X78657005Y-68562183D01*
X78666948Y-68631342D01*
X78657005Y-68665204D01*
X78614834Y-68757545D01*
X78594353Y-68900000D01*
X78614834Y-69042456D01*
X78650791Y-69121188D01*
X78660735Y-69190346D01*
X78631710Y-69253902D01*
X78572933Y-69291677D01*
X78537997Y-69296700D01*
X74143964Y-69296700D01*
X74096212Y-69309495D01*
X74096211Y-69309494D01*
X74048466Y-69322288D01*
X74048459Y-69322291D01*
X74024526Y-69336108D01*
X74005650Y-69347007D01*
X73994946Y-69353186D01*
X73962840Y-69371722D01*
X73962835Y-69371726D01*
X73921381Y-69413181D01*
X73860058Y-69446666D01*
X73833700Y-69449500D01*
X73704698Y-69449500D01*
X73637659Y-69429815D01*
X73591904Y-69377011D01*
X73581960Y-69307853D01*
X73584883Y-69294412D01*
X73585163Y-69292459D01*
X73585165Y-69292457D01*
X73605647Y-69150000D01*
X73585165Y-69007543D01*
X73525377Y-68876627D01*
X73525375Y-68876625D01*
X73525374Y-68876622D01*
X73486017Y-68831203D01*
X73456991Y-68767648D01*
X73466934Y-68698489D01*
X73486017Y-68668797D01*
X73489131Y-68665204D01*
X73497399Y-68655660D01*
X73525374Y-68623377D01*
X73525374Y-68623375D01*
X73525377Y-68623373D01*
X73585165Y-68492457D01*
X73605647Y-68350000D01*
X73585165Y-68207543D01*
X73525377Y-68076627D01*
X73525375Y-68076625D01*
X73525374Y-68076622D01*
X73486017Y-68031203D01*
X73456991Y-67967648D01*
X73466934Y-67898489D01*
X73486017Y-67868797D01*
X73525374Y-67823377D01*
X73525374Y-67823375D01*
X73525377Y-67823373D01*
X73585165Y-67692457D01*
X73605647Y-67550000D01*
X73585165Y-67407543D01*
X73525377Y-67276627D01*
X73431128Y-67167857D01*
X73310053Y-67090047D01*
X73310051Y-67090046D01*
X73310049Y-67090045D01*
X73310050Y-67090045D01*
X73171963Y-67049500D01*
X73171961Y-67049500D01*
X73028039Y-67049500D01*
X73028036Y-67049500D01*
X72889949Y-67090045D01*
X72768873Y-67167856D01*
X72674623Y-67276626D01*
X72674622Y-67276628D01*
X72614834Y-67407543D01*
X72594353Y-67550000D01*
X72614834Y-67692456D01*
X72674622Y-67823371D01*
X72674625Y-67823377D01*
X72713983Y-67868798D01*
X72743008Y-67932353D01*
X72733064Y-68001512D01*
X72713983Y-68031202D01*
X72674625Y-68076622D01*
X72674622Y-68076628D01*
X72614834Y-68207543D01*
X72594353Y-68350000D01*
X72614834Y-68492456D01*
X72674622Y-68623371D01*
X72674625Y-68623377D01*
X72713983Y-68668798D01*
X72743008Y-68732353D01*
X72733064Y-68801512D01*
X72713983Y-68831202D01*
X72674625Y-68876622D01*
X72674622Y-68876628D01*
X72614834Y-69007543D01*
X72594353Y-69150000D01*
X72616097Y-69301235D01*
X72614279Y-69301496D01*
X72614278Y-69360438D01*
X72576502Y-69419215D01*
X72512945Y-69448238D01*
X72495302Y-69449500D01*
X67604698Y-69449500D01*
X67537659Y-69429815D01*
X67491904Y-69377011D01*
X67481960Y-69307853D01*
X67484883Y-69294412D01*
X67485163Y-69292459D01*
X67485165Y-69292457D01*
X67505647Y-69150000D01*
X67485165Y-69007543D01*
X67425377Y-68876627D01*
X67331128Y-68767857D01*
X67331125Y-68767855D01*
X67331126Y-68767855D01*
X67330061Y-68767171D01*
X67329231Y-68766214D01*
X67324423Y-68762047D01*
X67325022Y-68761355D01*
X67284307Y-68714366D01*
X67274366Y-68645207D01*
X67284309Y-68611345D01*
X67289262Y-68600500D01*
X67337965Y-68493857D01*
X67358447Y-68351400D01*
X67337965Y-68208943D01*
X67278177Y-68078027D01*
X67183928Y-67969257D01*
X67062853Y-67891447D01*
X67062851Y-67891446D01*
X67062849Y-67891445D01*
X67062850Y-67891445D01*
X66924763Y-67850900D01*
X66924761Y-67850900D01*
X66810085Y-67850900D01*
X66743046Y-67831215D01*
X66697291Y-67778411D01*
X66687347Y-67709253D01*
X66697291Y-67675388D01*
X66735165Y-67592457D01*
X66745621Y-67519732D01*
X66774644Y-67456179D01*
X66833421Y-67418403D01*
X66903291Y-67418402D01*
X66962070Y-67456176D01*
X66972671Y-67470337D01*
X66974619Y-67473369D01*
X67007430Y-67511234D01*
X67068872Y-67582143D01*
X67189947Y-67659953D01*
X67189950Y-67659954D01*
X67189949Y-67659954D01*
X67328036Y-67700499D01*
X67328038Y-67700500D01*
X67328039Y-67700500D01*
X67471962Y-67700500D01*
X67471962Y-67700499D01*
X67610053Y-67659953D01*
X67731128Y-67582143D01*
X67825377Y-67473373D01*
X67885165Y-67342457D01*
X67905647Y-67200000D01*
X67885165Y-67057543D01*
X67825377Y-66926627D01*
X67731128Y-66817857D01*
X67610053Y-66740047D01*
X67610051Y-66740046D01*
X67610049Y-66740045D01*
X67610050Y-66740045D01*
X67471963Y-66699500D01*
X67471961Y-66699500D01*
X67328039Y-66699500D01*
X67328036Y-66699500D01*
X67189949Y-66740045D01*
X67068873Y-66817856D01*
X66974623Y-66926626D01*
X66974622Y-66926628D01*
X66914834Y-67057543D01*
X66904379Y-67130266D01*
X66875354Y-67193822D01*
X66816576Y-67231596D01*
X66746706Y-67231596D01*
X66687928Y-67193822D01*
X66677326Y-67179660D01*
X66675376Y-67176626D01*
X66635205Y-67130266D01*
X66581128Y-67067857D01*
X66460053Y-66990047D01*
X66460051Y-66990046D01*
X66460049Y-66990045D01*
X66460050Y-66990045D01*
X66321963Y-66949500D01*
X66321961Y-66949500D01*
X66178039Y-66949500D01*
X66178036Y-66949500D01*
X66039949Y-66990045D01*
X65918873Y-67067856D01*
X65824623Y-67176626D01*
X65824622Y-67176628D01*
X65764834Y-67307543D01*
X65744353Y-67450000D01*
X65764834Y-67592456D01*
X65822103Y-67717856D01*
X65824623Y-67723373D01*
X65918872Y-67832143D01*
X66039947Y-67909953D01*
X66039950Y-67909954D01*
X66039949Y-67909954D01*
X66115520Y-67932143D01*
X66176336Y-67950000D01*
X66178036Y-67950499D01*
X66178038Y-67950500D01*
X66292715Y-67950500D01*
X66359754Y-67970185D01*
X66405509Y-68022989D01*
X66415453Y-68092147D01*
X66405509Y-68126012D01*
X66367634Y-68208943D01*
X66347153Y-68351400D01*
X66367634Y-68493856D01*
X66426783Y-68623371D01*
X66427423Y-68624773D01*
X66521672Y-68733543D01*
X66522735Y-68734226D01*
X66523562Y-68735181D01*
X66528377Y-68739353D01*
X66527777Y-68740045D01*
X66568490Y-68787030D01*
X66578434Y-68856189D01*
X66568491Y-68890053D01*
X66514834Y-69007545D01*
X66494353Y-69150000D01*
X66516097Y-69301235D01*
X66514279Y-69301496D01*
X66514278Y-69360438D01*
X66476502Y-69419215D01*
X66412945Y-69448238D01*
X66395302Y-69449500D01*
X56423488Y-69449500D01*
X56356449Y-69429815D01*
X56329775Y-69406703D01*
X56324400Y-69400500D01*
X56231128Y-69292857D01*
X56110053Y-69215047D01*
X56110051Y-69215046D01*
X56110049Y-69215045D01*
X56110050Y-69215045D01*
X55971963Y-69174500D01*
X55971961Y-69174500D01*
X55828039Y-69174500D01*
X55828036Y-69174500D01*
X55689949Y-69215045D01*
X55568873Y-69292856D01*
X55568872Y-69292856D01*
X55568872Y-69292857D01*
X55561386Y-69301496D01*
X55474623Y-69401626D01*
X55474622Y-69401628D01*
X55414834Y-69532543D01*
X55394353Y-69675000D01*
X55414834Y-69817456D01*
X55453793Y-69902762D01*
X55474623Y-69948373D01*
X55568872Y-70057143D01*
X55689947Y-70134953D01*
X55689950Y-70134954D01*
X55689949Y-70134954D01*
X55797107Y-70166417D01*
X55826026Y-70174909D01*
X55828036Y-70175499D01*
X55828038Y-70175500D01*
X55828039Y-70175500D01*
X55890938Y-70175500D01*
X55923032Y-70179725D01*
X55952813Y-70187705D01*
X55952812Y-70187705D01*
X55958941Y-70189347D01*
X56000564Y-70200500D01*
X56000565Y-70200500D01*
X61475476Y-70200500D01*
X61542515Y-70220185D01*
X61588270Y-70272989D01*
X61598213Y-70306851D01*
X61604490Y-70350506D01*
X61614835Y-70422457D01*
X61614835Y-70422458D01*
X61618299Y-70430043D01*
X61628243Y-70499201D01*
X61599218Y-70562757D01*
X61540440Y-70600531D01*
X61470571Y-70600531D01*
X61362163Y-70568700D01*
X61362161Y-70568700D01*
X61218239Y-70568700D01*
X61218236Y-70568700D01*
X61080149Y-70609245D01*
X60959073Y-70687056D01*
X60864823Y-70795826D01*
X60864822Y-70795828D01*
X60805034Y-70926743D01*
X60784553Y-71069200D01*
X60805034Y-71211656D01*
X60858020Y-71327677D01*
X60864823Y-71342573D01*
X60959072Y-71451343D01*
X61080147Y-71529153D01*
X61080150Y-71529154D01*
X61080149Y-71529154D01*
X61218236Y-71569699D01*
X61218238Y-71569700D01*
X61218239Y-71569700D01*
X61362162Y-71569700D01*
X61362162Y-71569699D01*
X61496510Y-71530252D01*
X61500250Y-71529154D01*
X61500250Y-71529153D01*
X61500253Y-71529153D01*
X61547649Y-71498693D01*
X61614686Y-71479008D01*
X61677197Y-71497362D01*
X61663505Y-71445645D01*
X61684979Y-71379157D01*
X61693741Y-71367772D01*
X61715577Y-71342573D01*
X61775365Y-71211657D01*
X61795847Y-71069200D01*
X61775365Y-70926743D01*
X61771900Y-70919157D01*
X61761956Y-70850001D01*
X61790979Y-70786445D01*
X61849756Y-70748669D01*
X61919624Y-70748667D01*
X61976215Y-70765283D01*
X62028038Y-70780500D01*
X62028039Y-70780500D01*
X62171962Y-70780500D01*
X62171962Y-70780499D01*
X62280372Y-70748668D01*
X62310050Y-70739954D01*
X62310050Y-70739953D01*
X62310053Y-70739953D01*
X62431128Y-70662143D01*
X62525377Y-70553373D01*
X62585165Y-70422457D01*
X62595509Y-70350504D01*
X62624533Y-70286950D01*
X62630568Y-70280468D01*
X62674221Y-70236817D01*
X62735545Y-70203333D01*
X62761900Y-70200500D01*
X74090035Y-70200500D01*
X74090036Y-70200500D01*
X74137786Y-70187705D01*
X74185538Y-70174910D01*
X74271162Y-70125475D01*
X74312618Y-70084019D01*
X74373941Y-70050534D01*
X74400299Y-70047700D01*
X74517720Y-70047700D01*
X74584759Y-70067385D01*
X74630514Y-70120189D01*
X74640458Y-70189347D01*
X74630515Y-70223207D01*
X74616300Y-70254334D01*
X74614834Y-70257545D01*
X74594353Y-70400000D01*
X74614834Y-70542456D01*
X74645336Y-70609245D01*
X74674623Y-70673373D01*
X74768872Y-70782143D01*
X74889947Y-70859953D01*
X74889950Y-70859954D01*
X74889949Y-70859954D01*
X75028036Y-70900499D01*
X75028038Y-70900500D01*
X75028039Y-70900500D01*
X75171962Y-70900500D01*
X75171962Y-70900499D01*
X75310053Y-70859953D01*
X75431128Y-70782143D01*
X75525377Y-70673373D01*
X75585165Y-70542457D01*
X75605647Y-70400000D01*
X75585165Y-70257543D01*
X75569485Y-70223210D01*
X75559542Y-70154054D01*
X75588566Y-70090498D01*
X75647344Y-70052723D01*
X75682280Y-70047700D01*
X88619235Y-70047700D01*
X88619236Y-70047700D01*
X88671718Y-70033636D01*
X88685782Y-70029869D01*
X88698547Y-70026448D01*
X88714738Y-70022110D01*
X88800362Y-69972675D01*
X88870275Y-69902762D01*
X89732599Y-69040437D01*
X89793920Y-69006954D01*
X89802636Y-69005381D01*
X89810154Y-69004300D01*
X89810161Y-69004300D01*
X89948253Y-68963753D01*
X90069328Y-68885943D01*
X90163577Y-68777173D01*
X90167833Y-68767855D01*
X90192260Y-68714366D01*
X90223365Y-68646257D01*
X90233709Y-68574302D01*
X90262733Y-68510749D01*
X90268752Y-68504283D01*
X90673035Y-68100000D01*
X94794353Y-68100000D01*
X94814834Y-68242456D01*
X94874622Y-68373371D01*
X94874625Y-68373377D01*
X94913983Y-68418798D01*
X94943008Y-68482353D01*
X94933064Y-68551512D01*
X94913983Y-68581202D01*
X94874625Y-68626622D01*
X94874622Y-68626628D01*
X94814834Y-68757543D01*
X94794353Y-68900000D01*
X94814834Y-69042456D01*
X94858366Y-69137776D01*
X94874623Y-69173373D01*
X94968872Y-69282143D01*
X95089947Y-69359953D01*
X95089950Y-69359954D01*
X95089949Y-69359954D01*
X95186339Y-69388256D01*
X95222341Y-69398827D01*
X95228036Y-69400499D01*
X95228038Y-69400500D01*
X95326114Y-69400500D01*
X95393153Y-69420185D01*
X95438908Y-69472989D01*
X95448852Y-69542147D01*
X95430153Y-69672200D01*
X95450634Y-69814656D01*
X95510422Y-69945571D01*
X95510423Y-69945573D01*
X95604672Y-70054343D01*
X95725747Y-70132153D01*
X95725750Y-70132154D01*
X95725749Y-70132154D01*
X95863836Y-70172699D01*
X95863838Y-70172700D01*
X95863839Y-70172700D01*
X96007762Y-70172700D01*
X96007762Y-70172699D01*
X96145853Y-70132153D01*
X96266928Y-70054343D01*
X96361177Y-69945573D01*
X96420965Y-69814657D01*
X96441447Y-69672200D01*
X96420965Y-69529743D01*
X96361177Y-69398827D01*
X96266928Y-69290057D01*
X96145853Y-69212247D01*
X96145851Y-69212246D01*
X96145849Y-69212245D01*
X96145850Y-69212245D01*
X96007763Y-69171700D01*
X96007761Y-69171700D01*
X95909686Y-69171700D01*
X95842647Y-69152015D01*
X95796892Y-69099211D01*
X95786948Y-69030053D01*
X95805647Y-68900000D01*
X95785165Y-68757543D01*
X95725377Y-68626627D01*
X95725375Y-68626625D01*
X95725374Y-68626622D01*
X95686017Y-68581203D01*
X95656991Y-68517648D01*
X95666934Y-68448489D01*
X95686017Y-68418797D01*
X95688572Y-68415849D01*
X95725377Y-68373373D01*
X95785165Y-68242457D01*
X95805647Y-68100000D01*
X95785165Y-67957543D01*
X95725377Y-67826627D01*
X95631128Y-67717857D01*
X95510053Y-67640047D01*
X95510051Y-67640046D01*
X95510049Y-67640045D01*
X95510050Y-67640045D01*
X95371963Y-67599500D01*
X95371961Y-67599500D01*
X95228039Y-67599500D01*
X95228036Y-67599500D01*
X95089949Y-67640045D01*
X94968873Y-67717856D01*
X94874623Y-67826626D01*
X94874622Y-67826628D01*
X94814834Y-67957543D01*
X94794353Y-68100000D01*
X90673035Y-68100000D01*
X91978036Y-66795000D01*
X96656353Y-66795000D01*
X96676834Y-66937456D01*
X96700851Y-66990045D01*
X96736623Y-67068373D01*
X96830872Y-67177143D01*
X96951947Y-67254953D01*
X96951950Y-67254954D01*
X96951949Y-67254954D01*
X97090036Y-67295499D01*
X97090038Y-67295500D01*
X97090039Y-67295500D01*
X97233962Y-67295500D01*
X97233962Y-67295499D01*
X97372053Y-67254953D01*
X97493128Y-67177143D01*
X97587377Y-67068373D01*
X97647165Y-66937457D01*
X97667647Y-66795000D01*
X97647165Y-66652543D01*
X97587377Y-66521627D01*
X97493128Y-66412857D01*
X97372053Y-66335047D01*
X97372051Y-66335046D01*
X97372049Y-66335045D01*
X97372050Y-66335045D01*
X97233963Y-66294500D01*
X97233961Y-66294500D01*
X97090039Y-66294500D01*
X97090036Y-66294500D01*
X96951949Y-66335045D01*
X96830873Y-66412856D01*
X96736623Y-66521626D01*
X96736622Y-66521628D01*
X96676834Y-66652543D01*
X96656353Y-66795000D01*
X91978036Y-66795000D01*
X95536218Y-63236819D01*
X95597541Y-63203334D01*
X95623899Y-63200500D01*
X95771962Y-63200500D01*
X95771962Y-63200499D01*
X95910053Y-63159953D01*
X96031128Y-63082143D01*
X96125377Y-62973373D01*
X96185165Y-62842457D01*
X96205647Y-62700000D01*
X96185165Y-62557543D01*
X96125377Y-62426627D01*
X96105785Y-62404016D01*
X96076762Y-62340460D01*
X96075500Y-62322815D01*
X96075500Y-59595971D01*
X96075500Y-59595970D01*
X96075500Y-59595969D01*
X96049911Y-59500468D01*
X96000475Y-59414843D01*
X89385632Y-52800000D01*
X93394353Y-52800000D01*
X93414834Y-52942456D01*
X93474622Y-53073371D01*
X93474623Y-53073373D01*
X93568872Y-53182143D01*
X93689947Y-53259953D01*
X93689950Y-53259954D01*
X93689949Y-53259954D01*
X93828036Y-53300499D01*
X93828038Y-53300500D01*
X93828039Y-53300500D01*
X93971962Y-53300500D01*
X93971962Y-53300499D01*
X94110050Y-53259954D01*
X94110051Y-53259954D01*
X94110053Y-53259953D01*
X94231128Y-53182143D01*
X94231129Y-53182141D01*
X94232960Y-53180965D01*
X94300000Y-53161280D01*
X94367039Y-53180964D01*
X94367040Y-53180965D01*
X94368870Y-53182141D01*
X94368872Y-53182143D01*
X94446251Y-53231871D01*
X94489948Y-53259954D01*
X94628036Y-53300499D01*
X94628038Y-53300500D01*
X94628039Y-53300500D01*
X94771962Y-53300500D01*
X94771962Y-53300499D01*
X94910053Y-53259953D01*
X95031128Y-53182143D01*
X95125377Y-53073373D01*
X95185165Y-52942457D01*
X95205647Y-52800000D01*
X95185165Y-52657543D01*
X95125377Y-52526627D01*
X95031128Y-52417857D01*
X94910053Y-52340047D01*
X94910051Y-52340046D01*
X94910049Y-52340045D01*
X94910050Y-52340045D01*
X94771963Y-52299500D01*
X94771961Y-52299500D01*
X94628039Y-52299500D01*
X94628036Y-52299500D01*
X94489949Y-52340045D01*
X94367039Y-52419035D01*
X94300000Y-52438719D01*
X94232961Y-52419035D01*
X94203653Y-52400200D01*
X94110053Y-52340047D01*
X94110051Y-52340046D01*
X94110049Y-52340045D01*
X94110050Y-52340045D01*
X93971963Y-52299500D01*
X93971961Y-52299500D01*
X93828039Y-52299500D01*
X93828036Y-52299500D01*
X93689949Y-52340045D01*
X93568873Y-52417856D01*
X93568872Y-52417856D01*
X93568872Y-52417857D01*
X93567851Y-52419035D01*
X93474623Y-52526626D01*
X93474622Y-52526628D01*
X93414834Y-52657543D01*
X93394353Y-52800000D01*
X89385632Y-52800000D01*
X89345758Y-52760126D01*
X89345757Y-52760125D01*
X89260133Y-52710690D01*
X89212381Y-52697895D01*
X89212379Y-52697894D01*
X89212377Y-52697893D01*
X89164631Y-52685100D01*
X89164630Y-52685100D01*
X84502674Y-52685100D01*
X84435635Y-52665415D01*
X84435634Y-52665415D01*
X84423385Y-52657543D01*
X84334853Y-52600647D01*
X84334852Y-52600646D01*
X84334851Y-52600646D01*
X84334850Y-52600645D01*
X84196763Y-52560100D01*
X84196761Y-52560100D01*
X84052839Y-52560100D01*
X84052836Y-52560100D01*
X83914749Y-52600645D01*
X83791246Y-52680016D01*
X83724207Y-52699700D01*
X62606098Y-52699700D01*
X62539059Y-52680015D01*
X62493304Y-52627211D01*
X62483360Y-52558053D01*
X62486283Y-52544612D01*
X62486563Y-52542659D01*
X62486565Y-52542657D01*
X62507047Y-52400200D01*
X62486565Y-52257743D01*
X62426777Y-52126827D01*
X62332528Y-52018057D01*
X62211453Y-51940247D01*
X62211451Y-51940246D01*
X62211449Y-51940245D01*
X62211450Y-51940245D01*
X62073363Y-51899700D01*
X62073361Y-51899700D01*
X61929439Y-51899700D01*
X61929436Y-51899700D01*
X61791349Y-51940245D01*
X61670273Y-52018056D01*
X61576023Y-52126826D01*
X61576022Y-52126828D01*
X61516234Y-52257743D01*
X61495753Y-52400200D01*
X61517497Y-52551435D01*
X61515679Y-52551696D01*
X61515678Y-52610638D01*
X61477902Y-52669415D01*
X61414345Y-52698438D01*
X61396702Y-52699700D01*
X55132099Y-52699700D01*
X55065060Y-52680015D01*
X55044418Y-52663381D01*
X54530566Y-52149529D01*
X54497081Y-52088206D01*
X54495509Y-52079493D01*
X54494918Y-52075384D01*
X54486677Y-52018057D01*
X54485166Y-52007548D01*
X54485165Y-52007546D01*
X54485165Y-52007543D01*
X54452264Y-51935500D01*
X54444089Y-51917600D01*
X55602953Y-51917600D01*
X55623434Y-52060056D01*
X55664296Y-52149529D01*
X55683223Y-52190973D01*
X55777472Y-52299743D01*
X55898547Y-52377553D01*
X55898550Y-52377554D01*
X55898549Y-52377554D01*
X55975676Y-52400200D01*
X56035811Y-52417857D01*
X56036636Y-52418099D01*
X56036638Y-52418100D01*
X56036639Y-52418100D01*
X56180562Y-52418100D01*
X56180562Y-52418099D01*
X56318653Y-52377553D01*
X56439728Y-52299743D01*
X56533977Y-52190973D01*
X56593765Y-52060057D01*
X56614247Y-51917600D01*
X56593765Y-51775143D01*
X56533977Y-51644227D01*
X56439728Y-51535457D01*
X56318653Y-51457647D01*
X56318651Y-51457646D01*
X56318649Y-51457645D01*
X56318650Y-51457645D01*
X56180563Y-51417100D01*
X56180561Y-51417100D01*
X56036639Y-51417100D01*
X56036636Y-51417100D01*
X55898549Y-51457645D01*
X55777473Y-51535456D01*
X55683223Y-51644226D01*
X55683222Y-51644228D01*
X55623434Y-51775143D01*
X55602953Y-51917600D01*
X54444089Y-51917600D01*
X54425379Y-51876630D01*
X54425376Y-51876626D01*
X54418755Y-51868985D01*
X54331128Y-51767857D01*
X54210053Y-51690047D01*
X54210051Y-51690046D01*
X54210049Y-51690045D01*
X54210050Y-51690045D01*
X54071963Y-51649500D01*
X54071961Y-51649500D01*
X53928039Y-51649500D01*
X53928036Y-51649500D01*
X53789949Y-51690045D01*
X53668873Y-51767856D01*
X53574623Y-51876626D01*
X53574622Y-51876628D01*
X53514834Y-52007543D01*
X53494353Y-52150000D01*
X50336102Y-52150000D01*
X50355673Y-52082068D01*
X50360265Y-52068948D01*
X50382279Y-52015799D01*
X50475075Y-51791768D01*
X50481097Y-51779262D01*
X50626230Y-51516665D01*
X50633625Y-51504897D01*
X50807245Y-51260201D01*
X50815896Y-51249354D01*
X51015816Y-51025645D01*
X51025647Y-51015815D01*
X51249354Y-50815896D01*
X51260201Y-50807245D01*
X51504902Y-50633621D01*
X51516665Y-50626230D01*
X51779262Y-50481097D01*
X51791768Y-50475075D01*
X52068948Y-50360265D01*
X52082068Y-50355673D01*
X52370369Y-50272614D01*
X52383915Y-50269523D01*
X52679700Y-50219267D01*
X52693494Y-50217713D01*
X52996528Y-50200695D01*
X53003481Y-50200500D01*
X53039882Y-50200500D01*
X66897259Y-50200500D01*
X66964298Y-50220185D01*
G37*
%TD.AperFunction*%
%TD*%
M02*
