%TF.GenerationSoftware,KiCad,Pcbnew,8.0.9-8.0.9-0~ubuntu22.04.1*%
%TF.CreationDate,2025-03-29T20:24:42+09:00*%
%TF.ProjectId,blmd_hardware,626c6d64-5f68-4617-9264-776172652e6b,rev?*%
%TF.SameCoordinates,Original*%
%TF.FileFunction,Soldermask,Top*%
%TF.FilePolarity,Negative*%
%FSLAX46Y46*%
G04 Gerber Fmt 4.6, Leading zero omitted, Abs format (unit mm)*
G04 Created by KiCad (PCBNEW 8.0.9-8.0.9-0~ubuntu22.04.1) date 2025-03-29 20:24:42*
%MOMM*%
%LPD*%
G01*
G04 APERTURE LIST*
G04 Aperture macros list*
%AMRoundRect*
0 Rectangle with rounded corners*
0 $1 Rounding radius*
0 $2 $3 $4 $5 $6 $7 $8 $9 X,Y pos of 4 corners*
0 Add a 4 corners polygon primitive as box body*
4,1,4,$2,$3,$4,$5,$6,$7,$8,$9,$2,$3,0*
0 Add four circle primitives for the rounded corners*
1,1,$1+$1,$2,$3*
1,1,$1+$1,$4,$5*
1,1,$1+$1,$6,$7*
1,1,$1+$1,$8,$9*
0 Add four rect primitives between the rounded corners*
20,1,$1+$1,$2,$3,$4,$5,0*
20,1,$1+$1,$4,$5,$6,$7,0*
20,1,$1+$1,$6,$7,$8,$9,0*
20,1,$1+$1,$8,$9,$2,$3,0*%
%AMRotRect*
0 Rectangle, with rotation*
0 The origin of the aperture is its center*
0 $1 length*
0 $2 width*
0 $3 Rotation angle, in degrees counterclockwise*
0 Add horizontal line*
21,1,$1,$2,0,0,$3*%
%AMFreePoly0*
4,1,21,-0.300000,0.107500,-0.291817,0.148638,-0.268514,0.183514,-0.233638,0.206817,-0.192500,0.215000,0.192500,0.215000,0.233638,0.206817,0.268514,0.183514,0.291817,0.148638,0.300000,0.107500,0.300000,-0.107500,0.291817,-0.148638,0.268514,-0.183514,0.233638,-0.206817,0.192500,-0.215000,-0.192500,-0.215000,-0.233638,-0.206817,-0.268514,-0.183514,-0.291817,-0.148638,-0.300000,-0.107500,
-0.300000,0.107500,-0.300000,0.107500,$1*%
G04 Aperture macros list end*
%ADD10RoundRect,0.237500X-0.237500X0.250000X-0.237500X-0.250000X0.237500X-0.250000X0.237500X0.250000X0*%
%ADD11RoundRect,0.237500X-0.300000X-0.237500X0.300000X-0.237500X0.300000X0.237500X-0.300000X0.237500X0*%
%ADD12RoundRect,0.237500X0.237500X-0.250000X0.237500X0.250000X-0.237500X0.250000X-0.237500X-0.250000X0*%
%ADD13RoundRect,0.237500X-0.287500X-0.237500X0.287500X-0.237500X0.287500X0.237500X-0.287500X0.237500X0*%
%ADD14RoundRect,0.237500X0.300000X0.237500X-0.300000X0.237500X-0.300000X-0.237500X0.300000X-0.237500X0*%
%ADD15FreePoly0,270.000000*%
%ADD16RoundRect,0.107500X-0.107500X0.192500X-0.107500X-0.192500X0.107500X-0.192500X0.107500X0.192500X0*%
%ADD17R,0.430000X0.450000*%
%ADD18R,3.000000X2.000000*%
%ADD19R,1.700000X1.700000*%
%ADD20O,1.700000X1.700000*%
%ADD21R,0.812800X0.254000*%
%ADD22R,0.254000X0.812800*%
%ADD23R,4.089400X4.089400*%
%ADD24RoundRect,0.237500X0.250000X0.237500X-0.250000X0.237500X-0.250000X-0.237500X0.250000X-0.237500X0*%
%ADD25RoundRect,0.250000X0.250000X0.250000X-0.250000X0.250000X-0.250000X-0.250000X0.250000X-0.250000X0*%
%ADD26FreePoly0,90.000000*%
%ADD27RoundRect,0.107500X0.107500X-0.192500X0.107500X0.192500X-0.107500X0.192500X-0.107500X-0.192500X0*%
%ADD28R,0.800000X1.070000*%
%ADD29RotRect,0.282800X0.282800X135.000000*%
%ADD30R,0.600000X0.200000*%
%ADD31R,0.850000X0.300000*%
%ADD32R,0.300000X0.850000*%
%ADD33RoundRect,0.237500X-0.250000X-0.237500X0.250000X-0.237500X0.250000X0.237500X-0.250000X0.237500X0*%
%ADD34RoundRect,0.250000X-0.475000X0.337500X-0.475000X-0.337500X0.475000X-0.337500X0.475000X0.337500X0*%
%ADD35RoundRect,0.150000X0.825000X0.150000X-0.825000X0.150000X-0.825000X-0.150000X0.825000X-0.150000X0*%
%ADD36RoundRect,0.237500X-0.237500X0.287500X-0.237500X-0.287500X0.237500X-0.287500X0.237500X0.287500X0*%
%ADD37FreePoly0,180.000000*%
%ADD38RoundRect,0.107500X0.192500X0.107500X-0.192500X0.107500X-0.192500X-0.107500X0.192500X-0.107500X0*%
%ADD39R,0.450000X0.430000*%
%ADD40R,2.000000X3.000000*%
%ADD41R,2.000000X2.000000*%
%ADD42C,2.000000*%
%ADD43RoundRect,0.150000X0.150000X0.700000X-0.150000X0.700000X-0.150000X-0.700000X0.150000X-0.700000X0*%
%ADD44RoundRect,0.250000X0.250000X1.100000X-0.250000X1.100000X-0.250000X-1.100000X0.250000X-1.100000X0*%
%ADD45RoundRect,0.250000X0.250000X-0.250000X0.250000X0.250000X-0.250000X0.250000X-0.250000X-0.250000X0*%
%ADD46C,1.400000*%
%ADD47R,3.000000X3.000000*%
%ADD48C,3.000000*%
%ADD49RotRect,0.282800X0.282800X315.000000*%
%ADD50R,2.768600X0.660400*%
%ADD51RoundRect,0.125000X-0.537500X-0.125000X0.537500X-0.125000X0.537500X0.125000X-0.537500X0.125000X0*%
G04 APERTURE END LIST*
D10*
%TO.C,R18*%
X89800000Y-58187500D03*
X89800000Y-60012500D03*
%TD*%
D11*
%TO.C,C4*%
X74137500Y-61400000D03*
X75862500Y-61400000D03*
%TD*%
D12*
%TO.C,R16*%
X90500000Y-56062500D03*
X90500000Y-54237500D03*
%TD*%
D13*
%TO.C,L1*%
X84425000Y-69700000D03*
X86175000Y-69700000D03*
%TD*%
D14*
%TO.C,C14*%
X56762500Y-68850000D03*
X55037500Y-68850000D03*
%TD*%
D15*
%TO.C,Q1*%
X65585000Y-67700000D03*
D16*
X64935000Y-67700000D03*
X64285000Y-67700000D03*
X63635000Y-67700000D03*
D17*
X63635000Y-70875000D03*
X64285000Y-70875000D03*
X64935000Y-70874000D03*
X65585000Y-70875000D03*
D18*
X64610000Y-69649500D03*
%TD*%
D19*
%TO.C,J4*%
X67560000Y-72400000D03*
D20*
X67560000Y-74940000D03*
X65020000Y-72400000D03*
X65020000Y-74940000D03*
X62480000Y-72400000D03*
X62480000Y-74940000D03*
X59940000Y-72400000D03*
X59940000Y-74940000D03*
X57400000Y-72400000D03*
X57400000Y-74940000D03*
X54860000Y-72400000D03*
X54860000Y-74940000D03*
X52320000Y-72400000D03*
X52320000Y-74940000D03*
%TD*%
D21*
%TO.C,U1*%
X87845000Y-67150945D03*
X87845000Y-66650819D03*
X87845000Y-66150693D03*
X87845000Y-65650567D03*
X87845000Y-65150441D03*
X87845000Y-64650315D03*
X87845000Y-64150189D03*
X87845000Y-63650063D03*
X87845000Y-63149937D03*
X87845000Y-62649811D03*
X87845000Y-62149685D03*
X87845000Y-61649559D03*
X87845000Y-61149433D03*
X87845000Y-60649307D03*
X87845000Y-60149181D03*
X87845000Y-59649055D03*
D22*
X87150945Y-58955000D03*
X86650819Y-58955000D03*
X86150693Y-58955000D03*
X85650567Y-58955000D03*
X85150441Y-58955000D03*
X84650315Y-58955000D03*
X84150189Y-58955000D03*
X83650063Y-58955000D03*
X83149937Y-58955000D03*
X82649811Y-58955000D03*
X82149685Y-58955000D03*
X81649559Y-58955000D03*
X81149433Y-58955000D03*
X80649307Y-58955000D03*
X80149181Y-58955000D03*
X79649055Y-58955000D03*
D21*
X78955000Y-59649055D03*
X78955000Y-60149181D03*
X78955000Y-60649307D03*
X78955000Y-61149433D03*
X78955000Y-61649559D03*
X78955000Y-62149685D03*
X78955000Y-62649811D03*
X78955000Y-63149937D03*
X78955000Y-63650063D03*
X78955000Y-64150189D03*
X78955000Y-64650315D03*
X78955000Y-65150441D03*
X78955000Y-65650567D03*
X78955000Y-66150693D03*
X78955000Y-66650819D03*
X78955000Y-67150945D03*
D22*
X79649055Y-67845000D03*
X80149181Y-67845000D03*
X80649307Y-67845000D03*
X81149433Y-67845000D03*
X81649559Y-67845000D03*
X82149685Y-67845000D03*
X82649811Y-67845000D03*
X83149937Y-67845000D03*
X83650063Y-67845000D03*
X84150189Y-67845000D03*
X84650315Y-67845000D03*
X85150441Y-67845000D03*
X85650567Y-67845000D03*
X86150693Y-67845000D03*
X86650819Y-67845000D03*
X87150945Y-67845000D03*
D23*
X83400000Y-63400000D03*
%TD*%
D11*
%TO.C,C8*%
X83437500Y-57100000D03*
X85162500Y-57100000D03*
%TD*%
D24*
%TO.C,R1*%
X75912500Y-69150000D03*
X74087500Y-69150000D03*
%TD*%
D25*
%TO.C,D5*%
X82750000Y-70000000D03*
X80250000Y-70000000D03*
%TD*%
D26*
%TO.C,Q3*%
X63810400Y-54202600D03*
D27*
X64460400Y-54202600D03*
X65110400Y-54202600D03*
X65760400Y-54202600D03*
D17*
X65760400Y-51027600D03*
X65110400Y-51027600D03*
X64460400Y-51028600D03*
X63810400Y-51027600D03*
D18*
X64785400Y-52253100D03*
%TD*%
D12*
%TO.C,R17*%
X92050000Y-56062500D03*
X92050000Y-54237500D03*
%TD*%
D28*
%TO.C,U5*%
X58000000Y-54120000D03*
D29*
X57800000Y-53585000D03*
D30*
X58100000Y-53485000D03*
D28*
X59000000Y-54120000D03*
D29*
X59200000Y-53585000D03*
D30*
X58900000Y-53485000D03*
D31*
X59950000Y-52570000D03*
X59950000Y-52070000D03*
D32*
X59250000Y-51370000D03*
X58750000Y-51370000D03*
X58250000Y-51370000D03*
X57750000Y-51370000D03*
D31*
X57050000Y-52070000D03*
X57050000Y-52570000D03*
%TD*%
D33*
%TO.C,R22*%
X54987500Y-70400000D03*
X56812500Y-70400000D03*
%TD*%
D34*
%TO.C,C5*%
X88200000Y-69762500D03*
X88200000Y-71837500D03*
%TD*%
D11*
%TO.C,C3*%
X74137500Y-64500000D03*
X75862500Y-64500000D03*
%TD*%
D24*
%TO.C,R23*%
X54912500Y-51300000D03*
X53087500Y-51300000D03*
%TD*%
D35*
%TO.C,U2*%
X98675000Y-70605000D03*
X98675000Y-69335000D03*
X98675000Y-68065000D03*
X98675000Y-66795000D03*
X93725000Y-66795000D03*
X93725000Y-68065000D03*
X93725000Y-69335000D03*
X93725000Y-70605000D03*
%TD*%
D11*
%TO.C,C12*%
X89487500Y-67600000D03*
X91212500Y-67600000D03*
%TD*%
D36*
%TO.C,D8*%
X92050000Y-50775000D03*
X92050000Y-52525000D03*
%TD*%
D26*
%TO.C,Q2*%
X59515000Y-61400000D03*
D27*
X60165000Y-61400000D03*
X60815000Y-61400000D03*
X61465000Y-61400000D03*
D17*
X61465000Y-58225000D03*
X60815000Y-58225000D03*
X60165000Y-58226000D03*
X59515000Y-58225000D03*
D18*
X60490000Y-59450500D03*
%TD*%
D24*
%TO.C,R3*%
X75912500Y-66050000D03*
X74087500Y-66050000D03*
%TD*%
D37*
%TO.C,Q5*%
X67500000Y-62685000D03*
D38*
X67500000Y-62035000D03*
X67500000Y-61385000D03*
X67500000Y-60735000D03*
D39*
X64325000Y-60735000D03*
X64325000Y-61385000D03*
X64326000Y-62035000D03*
X64325000Y-62685000D03*
D40*
X65550500Y-61710000D03*
%TD*%
D19*
%TO.C,J3*%
X85340000Y-72400000D03*
D20*
X85340000Y-74940000D03*
X82800000Y-72400000D03*
X82800000Y-74940000D03*
X80260000Y-72400000D03*
X80260000Y-74940000D03*
X77720000Y-72400000D03*
X77720000Y-74940000D03*
X75180000Y-72400000D03*
X75180000Y-74940000D03*
X72640000Y-72400000D03*
X72640000Y-74940000D03*
X70100000Y-72400000D03*
X70100000Y-74940000D03*
%TD*%
D11*
%TO.C,C13*%
X89487500Y-66050000D03*
X91212500Y-66050000D03*
%TD*%
D37*
%TO.C,Q4*%
X67500000Y-66285000D03*
D38*
X67500000Y-65635000D03*
X67500000Y-64985000D03*
X67500000Y-64335000D03*
D39*
X64325000Y-64335000D03*
X64325000Y-64985000D03*
X64326000Y-65635000D03*
X64325000Y-66285000D03*
D40*
X65550500Y-65310000D03*
%TD*%
D14*
%TO.C,C15*%
X54862500Y-53000000D03*
X53137500Y-53000000D03*
%TD*%
D41*
%TO.C,C1*%
X70733523Y-55219600D03*
D42*
X75733523Y-55219600D03*
%TD*%
D14*
%TO.C,C2*%
X75862500Y-67600000D03*
X74137500Y-67600000D03*
%TD*%
D12*
%TO.C,R15*%
X88950000Y-56062500D03*
X88950000Y-54237500D03*
%TD*%
D37*
%TO.C,Q6*%
X67500000Y-59085000D03*
D38*
X67500000Y-58435000D03*
X67500000Y-57785000D03*
X67500000Y-57135000D03*
D39*
X64325000Y-57135000D03*
X64325000Y-57785000D03*
X64326000Y-58435000D03*
X64325000Y-59085000D03*
D40*
X65550500Y-58110000D03*
%TD*%
D43*
%TO.C,J6*%
X85375000Y-54750000D03*
X84125000Y-54750000D03*
X82875000Y-54750000D03*
X81625000Y-54750000D03*
D44*
X87225000Y-51550000D03*
X79775000Y-51550000D03*
%TD*%
D14*
%TO.C,C19*%
X81362501Y-57100000D03*
X79637499Y-57100000D03*
%TD*%
D45*
%TO.C,D1*%
X91500000Y-60450000D03*
X91500000Y-57950000D03*
%TD*%
D24*
%TO.C,R5*%
X75912500Y-62950000D03*
X74087500Y-62950000D03*
%TD*%
D36*
%TO.C,D7*%
X90500000Y-50775000D03*
X90500000Y-52525000D03*
%TD*%
D46*
%TO.C,J1*%
X51500000Y-69200000D03*
X51500000Y-56200000D03*
D47*
X56500000Y-59200000D03*
D48*
X56500000Y-62700000D03*
X56500000Y-66200000D03*
%TD*%
D28*
%TO.C,U4*%
X60800000Y-67380000D03*
D49*
X61000000Y-67915000D03*
D30*
X60700000Y-68015000D03*
D28*
X59800000Y-67380000D03*
D49*
X59600000Y-67915000D03*
D30*
X59900000Y-68015000D03*
D31*
X58850000Y-68930000D03*
X58850000Y-69430000D03*
D32*
X59550000Y-70130000D03*
X60050000Y-70130000D03*
X60550000Y-70130000D03*
X61050000Y-70130000D03*
D31*
X61750000Y-69430000D03*
X61750000Y-68930000D03*
%TD*%
D50*
%TO.C,J5*%
X98265000Y-61610000D03*
X94735000Y-61610000D03*
X98265000Y-60340000D03*
X94735000Y-60340000D03*
X98265000Y-59070000D03*
X94735000Y-59070000D03*
X98265000Y-57800000D03*
X94735000Y-57800000D03*
X98265000Y-56530000D03*
X94735000Y-56530000D03*
X98265000Y-55260000D03*
X94735000Y-55260000D03*
X98265000Y-53990000D03*
X94735000Y-53990000D03*
%TD*%
D36*
%TO.C,D6*%
X88950000Y-50775000D03*
X88950000Y-52525000D03*
%TD*%
D19*
%TO.C,J2*%
X98100000Y-72400000D03*
D20*
X98100000Y-74940000D03*
X95560000Y-72400000D03*
X95560000Y-74940000D03*
X93020000Y-72400000D03*
X93020000Y-74940000D03*
X90480000Y-72400000D03*
X90480000Y-74940000D03*
%TD*%
D51*
%TO.C,U3*%
X89942500Y-62525000D03*
X89942500Y-63175000D03*
X89942500Y-63825000D03*
X89942500Y-64475000D03*
X92217500Y-64475000D03*
X92217500Y-63825000D03*
X92217500Y-63175000D03*
X92217500Y-62525000D03*
%TD*%
M02*
